<?xml version="1.0" encoding="UTF-8" standalone="no"?>
<!-- Created with Inkscape (http://www.inkscape.org/) -->

<svg
   width="120"
   height="120"
   viewBox="0 0 120 120"
   version="1.1"
   id="svg1"
   xml:space="preserve"
   inkscape:version="1.4.2 (ebf0e940d0, 2025-05-08)"
   sodipodi:docname="acu.svg"
   xmlns:inkscape="http://www.inkscape.org/namespaces/inkscape"
   xmlns:sodipodi="http://sodipodi.sourceforge.net/DTD/sodipodi-0.dtd"
   xmlns:xlink="http://www.w3.org/1999/xlink"
   xmlns="http://www.w3.org/2000/svg"
   xmlns:svg="http://www.w3.org/2000/svg"><sodipodi:namedview
     id="namedview1"
     pagecolor="#1f1f1f"
     bordercolor="#000000"
     borderopacity="0.25"
     inkscape:showpageshadow="2"
     inkscape:pageopacity="0.0"
     inkscape:pagecheckerboard="0"
     inkscape:deskcolor="#3c3c3c"
     inkscape:document-units="px"
     inkscape:zoom="5.6568543"
     inkscape:cx="67.440309"
     inkscape:cy="50.116193"
     inkscape:window-width="1660"
     inkscape:window-height="1287"
     inkscape:window-x="0"
     inkscape:window-y="0"
     inkscape:window-maximized="1"
     inkscape:current-layer="layer3" /><defs
     id="defs1"><linearGradient
       id="linearGradient1"
       inkscape:collect="always"><stop
         style="stop-color:#c3c1bf;stop-opacity:1;"
         offset="0"
         id="stop10" /><stop
         style="stop-color:#a2cae9;stop-opacity:1;"
         offset="1"
         id="stop11" /></linearGradient><inkscape:path-effect
       effect="bspline"
       id="path-effect14"
       is_visible="true"
       lpeversion="1.3"
       weight="33.333333"
       steps="2"
       helper_size="0"
       apply_no_weight="true"
       apply_with_weight="true"
       only_selected="false"
       uniform="false" /><inkscape:path-effect
       effect="fillet_chamfer"
       id="path-effect5"
       is_visible="true"
       lpeversion="1"
       nodesatellites_param="F,0,0,1,0,37.022737,0,1 @ F,0,0,1,0,36.062445,0,1 @ F,0,0,1,0,35.528974,0,1 @ F,0,0,1,0,28.991378,0,1"
       radius="0"
       unit="px"
       method="auto"
       mode="F"
       chamfer_steps="1"
       flexible="false"
       use_knot_distance="true"
       apply_no_radius="true"
       apply_with_radius="true"
       only_selected="false"
       hide_knots="false" /><inkscape:path-effect
       effect="bspline"
       id="path-effect4"
       is_visible="true"
       lpeversion="1.3"
       weight="33.333333"
       steps="2"
       helper_size="0"
       apply_no_weight="true"
       apply_with_weight="true"
       only_selected="false"
       uniform="false" /><inkscape:path-effect
       effect="bspline"
       id="path-effect3"
       is_visible="true"
       lpeversion="1.3"
       weight="33.333333"
       steps="2"
       helper_size="0"
       apply_no_weight="true"
       apply_with_weight="true"
       only_selected="false"
       uniform="false" /><inkscape:path-effect
       effect="mirror_symmetry"
       start_point="59.977887,81.781355"
       end_point="59.977887,112.27285"
       center_point="59.977887,97.027103"
       id="path-effect9"
       is_visible="true"
       lpeversion="1.2"
       lpesatellites=""
       mode="free"
       discard_orig_path="false"
       fuse_paths="false"
       oposite_fuse="false"
       split_items="false"
       split_open="false"
       link_styles="false" /><inkscape:path-effect
       effect="mirror_symmetry"
       start_point="59.944658,10.409945"
       end_point="59.944658,50.039614"
       center_point="59.944658,30.22478"
       id="path-effect2"
       is_visible="true"
       lpeversion="1.2"
       lpesatellites=""
       mode="free"
       discard_orig_path="false"
       fuse_paths="false"
       oposite_fuse="false"
       split_items="false"
       split_open="false"
       link_styles="false" /><inkscape:path-effect
       effect="mirror_symmetry"
       start_point="59.948435,66.805114"
       end_point="59.948435,107.38004"
       center_point="59.948435,87.092577"
       id="path-effect8"
       is_visible="true"
       lpeversion="1.2"
       lpesatellites=""
       mode="free"
       discard_orig_path="false"
       fuse_paths="false"
       oposite_fuse="false"
       split_items="false"
       split_open="false"
       link_styles="false" /><inkscape:path-effect
       effect="mirror_symmetry"
       start_point="60.801511,9.4541705"
       end_point="60.801511,40.169132"
       center_point="60.801511,24.811651"
       id="path-effect7"
       is_visible="true"
       lpeversion="1.2"
       lpesatellites=""
       mode="free"
       discard_orig_path="false"
       fuse_paths="false"
       oposite_fuse="false"
       split_items="false"
       split_open="false"
       link_styles="false" /><inkscape:path-effect
       effect="fillet_chamfer"
       id="path-effect13"
       is_visible="true"
       lpeversion="1"
       nodesatellites_param="F,0,0,1,0,4.7467821,0,1 @ F,0,0,1,0,4.0515277,0,1 @ F,0,0,1,0,0,0,1 @ F,0,0,1,0,2.4219461,0,1 @ F,0,0,1,0,2.4960577,0,1 @ F,0,0,1,0,0,0,1 @ F,0,0,1,0,4.1062831,0,1"
       radius="0"
       unit="px"
       method="auto"
       mode="F"
       chamfer_steps="1"
       flexible="false"
       use_knot_distance="true"
       apply_no_radius="true"
       apply_with_radius="true"
       only_selected="false"
       hide_knots="false" /><inkscape:path-effect
       effect="fillet_chamfer"
       id="path-effect12"
       is_visible="true"
       lpeversion="1"
       nodesatellites_param="F,0,0,1,0,0,0,1 @ F,0,0,1,0,0,0,1 @ F,0,0,1,0,0,0,1 @ F,0,0,1,0,0,0,1 @ F,0,0,1,0,3.627665,0,1 @ F,0,0,1,0,0,0,1 @ F,0,0,1,0,0,0,1"
       radius="0"
       unit="px"
       method="auto"
       mode="F"
       chamfer_steps="1"
       flexible="false"
       use_knot_distance="true"
       apply_no_radius="true"
       apply_with_radius="true"
       only_selected="false"
       hide_knots="false" /><inkscape:path-effect
       effect="fillet_chamfer"
       id="path-effect11"
       is_visible="true"
       lpeversion="1"
       nodesatellites_param="F,0,0,1,0,2.9729248,0,1 @ F,0,0,1,0,3.8975858,0,1 @ F,0,0,1,0,0,0,1 @ F,0,1,1,0,3.784373,0,1 @ F,0,0,1,0,1.4792147,0,1 @ F,0,0,1,0,0,0,1 @ F,0,0,1,0,3.784373,0,1"
       radius="0"
       unit="px"
       method="auto"
       mode="F"
       chamfer_steps="1"
       flexible="false"
       use_knot_distance="true"
       apply_no_radius="true"
       apply_with_radius="true"
       only_selected="false"
       hide_knots="false" /><linearGradient
       id="linearGradient6"><stop
         style="stop-color:#c88500;stop-opacity:1;"
         offset="0.07163448"
         id="stop8" /><stop
         style="stop-color:#fff300;stop-opacity:1;"
         offset="1"
         id="stop9" /></linearGradient><linearGradient
       id="linearGradient6-1"><stop
         style="stop-color:#c88500;stop-opacity:1;"
         offset="0"
         id="stop6" /><stop
         style="stop-color:#fff300;stop-opacity:1;"
         offset="1"
         id="stop7" /></linearGradient><inkscape:path-effect
       effect="fillet_chamfer"
       id="path-effect1"
       is_visible="true"
       lpeversion="1"
       nodesatellites_param="F,0,0,1,0,24.536157,0,1 @ F,0,0,1,0,24.004899,0,1 @ F,0,0,1,0,23.651152,0,1 @ F,0,0,1,0,24.380791,0,1"
       radius="0"
       unit="px"
       method="auto"
       mode="F"
       chamfer_steps="1"
       flexible="false"
       use_knot_distance="true"
       apply_no_radius="true"
       apply_with_radius="true"
       only_selected="false"
       hide_knots="false" /><linearGradient
       id="a"
       x1="7.937"
       x2="7.937"
       y1="15.081"
       y2="1.852"
       gradientTransform="scale(3.7796)"
       gradientUnits="userSpaceOnUse"><stop
         offset="0"
         stop-color="#9b6f27"
         id="stop1" /><stop
         offset="1"
         stop-color="#d0ab6a"
         id="stop2" /></linearGradient><filter
       id="b"
       width="1.216"
       height="1.216"
       x="-0.108"
       y="-0.108"
       color-interpolation-filters="sRGB"><feGaussianBlur
         stdDeviation="1.35"
         id="feGaussianBlur2" /></filter><linearGradient
       id="linearGradient31"
       x1=".5002"
       x2=".5002"
       y2="1"
       gradientTransform="matrix(244,0,0,228,5.986,12)"
       gradientUnits="userSpaceOnUse"><stop
         stop-color="#ebdbb2"
         stop-opacity=".2"
         offset="0"
         id="stop1-5" /><stop
         stop-color="#ebdbb2"
         stop-opacity=".05"
         offset=".1"
         id="stop2-6" /><stop
         stop-opacity="0"
         offset=".7036"
         id="stop3" /><stop
         stop-opacity=".1"
         offset=".8975"
         id="stop4" /><stop
         stop-opacity=".2"
         offset="1"
         id="stop5" /></linearGradient><linearGradient
       inkscape:collect="always"
       xlink:href="#linearGradient1"
       id="linearGradient11"
       x1="11.844038"
       y1="17.67767"
       x2="105.35891"
       y2="105.71246"
       gradientUnits="userSpaceOnUse" /><inkscape:path-effect
       effect="bspline"
       id="path-effect5-7"
       is_visible="true"
       lpeversion="1.3"
       weight="33.333333"
       steps="2"
       helper_size="0"
       apply_no_weight="true"
       apply_with_weight="true"
       only_selected="false"
       uniform="false" /></defs><g
     inkscape:groupmode="layer"
     id="layer3"
     inkscape:label="base"><path
       d="m 76.476937,9.2332248 c 32.063223,0 37.852423,6.6798392 37.852423,38.7430672 v 24.938066 c 0,31.172592 -5.7892,37.852422 -37.852423,37.852422 H 43.523063 c -32.063227,0 -37.8524214,-6.67983 -37.8524214,-37.852422 V 47.976292 c 0,-32.063228 5.7891944,-38.7430672 37.8524214,-38.7430672 z"
       fill="#ebdbb2"
       style="display:inline;opacity:1;isolation:isolate;stroke-width:0.445323;fill:url(#linearGradient11);fill-opacity:1"
       id="path5" /><path
       style="display:inline;fill:#26274e;fill-opacity:1;stroke-width:3.049"
       d="m 55.886561,25.939213 c -2.404881,6.089972 -7.214642,18.269917 -9.864802,24.80857 -2.65016,6.538652 -3.140698,7.435978 -3.709022,8.243594 -0.568324,0.807617 -1.214399,1.525478 -1.896387,2.117729 -0.681988,0.592251 -1.399849,1.058861 -1.980136,1.363959 -0.580286,0.305098 -1.022967,0.44867 -1.417802,0.556352 -0.394834,0.107682 -0.7418,0.179468 -1.262267,0.20938 -0.520466,0.02991 -1.214397,0.01795 -1.818614,-0.05384 -0.604217,-0.07179 -1.118683,-0.203396 -1.627183,-0.370902 -0.5085,-0.167506 -1.011002,-0.3709 -1.405836,-0.5743 -0.394834,-0.2034 -0.681978,-0.406793 -0.909308,-0.52644 -0.227329,-0.119646 -0.394829,-0.155539 -0.430722,-0.04487 -0.03589,0.110675 0.05982,0.367907 0.251259,0.786672 0.191436,0.418766 0.47858,0.999036 0.690952,1.615219 0.212373,0.616182 0.349963,1.268239 0.454654,1.800667 0.104691,0.532428 0.176477,0.945198 0.197414,1.974168 0.02094,1.028971 -0.009,2.674068 -0.122642,3.804727 -0.113666,1.130659 -0.311078,1.746823 -0.472601,2.213445 -0.161524,0.466622 -0.287149,0.783677 -0.379875,1.008013 -0.09273,0.224336 -0.152548,0.355946 -0.146564,0.424743 0.006,0.0688 0.07777,0.07478 0.212371,0.03589 0.134603,-0.03888 0.332016,-0.122636 0.559345,-0.191433 0.22733,-0.0688 0.484564,-0.122636 0.888374,-0.137591 0.40381,-0.01496 0.95417,0.009 1.46566,0.137596 0.511491,0.128622 0.984082,0.361927 1.582318,0.768728 0.598237,0.406801 1.32208,0.987072 2.03697,1.59129 0.714891,0.604217 1.420788,1.232345 2.060898,1.7558 0.640111,0.523455 1.2144,0.942207 2.090818,1.480619 0.876417,0.538413 2.054904,1.196452 3.122753,1.719906 1.067848,0.523455 2.024996,0.912296 2.820647,1.220386 0.795651,0.308091 1.429761,0.535413 2.183538,0.804619 0.753778,0.269206 1.627175,0.580279 2.60529,0.861449 0.978115,0.28117 2.060888,0.532422 2.790732,0.678988 0.729843,0.146567 1.10672,0.188442 1.349004,0.212372 0.242284,0.02393 0.349963,0.02991 0.367909,0.009 0.01794,-0.02094 -0.05384,-0.0688 -0.556363,-0.251258 -0.502521,-0.182463 -1.435739,-0.499517 -2.563415,-0.90931 -1.127675,-0.409792 -2.449734,-0.912294 -3.371012,-1.325075 -0.921278,-0.412782 -1.441727,-0.735819 -2.063893,-1.16954 -0.622165,-0.433722 -1.346008,-0.9781 -2.093802,-1.719913 -0.747794,-0.741814 -1.519495,-1.681015 -2.004062,-2.416842 -0.484568,-0.735827 -0.681979,-1.26824 -0.822564,-1.884423 -0.140585,-0.616183 -0.224335,-1.316097 -0.236299,-2.075856 -0.01196,-0.759759 0.04786,-1.579317 0.610204,-3.377023 0.562346,-1.797706 1.627173,-4.573434 4.250449,-11.363442 2.623276,-6.790008 6.804814,-17.593809 8.916565,-23.0018 2.111751,-5.407991 2.153621,-5.419952 2.252331,-5.282357 0.09871,0.137596 0.254246,0.424741 2.835655,6.98146 2.581408,6.556719 7.588486,19.382494 10.199758,26.076683 2.611272,6.694189 2.82663,7.256513 2.988153,7.794924 0.161523,0.538412 0.269203,1.052879 0.299114,1.76478 0.02991,0.711902 -0.01795,1.621192 -0.146568,2.401888 -0.128622,0.780695 -0.337998,1.432752 -0.717879,2.099784 -0.379881,0.667032 -0.930241,1.349 -1.743843,2.117733 -0.813602,0.768733 -1.890393,1.624183 -2.859532,2.234381 -0.96914,0.610197 -1.830573,0.975109 -2.964231,1.384901 -1.133658,0.409791 -2.539469,0.864436 -3.454764,1.163552 -0.915294,0.299116 -1.340028,0.442688 -1.612224,0.538405 -0.272195,0.09572 -0.39184,0.143575 -0.382864,0.188443 0.009,0.04487 0.146564,0.08674 0.48457,0.08375 0.338005,-0.003 0.8764,-0.05085 1.794695,-0.239294 0.918294,-0.188446 2.216425,-0.517465 3.523569,-0.942213 1.307144,-0.424748 2.623221,-0.945197 3.87054,-1.474635 1.24732,-0.529438 2.425808,-1.067833 3.682102,-1.761787 1.256295,-0.693954 2.590319,-1.543423 3.774823,-2.434793 1.184504,-0.891371 2.21942,-1.82459 3.104806,-2.539478 0.885386,-0.714889 1.621193,-1.21141 2.177551,-1.492578 0.556357,-0.281168 0.933233,-0.346972 1.265253,-0.385856 0.33202,-0.03889 0.619164,-0.05085 0.954177,-0.01196 0.335012,0.03889 0.71787,0.128619 0.987075,0.182459 0.269205,0.05384 0.424741,0.07179 0.541396,0.07478 0.116656,0.003 0.194425,-0.009 0.194424,-0.08076 -10e-7,-0.07179 -0.07777,-0.203396 -0.218355,-0.547383 -0.140586,-0.343987 -0.34398,-0.900329 -0.535415,-1.642142 -0.191435,-0.741814 -0.3709,-1.669051 -0.433714,-2.665113 -0.06281,-0.996062 -0.009,-2.060888 0.04188,-2.916362 0.05085,-0.855474 0.09871,-1.501549 0.242285,-2.180546 0.143577,-0.678997 0.382864,-1.390875 0.568317,-1.884417 0.185452,-0.493542 0.31706,-0.768722 0.415768,-0.975113 0.09871,-0.206391 0.164512,-0.34398 0.20938,-0.460636 0.04487,-0.116656 0.0688,-0.21237 0.04188,-0.269201 -0.02692,-0.05683 -0.104689,-0.07478 -0.314073,-0.009 -0.209384,0.06581 -0.550368,0.215361 -0.990071,0.358937 -0.439704,0.143576 -0.9781,0.281166 -1.435749,0.358936 -0.457649,0.07777 -0.834525,0.09572 -1.319097,0.08375 -0.484571,-0.01196 -1.076806,-0.05384 -1.636155,-0.113664 -0.55935,-0.05982 -1.085781,-0.137592 -1.893401,-0.421756 -0.807621,-0.284163 -1.896376,-0.774701 -2.790736,-1.396867 -0.894359,-0.622166 -1.594273,-1.37592 -2.144648,-2.03996 -0.550374,-0.66404 -0.95118,-1.238328 -1.624197,-2.644189 -0.673017,-1.405861 -1.6182,-3.643193 -4.137284,-9.780502 -2.519084,-6.137309 -6.611886,-16.174148 -8.714662,-21.190299 -2.102775,-5.01615 -2.215442,-5.01141 -2.271775,-5.00904 -0.05633,0.0024 -0.05633,0.0023 -2.461211,6.092319 z"
       id="path1"
       inkscape:path-effect="#path-effect5-7"
       inkscape:original-d="M 58.291442,19.849241 C 53.48168,32.029185 48.671919,44.20913 43.862157,56.389074 c -0.490558,0.897361 -0.981096,1.794687 -1.471644,2.692031 -0.6461,0.717889 -1.292175,1.43575 -1.938262,2.153624 -0.717889,0.466628 -1.43575,0.933238 -2.153625,1.399856 -0.442698,0.143578 -0.885379,0.28715 -1.328068,0.430725 -0.34698,0.07179 -0.693946,0.143575 -1.040919,0.215363 -0.69396,-0.01197 -1.387891,-0.02393 -2.081837,-0.03589 -0.514488,-0.131613 -1.028954,-0.263221 -1.543431,-0.394831 -0.502523,-0.203402 -1.005025,-0.406796 -1.507538,-0.610194 -0.287155,-0.203402 -0.574299,-0.406795 -0.861449,-0.610193 -0.167508,-0.0359 -0.335009,-0.07179 -0.502513,-0.107682 0.09572,0.257242 0.191433,0.514475 0.28715,0.771712 0.287156,0.580294 0.5743,1.160564 0.86145,1.740847 0.137595,0.652082 0.275185,1.304139 0.412778,1.956209 0.07179,0.412786 0.143575,0.825556 0.215363,1.238334 -0.02991,1.645163 -0.05982,3.29026 -0.08974,4.93539 -0.197419,0.616188 -0.394831,1.232352 -0.592247,1.848528 -0.12563,0.317068 -0.251256,0.634123 -0.376884,0.951184 -0.05982,0.131613 -0.119646,0.263221 -0.179469,0.394831 0.07179,0.006 0.143575,0.01197 0.215363,0.01795 0.197419,-0.08375 0.394831,-0.167504 0.592247,-0.251256 0.257243,-0.05384 0.514477,-0.107681 0.771715,-0.161522 0.550382,0.02393 1.100742,0.04786 1.651112,0.07179 0.472611,0.233314 0.945202,0.466618 1.417803,0.699928 0.723872,0.580293 1.447715,1.160564 2.171572,1.740846 0.705924,0.628153 1.411821,1.256281 2.117731,1.884422 0.574311,0.418769 1.1486,0.837521 1.7229,1.256281 1.178535,0.658065 2.357022,1.316104 3.535534,1.974156 0.957185,0.388857 1.914333,0.777698 2.871499,1.166547 0.634136,0.227331 1.268246,0.454654 1.902369,0.681981 0.873432,0.311085 1.746829,0.622158 2.620243,0.933237 1.082816,0.251261 2.165589,0.502513 3.248384,0.753769 0.376892,0.04188 0.753769,0.08375 1.130653,0.125628 0.107683,0.006 0.215363,0.01197 0.323044,0.01795 -0.07179,-0.04786 -0.143575,-0.09572 -0.215363,-0.143575 -0.933256,-0.317068 -1.866474,-0.634123 -2.799712,-0.951184 -1.322113,-0.502523 -2.644172,-1.005025 -3.966259,-1.507538 -0.520469,-0.32305 -1.040918,-0.646087 -1.561378,-0.969131 -0.723871,-0.544399 -1.447714,-1.088777 -2.171571,-1.633165 -0.771731,-0.939239 -1.543431,-1.87844 -2.315147,-2.817659 -0.197419,-0.532435 -0.394831,-1.064848 -0.592247,-1.597272 -0.08375,-0.699942 -0.167504,-1.399856 -0.251256,-2.099784 0.05982,-0.81959 0.119646,-1.639148 0.179469,-2.458722 1.064869,-2.775838 2.129695,-5.551566 3.194543,-8.327348 4.181705,-10.804234 8.363243,-21.608035 12.544864,-32.412052 0.04188,-0.01197 0.08375,-0.02393 0.125628,-0.03589 0.155543,0.287155 0.311079,0.5743 0.466619,0.86145 5.007278,12.826288 10.014355,25.652063 15.021532,38.478095 0.215367,0.562346 0.430725,1.12467 0.646088,1.687006 0.107683,0.514487 0.215362,1.028954 0.323044,1.543431 -0.04786,0.909326 -0.09572,1.818616 -0.143575,2.727924 -0.209385,0.652083 -0.418761,1.30414 -0.628141,1.956209 -0.550382,0.681995 -1.100742,1.363963 -1.651112,2.045944 -1.076834,0.855485 -2.153625,1.710935 -3.230437,2.566403 -0.861467,0.364927 -1.7229,0.729839 -2.58435,1.094759 -1.405866,0.454663 -2.811677,0.909308 -4.217515,1.363962 -0.424751,0.143578 -0.849485,0.28715 -1.274228,0.430725 -0.119648,0.04786 -0.239292,0.09572 -0.358937,0.143575 0.137595,0.04188 0.275185,0.08375 0.412778,0.125628 0.538417,-0.04786 1.076812,-0.09572 1.615218,-0.143575 1.298183,-0.329032 2.596314,-0.658052 3.894471,-0.987078 1.316131,-0.520469 2.632208,-1.040918 3.948312,-1.561378 1.178535,-0.538417 2.357023,-1.076812 3.535534,-1.615218 1.334078,-0.849502 2.668102,-1.698971 4.002153,-2.548456 1.034957,-0.933256 2.069873,-1.866475 3.104809,-2.799712 0.735836,-0.49654 1.471644,-0.99306 2.207465,-1.489591 0.376892,-0.06581 0.753769,-0.13161 1.130653,-0.197415 0.287156,-0.01197 0.5743,-0.02393 0.86145,-0.03589 0.382874,0.08974 0.765733,0.179469 1.1486,0.269203 0.155543,0.01795 0.311079,0.03589 0.466619,0.05384 0.07777,-0.01197 0.155539,-0.02393 0.233309,-0.03589 -0.07777,-0.131613 -0.15554,-0.263221 -0.233309,-0.394831 -0.203402,-0.556364 -0.406796,-1.112706 -0.610194,-1.669059 -0.179472,-0.927274 -0.358937,-1.854511 -0.538406,-2.781766 0.05384,-1.064869 0.107681,-2.129695 0.161522,-3.194543 0.04786,-0.6461 0.09572,-1.292175 0.143575,-1.938262 0.239296,-0.711907 0.478583,-1.423785 0.717875,-2.135678 0.131613,-0.275191 0.26322,-0.550371 0.394831,-0.825556 0.06581,-0.137596 0.13161,-0.275186 0.197415,-0.412778 0.02393,-0.09572 0.04786,-0.191434 0.07179,-0.28715 -0.07777,-0.01795 -0.15554,-0.03589 -0.233309,-0.05384 -0.340998,0.14956 -0.681982,0.299115 -1.022972,0.448672 -0.538417,0.137595 -1.076813,0.275185 -1.615219,0.412778 -0.376892,0.01795 -0.753768,0.03589 -1.130653,0.05384 -0.592258,-0.04188 -1.184493,-0.08375 -1.77674,-0.125628 -0.526452,-0.07777 -1.052883,-0.15554 -1.579325,-0.23331 -1.088799,-0.490557 -2.177554,-0.981095 -3.266331,-1.471643 -0.699942,-0.753784 -1.399856,-1.507538 -2.099784,-2.261306 -0.400821,-0.574312 -0.801627,-1.1486 -1.20244,-1.7229 -0.945221,-2.237422 -1.890404,-4.474754 -2.835606,-6.71213 -4.092966,-10.037242 -8.185768,-20.074081 -12.278652,-30.111122 -0.112669,0.0047 -0.225333,0.0095 -0.338,0.01422 z"
       transform="matrix(1.3994879,0,0,1.3994879,-22.001585,-14.273963)" /></g></svg>
