<?xml version="1.0" encoding="UTF-8" standalone="no"?>
<!-- Created with Inkscape (http://www.inkscape.org/) -->

<svg
   width="120"
   height="120"
   viewBox="0 0 120 120"
   version="1.1"
   id="svg1"
   xml:space="preserve"
   inkscape:version="1.4.1 (93de688d07, 2025-03-30)"
   sodipodi:docname="bg3.svg"
   xmlns:inkscape="http://www.inkscape.org/namespaces/inkscape"
   xmlns:sodipodi="http://sodipodi.sourceforge.net/DTD/sodipodi-0.dtd"
   xmlns:xlink="http://www.w3.org/1999/xlink"
   xmlns="http://www.w3.org/2000/svg"
   xmlns:svg="http://www.w3.org/2000/svg"><sodipodi:namedview
     id="namedview1"
     pagecolor="#1f1f1f"
     bordercolor="#000000"
     borderopacity="0.25"
     inkscape:showpageshadow="2"
     inkscape:pageopacity="0.0"
     inkscape:pagecheckerboard="0"
     inkscape:deskcolor="#3c3c3c"
     inkscape:document-units="px"
     inkscape:zoom="5.6568543"
     inkscape:cx="67.440309"
     inkscape:cy="50.116193"
     inkscape:window-width="1660"
     inkscape:window-height="1287"
     inkscape:window-x="0"
     inkscape:window-y="0"
     inkscape:window-maximized="1"
     inkscape:current-layer="layer3" /><defs
     id="defs1"><linearGradient
       id="linearGradient1"
       inkscape:collect="always"><stop
         style="stop-color:#23849d;stop-opacity:1;"
         offset="0.27522215"
         id="stop10" /><stop
         style="stop-color:#cc381d;stop-opacity:1;"
         offset="1"
         id="stop11" /></linearGradient><inkscape:path-effect
       effect="bspline"
       id="path-effect14"
       is_visible="true"
       lpeversion="1.3"
       weight="33.333333"
       steps="2"
       helper_size="0"
       apply_no_weight="true"
       apply_with_weight="true"
       only_selected="false"
       uniform="false" /><inkscape:path-effect
       effect="fillet_chamfer"
       id="path-effect5"
       is_visible="true"
       lpeversion="1"
       nodesatellites_param="F,0,0,1,0,37.022737,0,1 @ F,0,0,1,0,36.062445,0,1 @ F,0,0,1,0,35.528974,0,1 @ F,0,0,1,0,28.991378,0,1"
       radius="0"
       unit="px"
       method="auto"
       mode="F"
       chamfer_steps="1"
       flexible="false"
       use_knot_distance="true"
       apply_no_radius="true"
       apply_with_radius="true"
       only_selected="false"
       hide_knots="false" /><inkscape:path-effect
       effect="bspline"
       id="path-effect4"
       is_visible="true"
       lpeversion="1.3"
       weight="33.333333"
       steps="2"
       helper_size="0"
       apply_no_weight="true"
       apply_with_weight="true"
       only_selected="false"
       uniform="false" /><inkscape:path-effect
       effect="bspline"
       id="path-effect3"
       is_visible="true"
       lpeversion="1.3"
       weight="33.333333"
       steps="2"
       helper_size="0"
       apply_no_weight="true"
       apply_with_weight="true"
       only_selected="false"
       uniform="false" /><inkscape:path-effect
       effect="mirror_symmetry"
       start_point="59.977887,81.781355"
       end_point="59.977887,112.27285"
       center_point="59.977887,97.027103"
       id="path-effect9"
       is_visible="true"
       lpeversion="1.2"
       lpesatellites=""
       mode="free"
       discard_orig_path="false"
       fuse_paths="false"
       oposite_fuse="false"
       split_items="false"
       split_open="false"
       link_styles="false" /><inkscape:path-effect
       effect="mirror_symmetry"
       start_point="59.944658,10.409945"
       end_point="59.944658,50.039614"
       center_point="59.944658,30.22478"
       id="path-effect2"
       is_visible="true"
       lpeversion="1.2"
       lpesatellites=""
       mode="free"
       discard_orig_path="false"
       fuse_paths="false"
       oposite_fuse="false"
       split_items="false"
       split_open="false"
       link_styles="false" /><inkscape:path-effect
       effect="mirror_symmetry"
       start_point="59.948435,66.805114"
       end_point="59.948435,107.38004"
       center_point="59.948435,87.092577"
       id="path-effect8"
       is_visible="true"
       lpeversion="1.2"
       lpesatellites=""
       mode="free"
       discard_orig_path="false"
       fuse_paths="false"
       oposite_fuse="false"
       split_items="false"
       split_open="false"
       link_styles="false" /><inkscape:path-effect
       effect="mirror_symmetry"
       start_point="60.801511,9.4541705"
       end_point="60.801511,40.169132"
       center_point="60.801511,24.811651"
       id="path-effect7"
       is_visible="true"
       lpeversion="1.2"
       lpesatellites=""
       mode="free"
       discard_orig_path="false"
       fuse_paths="false"
       oposite_fuse="false"
       split_items="false"
       split_open="false"
       link_styles="false" /><inkscape:path-effect
       effect="fillet_chamfer"
       id="path-effect13"
       is_visible="true"
       lpeversion="1"
       nodesatellites_param="F,0,0,1,0,4.7467821,0,1 @ F,0,0,1,0,4.0515277,0,1 @ F,0,0,1,0,0,0,1 @ F,0,0,1,0,2.4219461,0,1 @ F,0,0,1,0,2.4960577,0,1 @ F,0,0,1,0,0,0,1 @ F,0,0,1,0,4.1062831,0,1"
       radius="0"
       unit="px"
       method="auto"
       mode="F"
       chamfer_steps="1"
       flexible="false"
       use_knot_distance="true"
       apply_no_radius="true"
       apply_with_radius="true"
       only_selected="false"
       hide_knots="false" /><inkscape:path-effect
       effect="fillet_chamfer"
       id="path-effect12"
       is_visible="true"
       lpeversion="1"
       nodesatellites_param="F,0,0,1,0,0,0,1 @ F,0,0,1,0,0,0,1 @ F,0,0,1,0,0,0,1 @ F,0,0,1,0,0,0,1 @ F,0,0,1,0,3.627665,0,1 @ F,0,0,1,0,0,0,1 @ F,0,0,1,0,0,0,1"
       radius="0"
       unit="px"
       method="auto"
       mode="F"
       chamfer_steps="1"
       flexible="false"
       use_knot_distance="true"
       apply_no_radius="true"
       apply_with_radius="true"
       only_selected="false"
       hide_knots="false" /><inkscape:path-effect
       effect="fillet_chamfer"
       id="path-effect11"
       is_visible="true"
       lpeversion="1"
       nodesatellites_param="F,0,0,1,0,2.9729248,0,1 @ F,0,0,1,0,3.8975858,0,1 @ F,0,0,1,0,0,0,1 @ F,0,1,1,0,3.784373,0,1 @ F,0,0,1,0,1.4792147,0,1 @ F,0,0,1,0,0,0,1 @ F,0,0,1,0,3.784373,0,1"
       radius="0"
       unit="px"
       method="auto"
       mode="F"
       chamfer_steps="1"
       flexible="false"
       use_knot_distance="true"
       apply_no_radius="true"
       apply_with_radius="true"
       only_selected="false"
       hide_knots="false" /><linearGradient
       id="linearGradient6"><stop
         style="stop-color:#c88500;stop-opacity:1;"
         offset="0.07163448"
         id="stop8" /><stop
         style="stop-color:#fff300;stop-opacity:1;"
         offset="1"
         id="stop9" /></linearGradient><linearGradient
       id="linearGradient6-1"><stop
         style="stop-color:#c88500;stop-opacity:1;"
         offset="0"
         id="stop6" /><stop
         style="stop-color:#fff300;stop-opacity:1;"
         offset="1"
         id="stop7" /></linearGradient><inkscape:path-effect
       effect="fillet_chamfer"
       id="path-effect1"
       is_visible="true"
       lpeversion="1"
       nodesatellites_param="F,0,0,1,0,24.536157,0,1 @ F,0,0,1,0,24.004899,0,1 @ F,0,0,1,0,23.651152,0,1 @ F,0,0,1,0,24.380791,0,1"
       radius="0"
       unit="px"
       method="auto"
       mode="F"
       chamfer_steps="1"
       flexible="false"
       use_knot_distance="true"
       apply_no_radius="true"
       apply_with_radius="true"
       only_selected="false"
       hide_knots="false" /><linearGradient
       id="a"
       x1="7.937"
       x2="7.937"
       y1="15.081"
       y2="1.852"
       gradientTransform="scale(3.7796)"
       gradientUnits="userSpaceOnUse"><stop
         offset="0"
         stop-color="#9b6f27"
         id="stop1" /><stop
         offset="1"
         stop-color="#d0ab6a"
         id="stop2" /></linearGradient><filter
       id="b"
       width="1.216"
       height="1.216"
       x="-0.108"
       y="-0.108"
       color-interpolation-filters="sRGB"><feGaussianBlur
         stdDeviation="1.35"
         id="feGaussianBlur2" /></filter><linearGradient
       id="linearGradient31"
       x1=".5002"
       x2=".5002"
       y2="1"
       gradientTransform="matrix(244,0,0,228,5.986,12)"
       gradientUnits="userSpaceOnUse"><stop
         stop-color="#ebdbb2"
         stop-opacity=".2"
         offset="0"
         id="stop1-5" /><stop
         stop-color="#ebdbb2"
         stop-opacity=".05"
         offset=".1"
         id="stop2-6" /><stop
         stop-opacity="0"
         offset=".7036"
         id="stop3" /><stop
         stop-opacity=".1"
         offset=".8975"
         id="stop4" /><stop
         stop-opacity=".2"
         offset="1"
         id="stop5" /></linearGradient><inkscape:path-effect
       effect="bspline"
       id="path-effect10"
       is_visible="true"
       lpeversion="1.3"
       weight="33.333333"
       steps="2"
       helper_size="0"
       apply_no_weight="true"
       apply_with_weight="true"
       only_selected="false"
       uniform="false" /><inkscape:path-effect
       effect="bspline"
       id="path-effect6"
       is_visible="true"
       lpeversion="1.3"
       weight="33.333333"
       steps="2"
       helper_size="0"
       apply_no_weight="true"
       apply_with_weight="true"
       only_selected="false"
       uniform="false" /><inkscape:path-effect
       effect="bspline"
       id="path-effect5-3"
       is_visible="true"
       lpeversion="1.3"
       weight="33.333333"
       steps="2"
       helper_size="0"
       apply_no_weight="true"
       apply_with_weight="true"
       only_selected="false"
       uniform="false" /><inkscape:path-effect
       effect="bspline"
       id="path-effect4-9"
       is_visible="true"
       lpeversion="1.3"
       weight="33.333333"
       steps="2"
       helper_size="0"
       apply_no_weight="true"
       apply_with_weight="true"
       only_selected="false"
       uniform="false" /><inkscape:path-effect
       effect="bspline"
       id="path-effect3-0"
       is_visible="true"
       lpeversion="1.3"
       weight="33.333333"
       steps="2"
       helper_size="0"
       apply_no_weight="true"
       apply_with_weight="true"
       only_selected="false"
       uniform="false" /><inkscape:path-effect
       effect="mirror_symmetry"
       start_point="59.977887,81.781355"
       end_point="59.977887,112.27285"
       center_point="59.977887,97.027103"
       id="path-effect9-8"
       is_visible="true"
       lpeversion="1.2"
       lpesatellites=""
       mode="free"
       discard_orig_path="false"
       fuse_paths="false"
       oposite_fuse="false"
       split_items="false"
       split_open="false"
       link_styles="false" /><inkscape:path-effect
       effect="mirror_symmetry"
       start_point="59.944658,10.409945"
       end_point="59.944658,50.039614"
       center_point="59.944658,30.22478"
       id="path-effect2-8"
       is_visible="true"
       lpeversion="1.2"
       lpesatellites=""
       mode="free"
       discard_orig_path="false"
       fuse_paths="false"
       oposite_fuse="false"
       split_items="false"
       split_open="false"
       link_styles="false" /><inkscape:path-effect
       effect="mirror_symmetry"
       start_point="59.948435,66.805114"
       end_point="59.948435,107.38004"
       center_point="59.948435,87.092577"
       id="path-effect8-5"
       is_visible="true"
       lpeversion="1.2"
       lpesatellites=""
       mode="free"
       discard_orig_path="false"
       fuse_paths="false"
       oposite_fuse="false"
       split_items="false"
       split_open="false"
       link_styles="false" /><inkscape:path-effect
       effect="mirror_symmetry"
       start_point="60.801511,9.4541705"
       end_point="60.801511,40.169132"
       center_point="60.801511,24.811651"
       id="path-effect7-0"
       is_visible="true"
       lpeversion="1.2"
       lpesatellites=""
       mode="free"
       discard_orig_path="false"
       fuse_paths="false"
       oposite_fuse="false"
       split_items="false"
       split_open="false"
       link_styles="false" /><inkscape:path-effect
       effect="fillet_chamfer"
       id="path-effect13-9"
       is_visible="true"
       lpeversion="1"
       nodesatellites_param="F,0,0,1,0,4.7467821,0,1 @ F,0,0,1,0,4.0515277,0,1 @ F,0,0,1,0,0,0,1 @ F,0,0,1,0,2.4219461,0,1 @ F,0,0,1,0,2.4960577,0,1 @ F,0,0,1,0,0,0,1 @ F,0,0,1,0,4.1062831,0,1"
       radius="0"
       unit="px"
       method="auto"
       mode="F"
       chamfer_steps="1"
       flexible="false"
       use_knot_distance="true"
       apply_no_radius="true"
       apply_with_radius="true"
       only_selected="false"
       hide_knots="false" /><inkscape:path-effect
       effect="fillet_chamfer"
       id="path-effect12-6"
       is_visible="true"
       lpeversion="1"
       nodesatellites_param="F,0,0,1,0,0,0,1 @ F,0,0,1,0,0,0,1 @ F,0,0,1,0,0,0,1 @ F,0,0,1,0,0,0,1 @ F,0,0,1,0,3.627665,0,1 @ F,0,0,1,0,0,0,1 @ F,0,0,1,0,0,0,1"
       radius="0"
       unit="px"
       method="auto"
       mode="F"
       chamfer_steps="1"
       flexible="false"
       use_knot_distance="true"
       apply_no_radius="true"
       apply_with_radius="true"
       only_selected="false"
       hide_knots="false" /><inkscape:path-effect
       effect="fillet_chamfer"
       id="path-effect11-3"
       is_visible="true"
       lpeversion="1"
       nodesatellites_param="F,0,0,1,0,2.9729248,0,1 @ F,0,0,1,0,3.8975858,0,1 @ F,0,0,1,0,0,0,1 @ F,0,1,1,0,3.784373,0,1 @ F,0,0,1,0,1.4792147,0,1 @ F,0,0,1,0,0,0,1 @ F,0,0,1,0,3.784373,0,1"
       radius="0"
       unit="px"
       method="auto"
       mode="F"
       chamfer_steps="1"
       flexible="false"
       use_knot_distance="true"
       apply_no_radius="true"
       apply_with_radius="true"
       only_selected="false"
       hide_knots="false" /><inkscape:path-effect
       effect="fillet_chamfer"
       id="path-effect1-1"
       is_visible="true"
       lpeversion="1"
       nodesatellites_param="F,0,0,1,0,24.536157,0,1 @ F,0,0,1,0,24.004899,0,1 @ F,0,0,1,0,23.651152,0,1 @ F,0,0,1,0,24.380791,0,1"
       radius="0"
       unit="px"
       method="auto"
       mode="F"
       chamfer_steps="1"
       flexible="false"
       use_knot_distance="true"
       apply_no_radius="true"
       apply_with_radius="true"
       only_selected="false"
       hide_knots="false" /><filter
       id="b-4"
       width="1.216"
       height="1.216"
       x="-0.108"
       y="-0.108"
       color-interpolation-filters="sRGB"><feGaussianBlur
         stdDeviation="1.35"
         id="feGaussianBlur2-8" /></filter><linearGradient
       inkscape:collect="always"
       xlink:href="#linearGradient1"
       id="linearGradient11"
       x1="61.164738"
       y1="9.3691645"
       x2="61.164738"
       y2="109.9551"
       gradientUnits="userSpaceOnUse" /></defs><g
     inkscape:groupmode="layer"
     id="layer3"
     inkscape:label="base"><path
       d="m 76.476937,9.2332248 c 32.063223,0 37.852423,6.6798392 37.852423,38.7430672 v 24.938066 c 0,31.172592 -5.7892,37.852422 -37.852423,37.852422 H 43.523063 c -32.063227,0 -37.8524214,-6.67983 -37.8524214,-37.852422 V 47.976292 c 0,-32.063228 5.7891944,-38.7430672 37.8524214,-38.7430672 z"
       fill="#ebdbb2"
       style="display:inline;opacity:1;isolation:isolate;stroke-width:0.445323;fill:url(#linearGradient11);fill-opacity:1"
       id="path5" /><g
       id="g1"
       transform="matrix(0.80592809,0,0,0.80592809,11.454144,11.784457)"><g
         id="layer2"
         inkscape:label="Layer 2"
         style="opacity:1"><path
           style="opacity:1;fill:#eeeeee;fill-opacity:0;stroke-width:0.965576"
           id="rect1"
           width="104.6141"
           height="104.75148"
           x="7.5219741"
           y="7.4503703"
           inkscape:path-effect="#path-effect1-1"
           sodipodi:type="rect"
           d="M 32.058131,7.4503703 H 88.131173 A 24.004899,24.004899 45 0 1 112.13607,31.455269 V 88.550698 A 23.651152,23.651152 135 0 1 88.48492,112.20185 H 31.902765 A 24.380791,24.380791 45 0 1 7.5219741,87.821059 V 31.986527 A 24.536157,24.536157 135 0 1 32.058131,7.4503703 Z"
           transform="translate(0.40694183)" /></g><g
         id="layer1"
         inkscape:label="Layer 3"><g
           id="g10"
           transform="matrix(0.75640643,0,0,0.75640643,81.441625,-52.770357)"
           style="fill:#fea419;fill-opacity:1"><path
             style="opacity:1;fill:#fea419;fill-opacity:1;stroke-width:3.049"
             d="m -78.426396,-23.739425 c -0.0846,0.524535 0.0846,1.878173 0.8968,4.856223 0.812197,2.978049 2.267329,7.580326 3.113355,10.101481 0.846026,2.5211547 1.082907,2.9610783 2.284283,4.4162636 1.201375,1.4551853 3.367153,3.92552542 6.632848,8.4433575 3.265695,4.517832 7.63109,11.0828449 11.03213,18.7140649 3.401039,7.631221 5.837539,16.32817 7.648041,29.678604 1.810503,13.350434 2.994912,31.353458 4.128594,42.994795 1.133683,11.641336 2.216573,16.920426 5.296149,28.375756 3.079577,11.45534 8.155616,29.08612 11.133628,38.98462 2.978012,9.8985 3.85786,12.06428 4.314702,13.13028 0.456842,1.066 0.490711,1.03213 0.592232,-1.08297 0.101522,-2.1151 0.270723,-6.31129 0.423009,-25.56713 0.152286,-19.25584 0.287647,-53.569879 0.1692,-71.759409 -0.118447,-18.18953 -0.49069,-20.253787 -0.930627,-23.604087 -0.439937,-3.3503 -0.947542,-7.986417 -1.184428,-12.081208 -0.236886,-4.09479 -0.203046,-7.648018 -0.118442,-9.89845 0.0846,-2.250433 0.219964,-3.197961 0.541458,-3.824021 0.321494,-0.626061 0.829099,-0.930623 1.252114,-0.93062 0.423015,3e-6 0.761418,0.304565 1.658217,1.065999 0.8968,0.761433 2.351932,1.979683 3.316403,2.673424 0.964472,0.693741 1.438236,0.862943 1.776647,0.879862 0.338412,0.01692 0.541454,-0.118443 0.626056,-0.439936 0.0846,-0.321494 0.05076,-0.829098 -0.710675,-2.318124 -0.761436,-1.489027 -2.250408,-3.959367 -3.993237,-5.98984 -1.742829,-2.030472 -3.739404,-3.620965 -5.245336,-4.450069 -1.505933,-0.829104 -2.521141,-0.896784 -3.181042,-0.913705 -0.659902,-0.01692 -0.964465,0.01692 -3.688712,-1.252141 -2.724248,-1.269061 -7.867969,-3.840922 -12.115041,-6.4974637 -4.247073,-2.6565416 -7.59726,-5.3976035 -11.133676,-8.4264013 -3.536416,-3.0287978 -7.258846,-6.3451446 -10.981387,-10.1861358 -3.722542,-3.8409912 -7.444972,-8.2063862 -9.576957,-10.7952262 -2.131985,-2.588841 -2.67343,-3.401007 -3.113365,-3.959386 -0.439936,-0.558379 -0.778339,-0.862941 -0.862941,-0.338407 z"
             id="path1"
             inkscape:path-effect="#path-effect5-3"
             inkscape:original-d="m -78.680203,-24.568528 c 0.169205,1.353638 0.338409,2.707276 0.507614,4.060914 1.45519,4.602461 2.910322,9.204738 4.365482,13.8071064 0.236892,0.4399411 0.473774,0.8798646 0.71066,1.3197969 2.165864,2.4704386 4.331642,4.94077838 6.497462,7.4111676 4.36557,6.5652751 8.730965,13.1302881 13.096447,19.6954311 2.436597,8.697298 4.873096,17.394247 7.309645,26.091371 1.184456,18.003744 2.368866,36.006768 3.553299,54.010151 1.082932,5.27929 2.165821,10.55838 3.248731,15.83756 5.076244,17.63149 10.152284,35.26227 15.228426,52.89341 0.879883,2.16586 1.75973,4.33164 2.639594,6.49746 0.03384,-0.0338 0.06768,-0.0677 0.101523,-0.10153 0.169208,-4.19636 0.33841,-8.39255 0.507614,-12.58883 0.135367,-34.3154 0.270728,-68.629439 0.406092,-102.94416 -0.372258,-2.064339 -0.744501,-4.128596 -1.116751,-6.192894 -0.507625,-4.636302 -1.015229,-9.272419 -1.522843,-13.908629 0.03384,-3.553371 0.06768,-7.106599 0.101523,-10.659899 0.135366,-0.947565 0.270727,-1.895093 0.406091,-2.842639 0.507624,-0.304575 1.015229,-0.609137 1.522843,-0.913706 0.338416,0.304575 0.676819,0.609137 1.015228,0.913706 1.45519,1.218298 2.910322,2.436548 4.365482,3.654822 0.473783,0.169208 0.947547,0.33841 1.42132,0.507614 0.20305,-0.135366 0.406092,-0.270727 0.609137,-0.406091 -0.03384,-0.507624 -0.06768,-1.015228 -0.101523,-1.522843 -1.489031,-2.470438 -2.978003,-4.940778 -4.467005,-7.411167 -1.996656,-1.590556 -3.993231,-3.181049 -5.989847,-4.771574 -1.015249,-0.06768 -2.030457,-0.135363 -3.045686,-0.203045 -0.304574,0.03384 -0.609137,0.06768 -0.913705,0.101522 -5.143927,-2.571963 -10.287648,-5.143824 -15.431472,-7.715736 -3.350321,-2.7411712 -6.700508,-5.4822331 -10.050762,-8.2233498 -3.722578,-3.3164792 -7.445008,-6.6328258 -11.167512,-9.9492386 -3.722579,-4.3655696 -7.445009,-8.7309646 -11.167513,-13.0964466 -0.541466,-0.812199 -1.08291,-1.624366 -1.624366,-2.436548 -0.338416,-0.304575 -0.676819,-0.609137 -1.015228,-0.913706 z"
             transform="matrix(0.56559928,0,0,0.56559928,-34.077009,94.413137)" /><path
             style="opacity:1;fill:#fea419;fill-opacity:1;stroke-width:3.049"
             d="M 9.2893401,-11.759729 C 8.9001692,-9.9492386 8.3587141,-6.8020305 7.5634413,-1.7088975 6.7681686,3.3842355 5.7191202,10.423012 4.7208027,16.514434 3.7224853,22.605856 2.7749577,27.749577 1.082886,33.485681 c -1.6920718,5.736104 -4.128571,12.064234 -5.7529447,15.9898 -1.6243737,3.925565 -2.4365401,5.448377 -2.8426316,6.514373 -0.4060914,1.065996 -0.4060914,1.675121 -0.1353584,2.470393 0.270733,0.795272 0.8121775,1.77664 1.2690339,7.529706 0.4568564,5.753066 0.8290994,16.27739 1.33672,30.135429 0.5076206,13.858038 1.1505858,31.048898 2.0304618,44.382328 0.8798761,13.33343 1.9966042,22.8087 3.41794117,32.36887 1.42133703,9.56016 3.14719133,19.20464 4.65312573,26.48049 1.5059344,7.27585 2.7918651,12.18269 3.6040522,14.82229 0.8121872,2.6396 1.1505886,3.01184 1.3536329,3.13029 0.203045,0.11844 0.27073,-0.0169 0.862957,-1.84437 0.592228,-1.82745 1.708957,-5.34684 2.978006,-11.08296 1.26905,-5.73612 2.690341,-13.68858 3.857863,-20.4399 1.167522,-6.75133 2.081209,-12.30113 3.045686,-20.55844 0.964478,-8.2573 1.979685,-19.22154 2.673428,-28.39251 0.693744,-9.17097 1.065986,-16.54815 1.472082,-28.84951 0.406096,-12.301357 0.84602,-29.526055 1.285957,-38.460072 0.439936,-8.934016 0.87986,-9.576981 1.18443,-10.067678 0.30457,-0.490697 0.473772,-0.8291 0.558375,-1.218275 0.0846,-0.389176 0.0846,-0.829099 -0.558389,-2.335047 C 26.734323,52.55494 25.448393,49.98308 23.756324,45.752903 22.064256,41.522725 19.966159,35.634518 18.409465,30.101471 16.852771,24.568424 15.837563,19.390863 14.805404,13.434789 13.773245,7.4787147 12.724196,0.7445008 12.030453,-3.7563678 11.336711,-8.2572364 10.998308,-10.524535 10.744499,-11.94586 c -0.253809,-1.421326 -0.42301,-1.99661 -0.626058,-2.047367 -0.203048,-0.05076 -0.4399301,0.423007 -0.8291009,2.233498 z"
             id="path5-1"
             inkscape:path-effect="#path-effect6"
             inkscape:original-d="M 9.4416244,-13.096447 C 8.9001692,-9.9492386 8.358714,-6.8020305 7.8172589,-3.6548223 6.7681685,3.3842355 5.7191201,10.423012 4.6700508,17.461929 3.7224853,22.605856 2.7749577,27.749577 1.8274112,32.893401 c -2.43659699,6.328384 -4.8730965,12.656514 -7.3096447,18.984772 -0.812199,1.522873 -1.6243655,3.045685 -2.4365482,4.568528 0,0.609149 0,1.218274 0,1.827411 0.541466,0.981407 1.0829103,1.962775 1.6243655,2.944162 0.3722578,10.524745 0.7445008,21.049069 1.1167512,31.573604 0.6429909,17.191542 1.285956,34.382402 1.928934,51.573602 1.1167736,9.47566 2.2335026,18.95093 3.35025384,28.4264 1.72592286,9.64486 3.45177666,19.28934 5.17766496,28.93401 1.2859817,4.90703 2.571912,9.81387 3.857868,14.72081 0.3384163,0.37226 0.676819,0.7445 1.0152282,1.11675 0.06768,-0.13536 0.135364,-0.27073 0.203046,-0.40609 1.116774,-3.51953 2.233502,-7.03892 3.350254,-10.55838 1.421348,-7.95278 2.842639,-15.90524 4.263959,-23.85786 0.913724,-5.55003 1.827411,-11.09983 2.741117,-16.64975 1.015249,-10.96469 2.030457,-21.92893 3.045685,-32.8934 0.372258,-7.37747 0.744501,-14.75465 1.116751,-22.13198 0.439942,-17.225387 0.879865,-34.450085 1.319797,-51.675127 0.439942,-0.642991 0.879865,-1.285956 1.319797,-1.928934 0.169208,-0.338416 0.33841,-0.676819 0.507615,-1.015228 0,-0.439942 0,-0.879865 0,-1.319797 C 26.734323,52.55494 25.448393,49.98308 24.162437,47.411168 22.064256,41.522725 19.966159,35.634518 17.86802,29.746193 16.852772,24.568424 15.837563,19.390863 14.822335,14.213198 13.773245,7.4787147 12.724196,0.74450085 11.675127,-5.9898477 c -0.338416,-2.2673888 -0.676819,-4.5346873 -1.015229,-6.8020303 -0.169208,-0.575308 -0.338409,-1.150592 -0.507614,-1.725888 -0.2368911,0.473782 -0.473773,0.947546 -0.7106596,1.421319 z"
             transform="matrix(0.56559928,0,0,0.56559928,-34.077009,94.413137)" /><path
             style="opacity:1;fill:#fea419;fill-opacity:1;stroke-width:3.049"
             d="m 96.82936,-21.895184 c -1.375927,1.651112 -4.12778,4.953336 -7.501832,8.901694 -3.374053,3.9483585 -7.370143,8.5426658 -10.756147,11.7731215 -3.386005,3.2304558 -6.161732,5.096893 -8.315372,6.7121251 -2.15364,1.6152321 -3.685076,2.9791671 -5.635327,4.4508266 -1.95025,1.4716598 -4.31919,3.0509528 -6.879638,4.4388558 -2.560448,1.387904 -5.312247,2.584338 -8.004304,3.625265 -2.692057,1.040928 -5.324213,1.926289 -7.346241,3.110797 -2.022028,1.184509 -3.433821,2.668088 -4.606359,4.079922 -1.172539,1.411834 -2.105757,2.75184 -2.692024,4.020097 -0.586267,1.268258 -0.825554,2.464692 -0.813587,3.074887 0.01197,0.610195 0.275183,0.634124 0.681984,0.430722 0.406802,-0.203402 0.957161,-0.634118 1.98613,-1.363968 1.02897,-0.72985 2.536477,-1.758783 3.517577,-2.141647 0.9811,-0.382864 1.435745,-0.119648 1.854509,0.681993 0.418764,0.80164 0.801623,2.141646 0.921268,4.606386 0.119644,2.464739 -0.02393,6.054042 -0.45466,10.50492 -0.430732,4.450877 -1.148592,9.763045 -1.543424,13.699418 -0.394832,3.936373 -0.466618,6.496743 -0.514477,9.822937 -0.04786,3.326195 -0.07179,7.418 -0.08375,15.865123 -0.01196,8.447122 -0.01196,21.248969 0.01197,32.196649 0.02393,10.94768 0.07179,20.04058 0.107681,28.67909 0.03589,8.63851 0.05982,16.82212 0.119648,21.88316 0.05983,5.06104 0.155539,6.99926 0.179468,8.18376 0.02393,1.1845 -0.02393,1.61521 0.299122,1.25626 0.323049,-0.35894 1.016983,-1.50752 1.974161,-3.721 0.957178,-2.21348 2.177541,-5.49171 4.582457,-12.90987 2.404917,-7.41815 5.994222,-18.97571 8.13589,-26.39378 2.141667,-7.41808 2.835599,-10.69631 3.697058,-14.77628 0.86146,-4.07997 1.890393,-8.96142 2.548448,-12.68243 0.658055,-3.72101 0.945199,-6.281377 1.196457,-9.212733 0.251259,-2.931355 0.466617,-6.233514 0.586264,-8.925565 0.119646,-2.692052 0.143576,-4.773848 0.406802,-8.20773 0.263226,-3.433883 0.765729,-8.21962 0.969126,-11.593652 0.203396,-3.374031 0.107682,-5.336184 0.215366,-7.753058 0.107685,-2.416874 0.418758,-5.288316 1.184503,-9.954567 0.765746,-4.666252 1.986109,-11.126997 3.40991,-16.403418 1.423802,-5.276422 3.050952,-9.368227 5.76695,-14.154114 2.715998,-4.785888 6.520659,-10.2655571 9.463967,-14.3574711 2.943308,-4.091914 5.025104,-6.7958556 6.281389,-8.2914309 1.256285,-1.4955754 1.687002,-1.7827199 2.823656,-5.1089374 1.136653,-3.3262176 2.979162,-9.6912476 3.697032,-12.8140016 0.717871,-3.122755 0.311084,-3.003112 0.107686,-2.943289 -0.203398,0.05982 -0.203401,0.05982 -1.579328,1.710933 z"
             id="path6"
             inkscape:path-effect="#path-effect10"
             inkscape:original-d="m 98.205287,-23.546297 c -2.751854,3.302225 -5.503708,6.604449 -8.255561,9.906674 -3.996251,4.5944911 -7.992341,9.1887986 -11.988511,13.78319798 -2.775839,1.86651212 -5.551566,3.73294952 -8.327349,5.59942422 -1.531497,1.3639896 -3.062933,2.7279247 -4.5944,4.091887 -2.369034,1.5793568 -4.737974,3.1586498 -7.106961,4.7379748 -2.751909,1.196482 -5.503708,2.392916 -8.255562,3.589374 -2.63226,0.885397 -5.264416,1.770758 -7.896624,2.656137 -1.411848,1.483638 -2.823641,2.967217 -4.235461,4.450825 -0.933257,1.34006 -1.866475,2.680066 -2.799713,4.020099 -0.239296,1.196482 -0.478583,2.392916 -0.717875,3.589375 0.263227,0.02393 0.526442,0.04786 0.789663,0.07179 0.550382,-0.430733 1.100741,-0.86145 1.651112,-1.292175 1.507568,-1.028974 3.015075,-2.057908 4.522612,-3.086862 0.454663,0.263226 0.909308,0.526442 1.363962,0.789663 0.382875,1.34006 0.765734,2.680066 1.1486,4.020099 -0.143578,3.589446 -0.28715,7.178749 -0.430725,10.768124 -0.717889,5.31238 -1.43575,10.624548 -2.153624,15.936823 -0.07179,2.560471 -0.143575,5.120841 -0.215363,7.681261 -0.02393,4.091969 -0.04786,8.183774 -0.07179,12.275661 0,12.802358 0,25.604205 0,38.406305 0.04786,9.09326 0.09572,18.18616 0.143575,27.27925 0.02393,8.18393 0.04786,16.36754 0.07179,24.55132 0.09572,1.9383 0.191433,3.87652 0.28715,5.81478 -0.04786,0.43074 -0.09572,0.86145 -0.143575,1.29218 0.69396,-1.14862 1.387892,-2.2972 2.081837,-3.4458 1.220412,-3.27836 2.440775,-6.55659 3.661162,-9.83489 3.589447,-11.55801 7.178749,-23.11557 10.768124,-34.67335 0.69396,-3.27837 1.387891,-6.5566 2.081837,-9.83489 1.028975,-4.88165 2.057908,-9.7631 3.086862,-14.64465 0.287156,-2.56047 0.5743,-5.120837 0.86145,-7.681257 0.215367,-3.302291 0.430725,-6.60445 0.646088,-9.906674 0.02393,-2.081879 0.04786,-4.163675 0.07179,-6.245512 0.502522,-4.785928 1.005025,-9.571665 1.507537,-14.357498 -0.09572,-1.96223 -0.191433,-3.924383 -0.28715,-5.886574 0.311086,-2.871557 0.622159,-5.742999 0.933238,-8.614499 1.220411,-6.461003 2.440774,-12.921748 3.661162,-19.382622 1.627215,-4.091969 3.254366,-8.183774 4.881549,-12.275661 3.804813,-5.479888 7.609474,-10.9595571 11.414211,-16.4393356 2.081879,-2.7040495 4.163675,-5.4079909 6.245512,-8.1119864 0.430733,-0.2871557 0.86145,-0.5742999 1.292175,-0.8614499 1.842582,-6.3652851 3.685091,-12.7303151 5.527636,-19.0954721 -0.406804,0.119648 -0.813591,0.239291 -1.220387,0.358937 z"
             transform="matrix(0.56559928,0,0,0.56559928,-34.077009,94.413137)" /></g></g></g></g></svg>
