<?xml version="1.0" encoding="UTF-8" standalone="no"?>
<!-- Created with Inkscape (http://www.inkscape.org/) -->

<svg
   width="120"
   height="120"
   viewBox="0 0 120 120"
   version="1.1"
   id="svg1"
   xml:space="preserve"
   inkscape:version="1.4.1 (93de688d07, 2025-03-30)"
   sodipodi:docname="carx.svg"
   xmlns:inkscape="http://www.inkscape.org/namespaces/inkscape"
   xmlns:sodipodi="http://sodipodi.sourceforge.net/DTD/sodipodi-0.dtd"
   xmlns="http://www.w3.org/2000/svg"
   xmlns:svg="http://www.w3.org/2000/svg"><sodipodi:namedview
     id="namedview1"
     pagecolor="#1f1f1f"
     bordercolor="#000000"
     borderopacity="0.25"
     inkscape:showpageshadow="2"
     inkscape:pageopacity="0.0"
     inkscape:pagecheckerboard="0"
     inkscape:deskcolor="#3c3c3c"
     inkscape:document-units="px"
     inkscape:zoom="5.6568543"
     inkscape:cx="67.440309"
     inkscape:cy="50.116193"
     inkscape:window-width="1660"
     inkscape:window-height="1287"
     inkscape:window-x="0"
     inkscape:window-y="0"
     inkscape:window-maximized="1"
     inkscape:current-layer="layer1" /><defs
     id="defs1"><inkscape:path-effect
       effect="bspline"
       id="path-effect14"
       is_visible="true"
       lpeversion="1.3"
       weight="33.333333"
       steps="2"
       helper_size="0"
       apply_no_weight="true"
       apply_with_weight="true"
       only_selected="false"
       uniform="false" /><inkscape:path-effect
       effect="fillet_chamfer"
       id="path-effect5"
       is_visible="true"
       lpeversion="1"
       nodesatellites_param="F,0,0,1,0,37.022737,0,1 @ F,0,0,1,0,36.062445,0,1 @ F,0,0,1,0,35.528974,0,1 @ F,0,0,1,0,28.991378,0,1"
       radius="0"
       unit="px"
       method="auto"
       mode="F"
       chamfer_steps="1"
       flexible="false"
       use_knot_distance="true"
       apply_no_radius="true"
       apply_with_radius="true"
       only_selected="false"
       hide_knots="false" /><inkscape:path-effect
       effect="bspline"
       id="path-effect4"
       is_visible="true"
       lpeversion="1.3"
       weight="33.333333"
       steps="2"
       helper_size="0"
       apply_no_weight="true"
       apply_with_weight="true"
       only_selected="false"
       uniform="false" /><inkscape:path-effect
       effect="bspline"
       id="path-effect3"
       is_visible="true"
       lpeversion="1.3"
       weight="33.333333"
       steps="2"
       helper_size="0"
       apply_no_weight="true"
       apply_with_weight="true"
       only_selected="false"
       uniform="false" /><inkscape:path-effect
       effect="mirror_symmetry"
       start_point="59.977887,81.781355"
       end_point="59.977887,112.27285"
       center_point="59.977887,97.027103"
       id="path-effect9"
       is_visible="true"
       lpeversion="1.2"
       lpesatellites=""
       mode="free"
       discard_orig_path="false"
       fuse_paths="false"
       oposite_fuse="false"
       split_items="false"
       split_open="false"
       link_styles="false" /><inkscape:path-effect
       effect="mirror_symmetry"
       start_point="59.944658,10.409945"
       end_point="59.944658,50.039614"
       center_point="59.944658,30.22478"
       id="path-effect2"
       is_visible="true"
       lpeversion="1.2"
       lpesatellites=""
       mode="free"
       discard_orig_path="false"
       fuse_paths="false"
       oposite_fuse="false"
       split_items="false"
       split_open="false"
       link_styles="false" /><inkscape:path-effect
       effect="mirror_symmetry"
       start_point="59.948435,66.805114"
       end_point="59.948435,107.38004"
       center_point="59.948435,87.092577"
       id="path-effect8"
       is_visible="true"
       lpeversion="1.2"
       lpesatellites=""
       mode="free"
       discard_orig_path="false"
       fuse_paths="false"
       oposite_fuse="false"
       split_items="false"
       split_open="false"
       link_styles="false" /><inkscape:path-effect
       effect="mirror_symmetry"
       start_point="60.801511,9.4541705"
       end_point="60.801511,40.169132"
       center_point="60.801511,24.811651"
       id="path-effect7"
       is_visible="true"
       lpeversion="1.2"
       lpesatellites=""
       mode="free"
       discard_orig_path="false"
       fuse_paths="false"
       oposite_fuse="false"
       split_items="false"
       split_open="false"
       link_styles="false" /><inkscape:path-effect
       effect="fillet_chamfer"
       id="path-effect13"
       is_visible="true"
       lpeversion="1"
       nodesatellites_param="F,0,0,1,0,4.7467821,0,1 @ F,0,0,1,0,4.0515277,0,1 @ F,0,0,1,0,0,0,1 @ F,0,0,1,0,2.4219461,0,1 @ F,0,0,1,0,2.4960577,0,1 @ F,0,0,1,0,0,0,1 @ F,0,0,1,0,4.1062831,0,1"
       radius="0"
       unit="px"
       method="auto"
       mode="F"
       chamfer_steps="1"
       flexible="false"
       use_knot_distance="true"
       apply_no_radius="true"
       apply_with_radius="true"
       only_selected="false"
       hide_knots="false" /><inkscape:path-effect
       effect="fillet_chamfer"
       id="path-effect12"
       is_visible="true"
       lpeversion="1"
       nodesatellites_param="F,0,0,1,0,0,0,1 @ F,0,0,1,0,0,0,1 @ F,0,0,1,0,0,0,1 @ F,0,0,1,0,0,0,1 @ F,0,0,1,0,3.627665,0,1 @ F,0,0,1,0,0,0,1 @ F,0,0,1,0,0,0,1"
       radius="0"
       unit="px"
       method="auto"
       mode="F"
       chamfer_steps="1"
       flexible="false"
       use_knot_distance="true"
       apply_no_radius="true"
       apply_with_radius="true"
       only_selected="false"
       hide_knots="false" /><inkscape:path-effect
       effect="fillet_chamfer"
       id="path-effect11"
       is_visible="true"
       lpeversion="1"
       nodesatellites_param="F,0,0,1,0,2.9729248,0,1 @ F,0,0,1,0,3.8975858,0,1 @ F,0,0,1,0,0,0,1 @ F,0,1,1,0,3.784373,0,1 @ F,0,0,1,0,1.4792147,0,1 @ F,0,0,1,0,0,0,1 @ F,0,0,1,0,3.784373,0,1"
       radius="0"
       unit="px"
       method="auto"
       mode="F"
       chamfer_steps="1"
       flexible="false"
       use_knot_distance="true"
       apply_no_radius="true"
       apply_with_radius="true"
       only_selected="false"
       hide_knots="false" /><linearGradient
       id="linearGradient6"><stop
         style="stop-color:#c88500;stop-opacity:1;"
         offset="0.07163448"
         id="stop8" /><stop
         style="stop-color:#fff300;stop-opacity:1;"
         offset="1"
         id="stop9" /></linearGradient><linearGradient
       id="linearGradient6-1"><stop
         style="stop-color:#c88500;stop-opacity:1;"
         offset="0"
         id="stop6" /><stop
         style="stop-color:#fff300;stop-opacity:1;"
         offset="1"
         id="stop7" /></linearGradient><inkscape:path-effect
       effect="fillet_chamfer"
       id="path-effect1"
       is_visible="true"
       lpeversion="1"
       nodesatellites_param="F,0,0,1,0,24.536157,0,1 @ F,0,0,1,0,24.004899,0,1 @ F,0,0,1,0,23.651152,0,1 @ F,0,0,1,0,24.380791,0,1"
       radius="0"
       unit="px"
       method="auto"
       mode="F"
       chamfer_steps="1"
       flexible="false"
       use_knot_distance="true"
       apply_no_radius="true"
       apply_with_radius="true"
       only_selected="false"
       hide_knots="false" /><linearGradient
       id="a"
       x1="7.937"
       x2="7.937"
       y1="15.081"
       y2="1.852"
       gradientTransform="scale(3.7796)"
       gradientUnits="userSpaceOnUse"><stop
         offset="0"
         stop-color="#9b6f27"
         id="stop1" /><stop
         offset="1"
         stop-color="#d0ab6a"
         id="stop2" /></linearGradient><filter
       id="b"
       width="1.216"
       height="1.216"
       x="-0.108"
       y="-0.108"
       color-interpolation-filters="sRGB"><feGaussianBlur
         stdDeviation="1.35"
         id="feGaussianBlur2" /></filter><linearGradient
       id="linearGradient31"
       x1=".5002"
       x2=".5002"
       y2="1"
       gradientTransform="matrix(244,0,0,228,5.986,12)"
       gradientUnits="userSpaceOnUse"><stop
         stop-color="#ebdbb2"
         stop-opacity=".2"
         offset="0"
         id="stop1-5" /><stop
         stop-color="#ebdbb2"
         stop-opacity=".05"
         offset=".1"
         id="stop2-6" /><stop
         stop-opacity="0"
         offset=".7036"
         id="stop3" /><stop
         stop-opacity=".1"
         offset=".8975"
         id="stop4" /><stop
         stop-opacity=".2"
         offset="1"
         id="stop5" /></linearGradient><inkscape:path-effect
       effect="bspline"
       id="path-effect4-4"
       is_visible="true"
       lpeversion="1.3"
       weight="33.333333"
       steps="2"
       helper_size="0"
       apply_no_weight="true"
       apply_with_weight="true"
       only_selected="false"
       uniform="false" /><inkscape:path-effect
       effect="bspline"
       id="path-effect3-8"
       is_visible="true"
       lpeversion="1.3"
       weight="33.333333"
       steps="2"
       helper_size="0"
       apply_no_weight="true"
       apply_with_weight="true"
       only_selected="false"
       uniform="false" /><inkscape:path-effect
       effect="mirror_symmetry"
       start_point="59.977887,81.781355"
       end_point="59.977887,112.27285"
       center_point="59.977887,97.027103"
       id="path-effect9-1"
       is_visible="true"
       lpeversion="1.2"
       lpesatellites=""
       mode="free"
       discard_orig_path="false"
       fuse_paths="false"
       oposite_fuse="false"
       split_items="false"
       split_open="false"
       link_styles="false" /><inkscape:path-effect
       effect="mirror_symmetry"
       start_point="59.944658,10.409945"
       end_point="59.944658,50.039614"
       center_point="59.944658,30.22478"
       id="path-effect2-2"
       is_visible="true"
       lpeversion="1.2"
       lpesatellites=""
       mode="free"
       discard_orig_path="false"
       fuse_paths="false"
       oposite_fuse="false"
       split_items="false"
       split_open="false"
       link_styles="false" /><inkscape:path-effect
       effect="mirror_symmetry"
       start_point="59.948435,66.805114"
       end_point="59.948435,107.38004"
       center_point="59.948435,87.092577"
       id="path-effect8-8"
       is_visible="true"
       lpeversion="1.2"
       lpesatellites=""
       mode="free"
       discard_orig_path="false"
       fuse_paths="false"
       oposite_fuse="false"
       split_items="false"
       split_open="false"
       link_styles="false" /><inkscape:path-effect
       effect="mirror_symmetry"
       start_point="60.801511,9.4541705"
       end_point="60.801511,40.169132"
       center_point="60.801511,24.811651"
       id="path-effect7-9"
       is_visible="true"
       lpeversion="1.2"
       lpesatellites=""
       mode="free"
       discard_orig_path="false"
       fuse_paths="false"
       oposite_fuse="false"
       split_items="false"
       split_open="false"
       link_styles="false" /><inkscape:path-effect
       effect="fillet_chamfer"
       id="path-effect13-3"
       is_visible="true"
       lpeversion="1"
       nodesatellites_param="F,0,0,1,0,4.7467821,0,1 @ F,0,0,1,0,4.0515277,0,1 @ F,0,0,1,0,0,0,1 @ F,0,0,1,0,2.4219461,0,1 @ F,0,0,1,0,2.4960577,0,1 @ F,0,0,1,0,0,0,1 @ F,0,0,1,0,4.1062831,0,1"
       radius="0"
       unit="px"
       method="auto"
       mode="F"
       chamfer_steps="1"
       flexible="false"
       use_knot_distance="true"
       apply_no_radius="true"
       apply_with_radius="true"
       only_selected="false"
       hide_knots="false" /><inkscape:path-effect
       effect="fillet_chamfer"
       id="path-effect12-6"
       is_visible="true"
       lpeversion="1"
       nodesatellites_param="F,0,0,1,0,0,0,1 @ F,0,0,1,0,0,0,1 @ F,0,0,1,0,0,0,1 @ F,0,0,1,0,0,0,1 @ F,0,0,1,0,3.627665,0,1 @ F,0,0,1,0,0,0,1 @ F,0,0,1,0,0,0,1"
       radius="0"
       unit="px"
       method="auto"
       mode="F"
       chamfer_steps="1"
       flexible="false"
       use_knot_distance="true"
       apply_no_radius="true"
       apply_with_radius="true"
       only_selected="false"
       hide_knots="false" /><inkscape:path-effect
       effect="fillet_chamfer"
       id="path-effect11-8"
       is_visible="true"
       lpeversion="1"
       nodesatellites_param="F,0,0,1,0,2.9729248,0,1 @ F,0,0,1,0,3.8975858,0,1 @ F,0,0,1,0,0,0,1 @ F,0,1,1,0,3.784373,0,1 @ F,0,0,1,0,1.4792147,0,1 @ F,0,0,1,0,0,0,1 @ F,0,0,1,0,3.784373,0,1"
       radius="0"
       unit="px"
       method="auto"
       mode="F"
       chamfer_steps="1"
       flexible="false"
       use_knot_distance="true"
       apply_no_radius="true"
       apply_with_radius="true"
       only_selected="false"
       hide_knots="false" /><inkscape:path-effect
       effect="fillet_chamfer"
       id="path-effect1-5"
       is_visible="true"
       lpeversion="1"
       nodesatellites_param="F,0,0,1,0,24.536157,0,1 @ F,0,0,1,0,24.004899,0,1 @ F,0,0,1,0,23.651152,0,1 @ F,0,0,1,0,24.380791,0,1"
       radius="0"
       unit="px"
       method="auto"
       mode="F"
       chamfer_steps="1"
       flexible="false"
       use_knot_distance="true"
       apply_no_radius="true"
       apply_with_radius="true"
       only_selected="false"
       hide_knots="false" /><filter
       id="b-0"
       width="1.216"
       height="1.216"
       x="-0.108"
       y="-0.108"
       color-interpolation-filters="sRGB"><feGaussianBlur
         stdDeviation="1.35"
         id="feGaussianBlur2-8" /></filter><inkscape:path-effect
       effect="bspline"
       id="path-effect5-5"
       is_visible="true"
       lpeversion="1.3"
       weight="33.333333"
       steps="2"
       helper_size="0"
       apply_no_weight="true"
       apply_with_weight="true"
       only_selected="false"
       uniform="false" /><inkscape:path-effect
       effect="bspline"
       id="path-effect4-2"
       is_visible="true"
       lpeversion="1.3"
       weight="33.333333"
       steps="2"
       helper_size="0"
       apply_no_weight="true"
       apply_with_weight="true"
       only_selected="false"
       uniform="false" /><inkscape:path-effect
       effect="bspline"
       id="path-effect3-0"
       is_visible="true"
       lpeversion="1.3"
       weight="33.333333"
       steps="2"
       helper_size="0"
       apply_no_weight="true"
       apply_with_weight="true"
       only_selected="false"
       uniform="false" /><inkscape:path-effect
       effect="mirror_symmetry"
       start_point="59.977887,81.781355"
       end_point="59.977887,112.27285"
       center_point="59.977887,97.027103"
       id="path-effect9-6"
       is_visible="true"
       lpeversion="1.2"
       lpesatellites=""
       mode="free"
       discard_orig_path="false"
       fuse_paths="false"
       oposite_fuse="false"
       split_items="false"
       split_open="false"
       link_styles="false" /><inkscape:path-effect
       effect="mirror_symmetry"
       start_point="59.944658,10.409945"
       end_point="59.944658,50.039614"
       center_point="59.944658,30.22478"
       id="path-effect2-1"
       is_visible="true"
       lpeversion="1.2"
       lpesatellites=""
       mode="free"
       discard_orig_path="false"
       fuse_paths="false"
       oposite_fuse="false"
       split_items="false"
       split_open="false"
       link_styles="false" /><inkscape:path-effect
       effect="mirror_symmetry"
       start_point="59.948435,66.805114"
       end_point="59.948435,107.38004"
       center_point="59.948435,87.092577"
       id="path-effect8-5"
       is_visible="true"
       lpeversion="1.2"
       lpesatellites=""
       mode="free"
       discard_orig_path="false"
       fuse_paths="false"
       oposite_fuse="false"
       split_items="false"
       split_open="false"
       link_styles="false" /><inkscape:path-effect
       effect="mirror_symmetry"
       start_point="60.801511,9.4541705"
       end_point="60.801511,40.169132"
       center_point="60.801511,24.811651"
       id="path-effect7-5"
       is_visible="true"
       lpeversion="1.2"
       lpesatellites=""
       mode="free"
       discard_orig_path="false"
       fuse_paths="false"
       oposite_fuse="false"
       split_items="false"
       split_open="false"
       link_styles="false" /><inkscape:path-effect
       effect="fillet_chamfer"
       id="path-effect13-4"
       is_visible="true"
       lpeversion="1"
       nodesatellites_param="F,0,0,1,0,4.7467821,0,1 @ F,0,0,1,0,4.0515277,0,1 @ F,0,0,1,0,0,0,1 @ F,0,0,1,0,2.4219461,0,1 @ F,0,0,1,0,2.4960577,0,1 @ F,0,0,1,0,0,0,1 @ F,0,0,1,0,4.1062831,0,1"
       radius="0"
       unit="px"
       method="auto"
       mode="F"
       chamfer_steps="1"
       flexible="false"
       use_knot_distance="true"
       apply_no_radius="true"
       apply_with_radius="true"
       only_selected="false"
       hide_knots="false" /><inkscape:path-effect
       effect="fillet_chamfer"
       id="path-effect12-7"
       is_visible="true"
       lpeversion="1"
       nodesatellites_param="F,0,0,1,0,0,0,1 @ F,0,0,1,0,0,0,1 @ F,0,0,1,0,0,0,1 @ F,0,0,1,0,0,0,1 @ F,0,0,1,0,3.627665,0,1 @ F,0,0,1,0,0,0,1 @ F,0,0,1,0,0,0,1"
       radius="0"
       unit="px"
       method="auto"
       mode="F"
       chamfer_steps="1"
       flexible="false"
       use_knot_distance="true"
       apply_no_radius="true"
       apply_with_radius="true"
       only_selected="false"
       hide_knots="false" /><inkscape:path-effect
       effect="fillet_chamfer"
       id="path-effect11-6"
       is_visible="true"
       lpeversion="1"
       nodesatellites_param="F,0,0,1,0,2.9729248,0,1 @ F,0,0,1,0,3.8975858,0,1 @ F,0,0,1,0,0,0,1 @ F,0,1,1,0,3.784373,0,1 @ F,0,0,1,0,1.4792147,0,1 @ F,0,0,1,0,0,0,1 @ F,0,0,1,0,3.784373,0,1"
       radius="0"
       unit="px"
       method="auto"
       mode="F"
       chamfer_steps="1"
       flexible="false"
       use_knot_distance="true"
       apply_no_radius="true"
       apply_with_radius="true"
       only_selected="false"
       hide_knots="false" /><inkscape:path-effect
       effect="fillet_chamfer"
       id="path-effect1-7"
       is_visible="true"
       lpeversion="1"
       nodesatellites_param="F,0,0,1,0,24.536157,0,1 @ F,0,0,1,0,24.004899,0,1 @ F,0,0,1,0,23.651152,0,1 @ F,0,0,1,0,24.380791,0,1"
       radius="0"
       unit="px"
       method="auto"
       mode="F"
       chamfer_steps="1"
       flexible="false"
       use_knot_distance="true"
       apply_no_radius="true"
       apply_with_radius="true"
       only_selected="false"
       hide_knots="false" /><filter
       id="b-2"
       width="1.216"
       height="1.216"
       x="-0.108"
       y="-0.108"
       color-interpolation-filters="sRGB"><feGaussianBlur
         stdDeviation="1.35"
         id="feGaussianBlur2-5" /></filter></defs><g
     inkscape:groupmode="layer"
     id="layer3"
     inkscape:label="base"><path
       d="m 76.476937,9.2332248 c 32.063223,0 37.852423,6.6798392 37.852423,38.7430672 v 24.938066 c 0,31.172592 -5.7892,37.852422 -37.852423,37.852422 H 43.523063 c -32.063227,0 -37.8524214,-6.67983 -37.8524214,-37.852422 V 47.976292 c 0,-32.063228 5.7891944,-38.7430672 37.8524214,-38.7430672 z"
       fill="#ebdbb2"
       style="display:inline;opacity:1;isolation:isolate;stroke-width:0.445323;fill:#791a17;fill-opacity:1"
       id="path5" /><g
       id="g1"
       transform="matrix(0.89199476,0,0,0.89199476,6.2698351,6.635423)"><g
         id="layer1"
         inkscape:label="Layer 3"
         style="fill:#ebdbb2;fill-opacity:1"><g
           id="layer1-4"
           inkscape:label="Layer 3"
           transform="matrix(1.1798594,0.5253073,-0.5253073,1.1798594,17.299102,-38.576065)"
           style="opacity:1;fill:#ebdbb2;fill-opacity:1"><path
             style="opacity:1;fill:#ebdbb2;fill-opacity:1;fill-rule:evenodd;stroke:none;stroke-width:0.3"
             d="m 38.331422,49.196046 c -2.608744,-0.01169 -7.826231,-0.03506 -10.443617,-0.02933 -2.617387,0.0057 -2.634674,0.04056 -2.67619,0.100163 -0.04152,0.0596 -0.107265,0.143973 -0.586651,2.072012 -0.479386,1.928039 -1.372376,5.699594 -1.817563,7.665973 -0.445187,1.966378 -0.442553,2.1275 -0.434922,2.217651 0.0076,0.09015 0.02026,0.109332 0.1045,0.113945 0.08424,0.0046 0.240075,-0.0053 0.973411,-0.002 0.733336,0.0034 2.044114,0.02005 4.574043,0.02807 2.529929,0.008 6.278833,0.0074 8.163232,0.0071 1.884399,-3.17e-4 1.904229,-3.17e-4 1.914139,-0.0069 0.0099,-0.0066 0.0099,-0.01978 0.197171,-0.765888 0.187262,-0.746103 0.56177,-2.22507 0.749027,-2.971979 0.187258,-0.746908 0.187258,-0.761728 0.168923,-0.770638 -0.01834,-0.0089 -0.055,-0.01191 -0.978336,-0.01071 -0.923341,0.0012 -2.733277,0.0066 -3.650846,0.01081 -0.917569,0.0042 -0.942737,0.0072 -0.961057,0.0238 -0.01832,0.01656 -0.0298,0.04664 -0.09992,0.288265 -0.07012,0.241628 -0.198886,0.694796 -0.272799,0.927566 -0.07391,0.23277 -0.09298,0.245141 -0.814339,0.257669 -0.721356,0.01253 -2.14495,0.02522 -2.869132,0.03006 -0.724181,0.0048 -0.748931,0.0018 -0.768997,-0.006 -0.02006,-0.0079 -0.03546,-0.02059 -0.0354,-0.06185 5.8e-5,-0.04126 0.01557,-0.11105 0.248712,-1.067768 0.233141,-0.956718 0.683892,-2.80029 0.926537,-3.723936 0.242646,-0.923645 0.277178,-0.927329 1.059053,-0.937432 0.781875,-0.0101 2.311035,-0.02663 3.103195,-0.03304 0.79216,-0.0064 0.847284,-0.0027 0.879338,0.0088 0.03205,0.0115 0.04102,0.03077 0.02796,0.05757 -0.01306,0.0268 -0.04815,0.0611 -0.101632,0.08277 -0.05348,0.02166 -0.125356,0.03069 -0.201425,0.160831 -0.07607,0.130138 -0.156332,0.381376 -0.212114,0.539088 -0.05578,0.157713 -0.08708,0.221886 -0.102725,0.277005 -0.01565,0.05512 -0.01565,0.101179 0.02763,0.160708 0.04328,0.05953 0.129838,0.132528 0.181619,0.170493 0.05178,0.03797 0.0688,0.0409 0.920498,0.04372 0.851696,0.0028 2.538016,0.0055 3.390842,-0.0073 0.852827,-0.01281 0.872127,-0.04115 1.089366,-0.845293 0.217238,-0.804148 0.632399,-2.38405 0.821584,-3.178749 0.189185,-0.794698 0.152404,-0.804156 0.134013,-0.808886 -0.01839,-0.0047 -0.01839,-0.0046 -2.627134,-0.01633 z"
             id="path1"
             inkscape:path-effect="#path-effect3-0"
             inkscape:original-d="m 40.940165,49.207733 c -5.217487,-0.02337 -10.434974,-0.04675 -15.65246,-0.07012 -0.01729,0.03483 -0.03458,0.06966 -0.05186,0.104494 -0.06575,0.08437 -0.131495,0.168744 -0.197242,0.253116 -0.893025,3.771706 -1.786015,7.543261 -2.679022,11.314892 0.0026,0.161127 0.0053,0.322247 0.0079,0.483371 0.01263,0.01918 0.02526,0.03836 0.03789,0.05754 0.155844,-0.01 0.311683,-0.01991 0.467524,-0.02986 1.310831,0.01668 2.621609,0.03336 3.932414,0.05005 3.749053,-6.36e-4 7.497957,-0.0013 11.246935,-0.0019 0.01982,0 0.03965,0 0.05947,0 0,-0.01319 0,-0.02638 0,-0.03956 0.374523,-1.479026 0.749031,-2.957993 1.123546,-4.43699 0,-0.01482 0,-0.02964 0,-0.04446 -0.03667,-0.003 -0.07333,-0.006 -0.110003,-0.009 -1.810009,0.0054 -3.619945,0.0108 -5.429917,0.01619 -0.02517,0.003 -0.05033,0.0061 -0.0755,0.0091 -0.01147,0.03008 -0.02295,0.06016 -0.03442,0.09023 -0.12877,0.453186 -0.257536,0.906354 -0.386304,1.359531 -0.01906,0.01236 -0.03813,0.02473 -0.05719,0.0371 -1.42365,0.01269 -2.847244,0.02538 -4.270867,0.03807 -0.02474,-0.003 -0.04949,-0.006 -0.07423,-0.009 -0.01539,-0.01273 -0.03078,-0.02546 -0.04618,-0.03819 0.01551,-0.06979 0.03102,-0.139579 0.04654,-0.209369 0.450768,-1.843645 0.901518,-3.687217 1.352278,-5.530825 0.03453,-0.0037 0.06906,-0.0074 0.103594,-0.01105 1.52922,-0.01653 3.05838,-0.03305 4.58757,-0.04957 0.05513,0.0037 0.110254,0.0074 0.165382,0.0111 0.009,0.01929 0.01795,0.03857 0.02692,0.05786 -0.03509,0.03431 -0.07019,0.06861 -0.105278,0.102917 -0.07187,0.009 -0.143743,0.01806 -0.215614,0.02708 -0.08027,0.251249 -0.160531,0.502488 -0.240797,0.753732 -0.0313,0.06418 -0.06259,0.128355 -0.09389,0.192532 0,0.04606 0,0.09212 0,0.138177 0.08656,0.073 0.173118,0.145999 0.259676,0.218999 0.01701,0.0029 0.03402,0.0059 0.05103,0.0088 1.686387,0.0027 3.372707,0.0054 5.05906,0.0081 0.0193,-0.02833 0.0386,-0.05666 0.0579,-0.08499 0.415177,-1.579966 0.830338,-3.159868 1.245507,-4.739802 -0.03679,-0.0095 -0.07358,-0.01892 -0.110362,-0.02838 z" /><path
             style="fill:#ebdbb2;fill-opacity:1;fill-rule:evenodd;stroke:none;stroke-width:0.3"
             d="m 52.60162,49.181379 c -1.010194,-10e-4 -3.03058,-0.003 -4.055494,0.0042 -1.024914,0.0072 -1.054355,0.02373 -1.318225,0.369971 -0.26387,0.346239 -0.762143,1.022196 -2.202735,2.985059 -1.440591,1.962863 -3.823396,5.212489 -5.011334,6.850662 -1.187937,1.638174 -1.180962,1.664817 -1.174482,1.719893 0.0065,0.05508 0.01246,0.138574 0.04976,0.178395 0.03729,0.03982 0.105889,0.03596 1.716834,0.04505 1.610944,0.0091 4.764107,0.03112 6.365111,0.03915 1.601003,0.008 1.64978,0.002 2.02652,-0.446451 0.37674,-0.448492 1.08141,-1.339456 1.439654,-1.802117 0.358243,-0.46266 0.370047,-0.497009 0.355998,-0.53432 -0.01405,-0.03731 -0.05396,-0.07759 -0.140194,-0.101741 -0.08624,-0.02415 -0.218812,-0.03217 -0.925313,-0.04376 -0.706502,-0.01159 -1.986879,-0.02676 -2.63803,-0.03725 -0.651151,-0.01049 -0.673051,-0.01629 -0.698408,-0.02868 -0.02536,-0.01239 -0.05416,-0.03137 -0.06643,-0.06227 -0.01227,-0.0309 -0.008,-0.07373 0.618256,-0.904679 0.626253,-0.83095 1.874438,-2.449945 2.519452,-3.274325 0.645015,-0.82438 0.686826,-0.854107 0.717589,-0.878669 0.03076,-0.02456 0.05047,-0.04395 0.0265,0.0224 -0.02397,0.06634 -0.09161,0.218411 -0.177677,0.417188 -0.08606,0.198777 -0.190541,0.444248 -0.235009,0.591016 -0.04447,0.146767 -0.02892,0.194836 0.333754,1.351315 0.362678,1.15648 1.072463,3.421289 1.433911,4.55515 0.361448,1.133862 0.374514,1.136724 0.45452,1.138159 0.08001,0.0014 0.226916,0.0014 1.127215,0.0021 0.9003,7e-4 2.55392,0.0021 3.390682,-0.0049 0.836762,-0.007 0.856622,-0.02252 0.882057,-0.06715 0.02543,-0.04463 0.05644,-0.118403 0.06993,-0.176899 0.0135,-0.0585 0.0095,-0.101725 -0.627054,-2.08561 -0.636548,-1.983885 -1.905592,-5.908278 -2.552208,-7.868374 -0.646617,-1.960096 -0.67079,-1.955814 -0.682866,-1.953675 -0.01208,0.0021 -0.01209,0.0021 -1.022282,0.0011 z"
             id="path3"
             inkscape:path-effect="#path-effect4-2"
             inkscape:original-d="m 53.611813,49.182379 c -2.020387,-0.002 -4.040773,-0.004 -6.06116,-0.006 -0.02944,0.01649 -0.05888,0.03298 -0.08833,0.04947 -0.498292,0.675984 -0.996565,1.351941 -1.494848,2.027911 -2.3829,3.249756 -4.765705,6.499382 -7.148558,9.749073 0.007,0.02665 0.01395,0.0533 0.02093,0.07995 0.006,0.0835 0.01196,0.166999 0.01795,0.250498 0.0686,-0.0039 0.1372,-0.0077 0.2058,-0.01157 3.153288,0.02203 6.306451,0.04407 9.459676,0.0661 0.04878,-0.006 0.09756,-0.01196 0.14634,-0.01795 0.704699,-0.891001 1.409369,-1.781965 2.114054,-2.672947 0.0118,-0.03434 0.0236,-0.06869 0.03541,-0.103033 -0.0399,-0.04028 -0.07981,-0.08056 -0.119708,-0.120834 -0.132578,-0.008 -0.265151,-0.01604 -0.397726,-0.02406 -1.280428,-0.01517 -2.560805,-0.03034 -3.841208,-0.04551 -0.0219,-0.0058 -0.0438,-0.0116 -0.06571,-0.01741 -0.0288,-0.01898 -0.05761,-0.03795 -0.08641,-0.05693 0.0043,-0.04283 0.0085,-0.08566 0.01281,-0.128497 1.248235,-1.61906 2.49642,-3.238055 3.74463,-4.857083 0.04182,-0.02973 0.08363,-0.05946 0.125447,-0.08919 0.01971,-0.01939 0.03941,-0.03878 0.05912,-0.05817 -0.06765,0.152076 -0.135291,0.304145 -0.202937,0.456218 -0.104482,0.245481 -0.208959,0.490952 -0.313438,0.736428 0.01554,0.04806 0.03108,0.09613 0.04663,0.144187 0.709813,2.2649 1.419598,4.529709 2.129397,6.794563 0.01309,0.0029 0.02617,0.0057 0.03926,0.0086 0.146915,0 0.293825,0 0.440737,0 1.653687,0.0014 3.307307,0.0028 4.960961,0.0042 0.01987,-0.01549 0.03973,-0.03097 0.0596,-0.04646 0.031,-0.07377 0.062,-0.147543 0.093,-0.221315 -0.004,-0.04322 -0.008,-0.08645 -0.01201,-0.129669 -1.269095,-3.92455 -2.538138,-7.848943 -3.807207,-11.773415 -0.02416,0.0043 -0.04833,0.0086 -0.07249,0.01284 z" /><path
             style="fill:#ebdbb2;fill-opacity:1;fill-rule:evenodd;stroke:none;stroke-width:0.3"
             d="m 58.178798,61.275673 c -0.01156,-0.05642 -0.03467,-0.169255 -0.0093,-0.345888 0.02533,-0.176633 0.09909,-0.41705 0.5588,-2.320807 0.459709,-1.903756 1.305328,-5.470704 1.73841,-7.268524 0.433081,-1.79782 0.453615,-1.826448 0.352684,-1.907334 -0.100931,-0.08089 -0.323312,-0.214033 -1.970792,-1.202993 -1.647479,-0.98896 -4.71993,-2.833657 -6.272446,-3.772345 -1.552515,-0.938688 -1.585029,-0.971324 -1.616238,-1.00857 -0.03121,-0.03725 -0.06111,-0.0791 -0.08272,-0.125201 -0.02161,-0.0461 -0.03493,-0.09647 0.05698,-0.121965 0.09191,-0.0255 0.289044,-0.02613 0.645763,-0.02469 0.356719,0.0014 0.872999,0.005 3.291146,0.0039 2.418147,-0.001 6.737976,-0.0066 8.909296,6.63e-4 2.17132,0.0073 2.194039,0.02731 2.920757,0.418015 0.726718,0.390701 2.157378,1.152011 3.34258,1.772183 1.185202,0.620172 2.124879,1.099171 2.598971,1.345014 0.474091,0.245844 0.482573,0.258516 0.451187,0.296528 -0.03139,0.03801 -0.102633,0.101364 -0.23255,0.219333 -0.129917,0.117969 -0.318494,0.290547 -0.420793,0.387054 -0.102299,0.09651 -0.118317,0.116938 -0.118598,0.130187 -2.81e-4,0.01325 0.01516,0.01931 0.153097,-0.04833 0.137941,-0.06764 0.398371,-0.208977 0.848032,-0.435909 0.449662,-0.226931 1.088525,-0.539441 2.460408,-1.236412 1.371883,-0.696971 3.476689,-1.778353 4.540653,-2.319255 1.063964,-0.540902 1.087054,-0.541302 1.544117,-0.540819 0.457063,4.84e-4 1.348072,0.0018 3.867227,0.0025 2.519156,6.86e-4 6.666274,6.89e-4 8.739253,0.0035 2.07298,0.0028 2.071754,0.0085 2.044507,0.04196 -0.02725,0.0335 -0.08051,0.09485 -0.191055,0.183379 -0.110542,0.08853 -0.278357,0.204226 -2.59573,1.558914 -2.317374,1.354687 -6.784124,3.948256 -9.021553,5.250385 -2.237429,1.302128 -2.245465,1.312788 -2.250211,1.326551 -0.0047,0.01376 -0.0062,0.03064 0.126233,0.104093 0.132444,0.07346 0.39879,0.203478 3.636447,1.787874 3.237657,1.584397 9.446371,4.623043 12.562537,6.155381 3.116168,1.532339 3.139668,1.558315 3.147398,1.578762 0.008,0.02045 -3.6e-4,0.03541 -0.0344,0.06809 -0.034,0.03268 -0.0941,0.08309 -0.25963,0.10478 -0.16556,0.02169 -0.43665,0.01466 -3.850812,0.01388 -3.414161,-7.8e-4 -9.971121,0.0047 -13.265585,0.0047 -3.294465,3.2e-5 -3.326305,-0.0054 -3.456766,-0.08197 -0.13046,-0.07659 -0.359542,-0.224363 -1.59529,-0.975081 -1.235748,-0.750718 -3.478068,-2.104324 -4.607712,-2.785939 -1.129645,-0.681615 -1.146563,-0.691207 -1.146403,-0.704914 1.61e-4,-0.01371 0.0174,-0.03153 0.279659,-0.414756 0.262259,-0.383229 0.769514,-1.131838 1.029014,-1.521815 0.259499,-0.389977 0.271231,-0.421307 0.234719,-0.407787 -0.03651,0.01352 -0.121274,0.0719 -0.642039,0.455659 -0.520765,0.383754 -1.477497,1.092852 -1.957173,1.459548 -0.479675,0.366696 -0.482276,0.390976 -0.385479,0.552169 0.0968,0.161194 0.292983,0.4593 0.733894,1.154726 0.440911,0.695426 1.126515,1.788122 1.473201,2.347074 0.346686,0.558951 0.354432,0.584107 0.35669,0.64964 0.0023,0.06553 -9.75e-4,0.171428 -0.01203,0.224375 -0.01105,0.05295 -0.02993,0.05295 -1.027857,0.04998 -0.997926,-0.003 -2.974827,-0.0089 -3.970157,-0.01388 -0.99533,-0.005 -1.009021,-0.0091 -1.079787,-0.102934 -0.07077,-0.09387 -0.198572,-0.277538 -0.763444,-1.085143 -0.564873,-0.807604 -1.566768,-2.239088 -2.069925,-2.960724 -0.503158,-0.721636 -0.507558,-0.733396 -0.503375,-0.744035 0.0042,-0.01064 0.01697,-0.02017 0.925072,-0.66452 0.908105,-0.644349 2.711463,-1.923467 3.622336,-2.569753 0.910872,-0.646286 0.929212,-0.659708 0.93932,-0.676559 0.01011,-0.01685 0.01198,-0.03712 -0.259518,-0.04633 -0.271495,-0.0092 -0.816328,-0.0074 -1.823563,-0.0086 -1.007234,-0.0012 -2.476801,-0.0055 -3.213563,-3.32e-4 -0.736763,0.0052 -0.740698,0.01998 -0.635705,0.09772 0.104993,0.07774 0.318898,0.218461 0.426486,0.306711 0.107588,0.08825 0.108854,0.124008 -0.21079,1.524574 -0.319645,1.400566 -0.960174,4.165816 -1.284884,5.551089 -0.32471,1.385272 -0.333534,1.390481 -0.64693,1.39027 -0.313395,-2.1e-4 -0.931313,-0.0059 -1.825662,-0.0048 -0.894349,0.0011 -2.065071,0.0089 -2.650261,0.0074 -0.585189,-0.0015 -0.584823,-0.01241 -0.584639,-0.01785 1.83e-4,-0.0054 7.7e-5,-0.0055 -0.01148,-0.06194 z"
             id="path4"
             inkscape:path-effect="#path-effect5-5"
             inkscape:original-d="m 58.190353,61.332091 c -0.02311,-0.112836 -0.04622,-0.225673 -0.06933,-0.33851 0.07377,-0.240428 0.147531,-0.480846 0.221296,-0.721269 0.845652,-3.56709 1.691271,-7.134038 2.536906,-10.701057 0.02053,-0.02862 0.04106,-0.05725 0.06159,-0.08587 -0.22239,-0.133152 -0.444771,-0.266298 -0.667157,-0.399447 -3.072573,-1.844771 -6.145024,-3.689468 -9.217537,-5.534202 -0.03252,-0.03264 -0.06503,-0.06528 -0.09755,-0.09792 -0.0299,-0.04185 -0.0598,-0.0837 -0.0897,-0.12555 -0.01332,-0.05036 -0.02664,-0.100723 -0.03996,-0.151084 0.197141,-6.46e-4 0.394274,-0.0013 0.591411,-0.0019 0.516301,0.0035 1.032581,0.007 1.548872,0.01054 4.320003,-0.0056 8.639832,-0.01113 12.959749,-0.01669 0.02272,0.02007 0.04544,0.04013 0.06816,0.06019 1.430718,0.761341 2.861378,1.522651 4.292068,2.283977 0.939714,0.479018 1.879391,0.958017 2.819087,1.437025 0.0085,0.01267 0.01697,0.02535 0.02545,0.03802 -0.07125,0.06336 -0.1425,0.126707 -0.21375,0.19006 -0.188584,0.172585 -0.377161,0.345163 -0.565741,0.517745 -0.01602,0.02043 -0.03204,0.04086 -0.04805,0.06129 0.01544,0.0061 0.03089,0.01213 0.04633,0.0182 0.260441,-0.141344 0.520871,-0.282682 0.781306,-0.424023 0.638888,-0.312522 1.277751,-0.625032 1.916626,-0.937548 2.104891,-1.081426 4.209697,-2.162808 6.314545,-3.244212 0.02308,-4.02e-4 0.04617,-8.04e-4 0.06925,-0.0012 0.891046,0.0014 1.782055,0.0027 2.673083,0.0041 4.147283,4e-6 8.294401,7e-6 12.441602,1.1e-5 -0.0012,0.0057 -0.0025,0.0113 -0.0037,0.01695 -0.05326,0.06135 -0.106527,0.122704 -0.15979,0.184055 -0.167822,0.115704 -0.335637,0.231403 -0.503455,0.347105 -4.466929,2.593673 -8.933679,5.187242 -13.400518,7.780863 -0.008,0.01065 -0.01605,0.0213 -0.02408,0.03194 -0.0015,0.01688 -0.0029,0.03376 -0.0044,0.05064 0.266356,0.130028 0.532702,0.26005 0.799053,0.390075 6.208963,3.038767 12.417677,6.077413 18.626511,9.116119 0.0235,0.02597 0.047,0.05195 0.0705,0.07792 -0.008,0.01495 -0.0161,0.0299 -0.0242,0.04485 -0.06,0.05041 -0.12004,0.10081 -0.18006,0.151215 -0.2711,-0.007 -0.54219,-0.01406 -0.81329,-0.02109 -6.557223,0.0055 -13.114183,0.01094 -19.671273,0.01641 -0.03184,-0.0054 -0.06368,-0.01081 -0.09551,-0.01622 -0.22909,-0.147777 -0.458172,-0.295549 -0.687257,-0.443323 -2.242411,-1.353661 -4.484731,-2.707268 -6.727097,-4.060903 -0.01692,-0.0096 -0.03384,-0.01919 -0.05076,-0.02878 0.01724,-0.01782 0.03448,-0.03564 0.05172,-0.05346 0.507277,-0.748639 1.014533,-1.497248 1.521799,-2.245873 0.01173,-0.03133 0.02346,-0.06266 0.0352,-0.094 -0.08476,0.05838 -0.169522,0.116765 -0.254282,0.175148 -0.95677,0.709126 -1.913502,1.418224 -2.870253,2.127336 -0.0026,0.02428 -0.0052,0.04856 -0.0078,0.07283 0.196193,0.298117 0.392379,0.596223 0.588569,0.894334 0.685632,1.092741 1.371236,2.185437 2.056854,3.278156 0.0078,0.02517 0.0155,0.05034 0.02325,0.07551 -0.0032,0.105897 -0.0065,0.21179 -0.0097,0.317685 -0.01887,0 -0.03775,0 -0.05662,0 -1.976981,-0.0059 -3.953882,-0.01185 -5.930824,-0.01777 -0.01371,-0.0041 -0.02742,-0.0081 -0.04113,-0.01221 -0.127811,-0.183672 -0.255617,-0.367337 -0.383426,-0.551005 -1.001936,-1.431541 -2.003831,-2.863025 -3.005746,-4.294537 -0.0044,-0.01176 -0.0088,-0.02352 -0.0132,-0.03528 0.01278,-0.0095 0.02555,-0.01905 0.03833,-0.02858 1.80343,-1.279168 3.606788,-2.558286 5.410183,-3.837429 0.01835,-0.01343 0.03669,-0.02685 0.05504,-0.04028 0.0019,-0.02027 0.0038,-0.04054 0.0056,-0.0608 -0.544855,0.0018 -1.089688,0.0037 -1.634531,0.0055 -1.469626,-0.0043 -2.939193,-0.0086 -4.40879,-0.01293 -0.0039,0.01475 -0.0079,0.0295 -0.01179,0.04425 0.213913,0.140731 0.427818,0.281456 0.641727,0.422185 0.0013,0.03577 0.0025,0.07153 0.0038,0.1073 -0.640556,2.765361 -1.281086,5.530611 -1.921628,8.295917 -0.0089,0.0052 -0.0177,0.01045 -0.02655,0.01567 -0.617942,-0.0056 -1.23586,-0.01129 -1.85379,-0.01693 -1.170768,0.0078 -2.34149,0.01565 -3.512236,0.02348 3.52e-4,-0.01088 7.04e-4,-0.02176 0.0011,-0.03264 z" /></g></g></g></g></svg>
