<?xml version="1.0" encoding="UTF-8" standalone="no"?>
<!-- Created with Inkscape (http://www.inkscape.org/) -->

<svg
   width="120"
   height="120"
   viewBox="0 0 120 120"
   version="1.1"
   id="svg1"
   xml:space="preserve"
   inkscape:version="1.4.1 (93de688d07, 2025-03-30)"
   sodipodi:docname="cemu.svg"
   xmlns:inkscape="http://www.inkscape.org/namespaces/inkscape"
   xmlns:sodipodi="http://sodipodi.sourceforge.net/DTD/sodipodi-0.dtd"
   xmlns:xlink="http://www.w3.org/1999/xlink"
   xmlns="http://www.w3.org/2000/svg"
   xmlns:svg="http://www.w3.org/2000/svg"><sodipodi:namedview
     id="namedview1"
     pagecolor="#1f1f1f"
     bordercolor="#000000"
     borderopacity="0.25"
     inkscape:showpageshadow="2"
     inkscape:pageopacity="0.0"
     inkscape:pagecheckerboard="0"
     inkscape:deskcolor="#3c3c3c"
     inkscape:document-units="px"
     inkscape:zoom="5.6568543"
     inkscape:cx="37.741824"
     inkscape:cy="94.840697"
     inkscape:window-width="1660"
     inkscape:window-height="1287"
     inkscape:window-x="0"
     inkscape:window-y="0"
     inkscape:window-maximized="1"
     inkscape:current-layer="g1" /><defs
     id="defs1"><linearGradient
       id="linearGradient18"
       inkscape:collect="always"><stop
         style="stop-color:#458588;stop-opacity:1;"
         offset="0"
         id="stop18" /><stop
         style="stop-color:#90c1c4;stop-opacity:1;"
         offset="1"
         id="stop19" /></linearGradient><inkscape:path-effect
       effect="bspline"
       id="path-effect14"
       is_visible="true"
       lpeversion="1.3"
       weight="33.333333"
       steps="2"
       helper_size="0"
       apply_no_weight="true"
       apply_with_weight="true"
       only_selected="false"
       uniform="false" /><inkscape:path-effect
       effect="fillet_chamfer"
       id="path-effect5"
       is_visible="true"
       lpeversion="1"
       nodesatellites_param="F,0,0,1,0,37.022737,0,1 @ F,0,0,1,0,36.062445,0,1 @ F,0,0,1,0,35.528974,0,1 @ F,0,0,1,0,28.991378,0,1"
       radius="0"
       unit="px"
       method="auto"
       mode="F"
       chamfer_steps="1"
       flexible="false"
       use_knot_distance="true"
       apply_no_radius="true"
       apply_with_radius="true"
       only_selected="false"
       hide_knots="false" /><inkscape:path-effect
       effect="bspline"
       id="path-effect4"
       is_visible="true"
       lpeversion="1.3"
       weight="33.333333"
       steps="2"
       helper_size="0"
       apply_no_weight="true"
       apply_with_weight="true"
       only_selected="false"
       uniform="false" /><inkscape:path-effect
       effect="bspline"
       id="path-effect3"
       is_visible="true"
       lpeversion="1.3"
       weight="33.333333"
       steps="2"
       helper_size="0"
       apply_no_weight="true"
       apply_with_weight="true"
       only_selected="false"
       uniform="false" /><inkscape:path-effect
       effect="mirror_symmetry"
       start_point="59.977887,81.781355"
       end_point="59.977887,112.27285"
       center_point="59.977887,97.027103"
       id="path-effect9"
       is_visible="true"
       lpeversion="1.2"
       lpesatellites=""
       mode="free"
       discard_orig_path="false"
       fuse_paths="false"
       oposite_fuse="false"
       split_items="false"
       split_open="false"
       link_styles="false" /><inkscape:path-effect
       effect="mirror_symmetry"
       start_point="59.944658,10.409945"
       end_point="59.944658,50.039614"
       center_point="59.944658,30.22478"
       id="path-effect2"
       is_visible="true"
       lpeversion="1.2"
       lpesatellites=""
       mode="free"
       discard_orig_path="false"
       fuse_paths="false"
       oposite_fuse="false"
       split_items="false"
       split_open="false"
       link_styles="false" /><inkscape:path-effect
       effect="mirror_symmetry"
       start_point="59.948435,66.805114"
       end_point="59.948435,107.38004"
       center_point="59.948435,87.092577"
       id="path-effect8"
       is_visible="true"
       lpeversion="1.2"
       lpesatellites=""
       mode="free"
       discard_orig_path="false"
       fuse_paths="false"
       oposite_fuse="false"
       split_items="false"
       split_open="false"
       link_styles="false" /><inkscape:path-effect
       effect="mirror_symmetry"
       start_point="60.801511,9.4541705"
       end_point="60.801511,40.169132"
       center_point="60.801511,24.811651"
       id="path-effect7"
       is_visible="true"
       lpeversion="1.2"
       lpesatellites=""
       mode="free"
       discard_orig_path="false"
       fuse_paths="false"
       oposite_fuse="false"
       split_items="false"
       split_open="false"
       link_styles="false" /><inkscape:path-effect
       effect="fillet_chamfer"
       id="path-effect13"
       is_visible="true"
       lpeversion="1"
       nodesatellites_param="F,0,0,1,0,4.7467821,0,1 @ F,0,0,1,0,4.0515277,0,1 @ F,0,0,1,0,0,0,1 @ F,0,0,1,0,2.4219461,0,1 @ F,0,0,1,0,2.4960577,0,1 @ F,0,0,1,0,0,0,1 @ F,0,0,1,0,4.1062831,0,1"
       radius="0"
       unit="px"
       method="auto"
       mode="F"
       chamfer_steps="1"
       flexible="false"
       use_knot_distance="true"
       apply_no_radius="true"
       apply_with_radius="true"
       only_selected="false"
       hide_knots="false" /><inkscape:path-effect
       effect="fillet_chamfer"
       id="path-effect12"
       is_visible="true"
       lpeversion="1"
       nodesatellites_param="F,0,0,1,0,0,0,1 @ F,0,0,1,0,0,0,1 @ F,0,0,1,0,0,0,1 @ F,0,0,1,0,0,0,1 @ F,0,0,1,0,3.627665,0,1 @ F,0,0,1,0,0,0,1 @ F,0,0,1,0,0,0,1"
       radius="0"
       unit="px"
       method="auto"
       mode="F"
       chamfer_steps="1"
       flexible="false"
       use_knot_distance="true"
       apply_no_radius="true"
       apply_with_radius="true"
       only_selected="false"
       hide_knots="false" /><inkscape:path-effect
       effect="fillet_chamfer"
       id="path-effect11"
       is_visible="true"
       lpeversion="1"
       nodesatellites_param="F,0,0,1,0,2.9729248,0,1 @ F,0,0,1,0,3.8975858,0,1 @ F,0,0,1,0,0,0,1 @ F,0,1,1,0,3.784373,0,1 @ F,0,0,1,0,1.4792147,0,1 @ F,0,0,1,0,0,0,1 @ F,0,0,1,0,3.784373,0,1"
       radius="0"
       unit="px"
       method="auto"
       mode="F"
       chamfer_steps="1"
       flexible="false"
       use_knot_distance="true"
       apply_no_radius="true"
       apply_with_radius="true"
       only_selected="false"
       hide_knots="false" /><linearGradient
       id="linearGradient6"><stop
         style="stop-color:#c88500;stop-opacity:1;"
         offset="0.07163448"
         id="stop8" /><stop
         style="stop-color:#fff300;stop-opacity:1;"
         offset="1"
         id="stop9" /></linearGradient><linearGradient
       id="linearGradient6-1"><stop
         style="stop-color:#c88500;stop-opacity:1;"
         offset="0"
         id="stop6" /><stop
         style="stop-color:#fff300;stop-opacity:1;"
         offset="1"
         id="stop7" /></linearGradient><inkscape:path-effect
       effect="fillet_chamfer"
       id="path-effect1"
       is_visible="true"
       lpeversion="1"
       nodesatellites_param="F,0,0,1,0,24.536157,0,1 @ F,0,0,1,0,24.004899,0,1 @ F,0,0,1,0,23.651152,0,1 @ F,0,0,1,0,24.380791,0,1"
       radius="0"
       unit="px"
       method="auto"
       mode="F"
       chamfer_steps="1"
       flexible="false"
       use_knot_distance="true"
       apply_no_radius="true"
       apply_with_radius="true"
       only_selected="false"
       hide_knots="false" /><linearGradient
       id="a"
       x1="7.937"
       x2="7.937"
       y1="15.081"
       y2="1.852"
       gradientTransform="scale(3.7796)"
       gradientUnits="userSpaceOnUse"><stop
         offset="0"
         stop-color="#9b6f27"
         id="stop1" /><stop
         offset="1"
         stop-color="#d0ab6a"
         id="stop2" /></linearGradient><filter
       id="b"
       width="1.216"
       height="1.216"
       x="-0.108"
       y="-0.108"
       color-interpolation-filters="sRGB"><feGaussianBlur
         stdDeviation="1.35"
         id="feGaussianBlur2" /></filter><linearGradient
       id="linearGradient31"
       x1=".5002"
       x2=".5002"
       y2="1"
       gradientTransform="matrix(244,0,0,228,5.986,12)"
       gradientUnits="userSpaceOnUse"><stop
         stop-color="#ebdbb2"
         stop-opacity=".2"
         offset="0"
         id="stop1-5" /><stop
         stop-color="#ebdbb2"
         stop-opacity=".05"
         offset=".1"
         id="stop2-6" /><stop
         stop-opacity="0"
         offset=".7036"
         id="stop3" /><stop
         stop-opacity=".1"
         offset=".8975"
         id="stop4" /><stop
         stop-opacity=".2"
         offset="1"
         id="stop5" /></linearGradient><inkscape:path-effect
       effect="bspline"
       id="path-effect6"
       is_visible="true"
       lpeversion="1.3"
       weight="33.333333"
       steps="2"
       helper_size="0"
       apply_no_weight="true"
       apply_with_weight="true"
       only_selected="false"
       uniform="false" /><inkscape:path-effect
       effect="fillet_chamfer"
       id="path-effect5-6"
       is_visible="true"
       lpeversion="1"
       nodesatellites_param="F,0,0,1,0,18.322728,0,1 @ F,0,0,1,0,18.172589,0,1 @ F,0,0,1,0,18.536634,0,1 @ F,0,0,1,0,18.254562,0,1"
       radius="0"
       unit="px"
       method="auto"
       mode="F"
       chamfer_steps="1"
       flexible="false"
       use_knot_distance="true"
       apply_no_radius="true"
       apply_with_radius="true"
       only_selected="false"
       hide_knots="false" /><inkscape:path-effect
       effect="bspline"
       id="path-effect4-2"
       is_visible="true"
       lpeversion="1.3"
       weight="33.333333"
       steps="2"
       helper_size="0"
       apply_no_weight="true"
       apply_with_weight="true"
       only_selected="false"
       uniform="false" /><inkscape:path-effect
       effect="bspline"
       id="path-effect3-5"
       is_visible="true"
       lpeversion="1.3"
       weight="33.333333"
       steps="2"
       helper_size="0"
       apply_no_weight="true"
       apply_with_weight="true"
       only_selected="false"
       uniform="false" /><inkscape:path-effect
       effect="mirror_symmetry"
       start_point="59.977887,81.781355"
       end_point="59.977887,112.27285"
       center_point="59.977887,97.027103"
       id="path-effect9-8"
       is_visible="true"
       lpeversion="1.2"
       lpesatellites=""
       mode="free"
       discard_orig_path="false"
       fuse_paths="false"
       oposite_fuse="false"
       split_items="false"
       split_open="false"
       link_styles="false" /><inkscape:path-effect
       effect="mirror_symmetry"
       start_point="59.944658,10.409945"
       end_point="59.944658,50.039614"
       center_point="59.944658,30.22478"
       id="path-effect2-6"
       is_visible="true"
       lpeversion="1.2"
       lpesatellites=""
       mode="free"
       discard_orig_path="false"
       fuse_paths="false"
       oposite_fuse="false"
       split_items="false"
       split_open="false"
       link_styles="false" /><inkscape:path-effect
       effect="mirror_symmetry"
       start_point="59.948435,66.805114"
       end_point="59.948435,107.38004"
       center_point="59.948435,87.092577"
       id="path-effect8-2"
       is_visible="true"
       lpeversion="1.2"
       lpesatellites=""
       mode="free"
       discard_orig_path="false"
       fuse_paths="false"
       oposite_fuse="false"
       split_items="false"
       split_open="false"
       link_styles="false" /><inkscape:path-effect
       effect="mirror_symmetry"
       start_point="60.801511,9.4541705"
       end_point="60.801511,40.169132"
       center_point="60.801511,24.811651"
       id="path-effect7-8"
       is_visible="true"
       lpeversion="1.2"
       lpesatellites=""
       mode="free"
       discard_orig_path="false"
       fuse_paths="false"
       oposite_fuse="false"
       split_items="false"
       split_open="false"
       link_styles="false" /><inkscape:path-effect
       effect="fillet_chamfer"
       id="path-effect13-4"
       is_visible="true"
       lpeversion="1"
       nodesatellites_param="F,0,0,1,0,4.7467821,0,1 @ F,0,0,1,0,4.0515277,0,1 @ F,0,0,1,0,0,0,1 @ F,0,0,1,0,2.4219461,0,1 @ F,0,0,1,0,2.4960577,0,1 @ F,0,0,1,0,0,0,1 @ F,0,0,1,0,4.1062831,0,1"
       radius="0"
       unit="px"
       method="auto"
       mode="F"
       chamfer_steps="1"
       flexible="false"
       use_knot_distance="true"
       apply_no_radius="true"
       apply_with_radius="true"
       only_selected="false"
       hide_knots="false" /><inkscape:path-effect
       effect="fillet_chamfer"
       id="path-effect12-7"
       is_visible="true"
       lpeversion="1"
       nodesatellites_param="F,0,0,1,0,0,0,1 @ F,0,0,1,0,0,0,1 @ F,0,0,1,0,0,0,1 @ F,0,0,1,0,0,0,1 @ F,0,0,1,0,3.627665,0,1 @ F,0,0,1,0,0,0,1 @ F,0,0,1,0,0,0,1"
       radius="0"
       unit="px"
       method="auto"
       mode="F"
       chamfer_steps="1"
       flexible="false"
       use_knot_distance="true"
       apply_no_radius="true"
       apply_with_radius="true"
       only_selected="false"
       hide_knots="false" /><inkscape:path-effect
       effect="fillet_chamfer"
       id="path-effect11-2"
       is_visible="true"
       lpeversion="1"
       nodesatellites_param="F,0,0,1,0,2.9729248,0,1 @ F,0,0,1,0,3.8975858,0,1 @ F,0,0,1,0,0,0,1 @ F,0,1,1,0,3.784373,0,1 @ F,0,0,1,0,1.4792147,0,1 @ F,0,0,1,0,0,0,1 @ F,0,0,1,0,3.784373,0,1"
       radius="0"
       unit="px"
       method="auto"
       mode="F"
       chamfer_steps="1"
       flexible="false"
       use_knot_distance="true"
       apply_no_radius="true"
       apply_with_radius="true"
       only_selected="false"
       hide_knots="false" /><inkscape:path-effect
       effect="fillet_chamfer"
       id="path-effect1-9"
       is_visible="true"
       lpeversion="1"
       nodesatellites_param="F,0,0,1,0,24.536157,0,1 @ F,0,0,1,0,24.004899,0,1 @ F,0,0,1,0,23.651152,0,1 @ F,0,0,1,0,24.380791,0,1"
       radius="0"
       unit="px"
       method="auto"
       mode="F"
       chamfer_steps="1"
       flexible="false"
       use_knot_distance="true"
       apply_no_radius="true"
       apply_with_radius="true"
       only_selected="false"
       hide_knots="false" /><filter
       id="b-8"
       width="1.216"
       height="1.216"
       x="-0.108"
       y="-0.108"
       color-interpolation-filters="sRGB"><feGaussianBlur
         stdDeviation="1.35"
         id="feGaussianBlur2-1" /></filter><linearGradient
       inkscape:collect="always"
       xlink:href="#linearGradient18"
       id="linearGradient19"
       x1="16.911957"
       y1="91.014275"
       x2="107.15031"
       y2="26.799011"
       gradientUnits="userSpaceOnUse" /></defs><g
     inkscape:groupmode="layer"
     id="layer3"
     inkscape:label="base"><path
       d="m 76.476937,9.2332248 c 32.063223,0 37.852423,6.6798392 37.852423,38.7430672 v 24.938066 c 0,31.172592 -5.7892,37.852422 -37.852423,37.852422 H 43.523063 c -32.063227,0 -37.8524214,-6.67983 -37.8524214,-37.852422 V 47.976292 c 0,-32.063228 5.7891944,-38.7430672 37.8524214,-38.7430672 z"
       fill="#ebdbb2"
       style="display:inline;opacity:1;isolation:isolate;stroke-width:0.445323"
       id="path5" /><g
       id="g1"
       transform="matrix(0.94423667,0,0,0.94423667,3.1229933,3.5099928)"><g
         id="layer2"
         inkscape:label="Layer 2"
         style="opacity:1"><path
           id="rect1"
           style="opacity:1;fill:#eeeeee;fill-opacity:0;stroke-width:0.965576"
           transform="translate(0.40694183)"
           d="M 32.057748,7.4503875 A 24.536157,24.536157 0 0 0 7.5215595,31.986576 V 87.82078 a 24.380791,24.380791 0 0 0 24.3810535,24.38105 h 56.58299 A 23.651152,23.651152 0 0 0 112.13649,88.55095 V 31.454979 A 24.004899,24.004899 0 0 0 88.131895,7.4503875 Z M 46.177122,25.400568 c 0.301186,-0.01363 0.56434,0.27574 0.488159,0.767402 h 0.04964 0.266832 0.161341 0.142724 0.155135 0.117903 0.128245 0.111698 0.115834 0.132382 0.107561 c 0.393155,0 0.393155,0.397147 0,0.397147 H 48.047019 47.914637 47.798803 47.687105 47.55886 47.440957 47.285822 47.143098 46.981757 46.714925 46.597022 c -0.0097,0.149144 -0.06311,0.32124 -0.17582,0.506775 -0.02656,0.04372 -0.05417,0.08732 -0.0786,0.132382 -0.05316,0.0957 -0.104334,0.190971 -0.169615,0.279243 -0.08462,0.06677 -0.147229,0.212037 -0.254421,0.200642 -0.264506,-0.0281 -0.533478,-0.134128 -0.736376,-0.306134 -0.135566,-0.114923 -0.01458,-0.421286 0.04344,-0.558487 0.03734,-0.07669 0.0697,-0.156322 0.101355,-0.235805 -0.08557,0.003 -0.170776,0.0062 -0.25649,0.0083 -0.140333,0.0033 -0.281604,0.0032 -0.421968,0.0041 -0.129849,0.0045 -0.259393,-0.0067 -0.388872,-0.01448 -0.138669,-0.0062 -0.277112,-0.01401 -0.415762,-0.02068 -0.111583,-0.0052 -0.223406,-0.0089 -0.335093,-0.0062 -0.0943,0.0026 -0.18713,0.0049 -0.281311,0.01034 -0.117155,0.0082 -0.23451,0.0066 -0.35164,0.01448 -0.110538,0.0089 -0.222624,0.01847 -0.333024,0.02896 -0.08923,0.0083 -0.177512,0.01948 -0.266833,0.02689 -0.07016,0.0057 -0.14063,0.0083 -0.210983,0.01034 -0.04525,0.0013 -0.08919,0.0017 -0.134451,0.0021 -0.03562,2.33e-4 -0.07193,-4.6e-5 -0.10756,0 -0.02932,0.0054 -0.06256,0.0078 -0.09308,0.01034 -0.02788,0.0016 -0.05508,0.0025 -0.08274,0.0062 -0.141844,0.01876 -0.240074,-0.02142 -0.287518,-0.08274 -0.01405,7.87e-4 -0.02688,0.0023 -0.04137,0.0041 -0.04172,0.0054 -0.08416,0.0085 -0.126177,0.01034 -0.03774,0.0015 -0.07599,0.0017 -0.113766,0.0021 -0.04187,2.95e-4 -0.0843,-5.2e-5 -0.126176,0 -0.03019,0.0012 -0.06134,-0.0023 -0.09101,0.0021 -0.01627,0.0023 -0.03124,0.0043 -0.04757,0.0062 -0.207348,0.024 -0.317248,-0.07593 -0.316476,-0.182025 -0.184931,0.01028 -0.370066,0.02179 -0.554349,0.0393 -0.303849,0.02862 -0.607424,0.05535 -0.912196,0.0724 -0.271208,0.0137 -0.541511,0.02595 -0.812908,0.03516 -0.161414,0.0064 -0.324489,0.01341 -0.486091,0.01034 h -0.13445 c -4.7e-5,0.0015 7.9e-5,0.0027 0,0.0041 -0.0016,0.03105 -0.0069,0.06778 -0.0083,0.08688 -0.01738,0.243825 -0.166722,0.336493 -0.277175,0.277175 -0.0029,0.09394 -0.09929,0.09233 -0.09929,-0.0041 v -0.02482 -0.02482 -0.02482 -0.02482 -0.02482 -0.0041 c -0.01316,-0.04025 -0.02068,-0.08825 -0.02068,-0.144793 0,-0.0045 -2.24e-4,-0.0099 0,-0.01448 0.0012,-0.02462 0.0052,-0.04802 0.0083,-0.0724 v -0.0021 -0.0021 -0.0021 -0.0021 -0.0021 -0.0021 -0.0021 h -0.0021 v -0.0021 -0.0021 c -9.13e-4,-0.0024 -0.0021,-0.0094 -0.0062,-0.02896 -0.009,-0.05312 -0.0051,-0.104801 0.0062,-0.157203 7.54e-4,-0.0031 0.0013,-0.0052 0.0021,-0.0083 -1.18e-4,-0.0024 -5.6e-5,-0.0057 0,-0.0083 -2.4e-5,-0.0081 1.16e-4,-0.01677 0,-0.02482 -1.26e-4,-0.0076 4.84e-4,-0.01513 0,-0.02275 -6.35e-4,-0.009 -0.0032,-0.01789 -0.0041,-0.02689 -5.92e-4,-0.01 -7.4e-5,-0.02107 0,-0.03103 v -0.02689 -0.02482 c 0,-0.04914 0.02482,-0.07447 0.04964,-0.07447 0.0014,0 0.0049,8.2e-5 0.0062,0 h 0.0021 c -7.55e-4,-0.01065 -0.0012,-0.02034 -0.0021,-0.03103 -0.0026,-0.02717 -0.0058,-0.05553 -0.0083,-0.08274 -0.0017,-0.0225 -0.0012,-0.04364 0,-0.06619 5.29e-4,-0.01432 -3.06e-4,-0.02926 0.0021,-0.04344 0.005,-0.0329 0.01892,-0.05189 0.03516,-0.05999 -0.0058,-0.0083 -0.01142,-0.01633 -0.01655,-0.02482 -0.127509,-0.210048 -0.03874,-0.370926 0.09308,-0.37853 0.07909,-0.0046 0.173534,0.04663 0.248217,0.173752 0.0077,0.01318 0.01523,0.02674 0.02275,0.0393 0.02687,0.04702 0.04817,0.09638 0.05378,0.150998 0.0054,0.04115 0.0072,0.08059 0.0062,0.12204 -1.34e-4,0.03408 -0.0014,0.06935 -0.0021,0.103423 -9.53e-4,0.03798 -0.002,0.07598 -0.0062,0.113766 -0.0015,0.01173 -0.0042,0.02347 -0.0062,0.03516 h 0.05792 c 0.15637,0.0032 0.313358,-0.0042 0.469543,-0.01034 0.269952,-0.0092 0.539009,-0.01947 0.808772,-0.0331 0.299032,-0.0168 0.597517,-0.04432 0.895647,-0.0724 0.277918,-0.02647 0.556929,-0.04151 0.835662,-0.05585 0.202809,-0.01054 0.407186,-0.01581 0.610198,-0.02069 0.103038,-0.0011 0.205167,-0.007 0.308202,-0.0041 0.09685,0.0057 0.1623,0.03271 0.237874,0.09101 0.05063,0.04517 0.07635,0.103435 0.09308,0.167546 0.002,0.0012 0.0043,0.0028 0.0062,0.0041 0.01956,-4.06e-4 0.03863,-0.0014 0.05792,-0.0021 0.06318,-0.0018 0.125217,-0.0053 0.188231,-0.01034 0.0878,-0.0073 0.174974,-0.01688 0.262696,-0.02482 0.114376,-0.01083 0.228841,-0.01985 0.343366,-0.02896 0.118117,-0.0073 0.237642,-0.009 0.355776,-0.01655 0.0987,-0.0056 0.196971,-0.0076 0.295792,-0.01034 0.121093,-0.0028 0.243075,4.36e-4 0.36405,0.0062 0.14022,0.0067 0.279662,0.0164 0.4199,0.02275 0.120693,0.0072 0.240941,0.01686 0.361982,0.01241 0.138068,-9.53e-4 0.275657,-0.001 0.413694,-0.0041 0.143224,-0.0034 0.286635,-0.0085 0.430241,-0.01448 0.01998,-0.04885 0.03911,-0.09669 0.05378,-0.142724 0.137133,-0.430437 0.397105,-0.626415 0.632951,-0.637089 z m 35.838308,0.73017 h 0.0021 0.0021 0.0021 c 0.03978,-0.0033 0.07834,0.0386 0.06619,0.115834 -0.0015,0.0098 -0.0014,0.01911 -0.0021,0.02896 -3.17e-4,0.01304 -0.0045,0.02641 -0.0062,0.0393 -0.0011,0.0088 -0.0018,0.01799 -0.0021,0.02689 -3.02e-4,0.01095 6.5e-5,0.02007 0,0.03103 -5.8e-5,0.01157 1.2e-5,0.0236 0,0.03516 -4e-6,0.0058 2e-6,0.01279 0,0.01862 -5e-5,0.135403 -0.133792,0.138739 -0.140656,0.01034 h -0.01655 -0.03723 -0.03516 -0.03516 c -0.0148,6.36e-4 -0.02877,-0.0022 -0.04344,-0.0041 -0.01004,-0.0014 -0.02086,-0.0016 -0.03103,-0.0021 -0.01205,-4.44e-4 -0.0231,1.09e-4 -0.03516,0 -0.01475,5.3e-4 -0.03091,-0.0023 -0.04551,-0.0041 -0.0098,-0.0012 -0.01911,-0.0017 -0.02896,-0.0021 -0.01249,-3.89e-4 -0.02475,7.4e-5 -0.03723,0 -0.01792,-8.3e-5 -0.03586,1.1e-5 -0.05378,0 -0.0221,-1.4e-5 -0.04409,10e-7 -0.06619,0 h -0.05999 -0.04757 c -0.02091,0.0012 -0.04143,-0.0011 -0.06206,-0.0041 -0.02287,-0.0031 -0.04521,-0.0053 -0.06826,-0.0062 -0.02884,-10e-4 -0.05802,2.11e-4 -0.08688,0 -0.03519,-2.13e-4 -0.0703,-0.002 -0.105492,-0.0021 -0.04534,-4.24e-4 -0.09126,0.0016 -0.136519,0.0041 -0.0554,0.0035 -0.109993,0.0047 -0.165477,0.0062 -0.01443,3.49e-4 -0.02909,-2.98e-4 -0.04344,0 -0.02779,0.04702 -0.09177,0.08481 -0.192368,0.08481 h -0.07653 -0.08067 -0.07446 -0.08481 -0.09515 c -0.03265,-0.0013 -0.06677,-6.1e-4 -0.09929,0.0021 -0.0453,0.0024 -0.08922,0.0068 -0.13445,0.01034 -0.07133,0.0043 -0.143741,0.01099 -0.215121,0.01448 -0.101783,0.0038 -0.202608,0.01189 -0.304065,0.02068 -0.09889,0.01202 -0.19695,0.02477 -0.295792,0.03723 -0.09309,0.01182 -0.188083,0.01847 -0.281311,0.02896 -0.08042,0.0082 -0.159455,0.01523 -0.239943,0.02275 -0.0577,0.005 -0.116054,0.01353 -0.173751,0.01862 -0.04597,0.0026 -0.09067,0.0083 -0.136519,0.01241 -0.04349,0.0037 -0.08875,0.0049 -0.132382,0.0062 -0.02761,0.003 -0.05508,0.0058 -0.08274,0.0083 -0.03327,0.0028 -0.06594,0.0036 -0.09929,0.0041 -0.04545,4.94e-4 -0.09108,0.0017 -0.136519,0 -0.05049,-0.0026 -0.100681,-0.0054 -0.150998,-0.01034 -0.04492,-0.0033 -0.0897,-0.01178 -0.134451,-0.01655 -0.04917,-0.0045 -0.0979,-0.01019 -0.146861,-0.01655 -0.05407,-0.0064 -0.107488,-0.01263 -0.161341,-0.02069 -0.04556,-0.0055 -0.09097,-0.01518 -0.136519,-0.02068 -0.05228,-0.0058 -0.105362,-0.01593 -0.157203,-0.02482 -0.05822,-0.0087 -0.115461,-0.01656 -0.173752,-0.02482 -0.0522,-0.0087 -0.10495,-0.01645 -0.157203,-0.02482 -0.04076,-0.0054 -0.08124,-0.01136 -0.12204,-0.01655 -0.03648,-0.0043 -0.07294,-0.0067 -0.109629,-0.0083 -0.04816,-0.0046 -0.07609,-0.0077 -0.09101,-0.01655 l -0.0021,-0.0021 -0.0021,-0.0021 -0.0021,-0.0021 h -0.0021 l -0.0021,-0.0021 v -0.0021 c -0.0044,-0.01333 -0.0026,-0.03616 0.0021,-0.06826 -0.0033,1.3e-4 -0.007,-9.2e-5 -0.01034,0 -0.02269,7.42e-4 -0.04562,0.0025 -0.06826,0.0041 -0.03238,0.0019 -0.0648,0.0014 -0.09722,0.0021 -0.04048,0.0011 -0.08163,0.0036 -0.122039,0.0062 -0.04826,0.0031 -0.09653,0.0052 -0.144793,0.0083 -0.0632,0.0037 -0.124952,0.0063 -0.188231,0.0083 -0.07363,1.6e-5 -0.147689,-7.7e-5 -0.221326,0 -0.07341,9.2e-5 -0.147923,-4.56e-4 -0.221326,0 -0.06909,5.29e-4 -0.137786,-7.2e-5 -0.206847,0.0021 -0.0613,0.0019 -0.122817,0.0057 -0.184094,0.0083 h -0.134451 -0.101355 -0.08274 -0.05171 c -0.01049,0 -0.02005,-4.6e-4 -0.02896,-0.0021 -0.0093,0.0022 -0.01978,0.0035 -0.03103,0.0041 -0.0079,4.23e-4 -0.01492,0.0012 -0.02275,0.0021 -0.0178,0.0019 -0.03585,0.0022 -0.05378,0.0021 -0.01611,5.29e-4 -0.03153,0.0025 -0.04758,0.0041 -0.01768,0.0017 -0.036,0.0023 -0.05378,0.0021 -0.01417,3.18e-4 -0.02723,7.49e-4 -0.04137,0.0021 -0.01716,0.0016 -0.03446,0.004 -0.05171,0.0041 -0.01536,4.24e-4 -0.03229,4.31e-4 -0.04757,0.0021 -0.01936,0.0019 -0.03845,0.0038 -0.05792,0.0041 -0.02168,0.0013 -0.04255,0.0037 -0.06412,0.0062 -0.02209,0.0023 -0.04427,0.0045 -0.06619,0.0083 -0.02712,0.0037 -0.0554,0.005 -0.08274,0.0062 -0.02591,0.0015 -0.05058,0.0027 -0.07653,0.0021 -0.02289,-10e-7 -0.04538,6e-6 -0.06826,0 -0.02304,-7e-6 -0.04727,4e-5 -0.07033,0 -0.01941,-4.6e-5 -0.0385,2.53e-4 -0.05792,0 -0.01833,-2.12e-4 -0.03754,-8.4e-4 -0.05585,-0.0021 -0.01747,-9.54e-4 -0.03426,-0.0028 -0.05171,-0.0041 -0.01924,-1.08e-4 -0.03867,5.23e-4 -0.05792,0 -0.02122,-6.36e-4 -0.04094,-0.0016 -0.06206,-0.0041 -0.02034,-0.0025 -0.04184,-0.007 -0.06205,-0.01034 -0.02579,-0.0014 -0.05079,-0.0041 -0.07653,-0.0062 -0.0056,-2.49e-4 -0.01086,2.92e-4 -0.01655,0 -0.0102,0.0011 -0.02091,0.0012 -0.03103,0.0021 -0.02988,0.0022 -0.059,0.0031 -0.08894,0.0041 -0.01201,4.24e-4 -0.01634,-5.3e-5 -0.01862,0 -0.0014,2.71e-4 -0.0068,0.0013 -0.01034,0.0021 -0.03677,0.0066 -0.07278,0.01247 -0.109628,0.01862 -0.05168,0.0076 -0.103104,0.01396 -0.155136,0.01862 -0.05765,0.0068 -0.115842,0.01273 -0.173751,0.01655 -0.04642,0.0013 -0.09234,0.0044 -0.138588,0.0083 -0.04444,0.0037 -0.08988,0.0072 -0.13445,0.0083 -0.03545,8.17e-4 -0.07003,-2.29e-4 -0.105492,0 -0.02644,1.52e-4 -0.05424,-3.3e-5 -0.08067,0 -0.02396,2.5e-5 -0.04637,-4e-6 -0.07033,0 -0.02349,4e-6 -0.04684,0 -0.07033,0 -0.02993,0.0013 -0.05926,-0.0032 -0.08895,-0.0062 -0.02798,-0.0026 -0.05672,-0.0034 -0.08481,-0.0041 -0.03075,-7.41e-4 -0.0624,1.56e-4 -0.09308,-0.0021 -0.02137,-0.0028 -0.04262,-0.0066 -0.06412,-0.0083 -0.02607,-6.35e-4 -0.05077,-0.0024 -0.07653,-0.0062 -0.01864,-0.0029 -0.03703,-0.0053 -0.05585,-0.0062 -0.02146,-9.05e-4 -0.04472,-0.0019 -0.06619,-0.0021 -0.0288,4.23e-4 -0.05622,0.0017 -0.08481,-0.0021 -0.01745,-0.0031 -0.03611,-0.0051 -0.05378,-0.0062 -0.02032,-0.0011 -0.03964,-0.0018 -0.05999,-0.0021 -0.02277,-2.51e-4 -0.04549,5e-5 -0.06826,0 -0.0233,-4.3e-5 -0.04703,10e-6 -0.07033,0 h -0.03516 c -0.278003,-3.5e-5 -0.278003,-0.281346 0,-0.281311 h 0.03516 c 0.02347,8e-6 0.04686,-4.4e-5 0.07033,0 0.02379,5.3e-5 0.04861,-2.67e-4 0.0724,0 0.02517,3.16e-4 0.04933,5.85e-4 0.07447,0.0021 0.02475,0.0017 0.04998,0.0041 0.07447,0.0083 0.0083,0.0015 0.03344,0.0021 0.04964,0.0021 0.02529,3.18e-4 0.04919,9.04e-4 0.07447,0.0021 0.02301,0.0011 0.04711,0.0016 0.07033,0.0041 0.03449,-0.003 0.06862,-0.005 0.103424,-0.0062 0.04052,-0.0012 0.0815,2.45e-4 0.122039,0 0.04258,-2.15e-4 0.08566,-0.002 0.128246,-0.0021 0.04434,-6.36e-4 0.08807,3.2e-4 0.132382,0.0021 0.0423,0.0015 0.08386,0.0036 0.126176,0.0041 0.04209,6.65e-4 0.0841,-0.0012 0.126177,0 0.03845,0.0018 0.07739,0.0041 0.115834,0.0062 0.0297,0.002 0.05931,0.0033 0.08894,0.0062 0.0024,1.74e-4 0.0038,-1.78e-4 0.0062,0 0.0038,-1.59e-4 0.0086,1.18e-4 0.01241,0 0.05576,-0.0036 0.112041,-0.0081 0.167546,-0.01448 0.04488,-0.0039 0.08985,-0.01019 0.13445,-0.01655 0.0406,-0.0068 0.07939,-0.0138 0.119971,-0.02069 0.04318,-0.0047 0.08701,-0.005 0.130314,-0.0083 0.04134,-0.0034 0.08261,-0.007 0.124108,-0.0083 0.04489,-0.0029 0.0896,-0.0068 0.134451,-0.01034 0.04566,-0.002 0.0911,-0.0052 0.136519,-0.01034 0.04056,-0.0038 0.0816,-0.0073 0.122039,-0.01241 0.04454,-0.004 0.08985,-0.0049 0.134451,-0.0083 0.03939,-0.0016 0.07848,-0.0021 0.117903,-0.0021 0.02746,2e-6 0.05528,-10e-6 0.08274,0 0.03359,1.5e-5 0.06776,-5.7e-5 0.101355,0 0.03971,7.8e-5 0.07819,0.0016 0.117902,0.0021 0.03558,5.3e-4 0.07203,5.6e-5 0.107561,0.0021 0.04412,0.0025 0.08838,0.0061 0.132382,0.01034 0.04039,0.0035 0.07977,0.0046 0.119971,0.01034 0.123879,0.01776 0.184512,0.08225 0.188231,0.144793 h 0.109629 c 0.05976,-0.0029 0.120162,-0.0043 0.179957,-0.0062 0.07023,-0.002 0.140726,-0.0036 0.210984,-0.0041 0.07369,-4.58e-4 0.147637,9.2e-5 0.221326,0 0.07368,-7.8e-5 0.147648,1.6e-5 0.221326,0 0.06055,-0.0021 0.119474,-0.0047 0.179957,-0.0083 0.0481,-0.0031 0.09668,-0.0053 0.144793,-0.0083 0.04207,-0.0029 0.08403,-0.0051 0.126176,-0.0062 0.03079,-7.42e-4 0.06234,-3.8e-5 0.09308,-0.0021 0.02397,-0.0018 0.04838,-0.0034 0.0724,-0.0041 0.01019,-3.12e-4 0.02086,-0.0014 0.03103,-0.0021 0.001,-0.01505 0.0014,-0.0305 0.0021,-0.04758 0.01231,-0.002 0.02274,-0.005 0.03516,-0.0062 0.01639,-0.0016 0.04704,-5.56e-4 0.06412,0 0.03853,0.0013 0.0773,0.0032 0.115834,0.0041 0.112893,0.0025 0.226443,0.01115 0.339229,0.01655 0.117059,0.0053 0.232414,0.0068 0.349572,0.0083 0.112854,0.0013 0.226368,0.0018 0.339229,0.0021 0.105102,2.16e-4 0.211375,-5e-5 0.316476,0 0.08137,3.3e-5 0.162712,-8e-6 0.244079,0 0.078,5e-6 0.155738,-10e-7 0.233737,0 h 0.277175 c 0.08252,1.06e-4 0.165886,0.002 0.248217,-0.0041 0.06298,-0.0048 0.125407,-0.01422 0.18823,-0.02069 0.04327,-0.0042 0.08687,-0.0066 0.130314,-0.0083 0.02888,-10e-4 0.05798,-0.0018 0.08688,-0.0021 0.02663,-2.1e-4 0.05403,3.4e-5 0.08067,0 0.03424,-3.3e-5 0.0671,5e-6 0.101355,0 0.03935,-5e-6 0.07856,10e-7 0.117903,0 h 0.128245 0.12204 0.0331 c 0.04641,0 0.08699,0.0076 0.117903,0.02068 0.02412,-0.0019 0.04823,-0.0028 0.0724,-0.0041 0.03993,-0.0032 0.07989,-0.0053 0.119972,-0.0041 h 0.09515 0.08481 0.07446 0.08067 0.07653 c 0.08058,0 0.137816,0.02435 0.171683,0.05792 0.01994,-3.9e-4 0.03994,-0.0016 0.05999,-0.0021 0.05412,-0.0015 0.107307,-0.0028 0.16134,-0.0062 0.04792,-0.0027 0.09681,-0.0047 0.144793,-0.0041 0.03549,3.5e-5 0.07,0.0019 0.105492,0.0021 0.03045,2.12e-4 0.06264,-0.0011 0.09308,0 0.02809,0.0012 0.05489,0.0044 0.08274,0.0083 6.57e-4,1.06e-4 0.0165,0.0019 0.01862,0.0021 0.0079,4.91e-4 0.01481,-3.9e-4 0.02275,0 h 0.04757 c 0.02017,0 0.03983,-2e-6 0.05999,0 0.02212,2e-6 0.04407,-1.2e-5 0.06619,0 0.01817,1.2e-5 0.03561,-8.4e-5 0.05378,0 0.01397,8.3e-5 0.02947,0.0016 0.04344,0.0021 0.01376,5.3e-4 0.02771,2.81e-4 0.04137,0.0021 0.0095,0.0012 0.01725,0.0027 0.02689,0.0021 0.01363,1.25e-4 0.02775,-5.22e-4 0.04137,0 0.01416,6.36e-4 0.02938,0.0022 0.04344,0.0041 0.0088,0.0011 0.0155,0.0027 0.02482,0.0021 h 0.03516 0.03516 0.03723 0.02069 c 0.0014,-0.0098 0.0036,-0.02118 0.0041,-0.03103 9.54e-4,-0.01443 0.0018,-0.02707 0.0041,-0.04137 0.0092,-0.05626 0.03718,-0.08741 0.06619,-0.09308 z m -5.713114,0.09308 v 0.0021 h 0.0021 v -0.0021 z m -30.061071,1.075604 v 0.0021 c -0.0016,0.004 -0.0042,0.0084 -0.0062,0.01241 -4.31e-4,0.001 -0.0017,0.0052 -0.0021,0.0062 l -0.0021,0.0021 v 0.0021 0.0021 0.0021 h 0.0021 l 0.0021,-0.0021 c 0.0029,-0.0055 0.0058,-0.0174 0.0083,-0.02689 z" /><path
           id="rect2"
           style="fill:url(#linearGradient19);fill-opacity:1;stroke-width:3.09676"
           d="M 24.058429,26.3169 A 11.17434,11.17434 0 0 0 12.884555,37.490774 V 82.550319 A 11.132768,11.132768 0 0 0 24.017059,93.682823 H 95.811576 A 11.304793,11.304793 0 0 0 107.11576,82.380705 V 37.399761 A 11.082776,11.082776 0 0 0 96.032902,26.3169 H 82.486494 c -9.44e-4,0.0082 -0.0018,0.01662 -0.0021,0.02482 -3.01e-4,0.01095 6.6e-5,0.02007 0,0.03103 -5.7e-5,0.01157 1.3e-5,0.0236 0,0.03516 -3e-6,0.0058 3e-6,0.01279 0,0.01862 v 0.0021 c 0.0095,0.118978 0.01712,0.803309 0.02069,4.736795 0.0043,4.760717 0.0036,14.283398 -0.02482,19.880063 -0.02838,5.596665 -0.08468,7.266301 -0.262695,8.780654 -0.178007,1.514354 -0.477207,2.87248 -0.897716,4.211405 -0.420509,1.338924 -0.962225,2.658172 -1.596859,3.899065 -0.634633,1.240891 -1.362809,2.401198 -2.147071,3.425386 -0.784263,1.024188 -1.624294,1.913664 -2.560766,2.75727 -0.936472,0.8436 -1.968447,1.642356 -3.026171,2.331166 -1.057724,0.68882 -2.141919,1.268017 -3.305415,1.747857 -1.163496,0.47985 -2.406704,0.860051 -3.580521,1.133521 -1.173816,0.27346 -2.278835,0.439238 -2.928953,0.529528 -0.650118,0.0903 -0.845836,0.106004 -1.462408,0.103424 -0.616572,-0.003 -1.652995,-0.02454 -2.705559,-0.109629 -1.052565,-0.0851 -2.120188,-0.234415 -3.278524,-0.533665 -1.158336,-0.29926 -2.407054,-0.747808 -3.506057,-1.232808 -1.099003,-0.48501 -2.049072,-1.004855 -2.856556,-1.507915 -0.807483,-0.50307 -1.472904,-0.989652 -2.233948,-1.632022 -0.761043,-0.64237 -1.617694,-1.442014 -2.37874,-2.264975 -0.761047,-0.822961 -1.427025,-1.668126 -2.022963,-2.550423 -0.595938,-0.882296 -1.121638,-1.802227 -1.588585,-2.759338 -0.466947,-0.957111 -0.873237,-1.952156 -1.25763,-3.12339 -0.384393,-1.171235 -0.746667,-2.516868 -0.955633,-3.468824 -0.208967,-0.951956 -0.26639,-1.509127 -0.295791,-7.148631 -0.0294,-5.639505 -0.03207,-16.361296 -0.03309,-21.739617 -7.81e-4,-4.200884 -0.0014,-5.141969 -0.0021,-5.363542 -0.0074,-0.05039 -0.0024,-0.09909 0.0083,-0.14893 7.15e-4,-0.0029 0.0014,-0.0053 0.0021,-0.0083 -1.33e-4,-0.0025 -5.9e-5,-0.0056 0,-0.0083 -2.3e-5,-0.0081 1.17e-4,-0.01677 0,-0.02482 -1.25e-4,-0.0076 4.72e-4,-0.01516 0,-0.02275 z m 24.79061,0 c 0.01115,0.03252 0.0091,0.06677 -0.0021,0.09929 0.02085,0.0012 0.03396,0.0025 0.0393,0.0041 l 0.0021,0.0021 h 0.0021 v 0.0021 0.0021 c 0.0014,0.01607 0.0036,0.04962 -0.01241,5.282872 -0.01604,5.233249 -0.0519,15.66674 -0.06619,21.119076 -0.01429,5.452336 -0.0063,5.920908 0.02069,6.348134 0.027,0.427225 0.07473,0.811462 0.219258,1.319684 0.144525,0.508223 0.38523,1.14183 0.653636,1.764404 0.268405,0.622573 0.564161,1.235206 0.965975,1.845075 0.401813,0.609869 0.911266,1.217213 1.441724,1.733378 0.530459,0.516167 1.081442,0.939847 1.74372,1.352779 0.662277,0.412932 1.434424,0.815068 2.306344,1.123179 0.871919,0.308111 1.845196,0.524621 2.686942,0.624678 0.841748,0.100057 1.552277,0.08263 2.225673,0.02069 0.673397,-0.06194 1.308679,-0.169849 1.983663,-0.382667 0.674984,-0.212817 1.38927,-0.530137 2.022963,-0.860483 0.633692,-0.330345 1.186519,-0.672978 1.710625,-1.065262 0.524106,-0.392285 1.019748,-0.833887 1.532736,-1.423108 0.512988,-0.58922 1.043565,-1.327479 1.443792,-2.016758 0.400228,-0.689278 0.668976,-1.329913 0.877031,-1.958841 0.208055,-0.628926 0.355447,-1.245275 0.436447,-1.62168 0.081,-0.376406 0.09548,-0.512727 0.103424,-5.992357 0.0079,-5.479629 0.0083,-16.302493 0.0083,-21.723069 v -5.452486 -0.03516 -0.0021 h 0.0021 0.0021 v -0.0021 c -0.02029,-0.03371 -0.02354,-0.07307 -0.0062,-0.107561 z" /></g><g
         id="layer1"
         inkscape:label="Layer 3" /></g></g></svg>
