<?xml version="1.0" encoding="UTF-8" standalone="no"?>
<!-- Created with Inkscape (http://www.inkscape.org/) -->

<svg
   width="120"
   height="120"
   viewBox="0 0 120 120"
   version="1.1"
   id="svg1"
   xml:space="preserve"
   inkscape:version="1.4.1 (93de688d07, 2025-03-30)"
   sodipodi:docname="dao.svg"
   xmlns:inkscape="http://www.inkscape.org/namespaces/inkscape"
   xmlns:sodipodi="http://sodipodi.sourceforge.net/DTD/sodipodi-0.dtd"
   xmlns="http://www.w3.org/2000/svg"
   xmlns:svg="http://www.w3.org/2000/svg"><sodipodi:namedview
     id="namedview1"
     pagecolor="#1f1f1f"
     bordercolor="#000000"
     borderopacity="0.25"
     inkscape:showpageshadow="2"
     inkscape:pageopacity="0.0"
     inkscape:pagecheckerboard="0"
     inkscape:deskcolor="#3c3c3c"
     inkscape:document-units="px"
     inkscape:zoom="5.6568543"
     inkscape:cx="67.440309"
     inkscape:cy="50.116193"
     inkscape:window-width="1660"
     inkscape:window-height="1287"
     inkscape:window-x="0"
     inkscape:window-y="0"
     inkscape:window-maximized="1"
     inkscape:current-layer="layer3" /><defs
     id="defs1"><inkscape:path-effect
       effect="bspline"
       id="path-effect14"
       is_visible="true"
       lpeversion="1.3"
       weight="33.333333"
       steps="2"
       helper_size="0"
       apply_no_weight="true"
       apply_with_weight="true"
       only_selected="false"
       uniform="false" /><inkscape:path-effect
       effect="fillet_chamfer"
       id="path-effect5"
       is_visible="true"
       lpeversion="1"
       nodesatellites_param="F,0,0,1,0,37.022737,0,1 @ F,0,0,1,0,36.062445,0,1 @ F,0,0,1,0,35.528974,0,1 @ F,0,0,1,0,28.991378,0,1"
       radius="0"
       unit="px"
       method="auto"
       mode="F"
       chamfer_steps="1"
       flexible="false"
       use_knot_distance="true"
       apply_no_radius="true"
       apply_with_radius="true"
       only_selected="false"
       hide_knots="false" /><inkscape:path-effect
       effect="bspline"
       id="path-effect4"
       is_visible="true"
       lpeversion="1.3"
       weight="33.333333"
       steps="2"
       helper_size="0"
       apply_no_weight="true"
       apply_with_weight="true"
       only_selected="false"
       uniform="false" /><inkscape:path-effect
       effect="bspline"
       id="path-effect3"
       is_visible="true"
       lpeversion="1.3"
       weight="33.333333"
       steps="2"
       helper_size="0"
       apply_no_weight="true"
       apply_with_weight="true"
       only_selected="false"
       uniform="false" /><inkscape:path-effect
       effect="mirror_symmetry"
       start_point="59.977887,81.781355"
       end_point="59.977887,112.27285"
       center_point="59.977887,97.027103"
       id="path-effect9"
       is_visible="true"
       lpeversion="1.2"
       lpesatellites=""
       mode="free"
       discard_orig_path="false"
       fuse_paths="false"
       oposite_fuse="false"
       split_items="false"
       split_open="false"
       link_styles="false" /><inkscape:path-effect
       effect="mirror_symmetry"
       start_point="59.944658,10.409945"
       end_point="59.944658,50.039614"
       center_point="59.944658,30.22478"
       id="path-effect2"
       is_visible="true"
       lpeversion="1.2"
       lpesatellites=""
       mode="free"
       discard_orig_path="false"
       fuse_paths="false"
       oposite_fuse="false"
       split_items="false"
       split_open="false"
       link_styles="false" /><inkscape:path-effect
       effect="mirror_symmetry"
       start_point="59.948435,66.805114"
       end_point="59.948435,107.38004"
       center_point="59.948435,87.092577"
       id="path-effect8"
       is_visible="true"
       lpeversion="1.2"
       lpesatellites=""
       mode="free"
       discard_orig_path="false"
       fuse_paths="false"
       oposite_fuse="false"
       split_items="false"
       split_open="false"
       link_styles="false" /><inkscape:path-effect
       effect="mirror_symmetry"
       start_point="60.801511,9.4541705"
       end_point="60.801511,40.169132"
       center_point="60.801511,24.811651"
       id="path-effect7"
       is_visible="true"
       lpeversion="1.2"
       lpesatellites=""
       mode="free"
       discard_orig_path="false"
       fuse_paths="false"
       oposite_fuse="false"
       split_items="false"
       split_open="false"
       link_styles="false" /><inkscape:path-effect
       effect="fillet_chamfer"
       id="path-effect13"
       is_visible="true"
       lpeversion="1"
       nodesatellites_param="F,0,0,1,0,4.7467821,0,1 @ F,0,0,1,0,4.0515277,0,1 @ F,0,0,1,0,0,0,1 @ F,0,0,1,0,2.4219461,0,1 @ F,0,0,1,0,2.4960577,0,1 @ F,0,0,1,0,0,0,1 @ F,0,0,1,0,4.1062831,0,1"
       radius="0"
       unit="px"
       method="auto"
       mode="F"
       chamfer_steps="1"
       flexible="false"
       use_knot_distance="true"
       apply_no_radius="true"
       apply_with_radius="true"
       only_selected="false"
       hide_knots="false" /><inkscape:path-effect
       effect="fillet_chamfer"
       id="path-effect12"
       is_visible="true"
       lpeversion="1"
       nodesatellites_param="F,0,0,1,0,0,0,1 @ F,0,0,1,0,0,0,1 @ F,0,0,1,0,0,0,1 @ F,0,0,1,0,0,0,1 @ F,0,0,1,0,3.627665,0,1 @ F,0,0,1,0,0,0,1 @ F,0,0,1,0,0,0,1"
       radius="0"
       unit="px"
       method="auto"
       mode="F"
       chamfer_steps="1"
       flexible="false"
       use_knot_distance="true"
       apply_no_radius="true"
       apply_with_radius="true"
       only_selected="false"
       hide_knots="false" /><inkscape:path-effect
       effect="fillet_chamfer"
       id="path-effect11"
       is_visible="true"
       lpeversion="1"
       nodesatellites_param="F,0,0,1,0,2.9729248,0,1 @ F,0,0,1,0,3.8975858,0,1 @ F,0,0,1,0,0,0,1 @ F,0,1,1,0,3.784373,0,1 @ F,0,0,1,0,1.4792147,0,1 @ F,0,0,1,0,0,0,1 @ F,0,0,1,0,3.784373,0,1"
       radius="0"
       unit="px"
       method="auto"
       mode="F"
       chamfer_steps="1"
       flexible="false"
       use_knot_distance="true"
       apply_no_radius="true"
       apply_with_radius="true"
       only_selected="false"
       hide_knots="false" /><linearGradient
       id="linearGradient6"><stop
         style="stop-color:#c88500;stop-opacity:1;"
         offset="0.07163448"
         id="stop8" /><stop
         style="stop-color:#fff300;stop-opacity:1;"
         offset="1"
         id="stop9" /></linearGradient><linearGradient
       id="linearGradient6-1"><stop
         style="stop-color:#c88500;stop-opacity:1;"
         offset="0"
         id="stop6" /><stop
         style="stop-color:#fff300;stop-opacity:1;"
         offset="1"
         id="stop7" /></linearGradient><inkscape:path-effect
       effect="fillet_chamfer"
       id="path-effect1"
       is_visible="true"
       lpeversion="1"
       nodesatellites_param="F,0,0,1,0,24.536157,0,1 @ F,0,0,1,0,24.004899,0,1 @ F,0,0,1,0,23.651152,0,1 @ F,0,0,1,0,24.380791,0,1"
       radius="0"
       unit="px"
       method="auto"
       mode="F"
       chamfer_steps="1"
       flexible="false"
       use_knot_distance="true"
       apply_no_radius="true"
       apply_with_radius="true"
       only_selected="false"
       hide_knots="false" /><linearGradient
       id="a"
       x1="7.937"
       x2="7.937"
       y1="15.081"
       y2="1.852"
       gradientTransform="scale(3.7796)"
       gradientUnits="userSpaceOnUse"><stop
         offset="0"
         stop-color="#9b6f27"
         id="stop1" /><stop
         offset="1"
         stop-color="#d0ab6a"
         id="stop2" /></linearGradient><filter
       id="b"
       width="1.216"
       height="1.216"
       x="-0.108"
       y="-0.108"
       color-interpolation-filters="sRGB"><feGaussianBlur
         stdDeviation="1.35"
         id="feGaussianBlur2" /></filter><linearGradient
       id="linearGradient31"
       x1=".5002"
       x2=".5002"
       y2="1"
       gradientTransform="matrix(244,0,0,228,5.986,12)"
       gradientUnits="userSpaceOnUse"><stop
         stop-color="#ebdbb2"
         stop-opacity=".2"
         offset="0"
         id="stop1-5" /><stop
         stop-color="#ebdbb2"
         stop-opacity=".05"
         offset=".1"
         id="stop2-6" /><stop
         stop-opacity="0"
         offset=".7036"
         id="stop3" /><stop
         stop-opacity=".1"
         offset=".8975"
         id="stop4" /><stop
         stop-opacity=".2"
         offset="1"
         id="stop5" /></linearGradient><inkscape:path-effect
       effect="bspline"
       id="path-effect4-7"
       is_visible="true"
       lpeversion="1.3"
       weight="33.333333"
       steps="2"
       helper_size="0"
       apply_no_weight="true"
       apply_with_weight="true"
       only_selected="false"
       uniform="false" /><inkscape:path-effect
       effect="bspline"
       id="path-effect3-5"
       is_visible="true"
       lpeversion="1.3"
       weight="33.333333"
       steps="2"
       helper_size="0"
       apply_no_weight="true"
       apply_with_weight="true"
       only_selected="false"
       uniform="false" /><inkscape:path-effect
       effect="mirror_symmetry"
       start_point="59.977887,81.781355"
       end_point="59.977887,112.27285"
       center_point="59.977887,97.027103"
       id="path-effect9-6"
       is_visible="true"
       lpeversion="1.2"
       lpesatellites=""
       mode="free"
       discard_orig_path="false"
       fuse_paths="false"
       oposite_fuse="false"
       split_items="false"
       split_open="false"
       link_styles="false" /><inkscape:path-effect
       effect="mirror_symmetry"
       start_point="59.944658,10.409945"
       end_point="59.944658,50.039614"
       center_point="59.944658,30.22478"
       id="path-effect2-9"
       is_visible="true"
       lpeversion="1.2"
       lpesatellites=""
       mode="free"
       discard_orig_path="false"
       fuse_paths="false"
       oposite_fuse="false"
       split_items="false"
       split_open="false"
       link_styles="false" /><inkscape:path-effect
       effect="mirror_symmetry"
       start_point="59.948435,66.805114"
       end_point="59.948435,107.38004"
       center_point="59.948435,87.092577"
       id="path-effect8-8"
       is_visible="true"
       lpeversion="1.2"
       lpesatellites=""
       mode="free"
       discard_orig_path="false"
       fuse_paths="false"
       oposite_fuse="false"
       split_items="false"
       split_open="false"
       link_styles="false" /><inkscape:path-effect
       effect="mirror_symmetry"
       start_point="60.801511,9.4541705"
       end_point="60.801511,40.169132"
       center_point="60.801511,24.811651"
       id="path-effect7-7"
       is_visible="true"
       lpeversion="1.2"
       lpesatellites=""
       mode="free"
       discard_orig_path="false"
       fuse_paths="false"
       oposite_fuse="false"
       split_items="false"
       split_open="false"
       link_styles="false" /><inkscape:path-effect
       effect="fillet_chamfer"
       id="path-effect13-2"
       is_visible="true"
       lpeversion="1"
       nodesatellites_param="F,0,0,1,0,4.7467821,0,1 @ F,0,0,1,0,4.0515277,0,1 @ F,0,0,1,0,0,0,1 @ F,0,0,1,0,2.4219461,0,1 @ F,0,0,1,0,2.4960577,0,1 @ F,0,0,1,0,0,0,1 @ F,0,0,1,0,4.1062831,0,1"
       radius="0"
       unit="px"
       method="auto"
       mode="F"
       chamfer_steps="1"
       flexible="false"
       use_knot_distance="true"
       apply_no_radius="true"
       apply_with_radius="true"
       only_selected="false"
       hide_knots="false" /><inkscape:path-effect
       effect="fillet_chamfer"
       id="path-effect12-8"
       is_visible="true"
       lpeversion="1"
       nodesatellites_param="F,0,0,1,0,0,0,1 @ F,0,0,1,0,0,0,1 @ F,0,0,1,0,0,0,1 @ F,0,0,1,0,0,0,1 @ F,0,0,1,0,3.627665,0,1 @ F,0,0,1,0,0,0,1 @ F,0,0,1,0,0,0,1"
       radius="0"
       unit="px"
       method="auto"
       mode="F"
       chamfer_steps="1"
       flexible="false"
       use_knot_distance="true"
       apply_no_radius="true"
       apply_with_radius="true"
       only_selected="false"
       hide_knots="false" /><inkscape:path-effect
       effect="fillet_chamfer"
       id="path-effect11-2"
       is_visible="true"
       lpeversion="1"
       nodesatellites_param="F,0,0,1,0,2.9729248,0,1 @ F,0,0,1,0,3.8975858,0,1 @ F,0,0,1,0,0,0,1 @ F,0,1,1,0,3.784373,0,1 @ F,0,0,1,0,1.4792147,0,1 @ F,0,0,1,0,0,0,1 @ F,0,0,1,0,3.784373,0,1"
       radius="0"
       unit="px"
       method="auto"
       mode="F"
       chamfer_steps="1"
       flexible="false"
       use_knot_distance="true"
       apply_no_radius="true"
       apply_with_radius="true"
       only_selected="false"
       hide_knots="false" /><inkscape:path-effect
       effect="fillet_chamfer"
       id="path-effect1-2"
       is_visible="true"
       lpeversion="1"
       nodesatellites_param="F,0,0,1,0,24.536157,0,1 @ F,0,0,1,0,24.004899,0,1 @ F,0,0,1,0,23.651152,0,1 @ F,0,0,1,0,24.380791,0,1"
       radius="0"
       unit="px"
       method="auto"
       mode="F"
       chamfer_steps="1"
       flexible="false"
       use_knot_distance="true"
       apply_no_radius="true"
       apply_with_radius="true"
       only_selected="false"
       hide_knots="false" /><filter
       id="b-3"
       width="1.216"
       height="1.216"
       x="-0.108"
       y="-0.108"
       color-interpolation-filters="sRGB"><feGaussianBlur
         stdDeviation="1.35"
         id="feGaussianBlur2-2" /></filter><inkscape:path-effect
       effect="bspline"
       id="path-effect6"
       is_visible="true"
       lpeversion="1.3"
       weight="33.333333"
       steps="2"
       helper_size="0"
       apply_no_weight="true"
       apply_with_weight="true"
       only_selected="false"
       uniform="false" /><inkscape:path-effect
       effect="bspline"
       id="path-effect5-1"
       is_visible="true"
       lpeversion="1.3"
       weight="33.333333"
       steps="2"
       helper_size="0"
       apply_no_weight="true"
       apply_with_weight="true"
       only_selected="false"
       uniform="false" /><inkscape:path-effect
       effect="bspline"
       id="path-effect4-5"
       is_visible="true"
       lpeversion="1.3"
       weight="33.333333"
       steps="2"
       helper_size="0"
       apply_no_weight="true"
       apply_with_weight="true"
       only_selected="false"
       uniform="false" /><inkscape:path-effect
       effect="bspline"
       id="path-effect3-3"
       is_visible="true"
       lpeversion="1.3"
       weight="33.333333"
       steps="2"
       helper_size="0"
       apply_no_weight="true"
       apply_with_weight="true"
       only_selected="false"
       uniform="false" /><inkscape:path-effect
       effect="mirror_symmetry"
       start_point="59.977887,81.781355"
       end_point="59.977887,112.27285"
       center_point="59.977887,97.027103"
       id="path-effect9-5"
       is_visible="true"
       lpeversion="1.2"
       lpesatellites=""
       mode="free"
       discard_orig_path="false"
       fuse_paths="false"
       oposite_fuse="false"
       split_items="false"
       split_open="false"
       link_styles="false" /><inkscape:path-effect
       effect="mirror_symmetry"
       start_point="59.944658,10.409945"
       end_point="59.944658,50.039614"
       center_point="59.944658,30.22478"
       id="path-effect2-6"
       is_visible="true"
       lpeversion="1.2"
       lpesatellites=""
       mode="free"
       discard_orig_path="false"
       fuse_paths="false"
       oposite_fuse="false"
       split_items="false"
       split_open="false"
       link_styles="false" /><inkscape:path-effect
       effect="mirror_symmetry"
       start_point="59.948435,66.805114"
       end_point="59.948435,107.38004"
       center_point="59.948435,87.092577"
       id="path-effect8-2"
       is_visible="true"
       lpeversion="1.2"
       lpesatellites=""
       mode="free"
       discard_orig_path="false"
       fuse_paths="false"
       oposite_fuse="false"
       split_items="false"
       split_open="false"
       link_styles="false" /><inkscape:path-effect
       effect="mirror_symmetry"
       start_point="60.801511,9.4541705"
       end_point="60.801511,40.169132"
       center_point="60.801511,24.811651"
       id="path-effect7-9"
       is_visible="true"
       lpeversion="1.2"
       lpesatellites=""
       mode="free"
       discard_orig_path="false"
       fuse_paths="false"
       oposite_fuse="false"
       split_items="false"
       split_open="false"
       link_styles="false" /><inkscape:path-effect
       effect="fillet_chamfer"
       id="path-effect13-1"
       is_visible="true"
       lpeversion="1"
       nodesatellites_param="F,0,0,1,0,4.7467821,0,1 @ F,0,0,1,0,4.0515277,0,1 @ F,0,0,1,0,0,0,1 @ F,0,0,1,0,2.4219461,0,1 @ F,0,0,1,0,2.4960577,0,1 @ F,0,0,1,0,0,0,1 @ F,0,0,1,0,4.1062831,0,1"
       radius="0"
       unit="px"
       method="auto"
       mode="F"
       chamfer_steps="1"
       flexible="false"
       use_knot_distance="true"
       apply_no_radius="true"
       apply_with_radius="true"
       only_selected="false"
       hide_knots="false" /><inkscape:path-effect
       effect="fillet_chamfer"
       id="path-effect12-2"
       is_visible="true"
       lpeversion="1"
       nodesatellites_param="F,0,0,1,0,0,0,1 @ F,0,0,1,0,0,0,1 @ F,0,0,1,0,0,0,1 @ F,0,0,1,0,0,0,1 @ F,0,0,1,0,3.627665,0,1 @ F,0,0,1,0,0,0,1 @ F,0,0,1,0,0,0,1"
       radius="0"
       unit="px"
       method="auto"
       mode="F"
       chamfer_steps="1"
       flexible="false"
       use_knot_distance="true"
       apply_no_radius="true"
       apply_with_radius="true"
       only_selected="false"
       hide_knots="false" /><inkscape:path-effect
       effect="fillet_chamfer"
       id="path-effect11-7"
       is_visible="true"
       lpeversion="1"
       nodesatellites_param="F,0,0,1,0,2.9729248,0,1 @ F,0,0,1,0,3.8975858,0,1 @ F,0,0,1,0,0,0,1 @ F,0,1,1,0,3.784373,0,1 @ F,0,0,1,0,1.4792147,0,1 @ F,0,0,1,0,0,0,1 @ F,0,0,1,0,3.784373,0,1"
       radius="0"
       unit="px"
       method="auto"
       mode="F"
       chamfer_steps="1"
       flexible="false"
       use_knot_distance="true"
       apply_no_radius="true"
       apply_with_radius="true"
       only_selected="false"
       hide_knots="false" /><inkscape:path-effect
       effect="fillet_chamfer"
       id="path-effect1-0"
       is_visible="true"
       lpeversion="1"
       nodesatellites_param="F,0,0,1,0,24.536157,0,1 @ F,0,0,1,0,24.004899,0,1 @ F,0,0,1,0,23.651152,0,1 @ F,0,0,1,0,24.380791,0,1"
       radius="0"
       unit="px"
       method="auto"
       mode="F"
       chamfer_steps="1"
       flexible="false"
       use_knot_distance="true"
       apply_no_radius="true"
       apply_with_radius="true"
       only_selected="false"
       hide_knots="false" /><filter
       id="b-6"
       width="1.216"
       height="1.216"
       x="-0.108"
       y="-0.108"
       color-interpolation-filters="sRGB"><feGaussianBlur
         stdDeviation="1.35"
         id="feGaussianBlur2-1" /></filter></defs><g
     inkscape:groupmode="layer"
     id="layer3"
     inkscape:label="base"><path
       d="m 76.476937,9.2332248 c 32.063223,0 37.852423,6.6798392 37.852423,38.7430672 v 24.938066 c 0,31.172592 -5.7892,37.852422 -37.852423,37.852422 H 43.523063 c -32.063227,0 -37.8524214,-6.67983 -37.8524214,-37.852422 V 47.976292 c 0,-32.063228 5.7891944,-38.7430672 37.8524214,-38.7430672 z"
       fill="#ebdbb2"
       style="display:inline;opacity:1;isolation:isolate;stroke-width:0.445323"
       id="path5" /><g
       id="g2"
       transform="matrix(0.85381707,0,0,0.85381707,8.7709785,8.9194457)"><g
         id="layer2"
         inkscape:label="Layer 2"
         style="opacity:1"><path
           style="opacity:1;fill:#eeeeee;fill-opacity:0;stroke-width:0.965576"
           id="rect1"
           width="104.6141"
           height="104.75148"
           x="7.5219741"
           y="7.4503703"
           inkscape:path-effect="#path-effect1-2"
           sodipodi:type="rect"
           d="M 32.058131,7.4503703 H 88.131173 A 24.004899,24.004899 45 0 1 112.13607,31.455269 V 88.550698 A 23.651152,23.651152 135 0 1 88.48492,112.20185 H 31.902765 A 24.380791,24.380791 45 0 1 7.5219741,87.821059 V 31.986527 A 24.536157,24.536157 135 0 1 32.058131,7.4503703 Z"
           transform="translate(0.40694183)" /><g
           id="g1"
           transform="translate(-146.86695,-10.780154)"><g
             id="layer1-9"
             inkscape:label="Layer 3"
             transform="matrix(1.3816072,0,0,1.3816072,122.80218,-13.491003)"><path
               id="path1"
               style="fill:#700400;fill-rule:evenodd;stroke-width:1.566"
               d="m 47.48226,29.324617 c -1.131412,0.005 -2.153463,0.01917 -2.664215,0.02574 -0.510753,0.0066 -0.511159,0.0058 -1.935418,0.03057 -1.424259,0.02479 -4.272254,0.07414 -6.758677,0.157665 -2.486423,0.08353 -4.611619,0.201856 -6.216503,0.361986 -1.604885,0.160129 -2.689474,0.363383 -3.38497,0.553436 -0.695495,0.190052 -1.000817,0.366988 -1.208228,0.508389 -0.20741,0.141401 -0.317176,0.246158 -0.368421,0.353941 -0.05124,0.107783 -0.04395,0.217959 0.0547,0.328201 0.09865,0.110241 0.288706,0.220195 0.717537,0.368421 0.42883,0.148225 1.096048,0.334607 1.961158,0.53413 0.86511,0.199523 1.928471,0.412383 2.961849,0.699839 1.033378,0.287457 2.036518,0.649913 2.636865,0.950816 0.600347,0.300904 0.797505,0.540152 0.926684,0.831763 0.129178,0.291612 0.191353,0.635915 0.215582,1.114917 0.02423,0.479002 0.01116,1.09341 0.0016,4.348656 -0.0095,3.255245 -0.01588,9.150645 -0.04022,12.169158 -0.02435,3.018513 -0.06692,3.159264 -0.133533,3.272352 -0.06661,0.113088 -0.158124,0.198147 -0.387727,0.257412 -0.229603,0.05926 -0.598284,0.09265 -2.475983,0.114227 -1.877698,0.02158 -5.263399,0.03092 -7.186625,0.04505 -1.923225,0.01412 -2.38354,0.03352 -2.723742,0.06757 -0.340202,0.03406 -0.560207,0.08309 -0.690186,0.131924 -0.129979,0.04884 -0.170273,0.09729 -0.189842,0.154447 -0.01957,0.05715 -0.01842,0.123031 0.05148,0.267066 0.0699,0.144034 0.209484,0.36631 0.489083,0.666053 0.279599,0.299744 0.699382,0.677157 1.208228,1.00069 0.508846,0.323533 1.105939,0.593909 1.882326,0.820501 0.776388,0.226593 1.730664,0.409976 2.813837,0.540566 1.083172,0.13059 2.295144,0.207322 3.235348,0.24615 0.940204,0.03883 1.6092,0.03974 2.117215,0.04344 0.508015,0.0037 0.855507,0.01074 1.108481,0.06114 0.252974,0.05039 0.411275,0.143248 0.564698,0.281544 0.153422,0.138296 0.302457,0.321664 0.374856,0.538957 0.0724,0.217293 0.06887,0.469468 0.02574,2.366583 -0.04313,1.897115 -0.125826,5.43939 -0.17697,7.226845 -0.05114,1.787456 -0.07067,1.819949 -0.193059,1.961159 -0.122394,0.14121 -0.348501,0.391817 -0.830155,0.852678 -0.481653,0.460861 -1.219843,1.131285 -1.954723,1.743967 -0.73488,0.612682 -1.465276,1.166618 -1.935417,1.563779 -0.470142,0.39716 -0.679759,0.63828 -0.793152,0.804412 -0.113392,0.166133 -0.131738,0.257897 -0.12227,0.333027 0.0095,0.07513 0.04733,0.132713 0.128706,0.207539 0.08138,0.07483 0.206467,0.165833 0.365203,0.231671 0.158737,0.06584 0.351266,0.106327 0.937946,0.120662 0.586679,0.01433 1.568271,0.0032 3.335096,-0.01448 1.766825,-0.0177 4.318604,-0.04189 5.725811,-0.04666 1.407206,-0.0048 1.668627,0.0106 2.202482,0.06757 0.533855,0.05697 1.339519,0.15603 2.080212,0.236497 0.740693,0.08047 1.416601,0.141159 1.9869,0.186624 0.570298,0.04547 1.035474,0.07577 1.509079,0.09331 0.473604,0.01754 0.956203,0.02291 1.838887,-0.0064 0.882685,-0.02934 2.165055,-0.09406 3.22087,-0.167318 1.055815,-0.07326 1.884357,-0.155645 2.569295,-0.2735 0.684937,-0.117856 1.22597,-0.270639 1.79384,-0.47943 0.567871,-0.208792 1.162535,-0.47332 1.840497,-0.857505 0.677963,-0.384185 1.439327,-0.88832 2.051253,-1.348196 0.611926,-0.459876 1.074693,-0.874919 1.406114,-1.203401 0.33142,-0.328482 0.531414,-0.570692 0.695013,-0.806022 0.163598,-0.235331 0.29136,-0.464508 0.386118,-0.682142 0.09476,-0.217635 0.157444,-0.422909 0.225235,-0.672489 0.06779,-0.249581 0.140378,-0.543869 0.225236,-0.870375 0.08486,-0.326506 0.181801,-0.685333 0.294415,-1.032866 0.112614,-0.347534 0.241504,-0.683163 0.336245,-0.966905 0.09474,-0.283742 0.154051,-0.515485 0.353941,-0.934728 0.19989,-0.419242 0.539297,-1.025774 0.91864,-1.565387 0.379343,-0.539613 0.799134,-1.012136 1.229143,-1.447943 0.430009,-0.435807 0.8705,-0.834984 1.208228,-1.114917 0.337728,-0.279933 0.572391,-0.440484 0.720754,-0.566306 0.148363,-0.125823 0.211202,-0.216929 0.307286,-0.41186 0.09608,-0.194931 0.22666,-0.493739 0.334635,-0.88968 0.107976,-0.395942 0.192851,-0.888073 0.283154,-1.531603 0.0903,-0.643529 0.18454,-1.439215 0.268674,-2.207309 0.08413,-0.768093 0.157874,-1.509491 0.220409,-2.529074 0.06253,-1.019583 0.115166,-2.317035 0.146403,-3.481499 0.03124,-1.164463 0.04104,-2.196065 0.02574,-3.005286 -0.0153,-0.809222 -0.05661,-1.395509 -0.13675,-2.004597 -0.08014,-0.609089 -0.19837,-1.240604 -0.334636,-1.883935 -0.136265,-0.643331 -0.290314,-1.298651 -0.530912,-2.067342 -0.240598,-0.76869 -0.567987,-1.650135 -0.934728,-2.4792 -0.366742,-0.829066 -0.772995,-1.605627 -1.135831,-2.279706 -0.362836,-0.67408 -0.682351,-1.245687 -1.045737,-1.816365 -0.363385,-0.570678 -0.769635,-1.140211 -1.168007,-1.658699 -0.398373,-0.518489 -0.789654,-0.986959 -1.229143,-1.427029 -0.43949,-0.440069 -0.927953,-0.851682 -1.383591,-1.206619 -0.455637,-0.354937 -0.877242,-0.6523 -1.470466,-0.992646 -0.593224,-0.340345 -1.35875,-0.724493 -2.252356,-1.103654 -0.893607,-0.379161 -1.916073,-0.752856 -2.900713,-1.02804 -0.98464,-0.275184 -1.931068,-0.451486 -2.593428,-0.564698 -0.662359,-0.113211 -1.040189,-0.164314 -1.850149,-0.19145 -0.809961,-0.02714 -2.050846,-0.03071 -3.182258,-0.02574 z m -4.223168,3.463802 c 0.737949,-0.0092 1.880852,0.0012 3.156517,0.08688 1.275665,0.08573 2.683903,0.246697 3.893358,0.547001 1.209455,0.300305 2.219686,0.739621 3.121122,1.272581 0.901437,0.532961 1.694271,1.159329 2.43898,1.854977 0.744709,0.695647 1.441513,1.460089 2.126868,2.3151 0.685355,0.855011 1.35888,1.800611 1.883935,2.620777 0.525055,0.820166 0.901385,1.515036 1.230752,2.255574 0.329367,0.740538 0.610939,1.527931 0.855895,2.569295 0.244956,1.041363 0.452859,2.336894 0.608136,3.489543 0.155278,1.152649 0.258733,2.162233 0.273501,3.756608 0.01477,1.594376 -0.05948,3.7731 -0.141577,5.487705 -0.0821,1.714605 -0.171898,2.965022 -0.307286,4.031718 -0.135388,1.066695 -0.316228,1.949813 -0.584004,2.791313 -0.267775,0.841499 -0.622162,1.640496 -1.171225,2.5886 -0.549062,0.948105 -1.292943,2.044806 -2.085038,3.006896 -0.792095,0.96209 -1.633028,1.789454 -2.210527,2.28775 -0.577498,0.498296 -0.891329,0.667879 -1.462422,0.900942 -0.571094,0.233064 -1.398625,0.529342 -2.168698,0.738452 -0.770072,0.209109 -1.483013,0.330758 -2.27327,0.423121 -0.790258,0.09236 -1.658104,0.155809 -2.440589,0.151229 -0.782486,-0.0046 -1.478769,-0.07671 -2.043209,-0.1641 -0.56444,-0.08739 -0.996684,-0.189939 -1.467249,-0.341071 -0.470566,-0.151132 -0.980071,-0.351738 -1.42542,-0.547001 -0.445349,-0.195263 -0.826916,-0.385292 -1.196966,-0.722363 -0.37005,-0.33707 -0.727637,-0.820743 -0.933119,-1.187313 -0.205482,-0.36657 -0.25994,-0.616419 -0.292807,-0.802804 -0.03287,-0.186385 -0.04507,-0.30886 -0.03218,-1.842106 0.01289,-1.533245 0.05234,-4.476801 0.08205,-6.185935 0.02971,-1.709133 0.05004,-2.183626 0.06918,-2.54838 0.01914,-0.364754 0.03642,-0.620161 0.0724,-0.833372 0.03598,-0.21321 0.09,-0.38531 0.172144,-0.505171 0.08214,-0.119861 0.192742,-0.186171 0.333027,-0.23328 0.140285,-0.04711 0.310331,-0.07494 0.662836,-0.101356 0.352506,-0.02642 0.886422,-0.05211 1.838888,-0.07401 0.952466,-0.0219 2.323677,-0.04007 3.278787,-0.02735 0.95511,0.01272 1.495486,0.0566 1.972421,0.181797 0.476934,0.125201 0.890684,0.332701 1.151919,0.518042 0.261234,0.185341 0.369887,0.347865 0.447254,0.519651 0.07737,0.171786 0.124074,0.352472 0.156056,0.58883 0.03198,0.236359 0.04915,0.529416 0.104573,0.752931 0.05543,0.223515 0.148638,0.377697 0.228454,0.431165 0.07981,0.05347 0.146048,0.0048 0.275109,-0.139968 0.129061,-0.144809 0.320931,-0.385975 0.529303,-0.603309 0.208373,-0.217335 0.432076,-0.409455 0.714319,-0.703057 0.282243,-0.293603 0.622899,-0.689258 0.846243,-0.997472 0.223343,-0.308215 0.330684,-0.529884 0.392553,-0.801196 0.06187,-0.271311 0.07805,-0.592299 0.03539,-0.965295 -0.04266,-0.372996 -0.144552,-0.797425 -0.234888,-1.100437 -0.09034,-0.303011 -0.168005,-0.484333 -0.291198,-0.593657 -0.123193,-0.109323 -0.292748,-0.146991 -0.649965,-0.167317 -0.357218,-0.02033 -0.902391,-0.02232 -2.694784,-0.02896 -1.792393,-0.0066 -4.831581,-0.01821 -6.462653,-0.04987 -1.631072,-0.03167 -1.853879,-0.08446 -2.046426,-0.162491 -0.192548,-0.07803 -0.354312,-0.181069 -0.450472,-0.297633 -0.09616,-0.116565 -0.126684,-0.245761 -0.139968,-0.347507 -0.01328,-0.101745 -0.0089,-0.176095 -0.0064,-2.154217 0.0024,-1.978123 0.0017,-5.86051 0.0097,-9.347278 0.0079,-3.486769 0.023,-6.57745 0.03057,-8.122962 0.0076,-1.545511 0.0084,-1.545487 0.01448,-1.57504 0.006,-0.02955 0.01843,-0.08871 0.02574,-0.307286 0.0073,-0.218577 0.01017,-0.596968 0.02252,-0.836589 0.01236,-0.239622 0.0337,-0.339792 0.160883,-0.431166 0.127184,-0.09137 0.359188,-0.1738 0.641921,-0.228453 0.282733,-0.05465 0.616682,-0.08255 1.354631,-0.0917 z" /><path
               id="path3"
               style="fill:#700400;fill-rule:evenodd;stroke-width:1.566"
               d="m 81.560409,43.787961 c -0.07258,0.004 -0.142503,0.01867 -0.197886,0.03539 -0.110765,0.03345 -0.166061,0.07891 -0.202712,0.1094 -0.03665,0.03049 -0.05342,0.04546 -0.06274,0.05953 -0.0093,0.01407 -0.01195,0.02706 -0.01287,0.03378 -9.16e-4,0.0067 -7.81e-4,0.0078 -0.101356,0.259021 -0.100574,0.251257 -0.301288,0.753224 -0.495518,1.406114 -0.19423,0.65289 -0.38137,1.456986 -0.667663,2.305447 -0.286293,0.848461 -0.672843,1.741456 -1.134222,2.582166 -0.461379,0.840709 -0.997942,1.628809 -1.454379,2.215353 -0.456437,0.586543 -0.831861,0.970616 -1.108481,1.343369 -0.276619,0.372754 -0.454714,0.73326 -0.690186,1.515514 -0.235472,0.782254 -0.528439,1.987368 -1.050563,3.925535 -0.522124,1.938167 -1.273316,4.610113 -1.784188,6.208459 -0.510872,1.598346 -0.781832,2.123101 -1.04091,2.559642 -0.259079,0.436541 -0.505772,0.783928 -0.76741,1.039302 -0.261638,0.255373 -0.538448,0.417899 -0.839807,0.553436 -0.30136,0.135536 -0.627074,0.244898 -0.999081,0.299241 -0.372008,0.05434 -0.789642,0.0533 -1.172834,0.05792 -0.383192,0.0046 -0.7328,0.01462 -0.982993,0.03218 -0.250192,0.01756 -0.401344,0.04385 -0.490692,0.08205 -0.08935,0.0382 -0.116565,0.08778 -0.119053,0.17697 -0.0025,0.08919 0.02003,0.217143 0.149621,0.442428 0.129586,0.225284 0.366486,0.549145 0.735234,0.93151 0.368747,0.382365 0.869862,0.823178 1.346587,1.216272 0.476724,0.393094 0.928562,0.736971 1.198575,0.949207 0.270013,0.212237 0.356795,0.293114 0.400598,0.361986 0.0438,0.06887 0.04517,0.126475 0.03057,0.257412 -0.0146,0.130937 -0.04373,0.334936 -0.24615,0.981384 -0.202423,0.646448 -0.578099,1.734769 -1.283843,3.957711 -0.705744,2.222943 -1.742558,5.58135 -2.27488,7.28959 -0.532321,1.70824 -0.56003,1.766612 -0.61618,1.854976 -0.05615,0.08836 -0.139991,0.205945 -0.24615,0.312113 -0.10616,0.106168 -0.234764,0.201163 -0.35716,0.271891 -0.122396,0.07073 -0.239511,0.117543 -0.540565,0.2188 -0.301055,0.101258 -0.785869,0.257308 -1.348196,0.431166 -0.562328,0.173857 -1.201236,0.365975 -1.615261,0.505171 -0.414025,0.139196 -0.60335,0.224895 -0.748104,0.299242 -0.144755,0.07435 -0.245298,0.137243 -0.334636,0.2188 -0.08934,0.08156 -0.167324,0.182175 -0.222018,0.279936 -0.05469,0.09776 -0.08558,0.192246 -0.104574,0.291197 -0.01899,0.09895 -0.02716,0.202313 -0.008,0.318548 0.01912,0.116234 0.06523,0.245895 0.133533,0.347506 0.0683,0.101611 0.159972,0.174965 0.275109,0.230062 0.115137,0.0551 0.253279,0.09067 0.600092,0.104574 0.346812,0.01391 0.902199,0.0061 3.087337,0.0032 2.185137,-0.0029 5.999788,-3.43e-4 7.955643,-0.008 1.955856,-0.0077 2.051664,-0.02648 2.131694,-0.06274 0.08003,-0.03627 0.145247,-0.08991 0.225236,-0.176971 0.07999,-0.08706 0.176018,-0.206192 0.231671,-0.302459 0.05565,-0.09627 0.07093,-0.169923 0.05148,-0.265456 -0.01944,-0.09553 -0.07499,-0.213935 -0.160882,-0.323374 -0.08589,-0.10944 -0.203401,-0.210013 -0.363595,-0.320157 -0.160194,-0.110143 -0.36327,-0.229024 -0.68536,-0.366812 -0.32209,-0.137788 -0.762164,-0.294658 -1.190531,-0.427947 -0.428367,-0.13329 -0.844086,-0.243811 -1.118134,-0.323374 -0.274047,-0.07956 -0.40749,-0.128122 -0.471386,-0.207539 -0.0639,-0.07942 -0.05863,-0.189198 -0.02735,-0.47943 0.03128,-0.290232 0.08961,-0.760365 0.574351,-3.130775 0.484745,-2.37041 1.395403,-6.640403 1.880718,-8.863022 0.485315,-2.222618 0.544693,-2.397946 0.632268,-2.551597 0.08758,-0.153651 0.20461,-0.286981 0.331418,-0.392554 0.126809,-0.105572 0.263853,-0.183938 0.413468,-0.234888 0.149616,-0.05095 0.311901,-0.0737 0.56309,-0.08205 0.251188,-0.0084 0.591806,-0.0016 2.234659,0.01448 1.642853,0.01607 4.586546,0.04148 6.116755,0.06435 1.53021,0.02287 1.646814,0.04228 1.819582,0.0917 0.172769,0.04943 0.401525,0.129168 0.614572,0.250977 0.213047,0.121809 0.410357,0.286587 0.603309,0.509998 0.192953,0.22341 0.38268,0.505713 0.561481,0.833371 0.178801,0.327659 0.345501,0.699953 0.456906,1.068261 0.111405,0.368308 0.167911,0.73182 0.204321,0.98621 0.03641,0.25439 0.05355,0.400521 0.05631,0.637095 0.0028,0.236574 -0.0095,0.563786 -0.03861,0.820501 -0.0291,0.256716 -0.07596,0.442029 -0.149621,0.675707 -0.07367,0.233678 -0.174236,0.515872 -0.259021,0.752931 -0.08478,0.237058 -0.152561,0.430115 -0.185015,0.58883 -0.03245,0.158714 -0.0298,0.282372 -0.0048,0.435992 0.02498,0.15362 0.07145,0.337166 0.114227,0.498736 0.04278,0.161569 0.08198,0.301461 0.37003,1.591128 0.288052,1.289668 0.824603,3.728365 1.089175,4.958401 0.264571,1.230037 0.257094,1.251621 0.210756,1.290279 -0.04634,0.03866 -0.130255,0.09374 -0.263848,0.172144 -0.133592,0.07841 -0.316185,0.17955 -0.45208,0.281545 -0.135895,0.101994 -0.226491,0.20584 -0.400597,0.39738 -0.174107,0.19154 -0.431539,0.471689 -0.587222,0.667662 -0.155682,0.195974 -0.209558,0.307073 -0.223627,0.413469 -0.01407,0.106395 0.01134,0.207175 0.04827,0.271891 0.03692,0.06472 0.08554,0.09307 0.215583,0.125489 0.130045,0.03242 0.340885,0.07004 0.925075,0.08205 0.58419,0.01201 1.542573,-5.36e-4 3.63112,0.0032 2.088546,0.0038 5.306654,0.02335 6.972651,0.02091 1.665996,-0.0024 1.778596,-0.02669 1.888756,-0.106182 0.11016,-0.0795 0.21921,-0.214459 0.28476,-0.345898 0.0656,-0.131439 0.0877,-0.260163 0.0837,-0.415077 -0.004,-0.154914 -0.0346,-0.335983 -0.10457,-0.500345 -0.07,-0.164362 -0.17919,-0.311956 -0.37968,-0.448862 -0.2005,-0.136907 -0.49245,-0.26328 -0.960469,-0.413469 C 99.194898,90.26798 98.550882,90.094493 98.001,89.880821 97.451118,89.667148 96.99464,89.413708 96.652804,89.068364 96.310967,88.723019 96.084148,88.285166 93.776223,80.947011 91.468298,73.608856 87.079521,59.371239 84.852066,52.166726 82.624612,44.962212 82.558417,44.79073 82.493528,44.6519 c -0.06489,-0.138829 -0.127633,-0.245266 -0.185015,-0.337853 -0.05738,-0.09259 -0.109935,-0.170433 -0.193059,-0.262239 -0.08312,-0.09181 -0.196419,-0.197171 -0.336245,-0.239715 -0.06991,-0.02127 -0.146218,-0.02815 -0.2188,-0.02413 z m -2.236268,13.251898 c 0.05005,-0.0025 0.100049,5.52e-4 0.148012,0.008 0.191849,0.02997 0.360616,0.13965 0.487474,0.321766 0.126858,0.182115 0.212,0.436755 0.783498,2.403585 0.571499,1.96683 1.628826,5.646003 2.186394,7.637096 0.557569,1.991094 0.613817,2.293204 0.608137,2.532292 -0.0057,0.239088 -0.07275,0.415239 -0.173754,0.524478 -0.101007,0.109238 -0.235645,0.151827 -1.541255,0.175362 -1.30561,0.02353 -3.782734,0.02891 -5.095151,0.01287 -1.312417,-0.01604 -1.45902,-0.05302 -1.566996,-0.156056 -0.107977,-0.10304 -0.176425,-0.272812 -0.210757,-0.429556 -0.03433,-0.156745 -0.03458,-0.299966 0.495519,-2.241095 0.530097,-1.941128 1.590335,-5.679405 2.120432,-7.548611 0.530098,-1.869205 0.530316,-1.869532 0.535739,-1.909676 0.0054,-0.04014 0.01601,-0.120365 0.06114,-0.234888 0.04513,-0.114523 0.124142,-0.264104 0.244541,-0.43921 0.120399,-0.175106 0.281686,-0.376055 0.469777,-0.501953 0.141068,-0.09442 0.297091,-0.147032 0.447254,-0.154448 z" /></g></g></g><g
         id="layer1"
         inkscape:label="Layer 3" /></g></g></svg>
