<?xml version="1.0" encoding="UTF-8" standalone="no"?>
<!-- Created with Inkscape (http://www.inkscape.org/) -->

<svg
   width="120"
   height="120"
   viewBox="0 0 120 120"
   version="1.1"
   id="svg1"
   xml:space="preserve"
   inkscape:version="1.4.1 (93de688d07, 2025-03-30)"
   sodipodi:docname="echo.svg"
   xmlns:inkscape="http://www.inkscape.org/namespaces/inkscape"
   xmlns:sodipodi="http://sodipodi.sourceforge.net/DTD/sodipodi-0.dtd"
   xmlns="http://www.w3.org/2000/svg"
   xmlns:svg="http://www.w3.org/2000/svg"><sodipodi:namedview
     id="namedview1"
     pagecolor="#1f1f1f"
     bordercolor="#000000"
     borderopacity="0.25"
     inkscape:showpageshadow="2"
     inkscape:pageopacity="0.0"
     inkscape:pagecheckerboard="0"
     inkscape:deskcolor="#3c3c3c"
     inkscape:document-units="px"
     inkscape:zoom="5.6568543"
     inkscape:cx="67.440309"
     inkscape:cy="50.116193"
     inkscape:window-width="1660"
     inkscape:window-height="1287"
     inkscape:window-x="0"
     inkscape:window-y="0"
     inkscape:window-maximized="1"
     inkscape:current-layer="g1" /><defs
     id="defs1"><inkscape:path-effect
       effect="bspline"
       id="path-effect14"
       is_visible="true"
       lpeversion="1.3"
       weight="33.333333"
       steps="2"
       helper_size="0"
       apply_no_weight="true"
       apply_with_weight="true"
       only_selected="false"
       uniform="false" /><inkscape:path-effect
       effect="fillet_chamfer"
       id="path-effect5"
       is_visible="true"
       lpeversion="1"
       nodesatellites_param="F,0,0,1,0,37.022737,0,1 @ F,0,0,1,0,36.062445,0,1 @ F,0,0,1,0,35.528974,0,1 @ F,0,0,1,0,28.991378,0,1"
       radius="0"
       unit="px"
       method="auto"
       mode="F"
       chamfer_steps="1"
       flexible="false"
       use_knot_distance="true"
       apply_no_radius="true"
       apply_with_radius="true"
       only_selected="false"
       hide_knots="false" /><inkscape:path-effect
       effect="bspline"
       id="path-effect4"
       is_visible="true"
       lpeversion="1.3"
       weight="33.333333"
       steps="2"
       helper_size="0"
       apply_no_weight="true"
       apply_with_weight="true"
       only_selected="false"
       uniform="false" /><inkscape:path-effect
       effect="bspline"
       id="path-effect3"
       is_visible="true"
       lpeversion="1.3"
       weight="33.333333"
       steps="2"
       helper_size="0"
       apply_no_weight="true"
       apply_with_weight="true"
       only_selected="false"
       uniform="false" /><inkscape:path-effect
       effect="mirror_symmetry"
       start_point="59.977887,81.781355"
       end_point="59.977887,112.27285"
       center_point="59.977887,97.027103"
       id="path-effect9"
       is_visible="true"
       lpeversion="1.2"
       lpesatellites=""
       mode="free"
       discard_orig_path="false"
       fuse_paths="false"
       oposite_fuse="false"
       split_items="false"
       split_open="false"
       link_styles="false" /><inkscape:path-effect
       effect="mirror_symmetry"
       start_point="59.944658,10.409945"
       end_point="59.944658,50.039614"
       center_point="59.944658,30.22478"
       id="path-effect2"
       is_visible="true"
       lpeversion="1.2"
       lpesatellites=""
       mode="free"
       discard_orig_path="false"
       fuse_paths="false"
       oposite_fuse="false"
       split_items="false"
       split_open="false"
       link_styles="false" /><inkscape:path-effect
       effect="mirror_symmetry"
       start_point="59.948435,66.805114"
       end_point="59.948435,107.38004"
       center_point="59.948435,87.092577"
       id="path-effect8"
       is_visible="true"
       lpeversion="1.2"
       lpesatellites=""
       mode="free"
       discard_orig_path="false"
       fuse_paths="false"
       oposite_fuse="false"
       split_items="false"
       split_open="false"
       link_styles="false" /><inkscape:path-effect
       effect="mirror_symmetry"
       start_point="60.801511,9.4541705"
       end_point="60.801511,40.169132"
       center_point="60.801511,24.811651"
       id="path-effect7"
       is_visible="true"
       lpeversion="1.2"
       lpesatellites=""
       mode="free"
       discard_orig_path="false"
       fuse_paths="false"
       oposite_fuse="false"
       split_items="false"
       split_open="false"
       link_styles="false" /><inkscape:path-effect
       effect="fillet_chamfer"
       id="path-effect13"
       is_visible="true"
       lpeversion="1"
       nodesatellites_param="F,0,0,1,0,4.7467821,0,1 @ F,0,0,1,0,4.0515277,0,1 @ F,0,0,1,0,0,0,1 @ F,0,0,1,0,2.4219461,0,1 @ F,0,0,1,0,2.4960577,0,1 @ F,0,0,1,0,0,0,1 @ F,0,0,1,0,4.1062831,0,1"
       radius="0"
       unit="px"
       method="auto"
       mode="F"
       chamfer_steps="1"
       flexible="false"
       use_knot_distance="true"
       apply_no_radius="true"
       apply_with_radius="true"
       only_selected="false"
       hide_knots="false" /><inkscape:path-effect
       effect="fillet_chamfer"
       id="path-effect12"
       is_visible="true"
       lpeversion="1"
       nodesatellites_param="F,0,0,1,0,0,0,1 @ F,0,0,1,0,0,0,1 @ F,0,0,1,0,0,0,1 @ F,0,0,1,0,0,0,1 @ F,0,0,1,0,3.627665,0,1 @ F,0,0,1,0,0,0,1 @ F,0,0,1,0,0,0,1"
       radius="0"
       unit="px"
       method="auto"
       mode="F"
       chamfer_steps="1"
       flexible="false"
       use_knot_distance="true"
       apply_no_radius="true"
       apply_with_radius="true"
       only_selected="false"
       hide_knots="false" /><inkscape:path-effect
       effect="fillet_chamfer"
       id="path-effect11"
       is_visible="true"
       lpeversion="1"
       nodesatellites_param="F,0,0,1,0,2.9729248,0,1 @ F,0,0,1,0,3.8975858,0,1 @ F,0,0,1,0,0,0,1 @ F,0,1,1,0,3.784373,0,1 @ F,0,0,1,0,1.4792147,0,1 @ F,0,0,1,0,0,0,1 @ F,0,0,1,0,3.784373,0,1"
       radius="0"
       unit="px"
       method="auto"
       mode="F"
       chamfer_steps="1"
       flexible="false"
       use_knot_distance="true"
       apply_no_radius="true"
       apply_with_radius="true"
       only_selected="false"
       hide_knots="false" /><linearGradient
       id="linearGradient6"><stop
         style="stop-color:#c88500;stop-opacity:1;"
         offset="0.07163448"
         id="stop8" /><stop
         style="stop-color:#fff300;stop-opacity:1;"
         offset="1"
         id="stop9" /></linearGradient><linearGradient
       id="linearGradient6-1"><stop
         style="stop-color:#c88500;stop-opacity:1;"
         offset="0"
         id="stop6" /><stop
         style="stop-color:#fff300;stop-opacity:1;"
         offset="1"
         id="stop7" /></linearGradient><inkscape:path-effect
       effect="fillet_chamfer"
       id="path-effect1"
       is_visible="true"
       lpeversion="1"
       nodesatellites_param="F,0,0,1,0,24.536157,0,1 @ F,0,0,1,0,24.004899,0,1 @ F,0,0,1,0,23.651152,0,1 @ F,0,0,1,0,24.380791,0,1"
       radius="0"
       unit="px"
       method="auto"
       mode="F"
       chamfer_steps="1"
       flexible="false"
       use_knot_distance="true"
       apply_no_radius="true"
       apply_with_radius="true"
       only_selected="false"
       hide_knots="false" /><linearGradient
       id="a"
       x1="7.937"
       x2="7.937"
       y1="15.081"
       y2="1.852"
       gradientTransform="scale(3.7796)"
       gradientUnits="userSpaceOnUse"><stop
         offset="0"
         stop-color="#9b6f27"
         id="stop1" /><stop
         offset="1"
         stop-color="#d0ab6a"
         id="stop2" /></linearGradient><filter
       id="b"
       width="1.216"
       height="1.216"
       x="-0.108"
       y="-0.108"
       color-interpolation-filters="sRGB"><feGaussianBlur
         stdDeviation="1.35"
         id="feGaussianBlur2" /></filter><linearGradient
       id="linearGradient31"
       x1=".5002"
       x2=".5002"
       y2="1"
       gradientTransform="matrix(244,0,0,228,5.986,12)"
       gradientUnits="userSpaceOnUse"><stop
         stop-color="#ebdbb2"
         stop-opacity=".2"
         offset="0"
         id="stop1-5" /><stop
         stop-color="#ebdbb2"
         stop-opacity=".05"
         offset=".1"
         id="stop2-6" /><stop
         stop-opacity="0"
         offset=".7036"
         id="stop3" /><stop
         stop-opacity=".1"
         offset=".8975"
         id="stop4" /><stop
         stop-opacity=".2"
         offset="1"
         id="stop5" /></linearGradient><inkscape:path-effect
       effect="bspline"
       id="path-effect22"
       is_visible="true"
       lpeversion="1.3"
       weight="33.333333"
       steps="2"
       helper_size="0"
       apply_no_weight="true"
       apply_with_weight="true"
       only_selected="false"
       uniform="false" /><inkscape:path-effect
       effect="bspline"
       id="path-effect21"
       is_visible="true"
       lpeversion="1.3"
       weight="33.333333"
       steps="2"
       helper_size="0"
       apply_no_weight="true"
       apply_with_weight="true"
       only_selected="false"
       uniform="false" /><inkscape:path-effect
       effect="bspline"
       id="path-effect20"
       is_visible="true"
       lpeversion="1.3"
       weight="33.333333"
       steps="2"
       helper_size="0"
       apply_no_weight="true"
       apply_with_weight="true"
       only_selected="false"
       uniform="false" /><inkscape:path-effect
       effect="bspline"
       id="path-effect19"
       is_visible="true"
       lpeversion="1.3"
       weight="33.333333"
       steps="2"
       helper_size="0"
       apply_no_weight="true"
       apply_with_weight="true"
       only_selected="false"
       uniform="false" /><inkscape:path-effect
       effect="bspline"
       id="path-effect18"
       is_visible="true"
       lpeversion="1.3"
       weight="33.333333"
       steps="2"
       helper_size="0"
       apply_no_weight="true"
       apply_with_weight="true"
       only_selected="false"
       uniform="false" /><inkscape:path-effect
       effect="bspline"
       id="path-effect17"
       is_visible="true"
       lpeversion="1.3"
       weight="33.333333"
       steps="2"
       helper_size="0"
       apply_no_weight="true"
       apply_with_weight="true"
       only_selected="false"
       uniform="false" /><inkscape:path-effect
       effect="bspline"
       id="path-effect16"
       is_visible="true"
       lpeversion="1.3"
       weight="33.333333"
       steps="2"
       helper_size="0"
       apply_no_weight="true"
       apply_with_weight="true"
       only_selected="false"
       uniform="false" /><inkscape:path-effect
       effect="bspline"
       id="path-effect15"
       is_visible="true"
       lpeversion="1.3"
       weight="33.333333"
       steps="2"
       helper_size="0"
       apply_no_weight="true"
       apply_with_weight="true"
       only_selected="false"
       uniform="false" /><inkscape:path-effect
       effect="bspline"
       id="path-effect14-0"
       is_visible="true"
       lpeversion="1.3"
       weight="33.333333"
       steps="2"
       helper_size="0"
       apply_no_weight="true"
       apply_with_weight="true"
       only_selected="false"
       uniform="false" /><inkscape:path-effect
       effect="bspline"
       id="path-effect10"
       is_visible="true"
       lpeversion="1.3"
       weight="33.333333"
       steps="2"
       helper_size="0"
       apply_no_weight="true"
       apply_with_weight="true"
       only_selected="false"
       uniform="false" /><inkscape:path-effect
       effect="bspline"
       id="path-effect5-5"
       is_visible="true"
       lpeversion="1.3"
       weight="33.333333"
       steps="2"
       helper_size="0"
       apply_no_weight="true"
       apply_with_weight="true"
       only_selected="false"
       uniform="false" /><inkscape:path-effect
       effect="bspline"
       id="path-effect4-5"
       is_visible="true"
       lpeversion="1.3"
       weight="33.333333"
       steps="2"
       helper_size="0"
       apply_no_weight="true"
       apply_with_weight="true"
       only_selected="false"
       uniform="false" /><inkscape:path-effect
       effect="bspline"
       id="path-effect3-2"
       is_visible="true"
       lpeversion="1.3"
       weight="33.333333"
       steps="2"
       helper_size="0"
       apply_no_weight="true"
       apply_with_weight="true"
       only_selected="false"
       uniform="false" /><inkscape:path-effect
       effect="mirror_symmetry"
       start_point="59.977887,81.781355"
       end_point="59.977887,112.27285"
       center_point="59.977887,97.027103"
       id="path-effect9-9"
       is_visible="true"
       lpeversion="1.2"
       lpesatellites=""
       mode="free"
       discard_orig_path="false"
       fuse_paths="false"
       oposite_fuse="false"
       split_items="false"
       split_open="false"
       link_styles="false" /><inkscape:path-effect
       effect="mirror_symmetry"
       start_point="59.944658,10.409945"
       end_point="59.944658,50.039614"
       center_point="59.944658,30.22478"
       id="path-effect2-0"
       is_visible="true"
       lpeversion="1.2"
       lpesatellites=""
       mode="free"
       discard_orig_path="false"
       fuse_paths="false"
       oposite_fuse="false"
       split_items="false"
       split_open="false"
       link_styles="false" /><inkscape:path-effect
       effect="mirror_symmetry"
       start_point="59.948435,66.805114"
       end_point="59.948435,107.38004"
       center_point="59.948435,87.092577"
       id="path-effect8-2"
       is_visible="true"
       lpeversion="1.2"
       lpesatellites=""
       mode="free"
       discard_orig_path="false"
       fuse_paths="false"
       oposite_fuse="false"
       split_items="false"
       split_open="false"
       link_styles="false" /><inkscape:path-effect
       effect="mirror_symmetry"
       start_point="60.801511,9.4541705"
       end_point="60.801511,40.169132"
       center_point="60.801511,24.811651"
       id="path-effect7-8"
       is_visible="true"
       lpeversion="1.2"
       lpesatellites=""
       mode="free"
       discard_orig_path="false"
       fuse_paths="false"
       oposite_fuse="false"
       split_items="false"
       split_open="false"
       link_styles="false" /><inkscape:path-effect
       effect="fillet_chamfer"
       id="path-effect13-3"
       is_visible="true"
       lpeversion="1"
       nodesatellites_param="F,0,0,1,0,4.7467821,0,1 @ F,0,0,1,0,4.0515277,0,1 @ F,0,0,1,0,0,0,1 @ F,0,0,1,0,2.4219461,0,1 @ F,0,0,1,0,2.4960577,0,1 @ F,0,0,1,0,0,0,1 @ F,0,0,1,0,4.1062831,0,1"
       radius="0"
       unit="px"
       method="auto"
       mode="F"
       chamfer_steps="1"
       flexible="false"
       use_knot_distance="true"
       apply_no_radius="true"
       apply_with_radius="true"
       only_selected="false"
       hide_knots="false" /><inkscape:path-effect
       effect="fillet_chamfer"
       id="path-effect12-8"
       is_visible="true"
       lpeversion="1"
       nodesatellites_param="F,0,0,1,0,0,0,1 @ F,0,0,1,0,0,0,1 @ F,0,0,1,0,0,0,1 @ F,0,0,1,0,0,0,1 @ F,0,0,1,0,3.627665,0,1 @ F,0,0,1,0,0,0,1 @ F,0,0,1,0,0,0,1"
       radius="0"
       unit="px"
       method="auto"
       mode="F"
       chamfer_steps="1"
       flexible="false"
       use_knot_distance="true"
       apply_no_radius="true"
       apply_with_radius="true"
       only_selected="false"
       hide_knots="false" /><inkscape:path-effect
       effect="fillet_chamfer"
       id="path-effect11-0"
       is_visible="true"
       lpeversion="1"
       nodesatellites_param="F,0,0,1,0,2.9729248,0,1 @ F,0,0,1,0,3.8975858,0,1 @ F,0,0,1,0,0,0,1 @ F,0,1,1,0,3.784373,0,1 @ F,0,0,1,0,1.4792147,0,1 @ F,0,0,1,0,0,0,1 @ F,0,0,1,0,3.784373,0,1"
       radius="0"
       unit="px"
       method="auto"
       mode="F"
       chamfer_steps="1"
       flexible="false"
       use_knot_distance="true"
       apply_no_radius="true"
       apply_with_radius="true"
       only_selected="false"
       hide_knots="false" /><inkscape:path-effect
       effect="fillet_chamfer"
       id="path-effect1-9"
       is_visible="true"
       lpeversion="1"
       nodesatellites_param="F,0,0,1,0,24.536157,0,1 @ F,0,0,1,0,24.004899,0,1 @ F,0,0,1,0,23.651152,0,1 @ F,0,0,1,0,24.380791,0,1"
       radius="0"
       unit="px"
       method="auto"
       mode="F"
       chamfer_steps="1"
       flexible="false"
       use_knot_distance="true"
       apply_no_radius="true"
       apply_with_radius="true"
       only_selected="false"
       hide_knots="false" /><filter
       id="b-5"
       width="1.216"
       height="1.216"
       x="-0.108"
       y="-0.108"
       color-interpolation-filters="sRGB"><feGaussianBlur
         stdDeviation="1.35"
         id="feGaussianBlur2-4" /></filter></defs><g
     inkscape:groupmode="layer"
     id="layer3"
     inkscape:label="base"><path
       d="m 76.476937,9.2332248 c 32.063223,0 37.852423,6.6798392 37.852423,38.7430672 v 24.938066 c 0,31.172592 -5.7892,37.852422 -37.852423,37.852422 H 43.523063 c -32.063227,0 -37.8524214,-6.67983 -37.8524214,-37.852422 V 47.976292 c 0,-32.063228 5.7891944,-38.7430672 37.8524214,-38.7430672 z"
       fill="#ebdbb2"
       style="display:inline;opacity:1;isolation:isolate;stroke-width:0.445323"
       id="path5" /><g
       id="g1"
       transform="matrix(0.79722424,0,0,0.79722424,11.978429,12.305175)"><g
         id="layer1"
         inkscape:label="Layer 3"><path
           style="fill:#458588;fill-opacity:1;stroke-width:26.4756"
           d="M 72.612097,18.726534 H 39.638749 L 18.646632,39.718651 v 39.38039 l 20.517051,20.51705 H 79.493439 L 100.28479,78.824741 V 47.24952 L 83.631105,63.903204 V 72.84562 L 72.591399,83.885326 H 46.487594 L 35.11624,72.513971 V 46.045387 L 46.462482,34.699144 h 9.764486 L 61.2582,29.667912 Z"
           id="path1" /><circle
           style="fill:#ebdbb2;fill-opacity:1;stroke-width:1.25435223;stroke:#458588;stroke-opacity:1;stroke-dasharray:none"
           id="path2"
           cx="56.479862"
           cy="63.475182"
           r="8.3536835" /><path
           style="display:inline;fill:#98971a;fill-opacity:1;stroke-width:26.4756"
           d="m 63.837193,37.607437 c -2.330675,2.250125 -6.992023,6.750377 -10.439617,10.111354 -3.447594,3.360977 -5.681342,5.582591 -7.112036,7.324488 -1.430694,1.741897 -2.058264,3.003982 -2.436811,4.477365 -0.378548,1.473382 -0.508056,3.157969 -0.493732,4.623219 0.01432,1.465249 0.172475,2.711077 0.51054,3.885162 0.338065,1.174085 0.856019,2.276359 1.479963,3.18539 0.623944,0.90903 1.353838,1.624767 2.391313,2.398862 1.037475,0.774096 2.382463,1.606503 3.640307,2.174403 1.257844,0.5679 2.428471,0.871265 3.425315,1.010333 0.996844,0.139068 1.819848,0.113835 3.031813,-0.07563 1.211965,-0.189467 2.81281,-0.543154 4.285775,-1.279653 1.472964,-0.736499 2.817962,-1.855758 5.863321,-4.670639 3.045359,-2.814881 7.790861,-7.325181 11.767445,-11.13841 3.976583,-3.813229 7.184023,-6.929172 8.817625,-8.620871 1.633602,-1.691699 1.693298,-1.959081 1.699217,-2.229239 0.0059,-0.270158 -0.04194,-0.543077 -0.233615,-0.839198 -0.191677,-0.296122 -0.52716,-0.615431 -0.820331,-0.757182 -0.293171,-0.14175 -0.544016,-0.105937 -1.059407,0.183266 -0.515391,0.289203 -1.295291,0.831774 -5.490454,4.840306 -4.195163,4.008533 -11.805268,11.482717 -15.928198,15.415921 -4.122929,3.933205 -4.758505,4.325265 -5.272223,4.662606 -0.513718,0.33734 -0.905549,0.619942 -1.53012,0.792565 -0.62457,0.172624 -1.481836,0.23526 -2.537272,0.260597 -1.055435,0.02534 -2.308971,0.01337 -3.399168,-0.182282 -1.090198,-0.195656 -2.016994,-0.574989 -2.893709,-1.127119 -0.876714,-0.55213 -1.703295,-1.27702 -2.412913,-2.148079 -0.709619,-0.871058 -1.302235,-1.888231 -1.705837,-2.752269 -0.403602,-0.864037 -0.61817,-1.574892 -0.718157,-2.46072 -0.09999,-0.885827 -0.08539,-1.946572 0.027,-2.931649 0.112389,-0.985077 0.322564,-1.89443 0.797659,-2.875343 0.475095,-0.980913 1.215078,-2.033325 2.173249,-3.188008 0.958171,-1.154683 2.13447,-2.411566 3.810127,-3.987167 1.675656,-1.575601 3.850559,-3.46982 6.465318,-5.885146 2.614759,-2.415326 5.669207,-5.351603 7.232452,-6.859332 1.563245,-1.507728 1.635218,-1.586841 1.677373,-1.738465 0.04216,-0.151624 0.05449,-0.375748 0.01413,-0.646769 -0.04036,-0.271021 -0.133402,-0.588922 -0.334525,-0.83303 -0.201124,-0.244109 -0.510312,-0.414411 -0.786295,-0.503697 -0.275982,-0.08929 -0.518739,-0.09755 -0.709012,-0.06173 -0.190273,0.03583 -0.328049,0.115744 -0.396939,0.155703 -0.06889,0.03996 -0.0689,0.03996 -2.39957,2.290085 z"
           id="path3"
           inkscape:path-effect="#path-effect5-5"
           inkscape:original-d="m 66.167867,35.357311 c -4.661349,4.500251 -9.322698,9.000502 -13.984046,13.500754 -2.233839,2.221703 -4.467587,4.443317 -6.701381,6.664976 -0.627594,1.262135 -1.255164,2.52422 -1.882746,3.78633 -0.129513,1.684655 -0.259021,3.369242 -0.388531,5.053863 0.158158,1.245878 0.316309,2.491706 0.474464,3.737559 0.517975,1.102317 1.035929,2.204591 1.553893,3.306886 0.729924,0.715766 1.459818,1.431503 2.189727,2.147254 1.345041,0.83244 2.690029,1.664847 4.035044,2.497271 1.170673,0.303376 2.3413,0.606741 3.511951,0.910111 0.823037,-0.02523 1.646041,-0.05046 2.469062,-0.0757 1.600909,-0.353701 3.201754,-0.707388 4.802631,-1.061082 1.345052,-1.119304 2.69005,-2.238563 4.035075,-3.357844 4.745693,-4.510481 9.491195,-9.020781 14.236793,-13.531171 3.207569,-3.116068 6.415009,-6.232011 9.622514,-9.348016 0.0597,-0.267393 0.119395,-0.534775 0.179092,-0.802163 -0.04786,-0.272928 -0.09572,-0.545846 -0.143575,-0.818769 -0.335495,-0.319321 -0.670978,-0.63863 -1.006466,-0.957945 -0.250855,0.03581 -0.501699,0.07163 -0.752549,0.10744 -0.779932,0.542593 -1.559832,1.085164 -2.339749,1.627746 -7.610409,7.474483 -15.220514,14.948667 -22.830771,22.423 -0.635602,0.392076 -1.271178,0.784136 -1.906767,1.176204 -0.391847,0.282613 -0.783678,0.565215 -1.175518,0.847823 -0.857301,0.06264 -1.714567,0.125275 -2.571851,0.187912 -1.253587,-0.01197 -2.507123,-0.02393 -3.760685,-0.03589 -0.926833,-0.379348 -1.853629,-0.758682 -2.780444,-1.138022 -0.826614,-0.724919 -1.653195,-1.449809 -2.479793,-2.174714 -0.592639,-1.017212 -1.185255,-2.034385 -1.777882,-3.051577 -0.214577,-0.710883 -0.429145,-1.421738 -0.643717,-2.132606 0.0146,-1.060787 0.02919,-2.121532 0.04379,-3.182297 0.210182,-0.909389 0.420356,-1.818742 0.630535,-2.728113 0.740012,-1.052455 1.479995,-2.104867 2.219992,-3.1573 1.176345,-1.256933 2.352644,-2.513816 3.528966,-3.770723 2.174991,-1.894295 4.349894,-3.788514 6.524842,-5.682771 3.05457,-2.936395 6.109018,-5.872673 9.163528,-8.809009 0.07198,-0.07912 0.143953,-0.158233 0.21593,-0.237349 0.01233,-0.224132 0.02466,-0.448256 0.037,-0.672384 -0.09305,-0.317914 -0.186092,-0.635815 -0.279139,-0.953723 -0.309201,-0.170309 -0.618389,-0.340611 -0.927584,-0.510916 -0.242769,-0.0083 -0.485527,-0.01653 -0.728291,-0.0248 -0.137782,0.07992 -0.275558,0.159837 -0.413337,0.239755 z" /><path
           style="fill:#ebdbb2;fill-opacity:1;stroke-width:26.4756"
           d="m 68.77278,32.594587 c 0.577608,-0.515638 1.732823,-1.546913 2.479954,-2.151535 0.74713,-0.604621 1.086163,-0.782583 1.400379,-0.854933 0.314217,-0.07235 0.603598,-0.03909 0.882863,0.09893 0.279264,0.138017 0.548395,0.380778 0.713947,0.662796 0.165553,0.282017 0.227519,0.603274 0.108487,0.999092 -0.119031,0.395819 -0.419049,0.866173 -1.032096,1.495571 -0.613046,0.629398 -1.539079,1.4178 -2.197464,1.853254 -0.658385,0.435455 -1.049089,0.517944 -1.422636,0.496436 -0.373548,-0.02151 -0.729918,-0.147008 -0.987118,-0.301831 -0.2572,-0.154822 -0.415216,-0.338957 -0.506956,-0.51426 -0.09174,-0.175304 -0.1172,-0.341765 -0.127773,-0.510384 -0.01057,-0.16862 -0.0063,-0.339387 0.01469,-0.465998 0.02095,-0.12661 0.05853,-0.209052 0.07732,-0.250274 0.01879,-0.04122 0.01879,-0.04122 0.596401,-0.556862 z"
           id="path10"
           inkscape:path-effect="#path-effect10"
           inkscape:original-d="m 68.195172,33.110225 c 1.155216,-1.031276 2.310431,-2.062551 3.465646,-3.093826 0.339046,-0.177969 0.678079,-0.35593 1.017119,-0.533895 0.289393,0.03326 0.578774,0.06653 0.868162,0.09979 0.269141,0.24277 0.538272,0.485531 0.807408,0.728296 0.06197,0.32127 0.123935,0.642527 0.185902,0.96379 -0.30003,0.470374 -0.600048,0.940728 -0.900072,1.411091 -0.926069,0.788433 -1.852102,1.576835 -2.778153,2.365252 -0.390719,0.08249 -0.781423,0.164981 -1.172134,0.247471 -0.356384,-0.125505 -0.712754,-0.251006 -1.069131,-0.376509 -0.158023,-0.184142 -0.316039,-0.368277 -0.474059,-0.552416 -0.02546,-0.166468 -0.05092,-0.332929 -0.07638,-0.499393 0.0043,-0.170775 0.0086,-0.341543 0.01294,-0.512315 0.03758,-0.08245 0.07517,-0.164889 0.112751,-0.247334 z" /><path
           style="fill:#cc241d;fill-opacity:1;stroke-width:26.4756"
           d="m 61.866805,45.966436 c 2.905227,-2.768654 8.71568,-8.305964 11.682773,-11.083079 2.967092,-2.777115 3.090819,-2.794035 3.294213,-2.704722 0.203395,0.08931 0.486443,0.28485 0.745555,0.557937 0.259112,0.273087 0.494275,0.623705 0.590827,0.967283 0.09655,0.343578 0.05449,0.680096 -2.745225,3.529419 -2.799717,2.849324 -8.35687,8.211231 -11.257631,10.975269 -2.900761,2.764037 -3.145011,2.930091 -3.361519,3.01735 -0.216508,0.08726 -0.405258,0.09572 -0.67658,-0.0052 -0.271322,-0.100939 -0.625195,-0.31127 -0.861387,-0.483744 -0.236192,-0.172473 -0.35469,-0.30708 -0.426628,-0.465332 -0.07194,-0.158251 -0.09731,-0.340137 -0.110004,-0.522805 -0.01269,-0.182668 -0.01269,-0.366108 0.02616,-0.535189 0.03885,-0.169081 0.116536,-0.323794 0.155381,-0.401152 0.03885,-0.07736 0.03884,-0.07736 2.944067,-2.846013 z"
           id="path11"
           inkscape:path-effect="#path-effect14-0"
           inkscape:original-d="m 58.961579,48.735091 c 5.810453,-5.537309 11.620906,-11.074619 17.43136,-16.611929 0.123731,-0.01692 0.247458,-0.03384 0.371188,-0.05076 0.283059,0.195545 0.566107,0.391083 0.84916,0.586625 0.235171,0.350632 0.470333,0.70125 0.7055,1.051874 -0.04206,0.336532 -0.08412,0.67305 -0.126182,1.009575 -5.557374,5.362122 -11.114527,10.724029 -16.67179,16.086044 -0.244259,0.16606 -0.488509,0.332114 -0.732764,0.498171 -0.188759,0.0085 -0.377511,0.01692 -0.566267,0.02538 -0.353888,-0.210339 -0.707761,-0.42067 -1.061642,-0.631005 -0.118503,-0.134612 -0.237001,-0.269219 -0.355501,-0.403829 -0.02538,-0.181893 -0.05076,-0.363778 -0.07613,-0.545667 0,-0.183448 0,-0.366888 0,-0.550333 0.07769,-0.154718 0.155382,-0.30943 0.233073,-0.464146 z" /><path
           style="fill:#d79921;fill-opacity:1;stroke-width:26.4756"
           d="m 79.303012,29.246473 c 0.636858,-0.601502 1.910572,-1.804507 2.629122,-2.431444 0.718549,-0.626937 0.881927,-0.677803 1.137086,-0.655258 0.25516,0.02255 0.602081,0.118498 0.879127,0.28943 0.277047,0.170933 0.484201,0.416834 0.583729,0.715244 0.09953,0.298411 0.09142,0.649313 -0.305555,1.264361 -0.396979,0.615048 -1.182801,1.4942 -1.906121,2.2098 -0.72332,0.715601 -1.384094,1.26761 -1.92483,1.482921 -0.540736,0.215312 -0.961403,0.09392 -1.2828,-0.129332 -0.321398,-0.22325 -0.543509,-0.548343 -0.625887,-0.856215 -0.08238,-0.307871 -0.02502,-0.598503 0.02814,-0.810301 0.05317,-0.211797 0.102146,-0.34475 0.126635,-0.411227 0.02449,-0.06648 0.02449,-0.06648 0.661349,-0.667979 z"
           id="path14"
           inkscape:path-effect="#path-effect15"
           inkscape:original-d="m 78.666155,29.847976 c 1.273715,-1.203005 2.547429,-2.40601 3.821144,-3.609015 0.163384,-0.05087 0.326762,-0.101736 0.490143,-0.152603 0.346937,0.09596 0.693859,0.19191 1.040789,0.287866 0.207163,0.24591 0.414317,0.491811 0.621476,0.737716 -0.0081,0.350916 -0.0162,0.701818 -0.02431,1.052727 -0.785855,0.879187 -1.571677,1.758339 -2.357516,2.637508 -0.660801,0.552032 -1.321575,1.104041 -1.982363,1.656061 -0.420684,-0.121397 -0.841351,-0.24279 -1.262026,-0.364185 -0.22212,-0.325106 -0.444231,-0.650199 -0.666346,-0.975298 0.05736,-0.290644 0.114714,-0.581276 0.172071,-0.871914 0.04898,-0.132957 0.09796,-0.265909 0.146935,-0.398863 z" /><path
           style="fill:#cc241d;fill-opacity:1;stroke-width:26.4756"
           d="m 70.362754,44.41471 c -0.423408,0.396812 -1.270224,1.190436 -1.693633,1.669941 -0.423408,0.479505 -0.423408,0.644883 -0.405608,0.902161 0.0178,0.257277 0.0534,0.606437 0.171725,0.894222 0.118327,0.287784 0.319376,0.514177 0.578384,0.641065 0.259008,0.126887 0.575958,0.154263 1.145926,-0.144419 0.569968,-0.298683 1.392913,-0.9234 1.890668,-1.42917 0.497755,-0.505771 0.670296,-0.892567 0.701423,-1.291271 0.03113,-0.398704 -0.07916,-0.809292 -0.323738,-1.08349 -0.24458,-0.274198 -0.623436,-0.411992 -0.919443,-0.481907 -0.296007,-0.06992 -0.509148,-0.07195 -0.615722,-0.07296 -0.106574,-0.001 -0.106574,-9.79e-4 -0.529982,0.395833 z"
           id="path15"
           inkscape:path-effect="#path-effect16"
           inkscape:original-d="m 70.786162,44.017898 c -0.846816,0.793624 -1.693632,1.587249 -2.540449,2.380873 0,0.165385 0,0.330763 0,0.496144 0.0356,0.349174 0.0712,0.698334 0.106795,1.0475 0.201057,0.226403 0.402106,0.452796 0.603159,0.679194 0.316963,0.02738 0.633913,0.05475 0.95087,0.08213 0.822979,-0.624742 1.645924,-1.249459 2.468886,-1.874188 0.172548,-0.386812 0.34509,-0.773608 0.517634,-1.160412 -0.11029,-0.410604 -0.220576,-0.821192 -0.330865,-1.231788 -0.378871,-0.1378 -0.757727,-0.275594 -1.13659,-0.413391 -0.213151,-0.002 -0.426293,-0.004 -0.63944,-0.0061 z" /><path
           style="fill:#ebdbb2;fill-opacity:1;stroke-width:26.4756"
           d="m 73.020725,42.244327 c 0,0 0,0 0,0 1.45904,-1.45904 2.91808,-2.918081 3.726204,-3.686908 0.808123,-0.768828 0.965319,-0.847439 1.183069,-0.898677 0.21775,-0.05124 0.496037,-0.0751 0.772594,-0.02568 0.276556,0.04942 0.551366,0.172132 0.700925,0.362543 0.14956,0.190411 0.173863,0.448514 0.191823,0.724375 0.01796,0.275861 0.02958,0.569463 -0.731285,1.47674 -0.76086,0.907278 -2.294137,2.428163 -3.304093,3.18689 -1.009955,0.758728 -1.496539,0.755268 -1.816518,0.724956 -0.319979,-0.03031 -0.473338,-0.08748 -0.596427,-0.250032 -0.123089,-0.162557 -0.215901,-0.430495 -0.256327,-0.630391 -0.04043,-0.199896 -0.02846,-0.331739 0.0019,-0.484369 0.0304,-0.15263 0.07924,-0.326038 0.103665,-0.412744 0.02442,-0.08671 0.02443,-0.08671 0.02443,-0.08671 z"
           id="path16"
           inkscape:path-effect="#path-effect17"
           inkscape:original-d="m 73.020725,42.244327 c 0,0 0,0 0,0 0,0 2.91808,-2.918081 4.377121,-4.377121 0.157204,-0.07862 0.314402,-0.157226 0.471604,-0.235839 0.278298,-0.02386 0.556585,-0.04773 0.834877,-0.07159 0.274821,0.122712 0.549631,0.24542 0.824446,0.36813 0.0243,0.258112 0.04861,0.516215 0.07291,0.774322 0.01162,0.293615 0.02324,0.587217 0.03485,0.880825 -1.533338,1.520947 -3.066615,3.041832 -4.599922,4.562747 -0.486604,-0.0035 -0.973188,-0.0069 -1.459783,-0.01038 -0.153364,-0.05716 -0.306722,-0.114327 -0.460083,-0.17149 -0.09282,-0.26795 -0.185629,-0.535889 -0.278444,-0.803833 0.01196,-0.131848 0.02393,-0.263691 0.03589,-0.395536 0.04884,-0.173416 0.09768,-0.346824 0.146526,-0.520236 z" /><path
           style="fill:#ebdbb2;fill-opacity:1;stroke-width:26.4756"
           d="m 90.800421,45.042112 c 0.04318,-0.03594 0.129548,-0.107805 0.740984,-0.751576 0.611435,-0.643772 1.747895,-1.859397 2.38062,-2.484992 0.632726,-0.625595 0.76169,-0.661135 1.00819,-0.592449 0.2465,0.06869 0.610519,0.241592 0.824695,0.44964 0.214176,0.208048 0.278498,0.451222 0.268063,0.720848 -0.01043,0.269626 -0.09563,0.565688 -0.657699,1.240227 -0.562072,0.67454 -1.600981,1.72751 -2.270154,2.324526 -0.669174,0.597017 -0.968578,0.738052 -1.252268,0.75514 -0.283691,0.01709 -0.55165,-0.08977 -0.743628,-0.235479 -0.191978,-0.145711 -0.307966,-0.330264 -0.380273,-0.48808 -0.07231,-0.157816 -0.10093,-0.288889 -0.113088,-0.39453 -0.01216,-0.105641 -0.0079,-0.185846 0.02012,-0.266166 0.02797,-0.08032 0.07961,-0.160745 0.105429,-0.200959 0.02582,-0.04021 0.02582,-0.04021 0.06901,-0.07615 z"
           id="path17"
           inkscape:path-effect="#path-effect18"
           inkscape:original-d="m 90.757237,45.078048 c 0.08637,-0.07187 0.172732,-0.143741 0.259098,-0.215611 1.136505,-1.215673 2.272965,-2.431298 3.409447,-3.646947 0.128969,-0.03554 0.257933,-0.07108 0.386899,-0.106622 0.364034,0.172913 0.728053,0.345819 1.09208,0.518729 0.06433,0.243185 0.128647,0.48636 0.192971,0.729541 -0.08519,0.296072 -0.170387,0.592133 -0.25558,0.8882 -1.03895,1.053012 -2.077859,2.105982 -3.116789,3.158973 -0.299417,0.141041 -0.598821,0.282077 -0.898232,0.423116 -0.26797,-0.106862 -0.535929,-0.21372 -0.803893,-0.32058 -0.115992,-0.184561 -0.23198,-0.369114 -0.34797,-0.553671 -0.02862,-0.131076 -0.05725,-0.262147 -0.08587,-0.39322 0.0043,-0.08021 0.0086,-0.160416 0.01292,-0.240624 0.05164,-0.08043 0.103277,-0.160856 0.154915,-0.241284 z" /><path
           style="fill:#d79921;fill-opacity:1;stroke-width:26.4756"
           d="m 72.070389,56.119458 c 3.186514,-3.107109 9.468729,-9.251941 12.717541,-12.349357 3.248811,-3.097415 3.464209,-3.147411 3.729244,-3.119703 0.265035,0.02771 0.579688,0.133117 0.858481,0.330955 0.278794,0.197838 0.521713,0.488091 0.587065,0.840085 0.06535,0.351994 -0.04686,0.765707 -0.993254,1.766258 -0.946389,1.000551 -2.72688,2.587868 -5.925595,5.646809 -3.198715,3.058942 -7.815433,7.589295 -10.238582,9.88952 -2.423149,2.300224 -2.652627,2.370227 -2.86166,2.376272 -0.209033,0.006 -0.397604,-0.05187 -0.612936,-0.189166 -0.215333,-0.1373 -0.45741,-0.353978 -0.590351,-0.626802 -0.132941,-0.272825 -0.156741,-0.60178 -0.1449,-0.83097 0.01184,-0.22919 0.05932,-0.358606 0.128474,-0.45801 0.06915,-0.0994 0.159958,-0.168783 3.346473,-3.275891 z"
           id="path18"
           inkscape:path-effect="#path-effect19"
           inkscape:original-d="m 68.974688,59.157182 c 6.282215,-6.144833 12.56443,-12.289665 18.846645,-18.434498 0.215408,-0.05 0.430807,-0.09999 0.646211,-0.149991 0.314665,0.105413 0.629318,0.210822 0.943976,0.316233 0.242929,0.290265 0.485848,0.580518 0.728771,0.870776 -0.11222,0.41373 -0.224435,0.827443 -0.336652,1.241164 -1.780562,1.587381 -3.561053,3.174698 -5.34158,4.762047 -4.616903,4.530534 -9.233621,9.060887 -13.850431,13.59133 -0.229487,0.07001 -0.458966,0.140009 -0.688449,0.210014 -0.188581,-0.05792 -0.377154,-0.115827 -0.565732,-0.17374 -0.242087,-0.216686 -0.484164,-0.433364 -0.726246,-0.650046 -0.0238,-0.328967 -0.0476,-0.657922 -0.0714,-0.986883 0.04748,-0.12942 0.09496,-0.258836 0.142446,-0.388254 0.09082,-0.06939 0.181627,-0.138768 0.272441,-0.208152 z" /><path
           style="fill:#98971a;fill-opacity:1;stroke-width:26.4756"
           d="m 70.323698,51.125996 c 1.250675,-1.18427 3.752025,-3.552811 5.194035,-4.898171 1.44201,-1.345361 1.824666,-1.667528 2.147712,-1.884463 0.323047,-0.216935 0.586467,-0.328628 0.815655,-0.355734 0.229189,-0.02711 0.424134,0.03037 0.665053,0.209661 0.24092,0.179289 0.527799,0.480376 0.676621,0.819887 0.148821,0.33951 0.159577,0.717423 -1.112805,2.14814 -1.272382,1.430717 -3.8278,3.91413 -5.294111,5.319156 -1.466311,1.405025 -1.843448,1.731599 -2.175799,1.924656 -0.332351,0.193056 -0.619897,0.252587 -0.923339,0.234743 -0.303443,-0.01784 -0.622761,-0.113057 -0.859333,-0.303517 -0.236572,-0.190459 -0.390384,-0.47615 -0.475729,-0.696123 -0.08534,-0.219973 -0.102218,-0.374215 -0.07558,-0.585591 0.02664,-0.211375 0.09679,-0.479872 0.131865,-0.614122 0.03508,-0.134251 0.03508,-0.134251 1.285753,-1.318522 z"
           id="path19"
           inkscape:path-effect="#path-effect20"
           inkscape:original-d="m 69.073023,52.310267 c 2.50135,-2.368541 5.0027,-4.737082 7.50405,-7.105623 0.38267,-0.32218 0.765326,-0.644347 1.147989,-0.966521 0.26343,-0.111696 0.52685,-0.223388 0.790275,-0.335083 0.194952,0.05748 0.389897,0.114959 0.584845,0.172439 0.286891,0.301099 0.573771,0.602186 0.860656,0.90328 0.01076,0.377927 0.02152,0.75584 0.03227,1.13376 -2.555521,2.483514 -5.110939,4.966928 -7.666409,7.450391 -0.377152,0.326587 -0.754289,0.653161 -1.131434,0.979742 -0.287557,0.05953 -0.575103,0.119063 -0.862655,0.178594 -0.319332,-0.09522 -0.638651,-0.190432 -0.957976,-0.285648 -0.153819,-0.285703 -0.307631,-0.571394 -0.461447,-0.857091 -0.01687,-0.154249 -0.03375,-0.308491 -0.05062,-0.462737 0.07015,-0.268506 0.140302,-0.537002 0.210453,-0.805503 z" /><path
           style="fill:#98971a;fill-opacity:1;stroke-width:26.4756"
           d="m 80.963692,41.270739 c 0.884804,-1.010981 2.576779,-2.731365 3.567704,-3.71712 0.990925,-0.985754 1.280789,-1.236869 1.508716,-1.389579 0.227927,-0.15271 0.393904,-0.207007 0.628014,-0.170934 0.23411,0.03607 0.536337,0.16251 0.761682,0.36683 0.225345,0.204319 0.373796,0.486506 0.39379,0.851679 0.01999,0.365173 -0.08847,0.81331 -0.504595,1.428757 -0.416127,0.615447 -1.13989,1.398163 -1.90633,2.123451 -0.766439,0.725288 -1.57551,1.393106 -2.254919,1.940881 -0.679409,0.547774 -1.229119,0.975475 -1.677653,1.137588 -0.448535,0.162113 -0.79587,0.05863 -1.038421,-0.145205 -0.24255,-0.203839 -0.380304,-0.508023 -0.410365,-0.81091 -0.03006,-0.302887 0.04757,-0.604458 0.932377,-1.615438 z"
           id="path20"
           inkscape:path-effect="#path-effect21"
           inkscape:original-d="m 80.156522,41.980142 c 1.691974,-1.720384 3.383949,-3.440768 5.075923,-5.161152 0.289876,-0.251125 0.57974,-0.50224 0.86961,-0.75336 0.165984,-0.0543 0.331961,-0.108597 0.497941,-0.162895 0.30224,0.126443 0.604467,0.252882 0.906701,0.379322 0.148456,0.282198 0.296907,0.564385 0.44536,0.846577 -0.108466,0.448154 -0.216927,0.896291 -0.32539,1.344437 -0.723792,0.782747 -1.447554,1.565464 -2.171331,2.348196 -0.809102,0.667844 -1.618173,1.335662 -2.427259,2.003493 -0.549732,0.427718 -1.099442,0.855419 -1.649163,1.283129 -0.347348,-0.103484 -0.694683,-0.206964 -1.042025,-0.310446 -0.137759,-0.304195 -0.275513,-0.608379 -0.41327,-0.912568 0.07764,-0.301584 0.155269,-0.603156 0.232903,-0.904733 z" /><path
           style="fill:#ebdbb2;fill-opacity:1;stroke-width:26.4756"
           d="m 91.060113,37.849672 c 0.808038,-0.907555 2.368036,-2.400667 3.309202,-3.317502 0.941166,-0.916835 1.263488,-1.25738 1.546801,-1.46897 0.283313,-0.21159 0.527602,-0.294217 0.83038,-0.286745 0.302778,0.0075 0.664026,0.105038 0.922825,0.290439 0.2588,0.185401 0.415138,0.458625 0.433079,0.807014 0.01794,0.348388 -0.102515,0.771919 -1.084537,1.904799 -0.982022,1.132879 -2.825535,2.975025 -3.916378,3.961681 -1.090844,0.986657 -1.428968,1.117783 -1.761214,1.063942 -0.332246,-0.05384 -0.658595,-0.292642 -0.857673,-0.557323 -0.199078,-0.264682 -0.270877,-0.555228 -0.278738,-0.861507 -0.0079,-0.306279 0.04822,-0.628272 0.856253,-1.535828 z"
           id="path21"
           inkscape:path-effect="#path-effect22"
           inkscape:original-d="m 90.308153,38.435229 c 1.559998,-1.493112 3.119996,-2.986224 4.679993,-4.479336 0.322335,-0.340558 0.644656,-0.681103 0.966985,-1.021654 0.244298,-0.08263 0.488587,-0.165256 0.73288,-0.247883 0.361263,0.09757 0.722511,0.195136 1.083766,0.292705 0.156344,0.273234 0.312682,0.546458 0.469023,0.819687 -0.12046,0.423548 -0.240915,0.847079 -0.361372,1.270618 -1.843587,1.84222 -3.6871,3.684365 -5.530649,5.526548 -0.338138,0.131131 -0.676262,0.262257 -1.014392,0.393385 -0.326362,-0.23881 -0.652711,-0.477611 -0.979066,-0.716416 -0.0718,-0.290558 -0.1436,-0.581104 -0.2154,-0.871656 0.05608,-0.322006 0.112155,-0.643999 0.168232,-0.965998 z" /><circle
           style="fill:#d79921;fill-opacity:1;stroke-width:26.4756"
           id="path22"
           cx="75.765594"
           cy="28.146406"
           r="1.3950495" /><circle
           style="fill:#98971a;fill-opacity:1;stroke-width:26.4756"
           id="path22-1"
           cx="81.207932"
           cy="36.006538"
           r="1.3950495" /><circle
           style="fill:#cc241d;fill-opacity:1;stroke-width:26.4756"
           id="path22-9"
           cx="89.413406"
           cy="34.619698"
           r="1.3950495" /><circle
           style="fill:#cc241d;fill-opacity:1;stroke-width:26.4756"
           id="path22-6"
           cx="85.969521"
           cy="24.879313"
           r="1.3950495" /><circle
           style="fill:#ebdbb2;fill-opacity:1;stroke-width:26.4756"
           id="path22-8"
           cx="93.88726"
           cy="30.222"
           r="1.3950495" /><circle
           style="fill:#d79921;fill-opacity:1;stroke-width:26.4756"
           id="path22-0"
           cx="98.714378"
           cy="25.642548"
           r="1.3950495" /><circle
           style="fill:#98971a;fill-opacity:1;stroke-width:26.4756"
           id="path22-5"
           cx="99.675949"
           cy="31.123056"
           r="1.3950495" /><circle
           style="fill:#ebdbb2;fill-opacity:1;stroke-width:26.4756"
           id="path22-89"
           cx="98.049248"
           cy="39.660187"
           r="1.3950495" /></g></g></g></svg>
