<?xml version="1.0" encoding="UTF-8" standalone="no"?>
<!-- Created with Inkscape (http://www.inkscape.org/) -->

<svg
   width="120"
   height="120"
   viewBox="0 0 120 120"
   version="1.1"
   id="svg1"
   xml:space="preserve"
   inkscape:version="1.4.1 (93de688d07, 2025-03-30)"
   sodipodi:docname="furi.svg"
   xmlns:inkscape="http://www.inkscape.org/namespaces/inkscape"
   xmlns:sodipodi="http://sodipodi.sourceforge.net/DTD/sodipodi-0.dtd"
   xmlns="http://www.w3.org/2000/svg"
   xmlns:svg="http://www.w3.org/2000/svg"><sodipodi:namedview
     id="namedview1"
     pagecolor="#1f1f1f"
     bordercolor="#000000"
     borderopacity="0.25"
     inkscape:showpageshadow="2"
     inkscape:pageopacity="0.0"
     inkscape:pagecheckerboard="0"
     inkscape:deskcolor="#3c3c3c"
     inkscape:document-units="px"
     inkscape:zoom="5.6568543"
     inkscape:cx="50.292969"
     inkscape:cy="65.318988"
     inkscape:window-width="2047"
     inkscape:window-height="1287"
     inkscape:window-x="0"
     inkscape:window-y="0"
     inkscape:window-maximized="1"
     inkscape:current-layer="layer3" /><defs
     id="defs1"><inkscape:path-effect
       effect="bspline"
       id="path-effect14"
       is_visible="true"
       lpeversion="1.3"
       weight="33.333333"
       steps="2"
       helper_size="0"
       apply_no_weight="true"
       apply_with_weight="true"
       only_selected="false"
       uniform="false" /><inkscape:path-effect
       effect="fillet_chamfer"
       id="path-effect5"
       is_visible="true"
       lpeversion="1"
       nodesatellites_param="F,0,0,1,0,37.022737,0,1 @ F,0,0,1,0,36.062445,0,1 @ F,0,0,1,0,35.528974,0,1 @ F,0,0,1,0,28.991378,0,1"
       radius="0"
       unit="px"
       method="auto"
       mode="F"
       chamfer_steps="1"
       flexible="false"
       use_knot_distance="true"
       apply_no_radius="true"
       apply_with_radius="true"
       only_selected="false"
       hide_knots="false" /><inkscape:path-effect
       effect="bspline"
       id="path-effect4"
       is_visible="true"
       lpeversion="1.3"
       weight="33.333333"
       steps="2"
       helper_size="0"
       apply_no_weight="true"
       apply_with_weight="true"
       only_selected="false"
       uniform="false" /><inkscape:path-effect
       effect="bspline"
       id="path-effect3"
       is_visible="true"
       lpeversion="1.3"
       weight="33.333333"
       steps="2"
       helper_size="0"
       apply_no_weight="true"
       apply_with_weight="true"
       only_selected="false"
       uniform="false" /><inkscape:path-effect
       effect="mirror_symmetry"
       start_point="59.977887,81.781355"
       end_point="59.977887,112.27285"
       center_point="59.977887,97.027103"
       id="path-effect9"
       is_visible="true"
       lpeversion="1.2"
       lpesatellites=""
       mode="free"
       discard_orig_path="false"
       fuse_paths="false"
       oposite_fuse="false"
       split_items="false"
       split_open="false"
       link_styles="false" /><inkscape:path-effect
       effect="mirror_symmetry"
       start_point="59.944658,10.409945"
       end_point="59.944658,50.039614"
       center_point="59.944658,30.22478"
       id="path-effect2"
       is_visible="true"
       lpeversion="1.2"
       lpesatellites=""
       mode="free"
       discard_orig_path="false"
       fuse_paths="false"
       oposite_fuse="false"
       split_items="false"
       split_open="false"
       link_styles="false" /><inkscape:path-effect
       effect="mirror_symmetry"
       start_point="59.948435,66.805114"
       end_point="59.948435,107.38004"
       center_point="59.948435,87.092577"
       id="path-effect8"
       is_visible="true"
       lpeversion="1.2"
       lpesatellites=""
       mode="free"
       discard_orig_path="false"
       fuse_paths="false"
       oposite_fuse="false"
       split_items="false"
       split_open="false"
       link_styles="false" /><inkscape:path-effect
       effect="mirror_symmetry"
       start_point="60.801511,9.4541705"
       end_point="60.801511,40.169132"
       center_point="60.801511,24.811651"
       id="path-effect7"
       is_visible="true"
       lpeversion="1.2"
       lpesatellites=""
       mode="free"
       discard_orig_path="false"
       fuse_paths="false"
       oposite_fuse="false"
       split_items="false"
       split_open="false"
       link_styles="false" /><inkscape:path-effect
       effect="fillet_chamfer"
       id="path-effect13"
       is_visible="true"
       lpeversion="1"
       nodesatellites_param="F,0,0,1,0,4.7467821,0,1 @ F,0,0,1,0,4.0515277,0,1 @ F,0,0,1,0,0,0,1 @ F,0,0,1,0,2.4219461,0,1 @ F,0,0,1,0,2.4960577,0,1 @ F,0,0,1,0,0,0,1 @ F,0,0,1,0,4.1062831,0,1"
       radius="0"
       unit="px"
       method="auto"
       mode="F"
       chamfer_steps="1"
       flexible="false"
       use_knot_distance="true"
       apply_no_radius="true"
       apply_with_radius="true"
       only_selected="false"
       hide_knots="false" /><inkscape:path-effect
       effect="fillet_chamfer"
       id="path-effect12"
       is_visible="true"
       lpeversion="1"
       nodesatellites_param="F,0,0,1,0,0,0,1 @ F,0,0,1,0,0,0,1 @ F,0,0,1,0,0,0,1 @ F,0,0,1,0,0,0,1 @ F,0,0,1,0,3.627665,0,1 @ F,0,0,1,0,0,0,1 @ F,0,0,1,0,0,0,1"
       radius="0"
       unit="px"
       method="auto"
       mode="F"
       chamfer_steps="1"
       flexible="false"
       use_knot_distance="true"
       apply_no_radius="true"
       apply_with_radius="true"
       only_selected="false"
       hide_knots="false" /><inkscape:path-effect
       effect="fillet_chamfer"
       id="path-effect11"
       is_visible="true"
       lpeversion="1"
       nodesatellites_param="F,0,0,1,0,2.9729248,0,1 @ F,0,0,1,0,3.8975858,0,1 @ F,0,0,1,0,0,0,1 @ F,0,1,1,0,3.784373,0,1 @ F,0,0,1,0,1.4792147,0,1 @ F,0,0,1,0,0,0,1 @ F,0,0,1,0,3.784373,0,1"
       radius="0"
       unit="px"
       method="auto"
       mode="F"
       chamfer_steps="1"
       flexible="false"
       use_knot_distance="true"
       apply_no_radius="true"
       apply_with_radius="true"
       only_selected="false"
       hide_knots="false" /><linearGradient
       id="linearGradient6"><stop
         style="stop-color:#c88500;stop-opacity:1;"
         offset="0.07163448"
         id="stop8" /><stop
         style="stop-color:#fff300;stop-opacity:1;"
         offset="1"
         id="stop9" /></linearGradient><linearGradient
       id="linearGradient6-1"><stop
         style="stop-color:#c88500;stop-opacity:1;"
         offset="0"
         id="stop6" /><stop
         style="stop-color:#fff300;stop-opacity:1;"
         offset="1"
         id="stop7" /></linearGradient><inkscape:path-effect
       effect="fillet_chamfer"
       id="path-effect1"
       is_visible="true"
       lpeversion="1"
       nodesatellites_param="F,0,0,1,0,24.536157,0,1 @ F,0,0,1,0,24.004899,0,1 @ F,0,0,1,0,23.651152,0,1 @ F,0,0,1,0,24.380791,0,1"
       radius="0"
       unit="px"
       method="auto"
       mode="F"
       chamfer_steps="1"
       flexible="false"
       use_knot_distance="true"
       apply_no_radius="true"
       apply_with_radius="true"
       only_selected="false"
       hide_knots="false" /><linearGradient
       id="a"
       x1="7.937"
       x2="7.937"
       y1="15.081"
       y2="1.852"
       gradientTransform="scale(3.7796)"
       gradientUnits="userSpaceOnUse"><stop
         offset="0"
         stop-color="#9b6f27"
         id="stop1" /><stop
         offset="1"
         stop-color="#d0ab6a"
         id="stop2" /></linearGradient><filter
       id="b"
       width="1.216"
       height="1.216"
       x="-0.108"
       y="-0.108"
       color-interpolation-filters="sRGB"><feGaussianBlur
         stdDeviation="1.35"
         id="feGaussianBlur2" /></filter><linearGradient
       id="linearGradient31"
       x1=".5002"
       x2=".5002"
       y2="1"
       gradientTransform="matrix(244,0,0,228,5.986,12)"
       gradientUnits="userSpaceOnUse"><stop
         stop-color="#ebdbb2"
         stop-opacity=".2"
         offset="0"
         id="stop1-5" /><stop
         stop-color="#ebdbb2"
         stop-opacity=".05"
         offset=".1"
         id="stop2-6" /><stop
         stop-opacity="0"
         offset=".7036"
         id="stop3" /><stop
         stop-opacity=".1"
         offset=".8975"
         id="stop4" /><stop
         stop-opacity=".2"
         offset="1"
         id="stop5" /></linearGradient><inkscape:path-effect
       effect="bspline"
       id="path-effect6"
       is_visible="true"
       lpeversion="1.3"
       weight="33.333333"
       steps="2"
       helper_size="0"
       apply_no_weight="true"
       apply_with_weight="true"
       only_selected="false"
       uniform="false" /><inkscape:path-effect
       effect="bspline"
       id="path-effect5-2"
       is_visible="true"
       lpeversion="1.3"
       weight="33.333333"
       steps="2"
       helper_size="0"
       apply_no_weight="true"
       apply_with_weight="true"
       only_selected="false"
       uniform="false" /><inkscape:path-effect
       effect="bspline"
       id="path-effect4-3"
       is_visible="true"
       lpeversion="1.3"
       weight="33.333333"
       steps="2"
       helper_size="0"
       apply_no_weight="true"
       apply_with_weight="true"
       only_selected="false"
       uniform="false" /><inkscape:path-effect
       effect="bspline"
       id="path-effect3-7"
       is_visible="true"
       lpeversion="1.3"
       weight="33.333333"
       steps="2"
       helper_size="0"
       apply_no_weight="true"
       apply_with_weight="true"
       only_selected="false"
       uniform="false" /><inkscape:path-effect
       effect="mirror_symmetry"
       start_point="59.977887,81.781355"
       end_point="59.977887,112.27285"
       center_point="59.977887,97.027103"
       id="path-effect9-5"
       is_visible="true"
       lpeversion="1.2"
       lpesatellites=""
       mode="free"
       discard_orig_path="false"
       fuse_paths="false"
       oposite_fuse="false"
       split_items="false"
       split_open="false"
       link_styles="false" /><inkscape:path-effect
       effect="mirror_symmetry"
       start_point="59.944658,10.409945"
       end_point="59.944658,50.039614"
       center_point="59.944658,30.22478"
       id="path-effect2-9"
       is_visible="true"
       lpeversion="1.2"
       lpesatellites=""
       mode="free"
       discard_orig_path="false"
       fuse_paths="false"
       oposite_fuse="false"
       split_items="false"
       split_open="false"
       link_styles="false" /><inkscape:path-effect
       effect="mirror_symmetry"
       start_point="59.948435,66.805114"
       end_point="59.948435,107.38004"
       center_point="59.948435,87.092577"
       id="path-effect8-2"
       is_visible="true"
       lpeversion="1.2"
       lpesatellites=""
       mode="free"
       discard_orig_path="false"
       fuse_paths="false"
       oposite_fuse="false"
       split_items="false"
       split_open="false"
       link_styles="false" /><inkscape:path-effect
       effect="mirror_symmetry"
       start_point="60.801511,9.4541705"
       end_point="60.801511,40.169132"
       center_point="60.801511,24.811651"
       id="path-effect7-2"
       is_visible="true"
       lpeversion="1.2"
       lpesatellites=""
       mode="free"
       discard_orig_path="false"
       fuse_paths="false"
       oposite_fuse="false"
       split_items="false"
       split_open="false"
       link_styles="false" /><inkscape:path-effect
       effect="fillet_chamfer"
       id="path-effect13-8"
       is_visible="true"
       lpeversion="1"
       nodesatellites_param="F,0,0,1,0,4.7467821,0,1 @ F,0,0,1,0,4.0515277,0,1 @ F,0,0,1,0,0,0,1 @ F,0,0,1,0,2.4219461,0,1 @ F,0,0,1,0,2.4960577,0,1 @ F,0,0,1,0,0,0,1 @ F,0,0,1,0,4.1062831,0,1"
       radius="0"
       unit="px"
       method="auto"
       mode="F"
       chamfer_steps="1"
       flexible="false"
       use_knot_distance="true"
       apply_no_radius="true"
       apply_with_radius="true"
       only_selected="false"
       hide_knots="false" /><inkscape:path-effect
       effect="fillet_chamfer"
       id="path-effect12-9"
       is_visible="true"
       lpeversion="1"
       nodesatellites_param="F,0,0,1,0,0,0,1 @ F,0,0,1,0,0,0,1 @ F,0,0,1,0,0,0,1 @ F,0,0,1,0,0,0,1 @ F,0,0,1,0,3.627665,0,1 @ F,0,0,1,0,0,0,1 @ F,0,0,1,0,0,0,1"
       radius="0"
       unit="px"
       method="auto"
       mode="F"
       chamfer_steps="1"
       flexible="false"
       use_knot_distance="true"
       apply_no_radius="true"
       apply_with_radius="true"
       only_selected="false"
       hide_knots="false" /><inkscape:path-effect
       effect="fillet_chamfer"
       id="path-effect11-7"
       is_visible="true"
       lpeversion="1"
       nodesatellites_param="F,0,0,1,0,2.9729248,0,1 @ F,0,0,1,0,3.8975858,0,1 @ F,0,0,1,0,0,0,1 @ F,0,1,1,0,3.784373,0,1 @ F,0,0,1,0,1.4792147,0,1 @ F,0,0,1,0,0,0,1 @ F,0,0,1,0,3.784373,0,1"
       radius="0"
       unit="px"
       method="auto"
       mode="F"
       chamfer_steps="1"
       flexible="false"
       use_knot_distance="true"
       apply_no_radius="true"
       apply_with_radius="true"
       only_selected="false"
       hide_knots="false" /><inkscape:path-effect
       effect="fillet_chamfer"
       id="path-effect1-9"
       is_visible="true"
       lpeversion="1"
       nodesatellites_param="F,0,0,1,0,24.536157,0,1 @ F,0,0,1,0,24.004899,0,1 @ F,0,0,1,0,23.651152,0,1 @ F,0,0,1,0,24.380791,0,1"
       radius="0"
       unit="px"
       method="auto"
       mode="F"
       chamfer_steps="1"
       flexible="false"
       use_knot_distance="true"
       apply_no_radius="true"
       apply_with_radius="true"
       only_selected="false"
       hide_knots="false" /><filter
       id="b-9"
       width="1.216"
       height="1.216"
       x="-0.108"
       y="-0.108"
       color-interpolation-filters="sRGB"><feGaussianBlur
         stdDeviation="1.35"
         id="feGaussianBlur2-4" /></filter></defs><g
     inkscape:groupmode="layer"
     id="layer3"
     inkscape:label="base"><path
       d="m 76.476937,9.2332248 c 32.063223,0 37.852423,6.6798392 37.852423,38.7430672 v 24.938066 c 0,31.172592 -5.7892,37.852422 -37.852423,37.852422 H 43.523063 c -32.063227,0 -37.8524214,-6.67983 -37.8524214,-37.852422 V 47.976292 c 0,-32.063228 5.7891944,-38.7430672 37.8524214,-38.7430672 z"
       fill="#ebdbb2"
       style="display:inline;opacity:1;isolation:isolate;stroke-width:0.945;stroke:#b16286;stroke-opacity:1;stroke-dasharray:none;fill:#144057;fill-opacity:1"
       id="path5" /><g
       id="g1"
       transform="matrix(0.75152108,0,0,0.75152108,19.336068,12.964191)"><g
         id="layer2"
         inkscape:label="Layer 2"
         style="opacity:1"><path
           style="opacity:1;fill:#eeeeee;fill-opacity:0;stroke-width:0.965576"
           id="rect1"
           width="104.6141"
           height="104.75148"
           x="7.5219741"
           y="7.4503703"
           inkscape:path-effect="#path-effect1-9"
           sodipodi:type="rect"
           d="M 32.058131,7.4503703 H 88.131173 A 24.004899,24.004899 45 0 1 112.13607,31.455269 V 88.550698 A 23.651152,23.651152 135 0 1 88.48492,112.20185 H 31.902765 A 24.380791,24.380791 45 0 1 7.5219741,87.821059 V 31.986527 A 24.536157,24.536157 135 0 1 32.058131,7.4503703 Z"
           transform="translate(0.40694183)" /></g><g
         id="layer1"
         inkscape:label="Layer 3"
         transform="matrix(1.2478454,0,0,1.2478454,-20.288203,-14.922844)"
         style="fill:#b16286;fill-opacity:1"><path
           id="path1"
           style="fill:#b16286;fill-opacity:1;stroke-width:9.634"
           d="m 32.521484,17.757812 c -0.122674,-0.01269 -0.224478,0.0047 -0.302734,0.01953 -0.07826,0.0148 -0.133869,0.02698 -0.1875,0.04297 -0.05363,0.01598 -0.104724,0.03528 -0.130859,0.04492 -0.02614,0.0096 -0.02707,0.009 -0.230469,0.236328 -0.203398,0.227327 -0.610056,0.68206 -0.957031,1.136719 -0.346976,0.454659 -0.633954,0.909822 -1.148438,1.496094 -0.514484,0.586272 -1.256712,1.304356 -2.070312,1.890625 -0.8136,0.586269 -1.699366,1.040959 -2.357422,1.423828 -0.658056,0.38287 -1.08808,0.693039 -1.458985,1.183594 -0.370905,0.490554 -0.681614,1.162285 -0.873046,1.628906 -0.191434,0.466622 -0.263689,0.728857 -0.167969,1.66211 0.09572,0.933251 0.359823,2.53737 0.623047,4.044921 0.263223,1.507552 0.524886,2.918428 0.644531,4.701172 0.119645,1.782745 0.0962,3.936599 0.07227,5.121094 -0.02393,1.184495 -0.04764,1.4003 0.179688,1.974609 0.227331,0.57431 0.705297,1.507482 2.404297,3.613282 1.699,2.105799 4.619384,5.383982 6.318359,7.417968 1.698976,2.033987 2.1772,2.822197 2.488282,3.300782 0.31108,0.478585 0.454571,0.647177 0.574218,0.898437 0.119647,0.25126 0.215353,0.586649 0.0957,0.742188 -0.119649,0.155538 -0.454328,0.131813 -0.585937,0.27539 -0.13161,0.143578 -0.05913,0.453282 0.251953,1.015625 0.311085,0.562344 0.859811,1.3759 1.21875,1.902344 0.358939,0.526444 0.527099,0.766319 0.539063,1.017578 0.01196,0.251259 -0.132014,0.514274 -0.550782,1.339844 -0.418767,0.82557 -1.112956,2.213077 -1.646484,3.300781 -0.533529,1.087704 -0.905978,1.875111 -1.3125,3.09375 -0.406522,1.21864 -0.846449,2.868885 -1.091797,3.892578 -0.245348,1.023693 -0.296894,1.422345 -0.347656,1.798828 -0.05076,0.376484 -0.100934,0.730567 -0.160157,0.984375 -0.05922,0.253808 -0.126343,0.407251 -0.236328,0.470704 -0.109984,0.06345 -0.262425,0.03774 -0.40625,-0.02148 -0.143824,-0.05922 -0.279031,-0.152669 -0.435546,-0.148437 -0.156517,0.0042 -0.335007,0.105176 -0.449219,0.185546 -0.114213,0.08037 -0.164768,0.140626 -0.308594,0.140626 -0.143826,-1e-6 -0.379716,-0.0593 -0.802734,-0.203126 -0.423018,-0.143826 -1.033352,-0.371771 -1.414063,-0.439453 -0.380711,-0.06768 -0.533195,0.0245 -0.507812,0.240235 0.02538,0.215739 0.229612,0.554935 0.546875,1.214844 0.317263,0.659907 0.748115,1.639852 0.925781,2.160156 0.177666,0.520304 0.102716,0.579477 -0.294922,0.714844 -0.397638,0.135365 -1.117002,0.348048 -1.476562,0.521484 -0.359561,0.173436 -0.360605,0.308032 -0.166016,0.544922 0.194589,0.23689 0.585017,0.575621 0.724609,0.83789 0.139593,0.262269 0.02955,0.44862 -0.152343,0.583985 -0.181897,0.135364 -0.435616,0.219455 -0.613282,0.363281 -0.177666,0.143826 -0.279993,0.346724 -0.398437,0.460938 -0.118445,0.114213 -0.253819,0.139977 -0.892578,0.148437 -0.63876,0.0085 -1.78083,1.9e-5 -2.373047,0.05078 -0.592217,0.05076 -0.634099,0.161509 -0.591797,0.296875 0.0423,0.135366 0.168683,0.295619 0.337891,0.414063 0.169206,0.118443 0.380659,0.194674 0.714843,0.228515 0.334185,0.03384 0.790847,0.02543 1.201172,0.126953 0.410326,0.101526 0.773418,0.312597 1.589844,0.566407 0.816425,0.25381 2.086157,0.548925 2.644531,0.802734 0.558374,0.253809 0.405553,0.465588 0.28711,0.710938 -0.118445,0.245349 -0.202784,0.526116 -0.15625,0.720703 0.04653,0.194586 0.224381,0.303716 0.482421,0.316406 0.258041,0.01269 0.597134,-0.07129 0.935547,-0.05859 0.338413,0.01269 0.677128,0.122133 0.78711,0.28711 0.109981,0.164976 -0.0085,0.383927 -0.177735,0.751953 -0.169207,0.368025 -0.390312,0.884587 -0.419922,1.269531 -0.02961,0.384944 0.131945,0.638398 0.423829,0.769531 0.291883,0.131134 0.714932,0.139672 0.943359,0.203125 0.228427,0.06345 0.262367,0.182107 0.253906,0.558594 -0.0085,0.376487 -0.05955,1.01119 0.0039,1.324219 0.06345,0.313029 0.24111,0.304945 0.841797,0.123047 0.600688,-0.181899 1.624875,-0.536511 2.136719,-0.671875 0.511844,-0.135365 0.510596,-0.05199 0.117187,0.193359 -0.393408,0.245351 -1.179188,0.651145 -1.568359,0.921875 -0.389171,0.27073 -0.381469,0.406622 -0.271484,0.529297 0.109985,0.122675 0.322235,0.233367 1.113281,0.144531 0.791046,-0.08884 2.160471,-0.377327 2.972656,-0.5 0.812185,-0.122673 1.066723,-0.08102 1.03711,0.0078 -0.02961,0.08883 -0.341866,0.225324 -0.519532,0.394531 -0.177665,0.169207 -0.220619,0.372457 0.0078,0.533203 0.228431,0.160746 0.728061,0.278669 1.244141,0.337891 0.516078,0.05922 1.048612,0.05961 1.332031,0.173828 0.283418,0.114215 0.317387,0.341892 0.330078,0.595703 0.01269,0.253811 0.0039,0.534234 0.08008,0.673828 0.07614,0.139594 0.237682,0.13932 0.373047,0.130859 0.135365,-0.0085 0.245217,-0.02545 0.511719,-0.177734 0.266501,-0.152287 0.68931,-0.441304 0.835937,-0.476563 0.146628,-0.03526 0.01575,0.182013 -0.08203,0.359376 -0.09778,0.177361 -0.163325,0.315407 -0.199219,0.458984 -0.03589,0.143577 -0.04103,0.293435 0.05469,0.365235 0.09572,0.0718 0.293333,0.0665 0.703125,-0.0801 0.409792,-0.146562 1.032093,-0.435027 1.513671,-0.650389 0.481579,-0.215364 0.821991,-0.358692 1.025391,-0.439454 0.2034,-0.08076 0.269355,-0.09834 0.230469,-0.01758 -0.03889,0.08076 -0.181927,0.260075 -0.310547,0.625 -0.12862,0.364925 -0.242503,0.915973 -0.179687,1.203123 0.06281,0.28715 0.300493,0.31051 0.599609,0.16992 0.299116,-0.14058 0.659059,-0.44569 1.044922,-0.75976 0.385863,-0.314078 0.798663,-0.637185 1.091797,-0.804689 0.293134,-0.167504 0.466944,-0.179635 0.697265,-0.134766 0.230321,0.04487 0.516389,0.147862 0.716797,0.31836 0.200408,0.170497 0.315478,0.407995 0.408203,0.560545 0.09273,0.15255 0.162941,0.21833 0.3125,0.19141 0.14956,-0.0269 0.377055,-0.14604 0.894531,-0.64258 0.517477,-0.496539 1.325719,-1.369303 1.917969,-1.931641 0.592251,-0.562338 0.969238,-0.813334 1.373047,-0.96289 0.403809,-0.149558 0.835227,-0.197458 1.107422,-0.140626 0.272195,0.05683 0.38419,0.21819 0.554688,0.292969 0.170497,0.07478 0.39957,0.06281 0.582031,0 0.182461,-0.06281 0.318507,-0.177174 0.548828,-0.251953 0.230321,-0.07478 0.554191,-0.109867 1.005859,-0.08594 0.451669,0.02393 1.031217,0.107707 1.650391,0.236328 0.619174,0.128621 1.277242,0.30119 1.947265,0.423828 0.670024,0.122638 1.35167,0.194328 1.869141,0.242187 0.517472,0.04786 0.87195,0.07172 1.257813,0.05078 0.385862,-0.02094 0.803776,-0.08665 1.560546,-0.242188 0.756772,-0.155542 1.852012,-0.399693 2.542969,-0.576172 0.690958,-0.176478 0.977012,-0.284527 1.240235,-0.410156 0.263223,-0.125629 0.503631,-0.270363 0.707031,-0.419922 0.203399,-0.149559 0.369671,-0.303388 0.486328,-0.414062 0.116657,-0.110675 0.184194,-0.177805 0.25,-0.126954 0.06581,0.05085 0.129791,0.218583 0.324219,0.511719 0.194428,0.293137 0.519065,0.712972 0.779297,0.994141 0.260231,0.281169 0.457848,0.424184 0.703125,0.501953 0.245277,0.07777 0.536943,0.08905 0.830078,0.08008 0.293135,-0.009 0.587371,-0.03893 0.802734,-0.140625 0.215364,-0.1017 0.352886,-0.27543 0.478516,-0.416016 0.125629,-0.140585 0.23802,-0.246818 0.345703,-0.30664 0.107683,-0.05982 0.210854,-0.07253 0.357422,0.03516 0.146567,0.107684 0.336646,0.334679 0.492187,0.585938 0.155541,0.251259 0.276661,0.527792 0.357422,0.791015 0.08076,0.263224 0.122609,0.513151 0.191406,0.728516 0.0688,0.215364 0.163433,0.395609 0.289063,0.533203 0.12563,0.137594 0.282097,0.232284 0.335937,0.333984 0.05384,0.101701 0.0052,0.209446 -0.0098,0.376954 -0.01496,0.1675 0.0039,0.39469 0.09961,0.52929 0.09572,0.13461 0.267966,0.17738 0.486328,0.19532 0.218363,0.0179 0.482708,0.0109 0.611328,0.0527 0.12862,0.0418 0.121587,0.13315 0.09766,0.30664 -0.02393,0.17349 -0.06514,0.43028 0.01563,0.5918 0.08076,0.16152 0.28458,0.22731 0.455078,0.1914 0.170498,-0.0359 0.306789,-0.17339 0.537109,-0.24218 0.230321,-0.0688 0.553668,-0.0698 1.220703,0.0469 0.667035,0.11666 1.678251,0.34978 2.31836,0.48438 0.640108,0.1346 0.909955,0.17053 1.0625,0.14062 0.152544,-0.0299 0.188361,-0.12546 0.146484,-0.29297 -0.04188,-0.16751 -0.162771,-0.40532 -0.605469,-0.83007 -0.442697,-0.42476 -1.208259,-1.03621 -1.576172,-1.365237 -0.367912,-0.329027 -0.337127,-0.375762 -0.136718,-0.576172 0.200409,-0.200409 0.570777,-0.554591 0.738281,-0.796875 0.167504,-0.242283 0.131951,-0.374071 0.173828,-0.466796 0.04188,-0.09273 0.160742,-0.144954 0.322266,-0.171876 0.161523,-0.02692 0.366473,-0.02849 0.638672,-0.115234 0.272197,-0.08674 0.611546,-0.260105 0.791015,-0.433594 0.179469,-0.173488 0.198019,-0.346042 0.06641,-0.519531 -0.131613,-0.173488 -0.412942,-0.347573 -0.5625,-0.494141 -0.149557,-0.146567 -0.1664,-0.266156 -0.05273,-0.382812 0.113666,-0.116656 0.358893,-0.230739 0.714844,-0.455078 0.355951,-0.224339 0.822416,-0.55825 1.052734,-0.8125 0.230318,-0.25425 0.223164,-0.428021 0.103516,-0.556641 -0.119648,-0.128619 -0.351941,-0.211976 -0.666016,-0.208984 -0.314074,0.003 -0.709911,0.09118 -1.044922,0.121094 -0.335011,0.02991 -0.608731,7e-5 -0.830078,-0.05078 -0.221347,-0.05085 -0.390188,-0.121625 -0.458984,-0.238281 -0.0688,-0.116656 -0.03878,-0.277737 0.08984,-0.496094 0.128621,-0.218356 0.356848,-0.494343 0.527344,-0.769531 0.170497,-0.275188 0.283997,-0.549838 0.292969,-0.738281 0.009,-0.188444 -0.08742,-0.290033 -0.347656,-0.337891 -0.260234,-0.04786 -0.68459,-0.04255 -0.96875,-0.01563 -0.28416,0.02692 -0.428021,0.07593 -0.556641,0.08789 -0.12862,0.01196 -0.242857,-0.01323 -0.257812,-0.08203 -0.01496,-0.0688 0.06961,-0.182757 0.246093,-0.460938 0.176481,-0.278181 0.445884,-0.720055 0.703125,-1.36914 0.257241,-0.649087 0.502733,-1.503777 0.607422,-2.365235 0.10469,-0.861458 0.06788,-1.730409 -0.0039,-2.541015 -0.07179,-0.810609 -0.179289,-1.56393 -0.388672,-2.207032 -0.209383,-0.643101 -0.520334,-1.174794 -0.861328,-1.65039 -0.340994,-0.475596 -0.712548,-0.894681 -0.966797,-1.125 C 82.435204,79.373197 82.298719,79.330392 82.208984,79.267578 82.11925,79.204764 82.077771,79.121947 82,78.748047 c -0.07777,-0.3739 -0.192044,-1.037554 -0.398438,-1.728516 -0.206392,-0.690962 -0.505131,-1.409302 -0.873046,-2.210937 -0.367915,-0.801636 -0.805807,-1.687717 -1.083985,-2.294922 -0.278177,-0.607206 -0.396169,-0.935942 -0.458984,-1.154297 -0.06282,-0.218355 -0.07001,-0.325772 -0.03711,-0.535156 0.0329,-0.209384 0.105261,-0.52028 0.257812,-0.816407 0.152551,-0.296126 0.385214,-0.576797 0.648438,-0.878906 0.263222,-0.302109 0.556436,-0.625872 0.708984,-0.916015 0.152548,-0.290144 0.164256,-0.547639 0.107422,-0.748047 -0.05683,-0.200408 -0.181765,-0.344213 -0.175782,-0.511719 0.006,-0.167506 0.144026,-0.358116 0.263672,-0.609375 0.119647,-0.251259 0.221143,-0.561911 0.152344,-0.828125 -0.0688,-0.266214 -0.309302,-0.488814 -0.464844,-0.605469 -0.155541,-0.116654 -0.225979,-0.127438 -0.06445,-0.53125 0.161526,-0.403811 0.555368,-1.199118 0.902344,-1.86914 0.346976,-0.670022 0.647249,-1.214788 0.847656,-1.597657 0.200408,-0.382868 0.300414,-0.604154 0.31836,-0.810547 0.01794,-0.206391 -0.04758,-0.398847 -0.203125,-0.521484 -0.155542,-0.122637 -0.401016,-0.175728 -0.703125,-0.130859 -0.302109,0.04487 -0.659268,0.187978 -0.892579,0.259765 -0.23331,0.07179 -0.342889,0.07112 -0.384765,-0.01563 -0.04188,-0.08675 -0.01606,-0.260105 0.05273,-0.433593 0.0688,-0.173489 0.182242,-0.345566 0.248047,-1.207032 0.06581,-0.861465 0.08392,-2.411248 0.134766,-3.308593 0.05085,-0.897346 0.134246,-1.142898 1.453125,-3.626953 1.318878,-2.484057 3.872822,-7.2071 5.310547,-9.873047 1.437724,-2.665947 1.758872,-3.274252 1.974609,-3.697266 0.215737,-0.423014 0.324986,-0.660802 1.513672,-1.519531 1.188686,-0.858729 3.455928,-2.337832 5.689453,-3.894532 2.233525,-1.556699 4.433442,-3.190505 5.710942,-4.222656 1.27749,-1.032151 1.63268,-1.463984 2.14453,-2.648437 0.51185,-1.184453 1.18073,-3.121261 1.3457,-4.394531 0.16497,-1.273272 -0.17296,-1.882312 -0.46484,-2.271485 -0.29188,-0.389172 -0.53818,-0.557976 -0.7793,-0.642578 -0.24112,-0.0846 -0.47828,-0.08591 -0.71094,-0.0098 -0.23266,0.07615 -0.46037,0.22927 -0.67187,0.5 -0.21151,0.270731 -0.40571,0.659349 -0.69336,1.103516 -0.28765,0.444167 -0.66844,0.944486 -1.04492,1.337891 -0.37649,0.393404 -0.74931,0.680488 -1.52344,1.078125 -0.774127,0.397636 -1.949379,0.905147 -3.222658,1.429687 -1.27328,0.52454 -2.644996,1.065553 -3.863282,1.382813 -1.218283,0.317259 -2.283209,0.411147 -3.15039,0.449218 -0.867181,0.03807 -1.535159,0.0205 -2.402344,0.0078 -0.867185,-0.01269 -1.933896,-0.02017 -2.720703,0.01367 -0.786807,0.03384 -1.295106,0.109136 -1.777344,0.341797 -0.482238,0.23266 -0.938322,0.621027 -1.386719,1.310547 -0.448396,0.689519 -0.888512,1.680749 -1.324218,2.763671 -0.435707,1.082922 -0.86777,2.257647 -1.548828,3.535157 -0.681059,1.277509 -1.609991,2.656316 -2.367188,3.675781 -0.757197,1.019465 -1.342343,1.679586 -1.921875,2.267578 -0.579532,0.587992 -1.15388,1.105662 -1.771484,1.613281 -0.617604,0.507619 -1.278158,1.005682 -1.701172,1.390625 -0.423014,0.384944 -0.608795,0.656375 -0.794922,0.986328 -0.186127,0.329954 -0.3728,0.718257 -0.580078,1.132813 -0.207278,0.414556 -0.434625,0.853948 -0.574219,1.128906 -0.139594,0.274959 -0.191073,0.386481 -0.169922,0.619141 0.02115,0.232659 0.114644,0.587167 0.275391,1.259765 0.160747,0.672599 0.388065,1.662675 0.558594,2.746094 0.170528,1.08342 0.283652,2.260641 0.333984,3.205078 0.05033,0.944437 0.03809,1.656042 -0.0098,2.236328 -0.04786,0.580287 -0.131214,1.029505 -0.208984,1.470704 -0.07777,0.441197 -0.148545,0.874358 -0.238281,1.095703 -0.08974,0.221344 -0.19887,0.231119 -0.28711,0.175781 -0.08824,-0.05534 -0.15569,-0.175556 -0.230468,-0.257813 -0.07478,-0.08226 -0.155852,-0.127869 -0.365235,-0.130859 -0.209382,-0.003 -0.548712,0.03588 -0.720703,0.0957 -0.171991,0.05982 -0.176818,0.141421 -0.173828,0.316406 0.003,0.174985 0.01505,0.444068 0.01953,0.59961 0.0045,0.155541 2.37e-4,0.198007 -0.07227,0.158203 -0.0725,-0.0398 -0.359943,-0.286778 -1.09961,-0.578125 -0.739624,-0.29129 -2.22141,-0.87463 -3.324176,-1.238224 -1.102768,-0.363595 -1.825125,-0.506815 -2.683594,-0.650391 -0.858469,-0.143576 -1.852948,-0.288995 -2.783203,-0.339844 -0.930255,-0.05085 -1.797868,-0.0073 -2.509766,0.06445 -0.711898,0.07179 -1.266591,0.171862 -1.742187,0.267578 -0.475598,0.09572 -0.871966,0.187186 -1.16211,0.25 -0.290143,0.06282 -0.475442,0.09778 -0.625,0.0918 -0.149558,-0.006 -0.263059,-0.05307 -0.292969,-0.226562 -0.02991,-0.173489 0.02351,-0.473889 0.304688,-1.173828 0.281173,-0.699939 0.790674,-1.80093 1.044922,-2.458985 0.254247,-0.658054 0.253921,-0.872472 0.158203,-1.042968 -0.09572,-0.170497 -0.287296,-0.2961 -0.658203,-0.191407 -0.370908,0.104694 -0.92055,0.43888 -1.222657,0.609375 -0.302105,0.170496 -0.356684,0.177451 -0.392578,0.04883 -0.03589,-0.128621 -0.05286,-0.391795 -0.04687,-0.714843 0.006,-0.323048 0.03584,-0.706512 -0.04492,-0.921875 -0.08076,-0.215363 -0.273709,-0.262635 -0.498047,-0.265625 -0.224339,-0.003 -0.480263,0.03833 -0.632813,0.07422 -0.152549,0.03589 -0.20165,0.0663 -0.273437,-0.02344 -0.07179,-0.08974 -0.167391,-0.299519 -0.791016,-1.546875 -0.623625,-1.247356 -1.773739,-3.533223 -2.478516,-4.904297 -0.704776,-1.371074 -0.964262,-1.827059 -1.583984,-2.453125 -0.619722,-0.626065 -1.600406,-1.421641 -2.40625,-2.087891 -0.805844,-0.666249 -1.436608,-1.203175 -2.085937,-1.763671 -0.64933,-0.560497 -1.317792,-1.145106 -1.962891,-1.800782 -0.6451,-0.655675 -1.267211,-1.382702 -1.578125,-1.945312 -0.310914,-0.56261 -0.309737,-0.959949 -0.320313,-1.355469 -0.01058,-0.39552 -0.03272,-0.788665 -0.03906,-1.023437 -0.0063,-0.234773 0.0036,-0.310224 0.08398,-0.314453 0.08037,-0.0042 0.232107,0.06323 0.695313,0.283203 0.463205,0.219969 1.236247,0.590627 1.875,0.9375 0.638753,0.346873 1.142688,0.668524 1.421875,0.839843 0.279187,0.17132 0.335031,0.193856 0.52539,0.212891 0.190359,0.01904 0.515502,0.03579 1.052735,-0.02344 0.537232,-0.05922 1.286542,-0.194723 1.93164,-0.355469 0.645099,-0.160747 1.186732,-0.347905 1.732422,-0.574219 0.545691,-0.226314 1.094763,-0.491798 1.617188,-0.751953 0.522425,-0.260155 1.016762,-0.514912 1.435547,-0.779297 0.418785,-0.264385 0.761492,-0.538692 1.019531,-0.849609 0.258039,-0.310917 0.432614,-0.658557 0.419922,-1.164063 -0.01269,-0.505505 -0.211691,-1.168955 -0.482422,-1.615234 -0.270731,-0.44628 -0.613208,-0.675316 -0.84375,-0.732422 -0.230543,-0.05711 -0.348752,0.05764 -0.666016,0.121094 -0.317264,0.06345 -0.834664,0.07567 -1.335937,0.03125 -0.501274,-0.04442 -0.987589,-0.145894 -1.302735,-0.306641 -0.315145,-0.160747 -0.458403,-0.379298 -0.644531,-0.552734 -0.186127,-0.173436 -0.414746,-0.300483 -1.375,-1.248047 C 42.2292,23.89228 40.537432,22.123369 39.257812,20.84375 37.978193,19.564131 37.111265,18.772631 36.525391,18.375 35.939516,17.977369 35.63526,17.97298 35.220703,17.96875 c -0.414556,-0.0042 -0.940095,-0.0083 -1.339844,-0.02734 -0.399748,-0.01904 -0.675373,-0.05177 -0.884765,-0.08984 -0.209393,-0.03807 -0.351935,-0.08106 -0.47461,-0.09375 z m 25.955078,60.28711 a 4.8730965,4.8730965 0 0 1 4.873047,4.873047 4.8730965,4.8730965 0 0 1 -4.873047,4.873047 4.8730965,4.8730965 0 0 1 -4.873046,-4.873047 4.8730965,4.8730965 0 0 1 4.873046,-4.873047 z m 24.501954,3.564453 c 0.01937,-7.93e-4 0.04029,-0.0012 0.0625,0.002 0.08883,0.01269 0.199915,0.06352 0.318359,0.177734 0.118444,0.114214 0.244513,0.291923 0.367187,0.535157 0.122675,0.243233 0.240921,0.551383 0.333985,0.849609 0.09306,0.298227 0.161319,0.587571 0.222656,1.025391 0.06134,0.437819 0.115234,1.025643 0.115235,1.685547 0,0.659904 -0.05473,1.390733 -0.15625,2.103515 -0.101524,0.712783 -0.248317,1.406501 -0.525391,2.066407 -0.277074,0.659905 -0.682899,1.286412 -0.998047,1.601562 -0.315148,0.31515 -0.539969,0.318511 -0.783203,0.291016 -0.243234,-0.0275 -0.50626,-0.08645 -0.705078,-0.15625 -0.198818,-0.0698 -0.333558,-0.150632 -0.492188,-0.351563 -0.15863,-0.200931 -0.341349,-0.522247 -0.449219,-0.818359 -0.107869,-0.296112 -0.141454,-0.567058 -0.18164,-0.992188 -0.04019,-0.425129 -0.08643,-1.004413 -0.105469,-1.482422 -0.01904,-0.478009 -0.01138,-0.854681 0.03516,-1.349609 0.04653,-0.494928 0.131394,-1.107128 0.251953,-1.621094 0.12056,-0.513965 0.277108,-0.928233 0.509766,-1.380859 0.232658,-0.452627 0.541637,-0.942846 0.890625,-1.306641 0.348988,-0.363795 0.739008,-0.602259 0.933594,-0.720703 0.194585,-0.118443 0.194674,-0.118169 0.228515,-0.130859 0.02538,-0.0095 0.06885,-0.02496 0.126954,-0.02734 z" /></g></g></g></svg>
