<?xml version="1.0" encoding="UTF-8" standalone="no"?>
<!-- Created with Inkscape (http://www.inkscape.org/) -->

<svg
   width="120"
   height="120"
   viewBox="0 0 120 120"
   version="1.1"
   id="svg1"
   xml:space="preserve"
   inkscape:version="1.4.1 (93de688d07, 2025-03-30)"
   sodipodi:docname="ggst.svg"
   xmlns:inkscape="http://www.inkscape.org/namespaces/inkscape"
   xmlns:sodipodi="http://sodipodi.sourceforge.net/DTD/sodipodi-0.dtd"
   xmlns="http://www.w3.org/2000/svg"
   xmlns:svg="http://www.w3.org/2000/svg"><sodipodi:namedview
     id="namedview1"
     pagecolor="#1f1f1f"
     bordercolor="#000000"
     borderopacity="0.25"
     inkscape:showpageshadow="2"
     inkscape:pageopacity="0.0"
     inkscape:pagecheckerboard="0"
     inkscape:deskcolor="#3c3c3c"
     inkscape:document-units="px"
     inkscape:zoom="5.6568543"
     inkscape:cx="55.331105"
     inkscape:cy="90.951609"
     inkscape:window-width="2047"
     inkscape:window-height="1287"
     inkscape:window-x="0"
     inkscape:window-y="0"
     inkscape:window-maximized="1"
     inkscape:current-layer="g1" /><defs
     id="defs1"><inkscape:path-effect
       effect="bspline"
       id="path-effect14"
       is_visible="true"
       lpeversion="1.3"
       weight="33.333333"
       steps="2"
       helper_size="0"
       apply_no_weight="true"
       apply_with_weight="true"
       only_selected="false"
       uniform="false" /><inkscape:path-effect
       effect="fillet_chamfer"
       id="path-effect5"
       is_visible="true"
       lpeversion="1"
       nodesatellites_param="F,0,0,1,0,37.022737,0,1 @ F,0,0,1,0,36.062445,0,1 @ F,0,0,1,0,35.528974,0,1 @ F,0,0,1,0,28.991378,0,1"
       radius="0"
       unit="px"
       method="auto"
       mode="F"
       chamfer_steps="1"
       flexible="false"
       use_knot_distance="true"
       apply_no_radius="true"
       apply_with_radius="true"
       only_selected="false"
       hide_knots="false" /><inkscape:path-effect
       effect="bspline"
       id="path-effect4"
       is_visible="true"
       lpeversion="1.3"
       weight="33.333333"
       steps="2"
       helper_size="0"
       apply_no_weight="true"
       apply_with_weight="true"
       only_selected="false"
       uniform="false" /><inkscape:path-effect
       effect="bspline"
       id="path-effect3"
       is_visible="true"
       lpeversion="1.3"
       weight="33.333333"
       steps="2"
       helper_size="0"
       apply_no_weight="true"
       apply_with_weight="true"
       only_selected="false"
       uniform="false" /><inkscape:path-effect
       effect="mirror_symmetry"
       start_point="59.977887,81.781355"
       end_point="59.977887,112.27285"
       center_point="59.977887,97.027103"
       id="path-effect9"
       is_visible="true"
       lpeversion="1.2"
       lpesatellites=""
       mode="free"
       discard_orig_path="false"
       fuse_paths="false"
       oposite_fuse="false"
       split_items="false"
       split_open="false"
       link_styles="false" /><inkscape:path-effect
       effect="mirror_symmetry"
       start_point="59.944658,10.409945"
       end_point="59.944658,50.039614"
       center_point="59.944658,30.22478"
       id="path-effect2"
       is_visible="true"
       lpeversion="1.2"
       lpesatellites=""
       mode="free"
       discard_orig_path="false"
       fuse_paths="false"
       oposite_fuse="false"
       split_items="false"
       split_open="false"
       link_styles="false" /><inkscape:path-effect
       effect="mirror_symmetry"
       start_point="59.948435,66.805114"
       end_point="59.948435,107.38004"
       center_point="59.948435,87.092577"
       id="path-effect8"
       is_visible="true"
       lpeversion="1.2"
       lpesatellites=""
       mode="free"
       discard_orig_path="false"
       fuse_paths="false"
       oposite_fuse="false"
       split_items="false"
       split_open="false"
       link_styles="false" /><inkscape:path-effect
       effect="mirror_symmetry"
       start_point="60.801511,9.4541705"
       end_point="60.801511,40.169132"
       center_point="60.801511,24.811651"
       id="path-effect7"
       is_visible="true"
       lpeversion="1.2"
       lpesatellites=""
       mode="free"
       discard_orig_path="false"
       fuse_paths="false"
       oposite_fuse="false"
       split_items="false"
       split_open="false"
       link_styles="false" /><inkscape:path-effect
       effect="fillet_chamfer"
       id="path-effect13"
       is_visible="true"
       lpeversion="1"
       nodesatellites_param="F,0,0,1,0,4.7467821,0,1 @ F,0,0,1,0,4.0515277,0,1 @ F,0,0,1,0,0,0,1 @ F,0,0,1,0,2.4219461,0,1 @ F,0,0,1,0,2.4960577,0,1 @ F,0,0,1,0,0,0,1 @ F,0,0,1,0,4.1062831,0,1"
       radius="0"
       unit="px"
       method="auto"
       mode="F"
       chamfer_steps="1"
       flexible="false"
       use_knot_distance="true"
       apply_no_radius="true"
       apply_with_radius="true"
       only_selected="false"
       hide_knots="false" /><inkscape:path-effect
       effect="fillet_chamfer"
       id="path-effect12"
       is_visible="true"
       lpeversion="1"
       nodesatellites_param="F,0,0,1,0,0,0,1 @ F,0,0,1,0,0,0,1 @ F,0,0,1,0,0,0,1 @ F,0,0,1,0,0,0,1 @ F,0,0,1,0,3.627665,0,1 @ F,0,0,1,0,0,0,1 @ F,0,0,1,0,0,0,1"
       radius="0"
       unit="px"
       method="auto"
       mode="F"
       chamfer_steps="1"
       flexible="false"
       use_knot_distance="true"
       apply_no_radius="true"
       apply_with_radius="true"
       only_selected="false"
       hide_knots="false" /><inkscape:path-effect
       effect="fillet_chamfer"
       id="path-effect11"
       is_visible="true"
       lpeversion="1"
       nodesatellites_param="F,0,0,1,0,2.9729248,0,1 @ F,0,0,1,0,3.8975858,0,1 @ F,0,0,1,0,0,0,1 @ F,0,1,1,0,3.784373,0,1 @ F,0,0,1,0,1.4792147,0,1 @ F,0,0,1,0,0,0,1 @ F,0,0,1,0,3.784373,0,1"
       radius="0"
       unit="px"
       method="auto"
       mode="F"
       chamfer_steps="1"
       flexible="false"
       use_knot_distance="true"
       apply_no_radius="true"
       apply_with_radius="true"
       only_selected="false"
       hide_knots="false" /><linearGradient
       id="linearGradient6"><stop
         style="stop-color:#c88500;stop-opacity:1;"
         offset="0.07163448"
         id="stop8" /><stop
         style="stop-color:#fff300;stop-opacity:1;"
         offset="1"
         id="stop9" /></linearGradient><linearGradient
       id="linearGradient6-1"><stop
         style="stop-color:#c88500;stop-opacity:1;"
         offset="0"
         id="stop6" /><stop
         style="stop-color:#fff300;stop-opacity:1;"
         offset="1"
         id="stop7" /></linearGradient><inkscape:path-effect
       effect="fillet_chamfer"
       id="path-effect1"
       is_visible="true"
       lpeversion="1"
       nodesatellites_param="F,0,0,1,0,24.536157,0,1 @ F,0,0,1,0,24.004899,0,1 @ F,0,0,1,0,23.651152,0,1 @ F,0,0,1,0,24.380791,0,1"
       radius="0"
       unit="px"
       method="auto"
       mode="F"
       chamfer_steps="1"
       flexible="false"
       use_knot_distance="true"
       apply_no_radius="true"
       apply_with_radius="true"
       only_selected="false"
       hide_knots="false" /><linearGradient
       id="a"
       x1="7.937"
       x2="7.937"
       y1="15.081"
       y2="1.852"
       gradientTransform="scale(3.7796)"
       gradientUnits="userSpaceOnUse"><stop
         offset="0"
         stop-color="#9b6f27"
         id="stop1" /><stop
         offset="1"
         stop-color="#d0ab6a"
         id="stop2" /></linearGradient><filter
       id="b"
       width="1.216"
       height="1.216"
       x="-0.108"
       y="-0.108"
       color-interpolation-filters="sRGB"><feGaussianBlur
         stdDeviation="1.35"
         id="feGaussianBlur2" /></filter><linearGradient
       id="linearGradient31"
       x1=".5002"
       x2=".5002"
       y2="1"
       gradientTransform="matrix(244,0,0,228,5.986,12)"
       gradientUnits="userSpaceOnUse"><stop
         stop-color="#ebdbb2"
         stop-opacity=".2"
         offset="0"
         id="stop1-5" /><stop
         stop-color="#ebdbb2"
         stop-opacity=".05"
         offset=".1"
         id="stop2-6" /><stop
         stop-opacity="0"
         offset=".7036"
         id="stop3" /><stop
         stop-opacity=".1"
         offset=".8975"
         id="stop4" /><stop
         stop-opacity=".2"
         offset="1"
         id="stop5" /></linearGradient><inkscape:path-effect
       effect="bspline"
       id="path-effect10"
       is_visible="true"
       lpeversion="1.3"
       weight="33.333333"
       steps="2"
       helper_size="0"
       apply_no_weight="true"
       apply_with_weight="true"
       only_selected="false"
       uniform="false" /><inkscape:path-effect
       effect="bspline"
       id="path-effect6"
       is_visible="true"
       lpeversion="1.3"
       weight="33.333333"
       steps="2"
       helper_size="0"
       apply_no_weight="true"
       apply_with_weight="true"
       only_selected="false"
       uniform="false" /><inkscape:path-effect
       effect="bspline"
       id="path-effect5-5"
       is_visible="true"
       lpeversion="1.3"
       weight="33.333333"
       steps="2"
       helper_size="0"
       apply_no_weight="true"
       apply_with_weight="true"
       only_selected="false"
       uniform="false" /><inkscape:path-effect
       effect="bspline"
       id="path-effect4-0"
       is_visible="true"
       lpeversion="1.3"
       weight="33.333333"
       steps="2"
       helper_size="0"
       apply_no_weight="true"
       apply_with_weight="true"
       only_selected="false"
       uniform="false" /><inkscape:path-effect
       effect="bspline"
       id="path-effect3-3"
       is_visible="true"
       lpeversion="1.3"
       weight="33.333333"
       steps="2"
       helper_size="0"
       apply_no_weight="true"
       apply_with_weight="true"
       only_selected="false"
       uniform="false" /><inkscape:path-effect
       effect="mirror_symmetry"
       start_point="59.977887,81.781355"
       end_point="59.977887,112.27285"
       center_point="59.977887,97.027103"
       id="path-effect9-6"
       is_visible="true"
       lpeversion="1.2"
       lpesatellites=""
       mode="free"
       discard_orig_path="false"
       fuse_paths="false"
       oposite_fuse="false"
       split_items="false"
       split_open="false"
       link_styles="false" /><inkscape:path-effect
       effect="mirror_symmetry"
       start_point="59.944658,10.409945"
       end_point="59.944658,50.039614"
       center_point="59.944658,30.22478"
       id="path-effect2-1"
       is_visible="true"
       lpeversion="1.2"
       lpesatellites=""
       mode="free"
       discard_orig_path="false"
       fuse_paths="false"
       oposite_fuse="false"
       split_items="false"
       split_open="false"
       link_styles="false" /><inkscape:path-effect
       effect="mirror_symmetry"
       start_point="59.948435,66.805114"
       end_point="59.948435,107.38004"
       center_point="59.948435,87.092577"
       id="path-effect8-0"
       is_visible="true"
       lpeversion="1.2"
       lpesatellites=""
       mode="free"
       discard_orig_path="false"
       fuse_paths="false"
       oposite_fuse="false"
       split_items="false"
       split_open="false"
       link_styles="false" /><inkscape:path-effect
       effect="mirror_symmetry"
       start_point="60.801511,9.4541705"
       end_point="60.801511,40.169132"
       center_point="60.801511,24.811651"
       id="path-effect7-6"
       is_visible="true"
       lpeversion="1.2"
       lpesatellites=""
       mode="free"
       discard_orig_path="false"
       fuse_paths="false"
       oposite_fuse="false"
       split_items="false"
       split_open="false"
       link_styles="false" /><inkscape:path-effect
       effect="fillet_chamfer"
       id="path-effect13-3"
       is_visible="true"
       lpeversion="1"
       nodesatellites_param="F,0,0,1,0,4.7467821,0,1 @ F,0,0,1,0,4.0515277,0,1 @ F,0,0,1,0,0,0,1 @ F,0,0,1,0,2.4219461,0,1 @ F,0,0,1,0,2.4960577,0,1 @ F,0,0,1,0,0,0,1 @ F,0,0,1,0,4.1062831,0,1"
       radius="0"
       unit="px"
       method="auto"
       mode="F"
       chamfer_steps="1"
       flexible="false"
       use_knot_distance="true"
       apply_no_radius="true"
       apply_with_radius="true"
       only_selected="false"
       hide_knots="false" /><inkscape:path-effect
       effect="fillet_chamfer"
       id="path-effect12-2"
       is_visible="true"
       lpeversion="1"
       nodesatellites_param="F,0,0,1,0,0,0,1 @ F,0,0,1,0,0,0,1 @ F,0,0,1,0,0,0,1 @ F,0,0,1,0,0,0,1 @ F,0,0,1,0,3.627665,0,1 @ F,0,0,1,0,0,0,1 @ F,0,0,1,0,0,0,1"
       radius="0"
       unit="px"
       method="auto"
       mode="F"
       chamfer_steps="1"
       flexible="false"
       use_knot_distance="true"
       apply_no_radius="true"
       apply_with_radius="true"
       only_selected="false"
       hide_knots="false" /><inkscape:path-effect
       effect="fillet_chamfer"
       id="path-effect11-0"
       is_visible="true"
       lpeversion="1"
       nodesatellites_param="F,0,0,1,0,2.9729248,0,1 @ F,0,0,1,0,3.8975858,0,1 @ F,0,0,1,0,0,0,1 @ F,0,1,1,0,3.784373,0,1 @ F,0,0,1,0,1.4792147,0,1 @ F,0,0,1,0,0,0,1 @ F,0,0,1,0,3.784373,0,1"
       radius="0"
       unit="px"
       method="auto"
       mode="F"
       chamfer_steps="1"
       flexible="false"
       use_knot_distance="true"
       apply_no_radius="true"
       apply_with_radius="true"
       only_selected="false"
       hide_knots="false" /><inkscape:path-effect
       effect="fillet_chamfer"
       id="path-effect1-4"
       is_visible="true"
       lpeversion="1"
       nodesatellites_param="F,0,0,1,0,24.536157,0,1 @ F,0,0,1,0,24.004899,0,1 @ F,0,0,1,0,23.651152,0,1 @ F,0,0,1,0,24.380791,0,1"
       radius="0"
       unit="px"
       method="auto"
       mode="F"
       chamfer_steps="1"
       flexible="false"
       use_knot_distance="true"
       apply_no_radius="true"
       apply_with_radius="true"
       only_selected="false"
       hide_knots="false" /><filter
       id="b-6"
       width="1.216"
       height="1.216"
       x="-0.108"
       y="-0.108"
       color-interpolation-filters="sRGB"><feGaussianBlur
         stdDeviation="1.35"
         id="feGaussianBlur2-9" /></filter></defs><g
     inkscape:groupmode="layer"
     id="layer3"
     inkscape:label="base"><path
       d="m 76.476937,9.2332248 c 32.063223,0 37.852423,6.6798392 37.852423,38.7430672 v 24.938066 c 0,31.172592 -5.7892,37.852422 -37.852423,37.852422 H 43.523063 c -32.063227,0 -37.8524214,-6.67983 -37.8524214,-37.852422 V 47.976292 c 0,-32.063228 5.7891944,-38.7430672 37.8524214,-38.7430672 z"
       fill="#ebdbb2"
       style="display:inline;opacity:1;isolation:isolate;stroke-width:0.445323;fill:#73140f;fill-opacity:1"
       id="path5" /><g
       id="g1"
       transform="matrix(0.79215485,0,0,0.79215485,8.4120221,13.744321)"><g
         id="layer2"
         inkscape:label="Layer 2"
         style="opacity:1"><path
           style="opacity:1;fill:#eeeeee;fill-opacity:0;stroke-width:0.965576"
           id="rect1"
           width="104.6141"
           height="104.75148"
           x="7.5219741"
           y="7.4503703"
           inkscape:path-effect="#path-effect1-4"
           sodipodi:type="rect"
           d="M 32.058131,7.4503703 H 88.131173 A 24.004899,24.004899 45 0 1 112.13607,31.455269 V 88.550698 A 23.651152,23.651152 135 0 1 88.48492,112.20185 H 31.902765 A 24.380791,24.380791 45 0 1 7.5219741,87.821059 V 31.986527 A 24.536157,24.536157 135 0 1 32.058131,7.4503703 Z"
           transform="translate(0.40694183)" /></g><g
         id="layer1"
         inkscape:label="Layer 3"
         transform="matrix(1.1055315,0,0,1.1055315,-6.0667849,-4.0704536)"><g
           id="g2"
           transform="translate(0,-1.4543065)"><circle
             style="fill:#f3e8ce;fill-opacity:1;stroke-width:5"
             id="path5-3"
             cx="65.656319"
             cy="105.10702"
             r="1.7587935" /><path
             id="path1"
             style="fill:#f3e8ce;fill-opacity:1;stroke-width:5"
             d="m 65.281,8.8925781 c -0.31726,0.00846 -0.46816,0.075238 -0.628906,0.1894531 -0.160746,0.1142149 -0.331118,0.274477 -0.496094,0.4394532 -0.164976,0.1649762 -0.324572,0.3343758 -0.396484,0.5078126 -0.07191,0.173436 -0.05533,0.350621 -0.04687,0.439453 0.0085,0.08883 0.0091,0.09017 -0.0332,0.927734 -0.0423,0.837564 -0.127029,2.513042 -0.330078,4.28125 -0.203049,1.768209 -0.526174,3.629396 -0.873047,4.898438 -0.346873,1.269042 -0.718886,1.944259 -1.074219,2.595703 -0.355333,0.651444 -0.692321,1.278327 -1.394531,2.158203 -0.702211,0.879876 -1.769169,2.013311 -6.033203,6.277344 -4.264034,4.264033 -11.724818,11.658401 -15.59961,15.507812 -3.874791,3.849411 -4.163502,4.154394 -4.40039,4.408204 -0.236889,0.253809 -0.421924,0.457174 -0.548828,0.83789 -0.126905,0.380717 -0.195981,0.939017 -0.238282,1.50586 -0.0423,0.566842 -0.05918,1.141541 0.101563,1.84375 0.160748,0.702207 0.499591,1.531615 1.142578,2.496093 0.642987,0.964478 1.590776,2.06412 5.837891,6.404297 4.247114,4.340177 11.793253,11.919606 15.871093,16.132813 4.077841,4.213206 4.68702,5.058894 5.126953,5.845703 0.439935,0.786809 0.709739,1.515276 0.980469,2.310547 0.270731,0.795271 0.543056,1.657883 0.771485,2.529297 0.228428,0.871413 0.414749,1.751586 0.507812,2.496093 0.09306,0.744507 0.09311,1.353119 0.126953,2.021485 0.03384,0.668365 0.100277,1.395393 0.142578,1.945312 0.0423,0.549919 0.0586,0.923278 0.08398,1.185547 0.02538,0.262269 0.05996,0.413473 0.220703,0.574219 0.160747,0.160745 0.449343,0.330778 0.779297,0.449216 0.329953,0.11845 0.70067,0.18557 1.089844,0.21094 0.389172,0.0254 0.795675,0.01 1.066406,-0.0918 0.27073,-0.10153 0.406946,-0.287869 0.52539,-0.583981 0.118445,-0.296113 0.219437,-0.703487 0.3125,-1.667969 0.09306,-0.964482 0.178468,-2.48563 0.398438,-4.076172 0.21997,-1.590541 0.574354,-3.249877 0.929687,-4.628906 0.355334,-1.37903 0.711731,-2.479476 1.083985,-3.283203 0.372254,-0.803728 0.761105,-1.31062 4.365234,-5.007813 3.604129,-3.697192 10.422807,-10.583736 13.876953,-14.037109 3.454146,-3.453374 3.543401,-3.47298 3.626953,-3.453125 0.08355,0.01985 0.160916,0.08011 0.205078,1.845703 0.04416,1.765591 0.05495,5.236772 0.06445,7.205078 0.0095,1.968306 0.01725,2.433063 0.02148,2.746094 0.0042,0.31303 0.0043,0.473353 0.07617,0.591797 0.07191,0.118444 0.216569,0.194693 0.474609,0.279297 0.258041,0.0846 0.629699,0.178707 1.001953,0.166015 0.372254,-0.01269 0.744573,-0.132852 1.019532,-0.234375 0.274958,-0.101523 0.452507,-0.18466 0.537109,-0.425781 0.0846,-0.241121 0.0765,-0.639536 0.07227,-2.082031 -0.0042,-1.442496 -0.0052,-3.930357 -0.01367,-6.548828 -0.0085,-2.618471 -0.02443,-5.366855 -0.0625,-7.029297 -0.03807,-1.662442 -0.0964,-2.237189 -0.214844,-2.78711 -0.118445,-0.54992 -0.297345,-1.075836 -0.550781,-1.511718 -0.253436,-0.435883 -0.582232,-0.781681 -1.115235,-1.056641 -0.533002,-0.27496 -1.270531,-0.47938 -2.324218,-0.572266 -1.053688,-0.09289 -2.423221,-0.07423 -6.894532,-0.09961 -4.471311,-0.02538 -12.044141,-0.09473 -15.880859,-0.107422 -3.836718,-0.01269 -3.936919,0.03096 -4.123047,0.136719 -0.186128,0.105755 -0.457433,0.273847 -0.65625,0.498047 -0.198817,0.224199 -0.325211,0.504346 -0.363281,0.804687 -0.03807,0.300342 0.01178,0.621525 0.164062,0.896485 0.152287,0.27496 0.406042,0.503974 0.714844,0.68164 0.308802,0.177666 0.672232,0.303412 2.503906,0.371094 1.831674,0.06768 5.132218,0.07618 6.951172,0.101562 1.818954,0.02538 2.157681,0.06874 2.496094,0.216797 0.338413,0.148057 0.675555,0.401487 0.933594,0.71875 0.258039,0.317263 0.435596,0.698393 0.5625,1.091797 0.126904,0.393405 0.204107,0.798983 0.216797,1.205078 0.01269,0.406096 -0.03783,0.812721 -0.232422,1.396485 -0.194589,0.583764 -0.532967,1.344593 -0.765625,1.84375 -0.232658,0.499156 -0.360964,0.736364 -1.13086,1.705078 -0.769895,0.968714 -2.182068,2.667733 -3.298828,3.742187 -1.116759,1.074455 -1.936429,1.523231 -2.537109,1.832032 -0.600681,0.3088 -0.98129,0.479212 -1.429688,0.597656 -0.448397,0.118444 -0.965074,0.18489 -1.574218,0.167969 -0.609144,-0.01692 -1.3124,-0.118865 -1.900391,-0.25 -0.587991,-0.131136 -1.061421,-0.291506 -2.529297,-1.611329 -1.467875,-1.319821 -3.930197,-3.797708 -6.117187,-5.980468 -2.18699,-2.18276 -4.099033,-4.070506 -5.126954,-5.419922 -1.02792,-1.349416 -1.170932,-2.161151 -1.259765,-3.066406 -0.08883,-0.905256 -0.123019,-1.902923 -0.04687,-2.558594 0.07614,-0.655672 0.261872,-0.968933 2.427734,-3.210938 2.165862,-2.242004 6.311445,-6.412303 8.621094,-8.578125 2.309649,-2.165822 2.783185,-2.326525 3.599609,-2.398437 0.816425,-0.07191 1.97619,-0.0553 2.695313,0.05469 0.719123,0.109985 0.99806,0.312476 2.783203,1.996094 1.785143,1.683619 5.076503,4.847634 6.755859,6.455078 1.679357,1.607445 1.747065,1.658872 1.734375,1.701172 -0.01269,0.0423 -0.105206,0.07488 -1.154297,0.0918 -1.049088,0.01692 -3.053789,0.01857 -4.085937,0.05664 -1.032148,0.03807 -1.092788,0.113376 -1.130859,0.367187 -0.03807,0.253812 -0.05466,0.684692 0.02148,1.001953 0.07614,0.317261 0.244969,0.5212 0.71875,0.626953 0.473781,0.105753 1.252109,0.113282 4.285156,0.113282 3.033048,0 8.321067,-0.0085 11.091797,-0.02539 2.77073,-0.01692 3.024868,-0.04106 3.363281,-0.167969 0.338414,-0.126905 0.761846,-0.355269 1.091797,-0.689453 0.329952,-0.334184 0.566437,-0.774287 0.642578,-1.298828 0.07614,-0.524541 -0.0083,-1.13439 -0.435547,-1.828125 C 92.621334,46.55627 91.850611,45.77827 88.212641,42.144536 84.574671,38.510803 78.06969,32.021718 74.605219,28.42188 c -3.464471,-3.599838 -3.88816,-4.311151 -4.251953,-5.042969 -0.363793,-0.731818 -0.668733,-1.484407 -0.964844,-2.427734 -0.296111,-0.943328 -0.582442,-2.077208 -0.80664,-3.083984 -0.224198,-1.006778 -0.385453,-1.885333 -0.478516,-2.515626 -0.09306,-0.63029 -0.118179,-1.010642 -0.15625,-1.611328 -0.03807,-0.600685 -0.08953,-1.422089 -0.119141,-1.980468 -0.02961,-0.558379 -0.03841,-0.853603 -0.04687,-1.082032 -0.0085,-0.228429 -0.01695,-0.390368 -0.07617,-0.572265 C 67.645605,9.923571 67.53646,9.7216069 67.337641,9.53125 67.138822,9.3408931 66.851493,9.1630418 66.466547,9.0488281 66.081602,8.9346144 65.598261,8.8841171 65.281,8.8925781 Z m 0.240235,19.9140629 c 0.179001,-0.0017 0.345619,0.0023 0.492187,0.0098 0.586274,0.02991 0.849211,0.125956 1.058594,0.269532 0.209383,0.143575 0.363881,0.33539 0.429688,0.742187 0.06581,0.406797 0.04286,1.028745 -0.04688,1.435547 -0.08974,0.406802 -0.244972,0.597272 -0.394531,0.710937 -0.149559,0.113666 -0.294143,0.149653 -0.617187,0.185547 -0.323045,0.03589 -0.824775,0.07153 -1.177735,0.107422 -0.352959,0.03589 -0.556489,0.07311 -0.753906,0.126953 -0.197417,0.05384 -0.38843,0.125387 -3.822265,3.433594 -3.433837,3.308207 -10.109682,9.852731 -13.513672,13.214844 -3.403991,3.362113 -3.536235,3.542079 -3.673828,3.77539 -0.137595,0.233312 -0.28185,0.520212 -0.347657,0.867188 -0.06581,0.346975 -0.05261,0.753862 -0.05859,1.041015 -0.006,0.287155 -0.03159,0.45505 -0.205079,0.646485 -0.173487,0.191435 -0.496282,0.405251 -0.867187,0.548828 -0.370905,0.143577 -0.788034,0.216072 -1.123047,0.15625 -0.335013,-0.05982 -0.587014,-0.250586 -0.724609,-0.412109 -0.137596,-0.161524 -0.161986,-0.293639 -0.167969,-0.736328 -0.006,-0.442691 0.0063,-1.196576 0.07813,-1.705079 0.07179,-0.508502 0.203588,-0.77155 0.371094,-1.148437 0.167505,-0.376887 0.370057,-0.867228 3.367187,-4.001953 2.99713,-3.134726 8.788165,-8.913288 11.683594,-11.802735 2.895428,-2.889446 2.89591,-2.889806 3.494141,-3.5 0.598229,-0.610193 1.794665,-1.830203 2.662109,-2.583984 0.867444,-0.753781 1.405044,-1.0416 2.128906,-1.203125 0.542897,-0.121143 1.191513,-0.172687 1.728516,-0.177734 z m 23.685547,28.777343 c 0.219849,-0.02617 0.375709,0.06388 0.53125,0.234375 0.311082,0.340992 0.622169,0.99908 0.759765,1.423829 0.137596,0.424748 0.101822,0.615697 -0.0059,0.783203 -0.107682,0.167505 -0.287358,0.312885 -3.697266,3.621093 -3.409907,3.308209 -10.049872,9.780234 -13.417968,13.058594 -3.368097,3.27836 -3.463876,3.362174 -4.271485,3.416016 -0.807609,0.05384 -2.326144,0.07679 -3.277344,0.04687 -0.951199,-0.02991 -1.334555,-0.113623 -1.591797,-0.28711 -0.257241,-0.173487 -0.388301,-0.436842 -0.40625,-0.753906 -0.01795,-0.317064 0.0781,-0.687333 0.269532,-0.980469 0.191434,-0.293136 0.47794,-0.509135 1.076172,-0.634765 0.598231,-0.125631 1.507845,-0.161003 2.076172,-0.214844 0.568326,-0.05384 0.795917,-0.124672 1.507812,-0.710937 0.711895,-0.586266 1.908016,-1.687328 4.007812,-3.691407 2.099797,-2.004078 5.101961,-4.911537 6.603516,-6.365234 1.501555,-1.453697 1.502228,-1.453154 2.154297,-2.117188 0.652069,-0.664034 1.955244,-1.993337 3.277344,-3.267578 1.322099,-1.274241 2.662711,-2.493556 3.488281,-3.091797 0.412785,-0.29912 0.696166,-0.442576 0.916016,-0.46875 z" /></g></g></g></g></svg>
