<?xml version="1.0" encoding="UTF-8" standalone="no"?>
<!-- Created with Inkscape (http://www.inkscape.org/) -->

<svg
   width="120"
   height="120"
   viewBox="0 0 120 120"
   version="1.1"
   id="svg1"
   xml:space="preserve"
   inkscape:version="1.4.1 (93de688d07, 2025-03-30)"
   sodipodi:docname="hd2.svg"
   xmlns:inkscape="http://www.inkscape.org/namespaces/inkscape"
   xmlns:sodipodi="http://sodipodi.sourceforge.net/DTD/sodipodi-0.dtd"
   xmlns="http://www.w3.org/2000/svg"
   xmlns:svg="http://www.w3.org/2000/svg"><sodipodi:namedview
     id="namedview1"
     pagecolor="#1f1f1f"
     bordercolor="#000000"
     borderopacity="0.25"
     inkscape:showpageshadow="2"
     inkscape:pageopacity="0.0"
     inkscape:pagecheckerboard="0"
     inkscape:deskcolor="#3c3c3c"
     inkscape:document-units="px"
     inkscape:zoom="5.6568543"
     inkscape:cx="67.35192"
     inkscape:cy="50.116193"
     inkscape:window-width="2047"
     inkscape:window-height="1287"
     inkscape:window-x="0"
     inkscape:window-y="0"
     inkscape:window-maximized="1"
     inkscape:current-layer="g1" /><defs
     id="defs1"><inkscape:path-effect
       effect="bspline"
       id="path-effect14"
       is_visible="true"
       lpeversion="1.3"
       weight="33.333333"
       steps="2"
       helper_size="0"
       apply_no_weight="true"
       apply_with_weight="true"
       only_selected="false"
       uniform="false" /><inkscape:path-effect
       effect="fillet_chamfer"
       id="path-effect5"
       is_visible="true"
       lpeversion="1"
       nodesatellites_param="F,0,0,1,0,37.022737,0,1 @ F,0,0,1,0,36.062445,0,1 @ F,0,0,1,0,35.528974,0,1 @ F,0,0,1,0,28.991378,0,1"
       radius="0"
       unit="px"
       method="auto"
       mode="F"
       chamfer_steps="1"
       flexible="false"
       use_knot_distance="true"
       apply_no_radius="true"
       apply_with_radius="true"
       only_selected="false"
       hide_knots="false" /><inkscape:path-effect
       effect="bspline"
       id="path-effect4"
       is_visible="true"
       lpeversion="1.3"
       weight="33.333333"
       steps="2"
       helper_size="0"
       apply_no_weight="true"
       apply_with_weight="true"
       only_selected="false"
       uniform="false" /><inkscape:path-effect
       effect="bspline"
       id="path-effect3"
       is_visible="true"
       lpeversion="1.3"
       weight="33.333333"
       steps="2"
       helper_size="0"
       apply_no_weight="true"
       apply_with_weight="true"
       only_selected="false"
       uniform="false" /><inkscape:path-effect
       effect="mirror_symmetry"
       start_point="59.977887,81.781355"
       end_point="59.977887,112.27285"
       center_point="59.977887,97.027103"
       id="path-effect9"
       is_visible="true"
       lpeversion="1.2"
       lpesatellites=""
       mode="free"
       discard_orig_path="false"
       fuse_paths="false"
       oposite_fuse="false"
       split_items="false"
       split_open="false"
       link_styles="false" /><inkscape:path-effect
       effect="mirror_symmetry"
       start_point="59.944658,10.409945"
       end_point="59.944658,50.039614"
       center_point="59.944658,30.22478"
       id="path-effect2"
       is_visible="true"
       lpeversion="1.2"
       lpesatellites=""
       mode="free"
       discard_orig_path="false"
       fuse_paths="false"
       oposite_fuse="false"
       split_items="false"
       split_open="false"
       link_styles="false" /><inkscape:path-effect
       effect="mirror_symmetry"
       start_point="59.948435,66.805114"
       end_point="59.948435,107.38004"
       center_point="59.948435,87.092577"
       id="path-effect8"
       is_visible="true"
       lpeversion="1.2"
       lpesatellites=""
       mode="free"
       discard_orig_path="false"
       fuse_paths="false"
       oposite_fuse="false"
       split_items="false"
       split_open="false"
       link_styles="false" /><inkscape:path-effect
       effect="mirror_symmetry"
       start_point="60.801511,9.4541705"
       end_point="60.801511,40.169132"
       center_point="60.801511,24.811651"
       id="path-effect7"
       is_visible="true"
       lpeversion="1.2"
       lpesatellites=""
       mode="free"
       discard_orig_path="false"
       fuse_paths="false"
       oposite_fuse="false"
       split_items="false"
       split_open="false"
       link_styles="false" /><inkscape:path-effect
       effect="fillet_chamfer"
       id="path-effect13"
       is_visible="true"
       lpeversion="1"
       nodesatellites_param="F,0,0,1,0,4.7467821,0,1 @ F,0,0,1,0,4.0515277,0,1 @ F,0,0,1,0,0,0,1 @ F,0,0,1,0,2.4219461,0,1 @ F,0,0,1,0,2.4960577,0,1 @ F,0,0,1,0,0,0,1 @ F,0,0,1,0,4.1062831,0,1"
       radius="0"
       unit="px"
       method="auto"
       mode="F"
       chamfer_steps="1"
       flexible="false"
       use_knot_distance="true"
       apply_no_radius="true"
       apply_with_radius="true"
       only_selected="false"
       hide_knots="false" /><inkscape:path-effect
       effect="fillet_chamfer"
       id="path-effect12"
       is_visible="true"
       lpeversion="1"
       nodesatellites_param="F,0,0,1,0,0,0,1 @ F,0,0,1,0,0,0,1 @ F,0,0,1,0,0,0,1 @ F,0,0,1,0,0,0,1 @ F,0,0,1,0,3.627665,0,1 @ F,0,0,1,0,0,0,1 @ F,0,0,1,0,0,0,1"
       radius="0"
       unit="px"
       method="auto"
       mode="F"
       chamfer_steps="1"
       flexible="false"
       use_knot_distance="true"
       apply_no_radius="true"
       apply_with_radius="true"
       only_selected="false"
       hide_knots="false" /><inkscape:path-effect
       effect="fillet_chamfer"
       id="path-effect11"
       is_visible="true"
       lpeversion="1"
       nodesatellites_param="F,0,0,1,0,2.9729248,0,1 @ F,0,0,1,0,3.8975858,0,1 @ F,0,0,1,0,0,0,1 @ F,0,1,1,0,3.784373,0,1 @ F,0,0,1,0,1.4792147,0,1 @ F,0,0,1,0,0,0,1 @ F,0,0,1,0,3.784373,0,1"
       radius="0"
       unit="px"
       method="auto"
       mode="F"
       chamfer_steps="1"
       flexible="false"
       use_knot_distance="true"
       apply_no_radius="true"
       apply_with_radius="true"
       only_selected="false"
       hide_knots="false" /><linearGradient
       id="linearGradient6"><stop
         style="stop-color:#c88500;stop-opacity:1;"
         offset="0.07163448"
         id="stop8" /><stop
         style="stop-color:#fff300;stop-opacity:1;"
         offset="1"
         id="stop9" /></linearGradient><linearGradient
       id="linearGradient6-1"><stop
         style="stop-color:#c88500;stop-opacity:1;"
         offset="0"
         id="stop6" /><stop
         style="stop-color:#fff300;stop-opacity:1;"
         offset="1"
         id="stop7" /></linearGradient><inkscape:path-effect
       effect="fillet_chamfer"
       id="path-effect1"
       is_visible="true"
       lpeversion="1"
       nodesatellites_param="F,0,0,1,0,24.536157,0,1 @ F,0,0,1,0,24.004899,0,1 @ F,0,0,1,0,23.651152,0,1 @ F,0,0,1,0,24.380791,0,1"
       radius="0"
       unit="px"
       method="auto"
       mode="F"
       chamfer_steps="1"
       flexible="false"
       use_knot_distance="true"
       apply_no_radius="true"
       apply_with_radius="true"
       only_selected="false"
       hide_knots="false" /><linearGradient
       id="a"
       x1="7.937"
       x2="7.937"
       y1="15.081"
       y2="1.852"
       gradientTransform="scale(3.7796)"
       gradientUnits="userSpaceOnUse"><stop
         offset="0"
         stop-color="#9b6f27"
         id="stop1" /><stop
         offset="1"
         stop-color="#d0ab6a"
         id="stop2" /></linearGradient><filter
       id="b"
       width="1.216"
       height="1.216"
       x="-0.108"
       y="-0.108"
       color-interpolation-filters="sRGB"><feGaussianBlur
         stdDeviation="1.35"
         id="feGaussianBlur2" /></filter><linearGradient
       id="linearGradient31"
       x1=".5002"
       x2=".5002"
       y2="1"
       gradientTransform="matrix(244,0,0,228,5.986,12)"
       gradientUnits="userSpaceOnUse"><stop
         stop-color="#ebdbb2"
         stop-opacity=".2"
         offset="0"
         id="stop1-5" /><stop
         stop-color="#ebdbb2"
         stop-opacity=".05"
         offset=".1"
         id="stop2-6" /><stop
         stop-opacity="0"
         offset=".7036"
         id="stop3" /><stop
         stop-opacity=".1"
         offset=".8975"
         id="stop4" /><stop
         stop-opacity=".2"
         offset="1"
         id="stop5" /></linearGradient><inkscape:path-effect
       effect="bspline"
       id="path-effect4-92"
       is_visible="true"
       lpeversion="1.3"
       weight="33.333333"
       steps="2"
       helper_size="0"
       apply_no_weight="true"
       apply_with_weight="true"
       only_selected="false"
       uniform="false" /><inkscape:path-effect
       effect="bspline"
       id="path-effect3-6"
       is_visible="true"
       lpeversion="1.3"
       weight="33.333333"
       steps="2"
       helper_size="0"
       apply_no_weight="true"
       apply_with_weight="true"
       only_selected="false"
       uniform="false" /><inkscape:path-effect
       effect="mirror_symmetry"
       start_point="59.977887,81.781355"
       end_point="59.977887,112.27285"
       center_point="59.977887,97.027103"
       id="path-effect9-64"
       is_visible="true"
       lpeversion="1.2"
       lpesatellites=""
       mode="free"
       discard_orig_path="false"
       fuse_paths="false"
       oposite_fuse="false"
       split_items="false"
       split_open="false"
       link_styles="false" /><inkscape:path-effect
       effect="mirror_symmetry"
       start_point="59.944658,10.409945"
       end_point="59.944658,50.039614"
       center_point="59.944658,30.22478"
       id="path-effect2-9"
       is_visible="true"
       lpeversion="1.2"
       lpesatellites=""
       mode="free"
       discard_orig_path="false"
       fuse_paths="false"
       oposite_fuse="false"
       split_items="false"
       split_open="false"
       link_styles="false" /><inkscape:path-effect
       effect="mirror_symmetry"
       start_point="59.948435,66.805114"
       end_point="59.948435,107.38004"
       center_point="59.948435,87.092577"
       id="path-effect8-5"
       is_visible="true"
       lpeversion="1.2"
       lpesatellites=""
       mode="free"
       discard_orig_path="false"
       fuse_paths="false"
       oposite_fuse="false"
       split_items="false"
       split_open="false"
       link_styles="false" /><inkscape:path-effect
       effect="mirror_symmetry"
       start_point="60.801511,9.4541705"
       end_point="60.801511,40.169132"
       center_point="60.801511,24.811651"
       id="path-effect7-0"
       is_visible="true"
       lpeversion="1.2"
       lpesatellites=""
       mode="free"
       discard_orig_path="false"
       fuse_paths="false"
       oposite_fuse="false"
       split_items="false"
       split_open="false"
       link_styles="false" /><inkscape:path-effect
       effect="fillet_chamfer"
       id="path-effect13-4"
       is_visible="true"
       lpeversion="1"
       nodesatellites_param="F,0,0,1,0,4.7467821,0,1 @ F,0,0,1,0,4.0515277,0,1 @ F,0,0,1,0,0,0,1 @ F,0,0,1,0,2.4219461,0,1 @ F,0,0,1,0,2.4960577,0,1 @ F,0,0,1,0,0,0,1 @ F,0,0,1,0,4.1062831,0,1"
       radius="0"
       unit="px"
       method="auto"
       mode="F"
       chamfer_steps="1"
       flexible="false"
       use_knot_distance="true"
       apply_no_radius="true"
       apply_with_radius="true"
       only_selected="false"
       hide_knots="false" /><inkscape:path-effect
       effect="fillet_chamfer"
       id="path-effect12-8"
       is_visible="true"
       lpeversion="1"
       nodesatellites_param="F,0,0,1,0,0,0,1 @ F,0,0,1,0,0,0,1 @ F,0,0,1,0,0,0,1 @ F,0,0,1,0,0,0,1 @ F,0,0,1,0,3.627665,0,1 @ F,0,0,1,0,0,0,1 @ F,0,0,1,0,0,0,1"
       radius="0"
       unit="px"
       method="auto"
       mode="F"
       chamfer_steps="1"
       flexible="false"
       use_knot_distance="true"
       apply_no_radius="true"
       apply_with_radius="true"
       only_selected="false"
       hide_knots="false" /><inkscape:path-effect
       effect="fillet_chamfer"
       id="path-effect11-7"
       is_visible="true"
       lpeversion="1"
       nodesatellites_param="F,0,0,1,0,2.9729248,0,1 @ F,0,0,1,0,3.8975858,0,1 @ F,0,0,1,0,0,0,1 @ F,0,1,1,0,3.784373,0,1 @ F,0,0,1,0,1.4792147,0,1 @ F,0,0,1,0,0,0,1 @ F,0,0,1,0,3.784373,0,1"
       radius="0"
       unit="px"
       method="auto"
       mode="F"
       chamfer_steps="1"
       flexible="false"
       use_knot_distance="true"
       apply_no_radius="true"
       apply_with_radius="true"
       only_selected="false"
       hide_knots="false" /><inkscape:path-effect
       effect="fillet_chamfer"
       id="path-effect1-22"
       is_visible="true"
       lpeversion="1"
       nodesatellites_param="F,0,0,1,0,24.536157,0,1 @ F,0,0,1,0,24.004899,0,1 @ F,0,0,1,0,23.651152,0,1 @ F,0,0,1,0,24.380791,0,1"
       radius="0"
       unit="px"
       method="auto"
       mode="F"
       chamfer_steps="1"
       flexible="false"
       use_knot_distance="true"
       apply_no_radius="true"
       apply_with_radius="true"
       only_selected="false"
       hide_knots="false" /><filter
       id="b-0"
       width="1.216"
       height="1.216"
       x="-0.108"
       y="-0.108"
       color-interpolation-filters="sRGB"><feGaussianBlur
         stdDeviation="1.35"
         id="feGaussianBlur2-6" /></filter><inkscape:path-effect
       effect="bspline"
       id="path-effect6"
       is_visible="true"
       lpeversion="1.3"
       weight="33.333333"
       steps="2"
       helper_size="0"
       apply_no_weight="true"
       apply_with_weight="true"
       only_selected="false"
       uniform="false" /><inkscape:path-effect
       effect="bspline"
       id="path-effect5-1"
       is_visible="true"
       lpeversion="1.3"
       weight="33.333333"
       steps="2"
       helper_size="0"
       apply_no_weight="true"
       apply_with_weight="true"
       only_selected="false"
       uniform="false" /><inkscape:path-effect
       effect="bspline"
       id="path-effect4-9"
       is_visible="true"
       lpeversion="1.3"
       weight="33.333333"
       steps="2"
       helper_size="0"
       apply_no_weight="true"
       apply_with_weight="true"
       only_selected="false"
       uniform="false" /><inkscape:path-effect
       effect="bspline"
       id="path-effect3-3"
       is_visible="true"
       lpeversion="1.3"
       weight="33.333333"
       steps="2"
       helper_size="0"
       apply_no_weight="true"
       apply_with_weight="true"
       only_selected="false"
       uniform="false" /><inkscape:path-effect
       effect="mirror_symmetry"
       start_point="59.977887,81.781355"
       end_point="59.977887,112.27285"
       center_point="59.977887,97.027103"
       id="path-effect9-6"
       is_visible="true"
       lpeversion="1.2"
       lpesatellites=""
       mode="free"
       discard_orig_path="false"
       fuse_paths="false"
       oposite_fuse="false"
       split_items="false"
       split_open="false"
       link_styles="false" /><inkscape:path-effect
       effect="mirror_symmetry"
       start_point="59.944658,10.409945"
       end_point="59.944658,50.039614"
       center_point="59.944658,30.22478"
       id="path-effect2-0"
       is_visible="true"
       lpeversion="1.2"
       lpesatellites=""
       mode="free"
       discard_orig_path="false"
       fuse_paths="false"
       oposite_fuse="false"
       split_items="false"
       split_open="false"
       link_styles="false" /><inkscape:path-effect
       effect="mirror_symmetry"
       start_point="59.948435,66.805114"
       end_point="59.948435,107.38004"
       center_point="59.948435,87.092577"
       id="path-effect8-6"
       is_visible="true"
       lpeversion="1.2"
       lpesatellites=""
       mode="free"
       discard_orig_path="false"
       fuse_paths="false"
       oposite_fuse="false"
       split_items="false"
       split_open="false"
       link_styles="false" /><inkscape:path-effect
       effect="mirror_symmetry"
       start_point="60.801511,9.4541705"
       end_point="60.801511,40.169132"
       center_point="60.801511,24.811651"
       id="path-effect7-2"
       is_visible="true"
       lpeversion="1.2"
       lpesatellites=""
       mode="free"
       discard_orig_path="false"
       fuse_paths="false"
       oposite_fuse="false"
       split_items="false"
       split_open="false"
       link_styles="false" /><inkscape:path-effect
       effect="fillet_chamfer"
       id="path-effect13-6"
       is_visible="true"
       lpeversion="1"
       nodesatellites_param="F,0,0,1,0,4.7467821,0,1 @ F,0,0,1,0,4.0515277,0,1 @ F,0,0,1,0,0,0,1 @ F,0,0,1,0,2.4219461,0,1 @ F,0,0,1,0,2.4960577,0,1 @ F,0,0,1,0,0,0,1 @ F,0,0,1,0,4.1062831,0,1"
       radius="0"
       unit="px"
       method="auto"
       mode="F"
       chamfer_steps="1"
       flexible="false"
       use_knot_distance="true"
       apply_no_radius="true"
       apply_with_radius="true"
       only_selected="false"
       hide_knots="false" /><inkscape:path-effect
       effect="fillet_chamfer"
       id="path-effect12-1"
       is_visible="true"
       lpeversion="1"
       nodesatellites_param="F,0,0,1,0,0,0,1 @ F,0,0,1,0,0,0,1 @ F,0,0,1,0,0,0,1 @ F,0,0,1,0,0,0,1 @ F,0,0,1,0,3.627665,0,1 @ F,0,0,1,0,0,0,1 @ F,0,0,1,0,0,0,1"
       radius="0"
       unit="px"
       method="auto"
       mode="F"
       chamfer_steps="1"
       flexible="false"
       use_knot_distance="true"
       apply_no_radius="true"
       apply_with_radius="true"
       only_selected="false"
       hide_knots="false" /><inkscape:path-effect
       effect="fillet_chamfer"
       id="path-effect11-8"
       is_visible="true"
       lpeversion="1"
       nodesatellites_param="F,0,0,1,0,2.9729248,0,1 @ F,0,0,1,0,3.8975858,0,1 @ F,0,0,1,0,0,0,1 @ F,0,1,1,0,3.784373,0,1 @ F,0,0,1,0,1.4792147,0,1 @ F,0,0,1,0,0,0,1 @ F,0,0,1,0,3.784373,0,1"
       radius="0"
       unit="px"
       method="auto"
       mode="F"
       chamfer_steps="1"
       flexible="false"
       use_knot_distance="true"
       apply_no_radius="true"
       apply_with_radius="true"
       only_selected="false"
       hide_knots="false" /><inkscape:path-effect
       effect="fillet_chamfer"
       id="path-effect1-2"
       is_visible="true"
       lpeversion="1"
       nodesatellites_param="F,0,0,1,0,24.536157,0,1 @ F,0,0,1,0,24.004899,0,1 @ F,0,0,1,0,23.651152,0,1 @ F,0,0,1,0,24.380791,0,1"
       radius="0"
       unit="px"
       method="auto"
       mode="F"
       chamfer_steps="1"
       flexible="false"
       use_knot_distance="true"
       apply_no_radius="true"
       apply_with_radius="true"
       only_selected="false"
       hide_knots="false" /><filter
       id="b-5"
       width="1.216"
       height="1.216"
       x="-0.108"
       y="-0.108"
       color-interpolation-filters="sRGB"><feGaussianBlur
         stdDeviation="1.35"
         id="feGaussianBlur2-9" /></filter></defs><g
     inkscape:groupmode="layer"
     id="layer3"
     inkscape:label="base"><path
       d="m 76.476937,9.2332248 c 32.063223,0 37.852423,6.6798392 37.852423,38.7430672 v 24.938066 c 0,31.172592 -5.7892,37.852422 -37.852423,37.852422 H 43.523063 c -32.063227,0 -37.8524214,-6.67983 -37.8524214,-37.852422 V 47.976292 c 0,-32.063228 5.7891944,-38.7430672 37.8524214,-38.7430672 z"
       fill="#ebdbb2"
       style="display:inline;opacity:1;isolation:isolate;stroke-width:0.445323"
       id="path5" /><g
       id="g1"
       transform="matrix(0.84453858,0,0,0.84453858,9.1284039,9.4745417)"><g
         id="layer1"
         inkscape:label="Layer 3"><g
           id="layer1-8"
           inkscape:label="Layer 3"
           transform="translate(-2.0707992,1.5155654)"
           style="opacity:1"><path
             id="path1"
             style="display:none;fill:#ebdbb2;fill-opacity:1;fill-rule:evenodd;stroke-width:0.566"
             d="m 33.93408,32.960997 c -13.747276,-0.0018 -13.767183,0.0025 -13.787109,0.01172 -0.01993,0.0093 -0.03973,0.02308 -0.06055,0.03906 -0.02082,0.01598 -0.0426,0.03351 -0.05664,0.04687 -0.01404,0.01336 -0.02027,0.02118 -0.02539,0.03125 -0.0051,0.01007 -0.0076,0.02209 -0.0098,0.0625 -0.0022,0.04041 -0.0036,0.110872 -0.0039,1.38086 -3.17e-4,1.269987 4.37e-4,3.740135 0.0039,4.982422 0.0035,1.242286 0.0099,1.255089 0.01953,1.271484 0.0096,0.0164 0.02054,0.03613 0.03516,0.05273 0.01461,0.01661 0.03212,0.03098 0.06055,0.04102 0.02843,0.01003 0.06841,0.01432 0.148437,0.01563 0.08002,0.0013 0.201063,-6.53e-4 2.457031,-0.002 2.255969,-0.0013 6.646046,-6.33e-4 8.853516,0 2.20747,6.33e-4 2.23221,0.0012 2.257813,0.01172 0.0256,0.01051 0.05276,0.03007 0.07227,0.05469 0.01951,0.02461 0.03077,0.05554 0.03906,0.09961 0.0083,0.04407 0.01446,0.102538 0.01563,0.189454 0.0012,0.08692 -0.0023,0.202011 -0.0039,6.376953 -0.0016,6.174941 -0.0015,18.408688 -0.002,24.541015 -5e-4,6.132328 -0.0013,6.163032 -0.0059,6.185547 -0.0045,0.02251 -0.01336,0.03695 -0.0332,0.05273 -0.01985,0.01578 -0.05141,0.03304 -0.08203,0.04687 -0.03062,0.01384 -0.05953,0.02467 -0.16211,0.0293 -0.102583,0.0046 -0.279541,0.0026 -2.544922,-0.002 -2.26538,-0.0046 -6.619836,-0.01162 -8.80664,-0.01172 -2.186804,-9.7e-5 -2.204601,0.0068 -2.226563,0.02148 -0.02196,0.01467 -0.04888,0.03633 -0.06445,0.05664 -0.01557,0.02031 -0.02062,0.03871 -0.02539,0.0918 -0.0048,0.05309 -0.0075,0.140136 -0.0098,0.261719 -0.0023,0.121583 -0.003,0.278551 -0.002,1.501953 0.0011,1.223403 0.0028,3.514736 0.0078,4.671875 0.005,1.15714 0.01262,1.179901 0.02344,1.203125 0.01082,0.02322 0.02428,0.04539 0.04297,0.06641 0.01868,0.02101 0.04275,0.04013 0.0957,0.04883 0.05295,0.0087 0.135704,0.0076 13.925781,0.0078 13.790077,1.67e-4 41.285548,0.0015 55.044922,-0.002 13.759374,-0.0034 13.782084,-0.01112 13.804684,-0.02539 0.0226,-0.01427 0.0463,-0.03427 0.0625,-0.05664 0.0162,-0.02237 0.0243,-0.04759 0.0293,-0.07617 0.005,-0.02859 0.007,-0.06031 0.008,-1.335938 5e-4,-1.275631 5e-4,-3.795505 0,-5.058593 -5e-4,-1.263088 -0.002,-1.270751 -0.01,-1.283203 -0.008,-0.01245 -0.0235,-0.02854 -0.041,-0.04492 -0.0175,-0.01638 -0.0377,-0.03215 -0.0547,-0.04297 -0.017,-0.01082 -0.0313,-0.01834 -0.0527,-0.02148 -0.0214,-0.0031 -0.0499,-0.0026 -0.10742,-0.002 -0.0575,6.84e-4 -0.22931,0.0039 -2.43945,0.0039 h -8.849615 c -2.219326,0 -2.238029,-9.51e-4 -2.253906,-0.0039 -0.01588,-0.003 -0.02783,-0.0073 -0.04102,-0.01367 -0.01319,-0.0064 -0.02795,-0.01386 -0.04297,-0.02344 -0.01502,-0.0096 -0.03064,-0.0213 -0.04297,-0.03906 -0.01233,-0.01776 -0.01961,-0.04208 -0.02344,-0.113282 -0.0038,-0.0712 -0.0039,-0.190601 -0.0039,-6.380859 0,-6.190259 -1.38e-4,-18.449871 0,-24.599609 1.38e-4,-6.149739 5.38e-4,-6.189139 0.0059,-6.220704 0.0053,-0.03156 0.01391,-0.05551 0.03516,-0.08398 0.02125,-0.02848 0.05487,-0.06054 0.08008,-0.08008 0.0252,-0.01954 0.04353,-0.02785 0.283203,-0.03125 0.239667,-0.0034 0.700111,-0.002 2.96289,-0.002 2.262779,0 6.326329,-0.0012 8.365228,0 2.03891,0.0012 2.05363,0.0038 2.07227,-0.002 0.0187,-0.0058 0.0416,-0.01852 0.0625,-0.0332 0.0209,-0.01469 0.0384,-0.03084 0.0488,-0.06641 0.0104,-0.03556 0.0141,-0.09073 0.0156,-0.595703 10e-4,-0.504976 0.002,-1.459899 0.002,-2.707031 0,-1.247132 1e-5,-2.786081 -0.002,-3.564453 -0.002,-0.778372 -0.006,-0.796099 -0.0195,-0.816406 -0.0131,-0.02031 -0.035,-0.04494 -0.0586,-0.06055 -0.0236,-0.0156 -0.0492,-0.02138 -0.0859,-0.02734 -0.0367,-0.006 -0.0851,-0.01189 -0.12109,-0.01367 -0.036,-0.0018 -0.0587,-4.67e-4 -0.0703,0 -0.0116,4.67e-4 -0.0126,-5.6e-5 -13.749993,-0.0039 -13.737364,-0.0038 -41.211708,-0.01 -54.958985,-0.01172 z m 31.001954,7.916016 c 1.73509,0 1.734526,-3.67e-4 1.74414,0 0.0096,3.66e-4 0.02872,0.0012 0.04883,0.002 0.02011,8e-4 0.0412,0.0013 0.0625,0.002 0.02131,6.83e-4 0.04331,0.0017 0.06445,0.01172 0.02114,0.01 0.04182,0.03038 0.05859,0.05859 0.01677,0.02821 0.02991,0.06426 0.03516,0.09375 0.0053,0.02949 0.0012,0.05226 0,6.238282 -0.0012,6.186017 -1.1e-5,18.534277 0.002,24.734375 0.002,6.200098 0.0065,6.250366 0.0059,6.291015 -6.44e-4,0.04065 -0.0077,0.07254 -0.02539,0.0957 -0.01765,0.02316 -0.04611,0.03801 -0.07226,0.04687 -0.02616,0.0089 -0.04869,0.01232 -1.78125,0.01367 -1.732564,0.0013 -5.176365,0 -6.939453,0 H 56.25244 c -0.0416,0 -0.126354,-0.03716 -0.154297,-0.05469 -0.02794,-0.01753 -0.03756,-0.03155 -0.04492,-0.05078 -0.0074,-0.01923 -0.01308,-0.04285 -0.01563,-6.150391 -0.0025,-6.107537 -0.002,-18.298857 -0.0039,-24.5 -0.0019,-6.201143 -0.0057,-6.4125 -0.002,-6.539063 0.0038,-0.126562 0.0135,-0.169391 0.02734,-0.199218 0.01384,-0.02983 0.03248,-0.04691 0.06641,-0.06055 0.03392,-0.01363 0.08346,-0.02215 1.84375,-0.02734 1.760284,-0.0052 5.231707,-0.0059 6.966797,-0.0059 z" /><path
             id="path4"
             style="display:inline;fill:#373737;fill-opacity:1;fill-rule:evenodd;stroke:none;stroke-width:6.39351;stroke-dasharray:none;stroke-opacity:1"
             d="m 62.076214,11.558226 c -0.181321,0.01183 -0.277959,0.04974 -0.349624,0.08117 -0.07167,0.03133 -0.115718,0.05451 -0.16233,0.08117 -0.04664,0.02686 -0.09955,0.0594 -0.124897,0.0749 -0.02558,0.01534 -0.02686,0.01083 -5.85655,1.948021 -5.829802,1.936856 -17.48604,5.815691 -23.413711,7.823302 -5.927675,2.007616 -6.127053,2.148874 -6.224928,2.291426 -0.09788,0.142576 -0.09607,0.281697 -0.08739,0.568171 0.009,0.286462 0.03005,0.714935 0.424583,6.661985 0.394802,5.947045 1.165964,17.4144 1.529694,23.18894 0.363746,5.774537 0.319324,5.857809 -0.118632,6.318579 -0.437954,0.460771 -1.271313,1.296257 -3.059387,3.121828 -1.788082,1.825572 -4.533551,4.644266 -5.931479,6.106298 -1.39792,1.462035 -1.445667,1.568145 -1.479745,1.660812 -0.03389,0.09267 -0.05706,0.167766 -0.04993,0.274698 0.007,0.106963 0.04178,0.249633 0.168565,0.449542 0.126911,0.199925 0.347206,0.458779 2.740966,3.334114 2.393738,2.875332 6.96308,8.364258 9.296805,11.151171 2.333725,2.786913 2.43512,2.874877 2.534925,2.928273 0.0998,0.05341 0.197017,0.07576 0.287197,0.08117 0.09018,0.0055 0.171921,-0.01059 0.30593,-0.06866 0.134038,-0.05828 0.316606,-0.163035 1.754463,-0.767966 1.43789,-0.604962 4.132828,-1.705559 5.513152,-2.272696 1.380322,-0.567133 1.449209,-0.60143 1.535936,-0.630607 0.08677,-0.02909 0.187491,-0.05383 0.324686,-0.02494 0.137204,0.02909 0.312673,0.111283 0.449539,0.231029 0.136885,0.119687 0.236049,0.275688 0.380855,0.674317 0.144812,0.398673 0.333965,1.041397 1.005228,3.340357 0.671241,2.298964 1.824448,6.255047 2.435028,8.254118 0.61058,1.999072 0.674083,2.041412 0.736749,2.066652 0.06269,0.0249 0.12528,0.0334 2.672286,0.78046 2.547023,0.747 7.582933,2.23507 10.15219,2.99071 2.569255,0.75563 2.672024,0.77812 2.759695,0.7867 0.08769,0.009 0.157407,0.003 0.362118,-0.0313 0.204721,-0.0343 0.546885,-0.0976 3.021928,-0.81792 2.475047,-0.72032 7.082597,-2.09915 9.47163,-2.80341 2.389032,-0.70425 2.554426,-0.73762 2.66604,-0.76172 0.111598,-0.0243 0.16914,-0.0427 0.224796,-0.0874 0.05559,-0.0446 0.108814,-0.11272 0.786704,-2.447513 0.677887,-2.334803 1.980487,-6.934379 2.659803,-9.290565 0.679304,-2.356185 0.738083,-2.470376 0.842893,-2.584874 0.104775,-0.114508 0.25954,-0.229975 0.412092,-0.280963 0.152553,-0.05099 0.301415,-0.03651 0.693042,0.09367 0.391638,0.130331 1.023234,0.377776 2.503707,0.967765 1.480473,0.58998 3.812594,1.522521 5.032387,2.004216 1.219793,0.481694 1.326465,0.511452 1.417317,0.524467 0.0908,0.01311 0.164823,0.0073 0.243521,-0.01886 0.07858,-0.02653 0.164604,-0.07174 0.455804,-0.355869 0.29115,-0.284159 0.789,-0.806921 1.62335,-1.78569 0.83433,-0.978766 2.00591,-2.411106 4.139537,-4.988679 2.133628,-2.577577 5.225728,-6.299348 6.824318,-8.216655 1.59859,-1.917303 1.70261,-2.030635 1.76071,-2.122842 0.0581,-0.09219 0.073,-0.165655 0.0749,-0.249762 0.002,-0.08411 -0.008,-0.178954 -0.0313,-0.280962 -0.0233,-0.102005 -0.0637,-0.210602 -0.30592,-0.493249 -0.24225,-0.282626 -0.68791,-0.741743 -2.48498,-2.559902 -1.79707,-1.818156 -4.941468,-4.993881 -6.530868,-6.605789 -1.589397,-1.611908 -1.627397,-1.661512 -1.654557,-1.766953 -0.0271,-0.105427 -0.0478,-0.268879 -0.0435,-0.561929 0.005,-0.293046 0.0361,-0.71072 0.0811,-1.398582 0.0451,-0.687859 0.10536,-1.63964 0.48701,-7.386244 0.381637,-5.746607 1.084137,-16.290653 1.429797,-21.578077 0.34565,-5.287426 0.33395,-5.323111 0.28096,-5.375791 -0.053,-0.05265 -0.14728,-0.123778 -0.40585,-0.243463 -0.25859,-0.119695 -0.68319,-0.288131 -6.587124,-2.266458 -5.903941,-1.978327 -17.284069,-5.765078 -23.014123,-7.685974 -5.730057,-1.920889 -5.80732,-1.975292 -5.975181,-2.010452 -0.167862,-0.03519 -0.430565,-0.04914 -0.611878,-0.0374 z m 20.16077,45.247784 a 9.2609179,9.2609179 0 0 1 9.265583,9.265588 9.2609179,9.2609179 0 0 1 -9.265583,9.259342 9.2609179,9.2609179 0 0 1 -9.25935,-9.259342 9.2609179,9.2609179 0 0 1 9.25935,-9.265588 z m -39.784585,0.02494 a 9.2609179,9.2609179 0 0 1 9.265586,9.265586 9.2609179,9.2609179 0 0 1 -9.265586,9.259346 9.2609179,9.2609179 0 0 1 -9.259346,-9.259346 9.2609179,9.2609179 0 0 1 9.259346,-9.265586 z m 20.010922,18.961986 c 0.0669,0.04092 0.129629,0.07765 1.061418,1.454769 0.931779,1.377134 2.732421,4.091795 3.658785,5.50066 0.926361,1.408867 0.980111,1.512436 1.005232,1.623353 0.02494,0.110922 0.01758,0.22745 0.0061,0.324682 -0.01153,0.09721 -0.02781,0.177132 -0.05617,0.243528 -0.02813,0.06633 -0.06326,0.123554 -0.293462,0.312195 -0.230198,0.188608 -0.650318,0.508744 -0.986495,0.767968 -0.336164,0.259226 -0.591204,0.451881 -0.780455,0.568175 -0.189248,0.116301 -0.313154,0.157601 -0.399597,0.181064 -0.08644,0.02334 -0.134168,0.02909 -0.224797,0.0061 -0.09063,-0.02302 -0.227416,-0.07794 -0.693046,-0.586904 -0.46561,-0.508955 -1.258426,-1.470829 -1.704515,-2.004214 -0.446093,-0.533381 -0.544339,-0.640091 -0.624367,-0.686797 -0.08001,-0.04671 -0.144685,-0.03389 -0.586905,0.474517 -0.442244,0.508341 -1.263605,1.51692 -1.760713,2.085382 -0.497101,0.568457 -0.669512,0.698903 -0.805428,0.774209 -0.135926,0.07531 -0.232883,0.09091 -0.318429,0.08117 -0.08554,-0.0095 -0.162587,-0.04574 -0.549444,-0.349622 -0.38684,-0.303883 -1.082939,-0.876086 -1.485988,-1.217515 -0.403069,-0.341442 -0.510921,-0.450308 -0.549446,-0.561932 -0.03871,-0.111632 -0.009,-0.220863 0.02494,-0.318428 0.03389,-0.09757 0.07512,-0.186498 1.023959,-1.623349 0.948815,-1.436838 2.80585,-4.222376 4.66401,-7.011628 z" /></g></g></g></g></svg>
