<?xml version="1.0" encoding="UTF-8" standalone="no"?>
<!-- Created with Inkscape (http://www.inkscape.org/) -->

<svg
   width="120"
   height="120"
   viewBox="0 0 120 120"
   version="1.1"
   id="svg1"
   xml:space="preserve"
   inkscape:version="1.4.1 (93de688d07, 2025-03-30)"
   sodipodi:docname="ins2.svg"
   xmlns:inkscape="http://www.inkscape.org/namespaces/inkscape"
   xmlns:sodipodi="http://sodipodi.sourceforge.net/DTD/sodipodi-0.dtd"
   xmlns="http://www.w3.org/2000/svg"
   xmlns:svg="http://www.w3.org/2000/svg"><sodipodi:namedview
     id="namedview1"
     pagecolor="#1f1f1f"
     bordercolor="#000000"
     borderopacity="0.25"
     inkscape:showpageshadow="2"
     inkscape:pageopacity="0.0"
     inkscape:pagecheckerboard="0"
     inkscape:deskcolor="#3c3c3c"
     inkscape:document-units="px"
     inkscape:zoom="5.6568543"
     inkscape:cx="67.440309"
     inkscape:cy="50.116193"
     inkscape:window-width="2140"
     inkscape:window-height="1287"
     inkscape:window-x="0"
     inkscape:window-y="0"
     inkscape:window-maximized="1"
     inkscape:current-layer="layer3" /><defs
     id="defs1"><inkscape:path-effect
       effect="bspline"
       id="path-effect14"
       is_visible="true"
       lpeversion="1.3"
       weight="33.333333"
       steps="2"
       helper_size="0"
       apply_no_weight="true"
       apply_with_weight="true"
       only_selected="false"
       uniform="false" /><inkscape:path-effect
       effect="fillet_chamfer"
       id="path-effect5"
       is_visible="true"
       lpeversion="1"
       nodesatellites_param="F,0,0,1,0,37.022737,0,1 @ F,0,0,1,0,36.062445,0,1 @ F,0,0,1,0,35.528974,0,1 @ F,0,0,1,0,28.991378,0,1"
       radius="0"
       unit="px"
       method="auto"
       mode="F"
       chamfer_steps="1"
       flexible="false"
       use_knot_distance="true"
       apply_no_radius="true"
       apply_with_radius="true"
       only_selected="false"
       hide_knots="false" /><inkscape:path-effect
       effect="bspline"
       id="path-effect4"
       is_visible="true"
       lpeversion="1.3"
       weight="33.333333"
       steps="2"
       helper_size="0"
       apply_no_weight="true"
       apply_with_weight="true"
       only_selected="false"
       uniform="false" /><inkscape:path-effect
       effect="bspline"
       id="path-effect3"
       is_visible="true"
       lpeversion="1.3"
       weight="33.333333"
       steps="2"
       helper_size="0"
       apply_no_weight="true"
       apply_with_weight="true"
       only_selected="false"
       uniform="false" /><inkscape:path-effect
       effect="mirror_symmetry"
       start_point="59.977887,81.781355"
       end_point="59.977887,112.27285"
       center_point="59.977887,97.027103"
       id="path-effect9"
       is_visible="true"
       lpeversion="1.2"
       lpesatellites=""
       mode="free"
       discard_orig_path="false"
       fuse_paths="false"
       oposite_fuse="false"
       split_items="false"
       split_open="false"
       link_styles="false" /><inkscape:path-effect
       effect="mirror_symmetry"
       start_point="59.944658,10.409945"
       end_point="59.944658,50.039614"
       center_point="59.944658,30.22478"
       id="path-effect2"
       is_visible="true"
       lpeversion="1.2"
       lpesatellites=""
       mode="free"
       discard_orig_path="false"
       fuse_paths="false"
       oposite_fuse="false"
       split_items="false"
       split_open="false"
       link_styles="false" /><inkscape:path-effect
       effect="mirror_symmetry"
       start_point="59.948435,66.805114"
       end_point="59.948435,107.38004"
       center_point="59.948435,87.092577"
       id="path-effect8"
       is_visible="true"
       lpeversion="1.2"
       lpesatellites=""
       mode="free"
       discard_orig_path="false"
       fuse_paths="false"
       oposite_fuse="false"
       split_items="false"
       split_open="false"
       link_styles="false" /><inkscape:path-effect
       effect="mirror_symmetry"
       start_point="60.801511,9.4541705"
       end_point="60.801511,40.169132"
       center_point="60.801511,24.811651"
       id="path-effect7"
       is_visible="true"
       lpeversion="1.2"
       lpesatellites=""
       mode="free"
       discard_orig_path="false"
       fuse_paths="false"
       oposite_fuse="false"
       split_items="false"
       split_open="false"
       link_styles="false" /><inkscape:path-effect
       effect="fillet_chamfer"
       id="path-effect13"
       is_visible="true"
       lpeversion="1"
       nodesatellites_param="F,0,0,1,0,4.7467821,0,1 @ F,0,0,1,0,4.0515277,0,1 @ F,0,0,1,0,0,0,1 @ F,0,0,1,0,2.4219461,0,1 @ F,0,0,1,0,2.4960577,0,1 @ F,0,0,1,0,0,0,1 @ F,0,0,1,0,4.1062831,0,1"
       radius="0"
       unit="px"
       method="auto"
       mode="F"
       chamfer_steps="1"
       flexible="false"
       use_knot_distance="true"
       apply_no_radius="true"
       apply_with_radius="true"
       only_selected="false"
       hide_knots="false" /><inkscape:path-effect
       effect="fillet_chamfer"
       id="path-effect12"
       is_visible="true"
       lpeversion="1"
       nodesatellites_param="F,0,0,1,0,0,0,1 @ F,0,0,1,0,0,0,1 @ F,0,0,1,0,0,0,1 @ F,0,0,1,0,0,0,1 @ F,0,0,1,0,3.627665,0,1 @ F,0,0,1,0,0,0,1 @ F,0,0,1,0,0,0,1"
       radius="0"
       unit="px"
       method="auto"
       mode="F"
       chamfer_steps="1"
       flexible="false"
       use_knot_distance="true"
       apply_no_radius="true"
       apply_with_radius="true"
       only_selected="false"
       hide_knots="false" /><inkscape:path-effect
       effect="fillet_chamfer"
       id="path-effect11"
       is_visible="true"
       lpeversion="1"
       nodesatellites_param="F,0,0,1,0,2.9729248,0,1 @ F,0,0,1,0,3.8975858,0,1 @ F,0,0,1,0,0,0,1 @ F,0,1,1,0,3.784373,0,1 @ F,0,0,1,0,1.4792147,0,1 @ F,0,0,1,0,0,0,1 @ F,0,0,1,0,3.784373,0,1"
       radius="0"
       unit="px"
       method="auto"
       mode="F"
       chamfer_steps="1"
       flexible="false"
       use_knot_distance="true"
       apply_no_radius="true"
       apply_with_radius="true"
       only_selected="false"
       hide_knots="false" /><linearGradient
       id="linearGradient6"><stop
         style="stop-color:#c88500;stop-opacity:1;"
         offset="0.07163448"
         id="stop8" /><stop
         style="stop-color:#fff300;stop-opacity:1;"
         offset="1"
         id="stop9" /></linearGradient><linearGradient
       id="linearGradient6-1"><stop
         style="stop-color:#c88500;stop-opacity:1;"
         offset="0"
         id="stop6" /><stop
         style="stop-color:#fff300;stop-opacity:1;"
         offset="1"
         id="stop7" /></linearGradient><inkscape:path-effect
       effect="fillet_chamfer"
       id="path-effect1"
       is_visible="true"
       lpeversion="1"
       nodesatellites_param="F,0,0,1,0,24.536157,0,1 @ F,0,0,1,0,24.004899,0,1 @ F,0,0,1,0,23.651152,0,1 @ F,0,0,1,0,24.380791,0,1"
       radius="0"
       unit="px"
       method="auto"
       mode="F"
       chamfer_steps="1"
       flexible="false"
       use_knot_distance="true"
       apply_no_radius="true"
       apply_with_radius="true"
       only_selected="false"
       hide_knots="false" /><linearGradient
       id="a"
       x1="7.937"
       x2="7.937"
       y1="15.081"
       y2="1.852"
       gradientTransform="scale(3.7796)"
       gradientUnits="userSpaceOnUse"><stop
         offset="0"
         stop-color="#9b6f27"
         id="stop1" /><stop
         offset="1"
         stop-color="#d0ab6a"
         id="stop2" /></linearGradient><filter
       id="b"
       width="1.216"
       height="1.216"
       x="-0.108"
       y="-0.108"
       color-interpolation-filters="sRGB"><feGaussianBlur
         stdDeviation="1.35"
         id="feGaussianBlur2" /></filter><linearGradient
       id="linearGradient31"
       x1=".5002"
       x2=".5002"
       y2="1"
       gradientTransform="matrix(244,0,0,228,5.986,12)"
       gradientUnits="userSpaceOnUse"><stop
         stop-color="#ebdbb2"
         stop-opacity=".2"
         offset="0"
         id="stop1-5" /><stop
         stop-color="#ebdbb2"
         stop-opacity=".05"
         offset=".1"
         id="stop2-6" /><stop
         stop-opacity="0"
         offset=".7036"
         id="stop3" /><stop
         stop-opacity=".1"
         offset=".8975"
         id="stop4" /><stop
         stop-opacity=".2"
         offset="1"
         id="stop5" /></linearGradient><inkscape:path-effect
       effect="bspline"
       id="path-effect20"
       is_visible="true"
       lpeversion="1.3"
       weight="33.333333"
       steps="2"
       helper_size="0"
       apply_no_weight="true"
       apply_with_weight="true"
       only_selected="false"
       uniform="false" /><inkscape:path-effect
       effect="bspline"
       id="path-effect19"
       is_visible="true"
       lpeversion="1.3"
       weight="33.333333"
       steps="2"
       helper_size="0"
       apply_no_weight="true"
       apply_with_weight="true"
       only_selected="false"
       uniform="false" /><inkscape:path-effect
       effect="bspline"
       id="path-effect18"
       is_visible="true"
       lpeversion="1.3"
       weight="33.333333"
       steps="2"
       helper_size="0"
       apply_no_weight="true"
       apply_with_weight="true"
       only_selected="false"
       uniform="false" /><inkscape:path-effect
       effect="bspline"
       id="path-effect17"
       is_visible="true"
       lpeversion="1.3"
       weight="33.333333"
       steps="2"
       helper_size="0"
       apply_no_weight="true"
       apply_with_weight="true"
       only_selected="false"
       uniform="false" /><inkscape:path-effect
       effect="bspline"
       id="path-effect16"
       is_visible="true"
       lpeversion="1.3"
       weight="33.333333"
       steps="2"
       helper_size="0"
       apply_no_weight="true"
       apply_with_weight="true"
       only_selected="false"
       uniform="false" /><inkscape:path-effect
       effect="bspline"
       id="path-effect15"
       is_visible="true"
       lpeversion="1.3"
       weight="33.333333"
       steps="2"
       helper_size="0"
       apply_no_weight="true"
       apply_with_weight="true"
       only_selected="false"
       uniform="false" /><inkscape:path-effect
       effect="bspline"
       id="path-effect14-5"
       is_visible="true"
       lpeversion="1.3"
       weight="33.333333"
       steps="2"
       helper_size="0"
       apply_no_weight="true"
       apply_with_weight="true"
       only_selected="false"
       uniform="false" /><inkscape:path-effect
       effect="bspline"
       id="path-effect10"
       is_visible="true"
       lpeversion="1.3"
       weight="33.333333"
       steps="2"
       helper_size="0"
       apply_no_weight="true"
       apply_with_weight="true"
       only_selected="false"
       uniform="false" /><inkscape:path-effect
       effect="bspline"
       id="path-effect6"
       is_visible="true"
       lpeversion="1.3"
       weight="33.333333"
       steps="2"
       helper_size="0"
       apply_no_weight="true"
       apply_with_weight="true"
       only_selected="false"
       uniform="false" /><inkscape:path-effect
       effect="bspline"
       id="path-effect5-9"
       is_visible="true"
       lpeversion="1.3"
       weight="33.333333"
       steps="2"
       helper_size="0"
       apply_no_weight="true"
       apply_with_weight="true"
       only_selected="false"
       uniform="false" /><inkscape:path-effect
       effect="bspline"
       id="path-effect4-7"
       is_visible="true"
       lpeversion="1.3"
       weight="33.333333"
       steps="2"
       helper_size="0"
       apply_no_weight="true"
       apply_with_weight="true"
       only_selected="false"
       uniform="false" /><inkscape:path-effect
       effect="bspline"
       id="path-effect3-5"
       is_visible="true"
       lpeversion="1.3"
       weight="33.333333"
       steps="2"
       helper_size="0"
       apply_no_weight="true"
       apply_with_weight="true"
       only_selected="false"
       uniform="false" /><inkscape:path-effect
       effect="mirror_symmetry"
       start_point="59.977887,81.781355"
       end_point="59.977887,112.27285"
       center_point="59.977887,97.027103"
       id="path-effect9-3"
       is_visible="true"
       lpeversion="1.2"
       lpesatellites=""
       mode="free"
       discard_orig_path="false"
       fuse_paths="false"
       oposite_fuse="false"
       split_items="false"
       split_open="false"
       link_styles="false" /><inkscape:path-effect
       effect="mirror_symmetry"
       start_point="59.944658,10.409945"
       end_point="59.944658,50.039614"
       center_point="59.944658,30.22478"
       id="path-effect2-8"
       is_visible="true"
       lpeversion="1.2"
       lpesatellites=""
       mode="free"
       discard_orig_path="false"
       fuse_paths="false"
       oposite_fuse="false"
       split_items="false"
       split_open="false"
       link_styles="false" /><inkscape:path-effect
       effect="mirror_symmetry"
       start_point="59.948435,66.805114"
       end_point="59.948435,107.38004"
       center_point="59.948435,87.092577"
       id="path-effect8-8"
       is_visible="true"
       lpeversion="1.2"
       lpesatellites=""
       mode="free"
       discard_orig_path="false"
       fuse_paths="false"
       oposite_fuse="false"
       split_items="false"
       split_open="false"
       link_styles="false" /><inkscape:path-effect
       effect="mirror_symmetry"
       start_point="60.801511,9.4541705"
       end_point="60.801511,40.169132"
       center_point="60.801511,24.811651"
       id="path-effect7-3"
       is_visible="true"
       lpeversion="1.2"
       lpesatellites=""
       mode="free"
       discard_orig_path="false"
       fuse_paths="false"
       oposite_fuse="false"
       split_items="false"
       split_open="false"
       link_styles="false" /><inkscape:path-effect
       effect="fillet_chamfer"
       id="path-effect13-1"
       is_visible="true"
       lpeversion="1"
       nodesatellites_param="F,0,0,1,0,4.7467821,0,1 @ F,0,0,1,0,4.0515277,0,1 @ F,0,0,1,0,0,0,1 @ F,0,0,1,0,2.4219461,0,1 @ F,0,0,1,0,2.4960577,0,1 @ F,0,0,1,0,0,0,1 @ F,0,0,1,0,4.1062831,0,1"
       radius="0"
       unit="px"
       method="auto"
       mode="F"
       chamfer_steps="1"
       flexible="false"
       use_knot_distance="true"
       apply_no_radius="true"
       apply_with_radius="true"
       only_selected="false"
       hide_knots="false" /><inkscape:path-effect
       effect="fillet_chamfer"
       id="path-effect12-8"
       is_visible="true"
       lpeversion="1"
       nodesatellites_param="F,0,0,1,0,0,0,1 @ F,0,0,1,0,0,0,1 @ F,0,0,1,0,0,0,1 @ F,0,0,1,0,0,0,1 @ F,0,0,1,0,3.627665,0,1 @ F,0,0,1,0,0,0,1 @ F,0,0,1,0,0,0,1"
       radius="0"
       unit="px"
       method="auto"
       mode="F"
       chamfer_steps="1"
       flexible="false"
       use_knot_distance="true"
       apply_no_radius="true"
       apply_with_radius="true"
       only_selected="false"
       hide_knots="false" /><inkscape:path-effect
       effect="fillet_chamfer"
       id="path-effect11-9"
       is_visible="true"
       lpeversion="1"
       nodesatellites_param="F,0,0,1,0,2.9729248,0,1 @ F,0,0,1,0,3.8975858,0,1 @ F,0,0,1,0,0,0,1 @ F,0,1,1,0,3.784373,0,1 @ F,0,0,1,0,1.4792147,0,1 @ F,0,0,1,0,0,0,1 @ F,0,0,1,0,3.784373,0,1"
       radius="0"
       unit="px"
       method="auto"
       mode="F"
       chamfer_steps="1"
       flexible="false"
       use_knot_distance="true"
       apply_no_radius="true"
       apply_with_radius="true"
       only_selected="false"
       hide_knots="false" /><inkscape:path-effect
       effect="fillet_chamfer"
       id="path-effect1-3"
       is_visible="true"
       lpeversion="1"
       nodesatellites_param="F,0,0,1,0,24.536157,0,1 @ F,0,0,1,0,24.004899,0,1 @ F,0,0,1,0,23.651152,0,1 @ F,0,0,1,0,24.380791,0,1"
       radius="0"
       unit="px"
       method="auto"
       mode="F"
       chamfer_steps="1"
       flexible="false"
       use_knot_distance="true"
       apply_no_radius="true"
       apply_with_radius="true"
       only_selected="false"
       hide_knots="false" /><filter
       id="b-4"
       width="1.216"
       height="1.216"
       x="-0.108"
       y="-0.108"
       color-interpolation-filters="sRGB"><feGaussianBlur
         stdDeviation="1.35"
         id="feGaussianBlur2-8" /></filter></defs><g
     inkscape:groupmode="layer"
     id="layer3"
     inkscape:label="base"><path
       d="m 76.476937,9.2332248 c 32.063223,0 37.852423,6.6798392 37.852423,38.7430672 v 24.938066 c 0,31.172592 -5.7892,37.852422 -37.852423,37.852422 H 43.523063 c -32.063227,0 -37.8524214,-6.67983 -37.8524214,-37.852422 V 47.976292 c 0,-32.063228 5.7891944,-38.7430672 37.8524214,-38.7430672 z"
       fill="#ebdbb2"
       style="display:inline;opacity:1;isolation:isolate;stroke-width:0.445323;fill:#1d2021;fill-opacity:1"
       id="path5" /><g
       id="g1"
       transform="matrix(0.8866265,0,0,0.8866265,-4.7570973,19.370409)"><g
         id="layer1"
         inkscape:label="Layer 3"><g
           id="g20"
           transform="matrix(1.8439618,0,0,1.8439618,-52.107146,-55.031634)"><path
             style="display:none;fill:#1d2021;fill-opacity:1;stroke-width:0.767"
             d="m 79.636257,33.811908 c -9.73917,0 -29.21751,0 -39.160081,0.01196 -9.942572,0.01197 -10.349359,0.0359 -10.68437,0.287156 -0.335011,0.251261 -0.598226,0.729835 -0.83752,1.208423 -0.239294,0.478588 -0.454652,0.957162 -0.47858,1.399855 -0.02393,0.442694 0.143574,0.849482 5.132903,9.655586 4.989328,8.806104 14.800089,26.010829 19.897005,34.852659 5.096915,8.841831 5.479774,9.320405 6.125871,9.571662 0.646096,0.251256 1.555386,0.275186 2.608281,-0.538421 1.052895,-0.813608 2.24933,-2.464687 7.44205,-11.426321 5.19272,-8.961635 14.381335,-25.233141 18.9877,-33.716036 4.606364,-8.482896 4.630294,-9.176827 4.355103,-9.763097 -0.275191,-0.586269 -0.849479,-1.064843 -1.507539,-1.304134 -0.658059,-0.239292 -1.399848,-0.239292 -1.77075,-0.239292 -0.370902,0 -0.370904,-5e-6 -10.110073,-5e-6 z"
             id="path1"
             inkscape:path-effect="#path-effect5-9"
             inkscape:original-d="m 89.375426,33.811908 c -19.478339,0 -38.956679,0 -58.435018,0 -0.406804,0.02393 -0.813591,0.04786 -1.220387,0.07179 -0.263226,0.478592 -0.526442,0.957166 -0.789662,1.435749 -0.215367,0.478593 -0.430725,0.957167 -0.646088,1.43575 0.167508,0.406804 0.335009,0.813592 0.502513,1.220387 9.811153,17.205413 19.621914,34.410138 29.432871,51.615206 0.382874,0.478593 0.765733,0.957167 1.1486,1.43575 0.909326,0.02393 1.818616,0.04786 2.727924,0.07179 1.196482,-1.651145 2.392917,-3.302224 3.589375,-4.953336 C 74.874536,69.872837 84.063151,53.601331 93.25195,37.3295 c 0.02393,-0.69396 0.04786,-1.387891 0.07179,-2.081837 -0.574312,-0.478593 -1.1486,-0.957167 -1.7229,-1.43575 -0.741819,0 -1.483608,0 -2.225412,0 z" /><path
             style="display:none;fill:#cc241d;fill-opacity:1;stroke-width:0.767"
             d="m 79.094754,35.431472 c -9.873096,0 -28.824026,0 -38.451779,0.03384 -9.627752,0.03384 -9.932315,0.101522 -10.143822,0.228427 -0.211508,0.126906 -0.329948,0.313027 -0.414551,0.609139 -0.0846,0.296113 -0.135364,0.702196 -0.01692,1.269039 0.118446,0.566843 0.406089,1.294409 5.304661,9.907096 4.898573,8.612686 14.407689,25.109818 19.373852,33.493915 4.966163,8.384097 5.389167,8.65482 5.75296,8.773262 0.363793,0.118443 0.668356,0.0846 0.888323,-0.02538 0.219968,-0.109985 0.355329,-0.296106 5.372348,-8.908798 5.01702,-8.612691 14.915299,-25.651267 19.9153,-34.373776 5.000001,-8.722508 5.101522,-9.128591 5.118442,-9.441622 0.01692,-0.31303 -0.05076,-0.532993 -0.177666,-0.73604 -0.126906,-0.203048 -0.313028,-0.389169 -0.499154,-0.524534 -0.186126,-0.135364 -0.372249,-0.219966 -0.862951,-0.262267 -0.490701,-0.0423 -1.285948,-0.0423 -11.159045,-0.0423 z"
             id="path5-8"
             inkscape:path-effect="#path-effect6"
             inkscape:original-d="m 88.172589,35.431472 c -18.950931,0 -37.901861,0 -56.852792,0 -0.304575,0.06768 -0.609137,0.135364 -0.913706,0.203046 -0.118445,0.186129 -0.236886,0.37225 -0.35533,0.558375 -0.05076,0.4061 -0.101522,0.812183 -0.152284,1.218275 0.287654,0.727594 0.575296,1.45516 0.862944,2.182741 9.509497,16.497792 19.018613,32.994924 28.527919,49.492385 0.42302,0.270733 0.846024,0.541456 1.269036,0.812183 0.304574,-0.03384 0.609137,-0.06768 0.913705,-0.101523 0.135367,-0.186129 0.270728,-0.37225 0.406092,-0.558375 9.898675,-17.039258 19.796954,-34.077834 29.695431,-51.116752 0.101525,-0.406099 0.203046,-0.812182 0.304569,-1.218274 -0.06768,-0.21997 -0.135364,-0.439932 -0.203046,-0.659898 -0.186129,-0.186129 -0.37225,-0.372251 -0.558376,-0.558376 -0.186129,-0.0846 -0.37225,-0.169205 -0.558375,-0.253807 -0.795278,0 -1.590525,0 -2.385787,0 z" /><path
             style="display:none;fill:#1d2021;fill-opacity:1;stroke-width:0.767"
             d="m 45.287648,37.478849 c -2.631134,-0.03384 -7.893401,-0.101522 -10.575297,-0.109982 -2.681895,-0.0085 -2.783417,0.0423 -2.811517,0.09945 -0.0281,0.05715 0.01722,0.120687 1.323112,2.416797 1.305888,2.29611 3.87224,6.824613 5.203301,9.076945 1.331062,2.252331 1.426775,2.228402 1.642141,1.893387 0.215365,-0.335015 0.550367,-0.98109 1.899397,-3.239444 1.349031,-2.258353 3.711988,-6.128818 4.872657,-8.081416 1.160669,-1.952597 1.119007,-1.987246 1.098174,-2.004572 -0.02083,-0.01733 -0.02083,-0.01732 -2.651968,-0.05117 z"
             id="path6"
             inkscape:path-effect="#path-effect10"
             inkscape:original-d="M 47.918782,37.51269 C 42.656514,37.44501 37.394247,37.377327 32.13198,37.309645 c -0.101525,0.05076 -0.203046,0.101523 -0.304569,0.152284 0.04532,0.06354 0.09065,0.127073 0.135969,0.19061 2.566454,4.528685 5.132806,9.057188 7.699209,13.585782 0.09572,-0.02393 0.191433,-0.04786 0.28715,-0.07179 0.335014,-0.6461 0.670016,-1.292175 1.005024,-1.938262 2.363053,-3.87062 4.72601,-7.741085 7.089015,-11.611627 -0.04167,-0.03465 -0.08333,-0.0693 -0.124996,-0.103955 z" /><path
             style="display:none;fill:#1d2021;fill-opacity:1;stroke-width:0.767"
             d="m 84.365482,37.52115 c -5.160744,-0.05922 -15.346869,-0.109983 -20.456852,-0.101523 -5.109983,0.0085 -5.143825,0.07614 -5.634528,0.956024 -0.490703,0.879882 -1.438231,2.571896 -3.646387,6.412903 -2.208156,3.841007 -5.676784,9.830735 -7.377291,12.944104 -1.700507,3.113369 -1.632827,3.350252 0.829151,7.7412 2.461977,4.390949 7.318056,12.935618 9.796906,17.26726 2.478851,4.331642 2.580372,4.450083 2.724197,4.467003 0.143825,0.01692 0.329948,-0.06768 5.152378,-8.308115 4.822429,-8.240435 14.280785,-24.636047 19.06082,-32.859397 4.780034,-8.223351 4.881556,-8.274112 4.864635,-8.333334 -0.01692,-0.05922 -0.152284,-0.126903 -5.313029,-0.186125 z"
             id="path10"
             inkscape:path-effect="#path-effect14-5"
             inkscape:original-d="m 89.390863,37.51269 c -10.186125,-0.05076 -20.37225,-0.101522 -30.558376,-0.152284 -0.03384,0.06768 -0.06768,0.135364 -0.101523,0.203046 -0.947565,1.692081 -1.895093,3.384095 -2.842639,5.076142 -3.468767,5.989967 -6.937394,11.979695 -10.406091,17.969543 0.06768,0.236891 0.135363,0.473773 0.203045,0.71066 4.856273,8.54501 9.712352,17.089679 14.568528,25.634518 0.101525,0.118445 0.203046,0.236886 0.304569,0.35533 0.186129,-0.0846 0.37225,-0.169205 0.558375,-0.253807 9.458734,-16.396267 18.91709,-32.791879 28.375635,-49.187818 0.101525,-0.05076 0.203046,-0.101523 0.304568,-0.152284 -0.135366,-0.06768 -0.270727,-0.135364 -0.406091,-0.203046 z" /><g
             id="g2"
             transform="matrix(1.2952281,0,0,1.2952281,-14.697996,-24.199929)"><path
               style="fill:#f0e5c6;fill-opacity:1;stroke-width:0.767"
               d="M 51.078681,65.850254 C 52.385787,64.035533 55,60.406091 56.340948,58.489846 c 1.340948,-1.916245 1.408629,-2.119288 1.349405,-2.318105 -0.05922,-0.198818 -0.245344,-0.393399 -0.321486,-1.480559 -0.07614,-1.087161 -0.0423,-3.066816 0.0042,-4.043974 0.04653,-0.977159 0.105753,-0.951778 0.211508,-0.06344 0.105754,0.888342 0.258036,2.639576 0.414552,3.71403 0.156516,1.074454 0.317257,1.472078 0.401859,1.700506 0.0846,0.228429 0.09306,0.287646 0.02961,0.482235 -0.06345,0.194589 -0.198814,0.524531 -1.58632,2.483112 -1.387505,1.958581 -4.027046,5.545649 -5.397605,7.313839 -1.370559,1.768189 -1.472081,1.717428 -1.539764,1.645513 -0.06768,-0.07192 -0.101521,-0.164971 -0.118441,-0.211503 -0.01692,-0.04653 -0.01692,-0.04653 1.290187,-1.86125 z"
               id="path14"
               inkscape:path-effect="#path-effect15"
               inkscape:original-d="M 49.771574,67.664975 C 52.385787,64.035533 55,60.406091 57.614213,56.77665 c 0.06768,-0.20305 0.135364,-0.406092 0.203046,-0.609137 -0.186129,-0.19459 -0.37225,-0.389171 -0.558376,-0.583757 0.03384,-1.979735 0.06768,-3.95939 0.101523,-5.939086 0.05922,0.02538 0.118443,0.05076 0.177665,0.07614 0.152287,1.751304 0.304569,3.502538 0.456853,5.253807 0.160748,0.397639 0.321489,0.795263 0.482233,1.192894 0.0085,0.05922 0.01692,0.118443 0.02538,0.177665 -0.135366,0.329956 -0.270727,0.659898 -0.406091,0.989847 -2.639647,3.587213 -5.279188,7.174281 -7.918782,10.761422 -0.101525,-0.05076 -0.203046,-0.101523 -0.304568,-0.152284 -0.03384,-0.09307 -0.06768,-0.186126 -0.101523,-0.279188 z" /><path
               id="path15"
               style="display:inline;fill:#f0e5c6;fill-opacity:1;stroke-width:0.767"
               d="m 64.414062,44.980469 c -0.681041,0.0037 -1.376505,0.01286 -1.917968,0.02344 -1.082927,0.02115 -1.547656,0.04626 -1.894532,0.13086 -0.346873,0.0846 -0.576328,0.228643 -0.982421,0.558593 -0.406094,0.329951 -0.989072,0.846221 -1.361329,1.34961 -0.372256,0.503389 -0.533819,0.994618 -0.449218,1.396484 0.0846,0.401866 0.413854,0.713674 0.722656,1.060547 0.308802,0.346873 0.596368,0.728749 0.638672,1.337891 0.0423,0.609141 -0.158839,1.445995 -0.125,2.380859 0.03384,0.934864 0.303105,1.967358 0.425781,2.597656 0.122676,0.630298 0.09811,0.858705 -1.234375,3.316406 -1.332487,2.457702 -3.973172,7.144796 -5.292969,9.488282 -1.319796,2.343485 -1.319654,2.343455 -1.302734,2.423828 0.01692,0.08037 0.05213,0.24096 0.162109,0.435547 0.109984,0.194587 0.295542,0.422398 1.052735,1.767578 0.757193,1.34518 2.085643,3.80726 3.033203,5.457031 0.94756,1.649771 1.513471,2.488108 1.847656,2.898438 0.334185,0.41033 0.435586,0.392882 0.53711,0.33789 0.101523,-0.05499 0.204255,-0.147175 0.597656,-1.082031 0.393401,-0.934856 1.07823,-2.712813 2.199218,-5.060547 1.12099,-2.347733 2.676606,-5.266409 3.992188,-7.347656 1.315582,-2.081248 2.391874,-3.324868 3.115234,-4.183594 0.723361,-0.858726 1.094179,-1.332823 1.369141,-1.705078 0.274962,-0.372255 0.453556,-0.642027 0.728516,-0.904297 0.274959,-0.26227 0.647032,-0.515792 1.226562,-0.947265 0.57953,-0.431475 1.366516,-1.04067 2.166016,-1.835938 0.7995,-0.795268 1.610821,-1.776924 2,-2.394531 0.389179,-0.617607 0.356097,-0.870494 0.296875,-1.00586 -0.05922,-0.135366 -0.143601,-0.152315 -0.257813,-0.07617 -0.114212,0.07614 -0.258263,0.243884 -0.583984,0.425781 -0.325721,0.181897 -0.83351,0.376647 -1.298828,0.43164 -0.465318,0.05499 -0.889101,-0.02899 -1.164063,-0.08398 -0.274961,-0.05499 -0.400479,-0.0805 -0.628906,-0.330078 -0.228427,-0.249577 -0.559004,-0.722781 -0.783203,-1.052735 -0.2242,-0.329953 -0.341875,-0.516634 -0.544922,-0.605468 -0.203047,-0.08883 -0.490654,-0.08075 -0.740234,-0.123047 -0.249581,-0.0423 -0.462957,-0.134073 -0.640625,-0.04102 -0.177668,0.09306 -0.320138,0.371288 -0.705078,0.878907 -0.384942,0.507617 -1.011184,1.243928 -1.324219,1.552734 -0.313035,0.308806 -0.312834,0.190325 -0.333985,-0.07617 -0.02115,-0.266499 -0.06415,-0.681785 -0.11914,-1.0625 -0.05499,-0.380715 -0.122134,-0.72612 -0.28711,-1.267578 -0.164975,-0.541458 -0.426869,-1.277888 -0.71875,-1.857422 -0.29188,-0.579534 -0.613132,-1.002411 -1.074218,-1.353516 -0.461087,-0.351104 -1.062005,-0.630916 -1.476563,-0.783203 -0.414558,-0.152286 -0.643912,-0.177096 -0.728515,-0.210937 -0.0846,-0.03384 -0.02562,-0.07622 0.232421,-0.203125 0.258036,-0.126903 0.715292,-0.338302 1.041016,-0.5625 0.325724,-0.224198 0.52055,-0.461957 0.634766,-0.576172 0.114216,-0.114215 0.148453,-0.106093 0.199218,-0.02148 0.05077,0.0846 0.117895,0.245211 0.261719,0.486329 0.143825,0.241118 0.363407,0.563263 0.69336,0.859375 0.32995,0.296111 0.769774,0.567768 1.404296,0.728515 0.634522,0.160747 1.46477,0.21027 2.128907,0.167969 0.664137,-0.0423 1.162222,-0.177793 1.466797,-0.330078 0.304573,-0.152286 0.414404,-0.32037 0.460937,-0.472656 0.04653,-0.152286 0.03079,-0.287462 -0.320313,-0.359375 -0.3511,-0.07191 -1.0373,-0.08207 -1.544921,-0.183594 -0.507622,-0.101523 -0.83729,-0.295951 -0.972657,-0.435547 -0.135367,-0.139596 -0.07613,-0.223315 0.02539,-0.240234 0.101522,-0.01692 0.245221,0.03421 0.511719,0.123046 0.266498,0.08883 0.655069,0.215187 0.976562,0.261719 0.321493,0.04653 0.575228,0.01363 0.664063,-0.08789 0.08884,-0.101524 0.01321,-0.2707 -0.337891,-0.765625 -0.3511,-0.494925 -0.977383,-1.315969 -1.425781,-1.882813 -0.448399,-0.566844 -0.71917,-0.879954 -0.96875,-1.070312 -0.24958,-0.190359 -0.476938,-0.257822 -1.441406,-0.283203 -0.482235,-0.01269 -1.149035,-0.01542 -1.830079,-0.01172 z m -3.205078,16.570312 c 0.05372,-0.0079 0.06993,0.06781 0.01758,0.234375 -0.09307,0.296114 -0.405661,0.880304 -0.566406,1.117188 -0.160744,0.236884 -0.169236,0.126191 -0.07617,-0.169922 0.09306,-0.296113 0.286521,-0.778739 0.447266,-1.015625 0.07033,-0.103638 0.13595,-0.159842 0.177734,-0.166016 z m 3.294922,1.5 c 0.03336,-0.0066 0.06506,0.01773 0.111328,0.05078 0.148054,0.105753 0.444363,0.316484 0.507813,0.519532 0.06345,0.203047 -0.105344,0.397407 -0.642578,1.125 -0.537234,0.727593 -1.44288,1.989139 -1.882813,2.513672 -0.439932,0.524532 -0.414568,0.311863 -0.02539,-0.521485 0.389178,-0.833348 1.141097,-2.288044 1.517578,-3.015625 0.25883,-0.500211 0.340675,-0.657391 0.414062,-0.671874 z" /><path
               style="fill:#f0e5c6;fill-opacity:1;stroke-width:0.767"
               d="m 62.263684,43.467326 c 0.203398,-0.23331 0.610193,-0.699928 0.876406,-0.906317 0.266213,-0.206388 0.391839,-0.152549 0.451661,-0.218356 0.05982,-0.06581 0.05384,-0.251254 0.06879,-0.406796 0.01496,-0.155541 0.05085,-0.281167 0.511494,-0.631136 0.460645,-0.349969 1.346007,-0.924258 1.905354,-1.217389 0.559346,-0.293132 0.79265,-0.305095 1.229364,-0.05982 0.436714,0.245279 1.076806,0.747782 1.441727,1.139625 0.36492,0.391843 0.454653,0.673004 0.544388,0.885378 0.08974,0.212374 0.179468,0.355944 0.224335,0.520459 0.04487,0.164515 0.04487,0.349962 0.009,0.463627 -0.03589,0.113664 -0.107678,0.155538 -0.224335,0.167502 -0.116656,0.01197 -0.278175,-0.006 -0.32005,0.009 -0.04188,0.01496 0.03589,0.06282 0.173488,0.113664 0.137594,0.05085 0.335006,0.104689 0.406793,0.212371 0.07179,0.107683 0.01795,0.269202 -0.09273,0.442691 -0.110674,0.173488 -0.278175,0.358935 -0.526443,0.463626 -0.248268,0.10469 -0.577288,0.12862 -0.969132,0.03888 -0.391845,-0.08974 -0.84649,-0.29313 -1.456692,-0.400811 -0.610201,-0.107681 -1.375919,-0.119644 -1.803656,-0.128617 -0.427737,-0.009 -0.517465,-0.01496 -0.48456,-0.134605 0.0329,-0.119649 0.18844,-0.352953 0.308086,-0.535414 0.119647,-0.18246 0.203398,-0.31407 0.194424,-0.397822 -0.009,-0.08375 -0.110673,-0.119646 -0.290144,0.02692 -0.17947,0.146569 -0.436704,0.475589 -0.619164,0.670014 -0.18246,0.194424 -0.290141,0.254247 -0.532427,0.266211 -0.242287,0.01196 -0.619164,-0.02393 -0.846491,-0.05683 -0.227327,-0.0329 -0.305097,-0.06281 -0.343981,-0.07777 -0.03889,-0.01496 -0.03888,-0.01497 0.164516,-0.248275 z"
               id="path18"
               inkscape:path-effect="#path-effect19"
               inkscape:original-d="m 62.060286,43.700635 c 0.406795,-0.466619 0.813591,-0.933237 1.220387,-1.399856 0.125631,0.05384 0.251256,0.107681 0.376884,0.161522 -0.006,-0.185455 -0.01196,-0.370902 -0.01795,-0.556353 0.0359,-0.125631 0.07179,-0.251257 0.107682,-0.376885 0.885396,-0.574311 1.770758,-1.1486 2.656137,-1.722899 0.233314,-0.01197 0.466618,-0.02393 0.699928,-0.03589 0.640118,0.502522 1.28021,1.005025 1.920315,1.507537 0.08974,0.281173 0.179469,0.562335 0.269203,0.843503 0.08974,0.143578 0.179469,0.28715 0.269203,0.430725 0,0.185455 0,0.370902 0,0.556353 -0.07179,0.04188 -0.143575,0.08375 -0.215362,0.125628 -0.161525,-0.01795 -0.323044,-0.03589 -0.484566,-0.05384 0.07777,0.04786 0.15554,0.09572 0.23331,0.143575 0.197419,0.05384 0.394831,0.107681 0.592246,0.161521 -0.05384,0.161525 -0.107681,0.323044 -0.161521,0.484566 -0.167508,0.185455 -0.335009,0.370902 -0.502513,0.556353 -0.329032,0.02393 -0.658052,0.04786 -0.987078,0.07179 -0.454663,-0.203402 -0.909308,-0.406796 -1.363962,-0.610194 -0.765749,-0.01197 -1.531467,-0.02393 -2.2972,-0.03589 -0.08974,-0.006 -0.179469,-0.01196 -0.269203,-0.01795 0.155543,-0.233314 0.311079,-0.466618 0.466619,-0.699928 0.08375,-0.131613 0.167504,-0.263221 0.251256,-0.394831 -0.101701,-0.03589 -0.203398,-0.07179 -0.305097,-0.107681 -0.257244,0.329032 -0.514477,0.658052 -0.771715,0.987078 -0.107684,0.05982 -0.215363,0.119646 -0.323044,0.179468 -0.376892,-0.03589 -0.753769,-0.07179 -1.130653,-0.107681 -0.07777,-0.02991 -0.15554,-0.05982 -0.233309,-0.08973 z" /><path
               style="fill:#f0e5c6;fill-opacity:1;stroke-width:0.767"
               d="m 70.029611,42.076988 c 0.35956,-0.105753 1.07868,-0.317259 1.598988,-0.325717 0.520308,-0.0085 0.84179,0.186123 1.142131,0.655674 0.300341,0.46955 0.579524,1.214036 0.689507,1.679351 0.109982,0.465314 0.05076,0.651437 0.09729,0.774111 0.04653,0.122673 0.198814,0.181894 0.473776,0.194584 0.274962,0.01269 0.672585,-0.02115 0.8714,0.0085 0.198816,0.02961 0.198816,0.122669 0.27919,0.439934 0.08037,0.317264 0.241115,0.858708 0.431472,1.345176 0.190358,0.486468 0.41032,0.917932 0.617597,1.214042 0.207278,0.296109 0.40186,0.456851 0.642979,0.621827 0.24112,0.164976 0.528762,0.334178 0.685276,0.516075 0.156515,0.181897 0.181894,0.376478 0.10575,1.192906 -0.07614,0.816427 -0.253806,2.254638 -0.418782,3.0076 -0.164976,0.752961 -0.317258,0.820642 -0.867183,1.099835 -0.549925,0.279193 -1.497452,0.769876 -2.212347,0.994072 -0.714895,0.224196 -1.197119,0.181896 -1.594753,-0.0085 -0.397634,-0.190358 -0.710657,-0.528761 -0.879861,-0.744496 -0.169204,-0.215735 -0.194585,-0.3088 -0.06768,-0.456856 0.126907,-0.148056 0.406089,-0.351098 0.824877,-0.676821 0.418787,-0.325724 0.977151,-0.774107 1.463619,-1.146361 0.486468,-0.372253 0.901011,-0.668356 1.163279,-0.901014 0.262269,-0.232658 0.37225,-0.401859 0.38494,-0.571065 0.01269,-0.169205 -0.07191,-0.338409 -0.236888,-0.469543 -0.164976,-0.131134 -0.41032,-0.224195 -0.549914,-0.198813 -0.139595,0.02538 -0.173435,0.169203 -0.169205,0.279185 0.0042,0.109982 0.04653,0.186125 0.03807,0.3088 -0.0085,0.122675 -0.06768,0.291878 -0.435709,0.621832 -0.368027,0.329954 -1.044832,0.820638 -1.493227,1.16751 -0.448395,0.346872 -0.668356,0.549913 -1.095604,0.626055 -0.427249,0.07614 -1.061754,0.02538 -1.560911,-0.131136 -0.499158,-0.156517 -0.862941,-0.418779 -1.070217,-0.642977 -0.207277,-0.224198 -0.258037,-0.41032 -0.160742,-0.571066 0.0973,-0.160746 0.342637,-0.296107 0.901021,-0.664133 0.558385,-0.368027 1.429772,-0.968691 1.99238,-1.408626 0.562608,-0.439935 0.81641,-0.719118 1.006767,-1.002539 0.190356,-0.28342 0.317257,-0.571063 0.393399,-0.875635 0.07614,-0.304571 0.101522,-0.626054 0.09729,-0.867172 -0.0042,-0.241118 -0.03807,-0.40186 -0.118445,-0.389167 -0.08037,0.01269 -0.207274,0.198813 -0.283416,0.401861 -0.07614,0.203048 -0.101521,0.42301 -0.164974,0.655669 -0.06345,0.232659 -0.164973,0.478001 -0.34264,0.71066 -0.177668,0.232658 -0.43147,0.45262 -0.642977,0.50761 -0.211508,0.05499 -0.38071,-0.05499 -0.642981,-0.334183 -0.262271,-0.279192 -0.617593,-0.727575 -0.947545,-1.243656 -0.329953,-0.51608 -0.634515,-1.099825 -0.841792,-1.55245 -0.207277,-0.452626 -0.317258,-0.774109 -0.266494,-0.985616 0.05076,-0.211507 0.262265,-0.313027 0.461083,-0.444163 0.198817,-0.131135 0.384938,-0.291876 0.511842,-0.511845 0.126904,-0.219968 0.194585,-0.499152 0.207275,-0.719119 0.01269,-0.219967 -0.02961,-0.380708 -0.08037,-0.511843 -0.05076,-0.131135 -0.109984,-0.232657 -0.160744,-0.321488 -0.05076,-0.08883 -0.09306,-0.164975 -0.114213,-0.203047 -0.02115,-0.03807 -0.02115,-0.03807 0.33841,-0.143824 z"
               id="path19"
               inkscape:path-effect="#path-effect20"
               inkscape:original-d="m 69.670051,42.182741 c 0.71912,-0.211506 1.43824,-0.423012 2.15736,-0.634518 0.321496,0.19459 0.642978,0.389171 0.964467,0.583757 0.279194,0.744515 0.558376,1.489001 0.837564,2.233502 -0.05922,0.186129 -0.118444,0.372251 -0.177665,0.558376 0.152287,0.05922 0.304568,0.118443 0.456853,0.177665 0.397639,-0.03384 0.795262,-0.06768 1.192893,-0.101523 0,0.09307 0,0.186125 0,0.279188 0.160748,0.541466 0.321489,1.08291 0.482233,1.624365 0.219971,0.431481 0.439933,0.862945 0.659899,1.294417 0.194589,0.160747 0.389171,0.321489 0.583756,0.482233 0.287654,0.169208 0.575296,0.33841 0.862944,0.507614 0.02538,0.19459 0.05076,0.389171 0.07614,0.583757 -0.177669,1.438269 -0.35533,2.87648 -0.532995,4.31472 -0.152288,0.06768 -0.304569,0.135364 -0.456853,0.203046 -0.947566,0.490704 -1.895093,0.981388 -2.84264,1.472081 -0.482243,-0.0423 -0.964467,-0.0846 -1.4467,-0.126903 -0.313035,-0.338416 -0.626058,-0.676819 -0.939087,-1.015229 -0.02538,-0.09306 -0.05076,-0.186125 -0.07614,-0.279187 0.279194,-0.20305 0.558376,-0.406092 0.837564,-0.609137 0.558387,-0.448402 1.116751,-0.896786 1.675127,-1.345178 0.41456,-0.296114 0.829103,-0.592217 1.243654,-0.888325 0.109986,-0.169208 0.219967,-0.338409 0.32995,-0.507614 -0.0846,-0.169208 -0.169205,-0.33841 -0.253807,-0.507614 -0.245352,-0.09306 -0.490694,-0.186126 -0.736041,-0.279188 -0.03384,0.143827 -0.06768,0.287648 -0.101523,0.431472 0.0423,0.07614 0.0846,0.152284 0.126904,0.228426 -0.05922,0.169208 -0.118444,0.33841 -0.177665,0.507614 -0.676833,0.490704 -1.353638,0.981388 -2.030457,1.472082 -0.219971,0.203049 -0.439932,0.406091 -0.659899,0.609137 -0.63453,-0.05076 -1.269035,-0.101523 -1.903553,-0.152285 -0.363797,-0.262272 -0.72758,-0.524534 -1.09137,-0.786802 -0.05076,-0.186129 -0.101523,-0.37225 -0.152285,-0.558375 0.245352,-0.135367 0.490694,-0.270728 0.736041,-0.406092 0.871422,-0.600688 1.742809,-1.201353 2.614213,-1.80203 0.253812,-0.279193 0.507614,-0.558376 0.761421,-0.837564 0.126907,-0.287653 0.253808,-0.575296 0.380711,-0.862944 0.02538,-0.321495 0.05076,-0.642978 0.07614,-0.964467 -0.03384,-0.160747 -0.06768,-0.321489 -0.101523,-0.482233 -0.126906,0.186129 -0.253807,0.37225 -0.38071,0.558375 -0.02538,0.219971 -0.05076,0.439933 -0.07614,0.659899 -0.101525,0.245352 -0.203046,0.490694 -0.304569,0.736041 -0.253812,0.21997 -0.507614,0.439932 -0.761421,0.659898 -0.169208,-0.109985 -0.33841,-0.219966 -0.507614,-0.329949 -0.355338,-0.448402 -0.71066,-0.896785 -1.06599,-1.345178 -0.304575,-0.583768 -0.609137,-1.167513 -0.913706,-1.751269 -0.109985,-0.321495 -0.219966,-0.642978 -0.329949,-0.964467 0.21151,-0.101525 0.423012,-0.203046 0.634518,-0.304568 0.186129,-0.160748 0.37225,-0.321489 0.558375,-0.482234 0.06768,-0.279193 0.135364,-0.558376 0.203046,-0.837563 -0.0423,-0.160748 -0.0846,-0.321489 -0.126904,-0.482234 -0.05922,-0.101525 -0.118443,-0.203046 -0.177665,-0.304568 -0.0423,-0.07614 -0.0846,-0.152285 -0.126903,-0.228427 z" /></g></g></g></g></g></svg>
