<?xml version="1.0" encoding="UTF-8" standalone="no"?>
<!-- Created with Inkscape (http://www.inkscape.org/) -->

<svg
   width="120"
   height="120"
   viewBox="0 0 120 120"
   version="1.1"
   id="svg1"
   xml:space="preserve"
   inkscape:version="1.4.1 (93de688d07, 2025-03-30)"
   sodipodi:docname="le.svg"
   xmlns:inkscape="http://www.inkscape.org/namespaces/inkscape"
   xmlns:sodipodi="http://sodipodi.sourceforge.net/DTD/sodipodi-0.dtd"
   xmlns:xlink="http://www.w3.org/1999/xlink"
   xmlns="http://www.w3.org/2000/svg"
   xmlns:svg="http://www.w3.org/2000/svg"><sodipodi:namedview
     id="namedview1"
     pagecolor="#1f1f1f"
     bordercolor="#000000"
     borderopacity="0.25"
     inkscape:showpageshadow="2"
     inkscape:pageopacity="0.0"
     inkscape:pagecheckerboard="0"
     inkscape:deskcolor="#3c3c3c"
     inkscape:document-units="px"
     inkscape:zoom="5.6568543"
     inkscape:cx="67.440309"
     inkscape:cy="50.116193"
     inkscape:window-width="2140"
     inkscape:window-height="1287"
     inkscape:window-x="0"
     inkscape:window-y="0"
     inkscape:window-maximized="1"
     inkscape:current-layer="layer3" /><defs
     id="defs1"><linearGradient
       id="linearGradient1"
       inkscape:collect="always"><stop
         style="stop-color:#785c9b;stop-opacity:1;"
         offset="0"
         id="stop10" /><stop
         style="stop-color:#0f001a;stop-opacity:1;"
         offset="1"
         id="stop11" /></linearGradient><inkscape:path-effect
       effect="bspline"
       id="path-effect14"
       is_visible="true"
       lpeversion="1.3"
       weight="33.333333"
       steps="2"
       helper_size="0"
       apply_no_weight="true"
       apply_with_weight="true"
       only_selected="false"
       uniform="false" /><inkscape:path-effect
       effect="fillet_chamfer"
       id="path-effect5"
       is_visible="true"
       lpeversion="1"
       nodesatellites_param="F,0,0,1,0,37.022737,0,1 @ F,0,0,1,0,36.062445,0,1 @ F,0,0,1,0,35.528974,0,1 @ F,0,0,1,0,28.991378,0,1"
       radius="0"
       unit="px"
       method="auto"
       mode="F"
       chamfer_steps="1"
       flexible="false"
       use_knot_distance="true"
       apply_no_radius="true"
       apply_with_radius="true"
       only_selected="false"
       hide_knots="false" /><inkscape:path-effect
       effect="bspline"
       id="path-effect4"
       is_visible="true"
       lpeversion="1.3"
       weight="33.333333"
       steps="2"
       helper_size="0"
       apply_no_weight="true"
       apply_with_weight="true"
       only_selected="false"
       uniform="false" /><inkscape:path-effect
       effect="bspline"
       id="path-effect3"
       is_visible="true"
       lpeversion="1.3"
       weight="33.333333"
       steps="2"
       helper_size="0"
       apply_no_weight="true"
       apply_with_weight="true"
       only_selected="false"
       uniform="false" /><inkscape:path-effect
       effect="mirror_symmetry"
       start_point="59.977887,81.781355"
       end_point="59.977887,112.27285"
       center_point="59.977887,97.027103"
       id="path-effect9"
       is_visible="true"
       lpeversion="1.2"
       lpesatellites=""
       mode="free"
       discard_orig_path="false"
       fuse_paths="false"
       oposite_fuse="false"
       split_items="false"
       split_open="false"
       link_styles="false" /><inkscape:path-effect
       effect="mirror_symmetry"
       start_point="59.944658,10.409945"
       end_point="59.944658,50.039614"
       center_point="59.944658,30.22478"
       id="path-effect2"
       is_visible="true"
       lpeversion="1.2"
       lpesatellites=""
       mode="free"
       discard_orig_path="false"
       fuse_paths="false"
       oposite_fuse="false"
       split_items="false"
       split_open="false"
       link_styles="false" /><inkscape:path-effect
       effect="mirror_symmetry"
       start_point="59.948435,66.805114"
       end_point="59.948435,107.38004"
       center_point="59.948435,87.092577"
       id="path-effect8"
       is_visible="true"
       lpeversion="1.2"
       lpesatellites=""
       mode="free"
       discard_orig_path="false"
       fuse_paths="false"
       oposite_fuse="false"
       split_items="false"
       split_open="false"
       link_styles="false" /><inkscape:path-effect
       effect="mirror_symmetry"
       start_point="60.801511,9.4541705"
       end_point="60.801511,40.169132"
       center_point="60.801511,24.811651"
       id="path-effect7"
       is_visible="true"
       lpeversion="1.2"
       lpesatellites=""
       mode="free"
       discard_orig_path="false"
       fuse_paths="false"
       oposite_fuse="false"
       split_items="false"
       split_open="false"
       link_styles="false" /><inkscape:path-effect
       effect="fillet_chamfer"
       id="path-effect13"
       is_visible="true"
       lpeversion="1"
       nodesatellites_param="F,0,0,1,0,4.7467821,0,1 @ F,0,0,1,0,4.0515277,0,1 @ F,0,0,1,0,0,0,1 @ F,0,0,1,0,2.4219461,0,1 @ F,0,0,1,0,2.4960577,0,1 @ F,0,0,1,0,0,0,1 @ F,0,0,1,0,4.1062831,0,1"
       radius="0"
       unit="px"
       method="auto"
       mode="F"
       chamfer_steps="1"
       flexible="false"
       use_knot_distance="true"
       apply_no_radius="true"
       apply_with_radius="true"
       only_selected="false"
       hide_knots="false" /><inkscape:path-effect
       effect="fillet_chamfer"
       id="path-effect12"
       is_visible="true"
       lpeversion="1"
       nodesatellites_param="F,0,0,1,0,0,0,1 @ F,0,0,1,0,0,0,1 @ F,0,0,1,0,0,0,1 @ F,0,0,1,0,0,0,1 @ F,0,0,1,0,3.627665,0,1 @ F,0,0,1,0,0,0,1 @ F,0,0,1,0,0,0,1"
       radius="0"
       unit="px"
       method="auto"
       mode="F"
       chamfer_steps="1"
       flexible="false"
       use_knot_distance="true"
       apply_no_radius="true"
       apply_with_radius="true"
       only_selected="false"
       hide_knots="false" /><inkscape:path-effect
       effect="fillet_chamfer"
       id="path-effect11"
       is_visible="true"
       lpeversion="1"
       nodesatellites_param="F,0,0,1,0,2.9729248,0,1 @ F,0,0,1,0,3.8975858,0,1 @ F,0,0,1,0,0,0,1 @ F,0,1,1,0,3.784373,0,1 @ F,0,0,1,0,1.4792147,0,1 @ F,0,0,1,0,0,0,1 @ F,0,0,1,0,3.784373,0,1"
       radius="0"
       unit="px"
       method="auto"
       mode="F"
       chamfer_steps="1"
       flexible="false"
       use_knot_distance="true"
       apply_no_radius="true"
       apply_with_radius="true"
       only_selected="false"
       hide_knots="false" /><linearGradient
       id="linearGradient6"><stop
         style="stop-color:#c88500;stop-opacity:1;"
         offset="0.07163448"
         id="stop8" /><stop
         style="stop-color:#fff300;stop-opacity:1;"
         offset="1"
         id="stop9" /></linearGradient><linearGradient
       id="linearGradient6-1"><stop
         style="stop-color:#c88500;stop-opacity:1;"
         offset="0"
         id="stop6" /><stop
         style="stop-color:#fff300;stop-opacity:1;"
         offset="1"
         id="stop7" /></linearGradient><inkscape:path-effect
       effect="fillet_chamfer"
       id="path-effect1"
       is_visible="true"
       lpeversion="1"
       nodesatellites_param="F,0,0,1,0,24.536157,0,1 @ F,0,0,1,0,24.004899,0,1 @ F,0,0,1,0,23.651152,0,1 @ F,0,0,1,0,24.380791,0,1"
       radius="0"
       unit="px"
       method="auto"
       mode="F"
       chamfer_steps="1"
       flexible="false"
       use_knot_distance="true"
       apply_no_radius="true"
       apply_with_radius="true"
       only_selected="false"
       hide_knots="false" /><linearGradient
       id="a"
       x1="7.937"
       x2="7.937"
       y1="15.081"
       y2="1.852"
       gradientTransform="scale(3.7796)"
       gradientUnits="userSpaceOnUse"><stop
         offset="0"
         stop-color="#9b6f27"
         id="stop1" /><stop
         offset="1"
         stop-color="#d0ab6a"
         id="stop2" /></linearGradient><filter
       id="b"
       width="1.216"
       height="1.216"
       x="-0.108"
       y="-0.108"
       color-interpolation-filters="sRGB"><feGaussianBlur
         stdDeviation="1.35"
         id="feGaussianBlur2" /></filter><linearGradient
       id="linearGradient31"
       x1=".5002"
       x2=".5002"
       y2="1"
       gradientTransform="matrix(244,0,0,228,5.986,12)"
       gradientUnits="userSpaceOnUse"><stop
         stop-color="#ebdbb2"
         stop-opacity=".2"
         offset="0"
         id="stop1-5" /><stop
         stop-color="#ebdbb2"
         stop-opacity=".05"
         offset=".1"
         id="stop2-6" /><stop
         stop-opacity="0"
         offset=".7036"
         id="stop3" /><stop
         stop-opacity=".1"
         offset=".8975"
         id="stop4" /><stop
         stop-opacity=".2"
         offset="1"
         id="stop5" /></linearGradient><inkscape:path-effect
       effect="bspline"
       id="path-effect6"
       is_visible="true"
       lpeversion="1.3"
       weight="33.333333"
       steps="2"
       helper_size="0"
       apply_no_weight="true"
       apply_with_weight="true"
       only_selected="false"
       uniform="false" /><inkscape:path-effect
       effect="bspline"
       id="path-effect5-2"
       is_visible="true"
       lpeversion="1.3"
       weight="33.333333"
       steps="2"
       helper_size="0"
       apply_no_weight="true"
       apply_with_weight="true"
       only_selected="false"
       uniform="false" /><inkscape:path-effect
       effect="mirror_symmetry"
       start_point="59.977887,81.781355"
       end_point="59.977887,112.27285"
       center_point="59.977887,97.027103"
       id="path-effect9-3"
       is_visible="true"
       lpeversion="1.2"
       lpesatellites=""
       mode="free"
       discard_orig_path="false"
       fuse_paths="false"
       oposite_fuse="false"
       split_items="false"
       split_open="false"
       link_styles="false" /><inkscape:path-effect
       effect="mirror_symmetry"
       start_point="59.944658,10.409945"
       end_point="59.944658,50.039614"
       center_point="59.944658,30.22478"
       id="path-effect2-6"
       is_visible="true"
       lpeversion="1.2"
       lpesatellites=""
       mode="free"
       discard_orig_path="false"
       fuse_paths="false"
       oposite_fuse="false"
       split_items="false"
       split_open="false"
       link_styles="false" /><inkscape:path-effect
       effect="mirror_symmetry"
       start_point="59.948435,66.805114"
       end_point="59.948435,107.38004"
       center_point="59.948435,87.092577"
       id="path-effect8-8"
       is_visible="true"
       lpeversion="1.2"
       lpesatellites=""
       mode="free"
       discard_orig_path="false"
       fuse_paths="false"
       oposite_fuse="false"
       split_items="false"
       split_open="false"
       link_styles="false" /><inkscape:path-effect
       effect="mirror_symmetry"
       start_point="60.801511,9.4541705"
       end_point="60.801511,40.169132"
       center_point="60.801511,24.811651"
       id="path-effect7-0"
       is_visible="true"
       lpeversion="1.2"
       lpesatellites=""
       mode="free"
       discard_orig_path="false"
       fuse_paths="false"
       oposite_fuse="false"
       split_items="false"
       split_open="false"
       link_styles="false" /><inkscape:path-effect
       effect="fillet_chamfer"
       id="path-effect13-2"
       is_visible="true"
       lpeversion="1"
       nodesatellites_param="F,0,0,1,0,4.7467821,0,1 @ F,0,0,1,0,4.0515277,0,1 @ F,0,0,1,0,0,0,1 @ F,0,0,1,0,2.4219461,0,1 @ F,0,0,1,0,2.4960577,0,1 @ F,0,0,1,0,0,0,1 @ F,0,0,1,0,4.1062831,0,1"
       radius="0"
       unit="px"
       method="auto"
       mode="F"
       chamfer_steps="1"
       flexible="false"
       use_knot_distance="true"
       apply_no_radius="true"
       apply_with_radius="true"
       only_selected="false"
       hide_knots="false" /><inkscape:path-effect
       effect="fillet_chamfer"
       id="path-effect12-1"
       is_visible="true"
       lpeversion="1"
       nodesatellites_param="F,0,0,1,0,0,0,1 @ F,0,0,1,0,0,0,1 @ F,0,0,1,0,0,0,1 @ F,0,0,1,0,0,0,1 @ F,0,0,1,0,3.627665,0,1 @ F,0,0,1,0,0,0,1 @ F,0,0,1,0,0,0,1"
       radius="0"
       unit="px"
       method="auto"
       mode="F"
       chamfer_steps="1"
       flexible="false"
       use_knot_distance="true"
       apply_no_radius="true"
       apply_with_radius="true"
       only_selected="false"
       hide_knots="false" /><inkscape:path-effect
       effect="fillet_chamfer"
       id="path-effect11-0"
       is_visible="true"
       lpeversion="1"
       nodesatellites_param="F,0,0,1,0,2.9729248,0,1 @ F,0,0,1,0,3.8975858,0,1 @ F,0,0,1,0,0,0,1 @ F,0,1,1,0,3.784373,0,1 @ F,0,0,1,0,1.4792147,0,1 @ F,0,0,1,0,0,0,1 @ F,0,0,1,0,3.784373,0,1"
       radius="0"
       unit="px"
       method="auto"
       mode="F"
       chamfer_steps="1"
       flexible="false"
       use_knot_distance="true"
       apply_no_radius="true"
       apply_with_radius="true"
       only_selected="false"
       hide_knots="false" /><inkscape:path-effect
       effect="fillet_chamfer"
       id="path-effect1-8"
       is_visible="true"
       lpeversion="1"
       nodesatellites_param="F,0,0,1,0,24.536157,0,1 @ F,0,0,1,0,24.004899,0,1 @ F,0,0,1,0,23.651152,0,1 @ F,0,0,1,0,24.380791,0,1"
       radius="0"
       unit="px"
       method="auto"
       mode="F"
       chamfer_steps="1"
       flexible="false"
       use_knot_distance="true"
       apply_no_radius="true"
       apply_with_radius="true"
       only_selected="false"
       hide_knots="false" /><filter
       id="b-6"
       width="1.216"
       height="1.216"
       x="-0.108"
       y="-0.108"
       color-interpolation-filters="sRGB"><feGaussianBlur
         stdDeviation="1.35"
         id="feGaussianBlur2-2" /></filter><linearGradient
       inkscape:collect="always"
       xlink:href="#linearGradient1"
       id="linearGradient11"
       x1="12.727921"
       y1="17.854446"
       x2="109.9551"
       y2="106.41957"
       gradientUnits="userSpaceOnUse" /></defs><g
     inkscape:groupmode="layer"
     id="layer3"
     inkscape:label="base"><path
       d="m 76.476937,9.2332248 c 32.063223,0 37.852423,6.6798392 37.852423,38.7430672 v 24.938066 c 0,31.172592 -5.7892,37.852422 -37.852423,37.852422 H 43.523063 c -32.063227,0 -37.8524214,-6.67983 -37.8524214,-37.852422 V 47.976292 c 0,-32.063228 5.7891944,-38.7430672 37.8524214,-38.7430672 z"
       fill="#ebdbb2"
       style="display:inline;opacity:1;isolation:isolate;stroke-width:0.445323;fill:url(#linearGradient11);fill-opacity:1"
       id="path5" /><g
       id="g1"
       transform="matrix(1.2465128,0,0,1.2465128,-17.734594,-15.781051)"
       style="fill:#d9b968;fill-opacity:1"><g
         id="layer1"
         inkscape:label="Layer 3"
         transform="matrix(1.446527,0,0,1.446527,-26.056466,-24.788867)"
         style="fill:#d9b968;fill-opacity:1"><path
           style="fill:#d9b968;fill-opacity:1;fill-rule:evenodd;stroke-width:0.5"
           d="m 39.267801,43.254397 c -0.873348,-0.0069 -2.620044,-0.02085 -3.505153,-0.01971 -0.88511,0.0011 -0.908634,0.01733 -0.912273,0.0602 -0.0036,0.04287 0.01261,0.112423 0.07175,0.184261 0.05914,0.07184 0.161176,0.145958 0.270482,0.246942 0.109306,0.100984 0.225877,0.228826 0.341581,0.422339 0.115705,0.193512 0.230536,0.452682 0.352608,0.912218 0.122072,0.459536 0.251378,1.119405 0.344978,1.792835 0.0936,0.673431 0.151488,1.360381 0.173025,4.537139 0.02154,3.176759 0.0067,8.843087 -0.01848,12.60832 -0.0252,3.765233 -0.06077,5.629184 -0.158599,6.930836 -0.09783,1.301652 -0.257894,2.04094 -0.439169,2.523968 -0.181275,0.483027 -0.383745,0.709772 -0.544036,0.86814 -0.160291,0.158368 -0.278389,0.248349 -0.344005,0.326746 -0.06562,0.0784 -0.07875,0.145214 0.05117,0.180204 0.129919,0.03499 0.402876,0.03816 1.659122,0.04333 1.256246,0.0052 3.495685,0.01235 7.254661,0.01116 3.758975,-0.0012 9.03723,-0.01078 11.693241,-0.02517 2.65601,-0.0144 2.689679,-0.03362 2.719506,-0.131827 0.02983,-0.09821 0.05582,-0.275397 0.162526,-1.209005 0.10671,-0.933607 0.294133,-2.623562 0.39,-3.510881 0.09587,-0.887319 0.100173,-0.971963 0.07035,-1.007942 -0.02983,-0.03598 -0.09379,-0.02329 -0.226933,0.06206 -0.133143,0.08535 -0.335458,0.243352 -0.478631,0.36964 -0.143172,0.126289 -0.227193,0.220854 -0.536004,0.371601 -0.30881,0.150748 -0.842386,0.357667 -1.260859,0.499087 -0.418474,0.14142 -0.721821,0.217333 -1.430478,0.29375 -0.708657,0.07642 -1.822572,0.153333 -3.376551,0.195541 -1.553978,0.04221 -3.547917,0.0497 -4.660736,0.02947 -1.112819,-0.02023 -1.344468,-0.06819 -1.608131,-0.124466 -0.263664,-0.05627 -0.559323,-0.120856 -0.773628,-0.148558 -0.214305,-0.0277 -0.347241,-0.01852 -0.440925,0.0032 -0.09368,0.02176 -0.148107,0.05609 -0.231406,0.101151 -0.0833,0.04507 -0.195465,0.100863 -0.316032,0.139139 -0.120567,0.03828 -0.249529,0.05903 -0.411295,0.06745 -0.161766,0.0084 -0.356327,0.0045 -0.486771,-0.01424 -0.130444,-0.01876 -0.196756,-0.05237 -0.205131,-0.0838 -0.0084,-0.03142 0.0412,-0.06066 0.117667,-0.110166 0.07647,-0.04951 0.179838,-0.119286 0.272132,-0.216858 0.0923,-0.09757 0.173507,-0.222927 0.214114,-0.305292 0.04061,-0.08236 0.04061,-0.121735 0.01376,-0.188189 -0.02685,-0.06645 -0.08054,-0.159993 -0.177959,-0.323206 -0.09742,-0.163214 -0.238557,-0.39609 -0.348823,-0.670634 -0.110265,-0.274544 -0.189653,-0.590739 -0.223366,-0.884294 -0.03371,-0.293556 -0.02175,-0.564456 -0.03383,-2.145622 -0.01208,-1.581166 -0.04819,-4.472478 -0.08526,-7.81951 -0.03707,-3.347033 -0.07509,-7.149576 -0.03941,-9.304908 0.03568,-2.155332 0.145055,-2.663356 0.279552,-3.121898 0.134498,-0.458543 0.294109,-0.867577 0.438805,-1.205464 0.144696,-0.337888 0.274468,-0.60461 0.395576,-0.778024 0.121108,-0.173415 0.233544,-0.253511 0.293523,-0.310673 0.05998,-0.05716 0.0675,-0.0914 0.04793,-0.111156 -0.01957,-0.01976 -0.06623,-0.02505 -0.650896,-0.02302 -0.584666,0.002 -1.707298,0.01137 -2.268625,0.01605 -0.561328,0.0047 -0.561323,0.0047 -1.434671,-0.0023 z"
           id="path5-5"
           inkscape:path-effect="#path-effect5-2"
           inkscape:original-d="m 40.141149,43.261347 c -1.746696,-0.0139 -3.493392,-0.0278 -5.240088,-0.0417 -0.02352,0.01619 -0.04705,0.03237 -0.07057,0.04856 0.01625,0.06955 0.03249,0.139106 0.04874,0.208659 0.102037,0.07412 0.20407,0.148242 0.306105,0.222363 0.116577,0.127847 0.233148,0.255689 0.349722,0.383534 0.114835,0.25918 0.229666,0.51835 0.344499,0.777526 0.129311,0.659896 0.258617,1.319765 0.387926,1.979648 0.05789,0.686978 0.115779,1.373928 0.173669,2.060891 -0.01482,5.666554 -0.02964,11.332882 -0.04445,16.999323 -0.03558,1.864025 -0.07115,3.727976 -0.106732,5.591964 -0.160074,0.739316 -0.320142,1.478604 -0.480213,2.217906 -0.202479,0.226753 -0.404949,0.453498 -0.607424,0.680247 -0.118105,0.08999 -0.236205,0.179968 -0.354308,0.269952 -0.01313,0.06681 -0.02626,0.133627 -0.03939,0.20044 0.272968,0.0032 0.545925,0.0063 0.818888,0.0095 2.239529,0.0072 4.478968,0.01436 6.718452,0.02154 5.278467,-0.0096 10.556722,-0.01916 15.835082,-0.02873 0.03366,-0.01922 0.06733,-0.03844 0.100993,-0.05766 0.02599,-0.177196 0.05198,-0.354385 0.07797,-0.531577 0.187431,-1.690023 0.374853,-3.379978 0.56228,-5.069966 0.0043,-0.08465 0.0086,-0.169295 0.01292,-0.253942 -0.06396,0.01269 -0.127924,0.02538 -0.191886,0.03807 -0.202323,0.158009 -0.404638,0.316011 -0.606956,0.474017 -0.08403,0.09457 -0.168048,0.189137 -0.252072,0.283705 -0.533597,0.206927 -1.067173,0.413846 -1.600759,0.620769 -0.30336,0.07592 -0.606708,0.15183 -0.910062,0.227745 -1.11396,0.07692 -2.227875,0.153836 -3.341813,0.230753 -1.994019,0.0075 -3.987958,0.01499 -5.981938,0.02249 -0.231658,-0.04796 -0.463307,-0.09592 -0.694961,-0.143882 -0.295672,-0.06459 -0.591332,-0.129169 -0.886999,-0.193754 -0.132942,0.0092 -0.265879,0.01836 -0.398819,0.02754 -0.05443,0.03433 -0.108852,0.06866 -0.163277,0.102992 -0.112171,0.0558 -0.224338,0.111598 -0.336507,0.167397 -0.128966,0.02075 -0.257926,0.04151 -0.38689,0.06226 -0.194569,-0.0039 -0.38913,-0.0078 -0.583696,-0.01171 -0.06632,-0.03362 -0.132634,-0.06723 -0.198951,-0.100844 0.04957,-0.02923 0.09914,-0.05847 0.148704,-0.0877 0.103374,-0.06978 0.206743,-0.139561 0.310114,-0.209341 0.08122,-0.125362 0.16243,-0.250719 0.243645,-0.376079 0,-0.03937 0,-0.07874 0,-0.118105 -0.0537,-0.09354 -0.107388,-0.187082 -0.161083,-0.280624 -0.141143,-0.232885 -0.282281,-0.465761 -0.423421,-0.698641 -0.07939,-0.316208 -0.158779,-0.632403 -0.238169,-0.948604 0.01196,-0.27091 0.02393,-0.54181 0.03589,-0.812714 -0.03612,-2.891428 -0.07223,-5.78274 -0.108347,-8.67411 -0.03802,-3.802695 -0.07604,-7.605238 -0.114059,-11.407857 0.109379,-0.508045 0.218754,-1.016069 0.328131,-1.524104 0.159617,-0.40905 0.319229,-0.818084 0.478844,-1.227126 0.129777,-0.266733 0.259549,-0.533455 0.389323,-0.800183 0.112442,-0.0801 0.224878,-0.160197 0.337317,-0.240296 0.0075,-0.03423 0.01504,-0.06846 0.02256,-0.102684 -0.04666,-0.0053 -0.09332,-0.01059 -0.139975,-0.01588 -1.122677,0.0093 -2.245309,0.01869 -3.367964,0.02804 z" /><path
           style="fill:#d9b968;fill-opacity:1;fill-rule:evenodd;stroke-width:0.5"
           d="m 83.269757,43.392632 c -1.67919,-0.01212 -5.037571,-0.03636 -8.7624,-0.05383 -3.72483,-0.01747 -7.815945,-0.02816 -9.902588,-0.02712 -2.086643,0.001 -2.168725,0.01381 -2.237493,0.03605 -0.06877,0.02224 -0.124219,0.05395 -0.10308,0.123535 0.02114,0.06958 0.118866,0.177037 0.233425,0.308328 0.114559,0.131292 0.245943,0.286415 0.363992,0.511996 0.118048,0.225581 0.222754,0.521606 0.344666,1.218613 0.121912,0.697008 0.261023,1.794949 0.31671,3.751962 0.05569,1.957013 0.02795,4.772964 -0.01467,6.181601 -0.04262,1.408637 -0.100111,1.409903 -0.302515,1.418645 -0.202403,0.0087 -0.5497,0.02496 -1.558471,0.146537 -1.008772,0.121578 -2.678946,0.348509 -4.158266,0.527603 -1.479319,0.179094 -2.7677,0.310342 -3.437233,0.393653 -0.669532,0.08331 -0.720184,0.118679 -0.749533,0.159421 -0.02935,0.04074 -0.03739,0.08687 0.04106,0.145912 0.07845,0.05904 0.243384,0.131013 0.958354,0.28476 0.714969,0.153748 1.979921,0.389263 3.573517,0.640057 1.593596,0.250794 3.515734,0.516852 4.521058,0.649884 1.005323,0.133032 1.093795,0.133032 1.133485,0.235749 0.03969,0.102716 0.0306,0.30814 0.01869,1.018627 -0.01191,0.710488 -0.02664,1.925987 -0.03146,3.236958 -0.0048,1.31097 2.8e-4,2.717333 -0.01616,3.88596 -0.01644,1.168626 -0.05442,2.099451 -0.100949,2.836289 -0.04653,0.736838 -0.101615,1.279648 -0.164331,1.725597 -0.06272,0.44595 -0.13306,0.795013 -0.252387,1.083394 -0.119327,0.288382 -0.287629,0.516065 -0.427436,0.694141 -0.139806,0.178077 -0.251109,0.306537 -0.302463,0.401549 -0.05136,0.09501 -0.04276,0.156576 0.0309,0.165139 0.07366,0.0086 0.212385,-0.03587 0.402574,-0.04477 0.190189,-0.0089 0.431834,0.01774 0.779734,0.03109 0.3479,0.01336 0.802034,0.01344 4.645142,0.0017 3.843108,-0.01178 11.074893,-0.03542 14.75773,-0.05627 3.682836,-0.02085 3.816576,-0.0389 3.895322,-0.04793 0.07875,-0.009 0.102506,-0.009 0.199379,-0.799069 0.09687,-0.790042 0.266854,-2.370061 0.354837,-3.199523 0.08798,-0.829461 0.09397,-0.908322 0.06312,-0.950748 -0.03085,-0.04243 -0.09851,-0.04841 -0.199542,-0.0028 -0.101027,0.04563 -0.235397,0.142857 -0.419297,0.277977 -0.1839,0.135119 -0.417317,0.308118 -0.60428,0.413921 -0.186964,0.105803 -0.327469,0.144406 -0.959552,0.211253 -0.632083,0.06685 -1.7557,0.161936 -3.721669,0.235076 -1.965969,0.07314 -4.774155,0.124327 -6.867098,0.12999 -2.092944,0.0057 -3.470534,-0.0342 -4.266608,-0.09722 -0.796074,-0.06302 -1.010593,-0.149208 -1.190074,-0.24381 -0.179482,-0.0946 -0.323915,-0.197617 -0.428168,-0.328602 -0.104253,-0.130985 -0.168322,-0.289932 -0.20614,-0.412647 -0.03782,-0.122715 -0.04939,-0.209193 -0.0687,-0.278742 -0.01932,-0.06955 -0.04639,-0.12217 -0.119863,-0.150338 -0.07347,-0.02817 -0.19335,-0.03188 -0.295824,-0.05575 -0.102475,-0.02387 -0.187543,-0.06789 -0.251733,-0.11537 -0.06419,-0.04748 -0.1075,-0.09843 -0.10282,-0.17297 0.0047,-0.07454 0.05735,-0.172683 0.114244,-0.235248 0.05689,-0.06257 0.117998,-0.08956 0.194731,-0.127213 0.07673,-0.03766 0.169084,-0.08598 0.229568,-0.13818 0.06048,-0.0522 0.0891,-0.108275 0.09716,-0.329867 0.0081,-0.221592 -0.0044,-0.608686 -0.03832,-1.977177 -0.0339,-1.36849 -0.08921,-3.718276 -0.118987,-4.949835 -0.02977,-1.231559 -0.034,-1.344842 -0.01754,-1.416889 0.01646,-0.07205 0.0536,-0.102855 0.270187,-0.11956 0.216586,-0.01671 0.612596,-0.0193 2.078477,-0.004 1.46588,0.01534 4.001522,0.04861 5.386274,0.08064 1.384753,0.03202 1.618556,0.06279 1.892924,0.101654 0.274368,0.03886 0.589282,0.08581 0.886025,0.141606 0.296744,0.0558 0.575301,0.12044 0.78799,0.201249 0.212689,0.08081 0.359503,0.177778 0.487855,0.280539 0.128353,0.102761 0.238239,0.211307 0.334793,0.296475 0.09655,0.08517 0.179769,0.146953 0.257503,0.199296 0.07773,0.05234 0.149975,0.09524 0.202014,0.108008 0.05204,0.01277 0.08387,-0.0046 0.104101,-0.09819 0.02023,-0.09361 0.02887,-0.263471 0.02244,-0.760949 -0.0064,-0.497477 -0.02792,-1.322535 -0.04536,-2.233187 -0.01744,-0.910651 -0.03082,-1.906841 -0.04333,-2.4416 -0.01251,-0.534759 -0.02416,-0.60807 -0.06906,-0.651404 -0.04491,-0.04333 -0.123076,-0.05669 -0.194406,-0.0238 -0.07133,0.0329 -0.135811,0.112038 -0.24892,0.208217 -0.113108,0.09618 -0.274834,0.209386 -0.489625,0.319288 -0.214791,0.109901 -0.482634,0.216491 -0.871104,0.309255 -0.388471,0.09276 -0.897542,0.171695 -1.676034,0.226364 -0.778493,0.05467 -1.826354,0.08507 -3.141295,0.11551 -1.314941,0.03044 -2.896877,0.06091 -3.857622,0.07403 -0.960745,0.01312 -1.300254,0.0089 -1.541996,0.0068 -0.241742,-0.0021 -0.385705,-0.0021 -0.440147,-0.742921 -0.05444,-0.740807 -0.01936,-2.222361 0.0052,-3.539228 0.0246,-1.316868 0.03871,-2.468972 0.04603,-3.291459 0.0073,-0.822487 0.0079,-1.315312 0.01111,-1.607476 0.0033,-0.292163 0.0092,-0.383656 0.128194,-0.427246 0.118952,-0.04359 0.350864,-0.03928 1.217728,-0.03075 0.866864,0.0085 2.368616,0.02125 4.005401,0.02121 1.636784,-3.9e-5 3.408502,-0.01284 4.920643,-0.0032 1.512141,0.0096 2.76462,0.04163 3.533654,0.06714 0.769035,0.02551 1.054589,0.04451 1.289762,0.09455 0.235173,0.05003 0.41995,0.131085 0.596302,0.223563 0.176353,0.09248 0.344268,0.196373 0.487308,0.302157 0.143041,0.105784 0.261197,0.21345 0.352877,0.276589 0.09168,0.06314 0.156868,0.08174 0.203634,0.05314 0.04677,-0.02861 0.07511,-0.104425 0.09836,-0.804626 0.02325,-0.700202 0.04142,-2.024734 0.05417,-2.758875 0.01275,-0.734141 0.0201,-0.877863 -0.01992,-0.950741 -0.04001,-0.07288 -0.127386,-0.07491 -0.171071,-0.07593 -0.04368,-0.001 -0.04364,-0.001 -1.722835,-0.01314 z"
           id="path6"
           inkscape:path-effect="#path-effect6"
           inkscape:original-d="m 84.948947,43.404752 c -3.35838,-0.02424 -6.716761,-0.04848 -10.075141,-0.07272 -4.091279,-0.01069 -8.182394,-0.02139 -12.273591,-0.03208 -0.08209,0.01277 -0.164171,0.02555 -0.246256,0.03832 -0.05545,0.03171 -0.110902,0.06342 -0.166354,0.09513 0.09773,0.107457 0.195457,0.21491 0.293186,0.322365 0.131389,0.155128 0.262773,0.310251 0.39416,0.465376 0.10471,0.296037 0.209416,0.592062 0.314124,0.888092 0.139116,1.097985 0.278227,2.195926 0.417341,3.293888 -0.02774,2.816064 -0.05548,5.632015 -0.08322,8.448022 -0.0575,0.0013 -0.114992,0.0025 -0.172488,0.0038 -0.34731,0.01622 -0.694607,0.03243 -1.04191,0.04865 -1.67024,0.22694 -3.340414,0.453871 -5.010621,0.680806 -1.288432,0.131253 -2.576813,0.262501 -3.86522,0.393751 -0.05066,0.03537 -0.10131,0.07074 -0.151965,0.106111 -0.008,0.04612 -0.01609,0.09224 -0.02413,0.138352 0.164941,0.07197 0.329875,0.143944 0.494812,0.215915 1.265002,0.235524 2.529954,0.471039 3.794931,0.706558 1.922215,0.266069 3.844353,0.532128 5.76653,0.798191 0.08847,0 0.176942,0 0.265413,0 -0.0091,0.205433 -0.01818,0.410857 -0.02727,0.616285 -0.01473,1.215547 -0.02946,2.431046 -0.04419,3.646569 0.0051,1.406418 0.0102,2.812781 0.01529,4.219171 -0.03798,0.930863 -0.07596,1.861688 -0.113932,2.792532 -0.05509,0.542832 -0.110169,1.085642 -0.165254,1.628463 -0.07035,0.349077 -0.14069,0.698141 -0.211036,1.047211 -0.168309,0.227693 -0.336611,0.455376 -0.504917,0.683064 -0.111307,0.128465 -0.22261,0.256925 -0.333915,0.385388 0.0086,0.06156 0.01719,0.123125 0.02579,0.184687 0.138727,-0.04443 0.277449,-0.08887 0.416173,-0.133303 0.241654,0.02664 0.483298,0.05328 0.724947,0.07991 0.454152,7.8e-5 0.908286,1.56e-4 1.362429,2.34e-4 7.232073,-0.02364 14.463858,-0.04728 21.695786,-0.07092 0.133745,-0.01806 0.267485,-0.03611 0.401227,-0.05417 0.02375,0 0.04751,0 0.07127,0 0.169986,-1.580083 0.339966,-3.160102 0.50995,-4.740154 0.006,-0.07887 0.01196,-0.157733 0.01795,-0.2366 -0.06768,-0.006 -0.135348,-0.01196 -0.203022,-0.01795 -0.134377,0.09724 -0.268749,0.194467 -0.403123,0.291701 -0.233426,0.173005 -0.466843,0.346004 -0.700264,0.519006 -0.140507,0.0386 -0.28101,0.07721 -0.421515,0.11581 -1.123662,0.09509 -2.247279,0.19018 -3.370918,0.28527 -2.808299,0.05119 -5.616485,0.102376 -8.424727,0.153565 -1.377645,-0.03986 -2.755235,-0.07972 -4.132853,-0.119582 -0.214529,-0.08619 -0.429049,-0.172372 -0.643574,-0.258558 -0.144438,-0.103018 -0.288871,-0.206033 -0.433306,-0.309049 -0.06407,-0.158954 -0.12814,-0.317901 -0.19221,-0.476852 -0.01156,-0.08648 -0.02313,-0.172957 -0.0347,-0.259436 -0.02707,-0.05262 -0.05414,-0.10524 -0.08121,-0.157859 -0.11988,-0.0037 -0.239756,-0.0074 -0.359634,-0.01115 -0.08507,-0.04402 -0.170137,-0.08804 -0.255206,-0.132058 -0.04331,-0.05095 -0.08662,-0.101892 -0.129935,-0.152838 0.05267,-0.09814 0.105346,-0.196279 0.158019,-0.294419 0.06111,-0.02699 0.122216,-0.05398 0.183324,-0.08097 0.09236,-0.04832 0.184708,-0.09665 0.277062,-0.14497 0.02861,-0.05608 0.05723,-0.112152 0.08584,-0.168228 -0.01248,-0.387109 -0.02497,-0.774203 -0.03745,-1.161304 -0.05532,-2.34988 -0.11063,-4.699666 -0.165945,-7.049499 -0.0042,-0.113286 -0.0085,-0.226567 -0.01269,-0.33985 0.03715,-0.03081 0.07429,-0.06162 0.111436,-0.09243 0.396026,-0.0026 0.792036,-0.0052 1.188054,-0.0078 2.535743,0.03328 5.071385,0.06655 7.607077,0.09983 0.233813,0.03077 0.467616,0.06154 0.701424,0.09231 0.314928,0.04695 0.629842,0.0939 0.944763,0.14085 0.278567,0.06464 0.557123,0.129287 0.835684,0.193931 0.146819,0.09697 0.293631,0.193943 0.440446,0.290915 0.10989,0.10855 0.219776,0.217096 0.329664,0.325644 0.08322,0.06179 0.166435,0.123573 0.249653,0.18536 0.07225,0.0429 0.144492,0.08579 0.216738,0.128687 0.03183,-0.01735 0.06366,-0.0347 0.09549,-0.05205 0.0086,-0.169868 0.01728,-0.339729 0.02591,-0.509593 -0.02149,-0.825091 -0.04299,-1.650149 -0.06448,-2.475223 -0.01338,-0.996229 -0.02677,-1.992419 -0.04015,-2.988628 -0.01164,-0.07331 -0.02329,-0.146619 -0.03493,-0.219929 -0.07817,-0.01336 -0.156339,-0.02672 -0.234509,-0.04008 -0.06449,0.07915 -0.128971,0.158293 -0.193456,0.237439 -0.161732,0.113212 -0.323458,0.226419 -0.485186,0.339628 -0.267854,0.106594 -0.535697,0.213184 -0.803545,0.319776 -0.509092,0.07894 -1.018164,0.157868 -1.527245,0.236801 -1.047904,0.0304 -2.095765,0.0608 -3.143647,0.09121 -1.582,0.03047 -3.163936,0.06095 -4.745903,0.09142 -0.339523,-0.0042 -0.679032,-0.0085 -1.018549,-0.01269 -0.143967,0 -0.28793,0 -0.431895,0 0.03508,-1.481613 0.07016,-2.963167 0.105243,-4.444751 0.01411,-1.152151 0.02822,-2.304255 0.04233,-3.456383 5.48e-4,-0.492846 0.0011,-0.985671 0.0016,-1.478507 0.006,-0.09149 0.01196,-0.182984 0.01795,-0.274477 0.231921,0.0043 0.463833,0.0086 0.69575,0.01294 1.501811,0.01273 3.003563,0.02546 4.505344,0.03819 1.771788,-0.01281 3.543506,-0.02561 5.315258,-0.03842 1.25253,0.03202 2.505009,0.06404 3.757513,0.09606 0.285565,0.019 0.571119,0.03801 0.856678,0.05701 0.184786,0.08106 0.369564,0.162113 0.554346,0.24317 0.167923,0.103899 0.335838,0.207794 0.503757,0.311691 0.118162,0.107671 0.236318,0.215337 0.354477,0.323006 0.0652,0.01861 0.130387,0.03722 0.19558,0.05582 0.02834,-0.07582 0.05668,-0.151638 0.08502,-0.227456 0.01816,-1.324585 0.03633,-2.649117 0.05449,-3.973675 0.0073,-0.143726 0.01468,-0.287446 0.02203,-0.431169 -0.08737,-0.002 -0.174741,-0.0041 -0.262112,-0.0061 z" /></g></g></g></svg>
