<?xml version="1.0" encoding="UTF-8" standalone="no"?>
<!-- Created with Inkscape (http://www.inkscape.org/) -->

<svg
   width="120"
   height="120"
   viewBox="0 0 120 120"
   version="1.1"
   id="svg1"
   xml:space="preserve"
   inkscape:version="1.4.1 (93de688d07, 2025-03-30)"
   sodipodi:docname="lg.svg"
   xmlns:inkscape="http://www.inkscape.org/namespaces/inkscape"
   xmlns:sodipodi="http://sodipodi.sourceforge.net/DTD/sodipodi-0.dtd"
   xmlns="http://www.w3.org/2000/svg"
   xmlns:svg="http://www.w3.org/2000/svg"><sodipodi:namedview
     id="namedview1"
     pagecolor="#1f1f1f"
     bordercolor="#000000"
     borderopacity="0.25"
     inkscape:showpageshadow="2"
     inkscape:pageopacity="0.0"
     inkscape:pagecheckerboard="0"
     inkscape:deskcolor="#3c3c3c"
     inkscape:document-units="px"
     inkscape:zoom="5.6568543"
     inkscape:cx="67.440309"
     inkscape:cy="49.939416"
     inkscape:window-width="1660"
     inkscape:window-height="1287"
     inkscape:window-x="0"
     inkscape:window-y="0"
     inkscape:window-maximized="1"
     inkscape:current-layer="layer3" /><defs
     id="defs1"><inkscape:path-effect
       effect="bspline"
       id="path-effect14"
       is_visible="true"
       lpeversion="1.3"
       weight="33.333333"
       steps="2"
       helper_size="0"
       apply_no_weight="true"
       apply_with_weight="true"
       only_selected="false"
       uniform="false" /><inkscape:path-effect
       effect="fillet_chamfer"
       id="path-effect5"
       is_visible="true"
       lpeversion="1"
       nodesatellites_param="F,0,0,1,0,37.022737,0,1 @ F,0,0,1,0,36.062445,0,1 @ F,0,0,1,0,35.528974,0,1 @ F,0,0,1,0,28.991378,0,1"
       radius="0"
       unit="px"
       method="auto"
       mode="F"
       chamfer_steps="1"
       flexible="false"
       use_knot_distance="true"
       apply_no_radius="true"
       apply_with_radius="true"
       only_selected="false"
       hide_knots="false" /><inkscape:path-effect
       effect="bspline"
       id="path-effect4"
       is_visible="true"
       lpeversion="1.3"
       weight="33.333333"
       steps="2"
       helper_size="0"
       apply_no_weight="true"
       apply_with_weight="true"
       only_selected="false"
       uniform="false" /><inkscape:path-effect
       effect="bspline"
       id="path-effect3"
       is_visible="true"
       lpeversion="1.3"
       weight="33.333333"
       steps="2"
       helper_size="0"
       apply_no_weight="true"
       apply_with_weight="true"
       only_selected="false"
       uniform="false" /><inkscape:path-effect
       effect="mirror_symmetry"
       start_point="59.977887,81.781355"
       end_point="59.977887,112.27285"
       center_point="59.977887,97.027103"
       id="path-effect9"
       is_visible="true"
       lpeversion="1.2"
       lpesatellites=""
       mode="free"
       discard_orig_path="false"
       fuse_paths="false"
       oposite_fuse="false"
       split_items="false"
       split_open="false"
       link_styles="false" /><inkscape:path-effect
       effect="mirror_symmetry"
       start_point="59.944658,10.409945"
       end_point="59.944658,50.039614"
       center_point="59.944658,30.22478"
       id="path-effect2"
       is_visible="true"
       lpeversion="1.2"
       lpesatellites=""
       mode="free"
       discard_orig_path="false"
       fuse_paths="false"
       oposite_fuse="false"
       split_items="false"
       split_open="false"
       link_styles="false" /><inkscape:path-effect
       effect="mirror_symmetry"
       start_point="59.948435,66.805114"
       end_point="59.948435,107.38004"
       center_point="59.948435,87.092577"
       id="path-effect8"
       is_visible="true"
       lpeversion="1.2"
       lpesatellites=""
       mode="free"
       discard_orig_path="false"
       fuse_paths="false"
       oposite_fuse="false"
       split_items="false"
       split_open="false"
       link_styles="false" /><inkscape:path-effect
       effect="mirror_symmetry"
       start_point="60.801511,9.4541705"
       end_point="60.801511,40.169132"
       center_point="60.801511,24.811651"
       id="path-effect7"
       is_visible="true"
       lpeversion="1.2"
       lpesatellites=""
       mode="free"
       discard_orig_path="false"
       fuse_paths="false"
       oposite_fuse="false"
       split_items="false"
       split_open="false"
       link_styles="false" /><inkscape:path-effect
       effect="fillet_chamfer"
       id="path-effect13"
       is_visible="true"
       lpeversion="1"
       nodesatellites_param="F,0,0,1,0,4.7467821,0,1 @ F,0,0,1,0,4.0515277,0,1 @ F,0,0,1,0,0,0,1 @ F,0,0,1,0,2.4219461,0,1 @ F,0,0,1,0,2.4960577,0,1 @ F,0,0,1,0,0,0,1 @ F,0,0,1,0,4.1062831,0,1"
       radius="0"
       unit="px"
       method="auto"
       mode="F"
       chamfer_steps="1"
       flexible="false"
       use_knot_distance="true"
       apply_no_radius="true"
       apply_with_radius="true"
       only_selected="false"
       hide_knots="false" /><inkscape:path-effect
       effect="fillet_chamfer"
       id="path-effect12"
       is_visible="true"
       lpeversion="1"
       nodesatellites_param="F,0,0,1,0,0,0,1 @ F,0,0,1,0,0,0,1 @ F,0,0,1,0,0,0,1 @ F,0,0,1,0,0,0,1 @ F,0,0,1,0,3.627665,0,1 @ F,0,0,1,0,0,0,1 @ F,0,0,1,0,0,0,1"
       radius="0"
       unit="px"
       method="auto"
       mode="F"
       chamfer_steps="1"
       flexible="false"
       use_knot_distance="true"
       apply_no_radius="true"
       apply_with_radius="true"
       only_selected="false"
       hide_knots="false" /><inkscape:path-effect
       effect="fillet_chamfer"
       id="path-effect11"
       is_visible="true"
       lpeversion="1"
       nodesatellites_param="F,0,0,1,0,2.9729248,0,1 @ F,0,0,1,0,3.8975858,0,1 @ F,0,0,1,0,0,0,1 @ F,0,1,1,0,3.784373,0,1 @ F,0,0,1,0,1.4792147,0,1 @ F,0,0,1,0,0,0,1 @ F,0,0,1,0,3.784373,0,1"
       radius="0"
       unit="px"
       method="auto"
       mode="F"
       chamfer_steps="1"
       flexible="false"
       use_knot_distance="true"
       apply_no_radius="true"
       apply_with_radius="true"
       only_selected="false"
       hide_knots="false" /><linearGradient
       id="linearGradient6"><stop
         style="stop-color:#c88500;stop-opacity:1;"
         offset="0.07163448"
         id="stop8" /><stop
         style="stop-color:#fff300;stop-opacity:1;"
         offset="1"
         id="stop9" /></linearGradient><linearGradient
       id="linearGradient6-1"><stop
         style="stop-color:#c88500;stop-opacity:1;"
         offset="0"
         id="stop6" /><stop
         style="stop-color:#fff300;stop-opacity:1;"
         offset="1"
         id="stop7" /></linearGradient><inkscape:path-effect
       effect="fillet_chamfer"
       id="path-effect1"
       is_visible="true"
       lpeversion="1"
       nodesatellites_param="F,0,0,1,0,24.536157,0,1 @ F,0,0,1,0,24.004899,0,1 @ F,0,0,1,0,23.651152,0,1 @ F,0,0,1,0,24.380791,0,1"
       radius="0"
       unit="px"
       method="auto"
       mode="F"
       chamfer_steps="1"
       flexible="false"
       use_knot_distance="true"
       apply_no_radius="true"
       apply_with_radius="true"
       only_selected="false"
       hide_knots="false" /><linearGradient
       id="a"
       x1="7.937"
       x2="7.937"
       y1="15.081"
       y2="1.852"
       gradientTransform="scale(3.7796)"
       gradientUnits="userSpaceOnUse"><stop
         offset="0"
         stop-color="#9b6f27"
         id="stop1" /><stop
         offset="1"
         stop-color="#d0ab6a"
         id="stop2" /></linearGradient><filter
       id="b"
       width="1.216"
       height="1.216"
       x="-0.108"
       y="-0.108"
       color-interpolation-filters="sRGB"><feGaussianBlur
         stdDeviation="1.35"
         id="feGaussianBlur2" /></filter><linearGradient
       id="linearGradient31"
       x1=".5002"
       x2=".5002"
       y2="1"
       gradientTransform="matrix(244,0,0,228,5.986,12)"
       gradientUnits="userSpaceOnUse"><stop
         stop-color="#ebdbb2"
         stop-opacity=".2"
         offset="0"
         id="stop1-5" /><stop
         stop-color="#ebdbb2"
         stop-opacity=".05"
         offset=".1"
         id="stop2-6" /><stop
         stop-opacity="0"
         offset=".7036"
         id="stop3" /><stop
         stop-opacity=".1"
         offset=".8975"
         id="stop4" /><stop
         stop-opacity=".2"
         offset="1"
         id="stop5" /></linearGradient><inkscape:path-effect
       effect="bspline"
       id="path-effect6"
       is_visible="true"
       lpeversion="1.3"
       weight="33.333333"
       steps="2"
       helper_size="0"
       apply_no_weight="true"
       apply_with_weight="true"
       only_selected="false"
       uniform="false" /><inkscape:path-effect
       effect="bspline"
       id="path-effect5-5"
       is_visible="true"
       lpeversion="1.3"
       weight="33.333333"
       steps="2"
       helper_size="0"
       apply_no_weight="true"
       apply_with_weight="true"
       only_selected="false"
       uniform="false" /><inkscape:path-effect
       effect="bspline"
       id="path-effect4-3"
       is_visible="true"
       lpeversion="1.3"
       weight="33.333333"
       steps="2"
       helper_size="0"
       apply_no_weight="true"
       apply_with_weight="true"
       only_selected="false"
       uniform="false" /><inkscape:path-effect
       effect="bspline"
       id="path-effect3-5"
       is_visible="true"
       lpeversion="1.3"
       weight="33.333333"
       steps="2"
       helper_size="0"
       apply_no_weight="true"
       apply_with_weight="true"
       only_selected="false"
       uniform="false" /><inkscape:path-effect
       effect="mirror_symmetry"
       start_point="59.977887,81.781355"
       end_point="59.977887,112.27285"
       center_point="59.977887,97.027103"
       id="path-effect9-6"
       is_visible="true"
       lpeversion="1.2"
       lpesatellites=""
       mode="free"
       discard_orig_path="false"
       fuse_paths="false"
       oposite_fuse="false"
       split_items="false"
       split_open="false"
       link_styles="false" /><inkscape:path-effect
       effect="mirror_symmetry"
       start_point="59.944658,10.409945"
       end_point="59.944658,50.039614"
       center_point="59.944658,30.22478"
       id="path-effect2-2"
       is_visible="true"
       lpeversion="1.2"
       lpesatellites=""
       mode="free"
       discard_orig_path="false"
       fuse_paths="false"
       oposite_fuse="false"
       split_items="false"
       split_open="false"
       link_styles="false" /><inkscape:path-effect
       effect="mirror_symmetry"
       start_point="59.948435,66.805114"
       end_point="59.948435,107.38004"
       center_point="59.948435,87.092577"
       id="path-effect8-9"
       is_visible="true"
       lpeversion="1.2"
       lpesatellites=""
       mode="free"
       discard_orig_path="false"
       fuse_paths="false"
       oposite_fuse="false"
       split_items="false"
       split_open="false"
       link_styles="false" /><inkscape:path-effect
       effect="mirror_symmetry"
       start_point="60.801511,9.4541705"
       end_point="60.801511,40.169132"
       center_point="60.801511,24.811651"
       id="path-effect7-1"
       is_visible="true"
       lpeversion="1.2"
       lpesatellites=""
       mode="free"
       discard_orig_path="false"
       fuse_paths="false"
       oposite_fuse="false"
       split_items="false"
       split_open="false"
       link_styles="false" /><inkscape:path-effect
       effect="fillet_chamfer"
       id="path-effect13-2"
       is_visible="true"
       lpeversion="1"
       nodesatellites_param="F,0,0,1,0,4.7467821,0,1 @ F,0,0,1,0,4.0515277,0,1 @ F,0,0,1,0,0,0,1 @ F,0,0,1,0,2.4219461,0,1 @ F,0,0,1,0,2.4960577,0,1 @ F,0,0,1,0,0,0,1 @ F,0,0,1,0,4.1062831,0,1"
       radius="0"
       unit="px"
       method="auto"
       mode="F"
       chamfer_steps="1"
       flexible="false"
       use_knot_distance="true"
       apply_no_radius="true"
       apply_with_radius="true"
       only_selected="false"
       hide_knots="false" /><inkscape:path-effect
       effect="fillet_chamfer"
       id="path-effect12-7"
       is_visible="true"
       lpeversion="1"
       nodesatellites_param="F,0,0,1,0,0,0,1 @ F,0,0,1,0,0,0,1 @ F,0,0,1,0,0,0,1 @ F,0,0,1,0,0,0,1 @ F,0,0,1,0,3.627665,0,1 @ F,0,0,1,0,0,0,1 @ F,0,0,1,0,0,0,1"
       radius="0"
       unit="px"
       method="auto"
       mode="F"
       chamfer_steps="1"
       flexible="false"
       use_knot_distance="true"
       apply_no_radius="true"
       apply_with_radius="true"
       only_selected="false"
       hide_knots="false" /><inkscape:path-effect
       effect="fillet_chamfer"
       id="path-effect11-0"
       is_visible="true"
       lpeversion="1"
       nodesatellites_param="F,0,0,1,0,2.9729248,0,1 @ F,0,0,1,0,3.8975858,0,1 @ F,0,0,1,0,0,0,1 @ F,0,1,1,0,3.784373,0,1 @ F,0,0,1,0,1.4792147,0,1 @ F,0,0,1,0,0,0,1 @ F,0,0,1,0,3.784373,0,1"
       radius="0"
       unit="px"
       method="auto"
       mode="F"
       chamfer_steps="1"
       flexible="false"
       use_knot_distance="true"
       apply_no_radius="true"
       apply_with_radius="true"
       only_selected="false"
       hide_knots="false" /><inkscape:path-effect
       effect="fillet_chamfer"
       id="path-effect1-6"
       is_visible="true"
       lpeversion="1"
       nodesatellites_param="F,0,0,1,0,24.536157,0,1 @ F,0,0,1,0,24.004899,0,1 @ F,0,0,1,0,23.651152,0,1 @ F,0,0,1,0,24.380791,0,1"
       radius="0"
       unit="px"
       method="auto"
       mode="F"
       chamfer_steps="1"
       flexible="false"
       use_knot_distance="true"
       apply_no_radius="true"
       apply_with_radius="true"
       only_selected="false"
       hide_knots="false" /><filter
       id="b-8"
       width="1.216"
       height="1.216"
       x="-0.108"
       y="-0.108"
       color-interpolation-filters="sRGB"><feGaussianBlur
         stdDeviation="1.35"
         id="feGaussianBlur2-7" /></filter></defs><g
     inkscape:groupmode="layer"
     id="layer3"
     inkscape:label="base"><path
       d="m 76.476937,9.2332248 c 32.063223,0 37.852423,6.6798392 37.852423,38.7430672 v 24.938066 c 0,31.172592 -5.7892,37.852422 -37.852423,37.852422 H 43.523063 c -32.063227,0 -37.8524214,-6.67983 -37.8524214,-37.852422 V 47.976292 c 0,-32.063228 5.7891944,-38.7430672 37.8524214,-38.7430672 z"
       fill="#ebdbb2"
       style="display:inline;opacity:1;isolation:isolate;stroke-width:0.445323;fill:#a541bc;fill-opacity:1"
       id="path5" /><g
       id="g1"
       transform="matrix(0.83777939,0,0,0.83777939,9.5355502,9.733237)"><g
         id="layer2"
         inkscape:label="Layer 2"
         style="opacity:1"><text
           xml:space="preserve"
           style="font-size:48px;font-family:'Bebas Neue';-inkscape-font-specification:'Bebas Neue';text-align:start;writing-mode:lr-tb;direction:ltr;text-anchor:start;fill:#a11c17;stroke:#d79921;stroke-width:2.205"
           x="51.974144"
           y="49.389793"
           id="text1"><tspan
             sodipodi:role="line"
             id="tspan1"
             x="51.974144"
             y="49.389793" /></text><g
           id="g6"
           transform="matrix(1.1902108,0,0,1.1902108,-11.75373,-11.305147)"><circle
             style="fill:none;fill-opacity:1;stroke:#ebdbb2;stroke-width:1.58281;stroke-dasharray:none;stroke-opacity:1"
             id="path2"
             cx="60.40609"
             cy="46.336468"
             r="29.935698" /><ellipse
             style="fill:none;fill-opacity:1;stroke:#ebdbb2;stroke-width:1.66576;stroke-dasharray:none;stroke-opacity:1"
             id="path3"
             cx="60.445072"
             cy="46.159359"
             rx="23.803066"
             ry="23.731279" /><circle
             style="fill:none;fill-opacity:1;stroke:#ebdbb2;stroke-width:1.605;stroke-dasharray:none;stroke-opacity:1"
             id="path4"
             cx="23.56222"
             cy="43.021732"
             r="2.1536248" /><circle
             style="fill:none;fill-opacity:1;stroke:#ebdbb2;stroke-width:1.605;stroke-dasharray:none;stroke-opacity:1"
             id="path4-9"
             cx="97.010925"
             cy="43.133041"
             r="2.1536248" /><path
             id="path5-9"
             style="display:inline;fill:#ebdbb2;fill-opacity:1;stroke:none;stroke-width:1.605;stroke-dasharray:none;stroke-opacity:1"
             d="m 22.648438,45.109375 c -0.0846,0.01692 -0.110054,0.06923 -0.126954,0.166016 -0.0169,0.09678 -0.02509,0.239144 -0.0293,0.310547 -0.0042,0.0714 -0.0048,0.07136 -0.0078,0.40039 -0.003,0.329026 -0.0097,0.987257 0.226563,2.841797 0.236304,1.85454 0.715647,4.904648 1.816406,8.212891 1.100759,3.308242 2.824219,6.873619 4.439453,9.601562 1.615234,2.727944 3.121999,4.619097 5.167969,6.521484 2.045969,1.902388 4.630929,3.816425 7.382812,5.335938 2.751883,1.519513 5.670549,2.642958 8.015625,3.384766 2.345076,0.741807 4.116728,1.101535 5.564453,1.292968 1.447726,0.191434 2.57222,0.215005 3.212891,0.253907 0.64067,0.0389 0.797332,0.09256 0.917969,0.191406 0.120637,0.09885 0.204755,0.243035 0.208984,2.527344 0.0042,2.284308 -0.07294,6.708228 -0.140625,8.9375 -0.06768,2.229272 -0.12593,2.264653 -0.878906,2.277343 -0.752976,0.01269 -2.198911,0.0029 -3.962891,-0.0098 -1.76398,-0.01269 -3.846804,-0.02894 -5.005859,0.04297 -1.159055,0.07191 -1.394702,0.233269 -1.851563,0.757812 -0.45686,0.524543 -1.133619,1.412689 -1.53125,2.068364 -0.397631,0.65567 -0.515988,1.07895 -0.613281,1.52734 -0.09729,0.4484 -0.173848,0.92073 -0.224609,1.34375 -0.05076,0.42302 -0.07579,0.79531 0.07227,0.96875 0.148059,0.17344 0.469238,0.14941 5.283203,0.13672 4.813965,-0.0127 14.120712,-0.0133 18.972657,-0.0176 4.851944,-0.004 5.249124,-0.0134 5.515625,-0.14453 0.2665,-0.13114 0.401717,-0.3849 0.460937,-0.74023 0.05922,-0.35534 0.04293,-0.81205 -0.05859,-1.32813 -0.101524,-0.51608 -0.289216,-1.09107 -0.695312,-1.73828 -0.406096,-0.647214 -1.032306,-1.366465 -1.693359,-1.880862 -0.661054,-0.514396 -1.356323,-0.824597 -2.5,-0.982421 -1.143678,-0.157825 -2.733952,-0.161986 -4.322266,-0.167969 -1.588314,-0.006 -3.173772,-0.01263 -3.984375,-0.01563 -0.810604,-0.003 -0.84625,-0.003 -0.867188,-2.279297 -0.02094,-2.276307 -0.02825,-6.829411 0.0098,-9.109375 0.03802,-2.279964 0.120629,-2.286666 0.652344,-2.298828 0.531714,-0.01216 1.51217,-0.02999 2.705078,-0.148438 1.192907,-0.118445 2.598273,-0.337357 4.222656,-0.65039 1.624384,-0.313033 3.469408,-0.719656 5.195313,-1.396485 1.725904,-0.676828 3.332029,-1.624766 5.041015,-2.724609 1.708986,-1.099843 3.520076,-2.350674 4.941407,-3.433594 1.42133,-1.082919 2.452939,-1.997897 3.679687,-3.326172 1.226748,-1.328274 2.648922,-3.069701 3.917969,-4.888671 1.269047,-1.818971 2.385087,-3.714245 3.222656,-5.558594 0.837569,-1.84435 1.395335,-3.638606 1.792969,-5.169922 0.397633,-1.531316 0.634195,-2.799434 0.845703,-4.398438 0.211508,-1.599004 0.397801,-3.528425 0.43164,-4.636718 0.03384,-1.108294 -0.08471,-1.395239 -0.279296,-1.539063 C 97.596427,45.483129 97.325723,45.482413 97,45.457031 c -0.325723,-0.02538 -0.70614,-0.07585 -0.921875,-0.08008 -0.215735,-0.0042 -0.265968,0.03816 -0.3125,0.228516 -0.04653,0.190359 -0.08856,0.528019 -0.130859,1.46289 -0.0423,0.934872 -0.08505,2.46588 -0.326172,4.339844 -0.241121,1.873965 -0.680097,4.091826 -1.771485,6.744141 -1.091387,2.652315 -2.834219,5.73844 -5.177734,8.720703 -2.343515,2.982262 -5.288287,5.860232 -8.384766,8.09375 -3.096479,2.233518 -6.345248,3.823277 -8.544921,4.753906 -2.199674,0.930629 -3.351083,1.201593 -4.658204,1.451172 -1.307121,0.249579 -2.769805,0.477584 -4.347656,0.591797 -1.577851,0.114213 -3.270084,0.114882 -4.716797,0.04297 -1.446712,-0.07191 -2.64784,-0.215672 -4.517578,-0.689453 -1.869738,-0.473782 -4.407352,-1.277977 -6.433594,-2.085938 -2.026242,-0.807961 -3.541243,-1.619802 -4.992187,-2.503906 -1.450945,-0.884105 -2.837516,-1.840066 -4.423828,-3.291016 -1.586313,-1.45095 -3.372343,-3.397914 -4.9375,-5.445312 -1.565158,-2.047399 -2.910556,-4.196354 -3.951172,-6.070313 -1.040617,-1.873958 -1.775262,-3.471246 -2.28711,-4.892578 -0.511847,-1.421332 -0.799563,-2.665813 -1.019531,-3.841797 -0.219967,-1.175984 -0.372762,-2.284849 -0.478515,-3.18164 -0.105754,-0.896792 -0.166036,-1.58094 -0.216797,-2.13086 -0.05076,-0.549919 -0.09312,-0.964332 -0.152344,-1.328125 -0.05922,-0.363793 -0.13387,-0.676507 -0.349609,-0.871094 -0.21574,-0.194586 -0.570734,-0.271828 -0.820313,-0.318359 -0.249578,-0.04653 -0.393914,-0.06379 -0.478515,-0.04687 z m 47.433593,53.574219 c 0.125629,-0.01197 0.197566,0.02461 0.658203,0.347656 0.460638,0.323043 1.310349,0.932058 1.794922,1.38672 0.484574,0.45466 0.604128,0.75449 0.574219,0.91601 -0.02991,0.16153 -0.209905,0.1864 -4.0625,0.24024 -3.852595,0.0538 -11.37713,0.13611 -15.642578,0.16601 -4.265448,0.0299 -5.271284,0.006 -5.755859,-0.10156 -0.484576,-0.10768 -0.447554,-0.29912 -0.148438,-0.75976 0.299116,-0.46064 0.86176,-1.18915 1.220703,-1.583988 0.358944,-0.394838 0.513184,-0.454586 3.958985,-0.478516 3.4458,-0.02393 10.182751,-0.01379 13.550781,-0.0078 3.368029,0.006 3.367297,0.0065 3.457031,-0.02344 0.08973,-0.02991 0.268902,-0.0896 0.394531,-0.101562 z" /></g></g></g></g></svg>
