<?xml version="1.0" encoding="UTF-8" standalone="no"?>
<!-- Created with Inkscape (http://www.inkscape.org/) -->

<svg
   width="120"
   height="120"
   viewBox="0 0 120 120"
   version="1.1"
   id="svg1"
   xml:space="preserve"
   inkscape:version="1.4.2 (ebf0e940d0, 2025-05-08)"
   sodipodi:docname="mb2.svg"
   xmlns:inkscape="http://www.inkscape.org/namespaces/inkscape"
   xmlns:sodipodi="http://sodipodi.sourceforge.net/DTD/sodipodi-0.dtd"
   xmlns:xlink="http://www.w3.org/1999/xlink"
   xmlns="http://www.w3.org/2000/svg"
   xmlns:svg="http://www.w3.org/2000/svg"><sodipodi:namedview
     id="namedview1"
     pagecolor="#1f1f1f"
     bordercolor="#000000"
     borderopacity="0.25"
     inkscape:showpageshadow="2"
     inkscape:pageopacity="0.0"
     inkscape:pagecheckerboard="0"
     inkscape:deskcolor="#3c3c3c"
     inkscape:document-units="px"
     inkscape:zoom="5.6568543"
     inkscape:cx="74.511376"
     inkscape:cy="53.298173"
     inkscape:window-width="1851"
     inkscape:window-height="1287"
     inkscape:window-x="0"
     inkscape:window-y="0"
     inkscape:window-maximized="1"
     inkscape:current-layer="g1" /><defs
     id="defs1"><linearGradient
       id="linearGradient1"
       inkscape:collect="always"><stop
         style="stop-color:#345ba0;stop-opacity:1;"
         offset="0"
         id="stop10" /><stop
         style="stop-color:#6a9e40;stop-opacity:1;"
         offset="1"
         id="stop11" /></linearGradient><inkscape:path-effect
       effect="bspline"
       id="path-effect14"
       is_visible="true"
       lpeversion="1.3"
       weight="33.333333"
       steps="2"
       helper_size="0"
       apply_no_weight="true"
       apply_with_weight="true"
       only_selected="false"
       uniform="false" /><inkscape:path-effect
       effect="fillet_chamfer"
       id="path-effect5"
       is_visible="true"
       lpeversion="1"
       nodesatellites_param="F,0,0,1,0,37.022737,0,1 @ F,0,0,1,0,36.062445,0,1 @ F,0,0,1,0,35.528974,0,1 @ F,0,0,1,0,28.991378,0,1"
       radius="0"
       unit="px"
       method="auto"
       mode="F"
       chamfer_steps="1"
       flexible="false"
       use_knot_distance="true"
       apply_no_radius="true"
       apply_with_radius="true"
       only_selected="false"
       hide_knots="false" /><inkscape:path-effect
       effect="bspline"
       id="path-effect4"
       is_visible="true"
       lpeversion="1.3"
       weight="33.333333"
       steps="2"
       helper_size="0"
       apply_no_weight="true"
       apply_with_weight="true"
       only_selected="false"
       uniform="false" /><inkscape:path-effect
       effect="bspline"
       id="path-effect3"
       is_visible="true"
       lpeversion="1.3"
       weight="33.333333"
       steps="2"
       helper_size="0"
       apply_no_weight="true"
       apply_with_weight="true"
       only_selected="false"
       uniform="false" /><inkscape:path-effect
       effect="mirror_symmetry"
       start_point="59.977887,81.781355"
       end_point="59.977887,112.27285"
       center_point="59.977887,97.027103"
       id="path-effect9"
       is_visible="true"
       lpeversion="1.2"
       lpesatellites=""
       mode="free"
       discard_orig_path="false"
       fuse_paths="false"
       oposite_fuse="false"
       split_items="false"
       split_open="false"
       link_styles="false" /><inkscape:path-effect
       effect="mirror_symmetry"
       start_point="59.944658,10.409945"
       end_point="59.944658,50.039614"
       center_point="59.944658,30.22478"
       id="path-effect2"
       is_visible="true"
       lpeversion="1.2"
       lpesatellites=""
       mode="free"
       discard_orig_path="false"
       fuse_paths="false"
       oposite_fuse="false"
       split_items="false"
       split_open="false"
       link_styles="false" /><inkscape:path-effect
       effect="mirror_symmetry"
       start_point="59.948435,66.805114"
       end_point="59.948435,107.38004"
       center_point="59.948435,87.092577"
       id="path-effect8"
       is_visible="true"
       lpeversion="1.2"
       lpesatellites=""
       mode="free"
       discard_orig_path="false"
       fuse_paths="false"
       oposite_fuse="false"
       split_items="false"
       split_open="false"
       link_styles="false" /><inkscape:path-effect
       effect="mirror_symmetry"
       start_point="60.801511,9.4541705"
       end_point="60.801511,40.169132"
       center_point="60.801511,24.811651"
       id="path-effect7"
       is_visible="true"
       lpeversion="1.2"
       lpesatellites=""
       mode="free"
       discard_orig_path="false"
       fuse_paths="false"
       oposite_fuse="false"
       split_items="false"
       split_open="false"
       link_styles="false" /><inkscape:path-effect
       effect="fillet_chamfer"
       id="path-effect13"
       is_visible="true"
       lpeversion="1"
       nodesatellites_param="F,0,0,1,0,4.7467821,0,1 @ F,0,0,1,0,4.0515277,0,1 @ F,0,0,1,0,0,0,1 @ F,0,0,1,0,2.4219461,0,1 @ F,0,0,1,0,2.4960577,0,1 @ F,0,0,1,0,0,0,1 @ F,0,0,1,0,4.1062831,0,1"
       radius="0"
       unit="px"
       method="auto"
       mode="F"
       chamfer_steps="1"
       flexible="false"
       use_knot_distance="true"
       apply_no_radius="true"
       apply_with_radius="true"
       only_selected="false"
       hide_knots="false" /><inkscape:path-effect
       effect="fillet_chamfer"
       id="path-effect12"
       is_visible="true"
       lpeversion="1"
       nodesatellites_param="F,0,0,1,0,0,0,1 @ F,0,0,1,0,0,0,1 @ F,0,0,1,0,0,0,1 @ F,0,0,1,0,0,0,1 @ F,0,0,1,0,3.627665,0,1 @ F,0,0,1,0,0,0,1 @ F,0,0,1,0,0,0,1"
       radius="0"
       unit="px"
       method="auto"
       mode="F"
       chamfer_steps="1"
       flexible="false"
       use_knot_distance="true"
       apply_no_radius="true"
       apply_with_radius="true"
       only_selected="false"
       hide_knots="false" /><inkscape:path-effect
       effect="fillet_chamfer"
       id="path-effect11"
       is_visible="true"
       lpeversion="1"
       nodesatellites_param="F,0,0,1,0,2.9729248,0,1 @ F,0,0,1,0,3.8975858,0,1 @ F,0,0,1,0,0,0,1 @ F,0,1,1,0,3.784373,0,1 @ F,0,0,1,0,1.4792147,0,1 @ F,0,0,1,0,0,0,1 @ F,0,0,1,0,3.784373,0,1"
       radius="0"
       unit="px"
       method="auto"
       mode="F"
       chamfer_steps="1"
       flexible="false"
       use_knot_distance="true"
       apply_no_radius="true"
       apply_with_radius="true"
       only_selected="false"
       hide_knots="false" /><linearGradient
       id="linearGradient6"><stop
         style="stop-color:#c88500;stop-opacity:1;"
         offset="0.07163448"
         id="stop8" /><stop
         style="stop-color:#fff300;stop-opacity:1;"
         offset="1"
         id="stop9" /></linearGradient><linearGradient
       id="linearGradient6-1"><stop
         style="stop-color:#c88500;stop-opacity:1;"
         offset="0"
         id="stop6" /><stop
         style="stop-color:#fff300;stop-opacity:1;"
         offset="1"
         id="stop7" /></linearGradient><inkscape:path-effect
       effect="fillet_chamfer"
       id="path-effect1"
       is_visible="true"
       lpeversion="1"
       nodesatellites_param="F,0,0,1,0,24.536157,0,1 @ F,0,0,1,0,24.004899,0,1 @ F,0,0,1,0,23.651152,0,1 @ F,0,0,1,0,24.380791,0,1"
       radius="0"
       unit="px"
       method="auto"
       mode="F"
       chamfer_steps="1"
       flexible="false"
       use_knot_distance="true"
       apply_no_radius="true"
       apply_with_radius="true"
       only_selected="false"
       hide_knots="false" /><linearGradient
       id="a"
       x1="7.937"
       x2="7.937"
       y1="15.081"
       y2="1.852"
       gradientTransform="scale(3.7796)"
       gradientUnits="userSpaceOnUse"><stop
         offset="0"
         stop-color="#9b6f27"
         id="stop1" /><stop
         offset="1"
         stop-color="#d0ab6a"
         id="stop2" /></linearGradient><filter
       id="b"
       width="1.216"
       height="1.216"
       x="-0.108"
       y="-0.108"
       color-interpolation-filters="sRGB"><feGaussianBlur
         stdDeviation="1.35"
         id="feGaussianBlur2" /></filter><linearGradient
       id="linearGradient31"
       x1=".5002"
       x2=".5002"
       y2="1"
       gradientTransform="matrix(244,0,0,228,5.986,12)"
       gradientUnits="userSpaceOnUse"><stop
         stop-color="#ebdbb2"
         stop-opacity=".2"
         offset="0"
         id="stop1-5" /><stop
         stop-color="#ebdbb2"
         stop-opacity=".05"
         offset=".1"
         id="stop2-6" /><stop
         stop-opacity="0"
         offset=".7036"
         id="stop3" /><stop
         stop-opacity=".1"
         offset=".8975"
         id="stop4" /><stop
         stop-opacity=".2"
         offset="1"
         id="stop5" /></linearGradient><inkscape:path-effect
       effect="bspline"
       id="path-effect5-2"
       is_visible="true"
       lpeversion="1.3"
       weight="33.333333"
       steps="2"
       helper_size="0"
       apply_no_weight="true"
       apply_with_weight="true"
       only_selected="false"
       uniform="false" /><inkscape:path-effect
       effect="bspline"
       id="path-effect4-7"
       is_visible="true"
       lpeversion="1.3"
       weight="33.333333"
       steps="2"
       helper_size="0"
       apply_no_weight="true"
       apply_with_weight="true"
       only_selected="false"
       uniform="false" /><inkscape:path-effect
       effect="bspline"
       id="path-effect3-0"
       is_visible="true"
       lpeversion="1.3"
       weight="33.333333"
       steps="2"
       helper_size="0"
       apply_no_weight="true"
       apply_with_weight="true"
       only_selected="false"
       uniform="false" /><inkscape:path-effect
       effect="mirror_symmetry"
       start_point="59.977887,81.781355"
       end_point="59.977887,112.27285"
       center_point="59.977887,97.027103"
       id="path-effect9-9"
       is_visible="true"
       lpeversion="1.2"
       lpesatellites=""
       mode="free"
       discard_orig_path="false"
       fuse_paths="false"
       oposite_fuse="false"
       split_items="false"
       split_open="false"
       link_styles="false" /><inkscape:path-effect
       effect="mirror_symmetry"
       start_point="59.944658,10.409945"
       end_point="59.944658,50.039614"
       center_point="59.944658,30.22478"
       id="path-effect2-3"
       is_visible="true"
       lpeversion="1.2"
       lpesatellites=""
       mode="free"
       discard_orig_path="false"
       fuse_paths="false"
       oposite_fuse="false"
       split_items="false"
       split_open="false"
       link_styles="false" /><inkscape:path-effect
       effect="mirror_symmetry"
       start_point="59.948435,66.805114"
       end_point="59.948435,107.38004"
       center_point="59.948435,87.092577"
       id="path-effect8-6"
       is_visible="true"
       lpeversion="1.2"
       lpesatellites=""
       mode="free"
       discard_orig_path="false"
       fuse_paths="false"
       oposite_fuse="false"
       split_items="false"
       split_open="false"
       link_styles="false" /><inkscape:path-effect
       effect="mirror_symmetry"
       start_point="60.801511,9.4541705"
       end_point="60.801511,40.169132"
       center_point="60.801511,24.811651"
       id="path-effect7-0"
       is_visible="true"
       lpeversion="1.2"
       lpesatellites=""
       mode="free"
       discard_orig_path="false"
       fuse_paths="false"
       oposite_fuse="false"
       split_items="false"
       split_open="false"
       link_styles="false" /><inkscape:path-effect
       effect="fillet_chamfer"
       id="path-effect13-6"
       is_visible="true"
       lpeversion="1"
       nodesatellites_param="F,0,0,1,0,4.7467821,0,1 @ F,0,0,1,0,4.0515277,0,1 @ F,0,0,1,0,0,0,1 @ F,0,0,1,0,2.4219461,0,1 @ F,0,0,1,0,2.4960577,0,1 @ F,0,0,1,0,0,0,1 @ F,0,0,1,0,4.1062831,0,1"
       radius="0"
       unit="px"
       method="auto"
       mode="F"
       chamfer_steps="1"
       flexible="false"
       use_knot_distance="true"
       apply_no_radius="true"
       apply_with_radius="true"
       only_selected="false"
       hide_knots="false" /><inkscape:path-effect
       effect="fillet_chamfer"
       id="path-effect12-2"
       is_visible="true"
       lpeversion="1"
       nodesatellites_param="F,0,0,1,0,0,0,1 @ F,0,0,1,0,0,0,1 @ F,0,0,1,0,0,0,1 @ F,0,0,1,0,0,0,1 @ F,0,0,1,0,3.627665,0,1 @ F,0,0,1,0,0,0,1 @ F,0,0,1,0,0,0,1"
       radius="0"
       unit="px"
       method="auto"
       mode="F"
       chamfer_steps="1"
       flexible="false"
       use_knot_distance="true"
       apply_no_radius="true"
       apply_with_radius="true"
       only_selected="false"
       hide_knots="false" /><inkscape:path-effect
       effect="fillet_chamfer"
       id="path-effect11-6"
       is_visible="true"
       lpeversion="1"
       nodesatellites_param="F,0,0,1,0,2.9729248,0,1 @ F,0,0,1,0,3.8975858,0,1 @ F,0,0,1,0,0,0,1 @ F,0,1,1,0,3.784373,0,1 @ F,0,0,1,0,1.4792147,0,1 @ F,0,0,1,0,0,0,1 @ F,0,0,1,0,3.784373,0,1"
       radius="0"
       unit="px"
       method="auto"
       mode="F"
       chamfer_steps="1"
       flexible="false"
       use_knot_distance="true"
       apply_no_radius="true"
       apply_with_radius="true"
       only_selected="false"
       hide_knots="false" /><inkscape:path-effect
       effect="fillet_chamfer"
       id="path-effect1-2"
       is_visible="true"
       lpeversion="1"
       nodesatellites_param="F,0,0,1,0,24.536157,0,1 @ F,0,0,1,0,24.004899,0,1 @ F,0,0,1,0,23.651152,0,1 @ F,0,0,1,0,24.380791,0,1"
       radius="0"
       unit="px"
       method="auto"
       mode="F"
       chamfer_steps="1"
       flexible="false"
       use_knot_distance="true"
       apply_no_radius="true"
       apply_with_radius="true"
       only_selected="false"
       hide_knots="false" /><filter
       id="b-3"
       width="1.216"
       height="1.216"
       x="-0.108"
       y="-0.108"
       color-interpolation-filters="sRGB"><feGaussianBlur
         stdDeviation="1.35"
         id="feGaussianBlur2-7" /></filter><linearGradient
       inkscape:collect="always"
       xlink:href="#linearGradient1"
       id="linearGradient11"
       x1="13.258252"
       y1="16.61701"
       x2="106.06602"
       y2="103.94469"
       gradientUnits="userSpaceOnUse" /></defs><g
     inkscape:groupmode="layer"
     id="layer3"
     inkscape:label="base"><path
       d="m 76.476937,9.2332248 c 32.063223,0 37.852423,6.6798392 37.852423,38.7430672 v 24.938066 c 0,31.172592 -5.7892,37.852422 -37.852423,37.852422 H 43.523063 c -32.063227,0 -37.8524214,-6.67983 -37.8524214,-37.852422 V 47.976292 c 0,-32.063228 5.7891944,-38.7430672 37.8524214,-38.7430672 z"
       fill="#ebdbb2"
       style="display:inline;opacity:1;isolation:isolate;stroke-width:0.445323;fill:url(#linearGradient11);fill-opacity:1"
       id="path5" /><g
       id="g1"
       transform="translate(107.8803,-1.8711592)"><g
         id="layer1"
         inkscape:label="Layer 3"
         transform="translate(-109.27244,0.52327137)"><path
           id="path1"
           style="fill:#bc9816;fill-opacity:1;fill-rule:evenodd;stroke:#000000;stroke-width:0.7;stroke-dasharray:none;stroke-opacity:1"
           d="m 61.88362,25.627599 c -6.793964,-0.05352 -18.718152,0.0047 -24.679688,0.0332 -5.961535,0.02846 -5.961084,0.02793 -5.990234,0.02148 -0.02915,-0.0064 -0.08781,-0.01918 -0.146484,-0.01758 -0.05868,0.0016 -0.11786,0.01699 -0.212891,0.03711 -0.09503,0.02012 -0.226553,0.04455 -0.388672,0.109375 -0.162118,0.06482 -0.353805,0.17022 -0.539062,0.31836 -0.185257,0.148139 -0.363011,0.339178 -0.5625,0.605468 -0.199489,0.266291 -0.422241,0.607837 -0.513672,1.082032 -0.09143,0.474194 -0.052,1.081075 0.03516,1.585937 0.08715,0.504862 0.223657,0.907437 0.445313,1.234375 0.221655,0.326939 0.528664,0.577642 0.898437,0.726563 0.369773,0.148921 0.801454,0.19691 1.207031,0.232422 0.405578,0.03551 0.784291,0.05801 1.203125,0.09961 0.418834,0.0416 0.877069,0.102611 1.3125,0.177734 0.435432,0.07512 0.848126,0.164859 1.28711,0.333985 0.438984,0.169125 0.905274,0.41753 1.255859,0.660156 0.350585,0.242626 0.586612,0.480132 0.740234,0.703125 0.153623,0.222992 0.225436,0.429855 0.291016,0.644531 0.06558,0.214677 0.124015,0.436727 0.152344,8.490235 0.02833,8.053507 0.02622,23.938112 0.04102,32.640625 0.01479,8.702512 0.04772,10.222958 0.03516,11.308593 -0.01257,1.085636 -0.07142,1.737606 -0.189453,2.179688 -0.118037,0.442082 -0.29544,0.673901 -0.472657,0.876953 -0.177217,0.203052 -0.353914,0.377131 -0.779297,0.574219 -0.425382,0.197087 -1.099944,0.416138 -1.679687,0.542968 -0.579743,0.126831 -1.064634,0.160857 -1.625,0.214844 -0.560366,0.05399 -1.195369,0.128296 -1.679688,0.259766 -0.484318,0.13147 -0.817743,0.319921 -1.080078,0.8125 -0.262334,0.492579 -0.455091,1.290413 -0.539062,1.916015 -0.08397,0.625603 -0.05946,1.07987 0.0098,1.455079 0.06923,0.375208 0.183782,0.671375 0.408204,0.925781 0.224422,0.254405 0.557928,0.46761 0.90625,0.580078 0.348321,0.112468 0.710569,0.124426 6.958984,0.05078 6.248415,-0.07364 18.38364,-0.234588 25.0625,-0.339844 6.67886,-0.105255 7.900924,-0.155322 9.21875,-0.3125 1.317826,-0.157178 2.731485,-0.421335 4.001953,-0.753906 1.270468,-0.332571 2.39849,-0.734396 3.271484,-1.05664 0.872996,-0.322245 1.490974,-0.564905 2.363282,-1 0.872308,-0.435096 1.998886,-1.062784 2.847656,-1.572266 0.84877,-0.509482 1.419227,-0.89941 2.152344,-1.552734 0.733117,-0.653324 1.629107,-1.568675 2.226562,-2.279297 0.597455,-0.710622 0.896816,-1.217869 1.382813,-2.048828 0.485997,-0.83096 1.158918,-1.985784 1.673828,-3.171875 0.51491,-1.186092 0.871411,-2.401836 1.15625,-3.509766 0.284839,-1.10793 0.498078,-2.109317 0.585937,-3.056641 0.08786,-0.947324 0.05088,-1.842014 -0.02148,-2.822265 -0.07236,-0.980251 -0.181639,-2.044928 -0.369141,-3.119141 -0.187501,-1.074213 -0.454222,-2.157417 -0.796875,-3.097656 -0.342652,-0.94024 -0.760066,-1.737688 -1.232422,-2.539063 -0.472354,-0.801375 -0.999204,-1.606013 -1.74414,-2.488281 -0.744937,-0.882268 -1.707318,-1.843044 -2.548828,-2.576172 -0.841511,-0.733127 -1.562233,-1.23847 -2.269532,-1.669922 -0.707298,-0.431451 -1.402182,-0.788062 -1.923828,-1.039062 -0.521646,-0.251 -0.868962,-0.396159 -1.052734,-0.513672 -0.183772,-0.117513 -0.204366,-0.207326 -0.154297,-0.28125 0.05007,-0.07392 0.169136,-0.132207 0.380859,-0.248047 0.211725,-0.11584 0.516859,-0.288624 1.035157,-0.755859 0.518298,-0.467236 1.25103,-1.228687 1.980468,-2.101563 0.729439,-0.872876 1.455103,-1.858553 2.025391,-2.976562 0.570288,-1.118009 0.984983,-2.36925 1.318359,-3.451172 0.333377,-1.081922 0.5858,-1.993271 0.615235,-3.240235 0.02944,-1.246963 -0.164212,-2.828291 -0.365235,-4.068359 C 88.612336,38.16096 88.404209,37.262323 88.116093,36.4772 87.827977,35.692076 87.46004,35.019426 86.89539,34.225247 86.33074,33.431068 85.569775,32.514073 84.651249,31.676419 83.732723,30.838765 82.655526,30.079874 81.38953,29.381497 80.123535,28.68312 78.668848,28.046848 77.073124,27.494778 75.477401,26.942708 73.741847,26.475879 72.041874,26.160794 70.341902,25.845708 68.677635,25.681106 61.883671,25.627591 Z m -1.220703,6.636718 c 2.541121,-0.03216 3.421887,0.04753 4.132812,0.0957 0.710926,0.04818 1.251507,0.06497 2.095703,0.199219 0.844198,0.134248 1.992351,0.385643 2.97461,0.689453 0.982259,0.30381 1.798436,0.659629 2.539062,1.107422 0.740627,0.447793 1.405621,0.987538 2.011719,1.589844 0.606098,0.602306 1.153128,1.26743 1.548828,1.919922 0.3957,0.652492 0.638979,1.29295 0.824219,2.019531 0.18524,0.726582 0.313504,1.538954 0.378906,2.191406 0.0654,0.652453 0.06879,1.143813 0.02734,1.777344 -0.04144,0.633531 -0.129534,1.409938 -0.318359,2.136719 -0.188826,0.72678 -0.478315,1.404513 -0.873047,2.050781 -0.394732,0.646268 -0.892791,1.260327 -1.455078,1.775391 -0.562288,0.515063 -1.188359,0.93155 -1.804688,1.285156 -0.616329,0.353606 -1.223657,0.645193 -1.746094,0.841797 -0.522436,0.196603 -0.960755,0.297887 -1.435547,0.373047 -0.47479,0.07516 -0.985911,0.123502 -1.613281,0.166015 -0.62737,0.04251 -1.369772,0.07845 -4.171875,0.107422 -2.802102,0.02897 -7.663331,0.05093 -10.205078,0.0918 -2.541747,0.04087 -2.765198,0.102197 -2.978516,0.160156 -0.213317,0.05796 -0.417507,0.113741 -0.615234,0.220703 -0.197727,0.106963 -0.389384,0.263782 -0.476562,0.271485 -0.08718,0.0077 -0.06862,-0.135001 -0.07031,-3.628906 -0.0017,-3.493906 -0.02346,-10.337838 0.02148,-13.75 0.03802,-2.886511 0.128895,-3.321067 0.1875,-3.378907 5.23e-4,-3.2e-4 0.0047,-0.0031 0.0059,-0.0039 h 0.002 0.002 0.002 c 9.6e-4,-3e-5 0.0049,-5.7e-5 0.0059,0 h 0.002 0.002 v 0.002 h 0.002 c 0.05504,0.01025 0.05391,0.0094 2.154297,-0.0625 2.100385,-0.07187 6.302628,-0.215888 8.84375,-0.248047 z M 49.614089,58.744786 c 0.01793,-9.7e-4 0.03725,0.0048 0.05859,0.01367 0.195128,0.08085 0.53977,0.42694 0.820313,0.654297 0.280543,0.227356 0.496796,0.336087 0.738281,0.410156 0.241486,0.07407 0.507625,0.112374 2.853516,0.109375 2.345891,-0.003 6.771779,-0.04752 9.318359,-0.05273 2.546581,-0.0052 3.212971,0.03005 3.84961,0.08398 0.636638,0.05393 1.244233,0.126322 1.990234,0.261719 0.746001,0.135397 1.630283,0.333179 2.435547,0.599609 0.805264,0.26643 1.53153,0.601171 2.101562,0.900391 0.570032,0.29922 0.984568,0.563024 1.455078,0.880859 0.470511,0.317835 0.996954,0.689983 1.587891,1.259766 0.590938,0.569783 1.245582,1.337775 1.695313,1.947265 0.44973,0.609491 0.693038,1.061545 0.898437,1.466797 0.205399,0.405252 0.37405,0.762898 0.560547,1.230469 0.186497,0.467571 0.391373,1.044481 0.529297,1.513672 0.137923,0.469191 0.20856,0.831039 0.261719,1.322266 0.05316,0.491226 0.08912,1.111132 0.0918,2.076171 0.0027,0.96504 -0.02776,2.275964 -0.08789,3.242188 -0.06013,0.966224 -0.149899,1.587806 -0.330078,2.232422 -0.18018,0.644616 -0.451188,1.31175 -0.900391,2.195312 -0.449202,0.883563 -1.077126,1.984033 -1.837891,2.896485 -0.760764,0.912451 -1.654812,1.636128 -2.585937,2.24414 -0.931125,0.608013 -1.89891,1.099527 -2.583984,1.457032 -0.685075,0.357504 -1.087156,0.581731 -1.582032,0.796875 -0.494875,0.215143 -1.082856,0.422469 -1.904297,0.585937 -0.82144,0.163469 -1.875089,0.282121 -2.804687,0.328125 -0.929598,0.046 -1.734833,0.01968 -2.712891,-0.0078 -0.978057,-0.02749 -2.128821,-0.05649 -3.246093,-0.06445 -1.117272,-0.008 -2.200004,0.004 -3.291016,-0.05469 -1.091012,-0.05866 -2.19023,-0.186713 -3.003906,-0.347656 -0.813676,-0.160943 -1.343307,-0.354674 -1.882813,-0.669922 -0.539506,-0.315248 -1.090593,-0.752548 -1.421875,-1.146485 -0.331281,-0.393936 -0.442016,-0.744957 -0.591797,-1.693359 -0.14978,-0.948402 -0.338571,-2.494306 -0.443359,-3.974609 -0.104788,-1.480304 -0.125871,-2.89338 -0.15625,-6.615235 -0.03038,-3.721855 -0.07015,-9.752763 -0.06641,-12.859375 0.0033,-2.766826 0.04153,-3.214758 0.1875,-3.222656 z" /></g></g></g></svg>
