<?xml version="1.0" encoding="UTF-8" standalone="no"?>
<!-- Created with Inkscape (http://www.inkscape.org/) -->

<svg
   width="120"
   height="120"
   viewBox="0 0 120 120"
   version="1.1"
   id="svg1"
   xml:space="preserve"
   inkscape:version="1.4.1 (93de688d07, 2025-03-30)"
   sodipodi:docname="mcc.svg"
   xmlns:inkscape="http://www.inkscape.org/namespaces/inkscape"
   xmlns:sodipodi="http://sodipodi.sourceforge.net/DTD/sodipodi-0.dtd"
   xmlns="http://www.w3.org/2000/svg"
   xmlns:svg="http://www.w3.org/2000/svg"><sodipodi:namedview
     id="namedview1"
     pagecolor="#1f1f1f"
     bordercolor="#000000"
     borderopacity="0.25"
     inkscape:showpageshadow="2"
     inkscape:pageopacity="0.0"
     inkscape:pagecheckerboard="0"
     inkscape:deskcolor="#3c3c3c"
     inkscape:document-units="px"
     inkscape:zoom="5.6568543"
     inkscape:cx="67.35192"
     inkscape:cy="50.116193"
     inkscape:window-width="2047"
     inkscape:window-height="1287"
     inkscape:window-x="0"
     inkscape:window-y="0"
     inkscape:window-maximized="1"
     inkscape:current-layer="layer3" /><defs
     id="defs1"><inkscape:path-effect
       effect="bspline"
       id="path-effect14"
       is_visible="true"
       lpeversion="1.3"
       weight="33.333333"
       steps="2"
       helper_size="0"
       apply_no_weight="true"
       apply_with_weight="true"
       only_selected="false"
       uniform="false" /><inkscape:path-effect
       effect="fillet_chamfer"
       id="path-effect5"
       is_visible="true"
       lpeversion="1"
       nodesatellites_param="F,0,0,1,0,37.022737,0,1 @ F,0,0,1,0,36.062445,0,1 @ F,0,0,1,0,35.528974,0,1 @ F,0,0,1,0,28.991378,0,1"
       radius="0"
       unit="px"
       method="auto"
       mode="F"
       chamfer_steps="1"
       flexible="false"
       use_knot_distance="true"
       apply_no_radius="true"
       apply_with_radius="true"
       only_selected="false"
       hide_knots="false" /><inkscape:path-effect
       effect="bspline"
       id="path-effect4"
       is_visible="true"
       lpeversion="1.3"
       weight="33.333333"
       steps="2"
       helper_size="0"
       apply_no_weight="true"
       apply_with_weight="true"
       only_selected="false"
       uniform="false" /><inkscape:path-effect
       effect="bspline"
       id="path-effect3"
       is_visible="true"
       lpeversion="1.3"
       weight="33.333333"
       steps="2"
       helper_size="0"
       apply_no_weight="true"
       apply_with_weight="true"
       only_selected="false"
       uniform="false" /><inkscape:path-effect
       effect="mirror_symmetry"
       start_point="59.977887,81.781355"
       end_point="59.977887,112.27285"
       center_point="59.977887,97.027103"
       id="path-effect9"
       is_visible="true"
       lpeversion="1.2"
       lpesatellites=""
       mode="free"
       discard_orig_path="false"
       fuse_paths="false"
       oposite_fuse="false"
       split_items="false"
       split_open="false"
       link_styles="false" /><inkscape:path-effect
       effect="mirror_symmetry"
       start_point="59.944658,10.409945"
       end_point="59.944658,50.039614"
       center_point="59.944658,30.22478"
       id="path-effect2"
       is_visible="true"
       lpeversion="1.2"
       lpesatellites=""
       mode="free"
       discard_orig_path="false"
       fuse_paths="false"
       oposite_fuse="false"
       split_items="false"
       split_open="false"
       link_styles="false" /><inkscape:path-effect
       effect="mirror_symmetry"
       start_point="59.948435,66.805114"
       end_point="59.948435,107.38004"
       center_point="59.948435,87.092577"
       id="path-effect8"
       is_visible="true"
       lpeversion="1.2"
       lpesatellites=""
       mode="free"
       discard_orig_path="false"
       fuse_paths="false"
       oposite_fuse="false"
       split_items="false"
       split_open="false"
       link_styles="false" /><inkscape:path-effect
       effect="mirror_symmetry"
       start_point="60.801511,9.4541705"
       end_point="60.801511,40.169132"
       center_point="60.801511,24.811651"
       id="path-effect7"
       is_visible="true"
       lpeversion="1.2"
       lpesatellites=""
       mode="free"
       discard_orig_path="false"
       fuse_paths="false"
       oposite_fuse="false"
       split_items="false"
       split_open="false"
       link_styles="false" /><inkscape:path-effect
       effect="fillet_chamfer"
       id="path-effect13"
       is_visible="true"
       lpeversion="1"
       nodesatellites_param="F,0,0,1,0,4.7467821,0,1 @ F,0,0,1,0,4.0515277,0,1 @ F,0,0,1,0,0,0,1 @ F,0,0,1,0,2.4219461,0,1 @ F,0,0,1,0,2.4960577,0,1 @ F,0,0,1,0,0,0,1 @ F,0,0,1,0,4.1062831,0,1"
       radius="0"
       unit="px"
       method="auto"
       mode="F"
       chamfer_steps="1"
       flexible="false"
       use_knot_distance="true"
       apply_no_radius="true"
       apply_with_radius="true"
       only_selected="false"
       hide_knots="false" /><inkscape:path-effect
       effect="fillet_chamfer"
       id="path-effect12"
       is_visible="true"
       lpeversion="1"
       nodesatellites_param="F,0,0,1,0,0,0,1 @ F,0,0,1,0,0,0,1 @ F,0,0,1,0,0,0,1 @ F,0,0,1,0,0,0,1 @ F,0,0,1,0,3.627665,0,1 @ F,0,0,1,0,0,0,1 @ F,0,0,1,0,0,0,1"
       radius="0"
       unit="px"
       method="auto"
       mode="F"
       chamfer_steps="1"
       flexible="false"
       use_knot_distance="true"
       apply_no_radius="true"
       apply_with_radius="true"
       only_selected="false"
       hide_knots="false" /><inkscape:path-effect
       effect="fillet_chamfer"
       id="path-effect11"
       is_visible="true"
       lpeversion="1"
       nodesatellites_param="F,0,0,1,0,2.9729248,0,1 @ F,0,0,1,0,3.8975858,0,1 @ F,0,0,1,0,0,0,1 @ F,0,1,1,0,3.784373,0,1 @ F,0,0,1,0,1.4792147,0,1 @ F,0,0,1,0,0,0,1 @ F,0,0,1,0,3.784373,0,1"
       radius="0"
       unit="px"
       method="auto"
       mode="F"
       chamfer_steps="1"
       flexible="false"
       use_knot_distance="true"
       apply_no_radius="true"
       apply_with_radius="true"
       only_selected="false"
       hide_knots="false" /><linearGradient
       id="linearGradient6"><stop
         style="stop-color:#c88500;stop-opacity:1;"
         offset="0.07163448"
         id="stop8" /><stop
         style="stop-color:#fff300;stop-opacity:1;"
         offset="1"
         id="stop9" /></linearGradient><linearGradient
       id="linearGradient6-1"><stop
         style="stop-color:#c88500;stop-opacity:1;"
         offset="0"
         id="stop6" /><stop
         style="stop-color:#fff300;stop-opacity:1;"
         offset="1"
         id="stop7" /></linearGradient><inkscape:path-effect
       effect="fillet_chamfer"
       id="path-effect1"
       is_visible="true"
       lpeversion="1"
       nodesatellites_param="F,0,0,1,0,24.536157,0,1 @ F,0,0,1,0,24.004899,0,1 @ F,0,0,1,0,23.651152,0,1 @ F,0,0,1,0,24.380791,0,1"
       radius="0"
       unit="px"
       method="auto"
       mode="F"
       chamfer_steps="1"
       flexible="false"
       use_knot_distance="true"
       apply_no_radius="true"
       apply_with_radius="true"
       only_selected="false"
       hide_knots="false" /><linearGradient
       id="a"
       x1="7.937"
       x2="7.937"
       y1="15.081"
       y2="1.852"
       gradientTransform="scale(3.7796)"
       gradientUnits="userSpaceOnUse"><stop
         offset="0"
         stop-color="#9b6f27"
         id="stop1" /><stop
         offset="1"
         stop-color="#d0ab6a"
         id="stop2" /></linearGradient><filter
       id="b"
       width="1.216"
       height="1.216"
       x="-0.108"
       y="-0.108"
       color-interpolation-filters="sRGB"><feGaussianBlur
         stdDeviation="1.35"
         id="feGaussianBlur2" /></filter><linearGradient
       id="linearGradient31"
       x1=".5002"
       x2=".5002"
       y2="1"
       gradientTransform="matrix(244,0,0,228,5.986,12)"
       gradientUnits="userSpaceOnUse"><stop
         stop-color="#ebdbb2"
         stop-opacity=".2"
         offset="0"
         id="stop1-5" /><stop
         stop-color="#ebdbb2"
         stop-opacity=".05"
         offset=".1"
         id="stop2-6" /><stop
         stop-opacity="0"
         offset=".7036"
         id="stop3" /><stop
         stop-opacity=".1"
         offset=".8975"
         id="stop4" /><stop
         stop-opacity=".2"
         offset="1"
         id="stop5" /></linearGradient><inkscape:path-effect
       effect="bspline"
       id="path-effect5-2"
       is_visible="true"
       lpeversion="1.3"
       weight="33.333333"
       steps="2"
       helper_size="0"
       apply_no_weight="true"
       apply_with_weight="true"
       only_selected="false"
       uniform="false" /><inkscape:path-effect
       effect="bspline"
       id="path-effect4-5"
       is_visible="true"
       lpeversion="1.3"
       weight="33.333333"
       steps="2"
       helper_size="0"
       apply_no_weight="true"
       apply_with_weight="true"
       only_selected="false"
       uniform="false" /><inkscape:path-effect
       effect="bspline"
       id="path-effect3-4"
       is_visible="true"
       lpeversion="1.3"
       weight="33.333333"
       steps="2"
       helper_size="0"
       apply_no_weight="true"
       apply_with_weight="true"
       only_selected="false"
       uniform="false" /><inkscape:path-effect
       effect="mirror_symmetry"
       start_point="59.977887,81.781355"
       end_point="59.977887,112.27285"
       center_point="59.977887,97.027103"
       id="path-effect9-7"
       is_visible="true"
       lpeversion="1.2"
       lpesatellites=""
       mode="free"
       discard_orig_path="false"
       fuse_paths="false"
       oposite_fuse="false"
       split_items="false"
       split_open="false"
       link_styles="false" /><inkscape:path-effect
       effect="mirror_symmetry"
       start_point="59.944658,10.409945"
       end_point="59.944658,50.039614"
       center_point="59.944658,30.22478"
       id="path-effect2-4"
       is_visible="true"
       lpeversion="1.2"
       lpesatellites=""
       mode="free"
       discard_orig_path="false"
       fuse_paths="false"
       oposite_fuse="false"
       split_items="false"
       split_open="false"
       link_styles="false" /><inkscape:path-effect
       effect="mirror_symmetry"
       start_point="59.948435,66.805114"
       end_point="59.948435,107.38004"
       center_point="59.948435,87.092577"
       id="path-effect8-4"
       is_visible="true"
       lpeversion="1.2"
       lpesatellites=""
       mode="free"
       discard_orig_path="false"
       fuse_paths="false"
       oposite_fuse="false"
       split_items="false"
       split_open="false"
       link_styles="false" /><inkscape:path-effect
       effect="mirror_symmetry"
       start_point="60.801511,9.4541705"
       end_point="60.801511,40.169132"
       center_point="60.801511,24.811651"
       id="path-effect7-3"
       is_visible="true"
       lpeversion="1.2"
       lpesatellites=""
       mode="free"
       discard_orig_path="false"
       fuse_paths="false"
       oposite_fuse="false"
       split_items="false"
       split_open="false"
       link_styles="false" /><inkscape:path-effect
       effect="fillet_chamfer"
       id="path-effect13-0"
       is_visible="true"
       lpeversion="1"
       nodesatellites_param="F,0,0,1,0,4.7467821,0,1 @ F,0,0,1,0,4.0515277,0,1 @ F,0,0,1,0,0,0,1 @ F,0,0,1,0,2.4219461,0,1 @ F,0,0,1,0,2.4960577,0,1 @ F,0,0,1,0,0,0,1 @ F,0,0,1,0,4.1062831,0,1"
       radius="0"
       unit="px"
       method="auto"
       mode="F"
       chamfer_steps="1"
       flexible="false"
       use_knot_distance="true"
       apply_no_radius="true"
       apply_with_radius="true"
       only_selected="false"
       hide_knots="false" /><inkscape:path-effect
       effect="fillet_chamfer"
       id="path-effect12-7"
       is_visible="true"
       lpeversion="1"
       nodesatellites_param="F,0,0,1,0,0,0,1 @ F,0,0,1,0,0,0,1 @ F,0,0,1,0,0,0,1 @ F,0,0,1,0,0,0,1 @ F,0,0,1,0,3.627665,0,1 @ F,0,0,1,0,0,0,1 @ F,0,0,1,0,0,0,1"
       radius="0"
       unit="px"
       method="auto"
       mode="F"
       chamfer_steps="1"
       flexible="false"
       use_knot_distance="true"
       apply_no_radius="true"
       apply_with_radius="true"
       only_selected="false"
       hide_knots="false" /><inkscape:path-effect
       effect="fillet_chamfer"
       id="path-effect11-8"
       is_visible="true"
       lpeversion="1"
       nodesatellites_param="F,0,0,1,0,2.9729248,0,1 @ F,0,0,1,0,3.8975858,0,1 @ F,0,0,1,0,0,0,1 @ F,0,1,1,0,3.784373,0,1 @ F,0,0,1,0,1.4792147,0,1 @ F,0,0,1,0,0,0,1 @ F,0,0,1,0,3.784373,0,1"
       radius="0"
       unit="px"
       method="auto"
       mode="F"
       chamfer_steps="1"
       flexible="false"
       use_knot_distance="true"
       apply_no_radius="true"
       apply_with_radius="true"
       only_selected="false"
       hide_knots="false" /><inkscape:path-effect
       effect="fillet_chamfer"
       id="path-effect1-3"
       is_visible="true"
       lpeversion="1"
       nodesatellites_param="F,0,0,1,0,24.536157,0,1 @ F,0,0,1,0,24.004899,0,1 @ F,0,0,1,0,23.651152,0,1 @ F,0,0,1,0,24.380791,0,1"
       radius="0"
       unit="px"
       method="auto"
       mode="F"
       chamfer_steps="1"
       flexible="false"
       use_knot_distance="true"
       apply_no_radius="true"
       apply_with_radius="true"
       only_selected="false"
       hide_knots="false" /><filter
       id="b-9"
       width="1.216"
       height="1.216"
       x="-0.108"
       y="-0.108"
       color-interpolation-filters="sRGB"><feGaussianBlur
         stdDeviation="1.35"
         id="feGaussianBlur2-2" /></filter></defs><g
     inkscape:groupmode="layer"
     id="layer3"
     inkscape:label="base"><path
       d="m 76.476937,9.2332248 c 32.063223,0 37.852423,6.6798392 37.852423,38.7430672 v 24.938066 c 0,31.172592 -5.7892,37.852422 -37.852423,37.852422 H 43.523063 c -32.063227,0 -37.8524214,-6.67983 -37.8524214,-37.852422 V 47.976292 c 0,-32.063228 5.7891944,-38.7430672 37.8524214,-38.7430672 z"
       fill="#ebdbb2"
       style="display:inline;opacity:1;isolation:isolate;stroke-width:0.445323;fill:#131b46;fill-opacity:1"
       id="path5" /><g
       id="g1"
       transform="matrix(0.83294535,0,0,0.83294535,8.7996987,10.16812)"><g
         id="layer2"
         inkscape:label="Layer 2"
         style="opacity:1"><path
           style="opacity:1;fill:#eeeeee;fill-opacity:0;stroke-width:0.965576"
           id="rect1"
           width="104.6141"
           height="104.75148"
           x="7.5219741"
           y="7.4503703"
           inkscape:path-effect="#path-effect1-3"
           sodipodi:type="rect"
           d="M 32.058131,7.4503703 H 88.131173 A 24.004899,24.004899 45 0 1 112.13607,31.455269 V 88.550698 A 23.651152,23.651152 135 0 1 88.48492,112.20185 H 31.902765 A 24.380791,24.380791 45 0 1 7.5219741,87.821059 V 31.986527 A 24.536157,24.536157 135 0 1 32.058131,7.4503703 Z"
           transform="translate(0.40694183)" /><g
           id="g5"><ellipse
             style="fill:#d79921;fill-opacity:1;stroke-width:13.239"
             id="path1"
             cx="51.80389"
             cy="59.150787"
             rx="9.4598169"
             ry="5.0094309" /><path
             style="fill:#d79921;fill-opacity:1;stroke-width:9.634"
             d="m 6.3854802,50.242744 c 0.6245085,-0.785258 1.886039,-2.268319 3.0314272,-3.458092 1.1453886,-1.189772 2.1745936,-2.086222 3.4220426,-2.97069 1.247449,-0.884468 2.713064,-1.756903 4.383779,-2.590561 1.670715,-0.833657 3.546427,-1.628489 5.309173,-2.279951 1.762746,-0.651462 3.412423,-1.159518 4.457713,-1.48075 1.04529,-0.321232 1.486142,-0.455624 1.751462,-0.546067 0.265319,-0.09044 0.355091,-0.136933 0.740431,-0.582815 0.385341,-0.445882 1.066219,-1.291121 1.565862,-1.7579 0.499642,-0.466779 0.818024,-0.555079 1.959343,-0.758632 1.141318,-0.203552 3.105488,-0.522342 4.943472,-0.79144 1.837984,-0.269098 3.549674,-0.488489 5.355763,-0.633252 1.80609,-0.144763 3.706469,-0.214891 6.144258,-0.26654 2.437788,-0.05165 5.412829,-0.08481 8.352945,-0.02849 2.940116,0.05632 5.845132,0.202128 8.5187,0.466722 2.673568,0.264595 5.115532,0.647961 8.219228,1.367793 3.103696,0.719832 6.868923,1.776081 9.726917,2.71129 2.857993,0.93521 4.808599,1.749325 6.966398,2.852177 2.157799,1.102852 4.522658,2.494369 6.407189,3.8017 1.88453,1.307331 3.288627,2.530399 4.485447,3.848475 1.19682,1.318076 2.18628,2.731071 2.92243,3.905266 0.73615,1.174195 1.21893,2.109514 1.56744,2.741172 0.34851,0.631658 0.56273,0.959624 0.71094,1.194011 0.14822,0.234388 0.23043,0.375198 0.36822,0.517605 0.13778,0.142407 0.33114,0.286412 0.82032,0.365941 0.48919,0.07953 1.27418,0.09458 2.73844,0.09815 1.46427,0.0036 3.60771,-0.0044 4.68247,-0.0068 1.07475,-0.0024 1.08095,8.17e-4 1.08398,0.0098 0.003,0.009 0.003,0.02371 0.003,0.933819 0,0.910108 0,2.715502 -0.002,3.617316 -0.002,0.901813 -0.005,0.899603 -0.011,0.898659 -0.006,-9.44e-4 -0.0139,-9.44e-4 -1.3995,-0.0097 -1.38558,-0.0087 -4.14842,-0.0262 -5.60477,-0.03494 -1.45635,-0.0087 -1.60614,-0.0087 -1.72924,-0.002 -0.1231,0.0068 -0.21942,0.02033 -0.53744,0.334848 -0.31801,0.314521 -0.85766,0.92999 -1.32268,1.59894 -0.46503,0.668949 -0.8554,1.391336 -1.53068,2.36727 -0.67529,0.975934 -1.63544,2.205351 -2.60072,3.300161 -0.96528,1.09481 -1.93564,2.054954 -3.012056,2.972505 -1.076418,0.917551 -2.258837,1.792461 -3.538486,2.640324 -1.27965,0.847863 -2.656452,1.668629 -4.254902,2.495452 -1.598451,0.826822 -3.41845,1.659653 -5.155411,2.320386 -1.736961,0.660732 -3.390782,1.149332 -5.331921,1.657664 -1.94114,0.508332 -4.169475,1.036365 -5.958816,1.405749 -1.78934,0.369384 -3.139587,0.580101 -4.820414,0.786236 -1.680828,0.206134 -3.692128,0.407674 -6.035729,0.534318 -2.343601,0.126644 -5.019354,0.178387 -7.616511,0.242541 -2.597156,0.06415 -5.115562,0.140718 -6.667062,0.190186 -1.5515,0.04947 -2.13602,0.07184 -2.494786,0.03904 -0.358766,-0.03279 -0.491761,-0.12075 -1.00128,-0.56212 -0.509518,-0.441371 -1.395522,-1.236121 -1.946482,-1.677953 -0.55096,-0.441832 -0.766847,-0.530724 -1.672534,-0.653415 -0.905687,-0.12269 -2.501104,-0.279171 -4.24532,-0.467069 -1.744216,-0.187898 -3.637123,-0.407202 -5.242682,-0.698504 -1.605559,-0.291303 -2.923679,-0.654585 -3.702168,-0.888725 -0.778489,-0.234141 -1.01731,-0.339128 -1.136423,-0.454352 -0.119113,-0.115224 -0.118513,-0.240677 -0.100965,-1.009439 0.01755,-0.768762 0.05204,-2.180775 0.07304,-3.002974 0.021,-0.822199 0.0285,-1.054547 0.04833,-1.206467 0.01983,-0.15192 0.05199,-0.223407 0.116613,-0.262834 0.06462,-0.03943 0.161674,-0.04679 0.655756,0.04462 0.494083,0.09141 1.385147,0.281598 3.322126,0.556751 1.93698,0.275154 4.919738,0.635258 7.646551,0.952258 2.726814,0.316999 5.197526,0.590876 7.904375,0.709098 2.706849,0.118222 5.649668,0.08079 8.615454,-0.13269 2.965786,-0.213476 5.954361,-0.602974 9.087874,-1.22591 3.133513,-0.622936 6.411774,-1.479269 9.201625,-2.450275 2.789851,-0.971006 5.091135,-2.056626 6.834888,-3.009572 1.743754,-0.952945 2.929882,-1.773162 3.971111,-2.609027 1.041229,-0.835865 1.937499,-1.687327 2.605859,-2.442791 0.668361,-0.755464 1.108776,-1.414885 1.417116,-2.124591 0.308339,-0.709706 0.484587,-1.469652 0.572713,-2.185712 0.08813,-0.71606 0.08813,-1.388193 0.04236,-1.933892 -0.04577,-0.5457 -0.137292,-0.964937 -0.356206,-1.548763 -0.218913,-0.583827 -0.565198,-1.332205 -1.004206,-2.135567 -0.439007,-0.803362 -0.97071,-1.661659 -1.613118,-2.429061 -0.642408,-0.767402 -1.395482,-1.443865 -2.418532,-2.201405 -1.023051,-0.757539 -2.316012,-1.596108 -3.584255,-2.315077 -1.268243,-0.718968 -2.511691,-1.318297 -4.234927,-1.969576 -1.723235,-0.65128 -3.926143,-1.35447 -5.957282,-1.877441 -2.031139,-0.52297 -3.89039,-0.865693 -5.826572,-1.113166 -1.936181,-0.247472 -3.949176,-0.399683 -6.031926,-0.5268 -2.08275,-0.127116 -4.235129,-0.229133 -7.297353,-0.202907 -3.062225,0.02623 -7.034092,0.180687 -10.230968,0.412876 -3.196877,0.232188 -5.618586,0.542087 -8.108416,1.04874 -2.48983,0.506653 -5.04763,1.210026 -7.033146,1.813588 -1.985517,0.603562 -3.398644,1.10728 -4.68551,1.672399 -1.286867,0.565119 -2.447399,1.191605 -3.593021,1.85979 -1.145623,0.668185 -2.276267,1.378028 -3.158153,2.04191 -0.881887,0.663881 -1.514968,1.281762 -2.111957,1.938874 -0.596989,0.657113 -1.157851,1.353417 -1.505738,1.81649 -0.347886,0.463073 -0.482782,0.692892 -0.593668,0.833017 -0.110885,0.140126 -0.197746,0.190546 -0.338166,0.185002 -0.140419,-0.0055 -0.334402,-0.06706 -0.634298,-0.280085 C 9.8512375,54.333942 9.4454508,53.969419 8.7002661,53.386817 7.9550814,52.804214 6.8705506,52.003572 6.3220174,51.559513 5.7734843,51.115455 5.7609717,51.028002 6.3854802,50.242744 Z"
             id="path2"
             inkscape:path-effect="#path-effect5-2"
             inkscape:original-d="m 5.7484587,50.940546 c 1.2615302,-1.48306 2.5230604,-2.966121 3.7845905,-4.449181 1.0292468,-0.896485 2.0584518,-1.792935 3.0876768,-2.689402 1.465673,-0.87247 2.931288,-1.744904 4.396932,-2.617356 1.875786,-0.794863 3.751498,-1.589695 5.627247,-2.384542 1.649743,-0.508077 3.29942,-1.016133 4.94913,-1.5242 0.44087,-0.134397 0.881722,-0.268789 1.322583,-0.403183 0.08978,-0.04649 0.179551,-0.09298 0.269326,-0.139474 0.680905,-0.845272 1.361783,-1.690511 2.042675,-2.535766 0.318394,-0.0883 0.636775,-0.176604 0.955162,-0.264905 1.96425,-0.318803 3.92842,-0.637593 5.89263,-0.95639 1.711758,-0.219399 3.423448,-0.43879 5.135172,-0.658185 1.900455,-0.07013 3.800834,-0.140259 5.701251,-0.210389 2.97516,-0.03317 5.950201,-0.06633 8.925301,-0.0995 2.905132,0.145811 5.810148,0.291617 8.715222,0.437425 2.442062,0.383381 4.884026,0.766747 7.32604,1.15012 3.765378,1.056291 7.530605,2.11254 11.295908,3.16881 1.950684,0.814149 3.90129,1.628264 5.851934,2.442396 2.364954,1.391572 4.729813,2.783089 7.09472,4.174633 1.404154,1.223118 2.808251,2.446187 4.212381,3.669281 0.98951,1.413055 1.97897,2.826054 2.96846,4.239081 0.48281,0.935359 0.96559,1.870681 1.44839,2.806022 0.21422,0.327976 0.42844,0.65594 0.64266,0.98391 0.0822,0.14081 0.16442,0.281615 0.24663,0.422422 0.19336,0.144007 0.38672,0.288009 0.58007,0.432013 0.78502,0.01506 1.57001,0.03011 2.35501,0.04517 2.14353,-0.0079 4.28697,-0.01585 6.43045,-0.02378 0.006,0.0032 0.0122,0.0064 0.0183,0.0095 0,0.01475 0,0.02951 0,0.04426 0,1.805466 0,3.61086 0,5.416289 -0.003,-0.002 -0.007,-0.0039 -0.0102,-0.0059 -0.008,0 -0.0163,0 -0.0245,0 -2.76295,-0.01747 -5.52579,-0.03494 -8.28868,-0.05241 -0.14981,0 -0.2996,0 -0.4494,0 -0.0964,0.01355 -0.19272,0.0271 -0.28909,0.04066 -0.53966,0.615492 -1.07931,1.230959 -1.61897,1.846439 -0.39039,0.722416 -0.78076,1.444804 -1.17114,2.167206 -0.96019,1.229466 -1.92034,2.458883 -2.88051,3.688325 -0.97039,0.960179 -1.94075,1.920319 -2.911118,2.880479 -1.182466,0.874945 -2.364885,1.749854 -3.547327,2.624782 -1.376857,0.820798 -2.753659,1.641564 -4.130488,2.462347 -1.820072,0.832863 -3.640071,1.665694 -5.460106,2.49854 -1.653887,0.48862 -3.307708,0.977219 -4.961562,1.465829 -2.228425,0.528054 -4.45676,1.056087 -6.685141,1.58413 -1.3503,0.210725 -2.700547,0.421442 -4.05082,0.632163 -2.011382,0.201548 -4.022682,0.403088 -6.034024,0.604632 -2.67586,0.05174 -5.351613,0.103487 -8.027419,0.15523 -2.518507,0.07657 -5.036913,0.15313 -7.55537,0.229694 -0.584543,0.02237 -1.169063,0.04474 -1.753594,0.06711 -0.133001,-0.08796 -0.265996,-0.175915 -0.398994,-0.263873 -0.886039,-0.794783 -1.772043,-1.589534 -2.658065,-2.3843 -0.215897,-0.0889 -0.431785,-0.17779 -0.647678,-0.266684 -1.595481,-0.156487 -3.190898,-0.312967 -4.786347,-0.46945 -1.892983,-0.219313 -3.78589,-0.438617 -5.678835,-0.657925 -1.318173,-0.363297 -2.636293,-0.726578 -3.95444,-1.089868 -0.238831,-0.104992 -0.477652,-0.20998 -0.716478,-0.314969 5.88e-4,-0.125458 0.0012,-0.250911 0.0018,-0.376366 0.0345,-1.412069 0.06899,-2.824082 0.103483,-4.236123 0.0075,-0.232357 0.015,-0.464705 0.0225,-0.697057 0.03216,-0.07149 0.06433,-0.142974 0.09649,-0.214462 0.09707,-0.0074 0.194129,-0.01473 0.291194,-0.0221 0.8911,0.190192 1.782164,0.380376 2.673246,0.570565 2.982877,0.360118 5.965635,0.720223 8.948452,1.080335 2.47081,0.273887 4.941522,0.547764 7.412283,0.821646 2.942937,-0.03744 5.885756,-0.07487 8.828633,-0.112312 2.988695,-0.389514 5.97727,-0.779012 8.965904,-1.168518 3.278392,-0.856366 6.556653,-1.712699 9.834979,-2.569048 2.301376,-1.085663 4.60266,-2.171283 6.903991,-3.256925 1.186176,-0.820249 2.372304,-1.640466 3.558456,-2.460699 0.896306,-0.851497 1.792576,-1.702959 2.688864,-2.554439 0.440433,-0.659448 0.880848,-1.318869 1.321272,-1.978304 0.176255,-0.759977 0.352503,-1.519923 0.528755,-2.279884 0,-0.672159 0,-1.344292 0,-2.016438 -0.09153,-0.419253 -0.183057,-0.83849 -0.274585,-1.257734 -0.346299,-0.748409 -0.692584,-1.496787 -1.038876,-2.24518 -0.531723,-0.858331 -1.063426,-1.716628 -1.595139,-2.574942 -0.753103,-0.67649 -1.506176,-1.352954 -2.259265,-2.02943 -1.293013,-0.838602 -2.585974,-1.677171 -3.878961,-2.515756 -1.243499,-0.599352 -2.486947,-1.198681 -3.730421,-1.798021 -2.202997,-0.703219 -4.405905,-1.406409 -6.608858,-2.109614 -1.859325,-0.342736 -3.718576,-0.685459 -5.577864,-1.028188 -2.013075,-0.152217 -4.02607,-0.304427 -6.039105,-0.45664 -2.152465,-0.102021 -4.304844,-0.204037 -6.457267,-0.306055 -3.972026,0.154468 -7.943893,0.308931 -11.91584,0.463397 -2.421806,0.309911 -4.843515,0.61981 -7.265273,0.929715 -2.557902,0.703401 -5.115702,1.406774 -7.673553,2.110161 -1.413182,0.503737 -2.826309,1.007455 -4.239463,1.511182 -1.160579,0.626511 -2.321111,1.252997 -3.481667,1.879496 -1.130689,0.709871 -2.261333,1.419714 -3.392,2.129572 -0.633106,0.617905 -1.266187,1.235786 -1.899281,1.853679 -0.560884,0.696332 -1.121746,1.392636 -1.682618,2.088954 -0.134902,0.229828 -0.269798,0.459647 -0.404696,0.689471 -0.08687,0.05043 -0.173733,0.100847 -0.260599,0.15127 -0.19398,-0.06149 -0.38796,-0.123013 -0.581945,-0.184541 C 9.8512375,54.333942 9.4454509,53.969419 9.0396561,53.604889 7.9550815,52.804214 6.8705504,52.003572 5.7859976,51.202913 5.7734844,51.115455 5.7609716,51.028002 5.7484587,50.940546 Z" /></g></g><g
         id="layer1"
         inkscape:label="Layer 3" /></g></g></svg>
