<?xml version="1.0" encoding="UTF-8" standalone="no"?>
<!-- Created with Inkscape (http://www.inkscape.org/) -->

<svg
   width="120"
   height="120"
   viewBox="0 0 120 120"
   version="1.1"
   id="svg1"
   xml:space="preserve"
   inkscape:version="1.4.2 (ebf0e940d0, 2025-05-08)"
   sodipodi:docname="mullet.svg"
   xmlns:inkscape="http://www.inkscape.org/namespaces/inkscape"
   xmlns:sodipodi="http://sodipodi.sourceforge.net/DTD/sodipodi-0.dtd"
   xmlns="http://www.w3.org/2000/svg"
   xmlns:svg="http://www.w3.org/2000/svg"><sodipodi:namedview
     id="namedview1"
     pagecolor="#1f1f1f"
     bordercolor="#000000"
     borderopacity="0.25"
     inkscape:showpageshadow="2"
     inkscape:pageopacity="0.0"
     inkscape:pagecheckerboard="0"
     inkscape:deskcolor="#3c3c3c"
     inkscape:document-units="px"
     inkscape:zoom="5.6568543"
     inkscape:cx="67.440309"
     inkscape:cy="49.939416"
     inkscape:window-width="1660"
     inkscape:window-height="1287"
     inkscape:window-x="0"
     inkscape:window-y="0"
     inkscape:window-maximized="1"
     inkscape:current-layer="layer3" /><defs
     id="defs1"><inkscape:path-effect
       effect="bspline"
       id="path-effect14"
       is_visible="true"
       lpeversion="1.3"
       weight="33.333333"
       steps="2"
       helper_size="0"
       apply_no_weight="true"
       apply_with_weight="true"
       only_selected="false"
       uniform="false" /><inkscape:path-effect
       effect="fillet_chamfer"
       id="path-effect5"
       is_visible="true"
       lpeversion="1"
       nodesatellites_param="F,0,0,1,0,37.022737,0,1 @ F,0,0,1,0,36.062445,0,1 @ F,0,0,1,0,35.528974,0,1 @ F,0,0,1,0,28.991378,0,1"
       radius="0"
       unit="px"
       method="auto"
       mode="F"
       chamfer_steps="1"
       flexible="false"
       use_knot_distance="true"
       apply_no_radius="true"
       apply_with_radius="true"
       only_selected="false"
       hide_knots="false" /><inkscape:path-effect
       effect="bspline"
       id="path-effect4"
       is_visible="true"
       lpeversion="1.3"
       weight="33.333333"
       steps="2"
       helper_size="0"
       apply_no_weight="true"
       apply_with_weight="true"
       only_selected="false"
       uniform="false" /><inkscape:path-effect
       effect="bspline"
       id="path-effect3"
       is_visible="true"
       lpeversion="1.3"
       weight="33.333333"
       steps="2"
       helper_size="0"
       apply_no_weight="true"
       apply_with_weight="true"
       only_selected="false"
       uniform="false" /><inkscape:path-effect
       effect="mirror_symmetry"
       start_point="59.977887,81.781355"
       end_point="59.977887,112.27285"
       center_point="59.977887,97.027103"
       id="path-effect9"
       is_visible="true"
       lpeversion="1.2"
       lpesatellites=""
       mode="free"
       discard_orig_path="false"
       fuse_paths="false"
       oposite_fuse="false"
       split_items="false"
       split_open="false"
       link_styles="false" /><inkscape:path-effect
       effect="mirror_symmetry"
       start_point="59.944658,10.409945"
       end_point="59.944658,50.039614"
       center_point="59.944658,30.22478"
       id="path-effect2"
       is_visible="true"
       lpeversion="1.2"
       lpesatellites=""
       mode="free"
       discard_orig_path="false"
       fuse_paths="false"
       oposite_fuse="false"
       split_items="false"
       split_open="false"
       link_styles="false" /><inkscape:path-effect
       effect="mirror_symmetry"
       start_point="59.948435,66.805114"
       end_point="59.948435,107.38004"
       center_point="59.948435,87.092577"
       id="path-effect8"
       is_visible="true"
       lpeversion="1.2"
       lpesatellites=""
       mode="free"
       discard_orig_path="false"
       fuse_paths="false"
       oposite_fuse="false"
       split_items="false"
       split_open="false"
       link_styles="false" /><inkscape:path-effect
       effect="mirror_symmetry"
       start_point="60.801511,9.4541705"
       end_point="60.801511,40.169132"
       center_point="60.801511,24.811651"
       id="path-effect7"
       is_visible="true"
       lpeversion="1.2"
       lpesatellites=""
       mode="free"
       discard_orig_path="false"
       fuse_paths="false"
       oposite_fuse="false"
       split_items="false"
       split_open="false"
       link_styles="false" /><inkscape:path-effect
       effect="fillet_chamfer"
       id="path-effect13"
       is_visible="true"
       lpeversion="1"
       nodesatellites_param="F,0,0,1,0,4.7467821,0,1 @ F,0,0,1,0,4.0515277,0,1 @ F,0,0,1,0,0,0,1 @ F,0,0,1,0,2.4219461,0,1 @ F,0,0,1,0,2.4960577,0,1 @ F,0,0,1,0,0,0,1 @ F,0,0,1,0,4.1062831,0,1"
       radius="0"
       unit="px"
       method="auto"
       mode="F"
       chamfer_steps="1"
       flexible="false"
       use_knot_distance="true"
       apply_no_radius="true"
       apply_with_radius="true"
       only_selected="false"
       hide_knots="false" /><inkscape:path-effect
       effect="fillet_chamfer"
       id="path-effect12"
       is_visible="true"
       lpeversion="1"
       nodesatellites_param="F,0,0,1,0,0,0,1 @ F,0,0,1,0,0,0,1 @ F,0,0,1,0,0,0,1 @ F,0,0,1,0,0,0,1 @ F,0,0,1,0,3.627665,0,1 @ F,0,0,1,0,0,0,1 @ F,0,0,1,0,0,0,1"
       radius="0"
       unit="px"
       method="auto"
       mode="F"
       chamfer_steps="1"
       flexible="false"
       use_knot_distance="true"
       apply_no_radius="true"
       apply_with_radius="true"
       only_selected="false"
       hide_knots="false" /><inkscape:path-effect
       effect="fillet_chamfer"
       id="path-effect11"
       is_visible="true"
       lpeversion="1"
       nodesatellites_param="F,0,0,1,0,2.9729248,0,1 @ F,0,0,1,0,3.8975858,0,1 @ F,0,0,1,0,0,0,1 @ F,0,1,1,0,3.784373,0,1 @ F,0,0,1,0,1.4792147,0,1 @ F,0,0,1,0,0,0,1 @ F,0,0,1,0,3.784373,0,1"
       radius="0"
       unit="px"
       method="auto"
       mode="F"
       chamfer_steps="1"
       flexible="false"
       use_knot_distance="true"
       apply_no_radius="true"
       apply_with_radius="true"
       only_selected="false"
       hide_knots="false" /><linearGradient
       id="linearGradient6"><stop
         style="stop-color:#c88500;stop-opacity:1;"
         offset="0.07163448"
         id="stop8" /><stop
         style="stop-color:#fff300;stop-opacity:1;"
         offset="1"
         id="stop9" /></linearGradient><linearGradient
       id="linearGradient6-1"><stop
         style="stop-color:#c88500;stop-opacity:1;"
         offset="0"
         id="stop6" /><stop
         style="stop-color:#fff300;stop-opacity:1;"
         offset="1"
         id="stop7" /></linearGradient><inkscape:path-effect
       effect="fillet_chamfer"
       id="path-effect1"
       is_visible="true"
       lpeversion="1"
       nodesatellites_param="F,0,0,1,0,24.536157,0,1 @ F,0,0,1,0,24.004899,0,1 @ F,0,0,1,0,23.651152,0,1 @ F,0,0,1,0,24.380791,0,1"
       radius="0"
       unit="px"
       method="auto"
       mode="F"
       chamfer_steps="1"
       flexible="false"
       use_knot_distance="true"
       apply_no_radius="true"
       apply_with_radius="true"
       only_selected="false"
       hide_knots="false" /><linearGradient
       id="a"
       x1="7.937"
       x2="7.937"
       y1="15.081"
       y2="1.852"
       gradientTransform="scale(3.7796)"
       gradientUnits="userSpaceOnUse"><stop
         offset="0"
         stop-color="#9b6f27"
         id="stop1" /><stop
         offset="1"
         stop-color="#d0ab6a"
         id="stop2" /></linearGradient><filter
       id="b"
       width="1.216"
       height="1.216"
       x="-0.108"
       y="-0.108"
       color-interpolation-filters="sRGB"><feGaussianBlur
         stdDeviation="1.35"
         id="feGaussianBlur2" /></filter><linearGradient
       id="linearGradient31"
       x1=".5002"
       x2=".5002"
       y2="1"
       gradientTransform="matrix(244,0,0,228,5.986,12)"
       gradientUnits="userSpaceOnUse"><stop
         stop-color="#ebdbb2"
         stop-opacity=".2"
         offset="0"
         id="stop1-5" /><stop
         stop-color="#ebdbb2"
         stop-opacity=".05"
         offset=".1"
         id="stop2-6" /><stop
         stop-opacity="0"
         offset=".7036"
         id="stop3" /><stop
         stop-opacity=".1"
         offset=".8975"
         id="stop4" /><stop
         stop-opacity=".2"
         offset="1"
         id="stop5" /></linearGradient><inkscape:path-effect
       effect="bspline"
       id="path-effect3-7"
       is_visible="true"
       lpeversion="1.3"
       weight="33.333333"
       steps="2"
       helper_size="0"
       apply_no_weight="true"
       apply_with_weight="true"
       only_selected="false"
       uniform="false" /><inkscape:path-effect
       effect="bspline"
       id="path-effect4-5"
       is_visible="true"
       lpeversion="1.3"
       weight="33.333333"
       steps="2"
       helper_size="0"
       apply_no_weight="true"
       apply_with_weight="true"
       only_selected="false"
       uniform="false" /><inkscape:path-effect
       effect="bspline"
       id="path-effect6"
       is_visible="true"
       lpeversion="1.3"
       weight="33.333333"
       steps="2"
       helper_size="0"
       apply_no_weight="true"
       apply_with_weight="true"
       only_selected="false"
       uniform="false" /><inkscape:path-effect
       effect="bspline"
       id="path-effect5-3"
       is_visible="true"
       lpeversion="1.3"
       weight="33.333333"
       steps="2"
       helper_size="0"
       apply_no_weight="true"
       apply_with_weight="true"
       only_selected="false"
       uniform="false" /><inkscape:path-effect
       effect="bspline"
       id="path-effect10"
       is_visible="true"
       lpeversion="1.3"
       weight="33.333333"
       steps="2"
       helper_size="0"
       apply_no_weight="true"
       apply_with_weight="true"
       only_selected="false"
       uniform="false" /><inkscape:path-effect
       effect="bspline"
       id="path-effect14-5"
       is_visible="true"
       lpeversion="1.3"
       weight="33.333333"
       steps="2"
       helper_size="0"
       apply_no_weight="true"
       apply_with_weight="true"
       only_selected="false"
       uniform="false" /><inkscape:path-effect
       effect="bspline"
       id="path-effect15"
       is_visible="true"
       lpeversion="1.3"
       weight="33.333333"
       steps="2"
       helper_size="0"
       apply_no_weight="true"
       apply_with_weight="true"
       only_selected="false"
       uniform="false" /><inkscape:path-effect
       effect="bspline"
       id="path-effect16"
       is_visible="true"
       lpeversion="1.3"
       weight="33.333333"
       steps="2"
       helper_size="0"
       apply_no_weight="true"
       apply_with_weight="true"
       only_selected="false"
       uniform="false" /><inkscape:path-effect
       effect="bspline"
       id="path-effect17"
       is_visible="true"
       lpeversion="1.3"
       weight="33.333333"
       steps="2"
       helper_size="0"
       apply_no_weight="true"
       apply_with_weight="true"
       only_selected="false"
       uniform="false" /></defs><g
     inkscape:groupmode="layer"
     id="layer3"
     inkscape:label="base"><path
       d="m 76.476937,9.2332248 c 32.063223,0 37.852423,6.6798392 37.852423,38.7430672 v 24.938066 c 0,31.172592 -5.7892,37.852422 -37.852423,37.852422 H 43.523063 c -32.063227,0 -37.8524214,-6.67983 -37.8524214,-37.852422 V 47.976292 c 0,-32.063228 5.7891944,-38.7430672 37.8524214,-38.7430672 z"
       fill="#ebdbb2"
       style="display:inline;opacity:1;isolation:isolate;stroke-width:0.445323;fill:#ff42b7;fill-opacity:1"
       id="path5" /><g
       inkscape:groupmode="layer"
       id="layer1"
       inkscape:label="Layer 3"
       transform="matrix(1.2384013,0,0,1.2384013,-15.956226,-15.942082)"
       style="display:inline"><path
         style="display:inline;opacity:1;fill:#000000;fill-opacity:1;fill-rule:evenodd;stroke-width:2"
         d="m 48.894999,23.440444 c -0.114373,0.378201 -0.343118,1.134605 -0.546974,1.570177 -0.203856,0.435572 -0.382814,0.550309 -0.772386,0.830064 -0.389572,0.279755 -0.989729,0.724509 -1.298274,0.99594 -0.308545,0.271431 -0.325465,0.369525 -0.387922,0.980427 -0.06246,0.610901 -0.170447,1.734562 -0.248163,2.323573 -0.07772,0.589011 -0.125159,0.643352 -0.429959,0.405745 -0.304801,-0.237607 -0.866936,-0.767142 -1.732145,-1.575355 -0.865209,-0.808212 -2.033435,-1.895049 -2.65533,-2.434837 -0.621896,-0.539788 -0.69744,-0.532504 -0.766132,-0.454914 -0.06869,0.07759 -0.130528,0.225483 0.105505,1.516091 0.236034,1.290607 0.769919,3.72383 1.036866,4.986981 0.266948,1.26315 0.266948,1.356184 0.202239,1.374724 -0.06471,0.01854 -0.194121,-0.03741 -0.683975,-0.516314 -0.489855,-0.478905 -1.340114,-1.380729 -1.817267,-1.821589 -0.477153,-0.440859 -0.58118,-0.420737 -0.645653,-0.366899 -0.06447,0.05384 -0.08939,0.141377 0.615777,1.078368 0.705166,0.936991 2.140358,2.723355 2.866134,3.638905 0.725775,0.91555 0.742105,0.96025 0.699264,0.964277 -0.04284,0.004 -0.144855,-0.03262 -0.522586,-0.186315 -0.377731,-0.153699 -1.031155,-0.424443 -1.318218,-0.492285 -0.287063,-0.06784 -0.207754,0.06722 0.20356,1.086267 0.411313,1.019046 1.154599,2.921995 1.494279,3.894525 0.339681,0.972529 0.275751,1.014596 0.02651,1.170662 -0.249243,0.156066 -0.68378,0.426119 -0.883089,0.586029 -0.199309,0.15991 -0.163377,0.209679 0.117797,0.380745 0.281174,0.171066 0.807575,0.463425 1.07613,0.662131 0.268555,0.198705 0.279251,0.303746 0.276253,0.579947 -0.003,0.276202 -0.01969,0.723545 -0.115192,1.099233 -0.0955,0.375687 -0.2698,0.679699 -0.606826,0.938832 -0.337027,0.259132 -0.836756,0.473371 -1.109185,0.58974 -0.27243,0.116368 -0.317552,0.134863 -0.340109,0.156989 -0.02256,0.02213 -0.02256,0.04788 0.159355,0.254919 0.181912,0.207042 0.545721,0.595351 0.734345,0.802564 0.188623,0.207213 0.202051,0.233315 0.199395,0.260179 -0.0027,0.02686 -0.0214,0.05449 -0.317158,0.08645 -0.295758,0.03197 -0.868509,0.06828 -1.173808,0.08901 -0.3053,0.02073 -0.343123,0.02588 -0.362171,0.04197 -0.01905,0.01609 -0.01932,0.04311 2.4e-4,0.09093 0.01956,0.04782 0.05895,0.116424 0.27893,0.626422 0.219981,0.509999 0.620543,1.461356 0.853293,1.979804 0.232751,0.518448 0.297681,0.603964 0.538248,0.88801 0.240568,0.284047 0.656754,0.766603 0.869282,1.028864 0.212528,0.262262 0.221388,0.304214 -0.0373,0.559403 -0.258691,0.25519 -0.784912,0.7236 -1.070137,0.97991 -0.285225,0.256311 -0.329437,0.300509 -0.314838,0.336357 0.0146,0.03585 0.088,0.06334 0.240693,0.135906 0.152693,0.07256 0.384664,0.19019 0.508396,0.265559 0.123733,0.07537 0.139221,0.10848 0.100948,0.1742 -0.03827,0.06572 -0.130303,0.16403 -0.292952,0.312329 -0.162649,0.148298 -0.395903,0.346571 -0.749938,0.519847 -0.354036,0.173276 -0.82883,0.321546 -1.325961,0.40443 -0.497132,0.08288 -1.01657,0.100381 -1.29245,0.114923 -0.27588,0.01454 -0.308191,0.02613 -0.323045,0.04362 -0.01485,0.01749 -0.01225,0.04089 0.134762,0.110553 0.147016,0.06966 0.438437,0.185577 0.970906,0.436994 0.532469,0.251418 1.30595,0.63832 1.719867,0.862626 0.413916,0.224306 0.468254,0.286009 0.572284,0.409777 0.10403,0.123768 0.257746,0.309594 0.342258,0.430158 0.08451,0.120564 0.09981,0.175852 -0.169036,0.422799 -0.268849,0.246947 -0.821828,0.685526 -1.126588,0.927536 -0.30476,0.24201 -0.361295,0.287447 -0.386597,0.32227 -0.0253,0.03482 -0.01938,0.05904 0.02008,0.07738 0.03946,0.01834 0.112444,0.03081 0.618714,0.17355 0.506269,0.142735 1.445783,0.415724 1.920894,0.565086 0.475112,0.149362 0.485796,0.17508 0.473929,0.196391 -0.01187,0.02131 -0.04628,0.0382 -0.105578,0.07501 -0.0593,0.03681 -0.143486,0.09353 -0.590595,0.440001 -0.44711,0.34647 -1.25711,0.982665 -1.700153,1.326644 -0.443043,0.343978 -0.519117,0.395732 -0.593899,0.432066 -0.07478,0.03633 -0.148274,0.05725 -0.224601,0.08205 -0.07633,0.02481 -0.155495,0.0535 -0.196327,0.08133 -0.04083,0.02783 -0.04333,0.05479 -0.01691,0.07443 0.02642,0.01965 0.08176,0.032 0.282916,0.06237 0.201152,0.03037 0.548101,0.07877 0.727492,0.112894 0.17939,0.03412 0.191214,0.05397 0.201782,0.07819 0.01057,0.02423 0.01989,0.05285 -0.02944,0.0765 -0.04932,0.02365 -0.157285,0.04234 -0.384692,0.07315 -0.227407,0.03081 -0.574245,0.07376 -1.096945,0.156449 -0.5227,0.08269 -1.221226,0.205128 -1.579739,0.27085 -0.358513,0.06572 -0.376995,0.07473 -0.37922,0.08969 -0.0022,0.01496 0.01181,0.03588 0.155513,0.114609 0.143701,0.07873 0.417049,0.215275 0.818531,0.406842 0.401481,0.191568 0.931069,0.438149 1.243959,0.569081 0.31289,0.130932 0.409071,0.146208 0.640083,0.193968 0.231011,0.04776 0.596842,0.127999 0.78559,0.180115 0.188748,0.05212 0.200404,0.0761 0.173891,0.09877 -0.02651,0.02267 -0.09118,0.04401 -0.668886,0.05412 -0.577702,0.01011 -1.668384,0.009 -2.243556,0.0084 -0.575171,-5.67e-4 -0.634801,-5.67e-4 -0.673833,0.0074 -0.03903,0.0079 -0.05746,0.02385 -0.0599,0.05553 -0.0024,0.03168 0.01112,0.07915 0.259442,0.653935 0.248319,0.574785 0.731384,1.676855 0.972922,2.244881 0.241537,0.568026 0.241537,0.601976 0.215271,0.63305 -0.02627,0.03107 -0.07879,0.05926 -0.121875,0.07752 -0.04308,0.01826 -0.07672,0.0266 -0.494336,-0.301922 -0.417613,-0.32852 -1.219167,-0.993871 -1.642971,-1.339155 -0.423803,-0.345283 -0.469846,-0.370489 -0.501127,-0.354529 -0.03128,0.01596 -0.04781,0.07307 -0.131103,0.8445 -0.0833,0.771429 -0.233359,2.257112 -0.308391,3.021008 -0.07503,0.763896 -0.07503,0.805976 -0.09767,0.835098 -0.02264,0.02912 -0.06793,0.04529 -0.203113,-0.0068 -0.135183,-0.05214 -0.360259,-0.172575 -0.940906,-0.526665 -0.580648,-0.35409 -1.516826,-0.941806 -2.015874,-1.247154 -0.499048,-0.305349 -0.560949,-0.328319 -0.5919,-0.313014 -0.03095,0.0153 -0.03095,0.06888 0.249579,0.564562 0.280529,0.495679 0.841565,1.43342 1.12406,1.919713 0.282495,0.486292 0.286439,0.521128 -0.605732,0.352586 -0.892171,-0.168543 -2.680385,-0.540438 -3.587855,-0.7146 -0.90747,-0.174162 -0.934168,-0.150578 -0.918657,-0.10549 0.01551,0.04509 0.07323,0.111691 0.680708,0.894668 0.607484,0.782976 1.764693,2.282269 2.365854,3.052243 0.601162,0.769975 0.64626,0.810608 0.671812,0.840022 0.02555,0.02941 0.03157,0.04762 -1.198336,0.162223 -1.229905,0.114606 -3.695633,0.325597 -4.996118,0.443511 -1.300484,0.117915 -1.435674,0.142748 -1.489068,0.16575 -0.0534,0.023 -0.02499,0.04418 0.962872,0.396229 0.987857,0.352048 2.935092,1.034946 3.950859,1.387335 1.015767,0.352389 1.100013,0.37425 1.150407,0.406617 0.05039,0.03237 0.06692,0.07523 -0.560153,0.440962 -0.627074,0.365735 -1.897701,1.054311 -2.559453,1.415781 -0.661752,0.36147 -0.714602,0.395818 -0.73519,0.422755 -0.02059,0.02694 -0.0089,0.04646 0.852467,0.132471 0.861389,0.08601 2.572427,0.2385 3.45824,0.310478 0.885814,0.07198 0.946386,0.06344 0.974027,0.08732 0.02764,0.02388 0.02236,0.08017 -0.209375,0.264463 -0.231737,0.184292 -0.689913,0.496569 -1.013876,0.725758 -0.323963,0.22919 -0.513697,0.37528 -1.139506,0.610591 -0.625808,0.235311 -1.687645,0.559828 -2.236049,0.733029 -0.548403,0.173201 -0.583353,0.195081 -0.548477,0.221918 0.03488,0.02684 0.139579,0.05863 4.584715,1.300907 4.445136,1.242277 13.230354,3.69494 17.662008,4.946908 4.431654,1.251968 4.509565,1.303191 5.016529,1.82279 0.506963,0.5196 1.44294,1.507536 2.593617,2.705994 1.150677,1.198458 2.515977,2.607354 3.235255,3.349434 0.719279,0.74207 0.792505,0.81728 0.852761,0.8485 0.06026,0.0312 0.107519,0.0185 0.308744,-0.12997 0.201225,-0.14843 0.556366,-0.43251 2.307995,-1.779328 1.751629,-1.346816 4.899611,-3.756264 6.483502,-4.978407 1.583892,-1.222144 1.603635,-1.256942 1.894454,-1.331127 0.290819,-0.07418 0.852695,-0.187759 5.159051,-1.091707 4.306356,-0.903948 12.356858,-2.598198 16.373375,-3.450881 4.016517,-0.852684 3.998895,-0.86376 3.885722,-0.924029 -0.113174,-0.06027 -0.321883,-0.169719 -1.050345,-0.552615 -0.728461,-0.382896 -1.976621,-1.039208 -2.6145,-1.38388 -0.637879,-0.344671 -0.665447,-0.377682 -0.651591,-0.402338 0.01386,-0.02466 0.06914,-0.04095 0.919991,-0.03891 0.85085,0.002 2.497194,0.0224 3.342693,0.03123 0.845499,0.0088 0.890109,0.0061 0.913554,-0.002 0.02344,-0.0082 0.02571,-0.02179 -0.09642,-0.100298 -0.122128,-0.07851 -0.368641,-0.221869 -1.16138,-0.684366 -0.79274,-0.462498 -2.131647,-1.244097 -2.810928,-1.642551 -0.679281,-0.398455 -0.698907,-0.413747 -0.70026,-0.447784 -0.0014,-0.03404 0.01557,-0.08681 0.921704,-0.655799 0.906138,-0.568987 2.701422,-1.654137 3.606559,-2.211837 0.905137,-0.557699 0.920089,-0.587919 0.891611,-0.605084 -0.02848,-0.01717 -0.100382,-0.02127 -0.914323,0.08746 -0.813941,0.108736 -2.369852,0.330306 -3.152254,0.430736 -0.782402,0.100429 -0.791252,0.07974 -0.355915,-0.612468 0.435337,-0.692209 1.314834,-2.055866 1.765159,-2.760877 0.450325,-0.705012 0.471457,-0.751345 0.455082,-0.772479 -0.01638,-0.02113 -0.07025,-0.01707 -0.977366,0.296457 -0.907112,0.313524 -2.66738,0.936482 -3.571494,1.25129 -0.904114,0.314808 -0.95204,0.321455 -0.764703,-0.07448 0.187336,-0.395937 0.609917,-1.194426 0.834875,-1.618349 0.224957,-0.423924 0.252279,-0.473263 0.12616,-0.498783 -0.126118,-0.02552 -0.405667,-0.02722 -0.800741,-0.0458 -0.395074,-0.01858 -0.905647,-0.05404 -1.162824,-0.08489 -0.257178,-0.03086 -0.260946,-0.0571 -0.211623,-0.241344 0.04932,-0.184247 0.151736,-0.526473 0.342814,-1.141735 0.191079,-0.615262 0.47081,-1.503518 0.617653,-1.974 0.146844,-0.470482 0.160793,-0.523163 0.153769,-0.551464 -0.007,-0.0283 -0.03502,-0.03222 -1.08079,0.565915 -1.045769,0.598131 -3.10922,1.798263 -4.161041,2.405881 -1.051821,0.607618 -1.091971,0.622697 -1.097719,0.589177 -0.0057,-0.03352 0.02291,-0.115635 0.364803,-0.78985 0.341896,-0.674216 0.997005,-1.940476 1.340741,-2.596309 0.343737,-0.655833 0.376095,-0.701223 0.386658,-0.740929 0.01056,-0.03971 -6.66e-4,-0.07374 -0.05385,-0.07356 -0.05318,1.8e-4 -0.148322,0.03457 -0.812647,0.291345 -0.664324,0.256775 -1.897784,0.735918 -2.524402,0.955145 -0.626617,0.219226 -0.646368,0.178526 -0.339494,-0.34729 0.306874,-0.525816 0.940345,-1.536709 1.271643,-2.06891 0.331299,-0.532202 0.360411,-0.58569 0.355884,-0.619862 -0.0045,-0.03417 -0.04269,-0.04902 -0.609613,-0.0701 -0.566925,-0.02108 -1.662562,-0.04838 -2.22793,-0.06415 -0.565368,-0.01577 -0.600457,-0.02 -0.580768,-0.05427 0.01969,-0.03427 0.09414,-0.09859 0.676181,-0.581283 0.582043,-0.482689 1.671634,-1.383713 2.234036,-1.851077 0.562402,-0.467365 0.597594,-0.501053 0.610157,-0.534551 0.01256,-0.0335 0.0025,-0.0668 -0.109824,-0.07925 -0.112325,-0.01245 -0.326905,-0.004 -0.795658,-0.04421 -0.468754,-0.04018 -1.191648,-0.128961 -1.571451,-0.175466 -0.379803,-0.04651 -0.416511,-0.05074 -0.414522,-0.06694 0.002,-0.0162 0.04265,-0.04437 0.174344,-0.105904 0.131694,-0.06154 0.354403,-0.156434 0.48509,-0.211201 0.130688,-0.05477 0.169355,-0.06941 0.01532,-0.220517 -0.154032,-0.151112 -0.500743,-0.438687 -0.998834,-0.831893 -0.498091,-0.393206 -1.147528,-0.892017 -1.480375,-1.157086 -0.332847,-0.265069 -0.349093,-0.296391 -0.343877,-0.321739 0.0052,-0.02535 0.03189,-0.04474 0.585247,-0.263026 0.553356,-0.21829 1.633351,-0.635467 2.188419,-0.849165 0.555069,-0.213698 0.585179,-0.223906 0.53133,-0.290304 -0.05385,-0.0664 -0.191661,-0.18898 -0.500743,-0.428108 -0.309081,-0.239129 -0.78941,-0.594789 -1.048559,-0.791823 -0.259148,-0.197035 -0.297102,-0.235431 -0.303552,-0.270578 -0.0065,-0.03515 0.01861,-0.06704 0.05046,-0.09557 0.03185,-0.02853 0.0705,-0.0537 0.142327,-0.08251 0.07183,-0.02881 0.176832,-0.06125 0.778337,-0.247513 0.601505,-0.186261 1.699461,-0.526322 2.271488,-0.701192 0.572027,-0.174871 0.618093,-0.184543 0.642346,-0.204734 0.02425,-0.02019 0.02669,-0.05092 0.0035,-0.07851 -0.02317,-0.02759 -0.07193,-0.05207 -0.436629,-0.210921 -0.364699,-0.158849 -1.045304,-0.452054 -1.743581,-0.779998 -0.698276,-0.327945 -1.414183,-0.690609 -1.779286,-0.888244 -0.365103,-0.197635 -0.379387,-0.230233 -0.382806,-0.302857 -0.0034,-0.07262 0.004,-0.185278 0.03517,-0.261876 0.03114,-0.0766 0.08598,-0.117138 0.152869,-0.163985 0.06689,-0.04685 0.145818,-0.09999 0.191923,-0.150128 0.0461,-0.05013 0.05938,-0.09727 -0.09559,-0.227784 -0.154976,-0.130519 -0.478189,-0.344432 -0.652777,-0.475087 -0.174588,-0.130655 -0.200542,-0.178042 -0.181625,-0.352105 0.01892,-0.174062 0.08271,-0.474781 0.16334,-0.706128 0.08063,-0.231348 0.178104,-0.393316 0.359954,-0.611017 0.18185,-0.217701 0.448067,-0.491123 0.838477,-1.177696 0.39041,-0.686573 0.904986,-1.786246 1.171764,-2.364474 0.266777,-0.578228 0.285748,-0.634991 0.293683,-0.675217 0.0079,-0.04023 0.0048,-0.06392 -0.03674,-0.0685 -0.04158,-0.0046 -0.12163,0.0099 -0.395848,0.05236 -0.274219,0.04242 -0.742582,0.112739 -0.983102,0.130848 -0.24052,0.01811 -0.253184,-0.01598 -0.237925,-0.116969 0.01526,-0.100989 0.05844,-0.268857 0.114824,-0.532355 0.05638,-0.263497 0.125961,-0.622605 0.142641,-0.813553 0.01668,-0.190948 -0.01954,-0.213729 -0.224745,-0.222126 -0.205206,-0.0084 -0.579388,-0.0024 -0.777234,-0.04849 -0.197847,-0.04607 -0.219351,-0.14421 -0.312049,-0.623076 -0.0927,-0.478866 -0.256584,-1.338433 -0.335536,-1.803326 -0.07895,-0.464892 -0.07297,-0.535085 0.184301,-0.828865 0.257271,-0.29378 0.76581,-0.811121 1.0513,-1.093991 0.28549,-0.282869 0.347926,-0.33126 0.36119,-0.377592 0.01327,-0.04633 -0.02264,-0.09061 -0.223927,-0.188484 -0.201285,-0.09787 -0.567938,-0.249322 -0.777752,-0.339352 -0.209814,-0.09003 -0.26278,-0.118634 -0.30392,-0.174834 -0.04114,-0.0562 -0.07045,-0.139994 -0.01002,-0.338721 0.06043,-0.198728 0.210602,-0.51237 0.660889,-1.424226 0.450288,-0.911857 1.200658,-2.421859 1.671846,-3.341239 0.471189,-0.919379 0.663173,-1.248091 0.75458,-1.427199 0.09141,-0.179109 0.08223,-0.208602 -0.188762,-0.125148 -0.270994,0.08346 -0.80379,0.279844 -1.217851,0.437989 -0.41406,0.158145 -0.709363,0.278036 -0.913931,0.286603 -0.204568,0.0086 -0.318389,-0.09419 -0.413465,-0.240119 -0.09508,-0.145932 -0.171399,-0.33503 -0.181878,-0.539274 -0.01048,-0.204245 0.04488,-0.423622 0.276244,-0.959496 0.231359,-0.535875 0.638696,-1.388209 0.863155,-1.939228 0.224459,-0.551019 0.26603,-0.800695 0.393492,-1.388417 0.127463,-0.587722 0.340807,-1.513447 0.424945,-2.041884 0.08414,-0.528437 0.03907,-0.659563 -0.07134,-0.699777 -0.110405,-0.04021 -0.286136,0.01048 -0.894146,0.483064 -0.60801,0.472582 -1.648255,1.36701 -2.207508,1.819916 -0.559253,0.452907 -0.63749,0.464273 -0.715615,0.322845 -0.07813,-0.141429 -0.156133,-0.43564 -0.209316,-0.635752 -0.05318,-0.200113 -0.08154,-0.306114 -0.22621,-0.178763 -0.14467,0.127351 -0.405644,0.488044 -0.563679,0.638205 -0.158035,0.150161 -0.213122,0.08978 -0.216979,-0.0597 -0.0039,-0.149483 0.04352,-0.388059 0.09142,-0.65087 0.0479,-0.26281 0.09634,-0.549841 -0.0198,-1.520973 -0.116135,-0.971133 -0.396825,-2.626299 -0.550175,-3.484542 -0.153351,-0.858244 -0.179353,-0.919526 -0.206286,-0.904584 -0.02693,0.01494 -0.0548,0.106115 -0.267342,0.576605 -0.212545,0.470491 -0.609756,1.320269 -0.971878,1.999188 -0.362123,0.678919 -0.689136,1.186942 -0.872051,1.462963 -0.182915,0.276021 -0.221716,0.32002 -0.255622,0.340055 -0.03391,0.02004 -0.06291,0.0161 -0.100198,-0.08637 -0.03728,-0.102474 -0.08284,-0.303479 -0.159897,-0.570445 -0.07706,-0.266965 -0.185601,-0.599874 -0.268485,-0.873106 -0.08288,-0.273231 -0.140101,-0.48677 -0.179936,-0.571302 -0.03983,-0.08453 -0.06229,-0.04004 -0.186792,0.389156 -0.124502,0.429201 -0.351042,1.243086 -0.476152,1.667123 -0.125111,0.424037 -0.148788,0.458212 -0.211836,0.372957 -0.06305,-0.08526 -0.165465,-0.289934 -0.322693,-0.579559 -0.157227,-0.289624 -0.369257,-0.664177 -0.562307,-1.096354 -0.19305,-0.432178 -0.367109,-0.921954 -0.475845,-1.277922 -0.108735,-0.355969 -0.152139,-0.57811 -0.194565,-0.727314 -0.04243,-0.149204 -0.08387,-0.225465 -0.156449,-0.262764 -0.07258,-0.0373 -0.176273,-0.03563 -0.255213,0.04936 -0.07894,0.08499 -0.133113,0.253292 -0.182344,0.409443 -0.04923,0.156151 -0.09351,0.30014 -0.212477,0.416475 -0.118965,0.116336 -0.312602,0.205013 -0.706097,0.415398 -0.393496,0.210386 -0.986822,0.542464 -1.318026,0.729707 -0.331203,0.187244 -0.400279,0.22965 -0.46151,0.251268 -0.06123,0.02162 -0.114608,0.02245 -0.187316,-0.125408 -0.07271,-0.147858 -0.16474,-0.444398 -0.269153,-0.72398 C 67.034403,25.583775 66.917604,25.321145 66.742952,24.961173 66.5683,24.6012 66.335807,24.143908 66.146227,23.75326 65.956646,23.362612 65.809989,23.03863 65.699062,22.735939 65.588134,22.433247 65.512943,22.151862 65.437777,21.872627 65.36261,21.593391 65.287472,21.316321 65.216406,21.1401 65.14534,20.963879 65.07835,20.888514 64.991465,20.861971 c -0.08688,-0.02654 -0.193657,-0.0043 -0.309452,0.106728 -0.115796,0.110991 -0.240607,0.310685 -0.481818,0.627846 -0.241211,0.317161 -0.598805,0.751768 -0.829304,1.01533 -0.230498,0.263562 -0.333888,0.356066 -0.395954,0.418519 -0.06206,0.06245 -0.08281,0.09486 -0.421332,0.128479 -0.338523,0.03362 -0.994805,0.06845 -1.572677,0.106888 -0.577872,0.03844 -1.077301,0.08049 -1.454883,0.112828 -0.377582,0.03234 -0.633298,0.05497 -0.858484,0.07565 -0.225185,0.02068 -0.419827,0.03942 -0.580791,0.06359 -0.160965,0.02417 -0.288239,0.05378 -0.390728,0.08732 -0.102489,0.03354 -0.180181,0.07101 -0.233911,0.09149 -0.05373,0.02048 -0.0835,0.02397 -0.126049,-0.04085 -0.04255,-0.06481 -0.09789,-0.197917 -0.133884,-0.386733 -0.036,-0.188815 -0.05265,-0.433328 -0.07165,-0.709918 -0.019,-0.27659 -0.04033,-0.585241 -0.05362,-0.783953 -0.01329,-0.198712 -0.01853,-0.287484 -0.05436,-0.391093 -0.03583,-0.103609 -0.102251,-0.222054 -0.179866,-0.273532 -0.07762,-0.05148 -0.166413,-0.03599 -0.284606,0.218885 -0.118193,0.254875 -0.265771,0.749114 -0.424394,1.241068 -0.158623,0.491955 -0.328282,0.981596 -0.534504,1.305977 -0.206221,0.324381 -0.448992,0.483487 -0.680551,0.626522 -0.231559,0.143035 -0.451894,0.269992 -0.674653,0.385437 -0.222758,0.115445 -0.447926,0.219371 -0.640937,0.312687 -0.193012,0.09332 -0.353856,0.176016 -0.525556,0.255321 -0.171699,0.0793 -0.354242,0.155208 -0.58377,0.219034 -0.229529,0.06383 -0.506024,0.115569 -0.819258,0.07035 -0.313235,-0.04522 -0.663188,-0.187393 -0.973187,-0.385493 -0.309999,-0.198101 -0.580027,-0.452115 -0.775238,-0.707542 -0.195211,-0.255427 -0.315595,-0.512252 -0.406996,-0.749763 -0.0914,-0.237512 -0.153815,-0.455695 -0.193483,-0.607699 -0.03967,-0.152004 -0.05659,-0.237817 -0.0706,-0.297549 -0.01402,-0.05973 -0.02513,-0.09337 -0.05021,-0.09664 -0.02509,-0.0033 -0.06415,0.02383 -0.09904,0.05574 -0.03489,0.03191 -0.06561,0.06862 -0.08098,0.08698 -0.01536,0.01836 -0.01536,0.01836 -0.129733,0.396561 z"
         id="path3"
         inkscape:path-effect="#path-effect3-7"
         inkscape:original-d="m 49.009372,23.062242 c -0.228746,0.756403 -0.457491,1.512807 -0.686237,2.26921 -0.178966,0.114741 -0.357924,0.229478 -0.536886,0.344217 -0.600182,0.444771 -1.20034,0.889524 -1.800509,1.334287 -0.01692,0.0981 -0.03384,0.196194 -0.05076,0.294292 -0.107994,1.123705 -0.215984,2.247366 -0.323976,3.371049 -0.04744,0.05434 -0.09488,0.108682 -0.142326,0.163022 -0.562158,-0.529556 -1.124293,-1.059091 -1.686439,-1.588636 -1.168272,-1.08688 -2.336498,-2.173717 -3.504747,-3.260576 -0.07554,0.0073 -0.151086,0.01457 -0.226629,0.02185 -0.06184,0.147898 -0.123678,0.29579 -0.185516,0.443685 0.533906,2.43332 1.067791,4.866543 1.601686,7.299814 0,0.09303 0,0.186064 0,0.279095 -0.129418,-0.05595 -0.25883,-0.111899 -0.388245,-0.167849 -0.850294,-0.901861 -1.700553,-1.803685 -2.55083,-2.705528 -0.10403,0.02012 -0.208057,0.04024 -0.312085,0.06037 -0.02492,0.08755 -0.04983,0.175092 -0.07475,0.262637 1.435249,1.786436 2.870441,3.5728 4.305662,5.3592 0.01633,0.0447 0.03266,0.0894 0.04899,0.134098 -0.102014,-0.03664 -0.204025,-0.07329 -0.306037,-0.109929 -0.653451,-0.270756 -1.306875,-0.5415 -1.960313,-0.812251 0.07931,0.135068 0.158621,0.270131 0.237932,0.405196 0.743316,1.903026 1.486602,3.805975 2.229902,5.708962 -0.06394,0.04207 -0.127868,0.08414 -0.191802,0.126207 -0.434554,0.270064 -0.869091,0.540116 -1.303636,0.810175 0.03593,0.04976 0.07186,0.09953 0.107784,0.149291 0.526423,0.292372 1.052824,0.584731 1.579237,0.877097 0.0107,0.105045 0.02139,0.210086 0.03209,0.315129 -0.01669,0.44736 -0.03339,0.894703 -0.05008,1.342055 -0.174307,0.304023 -0.348607,0.608035 -0.52291,0.912052 -0.49975,0.214248 -0.999479,0.428488 -1.499219,0.642731 -0.04512,0.01849 -0.09024,0.03699 -0.135355,0.05548 0,0.02576 0,0.05151 0,0.07727 0.363824,0.388325 0.727633,0.776634 1.091449,1.164951 0.01343,0.02611 0.02686,0.05221 0.04029,0.07832 -0.01874,0.02762 -0.03749,0.05524 -0.05623,0.08286 -0.572773,0.03631 -1.145524,0.07262 -1.718286,0.108937 -0.03783,0.0052 -0.07566,0.0103 -0.113485,0.01545 -2.71e-4,0.02703 -5.41e-4,0.05405 -8.11e-4,0.08108 0.03939,0.0686 0.07878,0.137208 0.118162,0.205811 0.400577,0.951396 0.801139,1.902753 1.201708,2.85413 0.06493,0.08552 0.129862,0.171035 0.194793,0.256552 0.416203,0.482576 0.83239,0.965132 1.248585,1.447697 0.0089,0.04195 0.01772,0.08391 0.02658,0.12586 -0.526242,0.468429 -1.052463,0.936839 -1.578695,1.405258 -0.04422,0.0442 -0.08843,0.0884 -0.132643,0.132597 0.07341,0.0275 0.146812,0.05499 0.220218,0.08249 0.23198,0.117631 0.463951,0.235257 0.695927,0.352885 0.01549,0.03311 0.03098,0.06622 0.04647,0.09934 -0.09204,0.09832 -0.18407,0.196631 -0.276104,0.294947 -0.233263,0.198281 -0.466517,0.396554 -0.699775,0.594831 -0.474813,0.148275 -0.949607,0.296544 -1.42441,0.444817 -0.51946,0.0175 -1.038898,0.03499 -1.558347,0.05249 -0.03231,0.01159 -0.06462,0.02318 -0.09693,0.03476 0.0026,0.0234 0.0052,0.0468 0.0078,0.0702 0.291432,0.115921 0.582853,0.231837 0.87428,0.347755 0.773511,0.386917 1.546992,0.773819 2.320488,1.160728 0.05434,0.0617 0.108675,0.123406 0.163012,0.185109 0.153723,0.185833 0.307439,0.371659 0.461158,0.557488 0.0153,0.0553 0.0306,0.110589 0.04591,0.165884 -0.553002,0.438596 -1.105981,0.877176 -1.658972,1.315764 -0.05653,0.04543 -0.113063,0.09087 -0.169594,0.136302 0.0059,0.02422 0.01185,0.04843 0.01778,0.07265 0.07299,0.01247 0.145975,0.02494 0.218963,0.03741 0.939551,0.273 1.879065,0.545988 2.818598,0.818983 0.01069,0.02573 0.02137,0.05145 0.03206,0.07717 -0.03442,0.0169 -0.06883,0.03379 -0.103245,0.05069 -0.08419,0.05672 -0.168372,0.113443 -0.252558,0.170164 -0.810033,0.63622 -1.620033,1.272414 -2.430049,1.908622 -0.07607,0.05175 -0.152144,0.103504 -0.228216,0.155256 -0.07349,0.02092 -0.146985,0.04183 -0.220478,0.06275 -0.07916,0.02869 -0.158327,0.05739 -0.237491,0.08608 -0.0025,0.02696 -0.005,0.05392 -0.0075,0.08087 0.05534,0.01235 0.110684,0.02469 0.166026,0.03704 0.346962,0.0484 0.693911,0.0968 1.040867,0.145196 0.01182,0.01985 0.02365,0.03969 0.03547,0.05953 0.0093,0.02862 0.01863,0.05724 0.02795,0.08586 -0.107964,0.01868 -0.215924,0.03737 -0.323885,0.05605 -0.346853,0.04295 -0.693692,0.08589 -1.040538,0.128832 -0.698554,0.12244 -1.39708,0.244876 -2.095619,0.367314 -0.01849,0.009 -0.03697,0.01801 -0.05546,0.02702 0.01404,0.02092 0.02808,0.04183 0.04212,0.06275 0.27336,0.136547 0.546708,0.273089 0.820062,0.409633 0.529609,0.246591 1.059197,0.493172 1.588796,0.739759 0.09618,0.01528 0.192361,0.03056 0.288542,0.04583 0.365844,0.08024 0.731674,0.160482 1.097511,0.240723 0.01166,0.02399 0.02331,0.04798 0.03497,0.07196 -0.06468,0.02135 -0.129354,0.04269 -0.194031,0.06404 -1.090725,-0.0011 -2.181407,-0.0023 -3.27211,-0.0034 -0.05964,0 -0.11927,0 -0.178904,0 -0.01843,0.0159 -0.03686,0.0318 -0.05529,0.0477 0.01356,0.04746 0.02712,0.09493 0.04067,0.142387 0.483084,1.102114 0.966149,2.204184 1.449224,3.306276 0,0.03396 0,0.06791 0,0.10187 -0.05253,0.02819 -0.105061,0.05637 -0.157592,0.08456 -0.03364,0.0083 -0.06727,0.01668 -0.100912,0.02501 -0.801586,-0.665378 -1.60314,-1.330729 -2.404709,-1.996093 -0.04604,-0.0252 -0.09208,-0.05041 -0.138115,-0.07561 -0.01653,0.05712 -0.03305,0.114232 -0.04958,0.171348 -0.150068,1.485742 -0.300129,2.971425 -0.450193,4.457137 0,0.04208 0,0.08416 0,0.126235 -0.04528,0.01617 -0.09057,0.03234 -0.135852,0.04851 -0.225084,-0.120443 -0.45016,-0.240881 -0.67524,-0.361322 -0.936215,-0.587739 -1.872393,-1.175454 -2.808589,-1.763182 -0.0619,-0.02297 -0.123801,-0.04594 -0.185702,-0.06891 0,0.05358 0,0.107158 0,0.160737 0.561058,0.937779 1.122094,1.87552 1.683141,2.81328 0.0039,0.03483 0.0079,0.06966 0.01183,0.104486 -1.788285,-0.37191 -3.576499,-0.743805 -5.364748,-1.115707 -0.02669,0.02358 -0.05339,0.04716 -0.08008,0.07074 0.05771,0.0666 0.115427,0.133201 0.17314,0.199802 1.157254,1.499352 2.314462,2.998645 3.471694,4.497967 0.04509,0.04063 0.09019,0.08126 0.135278,0.121883 0.006,0.01821 0.01203,0.03641 0.01805,0.05462 -2.465827,0.210999 -4.931555,0.42199 -7.397332,0.632986 -0.135193,0.02483 -0.270381,0.04967 -0.405571,0.0745 0.0284,0.02117 0.05681,0.04235 0.08521,0.06352 1.947314,0.682926 3.894549,1.365824 5.841824,2.048737 0.08426,0.02186 0.168507,0.04372 0.252761,0.06559 0.01653,0.04287 0.03306,0.08573 0.04959,0.128595 -1.270679,0.688605 -2.541306,1.377182 -3.811959,2.065772 -0.05285,0.03435 -0.105699,0.0687 -0.158549,0.103043 0.01167,0.01953 0.02334,0.03905 0.03501,0.05858 1.711106,0.152494 3.422144,0.304982 5.133216,0.457473 0.06056,-0.0085 0.121126,-0.01708 0.18169,-0.02561 -0.0053,0.0563 -0.01056,0.11259 -0.01584,0.168885 -0.458194,0.312289 -0.91637,0.624566 -1.374555,0.936849 -0.189741,0.146096 -0.379475,0.292186 -0.569213,0.438279 -1.061879,0.324529 -2.123716,0.649046 -3.185573,0.973568 -0.03495,0.02188 -0.0699,0.04376 -0.104851,0.06564 0.104705,0.03179 0.209405,0.06359 0.314108,0.09538 8.78557,2.452761 17.570788,4.905424 26.356182,7.358136 0.07791,0.05123 0.155825,0.102447 0.233738,0.15367 0.936014,0.987976 1.871991,1.975912 2.807986,2.963868 1.365359,1.40896 2.730663,2.817856 4.095994,4.226796 0.07323,0.0752 0.146448,0.15042 0.219671,0.22563 0.04728,-0.0128 0.09456,-0.0255 0.141847,-0.0383 0.355156,-0.28409 0.710298,-0.56817 1.065447,-0.85226 3.148107,-2.409544 6.296089,-4.818992 9.444133,-7.228488 0.01974,-0.03479 0.03948,-0.06959 0.05922,-0.104379 0.5619,-0.11358 1.123776,-0.227154 1.685664,-0.340731 8.050824,-1.694319 16.101326,-3.388569 24.151989,-5.082854 -0.01763,-0.01108 -0.03525,-0.02216 -0.05288,-0.03324 -0.208718,-0.109455 -0.417427,-0.218906 -0.626141,-0.328359 -1.248209,-0.656339 -2.496369,-1.312651 -3.744553,-1.968977 -0.02757,-0.03302 -0.05514,-0.06603 -0.08272,-0.09905 0.05529,-0.01629 0.110576,-0.03258 0.165864,-0.04887 1.646411,0.02036 3.292755,0.04072 4.939133,0.06109 0.04462,-0.0027 0.08923,-0.0054 0.133852,-0.0081 0.0023,-0.01364 0.0045,-0.02727 0.0068,-0.04091 -0.246523,-0.143367 -0.493036,-0.286729 -0.739553,-0.430094 -1.338962,-0.781631 -2.677869,-1.56323 -4.016804,-2.344845 -0.01963,-0.01529 -0.03925,-0.03059 -0.05888,-0.04588 0.01692,-0.05278 0.03384,-0.105556 0.05076,-0.158335 1.795356,-1.085193 3.59064,-2.170344 5.385959,-3.255516 0.01495,-0.03023 0.0299,-0.06045 0.04486,-0.09067 -0.07191,-0.0041 -0.143814,-0.0082 -0.215722,-0.01232 -1.555973,0.221579 -3.111884,0.44315 -4.667826,0.664724 -0.0089,-0.0207 -0.01772,-0.0414 -0.02657,-0.06211 0.879532,-1.363712 1.759029,-2.727369 2.638544,-4.091054 0.02113,-0.04634 0.04227,-0.09267 0.0634,-0.139006 -0.05388,0.0041 -0.107765,0.0081 -0.161647,0.0122 -1.760339,0.622982 -3.520607,1.24594 -5.280911,1.86891 -0.04793,0.0066 -0.09585,0.01329 -0.143775,0.01994 0.422598,-0.79852 0.845179,-1.597009 1.267769,-2.395513 0.02733,-0.04934 0.05465,-0.09868 0.08197,-0.148022 -0.27956,-0.0017 -0.559109,-0.0034 -0.838664,-0.0051 -0.510593,-0.03546 -1.021166,-0.07091 -1.53175,-0.106373 -0.0038,-0.02625 -0.0075,-0.0525 -0.01131,-0.07875 0.102417,-0.342239 0.20483,-0.684465 0.307245,-1.026698 0.279742,-0.888291 0.559472,-1.776547 0.839209,-2.664821 0.01395,-0.05269 0.0279,-0.105371 0.04185,-0.158056 -0.028,-0.0039 -0.056,-0.0078 -0.084,-0.01175 -2.063533,1.20018 -4.126984,2.400312 -6.190476,3.600468 -0.04015,0.01508 -0.0803,0.03016 -0.120454,0.04524 0.02866,-0.08212 0.05731,-0.164237 0.08597,-0.246355 0.655135,-1.266312 1.310244,-2.532572 1.965366,-3.798858 0.03235,-0.04538 0.06471,-0.09077 0.09706,-0.13615 -0.01123,-0.03403 -0.02245,-0.06807 -0.03368,-0.102099 -0.09514,0.03439 -0.190279,0.06878 -0.285418,0.103168 -1.23351,0.479162 -2.46697,0.958305 -3.700455,1.437458 -0.01975,-0.0407 -0.0395,-0.0814 -0.05925,-0.122098 0.633497,-1.010934 1.266968,-2.021827 1.900452,-3.032741 0.02911,-0.05349 0.05822,-0.10698 0.08734,-0.16047 -0.03817,-0.01485 -0.07633,-0.0297 -0.114498,-0.04455 -1.095682,-0.0273 -2.191319,-0.0546 -3.286979,-0.08191 -0.03508,-0.0042 -0.07016,-0.0085 -0.105238,-0.01269 0.07445,-0.06432 0.148901,-0.128638 0.223352,-0.192958 1.089634,-0.901059 2.179225,-1.802083 3.268837,-2.703124 0.03519,-0.03369 0.07038,-0.06738 0.105575,-0.101063 -0.01006,-0.03331 -0.02013,-0.06661 -0.03019,-0.09992 -0.214588,0.0084 -0.429167,0.01683 -0.643751,0.02525 -0.722923,-0.08878 -1.445817,-0.17756 -2.168726,-0.26634 -0.0367,-0.0042 -0.0734,-0.0085 -0.110096,-0.01269 0.04067,-0.02817 0.08133,-0.05634 0.122001,-0.08451 0.222717,-0.0949 0.445426,-0.189798 0.668139,-0.284698 0.03866,-0.01464 0.07733,-0.02927 0.115991,-0.04391 -0.346726,-0.287587 -0.693437,-0.575162 -1.040156,-0.862743 -0.649463,-0.498831 -1.2989,-0.997642 -1.94835,-1.496462 -0.01624,-0.03132 -0.03249,-0.06264 -0.04873,-0.09395 0.02667,-0.01939 0.05335,-0.03877 0.08002,-0.05816 1.080039,-0.417194 2.160034,-0.834371 3.240051,-1.251556 0.03012,-0.01021 0.06023,-0.02042 0.09035,-0.03063 -0.137818,-0.122586 -0.27563,-0.245167 -0.413445,-0.36775 -0.480348,-0.355674 -0.960677,-0.711334 -1.441016,-1.067001 -0.03796,-0.0384 -0.07591,-0.0768 -0.11387,-0.1152 0.02506,-0.03189 0.05012,-0.06378 0.07518,-0.09568 0.03864,-0.02517 0.07729,-0.05033 0.115934,-0.0755 0.10501,-0.03245 0.210016,-0.06489 0.315025,-0.09734 1.098,-0.340074 2.195956,-0.680135 3.293935,-1.020202 0.04607,-0.0097 0.09214,-0.01935 0.138214,-0.02902 0.0024,-0.03071 0.0049,-0.06143 0.0073,-0.09214 -0.04877,-0.02448 -0.09753,-0.04896 -0.146298,-0.07344 -0.680631,-0.293217 -1.361236,-0.586422 -2.041853,-0.879632 -0.715936,-0.362679 -1.431843,-0.725344 -2.147765,-1.088015 -0.01428,-0.0326 -0.02856,-0.0652 -0.04285,-0.09779 0.0074,-0.112656 0.01489,-0.225308 0.02233,-0.337963 0.05484,-0.04054 0.109679,-0.08108 0.164518,-0.121622 0.07894,-0.05315 0.157867,-0.106299 0.236801,-0.159448 0.01328,-0.04712 0.02656,-0.09425 0.03983,-0.141367 -0.323226,-0.213922 -0.646439,-0.427835 -0.969658,-0.641753 -0.02596,-0.04739 -0.05191,-0.09478 -0.07787,-0.142175 0.06379,-0.30073 0.127583,-0.601448 0.191375,-0.902172 0.09747,-0.161973 0.194944,-0.323939 0.292417,-0.485908 0.266228,-0.273433 0.532445,-0.546855 0.798668,-0.820283 0.514597,-1.099718 1.029173,-2.199391 1.543759,-3.299087 0.01897,-0.05676 0.03794,-0.113523 0.05691,-0.170285 -0.0031,-0.02369 -0.0062,-0.04738 -0.0093,-0.07106 -0.08006,0.01452 -0.16011,0.02904 -0.240166,0.04356 -0.468381,0.07032 -0.936744,0.140639 -1.405116,0.210958 -0.01267,-0.0341 -0.02533,-0.06819 -0.038,-0.102291 0.04319,-0.167876 0.08637,-0.335745 0.129553,-0.503618 0.06958,-0.359122 0.139159,-0.71823 0.208739,-1.077345 -0.03622,-0.02278 -0.07244,-0.04556 -0.108654,-0.06834 -0.374197,0.006 -0.748379,0.01196 -1.122569,0.01795 -0.0215,-0.09813 -0.04301,-0.196265 -0.06451,-0.294397 -0.163892,-0.859601 -0.327778,-1.719168 -0.491668,-2.578752 0.006,-0.0702 0.01197,-0.140394 0.01795,-0.210591 0.508559,-0.517363 1.017098,-1.034704 1.525646,-1.552056 0.06243,-0.04839 0.124866,-0.09678 0.187299,-0.145164 -0.0359,-0.04428 -0.07181,-0.08856 -0.107712,-0.13284 -0.366667,-0.151459 -0.73332,-0.302912 -1.09998,-0.454368 -0.05297,-0.0286 -0.105933,-0.05721 -0.158899,-0.08581 -0.02931,-0.0838 -0.05862,-0.167594 -0.08794,-0.251392 0.150177,-0.313655 0.300348,-0.627297 0.450522,-0.940946 0.7504,-1.510064 1.500771,-3.020066 2.251156,-4.530099 0.191992,-0.328726 0.383976,-0.657438 0.575964,-0.986157 -0.0092,-0.02949 -0.01835,-0.05899 -0.02752,-0.08848 -0.532817,0.196398 -1.065613,0.392788 -1.59842,0.589181 -0.295314,0.119896 -0.590617,0.239787 -0.885926,0.35968 -0.113827,-0.102759 -0.227648,-0.205513 -0.341472,-0.30827 -0.07633,-0.189106 -0.152651,-0.378205 -0.228976,-0.567307 0.05537,-0.219386 0.11073,-0.438764 0.166096,-0.658145 0.407353,-0.852368 0.81469,-1.704702 1.222035,-2.557053 0.04157,-0.249687 0.08314,-0.499364 0.124716,-0.749045 0.213353,-0.925762 0.426697,-1.851487 0.640046,-2.777231 -0.04507,-0.131131 -0.09014,-0.262257 -0.135215,-0.393385 -0.175738,0.0507 -0.351469,0.101398 -0.527203,0.152097 -1.040286,0.894464 -2.080531,1.788892 -3.120797,2.683338 -0.07824,0.01137 -0.156477,0.02273 -0.234716,0.0341 -0.07801,-0.294224 -0.156019,-0.588435 -0.234028,-0.882653 -0.02836,-0.106006 -0.05671,-0.212009 -0.08507,-0.318013 -0.260984,0.360707 -0.521958,0.7214 -0.782937,1.082101 -0.05509,-0.06038 -0.110178,-0.120756 -0.165268,-0.181134 0.04738,-0.238587 0.09475,-0.477164 0.142125,-0.715746 0.04843,-0.28704 0.09687,-0.574069 0.145297,-0.861103 -0.280702,-1.655232 -0.561392,-3.310398 -0.842088,-4.965597 -0.026,-0.06129 -0.05201,-0.122569 -0.07801,-0.183854 -0.02786,0.09117 -0.05573,0.18234 -0.08359,0.27351 -0.397227,0.849812 -0.794438,1.69959 -1.191657,2.549385 -0.327026,0.508043 -0.654039,1.016066 -0.981058,1.524099 -0.03881,0.04401 -0.07761,0.08801 -0.116419,0.132012 -0.02901,-0.0039 -0.05801,-0.0079 -0.08702,-0.0118 -0.04556,-0.201014 -0.09112,-0.402019 -0.136678,-0.603028 -0.108551,-0.332922 -0.217097,-0.665831 -0.325645,-0.998746 -0.05722,-0.213548 -0.114438,-0.427087 -0.171656,-0.64063 -0.02245,0.04448 -0.0449,0.08897 -0.06736,0.13345 -0.22655,0.813918 -0.45309,1.627803 -0.679635,2.441704 -0.02368,0.03417 -0.04735,0.06835 -0.07103,0.102523 -0.10242,-0.204686 -0.204836,-0.409364 -0.307254,-0.614046 -0.212038,-0.374567 -0.424067,-0.74912 -0.6361,-1.12368 -0.174066,-0.489795 -0.348126,-0.979571 -0.52219,-1.469357 -0.04341,-0.22215 -0.08681,-0.444292 -0.130217,-0.666438 -0.04145,-0.07626 -0.08289,-0.152525 -0.124341,-0.228788 -0.103703,0.0017 -0.207402,0.0033 -0.311103,0.005 -0.05418,0.16831 -0.108351,0.336614 -0.162527,0.50492 -0.04429,0.143995 -0.08857,0.287984 -0.132852,0.431976 -0.193645,0.08868 -0.387282,0.177357 -0.580923,0.266036 -0.59335,0.332091 -1.186676,0.66417 -1.780014,0.996255 -0.06907,0.0424 -0.138144,0.08481 -0.207216,0.12721 -0.05339,8.49e-4 -0.106767,0.0017 -0.160151,0.0025 -0.09203,-0.296551 -0.184065,-0.59309 -0.276097,-0.889635 C 67.0344,25.583776 66.917602,25.321146 66.800802,25.05851 66.5683,24.6012 66.335807,24.143908 66.10331,23.686607 65.956646,23.362612 65.809989,23.03863 65.663328,22.714641 c -0.07519,-0.281395 -0.150385,-0.562779 -0.225577,-0.844169 -0.07514,-0.277081 -0.150279,-0.554151 -0.225418,-0.831226 -0.06699,-0.07537 -0.133983,-0.150732 -0.200975,-0.226098 -0.106777,0.02228 -0.21355,0.04456 -0.320324,0.06684 -0.124817,0.199702 -0.249628,0.399396 -0.374442,0.599094 -0.357608,0.434624 -0.715202,0.869231 -1.072803,1.303846 -0.103395,0.09251 -0.206786,0.185013 -0.310179,0.277519 -0.02074,0.0324 -0.04148,0.06481 -0.06222,0.09721 -0.656308,0.03483 -1.31259,0.06966 -1.968886,0.104495 -0.499448,0.04205 -0.998877,0.0841 -1.498315,0.126146 -0.255726,0.02263 -0.511442,0.04526 -0.767162,0.06789 -0.194651,0.01874 -0.389293,0.03747 -0.58394,0.05621 -0.127281,0.02961 -0.254557,0.05921 -0.381836,0.08882 -0.0777,0.03747 -0.155392,0.07494 -0.233088,0.112418 -0.02976,0.0035 -0.05953,0.007 -0.08929,0.01046 -0.05534,-0.133111 -0.110677,-0.266216 -0.166016,-0.399325 -0.01666,-0.244522 -0.03331,-0.489035 -0.04997,-0.733552 -0.02134,-0.308663 -0.04267,-0.617314 -0.06401,-0.92597 -0.0052,-0.08877 -0.01048,-0.17754 -0.01572,-0.26631 -0.06642,-0.118449 -0.132842,-0.236893 -0.199263,-0.35534 -0.08881,0.01549 -0.177607,0.03098 -0.26641,0.04647 -0.147583,0.494259 -0.29516,0.988498 -0.442741,1.482747 -0.169666,0.48966 -0.339325,0.979301 -0.508988,1.468952 -0.24278,0.159111 -0.485551,0.318217 -0.728326,0.477325 -0.220343,0.126962 -0.440678,0.253919 -0.661017,0.380878 -0.225178,0.103931 -0.450346,0.207858 -0.67552,0.311786 -0.16085,0.0827 -0.321693,0.165404 -0.48254,0.248105 -0.182551,0.07591 -0.365095,0.151811 -0.547643,0.227717 -0.276508,0.05175 -0.553004,0.103489 -0.829507,0.155234 -0.349966,-0.14218 -0.699919,-0.284355 -1.049879,-0.426532 -0.270038,-0.254024 -0.540066,-0.508038 -0.810099,-0.762057 -0.120389,-0.256835 -0.240773,-0.51366 -0.361159,-0.770489 -0.06242,-0.218193 -0.12483,-0.436377 -0.187245,-0.654565 -0.01692,-0.08582 -0.03384,-0.171633 -0.05076,-0.257449 -0.01111,-0.03365 -0.02222,-0.06729 -0.03334,-0.100936 -0.03906,0.0271 -0.07812,0.05421 -0.117172,0.08131 -0.03073,0.03672 -0.06145,0.07343 -0.09218,0.110147 z" /><path
         style="fill:#ffffff;fill-opacity:1;fill-rule:evenodd;stroke-width:2"
         d="m 52.209113,36.264495 c -8.84e-4,-0.128417 -0.0027,-0.38525 0.06893,-0.569814 0.07158,-0.184565 0.216513,-0.296855 0.467191,-0.412251 0.250678,-0.115396 0.607088,-0.233891 1.255358,-0.316167 0.64827,-0.08228 1.588356,-0.128329 2.569868,-0.08299 0.981511,0.04534 2.004389,0.182059 2.734276,0.34467 0.729886,0.162611 1.166743,0.3511 1.483244,0.466285 0.316501,0.115185 0.512627,0.15706 0.734433,0.09968 0.221806,-0.05738 0.469274,-0.214009 0.704854,-0.337131 0.23558,-0.123122 0.45926,-0.212731 0.631987,-0.279189 0.172728,-0.06646 0.294493,-0.109761 0.380186,-0.09376 0.08569,0.016 0.135305,0.09131 0.231036,0.245105 0.09573,0.1538 0.237572,0.386084 0.311486,0.542359 0.07391,0.156275 0.0799,0.236531 0.01006,0.552031 -0.06984,0.315499 -0.215484,0.866218 -0.320152,1.210882 -0.104668,0.344664 -0.16835,0.48326 -0.289368,0.642467 -0.121018,0.159207 -0.299362,0.339017 -0.423368,0.488602 -0.124005,0.149585 -0.193665,0.268938 -0.225449,0.392135 -0.03178,0.123197 -0.02569,0.250231 -0.0052,0.350914 0.02049,0.100683 0.05538,0.175009 0.03575,0.279526 -0.01963,0.104518 -0.09378,0.239221 -0.151283,0.380972 -0.0575,0.141752 -0.09835,0.290544 -0.102051,0.38571 -0.0037,0.09517 0.02975,0.136697 0.222994,0.0015 0.193243,-0.13523 0.546262,-0.447214 0.889323,-0.771672 0.343061,-0.324458 0.676143,-0.661371 1.017806,-1.085398 0.341662,-0.424027 0.691885,-0.935141 0.964462,-1.399648 0.272577,-0.464506 0.467493,-0.882377 0.609201,-1.239684 0.141707,-0.357308 0.230199,-0.654035 0.265433,-0.841964 0.03524,-0.18793 0.01721,-0.267051 0.0082,-0.323433 -0.009,-0.05638 -0.009,-0.09002 0.108386,-0.106843 0.117398,-0.01682 0.352185,-0.01682 0.688938,-0.0016 0.336754,0.01525 0.775452,0.04575 1.124432,0.08852 0.34898,0.04277 0.608223,0.09781 0.833084,0.131423 0.224861,0.03361 0.415326,0.0458 0.566365,0.09069 0.151039,0.04489 0.262639,0.12247 0.337115,0.279812 0.07448,0.157341 0.111822,0.394429 0.133487,0.622716 0.02166,0.228287 0.02765,0.447758 0.08232,0.558096 0.05468,0.110338 0.158039,0.111538 0.285598,0.121783 0.12756,0.01024 0.279308,0.02953 0.573617,0.09802 0.29431,0.06849 0.73116,0.186161 1.012269,0.311187 0.281108,0.125027 0.406461,0.257396 0.536536,0.44355 0.130074,0.186154 0.264863,0.426081 0.358782,0.629617 0.09392,0.203537 0.146964,0.37067 0.235375,0.496889 0.08841,0.126219 0.212182,0.211517 0.299349,0.279556 0.08717,0.06804 0.137721,0.118807 0.18747,0.234877 0.04975,0.11607 0.09869,0.29743 0.147913,0.493581 0.04922,0.196152 0.09873,0.407082 0.154982,0.622811 0.05625,0.215728 0.119254,0.436243 0.141386,0.572448 0.02213,0.136205 0.0034,0.188089 -0.01838,0.239414 -0.02178,0.05132 -0.0466,0.102089 -0.335278,0.119763 -0.288678,0.01767 -0.841194,0.0023 -4.715965,-0.0054 -3.87477,-0.0077 -11.071497,-0.0077 -14.662402,-0.01515 -3.590906,-0.0074 -3.575846,-0.02232 -3.551684,-0.08286 0.02416,-0.06054 0.05743,-0.166731 0.09964,-0.566992 0.04222,-0.400262 0.09339,-1.094563 0.152917,-1.632599 0.05953,-0.538037 0.127417,-0.91978 0.177807,-1.202279 0.05039,-0.282499 0.08328,-0.465739 0.118381,-0.612325 0.0351,-0.146586 0.07242,-0.256513 0.132474,-0.34335 0.06006,-0.08684 0.142857,-0.15058 0.224643,-0.161724 0.08179,-0.01114 0.162552,0.03031 0.224884,0.04681 0.06233,0.0165 0.106216,0.008 0.147677,-0.03807 0.04146,-0.04611 0.0805,-0.129874 0.100023,-0.171755 0.01952,-0.04188 0.01952,-0.04188 0.01864,-0.1703 z"
         id="path4"
         inkscape:path-effect="#path-effect4-5"
         inkscape:original-d="m 52.209996,36.392912 c -0.0018,-0.256834 -0.0035,-0.513667 -0.0053,-0.770501 0.144935,-0.112295 0.289864,-0.224585 0.434796,-0.336877 0.356424,-0.1185 0.712834,-0.236995 1.069251,-0.355493 0.940123,-0.04605 1.880209,-0.09211 2.820313,-0.13816 1.022919,0.136727 2.045797,0.273449 3.068696,0.410174 0.436874,0.188497 0.873731,0.376986 1.310597,0.565479 0.196135,0.04188 0.392263,0.08375 0.588395,0.125629 0.247479,-0.156636 0.494947,-0.313265 0.742421,-0.469897 0.223687,-0.08961 0.447366,-0.179221 0.671049,-0.268832 0.12177,-0.04331 0.243536,-0.08661 0.365304,-0.129911 0.04962,0.07531 0.09923,0.150613 0.148846,0.225919 0.141847,0.232293 0.283688,0.464577 0.425532,0.696866 0.006,0.08026 0.01197,0.160517 0.01795,0.240775 -0.145654,0.550741 -0.291303,1.10146 -0.436955,1.65219 -0.06368,0.1386 -0.127366,0.277194 -0.191049,0.415791 -0.178353,0.179817 -0.356697,0.359627 -0.535046,0.53944 -0.06966,0.119358 -0.139322,0.23871 -0.208983,0.358065 0.0061,0.127039 0.01219,0.254073 0.01828,0.381109 0.03489,0.07433 0.06978,0.148656 0.104671,0.222984 -0.07415,0.134708 -0.148304,0.26941 -0.222456,0.404116 -0.04085,0.148797 -0.0817,0.297589 -0.122552,0.446384 0.03345,0.04154 0.0669,0.08307 0.100355,0.124605 0.353034,-0.311997 0.706053,-0.623981 1.05908,-0.935971 0.333095,-0.336926 0.666177,-0.673839 0.999265,-1.010758 0.350237,-0.511135 0.70046,-1.022249 1.05069,-1.533374 0.194924,-0.417888 0.38984,-0.835759 0.584761,-1.253639 0.08849,-0.296736 0.176986,-0.593462 0.265479,-0.890192 -0.01802,-0.07913 -0.03605,-0.158249 -0.05407,-0.237374 0,-0.03364 0,-0.06728 0,-0.100922 0.234796,0 0.469583,0 0.704375,0 0.438715,0.0305 0.877413,0.061 1.31612,0.0915 0.259253,0.05504 0.518496,0.110079 0.777745,0.165119 0.190473,0.01219 0.380938,0.02437 0.571408,0.03656 0.111606,0.07759 0.223208,0.15517 0.334812,0.232755 0.03735,0.237098 0.07469,0.474187 0.112041,0.711281 0.006,0.219479 0.01197,0.43895 0.01795,0.658426 0.103368,0.0012 0.206731,0.0024 0.310096,0.0036 0.151754,0.01929 0.303502,0.03858 0.455253,0.05787 0.436868,0.117681 0.873718,0.235357 1.310578,0.353036 0.125357,0.132374 0.25071,0.264743 0.376065,0.397114 0.134794,0.239937 0.269582,0.479864 0.404374,0.719796 0.05305,0.16714 0.106092,0.334274 0.159138,0.501411 0.123776,0.0853 0.247547,0.170599 0.37132,0.255898 0.05056,0.05078 0.101115,0.101547 0.151672,0.152321 0.04894,0.181366 0.09788,0.362726 0.146822,0.544089 0.04951,0.210939 0.09901,0.42187 0.148517,0.632804 0.063,0.220524 0.126002,0.441038 0.189003,0.661557 -0.01874,0.05189 -0.03747,0.103776 -0.05621,0.155664 -0.02482,0.05076 -0.04964,0.101525 -0.07446,0.152287 -0.552537,-0.01541 -1.105053,-0.03083 -1.657579,-0.04624 -7.197015,0 -14.393742,0 -21.590613,0 0.01506,-0.01488 0.03012,-0.02976 0.04518,-0.04464 0.03327,-0.106198 0.06653,-0.21239 0.09979,-0.318585 0.05117,-0.694329 0.102341,-1.38863 0.153511,-2.082944 0.06789,-0.381759 0.135777,-0.763502 0.203666,-1.145252 0.03289,-0.183248 0.06578,-0.366488 0.09867,-0.549732 0.03731,-0.109929 0.07463,-0.219854 0.111942,-0.329782 0.0828,-0.06375 0.165601,-0.12749 0.248401,-0.191235 0.08077,0.04146 0.161538,0.08291 0.242306,0.124366 0.04389,-0.0085 0.08778,-0.01692 0.131663,-0.02538 0.03904,-0.08376 0.07808,-0.167525 0.117122,-0.251288 z" /><path
         style="fill:#ffffff;fill-opacity:1;fill-rule:evenodd;stroke:none;stroke-width:0.5;stroke-dasharray:none;stroke-opacity:1"
         d="m 60.228758,50.282228 c 0.05709,-0.221945 0.171261,-0.665836 0.251141,-0.955608 0.07988,-0.289771 0.125464,-0.425415 0.187566,-0.51552 0.0621,-0.09011 0.140715,-0.134666 0.262855,-0.189356 0.122139,-0.05469 0.28779,-0.119503 0.50387,-0.147965 0.216079,-0.02846 0.482571,-0.02057 0.658303,0.05705 0.175732,0.07762 0.260694,0.224954 0.33619,0.384884 0.0755,0.159929 0.141523,0.33244 0.265579,0.656359 0.124056,0.32392 0.306134,0.799226 0.452215,1.219651 0.14608,0.420425 0.256155,0.785946 0.386726,1.210158 0.130572,0.424212 0.281631,0.907088 0.376515,1.191537 0.09489,0.284449 0.133591,0.37046 0.281411,0.477408 0.14782,0.106948 0.404742,0.234826 0.804591,0.297633 0.399848,0.06281 0.942596,0.06054 1.479459,0.05689 0.536864,-0.0037 1.06781,-0.0087 2.127588,-0.0091 1.059779,-4.51e-4 2.648314,0.0037 3.515002,0.0087 0.866687,0.005 1.011494,0.01083 1.150291,0.0052 0.138798,-0.0056 0.27158,-0.02278 0.41114,-0.120307 0.139559,-0.09753 0.285887,-0.275441 0.355542,-0.29801 0.06966,-0.02257 0.06264,0.110209 0.03088,0.605176 -0.03175,0.494967 -0.08823,1.352088 -0.08003,2.023783 0.0082,0.671694 0.0811,1.157927 0.124291,1.470383 0.04319,0.312455 0.05669,0.451119 0.09193,0.62596 0.03524,0.174841 0.09221,0.385846 0.100589,0.591272 0.0084,0.205425 -0.03185,0.405259 -0.01016,0.550294 0.02169,0.145036 0.105279,0.23526 0.207273,0.283047 0.101994,0.04779 0.222387,0.05313 0.323164,0.02826 0.100777,-0.02487 0.181933,-0.07996 0.21771,-0.158872 0.03578,-0.07891 0.02617,-0.181642 0.151705,-0.495723 0.125531,-0.31408 0.386184,-0.839487 0.627521,-1.362003 0.241337,-0.522515 0.463344,-1.042108 0.615348,-1.472766 0.152004,-0.430658 0.233997,-0.772354 0.28868,-1.07028 0.05468,-0.297926 0.08205,-0.552064 0.09394,-0.753297 0.01189,-0.201232 0.0083,-0.34955 0.03131,-0.429157 0.023,-0.07961 0.0726,-0.09051 0.115612,-0.06437 0.04301,0.02614 0.07944,0.0893 0.08145,0.251449 0.002,0.162153 -0.03041,0.423282 -0.07263,0.791321 -0.04222,0.36804 -0.09423,0.842967 -0.0985,1.147471 -0.0043,0.304504 0.03918,0.438569 0.07293,0.675863 0.03375,0.237293 0.05779,0.577796 0.01978,0.92796 -0.03801,0.350164 -0.138074,0.709968 -0.276562,1.050221 -0.138488,0.340253 -0.315394,0.660935 -0.411453,0.854129 -0.09606,0.193195 -0.111264,0.258886 -0.112885,0.334271 -0.0016,0.07538 0.01034,0.16044 0.0017,0.220133 -0.0086,0.05969 -0.03789,0.09402 -0.259732,0.154607 -0.221839,0.06059 -0.63626,0.147436 -0.845494,0.21592 -0.209234,0.06848 -0.213274,0.1186 -0.148234,0.189045 0.06504,0.07044 0.199153,0.161216 0.312051,0.237094 0.112899,0.07588 0.204569,0.13685 0.263118,0.210593 0.05855,0.07374 0.08397,0.160246 0.0027,0.241208 -0.08129,0.08096 -0.269296,0.156378 -0.449294,0.206009 -0.179997,0.04963 -0.351981,0.07347 -0.503326,0.0656 -0.151345,-0.0079 -0.282046,-0.04745 -0.419662,-0.04476 -0.137617,0.0027 -0.282139,0.04767 -0.384867,0.31514 -0.102728,0.267471 -0.163655,0.757421 -0.204889,1.093388 -0.04123,0.335968 -0.06277,0.517936 -0.173308,0.738072 -0.110533,0.220136 -0.310052,0.478425 -0.492341,0.630938 -0.182289,0.152513 -0.347338,0.199243 -0.477729,0.236083 -0.130391,0.03684 -0.226108,0.06378 -0.366874,0.158925 -0.140765,0.09514 -0.326563,0.25847 -1.030785,0.749192 -0.704223,0.490721 -1.926817,1.308799 -2.578815,1.729599 -0.651999,0.420799 -0.733373,0.444301 -1.255956,0.547843 -0.522583,0.103542 -1.486331,0.287115 -2.032573,0.376241 -0.546242,0.08913 -0.674955,0.0838 -0.94371,0.07192 -0.268756,-0.01189 -0.677536,-0.03034 -1.102001,-0.04642 -0.424465,-0.01608 -0.86459,-0.02979 -1.479119,-0.06075 -0.614529,-0.03096 -1.403422,-0.07916 -2.013155,-0.149545 -0.609732,-0.07039 -1.040272,-0.162958 -1.336711,-0.250337 -0.296439,-0.08738 -0.45876,-0.169565 -0.743943,-0.477025 -0.285183,-0.307461 -0.693208,-0.840174 -0.893106,-1.164241 -0.199898,-0.324066 -0.191662,-0.439476 -0.182803,-0.675061 0.0089,-0.235585 0.01834,-0.591329 0.05882,-0.802799 0.04049,-0.21147 0.111978,-0.278658 0.425263,-0.493792 0.313284,-0.215134 0.868338,-0.578198 1.179856,-0.759733 0.311517,-0.181536 0.379484,-0.181536 1.144917,-0.21435 0.765433,-0.03281 2.228271,-0.09844 3.159047,-0.134299 0.930776,-0.03586 1.329445,-0.04195 1.549181,-0.04792 0.219735,-0.006 0.260541,-0.01181 0.283718,-0.03646 0.02318,-0.02466 0.02873,-0.06812 -0.0094,-0.11251 -0.03816,-0.04439 -0.120029,-0.0897 -0.367939,-0.218552 -0.24791,-0.128855 -0.661843,-0.341246 -0.969145,-0.46414 -0.307303,-0.122894 -0.507956,-0.156284 -1.17203,-0.222049 -0.664075,-0.06577 -1.79152,-0.163901 -2.410189,-0.199076 -0.61867,-0.03518 -0.728537,-0.0074 -0.993851,0.07934 -0.265315,0.08673 -0.686062,0.232389 -0.908914,0.306472 -0.222852,0.07408 -0.247802,0.07658 -0.389423,-0.01955 -0.141622,-0.09613 -0.399915,-0.290879 -0.536163,-0.399301 -0.136248,-0.108423 -0.150442,-0.130509 -0.15083,-0.153835 -3.87e-4,-0.02332 0.01304,-0.04789 0.09325,-0.09492 0.08021,-0.04703 0.227209,-0.116518 0.470113,-0.225877 0.242904,-0.109359 0.581699,-0.258578 0.8074,-0.33684 0.225701,-0.07826 0.338296,-0.08556 0.779438,-0.144704 0.441143,-0.05914 1.2108,-0.170126 1.769341,-0.216689 0.558541,-0.04656 0.905937,-0.02871 1.377025,-0.0077 0.471088,0.02104 1.065838,0.04525 1.4825,0.08055 0.416661,0.0353 0.655214,0.08167 0.951957,0.130186 0.296742,0.04852 0.651655,0.09919 0.941484,0.148573 0.289828,0.04939 0.514559,0.09749 0.65648,0.128672 0.141921,0.03118 0.201022,0.04545 0.245201,0.04612 0.04418,6.76e-4 0.07342,-0.01223 0.06297,-0.03838 -0.01044,-0.02615 -0.06058,-0.06553 -0.461391,-0.341597 -0.400813,-0.276072 -1.152274,-0.788815 -1.543766,-1.058053 -0.391491,-0.269238 -0.422997,-0.29496 -0.57842,-0.314057 -0.155423,-0.0191 -0.43475,-0.03157 -0.626888,-0.0092 -0.192139,0.02236 -0.297076,0.07955 -0.500113,0.183086 -0.203036,0.103541 -0.504156,0.253429 -0.666782,0.330737 -0.162625,0.07731 -0.186741,0.08203 -0.241316,0.06707 -0.05458,-0.01496 -0.13958,-0.0496 -0.398014,-0.178202 -0.258435,-0.128598 -0.690279,-0.35114 -0.938475,-0.461114 -0.248196,-0.109973 -0.312735,-0.107373 -0.476557,-0.10817 -0.163821,-7.96e-4 -0.426913,-0.005 -0.595591,0.01038 -0.168678,0.01538 -0.242931,0.05032 -0.714104,0.287695 -0.471172,0.23738 -1.339224,0.67718 -1.787164,0.897084 -0.447939,0.219904 -0.475739,0.219904 -0.631452,0.114178 -0.155714,-0.105725 -0.439329,-0.317168 -0.612428,-0.478723 -0.173099,-0.161555 -0.23567,-0.273209 -0.554672,-1.047578 -0.319001,-0.77437 -0.894408,-2.211392 -1.235143,-3.063747 -0.340736,-0.852355 -0.446785,-1.120003 -0.519345,-1.316255 -0.07256,-0.196252 -0.111628,-0.321099 -0.139874,-0.408399 -0.02825,-0.0873 -0.04567,-0.137059 -0.02878,-0.157271 0.01689,-0.02021 0.0681,-0.01088 0.311957,-0.01221 0.243856,-0.0013 0.680348,-0.01329 1.304552,-0.02316 0.624204,-0.0099 1.436078,-0.01764 1.979146,-0.02419 0.543068,-0.0065 0.817302,-0.01186 0.958087,0.01276 0.140785,0.02462 0.148115,0.07916 0.194008,0.398786 0.04589,0.319623 0.130344,0.904302 0.207935,1.546375 0.07759,0.642072 0.148316,1.3415 0.193668,1.722421 0.04535,0.380922 0.06533,0.443316 0.255698,0.601298 0.19037,0.157982 0.55112,0.411538 0.759859,0.543527 0.208739,0.131989 0.265453,0.142405 0.380867,0.150219 0.115414,0.0078 0.289516,0.01302 0.560645,-0.0061 0.271129,-0.01913 0.639266,-0.0626 0.923593,-0.122837 0.284328,-0.06024 0.484833,-0.137238 0.927355,-0.536081 0.442522,-0.398843 1.12703,-1.119499 1.670541,-1.696552 0.543511,-0.577053 0.945994,-1.010471 1.14247,-1.257141 0.196475,-0.246671 0.186935,-0.306587 0.154475,-0.331413 -0.03246,-0.02482 -0.08783,-0.01456 -0.131621,0.03131 -0.04379,0.04587 -0.07598,0.12734 -0.157771,0.207944 -0.08179,0.0806 -0.213166,0.160334 -0.308822,0.210416 -0.09566,0.05008 -0.15559,0.07052 -0.57033,0.05874 -0.41474,-0.01178 -1.184257,-0.05576 -1.623842,-0.106013 -0.439585,-0.05025 -0.549221,-0.106777 -0.798738,-0.257216 -0.249517,-0.150438 -0.638897,-0.394782 -0.8512,-0.553117 -0.212302,-0.158336 -0.247519,-0.230659 -0.283256,-0.39973 -0.03574,-0.169071 -0.07199,-0.434878 -0.07961,-0.649946 -0.0076,-0.215068 0.01341,-0.379385 0.06446,-0.528475 0.05105,-0.14909 0.132129,-0.282946 0.170063,-0.407463 0.03793,-0.124517 0.03272,-0.239688 0.0074,-0.354257 -0.02532,-0.114568 -0.07075,-0.228529 -0.113357,-0.324274 -0.04261,-0.09575 -0.08239,-0.17327 -0.06039,-0.354944 0.022,-0.181673 0.105791,-0.467481 0.162146,-0.667242 0.05635,-0.199762 0.08528,-0.313468 0.09974,-0.370322 0.01446,-0.05685 0.01442,-0.05681 0.07151,-0.278754 z"
         id="path6"
         inkscape:path-effect="#path-effect6"
         inkscape:original-d="m 60.171671,50.504173 c 0.114174,-0.44389 0.228348,-0.887781 0.342522,-1.331672 0.04559,-0.135651 0.09117,-0.271296 0.136755,-0.406944 0.07862,-0.04456 0.157234,-0.08912 0.23585,-0.133686 0.16566,-0.06482 0.331312,-0.12963 0.496968,-0.194445 0.266503,0.0079 0.532995,0.01578 0.799492,0.02367 0.08497,0.147344 0.169929,0.294682 0.254893,0.442023 0.06603,0.172518 0.132055,0.345029 0.198082,0.517543 0.182085,0.475325 0.364163,0.950631 0.546245,1.425946 0.110079,0.365535 0.220154,0.731056 0.330231,1.096584 0.151066,0.482896 0.302125,0.965772 0.453187,1.448658 0.03871,0.08601 0.07741,0.172025 0.116121,0.258037 0.256932,0.127883 0.513854,0.25576 0.770782,0.38364 0.542769,-0.0023 1.085517,-0.0045 1.628275,-0.0068 0.530969,-0.005 1.061915,-0.01008 1.592873,-0.01512 1.588599,0.0041 3.177134,0.0083 4.765701,0.01241 0.14481,0.0058 0.289615,0.01168 0.434423,0.01752 0.132787,-0.01713 0.265569,-0.03427 0.398354,-0.0514 0.146334,-0.177921 0.292662,-0.355835 0.438993,-0.533753 -0.007,0.132782 -0.01404,0.265558 -0.02106,0.398337 -0.05648,0.857155 -0.112964,1.714276 -0.169446,2.571415 0.07289,0.486251 0.145785,0.972483 0.218677,1.458724 0.0135,0.13867 0.02699,0.277334 0.04049,0.416001 0.05698,0.211014 0.113953,0.42202 0.170929,0.63303 -0.04022,0.199842 -0.08044,0.399676 -0.120668,0.599514 0.0836,0.09023 0.167189,0.180456 0.250783,0.270684 0.120396,0.0053 0.240787,0.01069 0.361181,0.01604 0.08116,-0.05509 0.162316,-0.110179 0.243474,-0.165268 -0.0096,-0.102735 -0.01921,-0.205465 -0.02881,-0.308197 0.260665,-0.525429 0.521318,-1.050836 0.781977,-1.576254 0.222016,-0.519613 0.444022,-1.039206 0.666033,-1.55881 0.082,-0.341711 0.16399,-0.683408 0.245985,-1.025112 0.02737,-0.254148 0.05474,-0.508286 0.08211,-0.762429 -0.0036,-0.148322 -0.0072,-0.296639 -0.01076,-0.444958 0.04959,-0.0109 0.09919,-0.02179 0.14878,-0.03269 0.03643,0.06317 0.07286,0.126329 0.109293,0.189494 -0.03242,0.26114 -0.06484,0.522269 -0.09726,0.783403 -0.05201,0.474945 -0.104024,0.949872 -0.156036,1.424807 0.04346,0.134072 0.08691,0.268139 0.130369,0.402208 0.02404,0.340517 0.04808,0.68102 0.07212,1.02153 -0.100065,0.359818 -0.200126,0.719622 -0.30019,1.079433 -0.176913,0.320695 -0.353819,0.641377 -0.530729,0.962065 -0.01521,0.0657 -0.03041,0.131393 -0.04562,0.19709 0.01197,0.08507 0.02393,0.170127 0.03589,0.25519 -0.02925,0.03432 -0.0585,0.06865 -0.08774,0.102969 -0.414437,0.08685 -0.828857,0.173704 -1.243285,0.260556 -0.004,0.05012 -0.0081,0.10023 -0.01212,0.150345 0.134119,0.09078 0.268233,0.181548 0.40235,0.272323 0.09168,0.06098 0.18335,0.121953 0.275026,0.18293 0.02542,0.08651 0.05084,0.173012 0.07626,0.259517 -0.18801,0.07542 -0.376011,0.150836 -0.564017,0.226253 -0.17199,0.02384 -0.343973,0.04769 -0.515959,0.07153 -0.130705,-0.03958 -0.261404,-0.07917 -0.392106,-0.118751 -0.14453,0.04498 -0.289053,0.08995 -0.43358,0.134921 -0.06093,0.489969 -0.121857,0.979919 -0.182785,1.469878 -0.02154,0.181976 -0.04308,0.363944 -0.06462,0.545916 -0.199527,0.2583 -0.399046,0.516589 -0.598569,0.774884 -0.165055,0.04673 -0.330104,0.09346 -0.495156,0.140192 -0.09573,0.02695 -0.191448,0.05389 -0.287172,0.08084 -0.185806,0.163336 -0.371604,0.326664 -0.557407,0.489997 -1.222642,0.81811 -2.445236,1.636188 -3.667854,2.454283 -0.08138,0.0235 -0.162755,0.047 -0.244132,0.07051 -0.963787,0.18358 -1.927535,0.367152 -2.891302,0.550729 -0.128718,-0.0053 -0.25743,-0.01065 -0.386145,-0.01597 -0.408796,-0.01845 -0.817576,-0.03691 -1.226364,-0.05536 -0.440142,-0.01371 -0.880267,-0.02742 -1.320401,-0.04113 -0.788924,-0.0482 -1.577817,-0.0964 -2.366726,-0.144607 -0.430557,-0.09257 -0.861096,-0.185143 -1.291645,-0.277714 -0.162328,-0.08219 -0.32465,-0.164373 -0.486975,-0.246559 -0.408041,-0.532735 -0.816066,-1.065448 -1.224099,-1.598172 0.0082,-0.115412 0.01647,-0.230819 0.02471,-0.346229 0.0095,-0.355759 0.01896,-0.711504 0.02844,-1.067256 0.07149,-0.06719 0.142984,-0.134377 0.214477,-0.201565 0.555076,-0.363079 1.11013,-0.726143 1.665195,-1.089214 0.06797,0 0.135937,0 0.203906,0 1.462897,-0.06563 2.925735,-0.131253 4.388602,-0.196879 0.398685,-0.0061 0.797354,-0.01218 1.196031,-0.01828 0.0408,-0.0058 0.0816,-0.01168 0.122403,-0.01752 0.0056,-0.04347 0.0111,-0.08694 0.01665,-0.130406 -0.08187,-0.04531 -0.163739,-0.09062 -0.245608,-0.135929 -0.413951,-0.2124 -0.827884,-0.424791 -1.241827,-0.637187 -0.200662,-0.03339 -0.401315,-0.06678 -0.601973,-0.100173 -1.127491,-0.09814 -2.254936,-0.196275 -3.382403,-0.294413 -0.109871,0.02779 -0.219737,0.05558 -0.329605,0.08336 -0.420763,0.145668 -0.84151,0.29133 -1.262264,0.436995 -0.02495,0.0025 -0.0499,0.005 -0.07484,0.0075 -0.258303,-0.194757 -0.516596,-0.389507 -0.774894,-0.58426 -0.0142,-0.02209 -0.02839,-0.04418 -0.04259,-0.06627 0.01342,-0.02456 0.02685,-0.04912 0.04027,-0.07368 0.147004,-0.0695 0.294001,-0.138986 0.441001,-0.20848 0.338808,-0.149225 0.677603,-0.298444 1.016405,-0.447667 0.1126,-0.0073 0.225195,-0.0146 0.337792,-0.0219 0.769688,-0.110986 1.539345,-0.221968 2.309018,-0.332953 0.347409,0.01786 0.694805,0.03571 1.042207,0.05357 0.594774,0.02422 1.189524,0.04843 1.784286,0.07265 0.238562,0.04637 0.477115,0.09274 0.715672,0.139116 0.354927,0.05067 0.70984,0.101335 1.064761,0.152003 0.224737,0.0481 0.449466,0.09621 0.6742,0.144309 0.05911,0.01426 0.118212,0.02852 0.177318,0.04279 0.02925,-0.01291 0.05849,-0.02582 0.08774,-0.03873 -0.05014,-0.03938 -0.100272,-0.07876 -0.150408,-0.118143 -0.75149,-0.512763 -1.502951,-1.025505 -2.254427,-1.538257 -0.03151,-0.02572 -0.06301,-0.05145 -0.09452,-0.07717 -0.279339,-0.01247 -0.558666,-0.02494 -0.838,-0.03741 -0.104942,0.05719 -0.20988,0.114374 -0.314821,0.171561 -0.301132,0.149895 -0.602252,0.299784 -0.903378,0.449675 -0.02413,0.0047 -0.04825,0.0094 -0.07238,0.01417 -0.08501,-0.03465 -0.170016,-0.06929 -0.255023,-0.103934 -0.431862,-0.222551 -0.863706,-0.445094 -1.295558,-0.667641 -0.06454,0.0026 -0.129079,0.0052 -0.193619,0.0078 -0.263103,-0.0042 -0.526195,-0.0084 -0.789292,-0.01258 -0.07426,0.03494 -0.148514,0.06988 -0.222771,0.104826 -0.868086,0.439817 -1.736138,0.879617 -2.604207,1.319425 -0.02781,0 -0.05561,0 -0.08341,0 -0.283627,-0.211451 -0.567242,-0.422894 -0.850864,-0.634341 -0.06258,-0.111661 -0.125147,-0.223317 -0.187721,-0.334976 -0.575429,-1.43708 -1.150836,-2.874102 -1.726254,-4.311154 -0.106053,-0.267658 -0.212102,-0.535306 -0.318153,-0.802959 -0.03907,-0.124851 -0.07814,-0.249697 -0.117206,-0.374546 -0.01743,-0.04975 -0.03485,-0.09951 -0.05227,-0.149261 0.0512,0.0093 0.102408,0.01866 0.153612,0.02798 0.43651,-0.01197 0.873002,-0.02393 1.309504,-0.0359 0.811906,-0.0078 1.62378,-0.01555 2.43567,-0.02332 0.274246,-0.0053 0.54848,-0.01062 0.82272,-0.01594 0.0073,0.05455 0.01466,0.109093 0.02199,0.163639 0.08445,0.584701 0.168907,1.169379 0.253361,1.754069 0.07073,0.699455 0.141453,1.398883 0.212179,2.098325 0.01998,0.0624 0.03995,0.124796 0.05993,0.187193 0.360764,0.253566 0.721514,0.507122 1.082271,0.760683 0.05672,0.01042 0.113436,0.02083 0.170153,0.03125 0.17411,0.0052 0.348212,0.01042 0.522318,0.01563 0.368152,-0.04347 0.736289,-0.08694 1.104433,-0.130411 0.200512,-0.077 0.401016,-0.154004 0.601524,-0.231007 0.684536,-0.720684 1.369044,-1.44134 2.053566,-2.16201 0.4025,-0.433436 0.804983,-0.866854 1.207474,-1.300281 -0.0095,-0.05992 -0.01908,-0.11983 -0.02862,-0.179745 -0.05538,0.01026 -0.110754,0.02052 -0.16613,0.03079 -0.0322,0.08148 -0.06439,0.162949 -0.09659,0.244424 -0.131382,0.07973 -0.262758,0.159462 -0.394138,0.239193 -0.05993,0.02044 -0.119865,0.04087 -0.179798,0.0613 -0.769548,-0.04398 -1.539065,-0.08797 -2.308598,-0.131953 -0.109639,-0.05652 -0.219273,-0.113046 -0.32891,-0.169569 -0.389397,-0.244354 -0.778777,-0.488698 -1.168166,-0.733047 -0.03522,-0.07232 -0.07043,-0.144646 -0.10565,-0.216969 -0.03626,-0.265818 -0.07251,-0.531625 -0.10877,-0.797437 0.02103,-0.164324 0.04206,-0.32864 0.06308,-0.49296 0.08108,-0.133861 0.162156,-0.267717 0.243234,-0.401576 -0.0052,-0.115175 -0.01042,-0.230346 -0.01563,-0.34552 -0.04543,-0.113963 -0.09086,-0.227923 -0.136287,-0.341884 -0.03979,-0.07753 -0.07957,-0.155056 -0.11936,-0.232584 0.08379,-0.285819 0.167581,-0.571626 0.251371,-0.857439 0.02892,-0.11371 0.05784,-0.227416 0.08676,-0.341124 z" /><path
         style="display:inline;fill:#dc1100;fill-opacity:1;fill-rule:evenodd;stroke:#00ffa2;stroke-width:0.5;stroke-dasharray:none;stroke-opacity:1"
         d="m 57.379452,41.310242 c 3.880382,0 11.641148,0 15.553011,0.01021 3.911863,0.01021 3.974815,0.03063 4.052474,0.0921 0.07766,0.06148 0.170021,0.164005 0.22924,0.28617 0.05922,0.122165 0.08529,0.263959 0.05276,0.507854 -0.03253,0.243896 -0.123651,0.589874 -0.568143,2.340175 -0.444493,1.750301 -1.24232,4.904789 -1.674729,6.521534 -0.432408,1.616745 -0.499378,1.69568 -0.642751,1.829497 -0.143372,0.133817 -0.363136,0.322506 -0.562164,0.475923 -0.199028,0.153417 -0.377309,0.271552 -0.490327,0.349409 -0.113018,0.07786 -0.160765,0.115431 -0.278347,0.131197 -0.117582,0.01577 -0.502097,0.0034 -1.746689,0.0034 -1.244592,0 -3.743751,0 -5.043615,-0.0094 -1.299863,-0.0094 -1.400379,-0.02828 -1.522508,-0.06848 -0.122129,-0.0402 -0.265866,-0.101734 -0.368584,-0.168585 -0.102718,-0.06685 -0.164414,-0.139011 -0.223126,-0.268617 -0.05871,-0.129607 -0.114438,-0.31665 -0.21034,-0.64876 -0.0959,-0.332109 -0.231975,-0.809261 -0.437044,-1.477898 -0.20507,-0.668637 -0.479123,-1.528716 -0.676213,-2.03811 -0.197091,-0.509393 -0.317208,-0.668079 -0.422649,-0.778058 -0.105441,-0.109979 -0.196205,-0.171248 -0.330008,-0.201883 -0.133804,-0.03063 -0.310641,-0.03063 -0.496141,-0.01299 -0.185501,0.01765 -0.379654,0.05294 -0.541387,0.112663 -0.161733,0.05972 -0.291032,0.143876 -0.401982,0.235955 -0.11095,0.09208 -0.20354,0.192073 -0.302114,0.509178 -0.09857,0.317105 -0.203126,0.851294 -0.291463,1.248274 -0.08834,0.396979 -0.160454,0.656728 -0.269962,1.084625 -0.109509,0.427897 -0.256403,1.023914 -0.364426,1.396324 -0.108023,0.372411 -0.177171,0.521199 -0.227002,0.622878 -0.04983,0.10168 -0.08034,0.15624 -0.162043,0.210437 -0.0817,0.0542 -0.214599,0.108024 -0.34506,0.14092 -0.130462,0.0329 -0.258482,0.04486 -0.544407,0.05014 -0.285925,0.0053 -0.729736,0.0039 -2.158812,0.01954 -1.429076,0.01566 -3.843312,0.04839 -5.117549,0.06475 -1.274238,0.01636 -1.408423,0.01636 -1.561695,-0.056 -0.153271,-0.07236 -0.32562,-0.217079 -0.420377,-0.355677 -0.09476,-0.138599 -0.111916,-0.271069 -0.420239,-2.153412 -0.308324,-1.882342 -0.907786,-5.514409 -1.204675,-7.361569 -0.296889,-1.847159 -0.291193,-1.909333 -0.265464,-1.969592 0.02573,-0.06026 0.07149,-0.118595 0.129676,-0.184114 0.05819,-0.06552 0.128803,-0.138216 0.211856,-0.201081 0.08305,-0.06287 0.178543,-0.115895 0.283067,-0.146924 0.104525,-0.03103 0.218084,-0.04006 0.363856,-0.04021 0.145773,-1.57e-4 0.323756,0.0086 1.233451,-0.0061 0.909695,-0.01467 2.551034,-0.05271 3.390029,-0.07255 0.838995,-0.01984 0.875607,-0.02147 0.893915,-0.02229 0.01831,-8.17e-4 0.01831,-7.92e-4 3.898696,-7.92e-4 z"
         id="path5-2"
         inkscape:path-effect="#path-effect5-3"
         inkscape:original-d="m 53.499069,41.310242 c 7.760765,0 15.521531,0 23.282297,0 0.06296,0.02042 0.125912,0.04084 0.188868,0.06126 0.09236,0.102532 0.184724,0.20506 0.277087,0.30759 0.02608,0.141799 0.05215,0.283593 0.07822,0.42539 -0.09113,0.345994 -0.18225,0.691973 -0.273376,1.03796 -0.79786,3.154615 -1.595688,6.309103 -2.393531,9.463655 -0.06697,0.07894 -0.133943,0.157873 -0.200915,0.236809 -0.219773,0.188698 -0.439537,0.377387 -0.659305,0.566081 -0.178288,0.11814 -0.356569,0.236274 -0.534853,0.354412 -0.04775,0.03758 -0.0955,0.07515 -0.143251,0.112728 -0.187288,-0.0099 -0.759211,-0.0283 -0.571927,-0.01845 -2.489184,-0.0074 -4.988343,-0.0037 -7.487552,0 -0.100519,-0.01885 -0.201033,-0.03771 -0.30155,-0.05656 -0.143742,-0.06154 -0.287479,-0.123077 -0.431218,-0.184616 -0.0617,-0.07216 -0.123392,-0.144323 -0.185089,-0.216484 -0.05573,-0.187051 -0.111454,-0.374095 -0.167181,-0.561143 -0.136078,-0.477171 -0.27215,-0.954323 -0.408225,-1.431485 -0.274063,-0.860112 -0.548116,-1.720191 -0.822175,-2.580286 -0.120123,-0.158692 -0.240241,-0.317378 -0.360361,-0.476068 -0.09076,-0.06127 -0.181525,-0.122537 -0.272288,-0.183806 -0.176844,0 -0.353681,0 -0.530521,0 -0.194161,0.03529 -0.388315,0.07058 -0.582472,0.105876 -0.129306,0.08416 -0.258607,0.168309 -0.38791,0.252463 -0.0926,0.100001 -0.185187,0.199998 -0.27778,0.299997 -0.104556,0.534211 -0.209107,1.0684 -0.313661,1.6026 -0.07212,0.259759 -0.144237,0.519508 -0.216355,0.779262 -0.146899,0.59604 -0.293792,1.192057 -0.440689,1.788085 -0.06915,0.148793 -0.138298,0.297581 -0.207447,0.446371 -0.03051,0.05457 -0.06102,0.109129 -0.09153,0.163693 -0.1329,0.05383 -0.265794,0.107656 -0.398691,0.161485 -0.128026,0.01196 -0.256046,0.02393 -0.384068,0.03589 -0.443828,-0.0014 -0.887639,-0.0028 -1.331458,-0.0042 -2.414333,0.03272 -4.828569,0.06544 -7.242854,0.09817 -0.13419,0 -0.268375,0 -0.402562,0 -0.172356,-0.144724 -0.344705,-0.289441 -0.517058,-0.434162 -0.01716,-0.132476 -0.03432,-0.264946 -0.05148,-0.397419 -0.599487,-3.632212 -1.198949,-7.264279 -1.798424,-10.896418 0.0057,-0.06218 0.01139,-0.124354 0.01709,-0.186532 0.04576,-0.05834 0.09152,-0.116675 0.137278,-0.175013 0.07062,-0.0727 0.141233,-0.145398 0.21185,-0.218097 0.09549,-0.05303 0.190979,-0.106061 0.286469,-0.159092 0.113561,-0.009 0.227117,-0.01806 0.340675,-0.02708 0.177989,0.0087 0.355971,0.01743 0.533957,0.02614 1.641404,-0.03804 3.282743,-0.07609 4.924114,-0.114131 0.03662,-0.0016 0.07323,-0.0033 0.109846,-0.0049 z" /><path
         style="fill:#ffffff;fill-opacity:1;fill-rule:evenodd;stroke:none;stroke-width:0.5;stroke-dasharray:none;stroke-opacity:1"
         d="m 73.846998,62.254199 c -0.01454,0.0878 -0.04362,0.263397 -0.08625,0.536083 -0.04263,0.272686 -0.09882,0.642441 -0.174358,0.924321 -0.07554,0.28188 -0.170438,0.475867 -0.360174,0.818333 -0.189736,0.342466 -0.474298,0.833386 -0.666228,1.17654 -0.19193,0.343154 -0.291218,0.538525 -0.355572,0.672887 -0.06436,0.134362 -0.09378,0.207715 -0.495144,0.623397 -0.401368,0.415683 -1.174654,1.173666 -1.590181,1.60026 -0.415527,0.426594 -0.473274,0.521774 -2.642475,4.514524 -2.169201,3.992751 -6.449682,11.882751 -8.58696,15.834683 -2.137278,3.951932 -2.131269,3.965637 -2.067102,4.060264 0.06417,0.09463 0.186485,0.270165 0.840741,1.269314 0.654256,0.999149 1.8404,2.821832 2.444248,3.747157 0.603848,0.925326 0.625372,0.953252 0.654132,0.96192 0.02876,0.0087 0.06475,-0.0019 0.188145,-0.161688 0.123396,-0.159759 0.334186,-0.468667 2.495402,-3.483373 2.161217,-3.014706 6.272691,-8.734976 8.335626,-11.618798 2.062934,-2.883821 2.077249,-2.931083 2.078903,-3.062763 0.0017,-0.13168 -0.0093,-0.347775 -0.04313,-0.485922 -0.03378,-0.138147 -0.09034,-0.198339 -0.122169,-0.262511 -0.03182,-0.06417 -0.03891,-0.132314 -0.111082,-0.249008 -0.07218,-0.116693 -0.209439,-0.281928 -0.286049,-0.540194 -0.07661,-0.258267 -0.09256,-0.60955 -0.14411,-0.853294 -0.05155,-0.243745 -0.138685,-0.37994 -0.166519,-0.516543 -0.02783,-0.136604 0.0036,-0.273609 0.142359,-1.570795 0.138724,-1.297186 0.384692,-3.754454 0.533182,-5.33328 0.148489,-1.578825 0.199493,-2.279132 0.21323,-2.993585 0.01374,-0.714454 -0.0098,-1.443012 -0.03802,-1.831558 -0.02823,-0.388547 -0.06116,-0.437074 -0.08608,-0.433374 -0.02491,0.0037 -0.04182,0.05962 -0.06724,0.22527 -0.02542,0.165645 -0.05935,0.441002 -0.115578,0.834291 -0.05623,0.39329 -0.134755,0.904485 -0.265631,1.571821 -0.130876,0.667337 -0.314094,1.490771 -0.443742,2.05268 -0.129647,0.561909 -0.205719,0.862266 -0.51563,1.691052 -0.309911,0.828786 -0.85364,2.185943 -1.258684,3.192983 -0.405044,1.00704 -0.671382,1.663911 -0.880691,2.084712 -0.20931,0.420802 -0.36158,0.605515 -0.57163,0.86959 -0.21005,0.264074 -0.477865,0.607494 -0.643875,0.78636 -0.16601,0.178865 -0.230215,0.193169 -0.267505,0.16588 -0.03729,-0.02729 -0.04767,-0.09618 -0.0012,-0.201486 0.04647,-0.10531 0.149797,-0.247041 0.494499,-1.076902 0.344703,-0.82986 0.93076,-2.347786 1.408664,-3.570406 0.477904,-1.222619 0.847628,-2.149864 1.20746,-3.236934 0.359831,-1.087071 0.709748,-2.333897 1.044463,-3.475481 0.334716,-1.141583 0.65421,-2.177856 0.829931,-2.786258 0.175721,-0.608402 0.20766,-0.788903 0.233325,-1.172727 0.02567,-0.383824 0.04506,-0.970944 0.03122,-1.235705 -0.01384,-0.264761 -0.06091,-0.207151 -0.08445,-0.178345 -0.02354,0.0288 -0.02354,0.02881 -0.03808,0.116608 z"
         id="path7"
         inkscape:path-effect="#path-effect10"
         inkscape:original-d="m 73.861536,62.166399 c -0.02908,0.175599 -0.05815,0.351198 -0.08723,0.526797 -0.05619,0.369771 -0.11237,0.739527 -0.168555,1.109291 -0.0949,0.193996 -0.189796,0.387983 -0.284694,0.581975 -0.284574,0.49094 -0.569136,0.98186 -0.853705,1.47279 -0.09929,0.195378 -0.198579,0.390749 -0.297868,0.586123 -0.02942,0.07335 -0.05884,0.146703 -0.08826,0.220054 -0.773317,0.758014 -1.546603,1.515997 -2.319905,2.273996 -0.05775,0.09519 -0.115499,0.190369 -0.173249,0.285554 -4.280652,7.890316 -8.561132,15.780316 -12.841699,23.670474 0.006,0.01371 0.01202,0.02741 0.01803,0.04112 0.122323,0.175545 0.244641,0.351083 0.366962,0.526625 1.186191,1.822756 2.372335,3.645439 3.558503,5.468158 0.02153,0.02793 0.04305,0.05586 0.06458,0.08379 0.03599,-0.0106 0.07198,-0.0212 0.107974,-0.03179 0.210799,-0.308921 0.421589,-0.617829 0.632383,-0.926743 4.111639,-5.720498 8.223113,-11.440768 12.334669,-17.161152 0.01431,-0.04726 0.02863,-0.09452 0.04294,-0.141777 -0.011,-0.216104 -0.022,-0.432199 -0.03301,-0.648298 -0.05656,-0.0602 -0.113126,-0.120387 -0.169689,-0.18058 -0.0071,-0.06815 -0.01417,-0.136293 -0.02125,-0.20444 -0.137268,-0.165241 -0.274532,-0.330475 -0.411798,-0.495712 -0.01595,-0.351296 -0.03191,-0.702579 -0.04786,-1.053868 -0.08714,-0.1362 -0.174279,-0.272395 -0.261418,-0.408592 0.03147,-0.13701 0.06294,-0.274015 0.09441,-0.411022 0.245978,-2.457365 0.491946,-4.914633 0.737919,-7.371949 0.05101,-0.700335 0.10201,-1.400642 0.153015,-2.100962 -0.02353,-0.728587 -0.04706,-1.457145 -0.07059,-2.185717 -0.03293,-0.04852 -0.06586,-0.09705 -0.09879,-0.145567 -0.0169,0.05592 -0.03381,0.111843 -0.05071,0.167765 -0.03393,0.275369 -0.06786,0.550726 -0.101794,0.82609 -0.07853,0.511215 -0.157053,1.02241 -0.23558,1.533615 -0.183225,0.823468 -0.366444,1.646902 -0.549665,2.470354 -0.07607,0.300367 -0.152145,0.600723 -0.228217,0.901085 -0.54375,1.35721 -1.087478,2.714367 -1.631218,4.07155 -0.266348,0.656897 -0.532686,1.313768 -0.79903,1.970652 -0.152276,0.184719 -0.304546,0.369432 -0.456819,0.554147 -0.267827,0.343434 -0.535642,0.686854 -0.803463,1.030282 -0.0642,0.0143 -0.128403,0.02861 -0.192604,0.04291 -0.01038,-0.06888 -0.02076,-0.137768 -0.03114,-0.206652 0.103327,-0.141736 0.20665,-0.283467 0.309975,-0.425201 0.58608,-1.517987 1.172137,-3.035913 1.758205,-4.553869 0.36974,-0.927283 0.739464,-1.854528 1.109196,-2.781792 0.349931,-1.246877 0.699848,-2.493703 1.049772,-3.740555 0.319507,-1.036315 0.639002,-2.072588 0.958502,-3.108883 0.03194,-0.180509 0.06388,-0.36101 0.09582,-0.541515 0.01939,-0.587143 0.03878,-1.174263 0.05817,-1.761395 -0.04707,0.05761 -0.09414,0.115221 -0.141212,0.172831 z" /><path
         style="fill:#ffffff;fill-opacity:1;fill-rule:evenodd;stroke:none;stroke-width:0.5;stroke-dasharray:none;stroke-opacity:1"
         d="m 28.707828,86.837401 c 0.02811,-0.01209 0.08432,-0.03626 0.451821,-0.193886 0.367503,-0.157625 1.046272,-0.448691 2.157031,-0.907637 1.110759,-0.458946 2.653434,-1.085742 3.457187,-1.406911 0.803752,-0.321168 0.868559,-0.336699 0.951742,-0.38343 0.08318,-0.04673 0.184746,-0.124662 0.900368,-0.62493 0.715623,-0.500267 2.045252,-1.422833 2.724495,-1.897516 0.679243,-0.474682 0.708073,-0.501462 0.739497,-0.517457 0.03142,-0.016 0.06545,-0.02121 0.501637,0.01519 0.436192,0.0364 1.274527,0.114407 1.702276,0.155346 0.42775,0.04094 0.444866,0.0448 0.438858,0.05617 -0.006,0.01137 -0.03517,0.03025 -0.22181,0.120053 -0.186641,0.0898 -0.530744,0.250531 -1.569713,0.757011 -1.038969,0.506479 -2.772729,1.358676 -3.654735,1.793374 -0.882007,0.434698 -0.912229,0.451882 -0.984957,0.47822 -0.07273,0.02634 -0.187961,0.06183 -1.45597,0.490431 -1.26801,0.428602 -3.688696,1.250282 -4.908461,1.662146 -1.219765,0.411864 -1.238562,0.413897 -1.247965,0.414914 -0.0094,0.001 -0.0094,9.89e-4 0.0187,-0.0111 z"
         id="path10"
         inkscape:path-effect="#path-effect14-5"
         inkscape:original-d="m 28.679724,86.849487 c 0.05621,-0.02417 0.112421,-0.04835 0.168632,-0.07252 0.678796,-0.291077 1.357565,-0.582143 2.036347,-0.873215 1.542736,-0.62682 3.085411,-1.253616 4.628116,-1.880424 0.0648,-0.01553 0.129607,-0.03106 0.194411,-0.04659 0.101564,-0.07793 0.203125,-0.155863 0.304687,-0.233795 1.329683,-0.922603 2.659312,-1.845169 3.988968,-2.767754 0.02883,-0.02678 0.05766,-0.05356 0.08649,-0.08034 0.03402,-0.0052 0.06804,-0.01042 0.102054,-0.01563 0.838369,0.07801 1.676704,0.156017 2.515056,0.234026 0.01714,0.0039 0.03427,0.0077 0.05141,0.0116 -0.02916,0.01888 -0.05832,0.03776 -0.08749,0.05663 -0.344116,0.160732 -0.688219,0.321458 -1.032328,0.482187 -1.733829,0.85223 -3.467589,1.704427 -5.201383,2.55664 -0.03022,0.01718 -0.06044,0.03437 -0.09066,0.05155 -0.115238,0.03549 -0.230471,0.07098 -0.345706,0.106476 -2.420783,0.821712 -4.841469,1.643392 -7.262203,2.465087 -0.0188,0.002 -0.0376,0.004 -0.0564,0.0061 z" /><path
         style="fill:#ffffff;fill-opacity:1;fill-rule:evenodd;stroke:none;stroke-width:0.5;stroke-dasharray:none;stroke-opacity:1"
         d="m 84.632356,82.207957 c 0.878552,0.53905 2.635655,1.617151 3.556662,2.177695 0.921007,0.560544 1.005911,0.603528 1.149332,0.662623 0.143421,0.05909 0.345348,0.134297 1.43696,0.561612 1.091611,0.427315 3.072825,1.206711 4.080356,1.610388 1.007531,0.403676 1.041341,0.431617 1.044036,0.447351 0.0027,0.01573 -0.02573,0.01927 -0.159382,-0.01715 -0.133647,-0.03641 -0.372521,-0.11276 -1.523511,-0.48438 -1.15099,-0.371619 -3.214011,-1.038481 -4.289153,-1.385127 -1.075141,-0.346645 -1.162363,-0.373062 -1.39998,-0.484939 -0.237616,-0.111877 -0.625611,-0.309206 -1.974527,-0.922543 -1.348917,-0.613338 -3.658656,-1.642638 -4.8094,-2.158455 -1.150743,-0.515816 -1.14253,-0.518105 -1.086036,-0.517289 0.05649,8.15e-4 0.16123,0.0047 0.677841,-4e-5 0.516611,-0.0048 1.44506,-0.01828 1.911644,-0.02504 0.466584,-0.0067 0.471284,-0.0067 0.478724,-0.0062 0.0074,5e-4 0.01767,0.0015 0.02278,0.002 0.0051,5e-4 0.0051,4.86e-4 0.883654,0.539536 z"
         id="path14"
         inkscape:path-effect="#path-effect15"
         inkscape:original-d="m 83.753805,81.668907 c 1.757103,1.0781 3.514206,2.156201 5.271309,3.234301 0.08491,0.04299 0.169816,0.08597 0.254724,0.128958 0.201934,0.0752 0.40386,0.150406 0.605791,0.225609 1.981292,0.779427 3.962506,1.558823 5.943759,2.338235 0.03381,0.02794 0.06762,0.05588 0.101425,0.08382 -0.02842,0.0035 -0.05684,0.0071 -0.08526,0.01059 -0.238881,-0.07635 -0.477754,-0.152701 -0.71663,-0.229052 -2.063104,-0.666888 -4.126125,-1.33375 -6.189187,-2.000625 -0.08722,-0.02642 -0.174444,-0.05283 -0.261666,-0.07925 -0.38801,-0.197337 -0.776005,-0.394666 -1.164007,-0.591999 -2.309831,-1.029341 -4.61957,-2.058642 -6.929354,-3.087963 0.0083,-0.0023 0.01651,-0.0046 0.02476,-0.0069 0.104739,0.0039 0.209473,0.0079 0.31421,0.01179 0.928486,-0.0135 1.856935,-0.027 2.785403,-0.0405 0.0047,0 0.0094,0 0.01406,0 0.01022,9.95e-4 0.02045,0.002 0.03067,0.003 z" /><path
         style="fill:#00ffa2;fill-opacity:1;fill-rule:evenodd;stroke:none;stroke-width:0.5;stroke-dasharray:none;stroke-opacity:1"
         d="m 67.042034,91.659362 c 0.998146,-1.411639 2.994438,-4.234918 4.597544,-6.499115 1.603106,-2.264197 2.812976,-3.969244 3.42904,-4.844439 0.616063,-0.875195 0.638298,-0.920508 0.673714,-0.949394 0.03542,-0.02889 0.08401,-0.04135 0.162625,-0.04758 0.07862,-0.0062 0.187252,-0.0062 1.14244,0.02725 0.955187,0.03348 2.756854,0.100447 3.682404,0.146497 0.925551,0.04605 0.97494,0.07118 1.352727,0.398784 0.377786,0.327603 1.083932,0.95765 1.427803,1.290405 0.343872,0.332755 0.325457,0.368198 -0.283461,0.383247 -0.608919,0.01505 -1.80829,0.0097 -2.455507,0.0035 -0.647218,-0.0062 -0.742248,-0.0132 -0.777059,0.0033 -0.03481,0.01647 -0.0094,0.05643 0.04442,0.09596 0.05382,0.03954 0.136025,0.07866 0.497692,0.276999 0.361667,0.198343 1.002761,0.555893 1.335913,0.744243 0.333153,0.18835 0.358344,0.207489 0.369639,0.225033 0.0113,0.01754 0.0087,0.03348 -0.0096,0.04866 -0.01826,0.01518 -0.05215,0.02958 -1.191316,0.580485 -1.139161,0.550903 -3.383481,1.638257 -4.531903,2.193041 -1.148423,0.554784 -1.200903,0.576978 -1.433558,0.756897 -0.232655,0.17992 -0.645471,0.517552 -2.200433,1.77516 -1.554961,1.257608 -4.251952,3.435098 -5.610107,4.525778 -1.358155,1.090679 -1.377449,1.09451 -1.397471,1.088679 -0.02002,-0.0058 -0.0408,-0.02131 -0.06677,-0.05398 -0.02597,-0.03267 -0.05711,-0.08252 -0.08331,-0.13122 -0.02619,-0.0487 -0.04743,-0.09624 -0.0465,-0.133835 9.31e-4,-0.03759 0.02403,-0.06523 0.07746,-0.134777 0.05343,-0.06955 0.13718,-0.181016 0.191468,-0.247655 0.05429,-0.06664 0.0791,-0.08844 0.09152,-0.09935 0.01241,-0.0109 0.0124,-0.01093 1.010549,-1.422573 z"
         id="path15"
         inkscape:path-effect="#path-effect16"
         inkscape:original-d="m 66.043888,93.071001 c 1.996292,-2.823278 3.992584,-5.646557 5.988877,-8.469836 1.209918,-1.705115 2.419789,-3.410162 3.629684,-5.115243 0.02223,-0.04531 0.04447,-0.09062 0.0667,-0.135933 0.0486,-0.01246 0.09719,-0.02492 0.145786,-0.03738 0.108639,0 0.217274,0 0.325911,0 1.801738,0.06697 3.603405,0.13393 5.405108,0.200895 0.0494,0.02513 0.09879,0.05026 0.148185,0.0754 0.706175,0.630072 1.412321,1.260119 2.118482,1.890178 -0.01842,0.03545 -0.03684,0.07089 -0.05525,0.106342 -1.19942,-0.0053 -2.398791,-0.0107 -3.598187,-0.01605 -0.09504,-0.007 -0.190069,-0.01404 -0.285104,-0.02105 0.02541,0.03996 0.05083,0.07991 0.07624,0.119867 0.08222,0.03912 0.164428,0.07824 0.246642,0.117361 0.64112,0.357565 1.282214,0.715115 1.923321,1.072672 0.0252,0.01914 0.05039,0.03828 0.07558,0.05742 -0.0026,0.01595 -0.0052,0.03189 -0.0078,0.04784 -0.03391,0.01441 -0.06781,0.02881 -0.101721,0.04322 -2.244411,1.087397 -4.488731,2.174751 -6.733097,3.262126 -0.05248,0.02219 -0.104958,0.04439 -0.157437,0.06658 -0.412832,0.337646 -0.825648,0.675278 -1.238472,1.012916 -2.697099,2.177578 -5.39409,4.355068 -8.091135,6.532602 -0.01927,0.0038 -0.03855,0.0077 -0.05782,0.01148 -0.02078,-0.01549 -0.04156,-0.03097 -0.06235,-0.04646 -0.03115,-0.04985 -0.06229,-0.0997 -0.09344,-0.149551 -0.02124,-0.04755 -0.04248,-0.09509 -0.06372,-0.14264 0.0231,-0.02764 0.0462,-0.05527 0.0693,-0.0829 0.08376,-0.111471 0.16751,-0.222937 0.251265,-0.334406 0.02482,-0.02181 0.04964,-0.04361 0.07446,-0.06542 z" /><path
         style="fill:#00ffa2;fill-opacity:1;fill-rule:evenodd;stroke:none;stroke-width:0.5;stroke-dasharray:none;stroke-opacity:1"
         d="m 47.995444,80.836355 c 1.044216,1.592362 3.132647,4.777088 4.650879,7.097087 1.518231,2.319999 2.466225,3.775213 2.982617,4.562764 0.516392,0.787551 0.60116,0.907407 0.649479,0.984816 0.04832,0.07741 0.06019,0.112378 0.06533,0.149175 0.0051,0.0368 0.0035,0.07542 -0.01121,0.103213 -0.01475,0.0278 -0.04265,0.04476 -0.07434,0.05071 -0.03169,0.006 -0.06713,9.03e-4 -0.225653,-0.164742 -0.158522,-0.165645 -0.440098,-0.491868 -1.513558,-1.672992 -1.07346,-1.181124 -2.938722,-3.217061 -3.882993,-4.259365 -0.94427,-1.042304 -0.967504,-1.090922 -1.174036,-1.210408 -0.206532,-0.119487 -0.596343,-0.309829 -1.932265,-1.014146 -1.335923,-0.704317 -3.617856,-1.922555 -4.770075,-2.541567 -1.152219,-0.619012 -1.174671,-0.638768 -0.92585,-0.820127 0.248821,-0.181358 0.768901,-0.5243 1.049652,-0.703529 0.28075,-0.17923 0.32216,-0.19474 0.344496,-0.216097 0.02234,-0.02136 0.0256,-0.04855 -0.0078,-0.07359 -0.0334,-0.02504 -0.103477,-0.04792 -0.527578,-0.115287 -0.424101,-0.06737 -1.202199,-0.17923 -1.593962,-0.238755 -0.391763,-0.05953 -0.397237,-0.0668 -0.398659,-0.08224 -0.0014,-0.01544 0.0012,-0.03908 0.08926,-0.08118 0.08808,-0.04211 0.261638,-0.102682 0.630182,-0.246832 0.368544,-0.144149 0.93205,-0.371865 1.3394,-0.514181 0.407351,-0.142316 0.658525,-0.199226 1.277976,-0.328649 0.61945,-0.129423 1.607133,-0.33135 2.115803,-0.434724 0.50867,-0.103373 0.538308,-0.108189 0.564319,-0.105116 0.02601,0.0031 0.04839,0.01404 0.07373,0.0438 0.02533,0.02977 0.05361,0.07834 0.07295,0.110727 0.01934,0.03239 0.02973,0.04861 0.04285,0.06739 0.01312,0.01879 0.02897,0.04013 0.03689,0.05081 0.0079,0.01068 0.008,0.01066 1.052174,1.603021 z"
         id="path16"
         inkscape:path-effect="#path-effect17"
         inkscape:original-d="m 46.951229,79.243992 c 2.088431,3.184725 4.176862,6.369451 6.265293,9.554176 0.948032,1.455273 1.896026,2.910487 2.844039,4.36573 0.08477,0.11986 0.169539,0.239715 0.254309,0.359572 0.01187,0.03496 0.02374,0.06993 0.03561,0.104894 -0.0016,0.03863 -0.0032,0.07725 -0.0048,0.115881 -0.0279,0.01696 -0.0558,0.03393 -0.08371,0.05089 -0.03546,-0.0051 -0.07091,-0.01011 -0.106367,-0.01516 -0.281588,-0.326237 -0.563164,-0.65246 -0.844746,-0.97869 -1.865338,-2.036018 -3.7306,-4.071955 -5.595901,-6.107933 -0.02324,-0.04863 -0.04647,-0.09725 -0.06971,-0.14587 -0.389828,-0.190351 -0.779639,-0.380693 -1.169459,-0.57104 -2.282025,-1.218286 -4.563958,-2.436524 -6.845937,-3.654787 -0.02246,-0.01976 -0.04491,-0.03952 -0.06737,-0.05928 0.520101,-0.342955 1.040181,-0.685897 1.560272,-1.028845 0.04141,-0.01551 0.08282,-0.03102 0.124224,-0.04653 0.0033,-0.0272 0.0066,-0.05439 0.0098,-0.08159 -0.07007,-0.02288 -0.140145,-0.04576 -0.210218,-0.06864 -0.778129,-0.111863 -1.556227,-0.223721 -2.334341,-0.335581 -0.0054,-0.0072 -0.01088,-0.01447 -0.01633,-0.0217 0.0026,-0.02364 0.0052,-0.04728 0.0078,-0.07092 0.173564,-0.06058 0.347121,-0.12115 0.520681,-0.181725 0.563528,-0.227724 1.127034,-0.45544 1.690551,-0.68316 0.251184,-0.05691 0.502358,-0.113822 0.753537,-0.170733 0.987722,-0.201935 1.975405,-0.403862 2.963108,-0.605793 0.02964,-0.0048 0.05928,-0.0096 0.08892,-0.01445 0.02238,0.01096 0.04476,0.02193 0.06715,0.0329 0.02828,0.04856 0.05656,0.09713 0.08483,0.145692 0.0104,0.01622 0.02079,0.03244 0.03119,0.04866 0.01585,0.02135 0.03169,0.0427 0.04754,0.06405 z" /></g></g></svg>
