<?xml version="1.0" encoding="UTF-8" standalone="no"?>
<!-- Created with Inkscape (http://www.inkscape.org/) -->

<svg
   width="120"
   height="120"
   viewBox="0 0 120 120"
   version="1.1"
   id="svg1"
   xml:space="preserve"
   inkscape:version="1.4.1 (93de688d07, 2025-03-30)"
   sodipodi:docname="poe2.svg"
   xmlns:inkscape="http://www.inkscape.org/namespaces/inkscape"
   xmlns:sodipodi="http://sodipodi.sourceforge.net/DTD/sodipodi-0.dtd"
   xmlns="http://www.w3.org/2000/svg"
   xmlns:svg="http://www.w3.org/2000/svg"><sodipodi:namedview
     id="namedview1"
     pagecolor="#1f1f1f"
     bordercolor="#000000"
     borderopacity="0.25"
     inkscape:showpageshadow="2"
     inkscape:pageopacity="0.0"
     inkscape:pagecheckerboard="0"
     inkscape:deskcolor="#3c3c3c"
     inkscape:document-units="px"
     inkscape:zoom="5.6568543"
     inkscape:cx="67.440309"
     inkscape:cy="49.939416"
     inkscape:window-width="1660"
     inkscape:window-height="1287"
     inkscape:window-x="0"
     inkscape:window-y="0"
     inkscape:window-maximized="1"
     inkscape:current-layer="layer1" /><defs
     id="defs1"><inkscape:path-effect
       effect="bspline"
       id="path-effect14"
       is_visible="true"
       lpeversion="1.3"
       weight="33.333333"
       steps="2"
       helper_size="0"
       apply_no_weight="true"
       apply_with_weight="true"
       only_selected="false"
       uniform="false" /><inkscape:path-effect
       effect="fillet_chamfer"
       id="path-effect5"
       is_visible="true"
       lpeversion="1"
       nodesatellites_param="F,0,0,1,0,37.022737,0,1 @ F,0,0,1,0,36.062445,0,1 @ F,0,0,1,0,35.528974,0,1 @ F,0,0,1,0,28.991378,0,1"
       radius="0"
       unit="px"
       method="auto"
       mode="F"
       chamfer_steps="1"
       flexible="false"
       use_knot_distance="true"
       apply_no_radius="true"
       apply_with_radius="true"
       only_selected="false"
       hide_knots="false" /><inkscape:path-effect
       effect="bspline"
       id="path-effect4"
       is_visible="true"
       lpeversion="1.3"
       weight="33.333333"
       steps="2"
       helper_size="0"
       apply_no_weight="true"
       apply_with_weight="true"
       only_selected="false"
       uniform="false" /><inkscape:path-effect
       effect="bspline"
       id="path-effect3"
       is_visible="true"
       lpeversion="1.3"
       weight="33.333333"
       steps="2"
       helper_size="0"
       apply_no_weight="true"
       apply_with_weight="true"
       only_selected="false"
       uniform="false" /><inkscape:path-effect
       effect="mirror_symmetry"
       start_point="59.977887,81.781355"
       end_point="59.977887,112.27285"
       center_point="59.977887,97.027103"
       id="path-effect9"
       is_visible="true"
       lpeversion="1.2"
       lpesatellites=""
       mode="free"
       discard_orig_path="false"
       fuse_paths="false"
       oposite_fuse="false"
       split_items="false"
       split_open="false"
       link_styles="false" /><inkscape:path-effect
       effect="mirror_symmetry"
       start_point="59.944658,10.409945"
       end_point="59.944658,50.039614"
       center_point="59.944658,30.22478"
       id="path-effect2"
       is_visible="true"
       lpeversion="1.2"
       lpesatellites=""
       mode="free"
       discard_orig_path="false"
       fuse_paths="false"
       oposite_fuse="false"
       split_items="false"
       split_open="false"
       link_styles="false" /><inkscape:path-effect
       effect="mirror_symmetry"
       start_point="59.948435,66.805114"
       end_point="59.948435,107.38004"
       center_point="59.948435,87.092577"
       id="path-effect8"
       is_visible="true"
       lpeversion="1.2"
       lpesatellites=""
       mode="free"
       discard_orig_path="false"
       fuse_paths="false"
       oposite_fuse="false"
       split_items="false"
       split_open="false"
       link_styles="false" /><inkscape:path-effect
       effect="mirror_symmetry"
       start_point="60.801511,9.4541705"
       end_point="60.801511,40.169132"
       center_point="60.801511,24.811651"
       id="path-effect7"
       is_visible="true"
       lpeversion="1.2"
       lpesatellites=""
       mode="free"
       discard_orig_path="false"
       fuse_paths="false"
       oposite_fuse="false"
       split_items="false"
       split_open="false"
       link_styles="false" /><inkscape:path-effect
       effect="fillet_chamfer"
       id="path-effect13"
       is_visible="true"
       lpeversion="1"
       nodesatellites_param="F,0,0,1,0,4.7467821,0,1 @ F,0,0,1,0,4.0515277,0,1 @ F,0,0,1,0,0,0,1 @ F,0,0,1,0,2.4219461,0,1 @ F,0,0,1,0,2.4960577,0,1 @ F,0,0,1,0,0,0,1 @ F,0,0,1,0,4.1062831,0,1"
       radius="0"
       unit="px"
       method="auto"
       mode="F"
       chamfer_steps="1"
       flexible="false"
       use_knot_distance="true"
       apply_no_radius="true"
       apply_with_radius="true"
       only_selected="false"
       hide_knots="false" /><inkscape:path-effect
       effect="fillet_chamfer"
       id="path-effect12"
       is_visible="true"
       lpeversion="1"
       nodesatellites_param="F,0,0,1,0,0,0,1 @ F,0,0,1,0,0,0,1 @ F,0,0,1,0,0,0,1 @ F,0,0,1,0,0,0,1 @ F,0,0,1,0,3.627665,0,1 @ F,0,0,1,0,0,0,1 @ F,0,0,1,0,0,0,1"
       radius="0"
       unit="px"
       method="auto"
       mode="F"
       chamfer_steps="1"
       flexible="false"
       use_knot_distance="true"
       apply_no_radius="true"
       apply_with_radius="true"
       only_selected="false"
       hide_knots="false" /><inkscape:path-effect
       effect="fillet_chamfer"
       id="path-effect11"
       is_visible="true"
       lpeversion="1"
       nodesatellites_param="F,0,0,1,0,2.9729248,0,1 @ F,0,0,1,0,3.8975858,0,1 @ F,0,0,1,0,0,0,1 @ F,0,1,1,0,3.784373,0,1 @ F,0,0,1,0,1.4792147,0,1 @ F,0,0,1,0,0,0,1 @ F,0,0,1,0,3.784373,0,1"
       radius="0"
       unit="px"
       method="auto"
       mode="F"
       chamfer_steps="1"
       flexible="false"
       use_knot_distance="true"
       apply_no_radius="true"
       apply_with_radius="true"
       only_selected="false"
       hide_knots="false" /><linearGradient
       id="linearGradient6"><stop
         style="stop-color:#c88500;stop-opacity:1;"
         offset="0.07163448"
         id="stop8" /><stop
         style="stop-color:#fff300;stop-opacity:1;"
         offset="1"
         id="stop9" /></linearGradient><linearGradient
       id="linearGradient6-1"><stop
         style="stop-color:#c88500;stop-opacity:1;"
         offset="0"
         id="stop6" /><stop
         style="stop-color:#fff300;stop-opacity:1;"
         offset="1"
         id="stop7" /></linearGradient><inkscape:path-effect
       effect="fillet_chamfer"
       id="path-effect1"
       is_visible="true"
       lpeversion="1"
       nodesatellites_param="F,0,0,1,0,24.536157,0,1 @ F,0,0,1,0,24.004899,0,1 @ F,0,0,1,0,23.651152,0,1 @ F,0,0,1,0,24.380791,0,1"
       radius="0"
       unit="px"
       method="auto"
       mode="F"
       chamfer_steps="1"
       flexible="false"
       use_knot_distance="true"
       apply_no_radius="true"
       apply_with_radius="true"
       only_selected="false"
       hide_knots="false" /><linearGradient
       id="a"
       x1="7.937"
       x2="7.937"
       y1="15.081"
       y2="1.852"
       gradientTransform="scale(3.7796)"
       gradientUnits="userSpaceOnUse"><stop
         offset="0"
         stop-color="#9b6f27"
         id="stop1" /><stop
         offset="1"
         stop-color="#d0ab6a"
         id="stop2" /></linearGradient><filter
       id="b"
       width="1.216"
       height="1.216"
       x="-0.108"
       y="-0.108"
       color-interpolation-filters="sRGB"><feGaussianBlur
         stdDeviation="1.35"
         id="feGaussianBlur2" /></filter><linearGradient
       id="linearGradient31"
       x1=".5002"
       x2=".5002"
       y2="1"
       gradientTransform="matrix(244,0,0,228,5.986,12)"
       gradientUnits="userSpaceOnUse"><stop
         stop-color="#ebdbb2"
         stop-opacity=".2"
         offset="0"
         id="stop1-5" /><stop
         stop-color="#ebdbb2"
         stop-opacity=".05"
         offset=".1"
         id="stop2-6" /><stop
         stop-opacity="0"
         offset=".7036"
         id="stop3" /><stop
         stop-opacity=".1"
         offset=".8975"
         id="stop4" /><stop
         stop-opacity=".2"
         offset="1"
         id="stop5" /></linearGradient><inkscape:path-effect
       effect="bspline"
       id="path-effect10"
       is_visible="true"
       lpeversion="1.3"
       weight="33.333333"
       steps="2"
       helper_size="0"
       apply_no_weight="true"
       apply_with_weight="true"
       only_selected="false"
       uniform="false" /><inkscape:path-effect
       effect="bspline"
       id="path-effect6"
       is_visible="true"
       lpeversion="1.3"
       weight="33.333333"
       steps="2"
       helper_size="0"
       apply_no_weight="true"
       apply_with_weight="true"
       only_selected="false"
       uniform="false" /><inkscape:path-effect
       effect="bspline"
       id="path-effect5-5"
       is_visible="true"
       lpeversion="1.3"
       weight="33.333333"
       steps="2"
       helper_size="0"
       apply_no_weight="true"
       apply_with_weight="true"
       only_selected="false"
       uniform="false" /><inkscape:path-effect
       effect="bspline"
       id="path-effect4-3"
       is_visible="true"
       lpeversion="1.3"
       weight="33.333333"
       steps="2"
       helper_size="0"
       apply_no_weight="true"
       apply_with_weight="true"
       only_selected="false"
       uniform="false" /><inkscape:path-effect
       effect="bspline"
       id="path-effect3-5"
       is_visible="true"
       lpeversion="1.3"
       weight="33.333333"
       steps="2"
       helper_size="0"
       apply_no_weight="true"
       apply_with_weight="true"
       only_selected="false"
       uniform="false" /><inkscape:path-effect
       effect="mirror_symmetry"
       start_point="59.977887,81.781355"
       end_point="59.977887,112.27285"
       center_point="59.977887,97.027103"
       id="path-effect9-6"
       is_visible="true"
       lpeversion="1.2"
       lpesatellites=""
       mode="free"
       discard_orig_path="false"
       fuse_paths="false"
       oposite_fuse="false"
       split_items="false"
       split_open="false"
       link_styles="false" /><inkscape:path-effect
       effect="mirror_symmetry"
       start_point="59.944658,10.409945"
       end_point="59.944658,50.039614"
       center_point="59.944658,30.22478"
       id="path-effect2-2"
       is_visible="true"
       lpeversion="1.2"
       lpesatellites=""
       mode="free"
       discard_orig_path="false"
       fuse_paths="false"
       oposite_fuse="false"
       split_items="false"
       split_open="false"
       link_styles="false" /><inkscape:path-effect
       effect="mirror_symmetry"
       start_point="59.948435,66.805114"
       end_point="59.948435,107.38004"
       center_point="59.948435,87.092577"
       id="path-effect8-9"
       is_visible="true"
       lpeversion="1.2"
       lpesatellites=""
       mode="free"
       discard_orig_path="false"
       fuse_paths="false"
       oposite_fuse="false"
       split_items="false"
       split_open="false"
       link_styles="false" /><inkscape:path-effect
       effect="mirror_symmetry"
       start_point="60.801511,9.4541705"
       end_point="60.801511,40.169132"
       center_point="60.801511,24.811651"
       id="path-effect7-1"
       is_visible="true"
       lpeversion="1.2"
       lpesatellites=""
       mode="free"
       discard_orig_path="false"
       fuse_paths="false"
       oposite_fuse="false"
       split_items="false"
       split_open="false"
       link_styles="false" /><inkscape:path-effect
       effect="fillet_chamfer"
       id="path-effect13-2"
       is_visible="true"
       lpeversion="1"
       nodesatellites_param="F,0,0,1,0,4.7467821,0,1 @ F,0,0,1,0,4.0515277,0,1 @ F,0,0,1,0,0,0,1 @ F,0,0,1,0,2.4219461,0,1 @ F,0,0,1,0,2.4960577,0,1 @ F,0,0,1,0,0,0,1 @ F,0,0,1,0,4.1062831,0,1"
       radius="0"
       unit="px"
       method="auto"
       mode="F"
       chamfer_steps="1"
       flexible="false"
       use_knot_distance="true"
       apply_no_radius="true"
       apply_with_radius="true"
       only_selected="false"
       hide_knots="false" /><inkscape:path-effect
       effect="fillet_chamfer"
       id="path-effect12-7"
       is_visible="true"
       lpeversion="1"
       nodesatellites_param="F,0,0,1,0,0,0,1 @ F,0,0,1,0,0,0,1 @ F,0,0,1,0,0,0,1 @ F,0,0,1,0,0,0,1 @ F,0,0,1,0,3.627665,0,1 @ F,0,0,1,0,0,0,1 @ F,0,0,1,0,0,0,1"
       radius="0"
       unit="px"
       method="auto"
       mode="F"
       chamfer_steps="1"
       flexible="false"
       use_knot_distance="true"
       apply_no_radius="true"
       apply_with_radius="true"
       only_selected="false"
       hide_knots="false" /><inkscape:path-effect
       effect="fillet_chamfer"
       id="path-effect11-0"
       is_visible="true"
       lpeversion="1"
       nodesatellites_param="F,0,0,1,0,2.9729248,0,1 @ F,0,0,1,0,3.8975858,0,1 @ F,0,0,1,0,0,0,1 @ F,0,1,1,0,3.784373,0,1 @ F,0,0,1,0,1.4792147,0,1 @ F,0,0,1,0,0,0,1 @ F,0,0,1,0,3.784373,0,1"
       radius="0"
       unit="px"
       method="auto"
       mode="F"
       chamfer_steps="1"
       flexible="false"
       use_knot_distance="true"
       apply_no_radius="true"
       apply_with_radius="true"
       only_selected="false"
       hide_knots="false" /><inkscape:path-effect
       effect="fillet_chamfer"
       id="path-effect1-6"
       is_visible="true"
       lpeversion="1"
       nodesatellites_param="F,0,0,1,0,24.536157,0,1 @ F,0,0,1,0,24.004899,0,1 @ F,0,0,1,0,23.651152,0,1 @ F,0,0,1,0,24.380791,0,1"
       radius="0"
       unit="px"
       method="auto"
       mode="F"
       chamfer_steps="1"
       flexible="false"
       use_knot_distance="true"
       apply_no_radius="true"
       apply_with_radius="true"
       only_selected="false"
       hide_knots="false" /><filter
       id="b-8"
       width="1.216"
       height="1.216"
       x="-0.108"
       y="-0.108"
       color-interpolation-filters="sRGB"><feGaussianBlur
         stdDeviation="1.35"
         id="feGaussianBlur2-7" /></filter></defs><g
     inkscape:groupmode="layer"
     id="layer3"
     inkscape:label="base"><path
       d="m 76.476937,9.2332248 c 32.063223,0 37.852423,6.6798392 37.852423,38.7430672 v 24.938066 c 0,31.172592 -5.7892,37.852422 -37.852423,37.852422 H 43.523063 c -32.063227,0 -37.8524214,-6.67983 -37.8524214,-37.852422 V 47.976292 c 0,-32.063228 5.7891944,-38.7430672 37.8524214,-38.7430672 z"
       fill="#ebdbb2"
       style="display:inline;opacity:1;isolation:isolate;stroke-width:0.445323;fill:#600000;fill-opacity:1"
       id="path5" /><g
       id="g1"
       transform="matrix(0.79428729,0,0,0.79428729,12.342763,12.342762)"><g
         id="layer1"
         inkscape:label="Layer 3"><text
           xml:space="preserve"
           style="font-size:39.649px;font-family:FreeSerif;-inkscape-font-specification:FreeSerif;text-align:start;writing-mode:lr-tb;direction:ltr;text-anchor:start;display:none;fill:#1d2021;fill-opacity:1;stroke:#831613;stroke-width:0.798762;stroke-opacity:1"
           x="41.579929"
           y="67.120499"
           id="text10"><tspan
             sodipodi:role="line"
             id="tspan10"
             x="0"
             y="0"
             style="stroke:#831613;stroke-width:0.798762;stroke-opacity:1"></tspan></text><g
           id="g10"
           transform="matrix(1.3454096,0,0,1.3454096,-21.246567,-18.216182)"
           style="fill:#1d2021;fill-opacity:1"><path
             style="display:inline;fill:#1d2021;fill-opacity:1;stroke-width:0.967"
             d="m 50.659898,18.333333 c -4.67005,0.0085 -14.010152,0.02538 -18.62098,0.05922 -4.610829,0.03384 -4.492387,0.0846 -3.984764,0.329953 0.507624,0.245351 1.404391,0.685275 2.191199,1.201355 0.786809,0.51608 1.463615,1.108285 2.182743,1.818953 0.719127,0.710668 1.480534,1.539755 1.996611,2.258881 0.516077,0.719126 0.786799,1.328251 1.032148,2.411177 0.245349,1.082926 0.465311,2.639578 0.389165,9.382507 -0.07615,6.742928 -0.448389,18.671623 -0.583751,25.194477 -0.135363,6.522854 -0.03384,7.639583 0.24535,10.397664 0.279192,2.758081 0.736036,7.157316 1.53977,11.345173 0.803734,4.187857 1.954303,8.164089 2.690347,10.651409 0.736043,2.487319 1.057526,3.485607 1.26057,4.027061 0.203045,0.541454 0.28765,0.626059 0.389174,0.448389 0.101524,-0.177669 0.219965,-0.617592 0.795271,-2.267367 0.575307,-1.649775 1.607435,-4.509278 2.326559,-6.725876 0.719124,-2.216597 1.125208,-3.79017 1.438239,-6.539786 0.313031,-2.749616 0.532993,-6.675088 0.786803,-15.609237 0.25381,-8.93415 0.541452,-22.876341 0.752959,-30.355201 0.211507,-7.47886 0.346868,-8.494068 0.651442,-9.551608 0.304573,-1.057541 0.778337,-2.15735 1.35364,-3.003379 0.575302,-0.846029 1.252108,-1.438235 2.04738,-1.954313 0.795271,-0.516079 1.708958,-0.956003 2.478846,-1.345177 0.769888,-0.389174 1.395933,-0.727577 1.793565,-1.032149 0.397633,-0.304571 0.566835,-0.575293 0.558373,-0.744498 -0.0085,-0.169205 -0.194584,-0.236886 -0.397632,-0.287648 -0.203048,-0.05076 -0.42301,-0.0846 -0.532993,-0.101523 -0.109983,-0.01692 -0.109983,-0.01692 -4.780034,-0.0085 z"
             id="path1"
             inkscape:path-effect="#path-effect5-5"
             inkscape:original-d="m 55.329949,18.324873 c -9.340101,0.01692 -18.680203,0.03384 -28.020304,0.05076 0.118445,0.05076 0.236886,0.101522 0.35533,0.152284 0.896803,0.439941 1.79357,0.879864 2.690355,1.319797 0.676832,0.592228 1.353638,1.184433 2.030457,1.776649 0.761436,0.82912 1.522842,1.658207 2.284264,2.48731 0.270733,0.609149 0.541455,1.218274 0.812183,1.827411 0.21997,1.556715 0.439932,3.113367 0.659898,4.670051 -0.372258,11.929173 -0.744501,23.857868 -1.116751,35.786802 0.101525,1.116774 0.203045,2.233503 0.304568,3.350254 0.456862,4.399411 0.913706,8.798646 1.370559,13.197969 1.150615,3.976391 2.301184,7.952623 3.451776,11.928934 0.321496,0.998328 0.642978,1.996616 0.964467,2.994924 0.0846,0.0846 0.169205,0.169205 0.253807,0.253807 0.118446,-0.439941 0.236887,-0.879864 0.35533,-1.319796 1.03217,-2.859618 2.064298,-5.719121 3.096447,-8.578681 0.4061,-1.573635 0.812183,-3.147208 1.218274,-4.720812 0.219971,-3.925628 0.439932,-7.8511 0.659899,-11.77665 0.287653,-13.942749 0.575296,-27.88494 0.862944,-41.827411 0.135366,-1.015249 0.270727,-2.030457 0.406091,-3.045685 0.473783,-1.099853 0.947547,-2.199662 1.42132,-3.299492 0.676832,-0.592229 1.353638,-1.184434 2.030457,-1.77665 0.913724,-0.439941 1.827411,-0.879865 2.741117,-1.319797 0.62607,-0.338416 1.252115,-0.676819 1.878172,-1.015229 0.169208,-0.270733 0.33841,-0.541455 0.507614,-0.812182 -0.186129,-0.06768 -0.37225,-0.135364 -0.558375,-0.203046 -0.219971,-0.03384 -0.439933,-0.06768 -0.659899,-0.101523 z" /><path
             style="display:inline;fill:#1d2021;fill-opacity:1;stroke-width:0.967"
             d="m 70.148343,18.760465 c 4.055993,-0.143575 12.502988,-0.191434 17.0615,-0.239292 4.558512,-0.04786 5.228516,-0.09572 5.539594,-0.05982 0.311079,0.0359 0.263221,0.155539 -0.02393,0.31108 -0.287155,0.155541 -0.813586,0.346971 -1.615224,0.825561 -0.801637,0.478591 -1.878428,1.244309 -2.632201,1.938261 -0.753773,0.693952 -1.18449,1.316098 -1.579324,2.10577 -0.394835,0.789672 -0.753765,1.746819 -1.040917,2.692031 -0.287153,0.945211 -0.502511,1.87843 -0.634122,2.62024 -0.13161,0.741809 -0.179468,1.292169 -0.215362,9.20091 -0.03589,7.908741 -0.05982,23.175242 -0.215367,31.717971 -0.155543,8.54273 -0.442687,10.36131 -1.220397,13.567864 -0.777711,3.206554 -2.045931,7.800861 -2.823632,10.361287 -0.7777,2.560426 -1.064845,3.086857 -1.375927,2.88345 C 79.061948,96.48237 78.726948,95.54915 78.224429,93.957838 77.72191,92.366526 77.051907,90.11723 76.585285,88.358423 76.118664,86.599617 75.855448,85.331397 75.484541,83.488828 75.113635,81.646258 74.635061,79.22946 74.288086,77.386902 73.941111,75.544344 73.725753,74.276124 73.606107,73.378775 73.486461,72.481426 73.462532,71.954995 73.402708,64.417163 73.342884,56.879331 73.24717,42.33069 73.031804,34.278511 72.816438,26.226332 72.481436,24.670968 71.691761,23.342888 70.902087,22.014808 69.657795,20.914089 68.760446,20.291929 67.863097,19.669769 67.312737,19.526197 66.870044,19.334762 66.427351,19.143326 66.09235,18.90404 70.148343,18.760465 Z"
             id="path5-9"
             inkscape:path-effect="#path-effect6"
             inkscape:original-d="m 65.757341,18.664748 c 8.446995,-0.04786 16.89399,-0.09572 25.340984,-0.143575 0.67003,-0.04786 1.340034,-0.09572 2.01005,-0.143575 -0.04786,0.119648 -0.09572,0.239291 -0.143575,0.358937 -0.526452,0.191437 -1.052883,0.382867 -1.579325,0.5743 -1.076833,0.765748 -2.153624,1.531466 -3.230437,2.2972 -0.430733,0.62217 -0.86145,1.244316 -1.292174,1.866474 -0.358945,0.957186 -0.717875,1.914333 -1.076813,2.8715 -0.215367,0.933256 -0.430725,1.866475 -0.646087,2.799712 -0.04786,0.550382 -0.09572,1.100742 -0.143575,1.651112 -0.02393,15.267112 -0.04786,30.533613 -0.07179,45.800419 -0.287155,1.818653 -0.5743,3.637233 -0.86145,5.45585 -1.268271,4.594491 -2.536491,9.188798 -3.804737,13.783198 -0.287155,0.526452 -0.5743,1.052883 -0.86145,1.579325 C 79.06195,96.482369 78.726948,95.54915 78.39194,94.615912 77.72191,92.366526 77.051906,90.11723 76.38189,87.867888 76.118664,86.599617 75.855448,85.331397 75.592227,84.063151 75.113635,81.646258 74.635061,79.22946 74.156478,76.812615 73.941111,75.544344 73.725753,74.276124 73.51039,73.007878 73.486461,72.481426 73.462532,71.954995 73.438603,71.428553 73.342884,56.879331 73.247169,42.33069 73.151453,27.781759 72.816438,26.226332 72.481436,24.670968 72.146428,23.115572 70.902087,22.014808 69.657795,20.914089 68.413478,19.813347 67.863097,19.66977 67.312737,19.526197 66.762366,19.382622 66.427351,19.143326 66.09235,18.904039 65.757341,18.664748 Z" /><path
             style="display:none;fill:#1d2021;fill-opacity:1;stroke:#d79921;stroke-width:0.967;stroke-opacity:1"
             d="m 60.403191,17.534095 c -0.149557,0.05384 -0.448672,0.161522 -0.556352,0.329027 -0.107681,0.167506 -0.02393,0.39483 0.02393,0.544389 0.04786,0.149559 0.05982,0.221344 0.006,0.376885 -0.05384,0.155542 -0.173486,0.394829 -0.340993,0.610193 -0.167506,0.215364 -0.382864,0.406794 -0.550369,0.598229 -0.167505,0.191435 -0.287149,0.382865 -0.741811,0.490547 -0.454662,0.107681 -1.244309,0.131611 -1.698964,0.221347 -0.454655,0.08974 -0.574299,0.245273 -0.62814,0.592251 -0.05384,0.346978 -0.04188,0.885374 -0.101702,1.208419 -0.05982,0.323044 -0.191432,0.430723 -1.094775,0.652071 -0.903343,0.221348 -2.578351,0.55635 -4.241444,0.98708 -1.663093,0.43073 -3.314173,0.957161 -4.917442,1.609239 -1.60327,0.652078 -3.158634,1.42976 -4.72601,2.446762 -1.567376,1.017002 -3.146669,2.273258 -4.319206,3.176589 -1.172537,0.903332 -1.938255,1.453691 -2.536488,1.824595 -0.598234,0.370904 -1.02895,0.562334 -1.41182,0.765734 -0.38287,0.2034 -0.717871,0.418757 -1.106725,0.957173 -0.388853,0.538415 -0.831534,1.399847 -1.154579,2.111746 -0.323046,0.711898 -0.52644,1.274222 -0.798667,1.758045 -0.272226,0.483822 -0.613268,0.889117 -1.054526,1.45768 -0.441257,0.568564 -0.982702,1.30036 -1.359185,1.778365 -0.376482,0.478006 -0.587984,0.702198 -1.021578,1.125216 -0.433593,0.423018 -1.089248,1.044832 -1.438233,1.326136 -0.348984,0.281304 -0.391285,0.222082 -0.814306,0.02961 -0.42302,-0.192475 -1.226726,-0.518187 -1.993821,-0.852007 -0.767094,-0.33382 -1.497531,-0.675728 -2.365279,-0.996246 -0.867749,-0.320517 -1.872754,-0.619626 -2.638493,-0.834989 -0.765738,-0.215364 -1.292169,-0.346972 -1.6541,-0.433716 -0.361931,-0.08674 -0.559341,-0.128619 -0.900334,-0.23331 C 13.926762,41.056461 13.442208,40.888959 12.784147,40.649664 12.126087,40.410369 11.294565,40.099296 10.798034,39.87795 10.301502,39.656604 10.139983,39.524996 9.9575214,39.321595 9.7750596,39.118195 9.5716657,38.843015 9.3712569,38.621668 9.1708482,38.400322 8.9734363,38.232821 8.793966,38.125139 8.6144957,38.017458 8.4529769,37.9696 8.288462,37.948663 c -0.1645149,-0.02094 -0.3320149,-0.01495 -0.4875559,0.07179 -0.155541,0.08675 -0.2991133,0.254246 -0.3679096,0.526444 -0.068796,0.272198 -0.062814,0.649075 0.017949,1.136637 0.080762,0.487563 0.2362989,1.08578 0.3200511,1.384895 0.083752,0.299114 0.095716,0.299114 0.2033999,0.454657 0.1076836,0.155543 0.3110774,0.466616 0.409785,0.693944 0.098708,0.227329 0.092725,0.370901 0.065805,0.598231 -0.026921,0.22733 -0.074778,0.538403 0.098712,0.870424 0.1734903,0.33202 0.5683135,0.684968 0.7597468,0.912297 0.1914333,0.227328 0.1794688,0.329025 0.152548,0.631135 -0.026921,0.302111 -0.068796,0.804613 -0.020936,1.115694 0.04786,0.31108 0.1854494,0.430723 0.2931323,0.52345 0.1076828,0.09273 0.1854498,0.15853 0.1944226,0.31108 0.00897,0.152551 -0.050849,0.391838 0.2004128,0.819578 0.251262,0.42774 0.813586,1.043904 1.112701,1.47164 0.299115,0.427737 0.335008,0.667023 0.326034,0.906317 -0.009,0.239294 -0.06281,0.478581 0.281176,0.831541 0.343989,0.352959 1.085778,0.819569 1.444715,1.127658 0.358936,0.30809 0.335007,0.457644 0.326034,0.795649 -0.009,0.338004 -0.003,0.864435 0.01496,1.325075 0.01795,0.460641 0.04786,0.855464 0.191433,1.205431 0.143576,0.349968 0.40081,0.655058 0.702919,0.933237 0.302109,0.278179 0.649075,0.529431 0.840509,0.726847 0.191433,0.197417 0.227326,0.340991 0.182458,0.646092 -0.04487,0.305101 -0.170494,0.77171 -0.209378,1.115694 -0.03889,0.343984 0.009,0.565325 0.892912,1.535116 0.883939,0.969792 2.603891,2.687962 3.908056,3.965854 1.304164,1.277893 2.192471,2.11544 3.110417,2.779573 0.917945,0.664134 1.865472,1.154817 3.147214,1.421315 1.281742,0.266498 2.897615,0.308799 3.95515,0.727588 1.057535,0.41879 1.556679,1.214036 2.178513,2.136213 0.621835,0.922176 1.366321,1.971224 1.848557,2.576133 0.482236,0.604909 0.702197,0.765649 1.357877,0.913705 0.655679,0.148056 1.747028,0.283417 3.130293,0.99409 1.383265,0.710673 3.058359,1.996603 4.153965,3.109134 1.095606,1.11253 1.611669,2.051597 2.170051,2.884938 0.558382,0.833341 1.159047,1.560906 1.54822,1.869704 0.389173,0.308798 0.566834,0.198817 1.011004,-0.588 0.444169,-0.786817 1.154814,-2.250408 1.857021,-3.510994 0.702207,-1.260586 1.395933,-2.318095 2.076988,-3.007607 0.681056,-0.689513 1.349401,-1.010995 1.780876,-1.167509 0.431475,-0.156515 0.626055,-0.148055 1.497475,0.854503 0.871419,1.002558 2.419612,2.999134 3.210644,4.407772 0.791033,1.408638 0.824873,2.229264 0.833333,2.999153 0.0085,0.769889 -0.0085,1.488994 -0.0846,2.034683 -0.07614,0.545689 -0.211505,0.917932 -0.101519,1.319798 0.109987,0.401865 0.46531,0.833329 0.922168,1.036375 0.456859,0.203045 1.015223,0.177666 1.332483,-0.105757 0.317259,-0.283423 0.3934,-0.824867 0.380709,-2.119304 -0.01269,-1.294437 -0.114212,-3.341773 -0.0042,-4.631964 0.109986,-1.290192 0.431469,-1.823176 1.108298,-2.588837 0.676829,-0.765662 1.708958,-1.76395 2.470384,-2.461923 0.761426,-0.697974 1.25211,-1.095597 1.586291,-1.277492 0.334181,-0.181895 0.511843,-0.148055 1.425565,0.994099 0.913722,1.142155 2.563435,3.392533 3.447531,4.780017 0.884096,1.387484 1.002537,1.912009 1.061758,2.626908 0.05922,0.714899 0.05922,1.620126 0.09306,2.402704 0.03384,0.782579 0.101522,1.442464 0.346873,1.738572 0.24535,0.296108 0.668355,0.228427 0.960234,-0.13537 0.29188,-0.363797 0.452621,-1.023682 0.710662,-2.038924 0.258041,-1.015242 0.613364,-2.385773 0.947546,-3.43485 0.334183,-1.049076 0.647205,-1.776642 1.197128,-2.5 0.549924,-0.723357 1.33671,-1.442463 2.098139,-2.081217 0.761429,-0.638753 1.497454,-1.197117 2.148898,-1.594751 0.651444,-0.397633 1.218269,-0.634515 1.663233,-0.762661 0.444963,-0.128145 0.768042,-0.147548 1.246653,-0.181179 0.47861,-0.03363 1.11272,-0.08149 1.495588,-0.201137 0.382868,-0.119648 0.514476,-0.311077 0.670017,-0.705914 0.155541,-0.394837 0.335006,-0.993054 0.592248,-1.561377 0.257242,-0.568324 0.592244,-1.106719 0.891361,-1.5195 0.299117,-0.412781 0.562333,-0.699925 1.011011,-0.993061 0.448678,-0.293135 1.082788,-0.592243 1.537445,-0.729835 0.454657,-0.137593 0.729837,-0.113663 1.124673,-0.05982 0.394835,0.05384 0.909303,0.137592 1.878448,0.01196 0.969146,-0.125631 2.392902,-0.460632 3.385968,-0.867433 0.993066,-0.406801 1.55539,-0.885374 2.095984,-1.434894 0.540593,-0.549521 1.059425,-1.169954 1.369609,-1.619774 0.31018,-0.449819 0.41171,-0.729001 0.80511,-1.118178 0.39341,-0.389177 1.07867,-0.888319 1.7005,-1.582069 0.62184,-0.69375 1.1802,-1.582054 1.62437,-2.402706 0.44417,-0.820652 0.77411,-1.573597 0.94755,-2.085443 0.17344,-0.511846 0.19038,-0.782566 0.32575,-1.032147 0.13537,-0.249581 0.38917,-0.478002 0.57953,-0.769885 0.19036,-0.291883 0.31726,-0.647206 0.40186,-0.972927 0.0846,-0.325722 0.1269,-0.621824 0.23265,-0.79526 0.10576,-0.173435 0.27496,-0.224195 0.3638,-0.566838 0.0888,-0.342643 0.0973,-0.977154 0.1946,-1.357867 0.0973,-0.380713 0.28342,-0.507614 0.59222,-0.939094 0.3088,-0.431481 0.74027,-1.167505 1.00254,-1.603215 0.26228,-0.435711 0.35533,-0.571058 0.60068,-0.803717 0.24535,-0.23266 0.64297,-0.562601 0.8714,-0.926394 0.22842,-0.363792 0.28765,-0.761419 0.36379,-1.061767 0.0761,-0.300347 0.1692,-0.503374 0.30879,-0.681041 0.1396,-0.177666 0.32573,-0.329951 0.41879,-0.748738 0.0931,-0.418787 0.0931,-1.104052 0.1269,-1.484767 0.0339,-0.380714 0.10152,-0.456846 0.2242,-0.795262 0.12268,-0.338416 0.30034,-0.939084 0.40185,-1.340948 0.10152,-0.401865 0.12688,-0.604911 0.28763,-0.913711 0.16074,-0.308799 0.45684,-0.723341 0.57528,-1.222499 0.11845,-0.499159 0.0592,-1.082906 0.0169,-1.434011 -0.0423,-0.351104 -0.0677,-0.469552 -0.19033,-0.482235 -0.12267,-0.01268 -0.34263,0.08038 -0.59644,0.270736 -0.25381,0.190358 -0.54145,0.478 -0.89679,0.757191 -0.35533,0.279191 -0.77834,0.549915 -1.43401,0.846026 -0.65568,0.29611 -1.54399,0.617594 -2.47039,0.901014 -0.92641,0.283421 -1.89086,0.528764 -2.74112,0.786804 -0.85026,0.25804 -1.58628,0.52876 -2.52894,0.862632 -0.94266,0.333872 -2.09189,0.730871 -2.893849,0.989199 -0.801959,0.258328 -1.256604,0.377972 -1.663403,0.52454 -0.4068,0.146568 -0.76573,0.320051 -0.99904,0.463627 -0.233311,0.143576 -0.34099,0.257237 -0.433716,0.323043 -0.09273,0.0658 -0.170494,0.08375 -0.60721,-0.448683 -0.436715,-0.532435 -1.232344,-1.615208 -2.072865,-2.865521 -0.840521,-1.250313 -1.725882,-2.668087 -2.330097,-3.60432 -0.604214,-0.936234 -0.927251,-1.390879 -1.414815,-2.004071 -0.487563,-0.613193 -1.139619,-1.384893 -2.159614,-2.29122 -1.019994,-0.906328 -2.407858,-1.947225 -3.661159,-2.811673 -1.253301,-0.864448 -2.371967,-1.552398 -3.89448,-2.410867 -1.522512,-0.858469 -3.448771,-1.887402 -5.297317,-2.733903 -1.848545,-0.846501 -3.619268,-1.510522 -5.064003,-1.974152 -1.444734,-0.46363 -2.5634,-0.726846 -3.293243,-0.89136 -0.729843,-0.164513 -1.070826,-0.230317 -1.292172,-0.29014 -0.221345,-0.05982 -0.323043,-0.113663 -0.361927,-0.343986 -0.03888,-0.230322 -0.01496,-0.63711 0.006,-0.927253 0.02094,-0.290142 0.03888,-0.463625 -0.01795,-0.571307 -0.05683,-0.107682 -0.188439,-0.149557 -0.604216,-0.18246 -0.415777,-0.0329 -1.115691,-0.05683 -1.489585,-0.128623 -0.373894,-0.07179 -0.421751,-0.191433 -0.484566,-0.317062 -0.06281,-0.125628 -0.140582,-0.257237 -0.248265,-0.335007 -0.107683,-0.07777 -0.245273,-0.1017 -0.326034,-0.206392 -0.08076,-0.104692 -0.104691,-0.29014 -0.128621,-0.502513 -0.02393,-0.212374 -0.04786,-0.451661 -0.07179,-0.67899 -0.02393,-0.227329 -0.04786,-0.442687 -0.110675,-0.607201 -0.06282,-0.164515 -0.164513,-0.278176 -0.281169,-0.323043 -0.116656,-0.04487 -0.248263,-0.02094 -0.314069,-0.009 -0.06581,0.01197 -0.06586,0.01196 -0.215414,0.0658 z"
             id="path6"
             inkscape:path-effect="#path-effect10"
             inkscape:original-d="m 60.552748,17.480254 c -0.299114,0.107681 -0.598229,0.215362 -0.897343,0.323044 0.08375,0.227331 0.167504,0.454654 0.251256,0.681981 0.01197,0.07179 0.02393,0.143575 0.03589,0.215362 -0.119649,0.239297 -0.239292,0.478584 -0.358938,0.717875 -0.215367,0.191437 -0.430725,0.382867 -0.646087,0.5743 -0.119648,0.191437 -0.239292,0.382867 -0.358938,0.5743 -0.789678,0.02393 -1.579325,0.04786 -2.368987,0.07179 -0.119648,0.155542 -0.239292,0.311079 -0.358937,0.466618 0.01196,0.538417 0.02393,1.076813 0.03589,1.615219 -0.131613,0.107683 -0.26322,0.215362 -0.394831,0.323043 -1.675075,0.335015 -3.350083,0.670017 -5.025124,1.005025 -1.651145,0.526452 -3.302225,1.052884 -4.953337,1.579325 -1.555427,0.777713 -3.110791,1.555396 -4.666187,2.333094 -1.579356,1.256306 -3.158649,2.512562 -4.737974,3.768843 -0.765749,0.550382 -1.531467,1.100741 -2.2972,1.651112 -0.430734,0.191437 -0.86145,0.382867 -1.292175,0.5743 -0.335015,0.215367 -0.670016,0.430725 -1.005025,0.646087 -0.442698,0.861468 -0.885379,1.7229 -1.328068,2.58435 -0.203402,0.562347 -0.406796,1.124671 -0.610194,1.687006 -0.341056,0.40531 -0.682098,0.810604 -1.023146,1.215907 -0.541466,0.731825 -1.082911,1.463621 -1.624366,2.195431 -0.21151,0.224201 -0.423012,0.448393 -0.634518,0.672589 -0.655681,0.62184 -1.311336,1.243655 -1.967005,1.865482 -0.0423,-0.05922 -0.0846,-0.118443 -0.126903,-0.177665 -0.803739,-0.325726 -1.607445,-0.651438 -2.411168,-0.977157 -0.730466,-0.341922 -1.460903,-0.683829 -2.191355,-1.025744 -1.005045,-0.29912 -2.01005,-0.598229 -3.015075,-0.897343 -0.526452,-0.131613 -1.052883,-0.263221 -1.579324,-0.394831 -0.19742,-0.04188 -0.394832,-0.08375 -0.592247,-0.125629 -0.484569,-0.167509 -0.969124,-0.33501 -1.45369,-0.502514 C 12.126087,40.410369 11.294565,40.099296 10.463027,39.788217 10.301502,39.656604 10.139983,39.524996 9.9784612,39.393385 9.7750592,39.118195 9.5716654,38.843015 9.3682675,38.567829 9.170848,38.400322 8.9734363,38.232821 8.7760207,38.065317 8.6144956,38.017458 8.452977,37.9696 8.2914552,37.921742 c -0.1675075,0.006 -0.3350083,0.01196 -0.5025125,0.01795 -0.1435778,0.167507 -0.2871499,0.335008 -0.4307249,0.502512 0.00598,0.376892 0.011965,0.753769 0.017947,1.130653 0.1555426,0.598241 0.3110791,1.196458 0.4666186,1.794687 0.011965,0 0.023929,0 0.035894,0 0.2034019,0.311086 0.4067958,0.622159 0.6101937,0.933238 -0.00598,0.143578 -0.011965,0.28715 -0.017947,0.430725 -0.047859,0.311085 -0.095717,0.622158 -0.143575,0.933237 0.3948391,0.352962 0.7896624,0.70591 1.1844936,1.058866 -0.011965,0.101701 -0.023929,0.203398 -0.035894,0.305096 -0.041877,0.502523 -0.083752,1.005025 -0.1256282,1.507538 0.1375955,0.119648 0.2751854,0.239291 0.4127781,0.358937 0.077771,0.06581 0.1555396,0.131611 0.2333094,0.197416 -0.059824,0.239296 -0.1196459,0.478583 -0.1794688,0.717875 0.5623468,0.616188 1.1246708,1.232352 1.6870058,1.848528 0.0359,0.239296 0.07179,0.478583 0.107682,0.717875 -0.05384,0.239296 -0.107682,0.478583 -0.161522,0.717874 0.741819,0.466628 1.483608,0.933238 2.225412,1.399856 -0.02393,0.149561 -0.04786,0.299115 -0.07179,0.448672 0.006,0.526452 0.01197,1.052883 0.01795,1.579325 0.02991,0.394839 0.05982,0.789662 0.08973,1.184494 0.257243,0.305103 0.514477,0.610193 0.771715,0.91529 0.34698,0.251261 0.693946,0.502513 1.040919,0.753769 0.03589,0.143578 0.07179,0.28715 0.107681,0.430725 -0.125631,0.466628 -0.251256,0.933237 -0.376884,1.399856 0.04786,0.221349 0.09572,0.442689 0.143575,0.664034 1.72002,1.718239 3.439972,3.436409 5.159959,5.154614 0.888342,0.83758 1.776649,1.675127 2.664974,2.51269 0.947566,0.490704 1.895093,0.981388 2.84264,1.472081 1.615937,0.0423 3.23181,0.0846 4.847716,0.126904 0.499164,0.795278 0.998308,1.590524 1.497462,2.385787 0.744515,1.04909 1.489001,2.098138 2.233502,3.147208 0.219971,0.160748 0.439932,0.321489 0.659899,0.482233 1.091392,0.135367 2.182741,0.270728 3.274111,0.406092 1.675161,1.285981 3.350254,2.571912 5.025381,3.857868 0.516085,0.939105 1.032149,1.878172 1.548223,2.817259 0.600689,0.727595 1.201354,1.45516 1.802031,2.182741 0.177668,-0.109986 0.35533,-0.219966 0.532995,-0.329949 0.710674,-1.463651 1.421319,-2.927242 2.131979,-4.390863 0.693754,-1.057551 1.387479,-2.11506 2.081219,-3.172589 0.668372,-0.321496 1.336717,-0.642978 2.005076,-0.964467 0.194589,0.0085 0.389171,0.01692 0.583756,0.02538 1.548254,1.996656 3.096447,3.993232 4.64467,5.989848 0.03384,0.82066 0.06768,1.641286 0.101523,2.461929 -0.01692,0.719135 -0.03384,1.43824 -0.05076,2.15736 -0.135367,0.372258 -0.270728,0.744501 -0.406092,1.116752 0.355337,0.43148 0.71066,0.862944 1.06599,1.294416 0.558387,-0.02538 1.116751,-0.05076 1.675127,-0.07614 0.07614,-0.541466 0.152284,-1.08291 0.228426,-1.624366 -0.101524,-2.047418 -0.203045,-4.094754 -0.304568,-6.142132 0.321495,-0.533005 0.642978,-1.065989 0.964467,-1.598984 1.032169,-0.998328 2.064298,-1.996616 3.096447,-2.994924 0.490703,-0.397639 0.981387,-0.795262 1.472081,-1.192894 0.177668,0.03384 0.35533,0.06768 0.532995,0.101523 1.649779,2.250468 3.299492,4.500846 4.949238,6.751269 0.118446,0.524545 0.236887,1.04907 0.35533,1.573604 0,0.905264 0,1.810491 0,2.715736 0.06768,0.659912 0.135364,1.319797 0.203046,1.979696 0.42302,-0.06768 0.846024,-0.135364 1.269035,-0.203046 0.160748,-0.659912 0.321489,-1.319797 0.482234,-1.979695 0.355337,-1.370586 0.71066,-2.741117 1.06599,-4.111675 0.313035,-0.727595 0.626057,-1.455161 0.939086,-2.182742 0.786818,-0.719134 1.573604,-1.43824 2.360406,-2.15736 0.736056,-0.558387 1.472081,-1.116751 2.208122,-1.675127 0.566847,-0.236891 1.133672,-0.473773 1.700508,-0.71066 0.323091,-0.01941 0.64617,-0.03881 0.969255,-0.05821 0.634136,-0.04786 1.268246,-0.09572 1.902369,-0.143575 0.131613,-0.191438 0.26322,-0.382867 0.394831,-0.5743 0.179472,-0.598241 0.358937,-1.196458 0.538406,-1.794688 0.335015,-0.538417 0.670017,-1.076812 1.005025,-1.615218 0.263226,-0.287156 0.526442,-0.5743 0.789662,-0.86145 0.634136,-0.299121 1.268246,-0.598229 1.902369,-0.897344 0.275191,0.02393 0.550371,0.04786 0.825556,0.07179 0.514487,0.08375 1.028954,0.167504 1.543431,0.251256 1.423814,-0.335015 2.84757,-0.670016 4.271356,-1.005025 0.562346,-0.478593 1.12467,-0.957166 1.687006,-1.43575 0.51885,-0.620458 1.03768,-1.240892 1.556527,-1.861338 0.10152,-0.279193 0.20304,-0.558375 0.30457,-0.837563 0.68529,-0.499164 1.37055,-0.998308 2.05583,-1.497462 0.55839,-0.888343 1.11675,-1.77665 1.67513,-2.664975 0.32996,-0.752976 0.6599,-1.505922 0.98985,-2.258883 0.0169,-0.270733 0.0338,-0.541455 0.0508,-0.812183 0.25381,-0.228431 0.50761,-0.456852 0.76142,-0.685279 0.12691,-0.355337 0.25381,-0.71066 0.38071,-1.06599 0.0423,-0.296114 0.0846,-0.592216 0.1269,-0.888325 0.16921,-0.05076 0.33841,-0.101522 0.50762,-0.152284 0.008,-0.63453 0.0169,-1.269035 0.0254,-1.903553 0.18613,-0.126906 0.37225,-0.253807 0.55837,-0.380711 0.43149,-0.736055 0.86295,-1.472081 1.29442,-2.208122 0.0931,-0.135366 0.18613,-0.270727 0.27919,-0.406091 0.39764,-0.329956 0.79526,-0.659898 1.19289,-0.989848 0.0592,-0.397639 0.11845,-0.795262 0.17767,-1.192893 0.0931,-0.20305 0.18612,-0.406091 0.27918,-0.609137 0.18613,-0.152287 0.37226,-0.304569 0.55838,-0.456853 0,-0.685293 0,-1.370558 0,-2.055838 0.0677,-0.07614 0.13536,-0.152284 0.20305,-0.228426 0.17766,-0.600689 0.35533,-1.201354 0.53299,-1.80203 0.0254,-0.20305 0.0508,-0.406092 0.0761,-0.609137 0.29612,-0.41456 0.59222,-0.829104 0.88833,-1.243655 -0.0592,-0.583768 -0.11845,-1.167513 -0.17767,-1.751269 -0.0254,-0.118446 -0.0508,-0.236887 -0.0761,-0.35533 -0.21997,0.09306 -0.43993,0.186125 -0.6599,0.279188 -0.28765,0.287653 -0.57529,0.575296 -0.86294,0.862944 -0.42302,0.270733 -0.84603,0.541455 -1.26904,0.812182 -0.88834,0.321496 -1.77665,0.642978 -2.66497,0.964467 -0.96449,0.245352 -1.92894,0.490694 -2.8934,0.736041 -0.73606,0.270733 -1.47208,0.541455 -2.20812,0.812183 -1.14928,0.397016 -2.29851,0.794016 -3.447765,1.191023 -0.454663,0.119649 -0.909308,0.239292 -1.363962,0.358938 -0.358945,0.17349 -0.717875,0.346973 -1.076812,0.520459 -0.107684,0.113666 -0.215363,0.227327 -0.323044,0.340991 -0.07777,0.01795 -0.15554,0.03589 -0.233309,0.05384 -0.795661,-1.082816 -1.59129,-2.165589 -2.386935,-3.248383 -0.885396,-1.417832 -1.770758,-2.835606 -2.656137,-4.253409 -0.32305,-0.454664 -0.646087,-0.909309 -0.969131,-1.363963 -0.652083,-0.771731 -1.304139,-1.543431 -1.956209,-2.315146 -1.387919,-1.04094 -2.775783,-2.081837 -4.163674,-3.122756 -1.118711,-0.687977 -2.237377,-1.375927 -3.356066,-2.06389 -1.926336,-1.028975 -3.852595,-2.057908 -5.778893,-3.086862 -1.770793,-0.664048 -3.541516,-1.328069 -5.312274,-1.992103 -1.118711,-0.263226 -2.237377,-0.526442 -3.356065,-0.789663 -0.340997,-0.06581 -0.681981,-0.13161 -1.022972,-0.197415 -0.101701,-0.05384 -0.203398,-0.107682 -0.305097,-0.161522 0.02393,-0.406804 0.04786,-0.813592 0.07179,-1.220388 0.01795,-0.173489 0.03589,-0.346972 0.05384,-0.520459 -0.131613,-0.04188 -0.26322,-0.08375 -0.394831,-0.125628 -0.699942,-0.02393 -1.399856,-0.04786 -2.099784,-0.07179 -0.04786,-0.119649 -0.09572,-0.239292 -0.143575,-0.358938 -0.07777,-0.131613 -0.155539,-0.263221 -0.233309,-0.394831 -0.137596,-0.02393 -0.275186,-0.04786 -0.412778,-0.07179 -0.02393,-0.185454 -0.04786,-0.370902 -0.07179,-0.556353 -0.02393,-0.239296 -0.04786,-0.478583 -0.07179,-0.717875 -0.02393,-0.215366 -0.04786,-0.430724 -0.07179,-0.646087 -0.101701,-0.113666 -0.203398,-0.227327 -0.305097,-0.340991 -0.131613,0.02393 -0.26322,0.04786 -0.394831,0.07179 z" /></g></g></g></g></svg>
