<?xml version="1.0" encoding="UTF-8" standalone="no"?>
<!-- Created with Inkscape (http://www.inkscape.org/) -->

<svg
   width="120"
   height="120"
   viewBox="0 0 120 120"
   version="1.1"
   id="svg1"
   xml:space="preserve"
   inkscape:version="1.4.1 (93de688d07, 2025-03-30)"
   sodipodi:docname="ron.svg"
   xmlns:inkscape="http://www.inkscape.org/namespaces/inkscape"
   xmlns:sodipodi="http://sodipodi.sourceforge.net/DTD/sodipodi-0.dtd"
   xmlns="http://www.w3.org/2000/svg"
   xmlns:svg="http://www.w3.org/2000/svg"><sodipodi:namedview
     id="namedview1"
     pagecolor="#1f1f1f"
     bordercolor="#000000"
     borderopacity="0.25"
     inkscape:showpageshadow="2"
     inkscape:pageopacity="0.0"
     inkscape:pagecheckerboard="0"
     inkscape:deskcolor="#3c3c3c"
     inkscape:document-units="px"
     inkscape:zoom="5.6568543"
     inkscape:cx="67.440309"
     inkscape:cy="50.116193"
     inkscape:window-width="1660"
     inkscape:window-height="1287"
     inkscape:window-x="0"
     inkscape:window-y="0"
     inkscape:window-maximized="1"
     inkscape:current-layer="layer3" /><defs
     id="defs1"><inkscape:path-effect
       effect="bspline"
       id="path-effect14"
       is_visible="true"
       lpeversion="1.3"
       weight="33.333333"
       steps="2"
       helper_size="0"
       apply_no_weight="true"
       apply_with_weight="true"
       only_selected="false"
       uniform="false" /><inkscape:path-effect
       effect="fillet_chamfer"
       id="path-effect5"
       is_visible="true"
       lpeversion="1"
       nodesatellites_param="F,0,0,1,0,37.022737,0,1 @ F,0,0,1,0,36.062445,0,1 @ F,0,0,1,0,35.528974,0,1 @ F,0,0,1,0,28.991378,0,1"
       radius="0"
       unit="px"
       method="auto"
       mode="F"
       chamfer_steps="1"
       flexible="false"
       use_knot_distance="true"
       apply_no_radius="true"
       apply_with_radius="true"
       only_selected="false"
       hide_knots="false" /><inkscape:path-effect
       effect="bspline"
       id="path-effect4"
       is_visible="true"
       lpeversion="1.3"
       weight="33.333333"
       steps="2"
       helper_size="0"
       apply_no_weight="true"
       apply_with_weight="true"
       only_selected="false"
       uniform="false" /><inkscape:path-effect
       effect="bspline"
       id="path-effect3"
       is_visible="true"
       lpeversion="1.3"
       weight="33.333333"
       steps="2"
       helper_size="0"
       apply_no_weight="true"
       apply_with_weight="true"
       only_selected="false"
       uniform="false" /><inkscape:path-effect
       effect="mirror_symmetry"
       start_point="59.977887,81.781355"
       end_point="59.977887,112.27285"
       center_point="59.977887,97.027103"
       id="path-effect9"
       is_visible="true"
       lpeversion="1.2"
       lpesatellites=""
       mode="free"
       discard_orig_path="false"
       fuse_paths="false"
       oposite_fuse="false"
       split_items="false"
       split_open="false"
       link_styles="false" /><inkscape:path-effect
       effect="mirror_symmetry"
       start_point="59.944658,10.409945"
       end_point="59.944658,50.039614"
       center_point="59.944658,30.22478"
       id="path-effect2"
       is_visible="true"
       lpeversion="1.2"
       lpesatellites=""
       mode="free"
       discard_orig_path="false"
       fuse_paths="false"
       oposite_fuse="false"
       split_items="false"
       split_open="false"
       link_styles="false" /><inkscape:path-effect
       effect="mirror_symmetry"
       start_point="59.948435,66.805114"
       end_point="59.948435,107.38004"
       center_point="59.948435,87.092577"
       id="path-effect8"
       is_visible="true"
       lpeversion="1.2"
       lpesatellites=""
       mode="free"
       discard_orig_path="false"
       fuse_paths="false"
       oposite_fuse="false"
       split_items="false"
       split_open="false"
       link_styles="false" /><inkscape:path-effect
       effect="mirror_symmetry"
       start_point="60.801511,9.4541705"
       end_point="60.801511,40.169132"
       center_point="60.801511,24.811651"
       id="path-effect7"
       is_visible="true"
       lpeversion="1.2"
       lpesatellites=""
       mode="free"
       discard_orig_path="false"
       fuse_paths="false"
       oposite_fuse="false"
       split_items="false"
       split_open="false"
       link_styles="false" /><inkscape:path-effect
       effect="fillet_chamfer"
       id="path-effect13"
       is_visible="true"
       lpeversion="1"
       nodesatellites_param="F,0,0,1,0,4.7467821,0,1 @ F,0,0,1,0,4.0515277,0,1 @ F,0,0,1,0,0,0,1 @ F,0,0,1,0,2.4219461,0,1 @ F,0,0,1,0,2.4960577,0,1 @ F,0,0,1,0,0,0,1 @ F,0,0,1,0,4.1062831,0,1"
       radius="0"
       unit="px"
       method="auto"
       mode="F"
       chamfer_steps="1"
       flexible="false"
       use_knot_distance="true"
       apply_no_radius="true"
       apply_with_radius="true"
       only_selected="false"
       hide_knots="false" /><inkscape:path-effect
       effect="fillet_chamfer"
       id="path-effect12"
       is_visible="true"
       lpeversion="1"
       nodesatellites_param="F,0,0,1,0,0,0,1 @ F,0,0,1,0,0,0,1 @ F,0,0,1,0,0,0,1 @ F,0,0,1,0,0,0,1 @ F,0,0,1,0,3.627665,0,1 @ F,0,0,1,0,0,0,1 @ F,0,0,1,0,0,0,1"
       radius="0"
       unit="px"
       method="auto"
       mode="F"
       chamfer_steps="1"
       flexible="false"
       use_knot_distance="true"
       apply_no_radius="true"
       apply_with_radius="true"
       only_selected="false"
       hide_knots="false" /><inkscape:path-effect
       effect="fillet_chamfer"
       id="path-effect11"
       is_visible="true"
       lpeversion="1"
       nodesatellites_param="F,0,0,1,0,2.9729248,0,1 @ F,0,0,1,0,3.8975858,0,1 @ F,0,0,1,0,0,0,1 @ F,0,1,1,0,3.784373,0,1 @ F,0,0,1,0,1.4792147,0,1 @ F,0,0,1,0,0,0,1 @ F,0,0,1,0,3.784373,0,1"
       radius="0"
       unit="px"
       method="auto"
       mode="F"
       chamfer_steps="1"
       flexible="false"
       use_knot_distance="true"
       apply_no_radius="true"
       apply_with_radius="true"
       only_selected="false"
       hide_knots="false" /><linearGradient
       id="linearGradient6"><stop
         style="stop-color:#c88500;stop-opacity:1;"
         offset="0.07163448"
         id="stop8" /><stop
         style="stop-color:#fff300;stop-opacity:1;"
         offset="1"
         id="stop9" /></linearGradient><linearGradient
       id="linearGradient6-1"><stop
         style="stop-color:#c88500;stop-opacity:1;"
         offset="0"
         id="stop6" /><stop
         style="stop-color:#fff300;stop-opacity:1;"
         offset="1"
         id="stop7" /></linearGradient><inkscape:path-effect
       effect="fillet_chamfer"
       id="path-effect1"
       is_visible="true"
       lpeversion="1"
       nodesatellites_param="F,0,0,1,0,24.536157,0,1 @ F,0,0,1,0,24.004899,0,1 @ F,0,0,1,0,23.651152,0,1 @ F,0,0,1,0,24.380791,0,1"
       radius="0"
       unit="px"
       method="auto"
       mode="F"
       chamfer_steps="1"
       flexible="false"
       use_knot_distance="true"
       apply_no_radius="true"
       apply_with_radius="true"
       only_selected="false"
       hide_knots="false" /><linearGradient
       id="a"
       x1="7.937"
       x2="7.937"
       y1="15.081"
       y2="1.852"
       gradientTransform="scale(3.7796)"
       gradientUnits="userSpaceOnUse"><stop
         offset="0"
         stop-color="#9b6f27"
         id="stop1" /><stop
         offset="1"
         stop-color="#d0ab6a"
         id="stop2" /></linearGradient><filter
       id="b"
       width="1.216"
       height="1.216"
       x="-0.108"
       y="-0.108"
       color-interpolation-filters="sRGB"><feGaussianBlur
         stdDeviation="1.35"
         id="feGaussianBlur2" /></filter><linearGradient
       id="linearGradient31"
       x1=".5002"
       x2=".5002"
       y2="1"
       gradientTransform="matrix(244,0,0,228,5.986,12)"
       gradientUnits="userSpaceOnUse"><stop
         stop-color="#ebdbb2"
         stop-opacity=".2"
         offset="0"
         id="stop1-5" /><stop
         stop-color="#ebdbb2"
         stop-opacity=".05"
         offset=".1"
         id="stop2-6" /><stop
         stop-opacity="0"
         offset=".7036"
         id="stop3" /><stop
         stop-opacity=".1"
         offset=".8975"
         id="stop4" /><stop
         stop-opacity=".2"
         offset="1"
         id="stop5" /></linearGradient><inkscape:path-effect
       effect="bspline"
       id="path-effect4-6"
       is_visible="true"
       lpeversion="1.3"
       weight="33.333333"
       steps="2"
       helper_size="0"
       apply_no_weight="true"
       apply_with_weight="true"
       only_selected="false"
       uniform="false" /><inkscape:path-effect
       effect="bspline"
       id="path-effect3-6"
       is_visible="true"
       lpeversion="1.3"
       weight="33.333333"
       steps="2"
       helper_size="0"
       apply_no_weight="true"
       apply_with_weight="true"
       only_selected="false"
       uniform="false" /><inkscape:path-effect
       effect="mirror_symmetry"
       start_point="59.977887,81.781355"
       end_point="59.977887,112.27285"
       center_point="59.977887,97.027103"
       id="path-effect9-4"
       is_visible="true"
       lpeversion="1.2"
       lpesatellites=""
       mode="free"
       discard_orig_path="false"
       fuse_paths="false"
       oposite_fuse="false"
       split_items="false"
       split_open="false"
       link_styles="false" /><inkscape:path-effect
       effect="mirror_symmetry"
       start_point="59.944658,10.409945"
       end_point="59.944658,50.039614"
       center_point="59.944658,30.22478"
       id="path-effect2-9"
       is_visible="true"
       lpeversion="1.2"
       lpesatellites=""
       mode="free"
       discard_orig_path="false"
       fuse_paths="false"
       oposite_fuse="false"
       split_items="false"
       split_open="false"
       link_styles="false" /><inkscape:path-effect
       effect="mirror_symmetry"
       start_point="59.948435,66.805114"
       end_point="59.948435,107.38004"
       center_point="59.948435,87.092577"
       id="path-effect8-5"
       is_visible="true"
       lpeversion="1.2"
       lpesatellites=""
       mode="free"
       discard_orig_path="false"
       fuse_paths="false"
       oposite_fuse="false"
       split_items="false"
       split_open="false"
       link_styles="false" /><inkscape:path-effect
       effect="mirror_symmetry"
       start_point="60.801511,9.4541705"
       end_point="60.801511,40.169132"
       center_point="60.801511,24.811651"
       id="path-effect7-0"
       is_visible="true"
       lpeversion="1.2"
       lpesatellites=""
       mode="free"
       discard_orig_path="false"
       fuse_paths="false"
       oposite_fuse="false"
       split_items="false"
       split_open="false"
       link_styles="false" /><inkscape:path-effect
       effect="fillet_chamfer"
       id="path-effect13-4"
       is_visible="true"
       lpeversion="1"
       nodesatellites_param="F,0,0,1,0,4.7467821,0,1 @ F,0,0,1,0,4.0515277,0,1 @ F,0,0,1,0,0,0,1 @ F,0,0,1,0,2.4219461,0,1 @ F,0,0,1,0,2.4960577,0,1 @ F,0,0,1,0,0,0,1 @ F,0,0,1,0,4.1062831,0,1"
       radius="0"
       unit="px"
       method="auto"
       mode="F"
       chamfer_steps="1"
       flexible="false"
       use_knot_distance="true"
       apply_no_radius="true"
       apply_with_radius="true"
       only_selected="false"
       hide_knots="false" /><inkscape:path-effect
       effect="fillet_chamfer"
       id="path-effect12-8"
       is_visible="true"
       lpeversion="1"
       nodesatellites_param="F,0,0,1,0,0,0,1 @ F,0,0,1,0,0,0,1 @ F,0,0,1,0,0,0,1 @ F,0,0,1,0,0,0,1 @ F,0,0,1,0,3.627665,0,1 @ F,0,0,1,0,0,0,1 @ F,0,0,1,0,0,0,1"
       radius="0"
       unit="px"
       method="auto"
       mode="F"
       chamfer_steps="1"
       flexible="false"
       use_knot_distance="true"
       apply_no_radius="true"
       apply_with_radius="true"
       only_selected="false"
       hide_knots="false" /><inkscape:path-effect
       effect="fillet_chamfer"
       id="path-effect11-7"
       is_visible="true"
       lpeversion="1"
       nodesatellites_param="F,0,0,1,0,2.9729248,0,1 @ F,0,0,1,0,3.8975858,0,1 @ F,0,0,1,0,0,0,1 @ F,0,1,1,0,3.784373,0,1 @ F,0,0,1,0,1.4792147,0,1 @ F,0,0,1,0,0,0,1 @ F,0,0,1,0,3.784373,0,1"
       radius="0"
       unit="px"
       method="auto"
       mode="F"
       chamfer_steps="1"
       flexible="false"
       use_knot_distance="true"
       apply_no_radius="true"
       apply_with_radius="true"
       only_selected="false"
       hide_knots="false" /><inkscape:path-effect
       effect="fillet_chamfer"
       id="path-effect1-2"
       is_visible="true"
       lpeversion="1"
       nodesatellites_param="F,0,0,1,0,24.536157,0,1 @ F,0,0,1,0,24.004899,0,1 @ F,0,0,1,0,23.651152,0,1 @ F,0,0,1,0,24.380791,0,1"
       radius="0"
       unit="px"
       method="auto"
       mode="F"
       chamfer_steps="1"
       flexible="false"
       use_knot_distance="true"
       apply_no_radius="true"
       apply_with_radius="true"
       only_selected="false"
       hide_knots="false" /><filter
       id="b-0"
       width="1.216"
       height="1.216"
       x="-0.108"
       y="-0.108"
       color-interpolation-filters="sRGB"><feGaussianBlur
         stdDeviation="1.35"
         id="feGaussianBlur2-6" /></filter><inkscape:path-effect
       effect="bspline"
       id="path-effect3-4"
       is_visible="true"
       lpeversion="1.3"
       weight="33.333333"
       steps="2"
       helper_size="0"
       apply_no_weight="true"
       apply_with_weight="true"
       only_selected="false"
       uniform="false" /><inkscape:path-effect
       effect="bspline"
       id="path-effect4-3"
       is_visible="true"
       lpeversion="1.3"
       weight="33.333333"
       steps="2"
       helper_size="0"
       apply_no_weight="true"
       apply_with_weight="true"
       only_selected="false"
       uniform="false" /><inkscape:path-effect
       effect="bspline"
       id="path-effect5-1"
       is_visible="true"
       lpeversion="1.3"
       weight="33.333333"
       steps="2"
       helper_size="0"
       apply_no_weight="true"
       apply_with_weight="true"
       only_selected="false"
       uniform="false" /><inkscape:path-effect
       effect="bspline"
       id="path-effect6"
       is_visible="true"
       lpeversion="1.3"
       weight="33.333333"
       steps="2"
       helper_size="0"
       apply_no_weight="true"
       apply_with_weight="true"
       only_selected="false"
       uniform="false" /><inkscape:path-effect
       effect="bspline"
       id="path-effect10"
       is_visible="true"
       lpeversion="1.3"
       weight="33.333333"
       steps="2"
       helper_size="0"
       apply_no_weight="true"
       apply_with_weight="true"
       only_selected="false"
       uniform="false" /><inkscape:path-effect
       effect="bspline"
       id="path-effect14-5"
       is_visible="true"
       lpeversion="1.3"
       weight="33.333333"
       steps="2"
       helper_size="0"
       apply_no_weight="true"
       apply_with_weight="true"
       only_selected="false"
       uniform="false" /><inkscape:path-effect
       effect="bspline"
       id="path-effect15"
       is_visible="true"
       lpeversion="1.3"
       weight="33.333333"
       steps="2"
       helper_size="0"
       apply_no_weight="true"
       apply_with_weight="true"
       only_selected="false"
       uniform="false" /></defs><g
     inkscape:groupmode="layer"
     id="layer3"
     inkscape:label="base"><path
       d="m 76.476937,9.2332248 c 32.063223,0 37.852423,6.6798392 37.852423,38.7430672 v 24.938066 c 0,31.172592 -5.7892,37.852422 -37.852423,37.852422 H 43.523063 c -32.063227,0 -37.8524214,-6.67983 -37.8524214,-37.852422 V 47.976292 c 0,-32.063228 5.7891944,-38.7430672 37.8524214,-38.7430672 z"
       fill="#ebdbb2"
       style="display:inline;opacity:1;isolation:isolate;stroke-width:0.945;fill:#232323;fill-opacity:1;stroke:#ff0000;stroke-opacity:1;stroke-dasharray:none"
       id="path5" /><g
       id="g1"
       transform="matrix(0.79749018,0,0,0.79749018,12.150589,12.289264)"><g
         id="layer2"
         inkscape:label="Layer 2"
         style="opacity:1"><path
           style="opacity:1;fill:#eeeeee;fill-opacity:0;stroke-width:0.965576"
           id="rect1"
           width="104.6141"
           height="104.75148"
           x="7.5219741"
           y="7.4503703"
           inkscape:path-effect="#path-effect1-2"
           sodipodi:type="rect"
           d="M 32.058131,7.4503703 H 88.131173 A 24.004899,24.004899 45 0 1 112.13607,31.455269 V 88.550698 A 23.651152,23.651152 135 0 1 88.48492,112.20185 H 31.902765 A 24.380791,24.380791 45 0 1 7.5219741,87.821059 V 31.986527 A 24.536157,24.536157 135 0 1 32.058131,7.4503703 Z"
           transform="translate(0.40694183)" /><g
           inkscape:groupmode="layer"
           id="layer1-7"
           inkscape:label="Layer 3"
           transform="matrix(1.2682185,0,0,1.2682185,-15.207547,-15.205752)"><path
             style="display:inline;fill:#ffffff;fill-opacity:1;fill-rule:evenodd;stroke-width:2.066"
             d="m 17.843577,18.340578 c -0.122526,0 -0.367578,0 -0.55329,0.01939 -0.185712,0.01939 -0.31208,0.05817 -0.438142,0.165462 -0.126061,0.107293 -0.25181,0.283093 -0.320405,0.450739 -0.06859,0.167647 -0.08003,0.327131 -0.08609,0.715749 -0.0061,0.388618 -0.0067,1.006341 0.04551,1.315209 0.05223,0.308868 0.157364,0.308868 1.994971,0.313395 1.837607,0.0045 5.407545,0.01358 7.254983,0.02814 1.847438,0.01456 1.9723,0.03462 2.034732,0.09447 0.06243,0.05985 0.06243,0.159505 0.06347,2.858728 0.001,2.699222 0.0031,7.997806 -0.0064,10.675986 -0.0095,2.67818 -0.03051,2.735854 -1.834149,2.738029 -1.803636,0.0022 -5.389736,-0.05115 -7.283637,-0.06679 -1.8939,-0.01564 -2.095523,0.0064 -2.199096,0.164554 -0.103573,0.158161 -0.109093,0.452432 -0.109815,1.862169 -7.21e-4,1.409736 0.0034,3.93483 0.0054,5.234938 0.002,1.300107 0.002,1.375175 0.04659,1.422339 0.04455,0.04716 0.133666,0.06642 1.995036,0.06705 1.86137,6.28e-4 5.494854,-0.01738 7.357392,-0.013 1.862539,0.0044 1.954057,0.03112 2.013267,0.288151 0.05921,0.257029 0.08611,0.744316 0.09816,1.62433 0.01205,0.880014 0.0092,2.152695 -0.04046,2.799495 -0.0497,0.646799 -0.146317,0.667693 -2.020646,0.654555 -1.874329,-0.01314 -5.526231,-0.0603 -7.384827,-0.07786 -1.858595,-0.01756 -1.987606,0.0063 -1.987856,0.108939 -2.5e-4,0.102657 -7.5e-4,0.307962 -0.0082,2.069567 -0.0074,1.761605 -0.02175,5.079373 -0.02892,6.763911 -0.0072,1.684537 -0.0072,1.735772 0.03343,1.791111 0.0406,0.05534 0.121785,0.114777 0.69269,0.145513 0.570904,0.03074 1.631481,0.03277 3.393036,0.02198 1.761555,-0.01079 4.22397,-0.0344 5.555075,-0.01887 1.331105,0.01553 1.530845,0.07022 1.630717,0.167165 0.09987,0.09695 0.09987,0.23616 0.104228,1.042512 0.0044,0.806352 0.01307,2.279784 0.01743,3.085311 0.0044,0.805527 0.0044,0.943114 -0.08349,1.044923 -0.08785,0.101809 -0.263542,0.167833 -2.15194,0.171101 -1.888397,0.0033 -5.489352,-0.05622 -7.305936,-0.03091 -1.816584,0.02531 -1.848723,0.135406 -1.879573,0.540853 -0.03085,0.405447 -0.06041,1.106211 0.06346,1.464716 0.123873,0.358504 0.401168,0.374734 2.303357,0.368815 1.902189,-0.0059 5.429126,-0.03398 7.20109,0.01388 1.771964,0.04786 1.788884,0.171655 1.816505,0.995801 0.02762,0.824147 0.06594,2.348587 0.09364,3.176847 0.0277,0.82826 0.04478,0.960304 -0.01766,1.051708 -0.06244,0.0914 -0.204382,0.142165 -2.064029,0.146635 -1.859646,0.0045 -5.436849,-0.03735 -7.291254,-0.03374 -1.854404,0.0036 -1.985937,0.05265 -2.057524,0.126566 -0.07159,0.07391 -0.08323,0.172706 -0.05852,4.131736 0.02471,3.95903 0.08576,11.777987 0.181863,15.761551 0.0961,3.983565 0.227237,4.131573 0.494049,4.24288 0.266811,0.11131 0.669273,0.1859 2.690887,0.22875 2.021614,0.0429 5.662226,0.054 7.558246,0.0428 1.89602,-0.0112 2.047351,-0.0447 2.253515,-0.15534 0.206164,-0.11068 0.467131,-0.298577 0.595898,-5.651997 0.128768,-5.35342 0.125334,-15.871947 0.123618,-21.22488 -0.0017,-5.352932 -0.0017,-5.540053 0.498876,-5.635477 0.500594,-0.09542 1.501741,-0.09915 2.428017,-0.07028 0.926276,0.02887 1.777629,0.09032 2.564144,0.210997 0.786516,0.120675 1.50815,0.300561 2.129031,0.543671 0.62088,0.24311 1.140972,0.549428 1.564013,1.015526 0.423041,0.466098 0.749008,1.091945 1.029214,1.788367 0.280206,0.696423 0.514636,1.463379 0.634532,4.406632 0.119896,2.943252 0.125252,8.06258 0.164624,11.878096 0.03937,3.815515 0.112754,6.327015 0.273936,8.146061 0.161182,1.819046 0.410151,2.945542 0.583877,3.609752 0.173726,0.664211 0.272199,0.866102 0.43044,0.975232 0.15824,0.10914 0.37623,0.1255 2.489769,0.1485 2.11354,0.023 6.12246,0.0526 8.214336,0.0343 2.091875,-0.0183 2.266613,-0.0846 2.426498,-0.186 0.159886,-0.10137 0.304907,-0.237825 0.389099,-0.390927 0.08419,-0.153102 0.107552,-0.322842 0.03432,-0.759238 -0.07324,-0.436396 -0.243058,-1.139416 -0.450725,-2.08279 -0.207668,-0.943374 -0.453167,-2.12704 -0.572644,-4.675177 -0.119477,-2.548137 -0.112927,-6.460565 -0.08982,-9.605734 0.0231,-3.14517 0.06275,-5.522908 0.02959,-7.098946 C 55.081971,73.942141 54.975986,73.167882 54.719546,71.88922 54.463105,70.610558 54.056227,68.82758 53.587004,67.454018 53.11778,66.080456 52.586242,65.116384 51.83786,64.126319 51.089477,63.136255 50.1243,62.120258 49.450959,61.49741 48.777618,60.874561 48.396146,60.644889 48.165087,60.513799 47.934029,60.382708 47.8534,60.350207 47.795647,60.292175 c -0.05775,-0.05803 -0.09262,-0.141584 -0.0331,-0.21801 0.05952,-0.07643 0.213414,-0.145722 0.578106,-0.406326 0.364691,-0.260604 0.940151,-0.712496 1.575691,-1.32635 0.63554,-0.613855 1.33112,-1.38963 1.933149,-2.27335 0.602028,-0.883721 1.110471,-1.875331 1.483135,-2.71369 0.372664,-0.838358 0.609529,-1.523417 0.866838,-2.655153 0.257308,-1.131735 0.535045,-2.710071 0.673916,-4.438319 0.138871,-1.728248 0.138871,-3.606303 0.151995,-5.630485 0.01312,-2.024182 0.03937,-4.194367 -0.130425,-6.192095 -0.169795,-1.997729 -0.535616,-3.822886 -1.103387,-5.500546 -0.567771,-1.67766 -1.337453,-3.207726 -2.051594,-4.295885 -0.714141,-1.088159 -1.372698,-1.734354 -2.1726,-2.387113 -0.799903,-0.652758 -1.7411,-1.31204 -2.649069,-1.803949 -0.907969,-0.491908 -1.782657,-0.816417 -2.596397,-1.103382 -0.813741,-0.286965 -1.566486,-0.536369 -2.440101,-0.722527 -0.873616,-0.186157 -1.868045,-0.309057 -5.819671,-0.362048 -3.951627,-0.05299 -10.860155,-0.03607 -14.369026,-0.01148 -3.508871,0.02459 -3.617943,0.05685 -3.672481,0.07298 -0.05454,0.01613 -0.05452,0.01613 -0.177048,0.01613 z"
             id="path3"
             inkscape:path-effect="#path-effect3-4"
             inkscape:original-d="m 17.966103,18.340578 c -0.245052,0 -0.490104,0 -0.735155,0 -0.126373,0.03878 -0.252741,0.07756 -0.379111,0.116339 -0.125753,0.175806 -0.251501,0.351606 -0.377252,0.527408 -0.01144,0.159491 -0.02288,0.318975 -0.03432,0.478462 -6.82e-4,0.617749 -0.0014,1.235472 -0.002,1.853208 0.105135,0 0.210265,0 0.315398,0 3.570081,0.0091 7.140019,0.01811 10.710028,0.02716 0.124867,0.02006 0.249729,0.04012 0.374593,0.06018 0,0.09965 0,0.1993 0,0.298949 0.0021,5.298796 0.0042,10.59738 0.0062,15.89607 -0.02103,0.05767 -0.04206,0.115344 -0.06309,0.173015 -3.586243,-0.05332 -7.172343,-0.106641 -10.758515,-0.159962 -0.20163,0.02203 -0.403252,0.04407 -0.604878,0.06611 -0.0055,0.294284 -0.01104,0.588555 -0.01656,0.882833 0.0041,2.525195 0.0082,5.050289 0.01223,7.575434 0,0.07507 0,0.150138 0,0.225207 0.08911,0.01926 0.178221,0.03852 0.267332,0.05778 3.633629,-0.018 7.267113,-0.03601 10.90067,-0.05401 0.09152,0.02675 0.183038,0.0535 0.274557,0.08025 0.0269,0.487307 0.0538,0.974594 0.0807,1.46189 -0.0028,1.272732 -0.0056,2.545413 -0.0084,3.818119 -0.09661,0.02089 -0.193221,0.04179 -0.289832,0.06268 -3.652048,-0.04717 -7.30395,-0.09434 -10.955926,-0.141502 -0.06523,0.01197 -0.259458,0.04786 -0.194226,0.03589 -0.0015,0.205313 -0.0015,0.410619 -0.0015,0.615929 -0.01433,3.317901 -0.02867,6.635669 -0.043,9.953504 0,0.05124 0,0.102475 0,0.153713 0.08119,0.05944 0.16238,0.118878 0.243571,0.178317 1.060618,0.002 2.121195,0.0041 3.181792,0.0061 2.462513,-0.02361 4.924928,-0.04722 7.387392,-0.07084 0.199747,0.05468 0.399486,0.109364 0.599229,0.164045 0,0.139217 0,0.278428 0,0.417642 0.0087,1.47349 0.01742,2.946922 0.02614,4.420383 0,0.137593 0,0.27518 0,0.412771 -0.1757,0.06603 -0.351393,0.132051 -0.527089,0.198076 -3.601099,-0.05949 -7.202054,-0.118976 -10.803081,-0.178464 -0.03214,0.110103 -0.06428,0.220201 -0.09642,0.330302 -0.02956,0.700793 -0.05912,1.401557 -0.08868,2.102336 0.277305,0.01623 0.5546,0.03246 0.8319,0.04869 3.527078,-0.02807 7.054015,-0.05614 10.581023,-0.0842 0.01692,0.123795 0.03384,0.247586 0.05076,0.371379 0.03832,1.5245 0.07664,3.04894 0.114963,4.57341 0.01708,0.13205 0.03416,0.264094 0.05124,0.39614 -0.141951,0.05076 -0.283897,0.101523 -0.425845,0.152284 -3.577345,-0.04182 -7.154548,-0.08364 -10.731821,-0.125459 -0.131537,0.04904 -0.263069,0.09808 -0.394603,0.147122 -0.01164,0.09879 -0.02328,0.197581 -0.03492,0.296371 0.06106,7.81927 0.122112,15.638227 0.183168,23.457341 0.131144,0.148014 0.262284,0.296021 0.393426,0.44404 0.402478,0.0746 0.804941,0.14919 1.207411,0.22379 3.640757,0.0111 7.281369,0.0222 10.922053,0.0333 0.151351,-0.0335 0.302697,-0.0669 0.454045,-0.10042 0.260974,-0.18789 0.521937,-0.375787 0.782905,-0.56368 -0.0034,-10.518947 -0.0069,-21.037474 -0.0103,-31.556211 0,-0.187128 0,-0.374249 0,-0.561374 1.001187,-0.0037 2.002334,-0.0074 3.0035,-0.01117 0.851386,0.06146 1.702739,0.122913 2.554108,0.18437 0.721662,0.179893 1.443296,0.359779 2.164945,0.539669 0.520112,0.30633 1.040204,0.612648 1.560306,0.918972 0.32598,0.625872 0.651946,1.251719 0.97792,1.877578 0.234439,0.766986 0.468869,1.533942 0.703304,2.300914 0.0054,5.119533 0.01072,10.238861 0.01607,15.358292 0.07339,2.5116 0.146769,5.0231 0.220154,7.53465 0.248979,1.126542 0.497948,2.253038 0.746922,3.379557 0.09848,0.201901 0.196952,0.403793 0.295428,0.605693 0.218002,0.0164 0.435996,0.0327 0.653994,0.0491 4.009079,0.0296 8.017999,0.0593 12.026999,0.0889 0.174748,-0.0663 0.349489,-0.13258 0.524233,-0.19887 0.145027,-0.13646 0.290048,-0.272915 0.435072,-0.409372 0.02336,-0.169747 0.04672,-0.339487 0.07008,-0.509231 -0.16983,-0.703048 -0.339653,-1.406068 -0.509479,-2.109103 -0.245509,-1.183713 -0.491008,-2.367379 -0.736512,-3.551068 0.0066,-3.912585 0.0131,-7.825013 0.01965,-11.737519 0.03965,-2.377833 0.07931,-4.755571 0.11896,-7.133356 C 55.08197,73.942141 54.975986,73.167882 54.87,72.393607 54.463105,70.610558 54.056227,68.82758 53.64934,67.044566 c -0.53156,-0.96411 -1.063098,-1.928182 -1.594647,-2.892273 -0.965216,-1.016038 -1.930392,-2.032035 -2.895589,-3.048052 -0.381486,-0.229681 -0.762958,-0.459352 -1.144437,-0.689028 -0.08064,-0.0325 -0.161269,-0.065 -0.241903,-0.09751 -0.03487,-0.08356 -0.06974,-0.16711 -0.104603,-0.250665 0.153903,-0.0693 0.307799,-0.138595 0.461699,-0.207892 0.575483,-0.451911 1.150943,-0.903803 1.726415,-1.355705 0.695608,-0.775807 1.391188,-1.551582 2.086782,-2.327373 0.508463,-0.99165 1.016906,-1.98326 1.525359,-2.974891 0.236875,-0.685086 0.47374,-1.370145 0.71061,-2.055218 0.277748,-1.578398 0.555484,-3.156734 0.833226,-4.735101 0,-1.878129 0,-3.756184 0,-5.634276 0.02625,-2.170272 0.05249,-4.340457 0.07874,-6.510685 -0.365836,-1.825229 -0.731657,-3.650386 -1.097486,-5.475579 -0.769713,-1.530127 -1.539395,-3.060193 -2.309093,-4.590289 -0.658584,-0.646222 -1.317141,-1.292417 -1.975711,-1.938626 -0.941235,-0.659308 -1.882432,-1.31859 -2.823648,-1.977886 -0.874722,-0.324521 -1.74941,-0.64903 -2.624115,-0.973545 -0.752776,-0.249414 -1.505521,-0.498819 -2.258282,-0.748229 -0.99447,-0.122905 -1.988899,-0.245805 -2.983349,-0.368708 -6.908803,0.01692 -13.817331,0.03384 -20.725996,0.05076 -0.109077,0.03226 -0.218149,0.06452 -0.327224,0.09678 z" /><path
             style="fill:#000000;fill-opacity:1;fill-rule:evenodd;stroke-width:2.066"
             d="m 30.206652,34.990889 c 0.02332,3.877212 0.06997,11.631635 0.117776,15.536521 0.04781,3.904887 0.09678,3.960239 0.348281,3.992835 0.251499,0.0326 0.705506,0.04243 1.663891,0.02613 0.958386,-0.0163 2.421083,-0.05873 3.395886,-0.139492 0.974804,-0.08077 1.461666,-0.199865 2.015571,-0.486735 0.553906,-0.28687 1.17482,-0.74149 1.66472,-1.299233 0.489899,-0.557744 0.848756,-1.218575 1.093068,-1.82299 0.244311,-0.604416 0.374064,-1.15238 0.465839,-1.826543 0.09177,-0.674163 0.145568,-1.474482 0.163165,-3.414978 0.0176,-1.940496 -0.001,-5.021031 -0.01423,-6.835245 -0.01323,-1.814214 -0.0211,-2.362021 -0.120324,-2.916126 -0.09923,-0.554104 -0.289818,-1.114471 -0.570965,-1.652527 -0.281146,-0.538057 -0.652832,-1.053771 -1.084072,-1.508441 -0.431239,-0.45467 -0.922005,-0.848271 -1.358158,-1.069975 -0.436152,-0.221704 -0.817667,-0.271501 -2.029163,-0.317704 -1.211496,-0.0462 -3.252885,-0.08881 -4.317276,-0.110114 -1.06439,-0.0213 -1.151742,-0.0213 -1.231793,-0.02319 -0.08005,-0.0019 -0.152785,-0.0056 -0.189158,-0.0075 -0.03637,-0.0019 -0.03638,-0.0019 -0.01305,3.875333 z"
             id="path4"
             inkscape:path-effect="#path-effect4-3"
             inkscape:original-d="m 30.183329,31.113678 c 0.04664,7.754423 0.09329,15.508846 0.139937,23.263269 0.04897,0.05535 0.09794,0.110705 0.146918,0.166057 0.454025,0.0098 0.908031,0.01967 1.362047,0.02951 1.462755,-0.04243 2.925452,-0.08486 4.388177,-0.127289 0.486882,-0.119103 0.973744,-0.238202 1.460615,-0.357303 0.62094,-0.454638 1.241854,-0.909259 1.862781,-1.363888 0.358872,-0.660858 0.717729,-1.321689 1.076594,-1.982533 0.129758,-0.547987 0.259511,-1.095951 0.389266,-1.643927 0.0538,-0.80035 0.107588,-1.600669 0.161382,-2.401003 -0.0186,-3.080658 -0.0372,-6.161193 -0.0558,-9.24179 -0.0079,-0.54783 -0.01573,-1.095638 -0.02359,-1.643457 -0.190596,-0.56039 -0.381184,-1.120757 -0.571776,-1.681135 -0.371701,-0.515735 -0.743387,-1.031449 -1.115081,-1.547173 -0.490785,-0.393617 -0.981551,-0.787217 -1.472327,-1.180826 -0.381529,-0.0498 -0.763043,-0.0996 -1.144564,-0.149394 -2.041472,-0.04261 -4.082861,-0.08522 -6.124292,-0.127823 -0.08735,0 -0.174702,0 -0.262052,0 -0.07275,-0.0038 -0.145488,-0.0075 -0.218231,-0.0113 z" /><path
             style="fill:#ffffff;fill-opacity:1;fill-rule:evenodd;stroke-width:2.066"
             d="m 65.289193,18.187533 c -0.843285,-0.02196 -2.529854,-0.06587 -3.463061,-0.03463 -0.933207,0.03124 -1.113043,0.137629 -1.283194,0.24816 -0.170152,0.110531 -0.330608,0.225196 -0.445026,0.748056 -0.114418,0.522859 -0.182793,1.453873 -0.185361,12.088963 -0.0026,10.63509 0.06067,30.973423 0.106015,41.189618 0.04534,10.216195 0.07279,10.309839 0.174426,10.37265 0.101631,0.06281 0.277439,0.09478 2.344715,0.103402 2.067276,0.0086 6.025861,-0.0061 8.076378,-0.01349 2.050516,-0.0074 2.192878,-0.0074 2.273148,-0.52846 0.08027,-0.521092 0.09844,-1.563233 0.08333,-7.516287 -0.01511,-5.953055 -0.06351,-16.816567 -0.08771,-22.340213 -0.0242,-5.523645 -0.0242,-5.707199 0.101701,-5.462521 0.1259,0.244678 0.37769,0.917566 2.690489,9.549576 2.3128,8.632009 6.68643,25.222464 8.95815,33.833881 2.27172,8.611416 2.441435,9.243436 2.569439,9.589697 0.128004,0.34626 0.214265,0.40673 2.394475,0.43015 2.18021,0.0234 6.454188,0.01 8.713456,-0.007 2.259268,-0.0171 2.503728,-0.0377 2.762988,-0.16718 0.25926,-0.12946 0.5333,-0.367778 0.75525,-0.537955 0.22196,-0.170176 0.39182,-0.272208 0.36588,-13.280698 -0.0259,-13.00849 -0.24767,-38.922406 -0.35432,-52.266919 -0.10665,-13.344513 -0.0982,-14.119084 -0.10495,-14.569504 -0.007,-0.450419 -0.0286,-0.576673 -0.12927,-0.746999 -0.10064,-0.170325 -0.28002,-0.384715 -0.40556,-0.506737 -0.12554,-0.122021 -0.19725,-0.151677 -2.067496,-0.154105 -1.870244,-0.0024 -5.538883,0.02237 -7.448536,0.06248 -1.909654,0.04011 -2.060244,0.09553 -2.269564,0.235975 -0.20932,0.140448 -0.477356,0.365916 -0.59332,1.169416 -0.115963,0.8035 -0.07985,2.184972 -0.05565,9.151427 0.0242,6.966454 0.03649,19.51736 0.02469,25.921234 -0.0118,6.403873 -0.0477,6.660455 -0.09799,6.59995 -0.0503,-0.06051 -0.114995,-0.438086 -0.645549,-2.409789 -0.530553,-1.971703 -1.526905,-5.537322 -3.411644,-12.549634 -1.88474,-7.012312 -4.657738,-17.470829 -6.062772,-22.737165 -1.405033,-5.266337 -1.442046,-5.340281 -1.573708,-5.383452 -0.131663,-0.04317 -0.357967,-0.05557 -2.18487,-0.06037 -1.826904,-0.0048 -5.254264,-0.002 -6.967979,-6e-4 -1.713714,0.0014 -1.713714,0.0014 -2.556999,-0.0206 z"
             id="path5-9"
             inkscape:path-effect="#path-effect5-1"
             inkscape:original-d="m 66.132478,18.209489 c -1.68657,-0.04391 -3.373139,-0.08783 -5.059709,-0.131737 -0.179844,0.106393 -0.35968,0.212782 -0.53952,0.319174 -0.160463,0.114669 -0.320919,0.229335 -0.481378,0.344002 -0.06838,0.931052 -0.136752,1.862066 -0.205128,2.793099 0.06324,20.339147 0.126478,40.67748 0.189717,61.01622 0.02745,0.09365 0.0549,0.187294 0.08235,0.280942 0.175814,0.03197 0.35162,0.06395 0.527431,0.09592 3.958742,-0.01474 7.917327,-0.02948 11.875991,-0.04421 0.142369,0 0.284731,0 0.427097,0 0.01817,-1.042184 0.03634,-2.084325 0.05452,-3.126488 -0.0484,-10.863946 -0.0968,-21.727458 -0.145196,-32.591187 0,-0.183562 0,-0.367116 0,-0.550674 0.2518,0.672914 0.50359,1.345802 0.755384,2.018702 4.373805,16.591119 8.747435,33.181574 13.121152,49.772361 0.169723,0.632046 0.339438,1.264066 0.509157,1.896097 0.08628,0.0605 0.172547,0.12096 0.25882,0.18143 4.27415,-0.0136 8.548128,-0.0273 12.822194,-0.0409 0.24447,-0.0206 0.48893,-0.0412 0.73339,-0.0618 0.27406,-0.23832 0.5481,-0.476638 0.82215,-0.714958 0.16986,-0.102033 0.33972,-0.204063 0.50957,-0.306093 -0.22173,-25.914952 -0.44346,-51.828868 -0.66519,-77.743302 0.008,-0.774597 0.0169,-1.549163 0.0253,-2.323744 -0.0219,-0.126258 -0.0438,-0.252512 -0.0657,-0.378768 -0.17938,-0.214397 -0.35876,-0.428785 -0.53814,-0.643178 -0.0717,-0.02965 -0.14341,-0.05931 -0.21512,-0.08896 -3.66878,0.0248 -7.337419,0.04959 -11.00613,0.07439 -0.150596,0.05542 -0.301186,0.110839 -0.451778,0.166258 -0.268048,0.225477 -0.536084,0.450945 -0.804126,0.676417 0.03611,1.381528 0.07223,2.763 0.108343,4.144501 0.01229,12.551408 0.02458,25.102314 0.03687,37.653472 -0.03589,0.25659 -0.07179,0.513171 -0.107681,0.769757 -0.0647,-0.377596 -0.129399,-0.755177 -0.194099,-1.132765 C 87.516627,56.967645 86.520268,53.402028 85.523889,49.83634 82.750781,39.377406 79.977783,28.918889 77.20473,18.460164 c -0.03701,-0.07395 -0.07403,-0.14789 -0.111038,-0.221834 -0.226314,-0.0124 -0.452618,-0.0248 -0.678927,-0.0372 -3.427498,0.0028 -6.854858,0.0056 -10.282287,0.0084 z" /><path
             style="fill:#ffffff;fill-opacity:1;fill-rule:evenodd;stroke-width:2.066"
             d="m 65.428893,88.269184 c -0.980769,-0.0017 -2.942305,-0.0051 -3.977025,0.0069 -1.034721,0.01202 -1.142618,0.03945 -1.207995,0.07271 -0.06538,0.03326 -0.08823,0.07234 -0.122492,1.932027 -0.03426,1.859685 -0.07993,5.539823 -0.07262,7.421618 0.0073,1.881796 0.06761,1.965173 0.183384,2.100589 0.115779,0.135416 0.28704,0.322868 0.432438,0.420828 0.145398,0.0979 0.264992,0.10642 2.128257,0.11696 1.863265,0.0105 5.470083,0.0231 7.319773,0.0166 1.849689,-0.006 1.942142,-0.032 2.098096,-0.11307 0.155953,-0.081 0.375364,-0.21751 0.535387,-0.366577 0.160022,-0.149066 0.260645,-0.310705 0.295663,-2.223226 0.03502,-1.912521 0.0044,-5.575772 -0.01842,-7.43885 -0.02285,-1.863078 -0.03797,-1.9259 -1.138982,-1.950001 -1.101014,-0.0241 -3.287837,-0.0095 -4.38127,-0.0022 -1.093434,0.0073 -1.093431,0.0073 -2.074199,0.0056 z"
             id="path6"
             inkscape:path-effect="#path-effect6"
             inkscape:original-d="m 66.409661,88.270887 c -1.961537,-0.0034 -3.923073,-0.0068 -5.88461,-0.01022 -0.107903,0.02744 -0.215802,0.05487 -0.323703,0.08231 -0.02285,0.03908 -0.04571,0.07816 -0.06856,0.117247 -0.04567,3.680286 -0.09134,7.360424 -0.137004,11.040637 0.06029,0.08338 0.120586,0.166755 0.180878,0.250132 0.171267,0.187454 0.342526,0.374907 0.513789,0.562357 0.119567,0.008 0.23913,0.0169 0.358695,0.0254 3.606963,0.0126 7.213781,0.0252 10.820672,0.0378 0.09248,-0.0256 0.18495,-0.0511 0.277425,-0.0767 0.219422,-0.13649 0.438835,-0.27297 0.658253,-0.409457 0.100626,-0.161646 0.201249,-0.323285 0.301873,-0.484928 -0.03059,-3.663399 -0.06117,-7.32665 -0.09176,-10.989975 -0.01512,-0.06283 -0.03023,-0.125654 -0.04535,-0.188481 -2.186911,0.01463 -4.373734,0.02925 -6.560601,0.04388 z" /><path
             style="fill:#ff0000;fill-opacity:1;fill-rule:evenodd;stroke-width:2.066"
             d="m 20.224634,68.677766 c 3.769499,-0.01878 11.308497,-0.05634 15.148951,-0.07511 3.840454,-0.01878 3.982359,-0.01878 4.107925,0.0169 0.125566,0.03568 0.234788,0.107024 0.544391,0.741243 0.309603,0.63422 0.819566,1.831262 1.079766,2.579131 0.2602,0.74787 0.270626,1.046532 0.265044,1.263832 -0.0056,0.2173 -0.02717,0.353228 -0.09966,0.4361 -0.07249,0.08287 -0.315257,0.141529 -4.394313,0.141529 -4.079055,0 -12.236839,0 -16.31201,-0.03204 -4.075171,-0.03204 -4.067564,-0.09613 -4.072032,-0.943616 -0.0045,-0.84749 -0.02101,-2.478321 -0.02928,-3.293753 -0.0083,-0.815431 -0.0083,-0.815429 3.761223,-0.834208 z"
             id="path7"
             inkscape:path-effect="#path-effect10"
             inkscape:original-d="m 16.455135,68.696545 c 7.538998,-0.03756 15.077996,-0.07511 22.616994,-0.112672 0.14191,0 0.283815,0 0.425722,0 0.109225,0.07135 0.218447,0.142699 0.32767,0.214048 0.509983,1.19709 1.019946,2.394132 1.529919,3.591197 0.01042,0.298674 0.02085,0.597336 0.03128,0.896003 -0.02159,0.135933 -0.04318,0.271861 -0.06477,0.407792 -0.122055,0.03535 -0.488211,0.123824 -0.366158,0.08847 -8.158111,0.01172 -16.315895,0.0059 -24.473843,0 0.0076,-0.06408 0.01521,-0.128166 0.02282,-0.192249 -0.01654,-1.630897 -0.03309,-3.261728 -0.04963,-4.892591 z" /><path
             style="fill:#ff0000;fill-opacity:1;fill-rule:evenodd;stroke-width:2.066"
             d="m 53.990721,68.758785 c 0,0 0,0 0,0 2.028347,-0.0078 4.056695,-0.01555 5.088419,0.0054 1.031724,0.0209 1.066821,0.07046 1.084371,0.158406 0.01755,0.08795 0.01755,0.214267 0.01073,1.015933 -0.0068,0.801667 -0.02045,2.278618 -0.05013,3.043578 -0.02969,0.764961 -0.07543,0.817895 -0.518535,0.84444 -0.443103,0.02655 -1.283528,0.0267 -2.148532,0.03287 -0.865005,0.0062 -1.754536,0.01835 -2.205404,-0.02707 -0.450868,-0.04542 -0.463054,-0.148428 -0.525764,-0.53887 -0.06271,-0.390442 -0.175939,-1.068287 -0.262317,-1.752713 -0.08638,-0.684426 -0.1459,-1.375394 -0.204888,-1.81006 -0.05899,-0.434665 -0.117439,-0.613011 -0.162006,-0.73227 -0.04457,-0.119258 -0.07525,-0.179429 -0.09059,-0.209513 -0.01534,-0.03008 -0.01535,-0.03008 -0.01535,-0.03008 z"
             id="path10"
             inkscape:path-effect="#path-effect14-5"
             inkscape:original-d="m 53.990721,68.758785 c 0,0 0,0 0,0 0,0 4.056695,-0.01555 6.085042,-0.02332 0.0351,0.04957 0.0702,0.09913 0.105297,0.148697 0,0.126326 0,0.252647 0,0.37897 -0.01363,1.47701 -0.02726,2.953961 -0.04089,4.430941 -0.04575,0.05294 -0.09149,0.105876 -0.137239,0.158814 -0.840458,1.52e-4 -1.680883,3.04e-4 -2.521325,4.56e-4 -0.889567,0.01218 -1.779098,0.02437 -2.668647,0.03655 -0.01219,-0.103016 -0.02438,-0.206027 -0.03656,-0.30904 -0.113233,-0.677872 -0.226462,-1.355717 -0.339693,-2.033575 -0.05953,-0.690994 -0.119047,-1.381962 -0.178571,-2.072942 -0.05845,-0.178352 -0.116903,-0.356697 -0.175354,-0.535046 -0.03068,-0.06017 -0.06137,-0.120338 -0.09205,-0.180507 z" /><path
             style="fill:#ff0000;fill-opacity:1;fill-rule:evenodd;stroke-width:2.066"
             d="m 75.427396,68.753458 c -0.508126,0.0088 -1.524376,0.02632 -2.032502,0.04717 -0.508125,0.02084 -0.508125,0.045 -0.508125,0.07187 0,0.02687 0,0.05647 0,0.904366 0,0.847895 0,2.514021 0.0345,3.343705 0.03451,0.829684 0.103516,0.822894 1.342052,0.820782 1.238535,-0.0021 3.646499,4.55e-4 4.860957,-0.0024 1.214458,-0.0029 1.235334,-0.01125 1.011607,-0.889377 -0.223727,-0.878123 -0.692053,-2.625938 -0.94559,-3.498813 -0.253538,-0.872876 -0.292268,-0.870776 -0.333261,-0.869726 -0.04099,0.001 -0.08424,0.001 -0.57155,0.01149 -0.487308,0.01045 -1.418631,0.03133 -1.884301,0.04178 -0.465671,0.01044 -0.465667,0.01042 -0.973792,0.0192 z"
             id="path14"
             inkscape:path-effect="#path-effect15"
             inkscape:original-d="m 75.935521,68.744683 c -1.016251,0.01755 -2.032501,0.0351 -3.048752,0.05265 0,0.02414 0,0.04829 0,0.07243 0,0.0296 0,0.0592 0,0.0888 0,1.666191 0,3.332317 0,4.998475 0.06901,-0.0068 0.138021,-0.01358 0.207031,-0.02037 2.408061,0.0026 4.816025,0.0051 7.224037,0.0077 0.02089,-0.0084 0.04178,-0.01672 0.06267,-0.02508 -0.468344,-1.747886 -0.93667,-3.495701 -1.405005,-5.243552 -0.03874,0.0021 -0.07747,0.0042 -0.116205,0.0063 -0.04325,0 -0.0865,0 -0.129755,0 -0.931361,0.02089 -1.862684,0.04178 -2.794025,0.06267 z" /></g></g><g
         id="layer1"
         inkscape:label="Layer 3" /></g></g></svg>
