<?xml version="1.0" encoding="UTF-8" standalone="no"?>
<!-- Created with Inkscape (http://www.inkscape.org/) -->

<svg
   width="120"
   height="120"
   viewBox="0 0 120 120"
   version="1.1"
   id="svg1"
   xml:space="preserve"
   inkscape:version="1.4.1 (93de688d07, 2025-03-30)"
   sodipodi:docname="rpcs3.svg"
   xmlns:inkscape="http://www.inkscape.org/namespaces/inkscape"
   xmlns:sodipodi="http://sodipodi.sourceforge.net/DTD/sodipodi-0.dtd"
   xmlns:xlink="http://www.w3.org/1999/xlink"
   xmlns="http://www.w3.org/2000/svg"
   xmlns:svg="http://www.w3.org/2000/svg"><sodipodi:namedview
     id="namedview1"
     pagecolor="#1f1f1f"
     bordercolor="#000000"
     borderopacity="0.25"
     inkscape:showpageshadow="2"
     inkscape:pageopacity="0.0"
     inkscape:pagecheckerboard="0"
     inkscape:deskcolor="#3c3c3c"
     inkscape:document-units="px"
     inkscape:zoom="5.6568543"
     inkscape:cx="67.440309"
     inkscape:cy="50.116193"
     inkscape:window-width="1660"
     inkscape:window-height="1287"
     inkscape:window-x="0"
     inkscape:window-y="0"
     inkscape:window-maximized="1"
     inkscape:current-layer="g1" /><defs
     id="defs1"><linearGradient
       id="linearGradient1"
       inkscape:collect="always"><stop
         style="stop-color:#d200ff;stop-opacity:1;"
         offset="0"
         id="stop10" /><stop
         style="stop-color:#2200ff;stop-opacity:1;"
         offset="1"
         id="stop11" /></linearGradient><inkscape:path-effect
       effect="bspline"
       id="path-effect14"
       is_visible="true"
       lpeversion="1.3"
       weight="33.333333"
       steps="2"
       helper_size="0"
       apply_no_weight="true"
       apply_with_weight="true"
       only_selected="false"
       uniform="false" /><inkscape:path-effect
       effect="fillet_chamfer"
       id="path-effect5"
       is_visible="true"
       lpeversion="1"
       nodesatellites_param="F,0,0,1,0,37.022737,0,1 @ F,0,0,1,0,36.062445,0,1 @ F,0,0,1,0,35.528974,0,1 @ F,0,0,1,0,28.991378,0,1"
       radius="0"
       unit="px"
       method="auto"
       mode="F"
       chamfer_steps="1"
       flexible="false"
       use_knot_distance="true"
       apply_no_radius="true"
       apply_with_radius="true"
       only_selected="false"
       hide_knots="false" /><inkscape:path-effect
       effect="bspline"
       id="path-effect4"
       is_visible="true"
       lpeversion="1.3"
       weight="33.333333"
       steps="2"
       helper_size="0"
       apply_no_weight="true"
       apply_with_weight="true"
       only_selected="false"
       uniform="false" /><inkscape:path-effect
       effect="bspline"
       id="path-effect3"
       is_visible="true"
       lpeversion="1.3"
       weight="33.333333"
       steps="2"
       helper_size="0"
       apply_no_weight="true"
       apply_with_weight="true"
       only_selected="false"
       uniform="false" /><inkscape:path-effect
       effect="mirror_symmetry"
       start_point="59.977887,81.781355"
       end_point="59.977887,112.27285"
       center_point="59.977887,97.027103"
       id="path-effect9"
       is_visible="true"
       lpeversion="1.2"
       lpesatellites=""
       mode="free"
       discard_orig_path="false"
       fuse_paths="false"
       oposite_fuse="false"
       split_items="false"
       split_open="false"
       link_styles="false" /><inkscape:path-effect
       effect="mirror_symmetry"
       start_point="59.944658,10.409945"
       end_point="59.944658,50.039614"
       center_point="59.944658,30.22478"
       id="path-effect2"
       is_visible="true"
       lpeversion="1.2"
       lpesatellites=""
       mode="free"
       discard_orig_path="false"
       fuse_paths="false"
       oposite_fuse="false"
       split_items="false"
       split_open="false"
       link_styles="false" /><inkscape:path-effect
       effect="mirror_symmetry"
       start_point="59.948435,66.805114"
       end_point="59.948435,107.38004"
       center_point="59.948435,87.092577"
       id="path-effect8"
       is_visible="true"
       lpeversion="1.2"
       lpesatellites=""
       mode="free"
       discard_orig_path="false"
       fuse_paths="false"
       oposite_fuse="false"
       split_items="false"
       split_open="false"
       link_styles="false" /><inkscape:path-effect
       effect="mirror_symmetry"
       start_point="60.801511,9.4541705"
       end_point="60.801511,40.169132"
       center_point="60.801511,24.811651"
       id="path-effect7"
       is_visible="true"
       lpeversion="1.2"
       lpesatellites=""
       mode="free"
       discard_orig_path="false"
       fuse_paths="false"
       oposite_fuse="false"
       split_items="false"
       split_open="false"
       link_styles="false" /><inkscape:path-effect
       effect="fillet_chamfer"
       id="path-effect13"
       is_visible="true"
       lpeversion="1"
       nodesatellites_param="F,0,0,1,0,4.7467821,0,1 @ F,0,0,1,0,4.0515277,0,1 @ F,0,0,1,0,0,0,1 @ F,0,0,1,0,2.4219461,0,1 @ F,0,0,1,0,2.4960577,0,1 @ F,0,0,1,0,0,0,1 @ F,0,0,1,0,4.1062831,0,1"
       radius="0"
       unit="px"
       method="auto"
       mode="F"
       chamfer_steps="1"
       flexible="false"
       use_knot_distance="true"
       apply_no_radius="true"
       apply_with_radius="true"
       only_selected="false"
       hide_knots="false" /><inkscape:path-effect
       effect="fillet_chamfer"
       id="path-effect12"
       is_visible="true"
       lpeversion="1"
       nodesatellites_param="F,0,0,1,0,0,0,1 @ F,0,0,1,0,0,0,1 @ F,0,0,1,0,0,0,1 @ F,0,0,1,0,0,0,1 @ F,0,0,1,0,3.627665,0,1 @ F,0,0,1,0,0,0,1 @ F,0,0,1,0,0,0,1"
       radius="0"
       unit="px"
       method="auto"
       mode="F"
       chamfer_steps="1"
       flexible="false"
       use_knot_distance="true"
       apply_no_radius="true"
       apply_with_radius="true"
       only_selected="false"
       hide_knots="false" /><inkscape:path-effect
       effect="fillet_chamfer"
       id="path-effect11"
       is_visible="true"
       lpeversion="1"
       nodesatellites_param="F,0,0,1,0,2.9729248,0,1 @ F,0,0,1,0,3.8975858,0,1 @ F,0,0,1,0,0,0,1 @ F,0,1,1,0,3.784373,0,1 @ F,0,0,1,0,1.4792147,0,1 @ F,0,0,1,0,0,0,1 @ F,0,0,1,0,3.784373,0,1"
       radius="0"
       unit="px"
       method="auto"
       mode="F"
       chamfer_steps="1"
       flexible="false"
       use_knot_distance="true"
       apply_no_radius="true"
       apply_with_radius="true"
       only_selected="false"
       hide_knots="false" /><linearGradient
       id="linearGradient6"><stop
         style="stop-color:#c88500;stop-opacity:1;"
         offset="0.07163448"
         id="stop8" /><stop
         style="stop-color:#fff300;stop-opacity:1;"
         offset="1"
         id="stop9" /></linearGradient><linearGradient
       id="linearGradient6-1"><stop
         style="stop-color:#c88500;stop-opacity:1;"
         offset="0"
         id="stop6" /><stop
         style="stop-color:#fff300;stop-opacity:1;"
         offset="1"
         id="stop7" /></linearGradient><inkscape:path-effect
       effect="fillet_chamfer"
       id="path-effect1"
       is_visible="true"
       lpeversion="1"
       nodesatellites_param="F,0,0,1,0,24.536157,0,1 @ F,0,0,1,0,24.004899,0,1 @ F,0,0,1,0,23.651152,0,1 @ F,0,0,1,0,24.380791,0,1"
       radius="0"
       unit="px"
       method="auto"
       mode="F"
       chamfer_steps="1"
       flexible="false"
       use_knot_distance="true"
       apply_no_radius="true"
       apply_with_radius="true"
       only_selected="false"
       hide_knots="false" /><linearGradient
       id="a"
       x1="7.937"
       x2="7.937"
       y1="15.081"
       y2="1.852"
       gradientTransform="scale(3.7796)"
       gradientUnits="userSpaceOnUse"><stop
         offset="0"
         stop-color="#9b6f27"
         id="stop1" /><stop
         offset="1"
         stop-color="#d0ab6a"
         id="stop2" /></linearGradient><filter
       id="b"
       width="1.216"
       height="1.216"
       x="-0.108"
       y="-0.108"
       color-interpolation-filters="sRGB"><feGaussianBlur
         stdDeviation="1.35"
         id="feGaussianBlur2" /></filter><linearGradient
       id="linearGradient31"
       x1=".5002"
       x2=".5002"
       y2="1"
       gradientTransform="matrix(244,0,0,228,5.986,12)"
       gradientUnits="userSpaceOnUse"><stop
         stop-color="#ebdbb2"
         stop-opacity=".2"
         offset="0"
         id="stop1-5" /><stop
         stop-color="#ebdbb2"
         stop-opacity=".05"
         offset=".1"
         id="stop2-6" /><stop
         stop-opacity="0"
         offset=".7036"
         id="stop3" /><stop
         stop-opacity=".1"
         offset=".8975"
         id="stop4" /><stop
         stop-opacity=".2"
         offset="1"
         id="stop5" /></linearGradient><inkscape:path-effect
       effect="bspline"
       id="path-effect4-5"
       is_visible="true"
       lpeversion="1.3"
       weight="33.333333"
       steps="2"
       helper_size="0"
       apply_no_weight="true"
       apply_with_weight="true"
       only_selected="false"
       uniform="false" /><inkscape:path-effect
       effect="bspline"
       id="path-effect3-3"
       is_visible="true"
       lpeversion="1.3"
       weight="33.333333"
       steps="2"
       helper_size="0"
       apply_no_weight="true"
       apply_with_weight="true"
       only_selected="false"
       uniform="false" /><inkscape:path-effect
       effect="mirror_symmetry"
       start_point="59.977887,81.781355"
       end_point="59.977887,112.27285"
       center_point="59.977887,97.027103"
       id="path-effect9-8"
       is_visible="true"
       lpeversion="1.2"
       lpesatellites=""
       mode="free"
       discard_orig_path="false"
       fuse_paths="false"
       oposite_fuse="false"
       split_items="false"
       split_open="false"
       link_styles="false" /><inkscape:path-effect
       effect="mirror_symmetry"
       start_point="59.944658,10.409945"
       end_point="59.944658,50.039614"
       center_point="59.944658,30.22478"
       id="path-effect2-8"
       is_visible="true"
       lpeversion="1.2"
       lpesatellites=""
       mode="free"
       discard_orig_path="false"
       fuse_paths="false"
       oposite_fuse="false"
       split_items="false"
       split_open="false"
       link_styles="false" /><inkscape:path-effect
       effect="mirror_symmetry"
       start_point="59.948435,66.805114"
       end_point="59.948435,107.38004"
       center_point="59.948435,87.092577"
       id="path-effect8-3"
       is_visible="true"
       lpeversion="1.2"
       lpesatellites=""
       mode="free"
       discard_orig_path="false"
       fuse_paths="false"
       oposite_fuse="false"
       split_items="false"
       split_open="false"
       link_styles="false" /><inkscape:path-effect
       effect="mirror_symmetry"
       start_point="60.801511,9.4541705"
       end_point="60.801511,40.169132"
       center_point="60.801511,24.811651"
       id="path-effect7-1"
       is_visible="true"
       lpeversion="1.2"
       lpesatellites=""
       mode="free"
       discard_orig_path="false"
       fuse_paths="false"
       oposite_fuse="false"
       split_items="false"
       split_open="false"
       link_styles="false" /><inkscape:path-effect
       effect="fillet_chamfer"
       id="path-effect13-8"
       is_visible="true"
       lpeversion="1"
       nodesatellites_param="F,0,0,1,0,4.7467821,0,1 @ F,0,0,1,0,4.0515277,0,1 @ F,0,0,1,0,0,0,1 @ F,0,0,1,0,2.4219461,0,1 @ F,0,0,1,0,2.4960577,0,1 @ F,0,0,1,0,0,0,1 @ F,0,0,1,0,4.1062831,0,1"
       radius="0"
       unit="px"
       method="auto"
       mode="F"
       chamfer_steps="1"
       flexible="false"
       use_knot_distance="true"
       apply_no_radius="true"
       apply_with_radius="true"
       only_selected="false"
       hide_knots="false" /><inkscape:path-effect
       effect="fillet_chamfer"
       id="path-effect12-9"
       is_visible="true"
       lpeversion="1"
       nodesatellites_param="F,0,0,1,0,0,0,1 @ F,0,0,1,0,0,0,1 @ F,0,0,1,0,0,0,1 @ F,0,0,1,0,0,0,1 @ F,0,0,1,0,3.627665,0,1 @ F,0,0,1,0,0,0,1 @ F,0,0,1,0,0,0,1"
       radius="0"
       unit="px"
       method="auto"
       mode="F"
       chamfer_steps="1"
       flexible="false"
       use_knot_distance="true"
       apply_no_radius="true"
       apply_with_radius="true"
       only_selected="false"
       hide_knots="false" /><inkscape:path-effect
       effect="fillet_chamfer"
       id="path-effect11-6"
       is_visible="true"
       lpeversion="1"
       nodesatellites_param="F,0,0,1,0,2.9729248,0,1 @ F,0,0,1,0,3.8975858,0,1 @ F,0,0,1,0,0,0,1 @ F,0,1,1,0,3.784373,0,1 @ F,0,0,1,0,1.4792147,0,1 @ F,0,0,1,0,0,0,1 @ F,0,0,1,0,3.784373,0,1"
       radius="0"
       unit="px"
       method="auto"
       mode="F"
       chamfer_steps="1"
       flexible="false"
       use_knot_distance="true"
       apply_no_radius="true"
       apply_with_radius="true"
       only_selected="false"
       hide_knots="false" /><inkscape:path-effect
       effect="fillet_chamfer"
       id="path-effect1-8"
       is_visible="true"
       lpeversion="1"
       nodesatellites_param="F,0,0,1,0,24.536157,0,1 @ F,0,0,1,0,24.004899,0,1 @ F,0,0,1,0,23.651152,0,1 @ F,0,0,1,0,24.380791,0,1"
       radius="0"
       unit="px"
       method="auto"
       mode="F"
       chamfer_steps="1"
       flexible="false"
       use_knot_distance="true"
       apply_no_radius="true"
       apply_with_radius="true"
       only_selected="false"
       hide_knots="false" /><filter
       id="b-4"
       width="1.216"
       height="1.216"
       x="-0.108"
       y="-0.108"
       color-interpolation-filters="sRGB"><feGaussianBlur
         stdDeviation="1.35"
         id="feGaussianBlur2-8" /></filter><inkscape:path-effect
       effect="bspline"
       id="path-effect3-7"
       is_visible="true"
       lpeversion="1.3"
       weight="33.333333"
       steps="2"
       helper_size="0"
       apply_no_weight="true"
       apply_with_weight="true"
       only_selected="false"
       uniform="false" /><linearGradient
       inkscape:collect="always"
       xlink:href="#linearGradient1"
       id="linearGradient11"
       x1="5.6706416"
       y1="60.000002"
       x2="114.32936"
       y2="60.000002"
       gradientUnits="userSpaceOnUse" /></defs><g
     inkscape:groupmode="layer"
     id="layer3"
     inkscape:label="base"><path
       d="m 76.476937,9.2332248 c 32.063223,0 37.852423,6.6798392 37.852423,38.7430672 v 24.938066 c 0,31.172592 -5.7892,37.852422 -37.852423,37.852422 H 43.523063 c -32.063227,0 -37.8524214,-6.67983 -37.8524214,-37.852422 V 47.976292 c 0,-32.063228 5.7891944,-38.7430672 37.8524214,-38.7430672 z"
       fill="#ebdbb2"
       style="display:inline;opacity:1;isolation:isolate;stroke-width:0.445323;fill:url(#linearGradient11)"
       id="path5" /><g
       id="g1"
       transform="matrix(0.8129404,0,0,0.8129404,11.223576,11.364938)"><g
         id="layer2"
         inkscape:label="Layer 2"
         style="opacity:1"><path
           style="opacity:1;fill:#eeeeee;fill-opacity:0;stroke-width:0.965576"
           id="rect1"
           width="104.6141"
           height="104.75148"
           x="7.5219741"
           y="7.4503703"
           inkscape:path-effect="#path-effect1-8"
           sodipodi:type="rect"
           d="M 32.058131,7.4503703 H 88.131173 A 24.004899,24.004899 45 0 1 112.13607,31.455269 V 88.550698 A 23.651152,23.651152 135 0 1 88.48492,112.20185 H 31.902765 A 24.380791,24.380791 45 0 1 7.5219741,87.821059 V 31.986527 A 24.536157,24.536157 135 0 1 32.058131,7.4503703 Z"
           transform="translate(0.40694183)" /><path
           style="opacity:1;fill:#f8f1e3;fill-opacity:1;fill-rule:evenodd;stroke-width:4"
           d="m 24.119047,39.153092 c 0.006,-0.471198 0.01806,-1.413595 0.0351,-1.927637 0.01704,-0.514043 0.0391,-0.59973 0.100422,-0.72301 0.06132,-0.12328 0.161916,-0.284148 0.301846,-0.426068 0.139929,-0.14192 0.319188,-0.264885 0.476633,-0.347826 0.157446,-0.08294 0.428918,-0.168838 0.584252,-0.168838 0.155334,0 0.465988,0 9.697692,0 9.231705,0 27.383726,0 36.715844,0.01818 9.332118,0.01818 9.843949,0.05454 10.760252,0.184858 0.916303,0.13032 2.237016,0.354591 3.183091,0.561613 0.946075,0.207022 1.517463,0.396783 2.256609,0.70624 0.739147,0.309456 1.646004,0.738588 2.445315,1.205246 0.79931,0.466658 1.491029,0.970814 2.129361,1.586021 0.638332,0.615208 1.22324,1.341428 1.707434,2.045012 0.484195,0.703583 0.86765,1.384489 1.146907,2.067709 0.279256,0.68322 0.454298,1.368714 0.60554,2.089053 0.151242,0.720339 0.278675,1.475479 0.351477,2.252903 0.0728,0.777423 0.09097,1.577082 0.09176,2.2027 7.96e-4,0.625619 -0.01578,1.077163 -0.08803,1.755971 -0.07226,0.678807 -0.200196,1.584832 -0.408871,2.45643 -0.208674,0.871598 -0.498073,1.708718 -0.840112,2.453479 -0.34204,0.744762 -0.736701,1.397124 -1.094607,1.895637 -0.357907,0.498512 -0.67904,0.843148 -0.837301,1.018865 -0.158262,0.175716 -0.153692,0.182436 -0.03603,0.310258 0.117666,0.127822 0.348404,0.376716 0.570818,0.654894 0.222414,0.278179 0.436491,0.585625 0.679833,0.989795 0.243342,0.40417 0.515935,0.905039 0.757767,1.423127 0.241832,0.518087 0.452889,1.053362 0.628032,1.637017 0.175143,0.583655 0.314361,1.215654 0.437086,1.902067 0.122725,0.686412 0.228949,1.427195 0.273947,2.088193 0.045,0.660999 0.02877,1.242173 -0.0065,1.958711 -0.03523,0.716537 -0.08946,1.56839 -0.211495,2.36108 -0.122038,0.792689 -0.311881,1.526168 -0.534656,2.200416 -0.222774,0.674249 -0.478467,1.289229 -0.815837,1.921657 -0.33737,0.632428 -0.756397,1.282266 -1.220573,1.874343 -0.464175,0.592077 -0.973472,1.126358 -1.475966,1.572305 -0.502495,0.445946 -0.998158,0.803532 -1.597553,1.169349 -0.599396,0.365817 -1.302486,0.739843 -2.114088,1.081015 -0.811603,0.341172 -1.731666,0.64947 -2.579175,0.876284 -0.847508,0.226815 -1.622412,0.372133 -2.310661,0.481933 -0.688248,0.109799 -1.289801,0.184073 -1.704051,0.231541 -0.41425,0.04747 -0.641175,0.06813 -10.039903,0.08523 -9.398728,0.0171 -27.96851,0.03064 -37.301882,0.03664 -9.333371,0.006 -9.429948,0.0045 -9.520775,-0.01354 -0.09083,-0.01801 -0.175893,-0.05249 -0.274719,-0.104757 -0.09882,-0.05227 -0.211403,-0.12231 -0.300409,-0.180219 -0.08901,-0.05791 -0.154431,-0.103679 -0.210332,-0.163579 -0.0559,-0.0599 -0.102268,-0.13392 -0.148807,-0.215863 -0.04654,-0.08194 -0.09324,-0.171797 -0.128831,-0.25702 -0.03559,-0.08522 -0.06006,-0.165807 -0.07327,-0.226871 -0.0132,-0.06106 -0.01514,-0.102597 -0.0161,-1.218126 -9.67e-4,-1.11553 -9.67e-4,-3.304965 -0.0025,-4.457997 -0.0016,-1.153032 -0.0047,-1.269612 0.001,-1.375743 0.0057,-0.106132 0.02009,-0.201814 0.04821,-0.29392 0.02812,-0.09211 0.06994,-0.180636 0.12115,-0.26507 0.05121,-0.08443 0.111816,-0.164774 0.181742,-0.244015 0.06993,-0.07924 0.149171,-0.157378 0.233675,-0.222186 0.0845,-0.06481 0.174258,-0.116282 0.270587,-0.160019 0.09633,-0.04374 0.199224,-0.07973 0.275247,-0.10228 0.07602,-0.02255 0.125165,-0.03165 9.115298,-0.0362 8.990134,-0.0046 26.920536,-0.0046 35.960194,-0.0074 9.039658,-0.0029 9.188206,-0.0087 9.328949,-0.02231 0.140743,-0.01363 0.273671,-0.03509 0.46073,-0.06925 0.187059,-0.03416 0.428233,-0.081 0.6817,-0.152509 0.253468,-0.07151 0.519211,-0.16767 0.792063,-0.29299 0.272851,-0.125321 0.552795,-0.27979 0.805344,-0.490873 0.252549,-0.211082 0.477689,-0.478763 0.63576,-0.703333 0.158071,-0.224571 0.249064,-0.406017 0.341871,-0.632426 0.09281,-0.226409 0.187423,-0.497767 0.258817,-0.762512 0.07139,-0.264745 0.119562,-0.522862 0.152791,-0.791211 0.03323,-0.268348 0.05151,-0.546912 0.05818,-0.87409 0.0067,-0.327179 0.0017,-0.702948 -0.01476,-1.022969 -0.01647,-0.320022 -0.04444,-0.584275 -0.100191,-0.88081 -0.05575,-0.296535 -0.139279,-0.625333 -0.238581,-0.919592 -0.0993,-0.294259 -0.214374,-0.553964 -0.355428,-0.795914 -0.141054,-0.241949 -0.308081,-0.466129 -0.539134,-0.689063 -0.231054,-0.222933 -0.526118,-0.444607 -0.858517,-0.623206 -0.332399,-0.178599 -0.702112,-0.314113 -1.049286,-0.40762 -0.347174,-0.09351 -0.671787,-0.145001 -0.855136,-0.174604 -0.183349,-0.0296 -0.225421,-0.03731 -9.244949,-0.04117 -9.019527,-0.0039 -27.01578,-0.0039 -36.064529,-0.0096 -9.048748,-0.0057 -9.149627,-0.01711 -9.271131,-0.04677 -0.121505,-0.02966 -0.263624,-0.07758 -0.38818,-0.144025 -0.124557,-0.06645 -0.231548,-0.151431 -0.317652,-0.241408 -0.0861,-0.08998 -0.151326,-0.184952 -0.208335,-0.27776 -0.05701,-0.09281 -0.105799,-0.183435 -0.145957,-0.274032 -0.04016,-0.0906 -0.07168,-0.181145 -0.08714,-0.257982 -0.01546,-0.07684 -0.01486,-0.139961 -0.01456,-1.285629 3e-4,-1.145668 3e-4,-3.373793 0.0069,-4.544619 0.0066,-1.170826 0.01988,-1.284306 0.04755,-1.391126 0.02766,-0.10682 0.06973,-0.206978 0.129256,-0.312858 0.05952,-0.10588 0.136501,-0.217479 0.235472,-0.319795 0.09897,-0.102315 0.219931,-0.195344 0.343863,-0.266594 0.123932,-0.07125 0.25083,-0.120721 0.352377,-0.147331 0.101547,-0.02661 0.177739,-0.03036 0.279401,-0.03372 0.101662,-0.0034 0.228786,-0.0063 9.200168,-0.0078 8.971382,-0.0015 26.786304,-0.0015 35.804069,-0.01053 9.017765,-0.009 9.238006,-0.02712 9.44415,-0.05325 0.206143,-0.02612 0.398174,-0.06028 0.614674,-0.113218 0.216499,-0.05293 0.457451,-0.124636 0.682909,-0.205705 0.225458,-0.08107 0.435413,-0.171502 0.649393,-0.293968 0.21398,-0.122467 0.431975,-0.276961 0.605374,-0.4225 0.173399,-0.145539 0.302192,-0.282114 0.429846,-0.455377 0.127655,-0.173263 0.254163,-0.383203 0.356599,-0.588658 0.102436,-0.205454 0.180795,-0.406413 0.251993,-0.637232 0.0712,-0.23082 0.135231,-0.491485 0.190406,-0.771737 0.05517,-0.280251 0.101488,-0.580072 0.123629,-0.890273 0.02214,-0.310202 0.02011,-0.630765 0.01038,-0.96389 -0.0097,-0.333125 -0.02713,-0.678791 -0.07241,-1.023218 -0.04528,-0.344428 -0.118415,-0.687598 -0.21202,-0.997536 -0.0936,-0.309938 -0.207669,-0.586628 -0.364923,-0.861143 -0.157255,-0.274515 -0.357689,-0.546839 -0.625535,-0.804215 -0.267846,-0.257377 -0.603085,-0.499791 -0.931378,-0.679229 -0.328294,-0.179439 -0.649623,-0.295893 -0.909154,-0.376336 -0.259531,-0.08044 -0.457251,-0.124873 -0.762111,-0.153405 -0.304861,-0.02853 -0.716842,-0.04116 -9.804221,-0.04748 -9.087379,-0.0063 -26.849438,-0.0063 -35.803333,-0.01628 -8.953895,-0.01 -9.099266,-0.02989 -9.248966,-0.07674 -0.149701,-0.04685 -0.303725,-0.12062 -0.428538,-0.211807 -0.124814,-0.09119 -0.220411,-0.199787 -0.320357,-0.353471 -0.09995,-0.153683 -0.204237,-0.35244 -0.251718,-0.499879 -0.04748,-0.147439 -0.03815,-0.24355 -0.03594,-0.956994 0.0022,-0.713445 -0.0027,-2.044167 -0.0052,-2.709541 -0.0025,-0.665374 -0.0025,-0.665275 0.0035,-1.136473 z"
           id="path1"
           inkscape:path-effect="#path-effect3-7"
           inkscape:original-d="m 24.113029,39.62429 c 0.01204,-0.942396 0.02407,-1.884793 0.03611,-2.827189 0.02205,-0.08569 0.04411,-0.171375 0.06616,-0.257062 0.100595,-0.160874 0.201187,-0.321742 0.301781,-0.482613 0.179265,-0.122969 0.358524,-0.245934 0.537786,-0.368901 0.135703,-0.04268 0.542802,-0.171496 0.407101,-0.128812 0.310668,5.06e-4 0.621322,2.53e-4 0.931983,0 18.152748,0 36.304769,0 54.457153,0 0.511852,0.03636 1.023683,0.07272 1.535524,0.109078 1.320765,0.22428 2.641478,0.448551 3.962217,0.672827 0.571411,0.189768 1.142799,0.379529 1.714199,0.569294 0.906893,0.429148 1.81375,0.85828 2.720625,1.28742 0.691746,0.504176 1.383465,1.008332 2.075198,1.512498 0.584931,0.726249 1.169839,1.452469 1.754758,2.178704 0.38347,0.680932 0.766926,1.361838 1.150388,2.042757 0.17505,0.685521 0.350092,1.371015 0.525138,2.056522 0.127438,0.755171 0.254871,1.510311 0.382307,2.265467 0.01817,0.799691 0.03633,1.59935 0.0545,2.399026 -0.01657,0.451561 -0.03315,0.903105 -0.04972,1.354658 -0.127943,0.906062 -0.255881,1.812087 -0.383821,2.718131 -0.28941,0.837152 -0.578807,1.674272 -0.868211,2.511407 -0.394676,0.652388 -0.789337,1.30475 -1.184005,1.957125 -0.321145,0.34465 -0.642278,0.689286 -0.963417,1.03393 0.0046,0.0068 0.0092,0.0135 0.01377,0.02025 0.230748,0.248903 0.461486,0.497797 0.692229,0.746695 0.214085,0.307459 0.428162,0.614905 0.642243,0.922357 0.272603,0.500888 0.545196,1.001757 0.817794,1.502636 0.211066,0.535296 0.422123,1.070571 0.633185,1.605857 0.139224,0.632024 0.278442,1.264023 0.417663,1.896035 0.106229,0.740813 0.212453,1.481596 0.31868,2.222395 -0.01623,0.581198 -0.03246,1.162372 -0.04869,1.743559 -0.05423,0.851888 -0.108455,1.703741 -0.162682,2.555612 -0.189851,0.733508 -0.379693,1.466987 -0.56954,2.20048 -0.255702,0.615004 -0.511395,1.229984 -0.767092,1.844976 -0.419043,0.649864 -0.83807,1.299702 -1.257105,1.949553 -0.509316,0.534303 -1.018613,1.068584 -1.527919,1.602876 -0.495683,0.357601 -0.991346,0.715187 -1.487019,1.072781 -0.703118,0.37404 -1.406208,0.748066 -2.109312,1.122099 -0.920101,0.30831 -1.840164,0.616609 -2.760246,0.924913 -0.774935,0.145325 -1.549839,0.290643 -2.324759,0.435965 -0.601577,0.07428 -1.20313,0.148551 -1.804695,0.222826 -0.226935,0.02066 -0.45386,0.04132 -0.68079,0.06198 -18.570526,0.01354 -37.140308,0.02708 -55.710462,0.04062 -0.09659,-0.0015 -0.193167,-0.003 -0.289751,-0.0046 -0.08507,-0.03448 -0.170134,-0.06897 -0.255202,-0.103449 -0.112583,-0.07005 -0.225162,-0.140093 -0.337744,-0.21014 -0.06543,-0.04577 -0.130856,-0.09154 -0.196284,-0.137312 -0.04637,-0.07403 -0.09274,-0.148049 -0.13911,-0.222073 -0.04671,-0.08986 -0.09341,-0.179716 -0.140116,-0.269574 -0.02447,-0.08059 -0.04894,-0.161174 -0.07342,-0.241761 -0.0019,-0.04154 -0.0039,-0.08307 -0.0058,-0.124608 0,-2.189523 0,-4.378958 0,-6.568437 -0.0031,-0.116585 -0.0062,-0.233165 -0.0093,-0.349748 0.01442,-0.09568 0.02885,-0.191362 0.04327,-0.287043 0.04182,-0.08853 0.08364,-0.17706 0.125456,-0.265591 0.0606,-0.08034 0.121208,-0.160678 0.181812,-0.241018 0.07925,-0.07814 0.158493,-0.156279 0.237739,-0.234418 0.08976,-0.05148 0.179516,-0.102951 0.269274,-0.154427 0.1029,-0.036 0.205795,-0.07199 0.308692,-0.107987 0.04915,-0.0091 0.09829,-0.01821 0.147439,-0.02731 17.931119,0 35.861521,0 53.792281,0 0.148555,-0.0058 0.297104,-0.01157 0.445656,-0.01736 0.132934,-0.02147 0.265863,-0.04293 0.398794,-0.0644 0.241185,-0.04685 0.48236,-0.09369 0.72354,-0.140539 0.265754,-0.09617 0.531498,-0.19233 0.797247,-0.288495 0.279954,-0.154476 0.559898,-0.308945 0.839847,-0.463418 0.225149,-0.267692 0.450289,-0.535373 0.675434,-0.803059 0.091,-0.181454 0.18199,-0.362901 0.272985,-0.544351 0.09462,-0.271368 0.189235,-0.542726 0.283852,-0.814088 0.04817,-0.258128 0.09634,-0.516245 0.144509,-0.774367 0.01829,-0.278575 0.03657,-0.557139 0.05486,-0.835709 -0.005,-0.375786 -0.0099,-0.751556 -0.01488,-1.127334 -0.02797,-0.264265 -0.05594,-0.528519 -0.08392,-0.792778 -0.08353,-0.32881 -0.167058,-0.657608 -0.250586,-0.986412 -0.115076,-0.259714 -0.230147,-0.519419 -0.34522,-0.779128 -0.167035,-0.22419 -0.334062,-0.44837 -0.501093,-0.672555 -0.295076,-0.221682 -0.59014,-0.443356 -0.88521,-0.665034 -0.369728,-0.13552 -0.739441,-0.271034 -1.109162,-0.406552 -0.324626,-0.0515 -0.64924,-0.10299 -0.97386,-0.154485 -0.04208,-0.0077 -0.08415,-0.01542 -0.126232,-0.02313 -17.996973,0 -35.993226,0 -53.989839,0 -0.100884,-0.01141 -0.201763,-0.02281 -0.302645,-0.03422 -0.142126,-0.04792 -0.284246,-0.09583 -0.426368,-0.143747 -0.106993,-0.08498 -0.213982,-0.169964 -0.320972,-0.254946 -0.06522,-0.09497 -0.13044,-0.189947 -0.19566,-0.284921 -0.0488,-0.09064 -0.09759,-0.181268 -0.146382,-0.271903 -0.03152,-0.09056 -0.06304,-0.181108 -0.09456,-0.271663 5.9e-4,-0.06312 0.0012,-0.126243 0.0018,-0.189365 0,-2.228214 0,-4.456339 0,-6.684508 0.01326,-0.113483 0.02652,-0.226962 0.03977,-0.340443 0.04207,-0.10016 0.08414,-0.200317 0.126206,-0.300475 0.07698,-0.111603 0.153957,-0.223202 0.230935,-0.334802 0.120965,-0.09303 0.241924,-0.18606 0.362886,-0.279089 0.126903,-0.04947 0.253801,-0.09894 0.380702,-0.148413 0.07619,-0.0038 0.152384,-0.0075 0.228576,-0.01125 0.127131,-0.003 0.254257,-0.0059 0.381385,-0.0089 17.815635,0 35.630557,0 53.445836,0 0.220251,-0.01808 0.440493,-0.03616 0.66074,-0.05425 0.192039,-0.03416 0.384071,-0.06832 0.576106,-0.102485 0.240962,-0.07171 0.481915,-0.143408 0.722872,-0.215112 0.209961,-0.09043 0.419914,-0.180867 0.629871,-0.2713 0.218003,-0.1545 0.435998,-0.308994 0.653997,-0.463491 0.128799,-0.136581 0.257592,-0.273156 0.386388,-0.409734 0.126513,-0.209948 0.253021,-0.419888 0.379532,-0.629833 0.07836,-0.200965 0.15672,-0.401923 0.235081,-0.602885 0.06404,-0.260676 0.128068,-0.521342 0.192102,-0.782013 0.04631,-0.299833 0.09263,-0.599653 0.138944,-0.89948 -0.002,-0.320576 -0.0041,-0.641139 -0.0061,-0.961709 -0.01741,-0.34568 -0.03482,-0.691346 -0.05223,-1.037019 -0.07314,-0.343182 -0.146281,-0.686352 -0.219422,-1.029528 -0.114069,-0.2767 -0.228133,-0.55339 -0.342199,-0.830085 -0.200443,-0.272335 -0.400877,-0.544659 -0.601316,-0.816988 -0.335253,-0.242423 -0.670492,-0.484837 -1.005737,-0.727256 -0.321342,-0.116459 -0.642671,-0.232912 -0.964006,-0.349369 -0.197727,-0.04443 -0.395447,-0.08886 -0.59317,-0.13329 -0.411998,-0.01263 -0.823979,-0.02526 -1.235968,-0.0379 -17.762769,0 -35.524828,0 -53.287241,0 -0.145377,-0.01993 -0.290748,-0.03985 -0.436121,-0.05978 -0.154029,-0.07377 -0.308052,-0.147543 -0.462078,-0.221314 -0.0956,-0.108604 -0.191198,-0.217203 -0.286797,-0.325805 -0.104294,-0.198765 -0.208584,-0.397522 -0.312876,-0.596283 0.0093,-0.09612 0.01866,-0.192228 0.02799,-0.288342 -0.0049,-1.330775 -0.0098,-2.661497 -0.01475,-3.992245 z"
           transform="matrix(1.521627,0,0,1.521627,-31.976693,-31.661561)" /></g><g
         id="layer1"
         inkscape:label="Layer 3" /></g></g></svg>
