<?xml version="1.0" encoding="UTF-8" standalone="no"?>
<!-- Created with Inkscape (http://www.inkscape.org/) -->

<svg
   width="120"
   height="120"
   viewBox="0 0 120 120"
   version="1.1"
   id="svg1"
   xml:space="preserve"
   inkscape:version="1.4.1 (93de688d07, 2025-03-30)"
   sodipodi:docname="sch1.svg"
   xmlns:inkscape="http://www.inkscape.org/namespaces/inkscape"
   xmlns:sodipodi="http://sodipodi.sourceforge.net/DTD/sodipodi-0.dtd"
   xmlns="http://www.w3.org/2000/svg"
   xmlns:svg="http://www.w3.org/2000/svg"><sodipodi:namedview
     id="namedview1"
     pagecolor="#1f1f1f"
     bordercolor="#000000"
     borderopacity="0.25"
     inkscape:showpageshadow="2"
     inkscape:pageopacity="0.0"
     inkscape:pagecheckerboard="0"
     inkscape:deskcolor="#3c3c3c"
     inkscape:document-units="px"
     inkscape:zoom="5.6568543"
     inkscape:cx="62.048619"
     inkscape:cy="79.814677"
     inkscape:window-width="1135"
     inkscape:window-height="1287"
     inkscape:window-x="0"
     inkscape:window-y="0"
     inkscape:window-maximized="1"
     inkscape:current-layer="g17" /><defs
     id="defs1"><inkscape:path-effect
       effect="bspline"
       id="path-effect17"
       is_visible="true"
       lpeversion="1.3"
       weight="33.333333"
       steps="2"
       helper_size="0"
       apply_no_weight="true"
       apply_with_weight="true"
       only_selected="false"
       uniform="false" /><inkscape:path-effect
       effect="bspline"
       id="path-effect16"
       is_visible="true"
       lpeversion="1.3"
       weight="33.333333"
       steps="2"
       helper_size="0"
       apply_no_weight="true"
       apply_with_weight="true"
       only_selected="false"
       uniform="false" /><inkscape:path-effect
       effect="bspline"
       id="path-effect15"
       is_visible="true"
       lpeversion="1.3"
       weight="33.333333"
       steps="2"
       helper_size="0"
       apply_no_weight="true"
       apply_with_weight="true"
       only_selected="false"
       uniform="false" /><inkscape:path-effect
       effect="bspline"
       id="path-effect10"
       is_visible="true"
       lpeversion="1.3"
       weight="33.333333"
       steps="2"
       helper_size="0"
       apply_no_weight="true"
       apply_with_weight="true"
       only_selected="false"
       uniform="false" /><inkscape:path-effect
       effect="bspline"
       id="path-effect6"
       is_visible="true"
       lpeversion="1.3"
       weight="33.333333"
       steps="2"
       helper_size="0"
       apply_no_weight="true"
       apply_with_weight="true"
       only_selected="false"
       uniform="false" /><inkscape:path-effect
       effect="bspline"
       id="path-effect14"
       is_visible="true"
       lpeversion="1.3"
       weight="33.333333"
       steps="2"
       helper_size="0"
       apply_no_weight="true"
       apply_with_weight="true"
       only_selected="false"
       uniform="false" /><inkscape:path-effect
       effect="fillet_chamfer"
       id="path-effect5"
       is_visible="true"
       lpeversion="1"
       nodesatellites_param="F,0,0,1,0,37.022737,0,1 @ F,0,0,1,0,36.062445,0,1 @ F,0,0,1,0,35.528974,0,1 @ F,0,0,1,0,28.991378,0,1"
       radius="0"
       unit="px"
       method="auto"
       mode="F"
       chamfer_steps="1"
       flexible="false"
       use_knot_distance="true"
       apply_no_radius="true"
       apply_with_radius="true"
       only_selected="false"
       hide_knots="false" /><inkscape:path-effect
       effect="bspline"
       id="path-effect4"
       is_visible="true"
       lpeversion="1.3"
       weight="33.333333"
       steps="2"
       helper_size="0"
       apply_no_weight="true"
       apply_with_weight="true"
       only_selected="false"
       uniform="false" /><inkscape:path-effect
       effect="bspline"
       id="path-effect3"
       is_visible="true"
       lpeversion="1.3"
       weight="33.333333"
       steps="2"
       helper_size="0"
       apply_no_weight="true"
       apply_with_weight="true"
       only_selected="false"
       uniform="false" /><inkscape:path-effect
       effect="mirror_symmetry"
       start_point="59.977887,81.781355"
       end_point="59.977887,112.27285"
       center_point="59.977887,97.027103"
       id="path-effect9"
       is_visible="true"
       lpeversion="1.2"
       lpesatellites=""
       mode="free"
       discard_orig_path="false"
       fuse_paths="false"
       oposite_fuse="false"
       split_items="false"
       split_open="false"
       link_styles="false" /><inkscape:path-effect
       effect="mirror_symmetry"
       start_point="59.944658,10.409945"
       end_point="59.944658,50.039614"
       center_point="59.944658,30.22478"
       id="path-effect2"
       is_visible="true"
       lpeversion="1.2"
       lpesatellites=""
       mode="free"
       discard_orig_path="false"
       fuse_paths="false"
       oposite_fuse="false"
       split_items="false"
       split_open="false"
       link_styles="false" /><inkscape:path-effect
       effect="mirror_symmetry"
       start_point="59.948435,66.805114"
       end_point="59.948435,107.38004"
       center_point="59.948435,87.092577"
       id="path-effect8"
       is_visible="true"
       lpeversion="1.2"
       lpesatellites=""
       mode="free"
       discard_orig_path="false"
       fuse_paths="false"
       oposite_fuse="false"
       split_items="false"
       split_open="false"
       link_styles="false" /><inkscape:path-effect
       effect="mirror_symmetry"
       start_point="60.801511,9.4541705"
       end_point="60.801511,40.169132"
       center_point="60.801511,24.811651"
       id="path-effect7"
       is_visible="true"
       lpeversion="1.2"
       lpesatellites=""
       mode="free"
       discard_orig_path="false"
       fuse_paths="false"
       oposite_fuse="false"
       split_items="false"
       split_open="false"
       link_styles="false" /><inkscape:path-effect
       effect="fillet_chamfer"
       id="path-effect13"
       is_visible="true"
       lpeversion="1"
       nodesatellites_param="F,0,0,1,0,4.7467821,0,1 @ F,0,0,1,0,4.0515277,0,1 @ F,0,0,1,0,0,0,1 @ F,0,0,1,0,2.4219461,0,1 @ F,0,0,1,0,2.4960577,0,1 @ F,0,0,1,0,0,0,1 @ F,0,0,1,0,4.1062831,0,1"
       radius="0"
       unit="px"
       method="auto"
       mode="F"
       chamfer_steps="1"
       flexible="false"
       use_knot_distance="true"
       apply_no_radius="true"
       apply_with_radius="true"
       only_selected="false"
       hide_knots="false" /><inkscape:path-effect
       effect="fillet_chamfer"
       id="path-effect12"
       is_visible="true"
       lpeversion="1"
       nodesatellites_param="F,0,0,1,0,0,0,1 @ F,0,0,1,0,0,0,1 @ F,0,0,1,0,0,0,1 @ F,0,0,1,0,0,0,1 @ F,0,0,1,0,3.627665,0,1 @ F,0,0,1,0,0,0,1 @ F,0,0,1,0,0,0,1"
       radius="0"
       unit="px"
       method="auto"
       mode="F"
       chamfer_steps="1"
       flexible="false"
       use_knot_distance="true"
       apply_no_radius="true"
       apply_with_radius="true"
       only_selected="false"
       hide_knots="false" /><inkscape:path-effect
       effect="fillet_chamfer"
       id="path-effect11"
       is_visible="true"
       lpeversion="1"
       nodesatellites_param="F,0,0,1,0,2.9729248,0,1 @ F,0,0,1,0,3.8975858,0,1 @ F,0,0,1,0,0,0,1 @ F,0,1,1,0,3.784373,0,1 @ F,0,0,1,0,1.4792147,0,1 @ F,0,0,1,0,0,0,1 @ F,0,0,1,0,3.784373,0,1"
       radius="0"
       unit="px"
       method="auto"
       mode="F"
       chamfer_steps="1"
       flexible="false"
       use_knot_distance="true"
       apply_no_radius="true"
       apply_with_radius="true"
       only_selected="false"
       hide_knots="false" /><linearGradient
       id="linearGradient6"><stop
         style="stop-color:#c88500;stop-opacity:1;"
         offset="0.07163448"
         id="stop8" /><stop
         style="stop-color:#fff300;stop-opacity:1;"
         offset="1"
         id="stop9" /></linearGradient><linearGradient
       id="linearGradient6-1"><stop
         style="stop-color:#c88500;stop-opacity:1;"
         offset="0"
         id="stop6" /><stop
         style="stop-color:#fff300;stop-opacity:1;"
         offset="1"
         id="stop7" /></linearGradient><inkscape:path-effect
       effect="fillet_chamfer"
       id="path-effect1"
       is_visible="true"
       lpeversion="1"
       nodesatellites_param="F,0,0,1,0,24.536157,0,1 @ F,0,0,1,0,24.004899,0,1 @ F,0,0,1,0,23.651152,0,1 @ F,0,0,1,0,24.380791,0,1"
       radius="0"
       unit="px"
       method="auto"
       mode="F"
       chamfer_steps="1"
       flexible="false"
       use_knot_distance="true"
       apply_no_radius="true"
       apply_with_radius="true"
       only_selected="false"
       hide_knots="false" /><linearGradient
       id="a"
       x1="7.937"
       x2="7.937"
       y1="15.081"
       y2="1.852"
       gradientTransform="scale(3.7796)"
       gradientUnits="userSpaceOnUse"><stop
         offset="0"
         stop-color="#9b6f27"
         id="stop1" /><stop
         offset="1"
         stop-color="#d0ab6a"
         id="stop2" /></linearGradient><filter
       id="b"
       width="1.216"
       height="1.216"
       x="-0.108"
       y="-0.108"
       color-interpolation-filters="sRGB"><feGaussianBlur
         stdDeviation="1.35"
         id="feGaussianBlur2" /></filter><linearGradient
       id="linearGradient31"
       x1=".5002"
       x2=".5002"
       y2="1"
       gradientTransform="matrix(244,0,0,228,5.986,12)"
       gradientUnits="userSpaceOnUse"><stop
         stop-color="#ebdbb2"
         stop-opacity=".2"
         offset="0"
         id="stop1-5" /><stop
         stop-color="#ebdbb2"
         stop-opacity=".05"
         offset=".1"
         id="stop2-6" /><stop
         stop-opacity="0"
         offset=".7036"
         id="stop3" /><stop
         stop-opacity=".1"
         offset=".8975"
         id="stop4" /><stop
         stop-opacity=".2"
         offset="1"
         id="stop5" /></linearGradient></defs><g
     inkscape:groupmode="layer"
     id="layer3"
     inkscape:label="base"><g
       id="g17"><path
         d="m 76.476937,9.2332248 c 32.063223,0 37.852423,6.6798392 37.852423,38.7430672 v 24.938066 c 0,31.172592 -5.7892,37.852422 -37.852423,37.852422 H 43.523063 c -32.063227,0 -37.8524214,-6.67983 -37.8524214,-37.852422 V 47.976292 c 0,-32.063228 5.7891944,-38.7430672 37.8524214,-38.7430672 z"
         fill="#ebdbb2"
         style="display:inline;opacity:1;isolation:isolate;stroke-width:0.445323;fill:#f8f1e3;fill-opacity:1"
         id="path5" /><path
         style="fill:#f8f1e3;stroke:#046607;stroke-width:2.045;stroke-opacity:1;stroke-dasharray:none"
         d="m 74.091532,18.598382 c -6.209282,-0.0074 -18.627844,-0.0221 -24.837126,0.01473 -6.209281,0.03683 -6.209281,0.125217 -6.194549,0.729215 0.01473,0.603998 0.0442,1.723561 0.06629,2.327549 0.0221,0.603988 0.03683,0.692375 0.250436,0.729204 0.213609,0.03683 0.626079,0.0221 1.068026,0.05156 0.441946,0.02946 0.913341,0.10312 1.266897,0.272534 0.353556,0.169413 0.589253,0.434573 1.119592,0.994374 0.530338,0.559802 1.355279,1.414205 1.981367,2.246537 0.626089,0.832332 1.053291,1.642542 1.561529,2.776874 0.508239,1.134331 1.097483,2.59271 1.55416,3.933279 0.456676,1.340569 0.78076,2.56325 1.141684,3.638651 0.360923,1.0754 0.758662,2.003459 1.193243,2.813693 0.434581,0.810233 0.905976,1.502595 1.613092,2.246538 0.707116,0.743943 1.649906,1.539422 2.673749,2.121316 1.023843,0.581894 2.128675,0.950171 3.27037,1.274264 1.141694,0.324094 2.320182,0.603985 3.314559,0.788128 0.994377,0.184143 1.804587,0.27253 2.614822,0.383017 0.810235,0.110486 1.620445,0.243066 2.172875,0.309358 0.55243,0.06629 0.847052,0.06629 1.045926,0.05156 0.198875,-0.01473 0.301994,-0.0442 0.390383,-0.324097 0.08839,-0.279901 0.162044,-0.810221 0.117848,-2.821091 -0.0442,-2.010869 -0.206238,-5.502139 -0.272528,-7.358296 -0.06629,-1.856157 -0.03683,-2.077125 0.360927,-3.181999 0.397756,-1.104874 1.163773,-3.093572 1.834057,-4.574087 0.670284,-1.480514 1.244797,-2.452767 1.79723,-3.189341 0.552432,-0.736575 1.082751,-1.237431 1.502599,-1.583621 0.419848,-0.34619 0.729201,-0.537694 1.126953,-0.68501 0.397753,-0.147315 0.883879,-0.250432 1.259532,-0.316724 0.375653,-0.06629 0.640813,-0.09576 0.847054,-0.110486 0.206241,-0.01473 0.353552,-0.01473 0.441941,-0.09576 0.08839,-0.08102 0.117852,-0.243068 0.132583,-0.751309 0.01473,-0.508241 0.01473,-1.362644 0.01473,-1.797219 0,-0.434576 0,-0.449306 -0.03683,-0.53033 -0.03683,-0.08102 -0.110485,-0.228334 -0.147314,-0.301991 -0.03683,-0.07366 -0.03683,-0.07367 -6.246111,-0.08103 z"
         id="path1"
         inkscape:path-effect="#path-effect6"
         inkscape:original-d="m 80.300813,18.605747 c -12.418563,-0.01473 -24.837125,-0.02946 -37.255688,-0.04419 0,0.08839 0,0.176777 0,0.265165 0.02946,1.119608 0.05893,2.239171 0.08839,3.358757 0.01473,0.08839 0.02946,0.176777 0.04419,0.265165 0.412488,-0.01473 0.824958,-0.02946 1.237437,-0.04419 0.471414,0.07366 0.942809,0.147314 1.414214,0.220971 0.235707,0.26517 0.471404,0.53033 0.707107,0.795495 0.824974,0.854438 1.649915,1.708841 2.474873,2.563262 0.427219,0.810243 0.854421,1.620453 1.281631,2.43068 0.589268,1.458436 1.178512,2.916815 1.767767,4.375223 0.324097,1.22273 0.648182,2.445411 0.972272,3.668116 0.397756,0.928096 0.795495,1.856155 1.193243,2.784233 0.471414,0.692389 0.942809,1.384751 1.414213,2.077126 0.942828,0.795511 1.885618,1.59099 2.828428,2.386486 1.104876,0.368292 2.209708,0.736569 3.314563,1.104854 1.178534,0.279902 2.357022,0.559793 3.535533,0.839689 0.810243,0.08839 1.620453,0.176777 2.43068,0.265165 0.810243,0.132585 1.620453,0.265165 2.430679,0.397748 0.294634,0 0.589256,0 0.883884,0 0.103122,-0.02946 0.206239,-0.05893 0.309359,-0.08839 0.07366,-0.53034 0.147314,-1.06066 0.220971,-1.59099 -0.162049,-3.491409 -0.324091,-6.982679 -0.486136,-10.474019 0.02946,-0.220975 0.05893,-0.441942 0.08839,-0.662913 0.766048,-1.988777 1.532065,-3.977475 2.298097,-5.966213 0.574536,-0.972291 1.149049,-1.944544 1.723573,-2.916815 0.530341,-0.500878 1.06066,-1.001735 1.590991,-1.502602 0.309365,-0.191512 0.618718,-0.383016 0.928077,-0.574525 0.486146,-0.103121 0.972272,-0.206239 1.458408,-0.309359 0.26517,-0.02946 0.53033,-0.05893 0.795495,-0.08839 0.147317,0 0.294628,0 0.441942,0 0.02946,-0.162049 0.05893,-0.324091 0.08839,-0.486136 0,-0.854438 0,-1.708841 0,-2.563262 0,-0.01473 0,-0.02946 0,-0.04419 -0.07366,-0.147317 -0.147314,-0.294628 -0.220971,-0.441942 z" /><path
         style="fill:#f8f1e3;stroke:#046607;stroke-width:2.045;stroke-dasharray:none;stroke-opacity:1"
         d="m 52.333333,79.874999 c 0.02083,1.875 0.0625,5.625 0.02604,7.864591 -0.03646,2.239591 -0.151041,2.968743 -0.656258,4.25522 -0.505217,1.286476 -1.401033,3.130189 -2.322917,4.677077 -0.921885,1.546887 -1.869782,2.796863 -2.510411,3.505193 -0.640628,0.70834 -0.973954,0.875 -1.447918,1.01563 -0.473965,0.14063 -1.088538,0.25521 -1.526038,0.32812 -0.4375,0.0729 -0.69792,0.10414 -0.833334,0.18746 -0.135415,0.0833 -0.145831,0.21874 -0.15104,0.79167 -0.0052,0.57293 -0.0052,1.58332 0.02604,2.14061 0.03125,0.5573 0.09375,0.66146 0.250002,0.73959 0.156255,0.0781 0.406248,0.13021 1.770855,0.14583 1.364608,0.0156 3.843725,-0.005 9.838612,-0.0417 5.994886,-0.0365 15.505113,-0.0885 20.348868,-0.13541 4.843755,-0.0469 5.020821,-0.0885 5.114574,-0.14063 0.09375,-0.0521 0.10417,-0.11458 0.10417,-0.625 0,-0.51043 -0.01042,-1.46875 -0.0052,-2.01562 0.0052,-0.54688 0.02604,-0.68229 -10e-7,-0.78125 -0.02604,-0.099 -0.09896,-0.16146 -0.489589,-0.27604 -0.390632,-0.11459 -1.09895,-0.28125 -1.729164,-0.54167 -0.630213,-0.26042 -1.182285,-0.61458 -1.833336,-1.265634 -0.65105,-0.651052 -1.401035,-1.59895 -2.020831,-2.552085 -0.619797,-0.953134 -1.10937,-1.911448 -1.458331,-2.708329 -0.34896,-0.796882 -0.55729,-1.432286 -0.760417,-2.072917 -0.203127,-0.640632 -0.401039,-1.286452 -0.927089,-2.609389 -0.526051,-1.322937 -1.3802,-3.322897 -2.093748,-4.671862 -0.713547,-1.348965 -1.286452,-2.046868 -1.854166,-2.65104 C 66.624988,81.833272 66.062499,81.322865 65.296865,80.807235 64.53123,80.291605 63.5625,79.770782 62.505197,79.39578 61.447893,79.020778 60.302083,78.791616 58.98436,78.604114 57.666636,78.416613 56.177083,78.270782 55.072909,78.161407 53.968735,78.052031 53.25,77.979116 52.854165,77.958283 c -0.395834,-0.02083 -0.468749,0.01042 -0.505207,0.02604 -0.03646,0.01563 -0.03646,0.01568 -0.01563,1.890675 z"
         id="path6"
         inkscape:path-effect="#path-effect10"
         inkscape:original-d="m 52.3125,77.999999 c 0.04167,3.75 0.08333,7.5 0.125,11.25 -0.114586,0.729182 -0.229167,1.458334 -0.34375,2.1875 -0.895852,1.843787 -1.791667,3.6875 -2.6875,5.53125 -0.947936,1.250025 -1.895834,2.5 -2.84375,3.750001 -0.33334,0.16667 -0.666667,0.33333 -1,0.5 -0.614596,0.11458 -1.229167,0.22917 -1.84375,0.34375 -0.260422,0.0312 -0.520834,0.0625 -0.78125,0.0937 -0.01042,0.13542 -0.02083,0.27083 -0.03125,0.40625 0,1.01044 0,2.02083 0,3.03125 0.0625,0.10417 0.125,0.20833 0.1875,0.3125 0.250005,0.0521 0.5,0.10417 0.75,0.15625 2.479216,-0.0208 4.958333,-0.0417 7.4375,-0.0625 9.510606,-0.0521 19.020833,-0.10417 28.531249,-0.15625 0.177087,-0.0417 0.354167,-0.0833 0.53125,-0.125 0.01042,-0.0625 0.02083,-0.125 0.03125,-0.1875 -0.01042,-0.95835 -0.02083,-1.91667 -0.03125,-2.875 0.02083,-0.13542 0.04167,-0.27083 0.0625,-0.40625 -0.07292,-0.0625 -0.145833,-0.125 -0.21875,-0.1875 -0.708347,-0.16667 -1.416666,-0.33333 -2.125,-0.5 -0.552094,-0.35417 -1.104166,-0.70833 -1.65625,-1.062501 -0.750015,-0.947935 -1.5,-1.895833 -2.25,-2.84375 -0.489593,-0.958352 -0.979166,-1.916666 -1.46875,-2.875 -0.208337,-0.635429 -0.416666,-1.270833 -0.625,-1.90625 -0.19792,-0.645846 -0.395833,-1.291666 -0.59375,-1.9375 -0.854183,-2.00004 -1.708333,-4 -2.5625,-6 -0.572928,-0.69793 -1.145833,-1.395833 -1.71875,-2.09375 -0.562511,-0.510426 -1.125,-1.020833 -1.687499,-1.53125 -0.96877,-0.520843 -1.9375,-1.041666 -2.90625,-1.5625 -1.145857,-0.229171 -2.291667,-0.458333 -3.4375,-0.6875 -1.489614,-0.145836 -2.979167,-0.291666 -4.46875,-0.4375 -0.718765,-0.07292 -1.4375,-0.145833 -2.15625,-0.21875 -0.07292,0.03125 -0.145834,0.0625 -0.21875,0.09375 z" /><path
         style="fill:#16a61a;stroke:#046607;stroke-width:2.045;stroke-opacity:1;stroke-dasharray:none;fill-opacity:1"
         d="m 76.518528,29.444368 c -0.423527,0.850738 -1.270582,2.552214 -1.697793,3.506074 -0.427211,0.95386 -0.434577,1.160094 -0.41248,1.443677 0.0221,0.283583 0.07366,0.644495 0.191509,0.861784 0.117854,0.217289 0.301991,0.290944 1.263232,0.327772 0.961241,0.03683 2.69951,0.03683 3.793321,0.05893 1.09381,0.0221 1.543108,0.06629 2.007152,0.143632 0.464043,0.07734 0.942804,0.187824 1.565213,0.48614 0.622409,0.298315 1.388426,0.784441 2.106588,1.333192 0.718162,0.54875 1.388427,1.160091 1.996102,1.764084 0.607675,0.603993 1.152726,1.200602 1.646232,1.892985 0.493506,0.692384 0.935439,1.480497 1.300044,2.165513 0.364605,0.685015 0.651861,1.266894 0.813907,1.867205 0.162045,0.60031 0.198873,1.219016 0.228336,1.590985 0.02946,0.371969 0.05156,0.497182 0.180461,0.611352 0.128902,0.11417 0.364599,0.217287 0.751304,0.265164 0.386704,0.04788 0.924389,0.04051 1.277944,0.02209 0.353554,-0.01842 0.522964,-0.04788 0.666595,-0.117853 0.143632,-0.06997 0.261481,-0.180459 0.294626,-1.126968 0.03315,-0.94651 -0.01841,-2.728973 -0.05524,-5.796829 -0.03683,-3.067855 -0.05892,-7.420894 -0.0847,-9.645336 -0.02578,-2.224443 -0.05524,-2.320193 -0.202559,-2.401216 -0.147316,-0.08102 -0.412477,-0.147313 -1.926155,-0.191507 -1.513678,-0.04419 -4.275759,-0.06629 -6.850093,-0.06997 -2.574335,-0.0037 -4.960772,0.01105 -6.271869,0.01473 -1.311097,0.0037 -1.546793,-0.0037 -1.727254,0.01841 -0.180461,0.0221 -0.305675,0.07365 -0.368283,0.09943 -0.06261,0.02578 -0.06261,0.02579 -0.486133,0.876528 z"
         id="path10"
         inkscape:path-effect="#path-effect15"
         inkscape:original-d="m 76.942056,28.59363 c -0.847055,1.701476 -1.69411,3.402952 -2.541165,5.104427 -0.0074,0.206244 -0.01473,0.412479 -0.0221,0.618719 0.05156,0.360926 0.10312,0.721838 0.15468,1.082757 0.184146,0.07366 0.368284,0.147314 0.552427,0.220971 1.738339,0 3.476608,0 5.214912,0 0.449317,0.0442 0.898615,0.08839 1.347923,0.132582 0.478779,0.110488 0.95754,0.220971 1.43631,0.331457 0.766048,0.486145 1.532065,0.972271 2.298097,1.458407 0.670292,0.611365 1.340557,1.222706 2.010835,1.834059 0.545072,0.596633 1.090123,1.193242 1.635185,1.789864 0.44195,0.788145 0.883883,1.576258 1.325825,2.364388 0.287268,0.581901 0.574524,1.16378 0.861786,1.74567 0.03683,0.618731 0.07366,1.237437 0.110486,1.856155 0.0221,0.125219 0.04419,0.250434 0.06629,0.375651 0.235707,0.103121 0.471404,0.206239 0.707107,0.309359 0.537706,-0.0074 1.075391,-0.01473 1.613087,-0.0221 0.169414,-0.02946 0.338822,-0.05893 0.508233,-0.08839 0.117853,-0.110487 0.235702,-0.220971 0.353553,-0.331456 -0.05156,-1.782534 -0.103119,-3.564997 -0.154679,-5.347495 -0.0221,-4.353213 -0.04419,-8.706252 -0.06629,-13.059378 -0.02946,-0.09576 -0.05893,-0.191508 -0.08839,-0.287262 -0.26517,-0.06629 -0.53033,-0.132583 -0.795495,-0.198874 -2.762191,-0.0221 -5.524272,-0.04419 -8.286408,-0.06629 -2.386533,0.01473 -4.77297,0.02946 -7.159456,0.04419 -0.235707,-0.0074 -0.471404,-0.01473 -0.707106,-0.0221 -0.12522,0.05156 -0.250434,0.103119 -0.375651,0.154679 z" /><path
         style="fill:#16a61a;stroke:#046607;stroke-width:2.045;stroke-opacity:1;stroke-dasharray:none;fill-opacity:1"
         d="m 48.517837,90.11192 c -0.427211,0.994369 -1.281631,2.983106 -1.77145,4.017986 -0.489819,1.034881 -0.615036,1.115904 -1.870911,1.14905 -1.255874,0.03315 -3.642312,0.01842 -6.437625,0.03315 -2.795314,0.01473 -5.999328,0.05893 -8.058049,0.06261 -2.058721,0.0037 -2.972049,-0.03315 -3.506064,-0.103121 -0.534014,-0.06997 -0.68869,-0.173092 -0.736567,-0.939139 -0.04788,-0.766047 0.01105,-2.194963 0.01105,-5.056579 -1e-6,-2.861615 -0.05893,-7.15573 -0.04788,-9.505391 0.01105,-2.34966 0.09207,-2.754766 0.180462,-2.975738 0.08839,-0.220972 0.18414,-0.257799 0.592943,-0.279896 0.408803,-0.0221 1.130627,-0.02946 1.543108,-0.0037 0.41248,0.02578 0.515596,0.0847 0.567156,0.20624 0.05156,0.121536 0.05156,0.305675 0.05524,0.751307 0.0037,0.445631 0.01105,1.152724 0.19888,1.83774 0.187829,0.685016 0.556107,1.347916 1.027517,2.165518 0.47141,0.817602 1.045923,1.789854 1.823013,2.651648 0.777091,0.861794 1.756709,1.61308 2.445405,2.132364 0.688697,0.519284 1.086437,0.806541 1.631505,1.119587 0.545069,0.313045 1.23743,0.65186 1.944544,0.869149 0.707115,0.217289 1.428938,0.313041 2.276003,0.357235 0.847064,0.04419 1.819317,0.03683 2.751086,0.05156 0.931769,0.01473 1.823001,0.05156 2.629552,0.04788 0.806551,-0.0037 1.528374,-0.04788 2.003465,-0.06629 0.47509,-0.01841 0.703421,-0.01105 0.869151,0.01474 0.16573,0.02578 0.268847,0.06997 0.309357,0.150998 0.04051,0.08102 0.01842,0.198871 0.0074,0.257797 -0.01105,0.05893 -0.01105,0.05893 -0.438262,1.053294 z"
         id="path16"
         inkscape:path-effect="#path-effect16"
         inkscape:original-d="m 48.945047,89.117551 c -0.854421,1.988738 -1.708841,3.977475 -2.563262,5.966213 -0.125219,0.08102 -0.250434,0.162046 -0.37565,0.243068 -2.386533,-0.01473 -4.772971,-0.02946 -7.159456,-0.04419 -3.204142,0.04419 -6.408156,0.08839 -9.612233,0.132583 -0.913365,-0.03683 -1.826693,-0.07366 -2.740039,-0.110486 -0.154683,-0.103122 -0.309359,-0.206239 -0.464039,-0.309359 0.05893,-1.428974 0.117851,-2.85789 0.176777,-4.286835 -0.05893,-4.294286 -0.117851,-8.588401 -0.176777,-12.882601 0.08102,-0.405122 0.162045,-0.810227 0.243068,-1.21534 0.09576,-0.03683 0.191508,-0.07366 0.287262,-0.110486 0.721853,-0.0074 1.443677,-0.01473 2.165515,-0.0221 0.103122,0.05893 0.206239,0.117851 0.309359,0.176777 0,0.184146 0,0.368285 0,0.552427 0.0074,0.707121 0.01473,1.414214 0.0221,2.12132 0.368292,0.662926 0.73657,1.325826 1.104854,1.988738 0.574536,0.972292 1.149049,1.944544 1.723573,2.916816 0.979657,0.751316 1.959275,1.502602 2.938913,2.253903 0.397755,0.287267 0.795495,0.574524 1.193242,0.861786 0.69239,0.338829 1.384751,0.677644 2.077127,1.016466 0.721852,0.09576 1.443676,0.191508 2.165514,0.287262 0.972291,-0.0074 1.944544,-0.01473 2.916816,-0.0221 0.891266,0.03683 1.782498,0.07366 2.673747,0.110485 0.721853,-0.0442 1.443676,-0.08839 2.165515,-0.132582 0.228341,0.0074 0.456673,0.01473 0.685009,0.0221 0.103122,0.0442 0.20624,0.08839 0.309359,0.132582 -0.0221,0.117854 -0.04419,0.235703 -0.06629,0.353554 z" /><path
         style="fill:#16a61a;fill-opacity:1;stroke:#046607;stroke-width:2.045;stroke-opacity:1;stroke-dasharray:none"
         d="m 46.580659,28.95455 c 0.383016,0.537695 0.85442,1.480504 1.451049,3.01259 0.596629,1.532086 1.318453,3.653364 2.106591,5.656852 0.788138,2.003488 1.642541,3.889068 2.504336,5.170706 0.861795,1.281638 1.73093,1.959268 3.005212,2.717943 1.274282,0.758675 2.953627,1.598348 4.765608,2.172875 1.81198,0.574527 3.756485,0.883881 5.966219,1.149048 2.209733,0.265167 4.684557,0.486133 7.203651,0.780765 2.519093,0.294631 5.082304,0.662909 7.012129,1.0091 1.929825,0.346191 3.226162,0.670275 4.37522,1.009101 1.149059,0.338825 2.150773,0.692371 3.3072,1.281635 1.156428,0.589264 2.467496,1.414206 3.756505,2.548537 1.289009,1.134332 2.555884,2.577979 3.594455,3.896451 1.038571,1.318471 1.848781,2.51169 2.496967,3.830164 0.648187,1.318474 1.134313,2.762121 1.487868,4.647763 0.353555,1.885641 0.574521,4.213154 0.412471,6.408152 -0.162051,2.194998 -0.707101,4.257351 -1.605729,6.290304 -0.898627,2.032952 -2.15077,4.036381 -3.417682,5.59792 -1.266913,1.561538 -2.548518,2.681101 -4.014308,3.72704 -1.46579,1.045938 -3.115673,2.018191 -4.728776,2.747399 -1.613103,0.729209 -3.18933,1.215335 -4.596191,1.60572 -1.40686,0.390385 -2.644272,0.685007 -3.432404,0.817589 -0.788133,0.132582 -1.126949,0.103119 -1.56153,-0.545075 -0.434582,-0.648194 -0.964901,-1.915068 -1.554163,-3.447151 -0.589262,-1.532082 -1.23743,-3.329276 -1.782496,-4.780329 -0.545066,-1.451053 -0.986999,-2.555885 -1.657286,-3.660751 -0.670288,-1.104865 -1.568884,-2.209697 -2.39385,-3.07149 C 68.45676,78.665615 67.705474,78.046909 66.409093,77.398721 65.112712,76.750533 63.271325,76.072903 60.9732,75.59413 58.675076,75.115357 55.920361,74.835466 53.776928,74.629225 51.633495,74.422985 50.101461,74.290405 47.751773,74.047333 45.402084,73.804262 42.234898,73.450715 39.951518,73.030866 37.668139,72.611016 36.268685,72.12489 34.979677,71.447237 33.690668,70.769585 32.51218,69.90045 31.517803,68.957631 30.523426,68.014812 29.713216,66.998366 29.087127,66.202865 28.461039,65.407364 28.019106,64.832851 27.422477,63.794274 26.825848,62.755696 26.074562,61.253124 25.588424,59.912556 25.102286,58.571988 24.88132,57.3935 24.645615,55.765661 c -0.235705,-1.62784 -0.486133,-3.704925 -0.464033,-5.693682 0.0221,-1.988756 0.316721,-3.889068 1.031205,-5.951485 0.714484,-2.062417 1.848779,-4.286812 3.22618,-6.216641 1.377401,-1.929828 2.997822,-3.56498 4.942388,-4.964474 1.944566,-1.399494 4.213155,-2.56325 5.936739,-3.285091 1.723585,-0.721841 2.902073,-1.001732 3.859621,-1.17851 0.957548,-0.176777 1.694102,-0.250432 2.209704,-0.220968 0.515602,0.02946 0.810224,0.162044 1.19324,0.69974 z"
         id="path17"
         inkscape:path-effect="#path-effect17"
         inkscape:original-d="m 46.49227,28.549436 c 0.471405,0.942809 0.94281,1.885618 1.414214,2.828427 0.721853,2.121363 1.443676,4.242641 2.165515,6.363961 0.854437,1.885656 1.708841,3.771236 2.563262,5.656854 0.869169,0.677658 1.738304,1.355288 2.607456,2.032932 1.679412,0.839706 3.358757,1.679379 5.038136,2.519068 1.944582,0.309366 3.889087,0.618719 5.833631,0.928078 2.474923,0.220975 4.949747,0.441942 7.424621,0.662912 2.563313,0.368293 5.126524,0.73657 7.689786,1.104855 1.296388,0.324097 2.592725,0.648181 3.889087,0.972272 1.001755,0.35356 2.003469,0.707106 3.005204,1.06066 1.31112,0.824974 2.622188,1.649916 3.933281,2.474873 1.266925,1.443706 2.5338,2.887353 3.800699,4.331029 0.810243,1.193267 1.620453,2.386486 2.43068,3.579729 0.486145,1.443705 0.972272,2.887352 1.458408,4.331029 0.220975,2.327606 0.44194,4.655119 0.66291,6.982679 -0.54507,2.062436 -1.090121,4.124789 -1.635182,6.187184 -1.252194,2.00351 -2.504337,4.006939 -3.756505,6.010408 -1.281657,1.119608 -2.563262,2.239171 -3.844893,3.358757 -1.649949,0.972291 -3.299832,1.944544 -4.949748,2.916815 -1.57629,0.486146 -3.152517,0.972272 -4.728776,1.458408 -1.237462,0.294634 -2.474874,0.589256 -3.712311,0.883884 -0.338828,-0.02946 -0.677644,-0.05893 -1.016466,-0.08839 -0.53034,-1.266925 -1.06066,-2.533799 -1.59099,-3.800699 -0.648194,-1.797265 -1.296362,-3.594459 -1.944544,-5.391689 -0.44195,-1.104876 -0.883883,-2.209708 -1.325825,-3.314563 -0.898633,-1.104876 -1.797229,-2.209708 -2.695844,-3.314563 -0.751316,-0.618731 -1.502602,-1.237437 -2.253903,-1.856155 -1.841461,-0.677658 -3.682848,-1.355288 -5.524272,-2.032932 -2.754825,-0.279902 -5.50954,-0.559793 -8.26431,-0.839689 -1.532096,-0.132586 -3.06413,-0.265165 -4.596194,-0.397748 -3.167313,-0.35356 -6.334499,-0.707107 -9.501748,-1.06066 C 37.668139,72.611016 36.268685,72.12489 34.869203,71.638754 33.690668,70.769585 32.51218,69.90045 31.333669,69.031298 30.523426,68.014812 29.713216,66.998366 28.902989,65.9819 28.461039,65.407364 28.019106,64.832851 27.577164,64.258327 26.825848,62.755696 26.074562,61.253124 25.323261,59.750523 25.102286,58.571988 24.88132,57.3935 24.660349,56.214989 24.40991,54.137821 24.159482,52.060736 23.909048,49.98361 c 0.294634,-1.900387 0.589255,-3.800699 0.883883,-5.701048 1.13434,-2.224485 2.268635,-4.44888 3.402952,-6.67332 1.620485,-1.635217 3.240906,-3.270369 4.861359,-4.905554 2.268679,-1.163803 4.537268,-2.327559 6.805902,-3.491339 1.178535,-0.279902 2.357023,-0.559793 3.535534,-0.83969 0.736585,-0.07366 1.473139,-0.147314 2.209709,-0.22097 0.294634,0.132585 0.589256,0.265165 0.883883,0.397747 z" /></g></g></svg>
