<?xml version="1.0" encoding="UTF-8" standalone="no"?>
<!-- Created with Inkscape (http://www.inkscape.org/) -->

<svg
   width="120"
   height="120"
   viewBox="0 0 120 120"
   version="1.1"
   id="svg1"
   xml:space="preserve"
   inkscape:version="1.4.1 (93de688d07, 2025-03-30)"
   sodipodi:docname="sekiro.svg"
   xmlns:inkscape="http://www.inkscape.org/namespaces/inkscape"
   xmlns:sodipodi="http://sodipodi.sourceforge.net/DTD/sodipodi-0.dtd"
   xmlns="http://www.w3.org/2000/svg"
   xmlns:svg="http://www.w3.org/2000/svg"><sodipodi:namedview
     id="namedview1"
     pagecolor="#1f1f1f"
     bordercolor="#000000"
     borderopacity="0.25"
     inkscape:showpageshadow="2"
     inkscape:pageopacity="0.0"
     inkscape:pagecheckerboard="0"
     inkscape:deskcolor="#3c3c3c"
     inkscape:document-units="px"
     inkscape:zoom="5.6568543"
     inkscape:cx="67.440309"
     inkscape:cy="50.116193"
     inkscape:window-width="1660"
     inkscape:window-height="1287"
     inkscape:window-x="0"
     inkscape:window-y="0"
     inkscape:window-maximized="1"
     inkscape:current-layer="layer3" /><defs
     id="defs1"><inkscape:path-effect
       effect="bspline"
       id="path-effect14"
       is_visible="true"
       lpeversion="1.3"
       weight="33.333333"
       steps="2"
       helper_size="0"
       apply_no_weight="true"
       apply_with_weight="true"
       only_selected="false"
       uniform="false" /><inkscape:path-effect
       effect="fillet_chamfer"
       id="path-effect5"
       is_visible="true"
       lpeversion="1"
       nodesatellites_param="F,0,0,1,0,37.022737,0,1 @ F,0,0,1,0,36.062445,0,1 @ F,0,0,1,0,35.528974,0,1 @ F,0,0,1,0,28.991378,0,1"
       radius="0"
       unit="px"
       method="auto"
       mode="F"
       chamfer_steps="1"
       flexible="false"
       use_knot_distance="true"
       apply_no_radius="true"
       apply_with_radius="true"
       only_selected="false"
       hide_knots="false" /><inkscape:path-effect
       effect="bspline"
       id="path-effect4"
       is_visible="true"
       lpeversion="1.3"
       weight="33.333333"
       steps="2"
       helper_size="0"
       apply_no_weight="true"
       apply_with_weight="true"
       only_selected="false"
       uniform="false" /><inkscape:path-effect
       effect="bspline"
       id="path-effect3"
       is_visible="true"
       lpeversion="1.3"
       weight="33.333333"
       steps="2"
       helper_size="0"
       apply_no_weight="true"
       apply_with_weight="true"
       only_selected="false"
       uniform="false" /><inkscape:path-effect
       effect="mirror_symmetry"
       start_point="59.977887,81.781355"
       end_point="59.977887,112.27285"
       center_point="59.977887,97.027103"
       id="path-effect9"
       is_visible="true"
       lpeversion="1.2"
       lpesatellites=""
       mode="free"
       discard_orig_path="false"
       fuse_paths="false"
       oposite_fuse="false"
       split_items="false"
       split_open="false"
       link_styles="false" /><inkscape:path-effect
       effect="mirror_symmetry"
       start_point="59.944658,10.409945"
       end_point="59.944658,50.039614"
       center_point="59.944658,30.22478"
       id="path-effect2"
       is_visible="true"
       lpeversion="1.2"
       lpesatellites=""
       mode="free"
       discard_orig_path="false"
       fuse_paths="false"
       oposite_fuse="false"
       split_items="false"
       split_open="false"
       link_styles="false" /><inkscape:path-effect
       effect="mirror_symmetry"
       start_point="59.948435,66.805114"
       end_point="59.948435,107.38004"
       center_point="59.948435,87.092577"
       id="path-effect8"
       is_visible="true"
       lpeversion="1.2"
       lpesatellites=""
       mode="free"
       discard_orig_path="false"
       fuse_paths="false"
       oposite_fuse="false"
       split_items="false"
       split_open="false"
       link_styles="false" /><inkscape:path-effect
       effect="mirror_symmetry"
       start_point="60.801511,9.4541705"
       end_point="60.801511,40.169132"
       center_point="60.801511,24.811651"
       id="path-effect7"
       is_visible="true"
       lpeversion="1.2"
       lpesatellites=""
       mode="free"
       discard_orig_path="false"
       fuse_paths="false"
       oposite_fuse="false"
       split_items="false"
       split_open="false"
       link_styles="false" /><inkscape:path-effect
       effect="fillet_chamfer"
       id="path-effect13"
       is_visible="true"
       lpeversion="1"
       nodesatellites_param="F,0,0,1,0,4.7467821,0,1 @ F,0,0,1,0,4.0515277,0,1 @ F,0,0,1,0,0,0,1 @ F,0,0,1,0,2.4219461,0,1 @ F,0,0,1,0,2.4960577,0,1 @ F,0,0,1,0,0,0,1 @ F,0,0,1,0,4.1062831,0,1"
       radius="0"
       unit="px"
       method="auto"
       mode="F"
       chamfer_steps="1"
       flexible="false"
       use_knot_distance="true"
       apply_no_radius="true"
       apply_with_radius="true"
       only_selected="false"
       hide_knots="false" /><inkscape:path-effect
       effect="fillet_chamfer"
       id="path-effect12"
       is_visible="true"
       lpeversion="1"
       nodesatellites_param="F,0,0,1,0,0,0,1 @ F,0,0,1,0,0,0,1 @ F,0,0,1,0,0,0,1 @ F,0,0,1,0,0,0,1 @ F,0,0,1,0,3.627665,0,1 @ F,0,0,1,0,0,0,1 @ F,0,0,1,0,0,0,1"
       radius="0"
       unit="px"
       method="auto"
       mode="F"
       chamfer_steps="1"
       flexible="false"
       use_knot_distance="true"
       apply_no_radius="true"
       apply_with_radius="true"
       only_selected="false"
       hide_knots="false" /><inkscape:path-effect
       effect="fillet_chamfer"
       id="path-effect11"
       is_visible="true"
       lpeversion="1"
       nodesatellites_param="F,0,0,1,0,2.9729248,0,1 @ F,0,0,1,0,3.8975858,0,1 @ F,0,0,1,0,0,0,1 @ F,0,1,1,0,3.784373,0,1 @ F,0,0,1,0,1.4792147,0,1 @ F,0,0,1,0,0,0,1 @ F,0,0,1,0,3.784373,0,1"
       radius="0"
       unit="px"
       method="auto"
       mode="F"
       chamfer_steps="1"
       flexible="false"
       use_knot_distance="true"
       apply_no_radius="true"
       apply_with_radius="true"
       only_selected="false"
       hide_knots="false" /><linearGradient
       id="linearGradient6"><stop
         style="stop-color:#c88500;stop-opacity:1;"
         offset="0.07163448"
         id="stop8" /><stop
         style="stop-color:#fff300;stop-opacity:1;"
         offset="1"
         id="stop9" /></linearGradient><linearGradient
       id="linearGradient6-1"><stop
         style="stop-color:#c88500;stop-opacity:1;"
         offset="0"
         id="stop6" /><stop
         style="stop-color:#fff300;stop-opacity:1;"
         offset="1"
         id="stop7" /></linearGradient><inkscape:path-effect
       effect="fillet_chamfer"
       id="path-effect1"
       is_visible="true"
       lpeversion="1"
       nodesatellites_param="F,0,0,1,0,24.536157,0,1 @ F,0,0,1,0,24.004899,0,1 @ F,0,0,1,0,23.651152,0,1 @ F,0,0,1,0,24.380791,0,1"
       radius="0"
       unit="px"
       method="auto"
       mode="F"
       chamfer_steps="1"
       flexible="false"
       use_knot_distance="true"
       apply_no_radius="true"
       apply_with_radius="true"
       only_selected="false"
       hide_knots="false" /><linearGradient
       id="a"
       x1="7.937"
       x2="7.937"
       y1="15.081"
       y2="1.852"
       gradientTransform="scale(3.7796)"
       gradientUnits="userSpaceOnUse"><stop
         offset="0"
         stop-color="#9b6f27"
         id="stop1" /><stop
         offset="1"
         stop-color="#d0ab6a"
         id="stop2" /></linearGradient><filter
       id="b"
       width="1.216"
       height="1.216"
       x="-0.108"
       y="-0.108"
       color-interpolation-filters="sRGB"><feGaussianBlur
         stdDeviation="1.35"
         id="feGaussianBlur2" /></filter><linearGradient
       id="linearGradient31"
       x1=".5002"
       x2=".5002"
       y2="1"
       gradientTransform="matrix(244,0,0,228,5.986,12)"
       gradientUnits="userSpaceOnUse"><stop
         stop-color="#ebdbb2"
         stop-opacity=".2"
         offset="0"
         id="stop1-5" /><stop
         stop-color="#ebdbb2"
         stop-opacity=".05"
         offset=".1"
         id="stop2-6" /><stop
         stop-opacity="0"
         offset=".7036"
         id="stop3" /><stop
         stop-opacity=".1"
         offset=".8975"
         id="stop4" /><stop
         stop-opacity=".2"
         offset="1"
         id="stop5" /></linearGradient><inkscape:path-effect
       effect="bspline"
       id="path-effect4-6"
       is_visible="true"
       lpeversion="1.3"
       weight="33.333333"
       steps="2"
       helper_size="0"
       apply_no_weight="true"
       apply_with_weight="true"
       only_selected="false"
       uniform="false" /><inkscape:path-effect
       effect="bspline"
       id="path-effect3-8"
       is_visible="true"
       lpeversion="1.3"
       weight="33.333333"
       steps="2"
       helper_size="0"
       apply_no_weight="true"
       apply_with_weight="true"
       only_selected="false"
       uniform="false" /><inkscape:path-effect
       effect="mirror_symmetry"
       start_point="59.977887,81.781355"
       end_point="59.977887,112.27285"
       center_point="59.977887,97.027103"
       id="path-effect9-0"
       is_visible="true"
       lpeversion="1.2"
       lpesatellites=""
       mode="free"
       discard_orig_path="false"
       fuse_paths="false"
       oposite_fuse="false"
       split_items="false"
       split_open="false"
       link_styles="false" /><inkscape:path-effect
       effect="mirror_symmetry"
       start_point="59.944658,10.409945"
       end_point="59.944658,50.039614"
       center_point="59.944658,30.22478"
       id="path-effect2-2"
       is_visible="true"
       lpeversion="1.2"
       lpesatellites=""
       mode="free"
       discard_orig_path="false"
       fuse_paths="false"
       oposite_fuse="false"
       split_items="false"
       split_open="false"
       link_styles="false" /><inkscape:path-effect
       effect="mirror_symmetry"
       start_point="59.948435,66.805114"
       end_point="59.948435,107.38004"
       center_point="59.948435,87.092577"
       id="path-effect8-1"
       is_visible="true"
       lpeversion="1.2"
       lpesatellites=""
       mode="free"
       discard_orig_path="false"
       fuse_paths="false"
       oposite_fuse="false"
       split_items="false"
       split_open="false"
       link_styles="false" /><inkscape:path-effect
       effect="mirror_symmetry"
       start_point="60.801511,9.4541705"
       end_point="60.801511,40.169132"
       center_point="60.801511,24.811651"
       id="path-effect7-0"
       is_visible="true"
       lpeversion="1.2"
       lpesatellites=""
       mode="free"
       discard_orig_path="false"
       fuse_paths="false"
       oposite_fuse="false"
       split_items="false"
       split_open="false"
       link_styles="false" /><inkscape:path-effect
       effect="fillet_chamfer"
       id="path-effect13-51"
       is_visible="true"
       lpeversion="1"
       nodesatellites_param="F,0,0,1,0,4.7467821,0,1 @ F,0,0,1,0,4.0515277,0,1 @ F,0,0,1,0,0,0,1 @ F,0,0,1,0,2.4219461,0,1 @ F,0,0,1,0,2.4960577,0,1 @ F,0,0,1,0,0,0,1 @ F,0,0,1,0,4.1062831,0,1"
       radius="0"
       unit="px"
       method="auto"
       mode="F"
       chamfer_steps="1"
       flexible="false"
       use_knot_distance="true"
       apply_no_radius="true"
       apply_with_radius="true"
       only_selected="false"
       hide_knots="false" /><inkscape:path-effect
       effect="fillet_chamfer"
       id="path-effect12-1"
       is_visible="true"
       lpeversion="1"
       nodesatellites_param="F,0,0,1,0,0,0,1 @ F,0,0,1,0,0,0,1 @ F,0,0,1,0,0,0,1 @ F,0,0,1,0,0,0,1 @ F,0,0,1,0,3.627665,0,1 @ F,0,0,1,0,0,0,1 @ F,0,0,1,0,0,0,1"
       radius="0"
       unit="px"
       method="auto"
       mode="F"
       chamfer_steps="1"
       flexible="false"
       use_knot_distance="true"
       apply_no_radius="true"
       apply_with_radius="true"
       only_selected="false"
       hide_knots="false" /><inkscape:path-effect
       effect="fillet_chamfer"
       id="path-effect11-0"
       is_visible="true"
       lpeversion="1"
       nodesatellites_param="F,0,0,1,0,2.9729248,0,1 @ F,0,0,1,0,3.8975858,0,1 @ F,0,0,1,0,0,0,1 @ F,0,1,1,0,3.784373,0,1 @ F,0,0,1,0,1.4792147,0,1 @ F,0,0,1,0,0,0,1 @ F,0,0,1,0,3.784373,0,1"
       radius="0"
       unit="px"
       method="auto"
       mode="F"
       chamfer_steps="1"
       flexible="false"
       use_knot_distance="true"
       apply_no_radius="true"
       apply_with_radius="true"
       only_selected="false"
       hide_knots="false" /><inkscape:path-effect
       effect="fillet_chamfer"
       id="path-effect1-4"
       is_visible="true"
       lpeversion="1"
       nodesatellites_param="F,0,0,1,0,24.536157,0,1 @ F,0,0,1,0,24.004899,0,1 @ F,0,0,1,0,23.651152,0,1 @ F,0,0,1,0,24.380791,0,1"
       radius="0"
       unit="px"
       method="auto"
       mode="F"
       chamfer_steps="1"
       flexible="false"
       use_knot_distance="true"
       apply_no_radius="true"
       apply_with_radius="true"
       only_selected="false"
       hide_knots="false" /><filter
       id="b-5"
       width="1.216"
       height="1.216"
       x="-0.108"
       y="-0.108"
       color-interpolation-filters="sRGB"><feGaussianBlur
         stdDeviation="1.35"
         id="feGaussianBlur2-8" /></filter><inkscape:path-effect
       effect="bspline"
       id="path-effect5-6"
       is_visible="true"
       lpeversion="1.3"
       weight="33.333333"
       steps="2"
       helper_size="0"
       apply_no_weight="true"
       apply_with_weight="true"
       only_selected="false"
       uniform="false" /><inkscape:path-effect
       effect="bspline"
       id="path-effect4-4"
       is_visible="true"
       lpeversion="1.3"
       weight="33.333333"
       steps="2"
       helper_size="0"
       apply_no_weight="true"
       apply_with_weight="true"
       only_selected="false"
       uniform="false" /><inkscape:path-effect
       effect="bspline"
       id="path-effect3-1"
       is_visible="true"
       lpeversion="1.3"
       weight="33.333333"
       steps="2"
       helper_size="0"
       apply_no_weight="true"
       apply_with_weight="true"
       only_selected="false"
       uniform="false" /><inkscape:path-effect
       effect="mirror_symmetry"
       start_point="59.977887,81.781355"
       end_point="59.977887,112.27285"
       center_point="59.977887,97.027103"
       id="path-effect9-8"
       is_visible="true"
       lpeversion="1.2"
       lpesatellites=""
       mode="free"
       discard_orig_path="false"
       fuse_paths="false"
       oposite_fuse="false"
       split_items="false"
       split_open="false"
       link_styles="false" /><inkscape:path-effect
       effect="mirror_symmetry"
       start_point="59.944658,10.409945"
       end_point="59.944658,50.039614"
       center_point="59.944658,30.22478"
       id="path-effect2-5"
       is_visible="true"
       lpeversion="1.2"
       lpesatellites=""
       mode="free"
       discard_orig_path="false"
       fuse_paths="false"
       oposite_fuse="false"
       split_items="false"
       split_open="false"
       link_styles="false" /><inkscape:path-effect
       effect="mirror_symmetry"
       start_point="59.948435,66.805114"
       end_point="59.948435,107.38004"
       center_point="59.948435,87.092577"
       id="path-effect8-9"
       is_visible="true"
       lpeversion="1.2"
       lpesatellites=""
       mode="free"
       discard_orig_path="false"
       fuse_paths="false"
       oposite_fuse="false"
       split_items="false"
       split_open="false"
       link_styles="false" /><inkscape:path-effect
       effect="mirror_symmetry"
       start_point="60.801511,9.4541705"
       end_point="60.801511,40.169132"
       center_point="60.801511,24.811651"
       id="path-effect7-7"
       is_visible="true"
       lpeversion="1.2"
       lpesatellites=""
       mode="free"
       discard_orig_path="false"
       fuse_paths="false"
       oposite_fuse="false"
       split_items="false"
       split_open="false"
       link_styles="false" /><inkscape:path-effect
       effect="fillet_chamfer"
       id="path-effect13-5"
       is_visible="true"
       lpeversion="1"
       nodesatellites_param="F,0,0,1,0,4.7467821,0,1 @ F,0,0,1,0,4.0515277,0,1 @ F,0,0,1,0,0,0,1 @ F,0,0,1,0,2.4219461,0,1 @ F,0,0,1,0,2.4960577,0,1 @ F,0,0,1,0,0,0,1 @ F,0,0,1,0,4.1062831,0,1"
       radius="0"
       unit="px"
       method="auto"
       mode="F"
       chamfer_steps="1"
       flexible="false"
       use_knot_distance="true"
       apply_no_radius="true"
       apply_with_radius="true"
       only_selected="false"
       hide_knots="false" /><inkscape:path-effect
       effect="fillet_chamfer"
       id="path-effect12-3"
       is_visible="true"
       lpeversion="1"
       nodesatellites_param="F,0,0,1,0,0,0,1 @ F,0,0,1,0,0,0,1 @ F,0,0,1,0,0,0,1 @ F,0,0,1,0,0,0,1 @ F,0,0,1,0,3.627665,0,1 @ F,0,0,1,0,0,0,1 @ F,0,0,1,0,0,0,1"
       radius="0"
       unit="px"
       method="auto"
       mode="F"
       chamfer_steps="1"
       flexible="false"
       use_knot_distance="true"
       apply_no_radius="true"
       apply_with_radius="true"
       only_selected="false"
       hide_knots="false" /><inkscape:path-effect
       effect="fillet_chamfer"
       id="path-effect11-8"
       is_visible="true"
       lpeversion="1"
       nodesatellites_param="F,0,0,1,0,2.9729248,0,1 @ F,0,0,1,0,3.8975858,0,1 @ F,0,0,1,0,0,0,1 @ F,0,1,1,0,3.784373,0,1 @ F,0,0,1,0,1.4792147,0,1 @ F,0,0,1,0,0,0,1 @ F,0,0,1,0,3.784373,0,1"
       radius="0"
       unit="px"
       method="auto"
       mode="F"
       chamfer_steps="1"
       flexible="false"
       use_knot_distance="true"
       apply_no_radius="true"
       apply_with_radius="true"
       only_selected="false"
       hide_knots="false" /><inkscape:path-effect
       effect="fillet_chamfer"
       id="path-effect1-9"
       is_visible="true"
       lpeversion="1"
       nodesatellites_param="F,0,0,1,0,24.536157,0,1 @ F,0,0,1,0,24.004899,0,1 @ F,0,0,1,0,23.651152,0,1 @ F,0,0,1,0,24.380791,0,1"
       radius="0"
       unit="px"
       method="auto"
       mode="F"
       chamfer_steps="1"
       flexible="false"
       use_knot_distance="true"
       apply_no_radius="true"
       apply_with_radius="true"
       only_selected="false"
       hide_knots="false" /><filter
       id="b-3"
       width="1.216"
       height="1.216"
       x="-0.108"
       y="-0.108"
       color-interpolation-filters="sRGB"><feGaussianBlur
         stdDeviation="1.35"
         id="feGaussianBlur2-3" /></filter></defs><g
     inkscape:groupmode="layer"
     id="layer3"
     inkscape:label="base"><path
       d="m 76.476937,9.2332248 c 32.063223,0 37.852423,6.6798392 37.852423,38.7430672 v 24.938066 c 0,31.172592 -5.7892,37.852422 -37.852423,37.852422 H 43.523063 c -32.063227,0 -37.8524214,-6.67983 -37.8524214,-37.852422 V 47.976292 c 0,-32.063228 5.7891944,-38.7430672 37.8524214,-38.7430672 z"
       fill="#ebdbb2"
       style="display:inline;opacity:1;isolation:isolate;stroke-width:0.445323;fill:#1d2021;fill-opacity:1"
       id="path5" /><g
       id="g1"
       transform="matrix(0.84746156,0,0,0.84746156,9.1523063,9.2996712)"><g
         id="layer2"
         inkscape:label="Layer 2"
         style="opacity:1"><path
           style="opacity:1;fill:#eeeeee;fill-opacity:0;stroke-width:0.965576"
           id="rect1"
           width="104.6141"
           height="104.75148"
           x="7.5219741"
           y="7.4503703"
           inkscape:path-effect="#path-effect1-4"
           sodipodi:type="rect"
           d="M 32.058131,7.4503703 H 88.131173 A 24.004899,24.004899 45 0 1 112.13607,31.455269 V 88.550698 A 23.651152,23.651152 135 0 1 88.48492,112.20185 H 31.902765 A 24.380791,24.380791 45 0 1 7.5219741,87.821059 V 31.986527 A 24.536157,24.536157 135 0 1 32.058131,7.4503703 Z"
           transform="translate(0.40694183)" /></g><g
         id="layer1"
         inkscape:label="Layer 3"><g
           id="layer1-6"
           inkscape:label="Layer 3"
           style="opacity:1;fill:#741411;fill-opacity:1"
           transform="matrix(1.392094,0,0,1.392094,-24.235636,-23.893587)"><path
             style="fill:#741411;fill-opacity:1;fill-rule:evenodd;stroke-width:4"
             d="m 64.691601,39.94619 c -0.859921,0.55248 -2.579762,1.657439 -3.488347,2.309902 -0.908585,0.652464 -1.005909,0.852422 -1.054305,1.034254 -0.0484,0.181832 -0.04786,0.345526 0.0032,0.487014 0.05103,0.141488 0.152546,0.26076 0.347729,0.437015 0.195182,0.176255 0.484015,0.409481 0.787899,0.7023 0.303883,0.292819 0.622799,0.645212 0.834239,0.992476 0.211441,0.347264 0.315395,0.689378 0.382582,1.251866 0.06719,0.562488 0.0976,1.345311 -0.02358,7.300356 -0.121185,5.955045 -0.393961,17.081851 -0.512766,22.718098 -0.118806,5.636247 -0.08364,5.781706 0.01548,6.159736 0.09912,0.378029 0.262188,0.988602 0.653228,1.813675 0.39104,0.825073 1.010025,1.864592 1.761628,2.784924 0.751603,0.920331 1.635775,1.721422 2.742734,2.464968 1.106959,0.743546 2.436634,1.429504 4.101236,2.020429 1.664601,0.590926 3.664022,1.086786 5.627017,1.303018 1.962994,0.216233 3.889446,0.15283 5.411702,0.0081 1.522256,-0.144728 2.640233,-0.370771 4.074553,-0.698341 1.43432,-0.32757 3.184891,-0.756645 4.859906,-1.36415 1.675015,-0.607506 3.274375,-1.393402 4.340693,-1.978043 1.066318,-0.584641 1.599541,-0.967997 2.105448,-1.413104 0.505907,-0.445108 0.984469,-0.951939 1.279809,-1.373279 0.29534,-0.42134 0.407444,-0.757165 0.519165,-1.213257 0.111721,-0.456091 0.223051,-1.032418 0.155539,-1.773486 -0.06751,-0.741068 -0.313859,-1.64683 -1.783505,-4.427108 -1.469646,-2.780278 -4.162479,-7.434869 -5.552456,-9.820088 -1.389978,-2.385219 -1.477039,-2.500963 -1.596058,-2.558838 -0.11902,-0.05787 -0.269988,-0.05787 -0.357089,0.03989 -0.0871,0.09777 -0.11033,0.293292 -0.07779,1.166137 0.03254,0.872846 0.120852,2.422947 0.146634,3.820866 0.02578,1.397919 -0.01096,2.643574 -0.07608,3.499515 -0.06511,0.855941 -0.158592,1.322124 -0.360329,2.005705 -0.201738,0.683581 -0.511721,1.584514 -1.020574,2.459253 -0.508852,0.874739 -1.216538,1.723231 -1.950209,2.336674 -0.733671,0.613443 -1.493281,0.991804 -2.382689,1.327493 -0.889409,0.335688 -1.90856,0.628686 -2.753891,0.833289 -0.845331,0.204602 -1.516795,0.320799 -2.467696,0.394859 -0.950902,0.07406 -2.181179,0.105979 -3.415182,0.01094 -1.234003,-0.09504 -2.471658,-0.317036 -3.203009,-0.499886 -0.731351,-0.18285 -0.956384,-0.326558 -1.215854,-0.519908 -0.25947,-0.19335 -0.553361,-0.436329 -0.827169,-0.737055 -0.273807,-0.300726 -0.527516,-0.659179 -0.743479,-1.119798 -0.215962,-0.46062 -0.394165,-1.023376 -0.535307,-1.607152 -0.141142,-0.583777 -0.245214,-1.18854 -0.29892,-2.187851 -0.05371,-0.999312 -0.05704,-2.393105 0.0778,-4.887734 0.134837,-2.494629 0.407838,-6.089922 0.562202,-7.910469 0.154364,-1.820547 0.190081,-1.866269 0.252834,-1.880296 0.06275,-0.01403 0.152546,0.0036 0.302318,0.0796 0.149772,0.07596 0.359515,0.210191 0.769165,0.383477 0.40965,0.173286 1.019177,0.38561 1.727289,0.514214 0.708112,0.128604 1.514763,0.173482 1.982772,0.177729 0.468008,0.0042 0.597353,-0.03213 2.788432,-0.991992 2.191079,-0.95986 6.443717,-2.84312 8.619559,-3.833618 2.175841,-0.990499 2.274806,-1.088204 2.405279,-1.226133 0.130473,-0.137929 0.29245,-0.316079 0.442976,-0.525627 0.150527,-0.209548 0.289596,-0.450481 0.362036,-0.60538 0.07244,-0.154899 0.07825,-0.223764 0.08192,-0.477714 0.0037,-0.253951 0.0052,-0.692972 -0.02023,-0.988767 -0.02544,-0.295796 -0.07784,-0.448351 -0.189222,-0.671088 -0.111377,-0.222737 -0.281716,-0.515642 -0.557298,-0.820263 -0.275582,-0.30462 -0.65639,-0.620939 -1.202145,-0.903974 -0.545756,-0.283034 -1.256423,-0.532767 -1.847706,-0.686958 -0.591283,-0.154191 -1.063151,-0.212834 -1.792514,-0.218872 -0.729362,-0.006 -1.716171,0.04053 -2.67854,0.207953 -0.962369,0.167427 -1.90024,0.455703 -3.565755,1.155342 -1.665515,0.699639 -4.05856,1.81059 -5.439758,2.454275 -1.381198,0.643685 -1.750488,0.820075 -1.948556,0.887051 -0.198068,0.06698 -0.224903,0.02454 -0.232339,-0.157429 -0.0074,-0.181973 0.0045,-0.503471 0.03934,-1.191808 0.03482,-0.688337 0.09248,-1.743464 0.209202,-2.829445 0.116721,-1.085981 0.292489,-2.20275 0.490085,-3.185655 0.197597,-0.982905 0.41701,-1.83189 0.775557,-2.75283 0.358547,-0.920941 0.856204,-1.913779 1.119137,-2.456203 0.262934,-0.542425 0.291133,-0.634408 0.291858,-0.773239 7.25e-4,-0.138832 -0.02603,-0.324502 -0.327538,-0.708138 -0.301513,-0.383635 -0.877766,-0.96521 -1.488879,-1.479226 -0.611113,-0.514016 -1.25705,-0.960443 -1.884908,-1.311743 -0.627858,-0.3513 -1.237601,-0.607453 -1.78999,-0.811163 -0.55239,-0.20371 -1.047395,-0.354967 -1.359255,-0.43252 -0.311861,-0.07755 -0.440564,-0.0814 -0.504917,-0.08332 -0.06435,-0.0019 -0.06439,-0.0019 -0.924316,0.550559 z"
             id="path1"
             inkscape:path-effect="#path-effect3-1"
             inkscape:original-d="m 65.551522,39.39371 c -1.719842,1.104959 -3.439683,2.209919 -5.159524,3.314878 -0.09733,0.199967 -0.194653,0.399926 -0.291979,0.599888 5.43e-4,0.163702 0.0011,0.327396 0.0016,0.491095 0.101523,0.119277 0.203042,0.238549 0.304562,0.357824 0.288844,0.233235 0.577677,0.466461 0.866515,0.699691 0.318929,0.352408 0.637845,0.704801 0.956767,1.057201 0.103959,0.342128 0.207913,0.684242 0.31187,1.026363 0.03042,0.782855 0.06083,1.565678 0.09125,2.348517 -0.272787,11.127251 -0.545563,22.254057 -0.818344,33.381086 0.03517,0.145465 0.07034,0.290924 0.105508,0.436386 0.163073,0.610597 0.32614,1.22117 0.48921,1.831755 0.61901,1.039561 1.237995,2.07908 1.856993,3.11862 0.884208,0.801123 1.76838,1.602214 2.65257,2.403321 1.329728,0.685985 2.659403,1.371943 3.989105,2.057914 1.999501,0.49588 3.998922,0.99174 5.998383,1.48761 1.926528,-0.06341 3.85298,-0.126808 5.779471,-0.190212 1.118021,-0.226052 2.235998,-0.452096 3.353997,-0.678143 1.750641,-0.429092 3.501212,-0.858167 5.251817,-1.28725 1.599425,-0.785928 3.198785,-1.571824 4.798177,-2.357735 0.533244,-0.383371 1.066467,-0.766727 1.5997,-1.15009 0.478581,-0.506852 0.957143,-1.013683 1.435714,-1.520524 0.112109,-0.335839 0.224214,-0.671664 0.33632,-1.007496 0.111335,-0.576351 0.222665,-1.152678 0.333998,-1.729017 -0.246357,-0.905797 -0.492704,-1.811559 -0.739056,-2.717339 -2.69294,-4.654776 -5.385773,-9.309367 -8.07866,-13.964051 -0.08707,-0.115752 -0.174129,-0.231498 -0.261194,-0.347248 -0.150974,0 -0.301942,0 -0.452913,0 -0.02323,0.195533 -0.04646,0.391058 -0.06969,0.586586 0.08831,1.550163 0.176624,3.100264 0.264936,4.650396 -0.03675,1.245706 -0.07349,2.491361 -0.11024,3.737042 -0.09348,0.466201 -0.186959,0.932384 -0.280438,1.398577 -0.309996,0.900969 -0.619979,1.801902 -0.929969,2.702853 -0.707715,0.848527 -1.415401,1.697019 -2.123102,2.545529 -0.759641,0.378376 -1.519251,0.756736 -2.278876,1.135105 -1.019192,0.293009 -2.038343,0.586007 -3.057515,0.879011 -0.67149,0.116201 -1.342954,0.232398 -2.014431,0.348597 -1.230326,0.03192 -2.460603,0.06384 -3.690904,0.09576 C 74.735445,84.914207 73.49779,84.692212 72.26011,84.470213 72.035093,84.326505 71.810057,84.1828 71.585016,84.039092 71.291115,83.796104 70.997224,83.553125 70.703328,83.310141 70.449609,82.951673 70.1959,82.59322 69.942185,82.234759 c -0.17821,-0.562778 -0.356413,-1.125534 -0.53462,-1.688301 -0.104077,-0.604786 -0.208149,-1.209549 -0.312224,-1.814323 -0.0033,-1.393849 -0.0067,-2.787642 -0.01001,-4.181464 0.273011,-3.595436 0.546012,-7.190729 0.819018,-10.786094 0.03572,-0.04573 0.07144,-0.09145 0.107156,-0.137174 0.08979,0.01767 0.179582,0.03534 0.269374,0.05301 0.209752,0.134241 0.419495,0.268477 0.629242,0.402716 0.609553,0.212333 1.21908,0.424657 1.828621,0.636986 0.806683,0.04488 1.613334,0.08976 2.420001,0.134635 0.129351,-0.03638 0.258696,-0.07276 0.388044,-0.109147 4.252809,-1.883335 8.505447,-3.766596 12.75817,-5.649893 0.09896,-0.0977 0.197925,-0.195405 0.296888,-0.293107 0.161983,-0.178156 0.323959,-0.356306 0.485939,-0.534458 0.139074,-0.240944 0.278143,-0.481877 0.417214,-0.722816 0.0058,-0.06886 0.01162,-0.137724 0.01743,-0.206586 0.0015,-0.439039 0.003,-0.87806 0.0046,-1.31709 -0.05241,-0.152561 -0.104817,-0.305116 -0.157226,-0.457674 -0.170345,-0.292916 -0.340684,-0.585821 -0.511026,-0.878731 -0.380822,-0.316331 -0.76163,-0.63265 -1.142445,-0.948976 -0.710696,-0.249743 -1.421363,-0.499476 -2.132044,-0.749214 -0.471886,-0.05864 -0.943753,-0.117287 -1.41563,-0.17593 -0.986848,0.04657 -1.973657,0.09313 -2.960486,0.139697 -0.937909,0.288288 -1.87578,0.576564 -2.81367,0.864846 -2.39314,1.110996 -4.786185,2.221947 -7.179277,3.332921 -0.369304,0.176397 -0.738594,0.352786 -1.107891,0.529179 -0.02684,-0.04244 -0.05368,-0.08487 -0.08051,-0.127309 0.01196,-0.32151 0.02393,-0.643008 0.03589,-0.964512 0.05767,-1.05517 0.115333,-2.110297 0.173,-3.165446 0.175775,-1.116813 0.351543,-2.233582 0.527314,-3.350373 0.219422,-0.849019 0.438835,-1.698004 0.658253,-2.547006 0.497676,-0.992879 0.995333,-1.985717 1.492999,-2.978576 0.0282,-0.09199 0.0564,-0.183973 0.0846,-0.27596 -0.02675,-0.185676 -0.0535,-0.371346 -0.08025,-0.557019 -0.576276,-0.581598 -1.152529,-1.163173 -1.728793,-1.744759 -0.645962,-0.446446 -1.291899,-0.892873 -1.937848,-1.33931 -0.609767,-0.256162 -1.21951,-0.512315 -1.829264,-0.768473 -0.495025,-0.151263 -0.99003,-0.30252 -1.485045,-0.45378 -0.128707,-0.0038 -0.257409,-0.0077 -0.386114,-0.01154 z" /><path
             id="path3"
             style="fill:#741411;fill-opacity:1;fill-rule:evenodd;stroke-width:4"
             d="m 75.586722,26.662236 c -0.703162,-0.0011 -1.321086,0.03115 -1.808594,0.0625 -0.975014,0.0627 -1.430168,0.12132 -1.658203,0.15039 -0.228035,0.02907 -0.228464,0.02859 -5.914062,1.283203 -5.685599,1.254613 -17.056199,3.763923 -23.03125,5.052735 -5.975051,1.288812 -6.554914,1.358164 -7.074219,1.378906 -0.519304,0.02074 -0.978734,-0.0063 -1.408203,-0.07422 -0.429469,-0.06795 -0.82798,-0.176502 -1.609375,-0.396484 -0.781395,-0.219983 -1.944564,-0.552559 -2.570312,-0.697266 -0.625749,-0.144707 -0.714839,-0.101675 -0.822266,0.01563 -0.107428,0.1173 -0.233336,0.309366 -0.302734,0.451172 -0.0694,0.141806 -0.08134,0.232448 0.105468,0.708984 0.186807,0.476537 0.572249,1.338737 1.03125,2.298829 0.459002,0.960092 0.99027,2.018953 1.509766,2.910156 0.519496,0.891203 1.026003,1.615749 1.541016,2.234375 0.515012,0.618626 1.038269,1.131202 1.427734,1.447265 0.389464,0.316064 0.646146,0.434251 0.869141,0.464844 0.222994,0.03059 0.412228,-0.02729 0.826171,-0.18164 0.413943,-0.154351 1.052134,-0.404062 1.746094,-0.625 0.693961,-0.220939 1.443976,-0.412684 1.898438,-0.525391 0.454461,-0.112707 0.613279,-0.14739 0.660156,-0.06836 0.04688,0.07903 -0.01779,0.271846 -0.06445,0.427734 -0.04666,0.155888 -0.07572,0.275863 -0.0918,0.419922 -0.01607,0.144059 -0.01932,0.311546 0.0059,0.445312 0.02518,0.133766 0.07929,0.234393 0.103516,0.408203 0.02423,0.173811 0.01895,0.420248 0,0.623047 -0.01895,0.2028 -0.05261,0.360207 -0.798828,1.785157 -0.746214,1.424949 -2.20413,4.117653 -3.371094,6.126953 -1.166964,2.0093 -2.041629,3.336304 -3.208984,4.888672 -1.167356,1.552367 -2.628211,3.33137 -3.845703,4.648437 -1.217493,1.317067 -2.192074,2.171911 -2.681641,2.619141 -0.489567,0.44723 -0.494707,0.486732 -0.458984,0.558593 0.03572,0.07186 0.112905,0.175143 0.296875,0.259766 0.183969,0.08462 0.474521,0.150224 1.044921,0.179688 0.570401,0.02946 1.420417,0.02362 2.238282,-0.05273 0.817865,-0.07636 1.603734,-0.223892 2.412109,-0.443359 0.808375,-0.219467 1.639975,-0.511853 2.169922,-0.720703 0.529946,-0.208851 0.758994,-0.333231 0.935547,-0.359375 0.176553,-0.02614 0.298991,0.04712 0.90039,0.601562 0.6014,0.554441 1.681073,1.588806 2.589844,2.521485 0.908771,0.932678 1.646788,1.763318 2.019531,2.251953 0.372743,0.488634 0.381459,0.635736 0.308594,0.871093 -0.07287,0.235358 -0.227525,0.558176 -0.601562,1.195313 -0.374038,0.637136 -0.967835,1.58844 -1.88086,2.875 -0.913024,1.28656 -2.144895,2.90818 -3.482422,4.462891 -1.337527,1.554711 -2.781629,3.042018 -4.523437,4.607421 -1.741808,1.565404 -3.781812,3.210305 -5.455078,4.410157 -1.673266,1.199851 -2.979783,1.95499 -3.615235,2.359375 -0.635451,0.404385 -0.599804,0.456495 -0.52539,0.527343 0.07441,0.07085 0.188741,0.159765 0.353515,0.25 0.164775,0.09024 0.380862,0.183208 0.722657,0.234375 0.341794,0.05117 0.809527,0.06187 1.501953,0.05078 0.692425,-0.01109 1.610362,-0.04367 2.832031,-0.169922 1.221669,-0.126248 2.745707,-0.347351 4.085938,-0.65625 1.34023,-0.3089 2.496318,-0.706727 3.5,-1.144531 1.003681,-0.437805 1.85566,-0.915114 2.554687,-1.332032 0.699027,-0.416918 1.244262,-0.772217 1.808594,-1.228515 0.564331,-0.456299 1.14795,-1.013761 2.11914,-2.0625 0.971191,-1.04874 2.32986,-2.589618 3.652344,-4.173828 1.322484,-1.584211 2.608017,-3.210856 3.322266,-4.06836 0.714249,-0.857503 0.858044,-0.945492 1.023437,-0.982422 0.165394,-0.03693 0.353491,-0.02274 0.603516,0.02344 0.250024,0.04618 0.560619,0.124555 0.945312,0.152344 0.384694,0.02779 0.842953,0.0049 1.210938,-0.08789 0.367985,-0.09274 0.645603,-0.255041 0.867187,-0.431641 0.221585,-0.1766 0.385944,-0.366936 0.525391,-0.548828 0.139447,-0.181892 0.255269,-0.356012 0.34375,-0.558594 0.08848,-0.202581 0.150092,-0.4337 0.185547,-0.804687 0.03545,-0.370987 0.04425,-0.882663 -0.08789,-1.427734 -0.132137,-0.545072 -0.405276,-1.12356 -0.75,-1.710938 -0.344723,-0.587378 -0.760327,-1.183098 -0.984375,-1.509766 -0.224047,-0.326667 -0.256147,-0.384699 -0.263672,-0.492187 -0.0075,-0.107488 0.0081,-0.263222 0.273438,-0.851563 0.265363,-0.58834 0.7803,-1.609934 1.408203,-2.742187 0.627903,-1.132253 1.370018,-2.375055 2.017578,-3.304688 0.64756,-0.929632 1.199911,-1.544893 1.728516,-1.998046 0.528604,-0.453154 1.033232,-0.745011 1.472656,-1.021485 0.439424,-0.276474 0.814053,-0.537319 1.068359,-0.835937 0.254306,-0.298618 0.387055,-0.634311 0.447266,-1.007813 0.06021,-0.373501 0.0488,-0.785451 -0.05859,-1.222656 -0.107389,-0.437205 -0.310626,-0.899463 -0.636718,-1.347656 -0.326093,-0.448194 -0.776203,-0.882534 -1.410157,-1.359375 -0.633953,-0.476841 -1.450762,-0.997084 -2.08789,-1.351563 -0.637128,-0.354478 -1.093568,-0.543856 -1.533203,-0.648437 -0.439636,-0.104582 -0.861797,-0.124059 -1.3125,-0.105469 -0.450704,0.01859 -0.929839,0.07668 -1.34375,0.179687 -0.413912,0.103009 -0.763366,0.251211 -1.054688,0.367188 -0.291322,0.115977 -0.525043,0.199937 -0.712891,0.255859 -0.187848,0.05592 -0.329556,0.08256 -0.59375,0.09766 -0.264194,0.0151 -0.651415,0.01828 -0.835937,-0.0098 -0.184522,-0.02804 -0.167492,-0.08658 0.298828,-0.744141 0.46632,-0.657559 1.382625,-1.915371 1.998047,-2.753906 0.615421,-0.838535 0.93042,-1.257528 1.138672,-1.572266 0.208252,-0.314737 0.310629,-0.524826 0.365234,-0.689453 0.0546,-0.164627 0.06243,-0.283823 0.05859,-0.410156 -0.0038,-0.126333 -0.02114,-0.259209 -0.167969,-0.416016 -0.146829,-0.156806 -0.424282,-0.338354 -1.019531,-0.734375 -0.595249,-0.39602 -1.508284,-1.00729 -2.087891,-1.439453 -0.579607,-0.432162 -0.82424,-0.684892 -1.001953,-0.875 -0.177713,-0.190107 -0.287204,-0.316453 -0.345703,-0.392578 -0.0585,-0.07613 -0.06716,-0.101146 -0.03516,-0.134765 0.03201,-0.03362 0.104618,-0.07592 1.269531,-0.441407 1.164913,-0.365487 3.421678,-1.054909 5.123047,-1.541015 1.701369,-0.486106 2.846807,-0.768613 4.257812,-1.070313 1.411006,-0.3017 3.08835,-0.62181 4.527344,-0.867187 1.438995,-0.245378 2.640305,-0.415919 3.792969,-0.539063 1.152663,-0.123144 2.255848,-0.199137 3.349609,-0.269531 1.093761,-0.07039 2.177819,-0.136293 3.611328,-0.150391 1.433509,-0.0141 3.21597,0.02397 4.664063,0.03516 1.448092,0.01119 2.561161,-0.0041 3.490234,-0.05273 0.929074,-0.0486 1.675609,-0.131317 2.416016,-0.318359 0.740407,-0.187042 1.474887,-0.477979 2.035156,-0.84375 0.56027,-0.365771 0.946297,-0.807043 1.185547,-1.25586 0.23925,-0.448816 0.330951,-0.905723 0.349609,-1.322265 0.01866,-0.416542 -0.03687,-0.791428 -0.300781,-1.291016 -0.263913,-0.499588 -0.736237,-1.124287 -1.449219,-1.71289 -0.712981,-0.588604 -1.666163,-1.1416 -3.058593,-1.658204 -1.39243,-0.516604 -3.22232,-0.996896 -4.884766,-1.203125 -0.831223,-0.103114 -1.621057,-0.137547 -2.324219,-0.138671 z M 47.151175,52.640751 c 0.01641,-0.0026 0.04071,0.0027 0.07813,0.03125 0.07483,0.05711 0.200644,0.203349 0.4375,0.5 0.236856,0.296652 0.583876,0.744224 0.878907,1.15625 0.29503,0.412026 0.53942,0.787482 0.660156,1.097656 0.120736,0.310175 0.117527,0.554235 0.002,1.03125 -0.115574,0.477016 -0.344981,1.186862 -0.789062,2.207032 -0.444082,1.020169 -1.102247,2.350696 -1.632813,3.328125 -0.530566,0.977429 -0.933516,1.602858 -1.15625,1.923828 -0.222734,0.32097 -0.265131,0.337594 -0.388672,0.304687 C 45.117478,64.187923 44.912866,64.10391 44.29766,63.918095 43.682453,63.73228 42.656538,63.44523 41.756644,63.216923 40.85675,62.988616 40.083504,62.819315 39.502738,62.713017 38.921972,62.606718 38.533612,62.563286 38.2918,62.539189 c -0.241812,-0.0241 -0.336355,-0.02756 -0.388671,-0.04102 -0.05232,-0.01346 -0.06168,-0.03755 -0.03906,-0.07422 0.02261,-0.03667 0.07652,-0.08671 0.324219,-0.289062 0.247701,-0.202353 0.688178,-0.555886 1.287109,-1.09961 0.598931,-0.543723 1.356727,-1.278245 2.107422,-2.044921 0.750695,-0.766677 1.494089,-1.565166 2.414063,-2.623047 0.919973,-1.057882 2.016643,-2.373473 2.564453,-3.03125 0.547809,-0.657777 0.547297,-0.658249 0.558593,-0.673828 0.0056,-0.0078 0.01484,-0.01889 0.03125,-0.02148 z" /></g></g></g></g></svg>
