<?xml version="1.0" encoding="UTF-8" standalone="no"?>
<!-- Created with Inkscape (http://www.inkscape.org/) -->

<svg
   width="120"
   height="120"
   viewBox="0 0 120 120"
   version="1.1"
   id="svg1"
   xml:space="preserve"
   inkscape:version="1.4.1 (93de688d07, 2025-03-30)"
   sodipodi:docname="skate3.svg"
   xmlns:inkscape="http://www.inkscape.org/namespaces/inkscape"
   xmlns:sodipodi="http://sodipodi.sourceforge.net/DTD/sodipodi-0.dtd"
   xmlns="http://www.w3.org/2000/svg"
   xmlns:svg="http://www.w3.org/2000/svg"><sodipodi:namedview
     id="namedview1"
     pagecolor="#1f1f1f"
     bordercolor="#000000"
     borderopacity="0.25"
     inkscape:showpageshadow="2"
     inkscape:pageopacity="0.0"
     inkscape:pagecheckerboard="0"
     inkscape:deskcolor="#3c3c3c"
     inkscape:document-units="px"
     inkscape:zoom="5.6568543"
     inkscape:cx="67.440309"
     inkscape:cy="50.116193"
     inkscape:window-width="1660"
     inkscape:window-height="1287"
     inkscape:window-x="0"
     inkscape:window-y="0"
     inkscape:window-maximized="1"
     inkscape:current-layer="layer3" /><defs
     id="defs1"><inkscape:path-effect
       effect="bspline"
       id="path-effect14"
       is_visible="true"
       lpeversion="1.3"
       weight="33.333333"
       steps="2"
       helper_size="0"
       apply_no_weight="true"
       apply_with_weight="true"
       only_selected="false"
       uniform="false" /><inkscape:path-effect
       effect="fillet_chamfer"
       id="path-effect5"
       is_visible="true"
       lpeversion="1"
       nodesatellites_param="F,0,0,1,0,37.022737,0,1 @ F,0,0,1,0,36.062445,0,1 @ F,0,0,1,0,35.528974,0,1 @ F,0,0,1,0,28.991378,0,1"
       radius="0"
       unit="px"
       method="auto"
       mode="F"
       chamfer_steps="1"
       flexible="false"
       use_knot_distance="true"
       apply_no_radius="true"
       apply_with_radius="true"
       only_selected="false"
       hide_knots="false" /><inkscape:path-effect
       effect="bspline"
       id="path-effect4"
       is_visible="true"
       lpeversion="1.3"
       weight="33.333333"
       steps="2"
       helper_size="0"
       apply_no_weight="true"
       apply_with_weight="true"
       only_selected="false"
       uniform="false" /><inkscape:path-effect
       effect="bspline"
       id="path-effect3"
       is_visible="true"
       lpeversion="1.3"
       weight="33.333333"
       steps="2"
       helper_size="0"
       apply_no_weight="true"
       apply_with_weight="true"
       only_selected="false"
       uniform="false" /><inkscape:path-effect
       effect="mirror_symmetry"
       start_point="59.977887,81.781355"
       end_point="59.977887,112.27285"
       center_point="59.977887,97.027103"
       id="path-effect9"
       is_visible="true"
       lpeversion="1.2"
       lpesatellites=""
       mode="free"
       discard_orig_path="false"
       fuse_paths="false"
       oposite_fuse="false"
       split_items="false"
       split_open="false"
       link_styles="false" /><inkscape:path-effect
       effect="mirror_symmetry"
       start_point="59.944658,10.409945"
       end_point="59.944658,50.039614"
       center_point="59.944658,30.22478"
       id="path-effect2"
       is_visible="true"
       lpeversion="1.2"
       lpesatellites=""
       mode="free"
       discard_orig_path="false"
       fuse_paths="false"
       oposite_fuse="false"
       split_items="false"
       split_open="false"
       link_styles="false" /><inkscape:path-effect
       effect="mirror_symmetry"
       start_point="59.948435,66.805114"
       end_point="59.948435,107.38004"
       center_point="59.948435,87.092577"
       id="path-effect8"
       is_visible="true"
       lpeversion="1.2"
       lpesatellites=""
       mode="free"
       discard_orig_path="false"
       fuse_paths="false"
       oposite_fuse="false"
       split_items="false"
       split_open="false"
       link_styles="false" /><inkscape:path-effect
       effect="mirror_symmetry"
       start_point="60.801511,9.4541705"
       end_point="60.801511,40.169132"
       center_point="60.801511,24.811651"
       id="path-effect7"
       is_visible="true"
       lpeversion="1.2"
       lpesatellites=""
       mode="free"
       discard_orig_path="false"
       fuse_paths="false"
       oposite_fuse="false"
       split_items="false"
       split_open="false"
       link_styles="false" /><inkscape:path-effect
       effect="fillet_chamfer"
       id="path-effect13"
       is_visible="true"
       lpeversion="1"
       nodesatellites_param="F,0,0,1,0,4.7467821,0,1 @ F,0,0,1,0,4.0515277,0,1 @ F,0,0,1,0,0,0,1 @ F,0,0,1,0,2.4219461,0,1 @ F,0,0,1,0,2.4960577,0,1 @ F,0,0,1,0,0,0,1 @ F,0,0,1,0,4.1062831,0,1"
       radius="0"
       unit="px"
       method="auto"
       mode="F"
       chamfer_steps="1"
       flexible="false"
       use_knot_distance="true"
       apply_no_radius="true"
       apply_with_radius="true"
       only_selected="false"
       hide_knots="false" /><inkscape:path-effect
       effect="fillet_chamfer"
       id="path-effect12"
       is_visible="true"
       lpeversion="1"
       nodesatellites_param="F,0,0,1,0,0,0,1 @ F,0,0,1,0,0,0,1 @ F,0,0,1,0,0,0,1 @ F,0,0,1,0,0,0,1 @ F,0,0,1,0,3.627665,0,1 @ F,0,0,1,0,0,0,1 @ F,0,0,1,0,0,0,1"
       radius="0"
       unit="px"
       method="auto"
       mode="F"
       chamfer_steps="1"
       flexible="false"
       use_knot_distance="true"
       apply_no_radius="true"
       apply_with_radius="true"
       only_selected="false"
       hide_knots="false" /><inkscape:path-effect
       effect="fillet_chamfer"
       id="path-effect11"
       is_visible="true"
       lpeversion="1"
       nodesatellites_param="F,0,0,1,0,2.9729248,0,1 @ F,0,0,1,0,3.8975858,0,1 @ F,0,0,1,0,0,0,1 @ F,0,1,1,0,3.784373,0,1 @ F,0,0,1,0,1.4792147,0,1 @ F,0,0,1,0,0,0,1 @ F,0,0,1,0,3.784373,0,1"
       radius="0"
       unit="px"
       method="auto"
       mode="F"
       chamfer_steps="1"
       flexible="false"
       use_knot_distance="true"
       apply_no_radius="true"
       apply_with_radius="true"
       only_selected="false"
       hide_knots="false" /><linearGradient
       id="linearGradient6"><stop
         style="stop-color:#c88500;stop-opacity:1;"
         offset="0.07163448"
         id="stop8" /><stop
         style="stop-color:#fff300;stop-opacity:1;"
         offset="1"
         id="stop9" /></linearGradient><linearGradient
       id="linearGradient6-1"><stop
         style="stop-color:#c88500;stop-opacity:1;"
         offset="0"
         id="stop6" /><stop
         style="stop-color:#fff300;stop-opacity:1;"
         offset="1"
         id="stop7" /></linearGradient><inkscape:path-effect
       effect="fillet_chamfer"
       id="path-effect1"
       is_visible="true"
       lpeversion="1"
       nodesatellites_param="F,0,0,1,0,24.536157,0,1 @ F,0,0,1,0,24.004899,0,1 @ F,0,0,1,0,23.651152,0,1 @ F,0,0,1,0,24.380791,0,1"
       radius="0"
       unit="px"
       method="auto"
       mode="F"
       chamfer_steps="1"
       flexible="false"
       use_knot_distance="true"
       apply_no_radius="true"
       apply_with_radius="true"
       only_selected="false"
       hide_knots="false" /><linearGradient
       id="a"
       x1="7.937"
       x2="7.937"
       y1="15.081"
       y2="1.852"
       gradientTransform="scale(3.7796)"
       gradientUnits="userSpaceOnUse"><stop
         offset="0"
         stop-color="#9b6f27"
         id="stop1" /><stop
         offset="1"
         stop-color="#d0ab6a"
         id="stop2" /></linearGradient><filter
       id="b"
       width="1.216"
       height="1.216"
       x="-0.108"
       y="-0.108"
       color-interpolation-filters="sRGB"><feGaussianBlur
         stdDeviation="1.35"
         id="feGaussianBlur2" /></filter><linearGradient
       id="linearGradient31"
       x1=".5002"
       x2=".5002"
       y2="1"
       gradientTransform="matrix(244,0,0,228,5.986,12)"
       gradientUnits="userSpaceOnUse"><stop
         stop-color="#ebdbb2"
         stop-opacity=".2"
         offset="0"
         id="stop1-5" /><stop
         stop-color="#ebdbb2"
         stop-opacity=".05"
         offset=".1"
         id="stop2-6" /><stop
         stop-opacity="0"
         offset=".7036"
         id="stop3" /><stop
         stop-opacity=".1"
         offset=".8975"
         id="stop4" /><stop
         stop-opacity=".2"
         offset="1"
         id="stop5" /></linearGradient><inkscape:path-effect
       effect="bspline"
       id="path-effect15"
       is_visible="true"
       lpeversion="1.3"
       weight="33.333333"
       steps="2"
       helper_size="0"
       apply_no_weight="true"
       apply_with_weight="true"
       only_selected="false"
       uniform="false" /><inkscape:path-effect
       effect="bspline"
       id="path-effect14-3"
       is_visible="true"
       lpeversion="1.3"
       weight="33.333333"
       steps="2"
       helper_size="0"
       apply_no_weight="true"
       apply_with_weight="true"
       only_selected="false"
       uniform="false" /><inkscape:path-effect
       effect="bspline"
       id="path-effect10"
       is_visible="true"
       lpeversion="1.3"
       weight="33.333333"
       steps="2"
       helper_size="0"
       apply_no_weight="true"
       apply_with_weight="true"
       only_selected="false"
       uniform="false" /><inkscape:path-effect
       effect="bspline"
       id="path-effect6"
       is_visible="true"
       lpeversion="1.3"
       weight="33.333333"
       steps="2"
       helper_size="0"
       apply_no_weight="true"
       apply_with_weight="true"
       only_selected="false"
       uniform="false" /><inkscape:path-effect
       effect="bspline"
       id="path-effect5-8"
       is_visible="true"
       lpeversion="1.3"
       weight="33.333333"
       steps="2"
       helper_size="0"
       apply_no_weight="true"
       apply_with_weight="true"
       only_selected="false"
       uniform="false" /><inkscape:path-effect
       effect="bspline"
       id="path-effect4-0"
       is_visible="true"
       lpeversion="1.3"
       weight="33.333333"
       steps="2"
       helper_size="0"
       apply_no_weight="true"
       apply_with_weight="true"
       only_selected="false"
       uniform="false" /><inkscape:path-effect
       effect="bspline"
       id="path-effect3-5"
       is_visible="true"
       lpeversion="1.3"
       weight="33.333333"
       steps="2"
       helper_size="0"
       apply_no_weight="true"
       apply_with_weight="true"
       only_selected="false"
       uniform="false" /><inkscape:path-effect
       effect="mirror_symmetry"
       start_point="59.977887,81.781355"
       end_point="59.977887,112.27285"
       center_point="59.977887,97.027103"
       id="path-effect9-6"
       is_visible="true"
       lpeversion="1.2"
       lpesatellites=""
       mode="free"
       discard_orig_path="false"
       fuse_paths="false"
       oposite_fuse="false"
       split_items="false"
       split_open="false"
       link_styles="false" /><inkscape:path-effect
       effect="mirror_symmetry"
       start_point="59.944658,10.409945"
       end_point="59.944658,50.039614"
       center_point="59.944658,30.22478"
       id="path-effect2-6"
       is_visible="true"
       lpeversion="1.2"
       lpesatellites=""
       mode="free"
       discard_orig_path="false"
       fuse_paths="false"
       oposite_fuse="false"
       split_items="false"
       split_open="false"
       link_styles="false" /><inkscape:path-effect
       effect="mirror_symmetry"
       start_point="59.948435,66.805114"
       end_point="59.948435,107.38004"
       center_point="59.948435,87.092577"
       id="path-effect8-4"
       is_visible="true"
       lpeversion="1.2"
       lpesatellites=""
       mode="free"
       discard_orig_path="false"
       fuse_paths="false"
       oposite_fuse="false"
       split_items="false"
       split_open="false"
       link_styles="false" /><inkscape:path-effect
       effect="mirror_symmetry"
       start_point="60.801511,9.4541705"
       end_point="60.801511,40.169132"
       center_point="60.801511,24.811651"
       id="path-effect7-0"
       is_visible="true"
       lpeversion="1.2"
       lpesatellites=""
       mode="free"
       discard_orig_path="false"
       fuse_paths="false"
       oposite_fuse="false"
       split_items="false"
       split_open="false"
       link_styles="false" /><inkscape:path-effect
       effect="fillet_chamfer"
       id="path-effect13-0"
       is_visible="true"
       lpeversion="1"
       nodesatellites_param="F,0,0,1,0,4.7467821,0,1 @ F,0,0,1,0,4.0515277,0,1 @ F,0,0,1,0,0,0,1 @ F,0,0,1,0,2.4219461,0,1 @ F,0,0,1,0,2.4960577,0,1 @ F,0,0,1,0,0,0,1 @ F,0,0,1,0,4.1062831,0,1"
       radius="0"
       unit="px"
       method="auto"
       mode="F"
       chamfer_steps="1"
       flexible="false"
       use_knot_distance="true"
       apply_no_radius="true"
       apply_with_radius="true"
       only_selected="false"
       hide_knots="false" /><inkscape:path-effect
       effect="fillet_chamfer"
       id="path-effect12-4"
       is_visible="true"
       lpeversion="1"
       nodesatellites_param="F,0,0,1,0,0,0,1 @ F,0,0,1,0,0,0,1 @ F,0,0,1,0,0,0,1 @ F,0,0,1,0,0,0,1 @ F,0,0,1,0,3.627665,0,1 @ F,0,0,1,0,0,0,1 @ F,0,0,1,0,0,0,1"
       radius="0"
       unit="px"
       method="auto"
       mode="F"
       chamfer_steps="1"
       flexible="false"
       use_knot_distance="true"
       apply_no_radius="true"
       apply_with_radius="true"
       only_selected="false"
       hide_knots="false" /><inkscape:path-effect
       effect="fillet_chamfer"
       id="path-effect11-6"
       is_visible="true"
       lpeversion="1"
       nodesatellites_param="F,0,0,1,0,2.9729248,0,1 @ F,0,0,1,0,3.8975858,0,1 @ F,0,0,1,0,0,0,1 @ F,0,1,1,0,3.784373,0,1 @ F,0,0,1,0,1.4792147,0,1 @ F,0,0,1,0,0,0,1 @ F,0,0,1,0,3.784373,0,1"
       radius="0"
       unit="px"
       method="auto"
       mode="F"
       chamfer_steps="1"
       flexible="false"
       use_knot_distance="true"
       apply_no_radius="true"
       apply_with_radius="true"
       only_selected="false"
       hide_knots="false" /><inkscape:path-effect
       effect="fillet_chamfer"
       id="path-effect1-6"
       is_visible="true"
       lpeversion="1"
       nodesatellites_param="F,0,0,1,0,24.536157,0,1 @ F,0,0,1,0,24.004899,0,1 @ F,0,0,1,0,23.651152,0,1 @ F,0,0,1,0,24.380791,0,1"
       radius="0"
       unit="px"
       method="auto"
       mode="F"
       chamfer_steps="1"
       flexible="false"
       use_knot_distance="true"
       apply_no_radius="true"
       apply_with_radius="true"
       only_selected="false"
       hide_knots="false" /><filter
       id="b-7"
       width="1.216"
       height="1.216"
       x="-0.108"
       y="-0.108"
       color-interpolation-filters="sRGB"><feGaussianBlur
         stdDeviation="1.35"
         id="feGaussianBlur2-2" /></filter></defs><g
     inkscape:groupmode="layer"
     id="layer3"
     inkscape:label="base"><path
       d="m 76.476937,9.2332248 c 32.063223,0 37.852423,6.6798392 37.852423,38.7430672 v 24.938066 c 0,31.172592 -5.7892,37.852422 -37.852423,37.852422 H 43.523063 c -32.063227,0 -37.8524214,-6.67983 -37.8524214,-37.852422 V 47.976292 c 0,-32.063228 5.7891944,-38.7430672 37.8524214,-38.7430672 z"
       fill="#ebdbb2"
       style="display:inline;opacity:1;isolation:isolate;stroke-width:0.445323;fill:#3e3834;fill-opacity:1"
       id="path5" /><g
       id="g1"
       transform="matrix(0.86819576,0,0,0.86819576,7.7033908,8.0592246)"><g
         id="layer2"
         inkscape:label="Layer 2"
         style="opacity:1"><path
           style="opacity:1;fill:#eeeeee;fill-opacity:0;stroke-width:0.965576"
           id="rect1"
           width="104.6141"
           height="104.75148"
           x="7.5219741"
           y="7.4503703"
           inkscape:path-effect="#path-effect1-6"
           sodipodi:type="rect"
           d="M 32.058131,7.4503703 H 88.131173 A 24.004899,24.004899 45 0 1 112.13607,31.455269 V 88.550698 A 23.651152,23.651152 135 0 1 88.48492,112.20185 H 31.902765 A 24.380791,24.380791 45 0 1 7.5219741,87.821059 V 31.986527 A 24.536157,24.536157 135 0 1 32.058131,7.4503703 Z"
           transform="translate(0.40694183)" /></g><g
         id="layer1"
         inkscape:label="Layer 3"
         transform="matrix(1.1509395,0,0,1.1509395,-3.5910442,-10.174694)"><g
           id="g15"><path
             style="opacity:1;fill:#d65d0e;fill-opacity:1;stroke-width:5"
             d="m 4.8822397,62.936538 c -0.017604,4.593073 -0.026064,13.645526 -0.021834,18.214053 0.00423,4.568527 0.021151,4.653132 3.1938033,7.834243 3.1726519,3.181112 9.5007839,9.458482 12.7706659,12.639536 3.269882,3.18104 3.481387,3.26565 3.659052,3.26565 0.177664,0 0.321489,-0.0846 0.446728,-0.69798 0.125239,-0.61338 0.23189,-1.7555 0.285216,-9.481902 0.05333,-7.726403 0.05333,-22.036513 -0.01248,-29.221622 -0.06581,-7.185109 -0.197415,-7.244932 -0.562341,-7.274843 -0.364926,-0.02991 -0.963143,-0.02991 -4.283374,-0.04786 -3.320232,-0.01795 -9.362225,-0.05384 -12.3966557,-0.0049 -3.0344306,0.0489 -3.061177,0.182591 -3.0787806,4.775664 z"
             id="path1"
             inkscape:path-effect="#path-effect5-8"
             inkscape:original-d="m 4.8730965,58.477157 c -0.00846,9.052454 -0.016921,18.104907 -0.025381,27.157361 0.016921,0.0846 0.033841,0.169205 0.050762,0.253807 6.3283835,6.277621 12.6565145,12.554992 18.9847715,18.832485 0.21151,0.0846 0.423012,0.16921 0.634518,0.25381 0.143826,-0.0846 0.287648,-0.16921 0.431472,-0.25381 0.106654,-1.14215 0.213306,-2.28427 0.319958,-3.42639 -0.145622,-14.310685 -0.07281,-28.620795 0,-42.93119 -0.131613,-0.05982 -0.263221,-0.119646 -0.394832,-0.179469 -0.598241,0 -1.196458,0 -1.794687,0 -6.042234,-0.03589 -12.084227,-0.07179 -18.1263409,-0.107681 -0.026747,0.133695 -0.053494,0.267385 -0.080241,0.401077 z"
             transform="matrix(0.7544389,0,0,0.7544389,6.8785419,-8.4651219)" /><path
             style="opacity:1;fill:#d65d0e;fill-opacity:1;stroke-width:5"
             d="m 4.9234254,112.28162 c 0.041876,2.59033 0.125628,7.77099 0.1813261,10.36133 0.055698,2.59033 0.083341,2.59033 0.1331191,2.59033 0.049778,0 0.1216891,0 2.7634502,0 2.6417612,0 7.8531632,0 10.4652612,-0.0135 2.612098,-0.0135 2.624788,-0.0405 2.442889,-0.26551 -0.1819,-0.22501 -0.558372,-0.64801 -3.164961,-3.33108 -2.60659,-2.68307 -7.443088,-7.62599 -9.8868174,-10.09152 -2.4437297,-2.46553 -2.4945628,-2.45357 -2.563365,-2.41319 -0.068802,0.0404 -0.1555427,0.10918 -0.2273307,0.20938 -0.071788,0.10021 -0.1286184,0.23182 -0.1570336,0.29762 -0.028415,0.0658 -0.028414,0.0658 0.013462,2.65614 z"
             id="path6"
             inkscape:path-effect="#path-effect6"
             inkscape:original-d="m 4.8815494,109.69129 c 0.083752,5.18066 0.1675041,10.36132 0.2512562,15.54199 0.027644,0 0.055287,0 0.08293,0 0.071913,0 0.1438241,0 0.2157361,0 5.2116103,0 10.4230123,0 15.6345183,0 0.01269,-0.027 0.02538,-0.054 0.03807,-0.081 -0.376488,-0.42302 -0.752961,-0.84602 -1.129442,-1.26903 -4.836695,-4.94313 -9.673197,-9.88605 -14.5097967,-14.82908 -0.050851,0.012 -0.1016989,0.0239 -0.1525484,0.0359 -0.086745,0.0688 -0.1734864,0.13759 -0.2602296,0.20638 -0.056833,0.13162 -0.1136636,0.26323 -0.1704953,0.39484 z"
             transform="matrix(0.7544389,0,0,0.7544389,6.8785419,-8.4651219)" /><path
             style="opacity:1;fill:#d65d0e;fill-opacity:1;stroke-width:5"
             d="m 60.329949,112.20389 c 0,2.66075 0,7.98224 -0.02539,10.66837 -0.02539,2.68613 -0.07613,2.73688 -0.245334,2.76649 -0.1692,0.0296 -0.456858,0.0381 -3.159954,0.0423 -2.703096,0.004 -7.821437,0.004 -10.422958,-0.0381 -2.601522,-0.0423 -2.686128,-0.12691 -2.686127,-0.28765 1e-6,-0.16075 0.0846,-0.39763 2.813082,-3.14303 2.72848,-2.7454 8.100622,-7.9991 10.816354,-10.63447 2.715731,-2.63537 2.774946,-2.6523 2.817256,-2.55502 0.04231,0.0973 0.06769,0.30879 0.08038,0.41455 0.01269,0.10575 0.01269,0.10577 0.01269,2.76651 z"
             id="path7"
             inkscape:path-effect="#path-effect10"
             inkscape:original-d="m 60.329949,109.54315 c 0,5.32149 0,10.64298 0,15.96446 -0.05076,0.0508 -0.101523,0.10153 -0.152284,0.15229 -0.287654,0.008 -0.575299,0.0169 -0.862944,0.0254 -5.118546,0.11844 -10.236887,0.0592 -15.35533,0 -0.0846,-0.0846 -0.169205,-0.16921 -0.253807,-0.25381 0.0846,-0.23689 0.169205,-0.47377 0.253807,-0.71066 5.372358,-5.25391 10.744501,-10.50761 16.116751,-15.76142 0.05922,-0.0169 0.118444,-0.0338 0.177665,-0.0508 0.02538,0.21151 0.05076,0.42301 0.07614,0.63452 z"
             transform="matrix(0.7544389,0,0,0.7544389,6.8785419,-8.4651219)" /><path
             style="opacity:1;fill:#d65d0e;fill-opacity:1;stroke-width:5"
             d="m 40.595826,66.529057 c 0,7.591527 0,22.774581 0.04785,30.396016 0.04785,7.621437 0.143581,7.681267 1.011029,6.993287 0.867448,-0.68798 2.506562,-2.1237 5.599452,-5.126855 3.092889,-3.003156 7.63934,-7.573534 10.008329,-9.96047 2.368989,-2.386936 2.560419,-2.59033 2.709977,-2.829624 0.149558,-0.239294 0.257237,-0.514474 0.287149,-5.079051 0.02991,-4.564576 -0.01795,-13.41819 -0.05982,-17.880979 -0.04188,-4.462789 -0.07777,-4.534577 -0.388855,-4.61833 -0.311085,-0.08375 -0.897337,-0.179467 -3.086893,-0.21536 -2.189557,-0.03589 -5.982254,-0.01196 -8.54867,1e-6 -2.566416,0.01196 -3.906423,0.01196 -4.935384,0.01196 -1.028961,0 -1.746821,0 -2.135668,0.02991 -0.388848,0.02991 -0.448674,0.08974 -0.478585,0.209383 -0.02991,0.119648 -0.02991,0.299113 -0.02991,0.388847 0,0.08973 0,0.08973 0,7.68126 z"
             id="path10"
             inkscape:path-effect="#path-effect14-3"
             inkscape:original-d="m 40.595826,58.93753 c 0,15.183054 0,30.366108 0,45.54916 0.09572,0.0598 0.191433,0.11965 0.28715,0.17947 1.63918,-1.43578 3.278295,-2.8715 4.917443,-4.30725 4.546632,-4.57056 9.093082,-9.140939 13.639623,-13.711409 0.191437,-0.203402 0.382867,-0.406796 0.5743,-0.610194 0.107683,-0.27519 0.215363,-0.55037 0.323044,-0.825556 -0.04786,-8.853967 -0.09572,-17.707581 -0.143575,-26.561371 -0.03589,-0.07179 -0.07179,-0.143575 -0.107681,-0.215363 -0.586277,-0.09572 -1.172529,-0.191433 -1.758794,-0.28715 -3.792848,0.02393 -7.585545,0.04786 -11.378317,0.07179 -1.34006,0 -2.680067,0 -4.0201,0 -0.717889,0 -1.435749,0 -2.153624,0 -0.05982,0.05982 -0.119646,0.119646 -0.179469,0.179469 0,0.179472 0,0.358937 0,0.538406 z"
             transform="matrix(0.7544389,0,0,0.7544389,6.8785419,-8.4651219)" /><path
             style="opacity:1;fill:#ebdbb2;fill-opacity:1;stroke-width:5"
             d="m 76.641287,58.57868 c 8.011844,0 24.035533,0 32.148903,0.05076 8.11337,0.05076 8.31641,0.152284 8.75635,0.651448 0.43994,0.499164 1.11674,1.395928 1.83587,2.580376 0.71913,1.184449 1.48054,2.656497 2.05584,3.874781 0.5753,1.218283 0.96446,2.182734 1.25211,3.3418 0.28765,1.159066 0.47377,2.512677 0.54991,5.321518 0.0761,2.808841 0.0423,7.072715 -0.16075,9.949211 -0.20305,2.876496 -0.57529,4.365467 -0.956,5.304558 -0.38072,0.93909 -0.76988,1.328253 -0.98985,1.700509 -0.21997,0.372256 -0.27073,0.727574 -0.20304,1.040606 0.0677,0.313031 0.2538,0.583752 0.52453,1.023691 0.27074,0.43994 0.62606,1.049064 0.90525,1.607445 0.27919,0.558381 0.48223,1.065984 0.64298,1.92894 0.16075,0.862956 0.27919,2.081206 0.33841,4.915434 0.0592,2.83422 0.0592,7.28422 -0.14383,10.01688 -0.20305,2.73267 -0.60914,3.74788 -1.25212,5.11 -0.64299,1.36211 -1.52284,3.07104 -2.39425,4.58544 -0.87141,1.51439 -1.73434,2.83416 -2.3181,3.54482 -0.58376,0.71067 -0.88832,0.81219 -8.98493,0.81219 -8.0966,-10e-6 -23.984611,-0.10153 -32.013378,-0.15229 -8.028766,-0.0508 -8.197967,-0.0508 -8.28257,-0.12691 -0.0846,-0.0761 -0.0846,-0.22842 -0.101523,-2.69885 -0.01692,-2.47044 -0.05076,-7.25884 -0.07614,-9.83075 -0.02538,-2.57192 -0.0423,-2.92724 0.270736,-3.07106 0.313037,-0.14383 0.956,-0.0761 3.959438,-0.0169 3.003438,0.0592 8.36712,0.10999 14.348573,0.13537 5.981454,0.0254 12.580307,0.0254 15.972866,-0.0254 3.39255,-0.0508 3.57868,-0.15229 3.89171,-0.4484 0.31303,-0.29612 0.75296,-0.7868 1.05753,-1.48055 0.30457,-0.69375 0.47377,-1.59051 0.52453,-2.61421 0.0508,-1.0237 -0.0169,-2.17427 -0.17767,-3.01184 -0.16074,-0.83757 -0.41455,-1.3621 -0.72758,-1.81049 -0.31303,-0.4484 -0.68528,-0.820641 -1.24366,-1.09983 -0.55838,-0.279189 -1.30287,-0.465312 -5.17773,-0.516072 -3.874854,-0.05076 -10.87979,0.03384 -14.746126,0.02538 -3.866335,-0.0085 -4.593901,-0.109981 -5.380712,-0.51608 -0.78681,-0.406098 -1.632817,-1.116744 -2.267339,-1.793569 -0.634522,-0.676826 -1.057525,-1.319791 -1.277491,-2.115063 -0.219966,-0.795272 -0.236886,-1.742799 -0.194583,-2.825722 0.0423,-1.082922 0.143823,-2.301172 0.397634,-3.13874 0.253811,-0.837568 0.659895,-1.294412 1.074451,-1.785111 0.414556,-0.490698 0.837559,-1.015223 1.345179,-1.463619 0.50762,-0.448396 1.099825,-0.820639 1.658205,-1.032146 0.558381,-0.211506 1.082906,-0.262267 3.646404,-0.304568 2.563497,-0.0423 7.165774,-0.07614 10.998292,-0.09306 3.832518,-0.01692 6.895056,-0.01692 8.688636,-0.186128 1.79357,-0.169207 2.3181,-0.507613 2.63959,-1.108298 0.32149,-0.600686 0.43993,-1.463612 0.47377,-2.597298 0.0338,-1.133686 -0.0169,-2.538056 -0.14383,-3.468687 -0.1269,-0.930631 -0.32994,-1.387473 -0.55837,-1.793568 -0.22843,-0.406095 -0.48223,-0.761417 -0.82911,-0.981385 -0.34687,-0.219967 -0.78679,-0.304567 -4.62781,-0.313028 -3.841021,-0.0085 -11.082839,0.05922 -17.250402,0.109983 -6.167564,0.05076 -11.260525,0.0846 -13.820702,0.05059 -2.560176,-0.03401 -2.587466,-0.13586 -2.601111,-0.761589 -0.01364,-0.625729 -0.01364,-1.775286 0.0031,-4.249492 0.01679,-2.474206 0.05036,-6.272884 0.109016,-8.190208 0.05866,-1.917323 0.142416,-1.953219 0.283101,-1.983116 0.140686,-0.0299 0.338298,-0.0538 0.437106,-0.06575 0.09881,-0.01195 0.0988,-0.01195 8.110648,-0.01195 z"
             id="path14"
             inkscape:path-effect="#path-effect15"
             inkscape:original-d="m 68.629442,58.57868 c 16.023689,0 32.047378,0 48.071068,0 0.20305,0.101525 0.40609,0.203046 0.60913,0.304569 0.67684,0.896803 1.35364,1.79357 2.03046,2.690355 0.76144,1.472111 1.52284,2.944163 2.28427,4.416244 0.38917,0.964486 0.77834,1.928934 1.16751,2.893401 0.18613,1.353665 0.37225,2.707276 0.55837,4.060913 -0.0338,4.264045 -0.0677,8.527919 -0.10152,12.791879 -0.37226,1.489031 -0.7445,2.978003 -1.11675,4.467005 -0.38918,0.389178 -0.77834,0.778342 -1.16751,1.167512 -0.0508,0.355337 -0.10153,0.71066 -0.15229,1.06599 0.18613,0.270733 0.37225,0.541455 0.55838,0.812183 0.35534,0.609149 0.71066,1.218274 1.06599,1.827411 0.20305,0.507625 0.40609,1.015229 0.60914,1.522843 0.11844,1.218298 0.23688,2.436548 0.35533,3.654825 0,4.45017 0,8.90017 0,13.35025 -0.4061,1.01525 -0.81219,2.03046 -1.21828,3.04569 -0.87988,1.709 -1.75973,3.41793 -2.63959,5.1269 -0.86296,1.31982 -1.72589,2.63959 -2.58884,3.95939 -0.30457,0.10153 -0.60913,0.20305 -0.9137,0.30457 -15.88864,-0.10153 -31.776651,-0.20305 -47.664975,-0.30457 -0.169209,0 -0.33841,0 -0.507615,0 0,-0.15229 0,-0.30457 0,-0.45685 -0.03384,-4.78859 -0.06768,-9.57699 -0.101523,-14.36548 -0.01692,-0.35534 -0.03384,-0.71066 -0.05076,-1.06599 0.642991,0.0677 1.285956,0.13536 1.928934,0.20304 5.363898,0.0508 10.72758,0.10152 16.091371,0.15229 6.599116,0 13.197969,0 19.796948,0 0.18613,-0.10153 0.37226,-0.20305 0.55838,-0.30457 0.43994,-0.49071 0.87987,-0.98139 1.3198,-1.47208 0.16921,-0.89681 0.33841,-1.79357 0.50761,-2.69036 -0.0677,-1.15061 -0.13536,-2.30118 -0.20304,-3.45178 -0.25382,-0.52454 -0.50762,-1.04907 -0.76143,-1.5736 -0.37225,-0.37226 -0.7445,-0.744501 -1.11675,-1.116751 -0.74451,-0.186129 -1.489,-0.372251 -2.2335,-0.558376 -7.005214,0.0846 -14.01015,0.169205 -21.015226,0.253807 -0.727595,-0.101525 -1.455161,-0.203046 -2.182742,-0.304568 -0.84604,-0.710674 -1.692047,-1.42132 -2.538071,-2.13198 -0.42302,-0.642991 -0.846023,-1.285956 -1.269035,-1.928934 -0.01692,-0.947566 -0.03384,-1.895093 -0.05076,-2.84264 0.101525,-1.218298 0.203046,-2.436548 0.304569,-3.654822 0.406099,-0.456862 0.812183,-0.913706 1.218274,-1.370558 0.42302,-0.524546 0.846024,-1.04907 1.269036,-1.573604 0.592228,-0.372258 1.184433,-0.744501 1.776649,-1.116752 0.524545,-0.05076 1.04907,-0.101523 1.573604,-0.152284 4.602461,-0.03384 9.204738,-0.06768 13.807107,-0.101523 3.062667,0 6.125205,0 9.187815,0 0.52454,-0.338416 1.04907,-0.676819 1.5736,-1.015228 0.11845,-0.862962 0.23689,-1.725889 0.35533,-2.588833 -0.0508,-1.404427 -0.10152,-2.808798 -0.15228,-4.213198 -0.20305,-0.456862 -0.40609,-0.913705 -0.60914,-1.370558 -0.25381,-0.355337 -0.50761,-0.71066 -0.76142,-1.06599 -0.43994,-0.0846 -0.87986,-0.169205 -1.3198,-0.253807 -7.242101,0.06768 -14.483919,0.135364 -21.725882,0.203046 -5.093164,0.03384 -10.186125,0.06768 -15.279188,0.101522 -0.02729,-0.101856 -0.05458,-0.203708 -0.08187,-0.305563 0,-1.149603 0,-2.29916 0,-3.448741 0.03357,-3.798831 0.06714,-7.597509 0.100713,-11.396264 0.08375,-0.03589 0.167504,-0.07179 0.251256,-0.107681 0.19762,-0.0239 0.395232,-0.0478 0.592848,-0.0717 z"
             transform="matrix(0.7544389,0,0,0.7544389,6.8785419,-8.4651219)" /></g></g></g></g></svg>
