<?xml version="1.0" encoding="UTF-8" standalone="no"?>
<!-- Created with Inkscape (http://www.inkscape.org/) -->

<svg
   width="120"
   height="120"
   viewBox="0 0 120 120"
   version="1.1"
   id="svg1"
   xml:space="preserve"
   inkscape:version="1.4.2 (ebf0e940d0, 2025-05-08)"
   sodipodi:docname="spider.svg"
   xmlns:inkscape="http://www.inkscape.org/namespaces/inkscape"
   xmlns:sodipodi="http://sodipodi.sourceforge.net/DTD/sodipodi-0.dtd"
   xmlns="http://www.w3.org/2000/svg"
   xmlns:svg="http://www.w3.org/2000/svg"><sodipodi:namedview
     id="namedview1"
     pagecolor="#1f1f1f"
     bordercolor="#000000"
     borderopacity="0.25"
     inkscape:showpageshadow="2"
     inkscape:pageopacity="0.0"
     inkscape:pagecheckerboard="0"
     inkscape:deskcolor="#3c3c3c"
     inkscape:document-units="px"
     inkscape:zoom="4"
     inkscape:cx="69.124999"
     inkscape:cy="48.125"
     inkscape:window-width="1660"
     inkscape:window-height="1287"
     inkscape:window-x="0"
     inkscape:window-y="0"
     inkscape:window-maximized="1"
     inkscape:current-layer="layer3" /><defs
     id="defs1"><inkscape:path-effect
       effect="bspline"
       id="path-effect14"
       is_visible="true"
       lpeversion="1.3"
       weight="33.333333"
       steps="2"
       helper_size="0"
       apply_no_weight="true"
       apply_with_weight="true"
       only_selected="false"
       uniform="false" /><inkscape:path-effect
       effect="fillet_chamfer"
       id="path-effect5"
       is_visible="true"
       lpeversion="1"
       nodesatellites_param="F,0,0,1,0,37.022737,0,1 @ F,0,0,1,0,36.062445,0,1 @ F,0,0,1,0,35.528974,0,1 @ F,0,0,1,0,28.991378,0,1"
       radius="0"
       unit="px"
       method="auto"
       mode="F"
       chamfer_steps="1"
       flexible="false"
       use_knot_distance="true"
       apply_no_radius="true"
       apply_with_radius="true"
       only_selected="false"
       hide_knots="false" /><inkscape:path-effect
       effect="bspline"
       id="path-effect4"
       is_visible="true"
       lpeversion="1.3"
       weight="33.333333"
       steps="2"
       helper_size="0"
       apply_no_weight="true"
       apply_with_weight="true"
       only_selected="false"
       uniform="false" /><inkscape:path-effect
       effect="bspline"
       id="path-effect3"
       is_visible="true"
       lpeversion="1.3"
       weight="33.333333"
       steps="2"
       helper_size="0"
       apply_no_weight="true"
       apply_with_weight="true"
       only_selected="false"
       uniform="false" /><inkscape:path-effect
       effect="mirror_symmetry"
       start_point="59.977887,81.781355"
       end_point="59.977887,112.27285"
       center_point="59.977887,97.027103"
       id="path-effect9"
       is_visible="true"
       lpeversion="1.2"
       lpesatellites=""
       mode="free"
       discard_orig_path="false"
       fuse_paths="false"
       oposite_fuse="false"
       split_items="false"
       split_open="false"
       link_styles="false" /><inkscape:path-effect
       effect="mirror_symmetry"
       start_point="59.944658,10.409945"
       end_point="59.944658,50.039614"
       center_point="59.944658,30.22478"
       id="path-effect2"
       is_visible="true"
       lpeversion="1.2"
       lpesatellites=""
       mode="free"
       discard_orig_path="false"
       fuse_paths="false"
       oposite_fuse="false"
       split_items="false"
       split_open="false"
       link_styles="false" /><inkscape:path-effect
       effect="mirror_symmetry"
       start_point="59.948435,66.805114"
       end_point="59.948435,107.38004"
       center_point="59.948435,87.092577"
       id="path-effect8"
       is_visible="true"
       lpeversion="1.2"
       lpesatellites=""
       mode="free"
       discard_orig_path="false"
       fuse_paths="false"
       oposite_fuse="false"
       split_items="false"
       split_open="false"
       link_styles="false" /><inkscape:path-effect
       effect="mirror_symmetry"
       start_point="60.801511,9.4541705"
       end_point="60.801511,40.169132"
       center_point="60.801511,24.811651"
       id="path-effect7"
       is_visible="true"
       lpeversion="1.2"
       lpesatellites=""
       mode="free"
       discard_orig_path="false"
       fuse_paths="false"
       oposite_fuse="false"
       split_items="false"
       split_open="false"
       link_styles="false" /><inkscape:path-effect
       effect="fillet_chamfer"
       id="path-effect13"
       is_visible="true"
       lpeversion="1"
       nodesatellites_param="F,0,0,1,0,4.7467821,0,1 @ F,0,0,1,0,4.0515277,0,1 @ F,0,0,1,0,0,0,1 @ F,0,0,1,0,2.4219461,0,1 @ F,0,0,1,0,2.4960577,0,1 @ F,0,0,1,0,0,0,1 @ F,0,0,1,0,4.1062831,0,1"
       radius="0"
       unit="px"
       method="auto"
       mode="F"
       chamfer_steps="1"
       flexible="false"
       use_knot_distance="true"
       apply_no_radius="true"
       apply_with_radius="true"
       only_selected="false"
       hide_knots="false" /><inkscape:path-effect
       effect="fillet_chamfer"
       id="path-effect12"
       is_visible="true"
       lpeversion="1"
       nodesatellites_param="F,0,0,1,0,0,0,1 @ F,0,0,1,0,0,0,1 @ F,0,0,1,0,0,0,1 @ F,0,0,1,0,0,0,1 @ F,0,0,1,0,3.627665,0,1 @ F,0,0,1,0,0,0,1 @ F,0,0,1,0,0,0,1"
       radius="0"
       unit="px"
       method="auto"
       mode="F"
       chamfer_steps="1"
       flexible="false"
       use_knot_distance="true"
       apply_no_radius="true"
       apply_with_radius="true"
       only_selected="false"
       hide_knots="false" /><inkscape:path-effect
       effect="fillet_chamfer"
       id="path-effect11"
       is_visible="true"
       lpeversion="1"
       nodesatellites_param="F,0,0,1,0,2.9729248,0,1 @ F,0,0,1,0,3.8975858,0,1 @ F,0,0,1,0,0,0,1 @ F,0,1,1,0,3.784373,0,1 @ F,0,0,1,0,1.4792147,0,1 @ F,0,0,1,0,0,0,1 @ F,0,0,1,0,3.784373,0,1"
       radius="0"
       unit="px"
       method="auto"
       mode="F"
       chamfer_steps="1"
       flexible="false"
       use_knot_distance="true"
       apply_no_radius="true"
       apply_with_radius="true"
       only_selected="false"
       hide_knots="false" /><linearGradient
       id="linearGradient6"><stop
         style="stop-color:#c88500;stop-opacity:1;"
         offset="0.07163448"
         id="stop8" /><stop
         style="stop-color:#fff300;stop-opacity:1;"
         offset="1"
         id="stop9" /></linearGradient><linearGradient
       id="linearGradient6-1"><stop
         style="stop-color:#c88500;stop-opacity:1;"
         offset="0"
         id="stop6" /><stop
         style="stop-color:#fff300;stop-opacity:1;"
         offset="1"
         id="stop7" /></linearGradient><inkscape:path-effect
       effect="fillet_chamfer"
       id="path-effect1"
       is_visible="true"
       lpeversion="1"
       nodesatellites_param="F,0,0,1,0,24.536157,0,1 @ F,0,0,1,0,24.004899,0,1 @ F,0,0,1,0,23.651152,0,1 @ F,0,0,1,0,24.380791,0,1"
       radius="0"
       unit="px"
       method="auto"
       mode="F"
       chamfer_steps="1"
       flexible="false"
       use_knot_distance="true"
       apply_no_radius="true"
       apply_with_radius="true"
       only_selected="false"
       hide_knots="false" /><linearGradient
       id="a"
       x1="7.937"
       x2="7.937"
       y1="15.081"
       y2="1.852"
       gradientTransform="scale(3.7796)"
       gradientUnits="userSpaceOnUse"><stop
         offset="0"
         stop-color="#9b6f27"
         id="stop1" /><stop
         offset="1"
         stop-color="#d0ab6a"
         id="stop2" /></linearGradient><filter
       id="b"
       width="1.216"
       height="1.216"
       x="-0.108"
       y="-0.108"
       color-interpolation-filters="sRGB"><feGaussianBlur
         stdDeviation="1.35"
         id="feGaussianBlur2" /></filter><linearGradient
       id="linearGradient31"
       x1=".5002"
       x2=".5002"
       y2="1"
       gradientTransform="matrix(244,0,0,228,5.986,12)"
       gradientUnits="userSpaceOnUse"><stop
         stop-color="#ebdbb2"
         stop-opacity=".2"
         offset="0"
         id="stop1-5" /><stop
         stop-color="#ebdbb2"
         stop-opacity=".05"
         offset=".1"
         id="stop2-6" /><stop
         stop-opacity="0"
         offset=".7036"
         id="stop3" /><stop
         stop-opacity=".1"
         offset=".8975"
         id="stop4" /><stop
         stop-opacity=".2"
         offset="1"
         id="stop5" /></linearGradient><inkscape:path-effect
       effect="bspline"
       id="path-effect6"
       is_visible="true"
       lpeversion="1.3"
       weight="33.333333"
       steps="2"
       helper_size="0"
       apply_no_weight="true"
       apply_with_weight="true"
       only_selected="false"
       uniform="false" /><inkscape:path-effect
       effect="bspline"
       id="path-effect5-5"
       is_visible="true"
       lpeversion="1.3"
       weight="33.333333"
       steps="2"
       helper_size="0"
       apply_no_weight="true"
       apply_with_weight="true"
       only_selected="false"
       uniform="false" /><inkscape:path-effect
       effect="bspline"
       id="path-effect4-3"
       is_visible="true"
       lpeversion="1.3"
       weight="33.333333"
       steps="2"
       helper_size="0"
       apply_no_weight="true"
       apply_with_weight="true"
       only_selected="false"
       uniform="false" /><inkscape:path-effect
       effect="bspline"
       id="path-effect3-5"
       is_visible="true"
       lpeversion="1.3"
       weight="33.333333"
       steps="2"
       helper_size="0"
       apply_no_weight="true"
       apply_with_weight="true"
       only_selected="false"
       uniform="false" /><inkscape:path-effect
       effect="mirror_symmetry"
       start_point="59.977887,81.781355"
       end_point="59.977887,112.27285"
       center_point="59.977887,97.027103"
       id="path-effect9-6"
       is_visible="true"
       lpeversion="1.2"
       lpesatellites=""
       mode="free"
       discard_orig_path="false"
       fuse_paths="false"
       oposite_fuse="false"
       split_items="false"
       split_open="false"
       link_styles="false" /><inkscape:path-effect
       effect="mirror_symmetry"
       start_point="59.944658,10.409945"
       end_point="59.944658,50.039614"
       center_point="59.944658,30.22478"
       id="path-effect2-2"
       is_visible="true"
       lpeversion="1.2"
       lpesatellites=""
       mode="free"
       discard_orig_path="false"
       fuse_paths="false"
       oposite_fuse="false"
       split_items="false"
       split_open="false"
       link_styles="false" /><inkscape:path-effect
       effect="mirror_symmetry"
       start_point="59.948435,66.805114"
       end_point="59.948435,107.38004"
       center_point="59.948435,87.092577"
       id="path-effect8-9"
       is_visible="true"
       lpeversion="1.2"
       lpesatellites=""
       mode="free"
       discard_orig_path="false"
       fuse_paths="false"
       oposite_fuse="false"
       split_items="false"
       split_open="false"
       link_styles="false" /><inkscape:path-effect
       effect="mirror_symmetry"
       start_point="60.801511,9.4541705"
       end_point="60.801511,40.169132"
       center_point="60.801511,24.811651"
       id="path-effect7-1"
       is_visible="true"
       lpeversion="1.2"
       lpesatellites=""
       mode="free"
       discard_orig_path="false"
       fuse_paths="false"
       oposite_fuse="false"
       split_items="false"
       split_open="false"
       link_styles="false" /><inkscape:path-effect
       effect="fillet_chamfer"
       id="path-effect13-2"
       is_visible="true"
       lpeversion="1"
       nodesatellites_param="F,0,0,1,0,4.7467821,0,1 @ F,0,0,1,0,4.0515277,0,1 @ F,0,0,1,0,0,0,1 @ F,0,0,1,0,2.4219461,0,1 @ F,0,0,1,0,2.4960577,0,1 @ F,0,0,1,0,0,0,1 @ F,0,0,1,0,4.1062831,0,1"
       radius="0"
       unit="px"
       method="auto"
       mode="F"
       chamfer_steps="1"
       flexible="false"
       use_knot_distance="true"
       apply_no_radius="true"
       apply_with_radius="true"
       only_selected="false"
       hide_knots="false" /><inkscape:path-effect
       effect="fillet_chamfer"
       id="path-effect12-7"
       is_visible="true"
       lpeversion="1"
       nodesatellites_param="F,0,0,1,0,0,0,1 @ F,0,0,1,0,0,0,1 @ F,0,0,1,0,0,0,1 @ F,0,0,1,0,0,0,1 @ F,0,0,1,0,3.627665,0,1 @ F,0,0,1,0,0,0,1 @ F,0,0,1,0,0,0,1"
       radius="0"
       unit="px"
       method="auto"
       mode="F"
       chamfer_steps="1"
       flexible="false"
       use_knot_distance="true"
       apply_no_radius="true"
       apply_with_radius="true"
       only_selected="false"
       hide_knots="false" /><inkscape:path-effect
       effect="fillet_chamfer"
       id="path-effect11-0"
       is_visible="true"
       lpeversion="1"
       nodesatellites_param="F,0,0,1,0,2.9729248,0,1 @ F,0,0,1,0,3.8975858,0,1 @ F,0,0,1,0,0,0,1 @ F,0,1,1,0,3.784373,0,1 @ F,0,0,1,0,1.4792147,0,1 @ F,0,0,1,0,0,0,1 @ F,0,0,1,0,3.784373,0,1"
       radius="0"
       unit="px"
       method="auto"
       mode="F"
       chamfer_steps="1"
       flexible="false"
       use_knot_distance="true"
       apply_no_radius="true"
       apply_with_radius="true"
       only_selected="false"
       hide_knots="false" /><inkscape:path-effect
       effect="fillet_chamfer"
       id="path-effect1-6"
       is_visible="true"
       lpeversion="1"
       nodesatellites_param="F,0,0,1,0,24.536157,0,1 @ F,0,0,1,0,24.004899,0,1 @ F,0,0,1,0,23.651152,0,1 @ F,0,0,1,0,24.380791,0,1"
       radius="0"
       unit="px"
       method="auto"
       mode="F"
       chamfer_steps="1"
       flexible="false"
       use_knot_distance="true"
       apply_no_radius="true"
       apply_with_radius="true"
       only_selected="false"
       hide_knots="false" /><filter
       id="b-8"
       width="1.216"
       height="1.216"
       x="-0.108"
       y="-0.108"
       color-interpolation-filters="sRGB"><feGaussianBlur
         stdDeviation="1.35"
         id="feGaussianBlur2-7" /></filter></defs><g
     inkscape:groupmode="layer"
     id="layer3"
     inkscape:label="base"><path
       d="m 76.476937,9.2332248 c 32.063223,0 37.852423,6.6798392 37.852423,38.7430672 v 24.938066 c 0,31.172592 -5.7892,37.852422 -37.852423,37.852422 H 43.523063 c -32.063227,0 -37.8524214,-6.67983 -37.8524214,-37.852422 V 47.976292 c 0,-32.063228 5.7891944,-38.7430672 37.8524214,-38.7430672 z"
       fill="#ebdbb2"
       style="display:inline;opacity:1;isolation:isolate;stroke-width:0.445323;fill:#9d0006;fill-opacity:1"
       id="path5" /><g
       id="g1"
       transform="matrix(0.84705694,0,0,0.84705694,8.9767081,9.1765844)"><g
         id="layer2"
         inkscape:label="Layer 2"
         style="opacity:1"><path
           style="opacity:1;fill:#eeeeee;fill-opacity:0;stroke-width:0.965576"
           id="rect1"
           width="104.6141"
           height="104.75148"
           x="7.5219741"
           y="7.4503703"
           inkscape:path-effect="#path-effect1-6"
           sodipodi:type="rect"
           d="M 32.058131,7.4503703 H 88.131173 A 24.004899,24.004899 45 0 1 112.13607,31.455269 V 88.550698 A 23.651152,23.651152 135 0 1 88.48492,112.20185 H 31.902765 A 24.380791,24.380791 45 0 1 7.5219741,87.821059 V 31.986527 A 24.536157,24.536157 135 0 1 32.058131,7.4503703 Z"
           transform="translate(0.40694183)" /></g><g
         id="layer1"
         inkscape:label="Layer 3"><path
           id="path1"
           style="fill:#fff1f2;fill-opacity:1;stroke:none;stroke-width:11.01"
           d="m 48.606153,6.2579495 c -0.03386,-0.028479 -0.05861,0.032054 -0.07143,0.062498 -0.01282,0.030445 -0.01467,0.029931 -0.142854,0.2299052 -0.128189,0.1999745 -0.384132,0.6007737 -0.808016,1.316932 -0.423884,0.7161583 -1.014938,1.7479454 -1.698619,3.0401033 -0.68368,1.292158 -1.458562,2.844876 -2.169589,4.388285 -0.711027,1.543407 -1.357569,3.078511 -1.796831,4.196324 -0.439262,1.117813 -0.673051,1.817124 -0.859353,2.540116 -0.186303,0.722992 -0.326532,1.467935 -0.430793,2.238785 -0.104261,0.770848 -0.171652,1.568984 -0.236601,2.473152 -0.06495,0.904169 -0.126526,1.91478 -0.160711,2.85484 -0.03418,0.940059 -0.04018,1.809687 -0.04018,2.595918 0,0.786232 0.0069,1.489876 0.02232,2.441904 0.01538,0.952028 0.0393,2.15185 0.109372,3.232063 0.07008,1.080213 0.185047,2.039328 0.249994,2.540116 0.06495,0.500788 0.07836,0.542881 0.09375,0.573646 0.01538,0.03077 0.03358,0.05105 0.0558,0.06473 0.02222,0.01368 0.04943,0.02176 0.196424,0.04911 0.146994,0.02735 0.413111,0.07427 0.86605,0.207584 0.45294,0.133319 1.093072,0.352042 2.1495,0.794623 1.05643,0.442581 2.529364,1.10912 4.176237,1.962006 1.646872,0.852884 3.465784,1.891349 4.421766,2.435207 0.955981,0.543858 1.048634,0.593291 1.098186,0.642841 0.04955,0.04955 0.05617,0.09971 0.05134,0.13839 -0.0048,0.03868 -0.02104,0.06504 -0.09598,0.162942 -0.07493,0.0979 -0.208174,0.268254 -0.287939,0.350438 -0.07977,0.08218 -0.106152,0.07682 -0.19196,0.06473 -0.08581,-0.01208 -0.230194,-0.03102 -1.508892,-0.165174 -1.278696,-0.134155 -3.691767,-0.384443 -5.850301,-0.537933 -2.158535,-0.15349 -4.062769,-0.211319 -6.011012,-0.249994 -1.948244,-0.03867 -3.940608,-0.0573 -5.006573,-0.06696 -1.065965,-0.0097 -1.205654,-0.0089 -1.332556,-0.0089 -0.126901,0 -0.240906,-0.0015 -0.301332,-0.01116 -0.06043,-0.0097 -0.0679,-0.02904 -0.08482,-0.08705 -0.01692,-0.05801 -0.04258,-0.154932 -0.178567,-1.02676 -0.135991,-0.871829 -0.382181,-2.518723 -0.484364,-3.84812 -0.102181,-1.329396 -0.0607,-2.340397 0.0692,-3.803477 0.129901,-1.46308 0.348436,-3.376744 0.66293,-5.133801 0.314494,-1.757057 0.724481,-3.356464 1.042386,-4.470872 0.317903,-1.114408 0.544371,-1.744615 0.67409,-2.102626 0.129718,-0.358012 0.16388,-0.445516 0.180799,-0.515612 0.01692,-0.0701 0.01543,-0.122961 -0.01116,-0.149551 -0.02659,-0.02659 -0.07889,-0.02546 -0.156246,0.04464 -0.07735,0.0701 -0.179612,0.20926 -0.486595,0.712036 -0.306983,0.502775 -0.819037,1.367401 -1.433,2.515563 -0.613964,1.148162 -1.328314,2.57967 -1.908435,3.87044 -0.58012,1.29077 -1.025587,2.442008 -1.361573,3.694105 -0.335987,1.252098 -0.563839,2.605682 -0.691948,3.819102 -0.128108,1.21342 -0.156987,2.286043 -0.147317,3.796781 0.0097,1.510739 0.05917,3.45853 0.102675,4.669527 0.04351,1.210998 0.08241,1.686439 0.113837,1.932988 0.03142,0.246549 0.05452,0.265063 0.100444,0.272315 0.04592,0.0073 0.113729,0.0026 0.319188,-0.03125 0.20546,-0.03384 0.549529,-0.09695 1.214256,-0.200888 0.664726,-0.103939 1.65031,-0.249494 3.272241,-0.401776 1.62193,-0.152282 3.879763,-0.311787 5.886015,-0.408472 2.006253,-0.09669 3.760423,-0.130398 5.488703,-0.147318 1.728281,-0.01692 3.430468,-0.01692 4.716402,0 1.285933,0.01692 2.155084,0.05172 2.636095,0.07589 0.481012,0.02417 0.574595,0.03703 0.620521,0.07812 0.04592,0.04109 0.04568,0.109986 0.07366,0.212047 0.02798,0.102063 0.08316,0.238394 0.120533,0.334814 0.03737,0.09642 0.05619,0.15192 0.06473,0.185264 0.0085,0.03334 0.0057,0.04351 -0.01562,0.05803 -0.02137,0.01452 -0.06127,0.03411 -0.948637,0.142853 -0.887374,0.108744 -2.621705,0.308475 -4.94854,0.649537 -2.326835,0.341063 -5.245039,0.824231 -8.193993,1.39952 -2.948954,0.575287 -5.927529,1.242394 -8.446221,1.866025 -2.51869,0.62363 -4.578198,1.203633 -6.033332,1.633888 -1.455133,0.430256 -2.305175,0.710621 -2.749932,0.903995 -0.444757,0.193376 -0.484734,0.299525 -0.479899,0.439722 0.0048,0.140196 0.05286,0.313722 0.14955,0.618289 0.09669,0.304565 0.241481,0.740477 0.35267,1.185238 0.111189,0.44476 0.188661,0.899075 0.319189,1.662905 0.130528,0.76383 0.314136,1.836344 0.729893,4.03115 0.415756,2.194807 1.064142,5.511558 1.537908,7.865877 0.473764,2.354319 0.773207,3.74718 1.198631,5.386028 0.425424,1.638847 0.977842,3.522822 1.470945,5.060142 0.493103,1.53732 0.926471,2.726149 1.332557,3.765532 0.406085,1.039385 0.784411,1.928539 1.32586,2.948588 0.541448,1.020049 1.247412,2.170976 2.359316,3.872672 1.111905,1.701697 2.62883,3.955651 4.064632,5.961903 1.435801,2.00626 2.789866,3.76543 4.10481,5.45746 1.314943,1.69201 2.591185,3.31585 3.711962,4.65166 1.120776,1.33582 2.085757,2.38403 2.595917,2.91958 0.51016,0.53555 0.566219,0.55948 0.602664,0.55355 0.03645,-0.006 0.05358,-0.0432 0.06027,-0.087 0.0067,-0.0439 0.0015,-0.0952 -0.196424,-0.3683 -0.197918,-0.27309 -0.587776,-0.76709 -1.209792,-1.63165 -0.622014,-0.86457 -1.476137,-2.10037 -2.658415,-3.9441 -1.182279,-1.84373 -2.693378,-4.296 -3.865976,-6.41501 -1.172599,-2.119017 -2.00664,-3.904651 -2.792342,-5.723077 -0.785702,-1.818426 -1.523767,-3.668044 -2.178517,-5.566827 -0.654752,-1.898781 -1.22541,-3.846598 -1.850401,-6.415019 -0.624992,-2.568422 -1.304279,-5.758008 -1.88165,-9.073437 -0.577372,-3.315429 -1.052057,-6.755033 -1.325861,-8.894869 -0.273803,-2.139837 -0.346716,-2.980579 -0.397311,-3.54902 -0.0506,-0.56844 -0.07961,-0.866048 -0.100443,-1.071402 -0.02084,-0.205353 -0.03199,-0.318444 -0.03795,-0.392847 -0.006,-0.0744 -0.006,-0.110115 0.01786,-0.142854 0.02381,-0.03274 0.07068,-0.06175 0.350438,-0.180799 0.279764,-0.119049 0.791288,-0.3268 3.245456,-1.20756 2.454167,-0.880758 6.850474,-2.434507 9.781008,-3.417325 2.930534,-0.982818 4.394409,-1.395328 6.077975,-1.841473 1.683565,-0.446144 3.587501,-0.926268 4.551227,-1.169614 0.963724,-0.243346 0.988196,-0.248784 1.008903,-0.252226 0.02071,-0.0034 0.03646,-0.0052 0.09375,0.111604 0.05729,0.116816 0.156246,0.350441 0.200889,0.477667 0.04464,0.127227 0.03646,0.148806 -0.05134,0.200888 -0.0878,0.05208 -0.254439,0.13615 -1.29238,0.5982 -1.03794,0.46205 -2.947828,1.302043 -4.680688,2.100395 -1.732858,0.79835 -3.289338,1.554269 -4.828005,2.314674 -1.538667,0.760405 -3.060179,1.525253 -4.484264,2.27673 -1.424086,0.751476 -2.751416,1.489544 -3.598126,1.973165 -0.846708,0.483621 -1.211277,0.713522 -1.415143,0.85489 -0.203866,0.141368 -0.246273,0.194192 -0.270082,0.252226 -0.02381,0.05803 -0.03009,0.12009 0.156246,1.870489 0.186338,1.750399 0.565836,5.188506 0.803552,7.301159 0.237714,2.112653 0.333542,2.899452 0.459809,3.745444 0.126267,0.84599 0.282145,1.752487 0.517845,2.861536 0.2357,1.109049 0.552614,2.422315 0.868282,3.718657 0.315668,1.296343 0.63131,2.574855 0.91962,3.589197 0.28831,1.014344 0.547829,1.764465 0.821409,2.555741 0.273578,0.791275 0.560715,1.624235 0.973189,2.642791 0.412475,1.018558 0.950573,2.221167 1.497731,3.365989 0.547158,1.144822 1.103374,2.230214 1.593711,3.156171 0.490337,0.925959 0.914596,1.692586 1.310236,2.366016 0.395638,0.67343 0.761216,1.25515 1.020064,1.67184 0.258847,0.41667 0.410761,0.66941 0.522308,0.85042 0.111547,0.18099 0.183968,0.28888 0.236601,0.3415 0.05263,0.0526 0.08595,0.0495 0.104908,0.0179 0.01896,-0.0316 0.02372,-0.0907 -0.100444,-0.40847 -0.124163,-0.31777 -0.37851,-0.89452 -0.694179,-1.65844 -0.315669,-0.76392 -0.693557,-1.715621 -1.051313,-2.658416 -0.357757,-0.942795 -0.694512,-1.875697 -1.031225,-2.881626 -0.336713,-1.00593 -0.672063,-2.08507 -1.006671,-3.194117 -0.334609,-1.109048 -0.669191,-2.24967 -0.919621,-3.312418 -0.250429,-1.062749 -0.41677,-2.045731 -0.627216,-3.499914 -0.210446,-1.454182 -0.464539,-3.379216 -0.689716,-5.658342 -0.225176,-2.279127 -0.423274,-4.914208 -0.593735,-7.513208 -0.170459,-2.598999 -0.312495,-5.160394 -0.386151,-6.481982 -0.07366,-1.321587 -0.07748,-1.401499 -0.06696,-1.470945 0.01052,-0.06945 0.03566,-0.129276 0.292403,-0.31026 0.256746,-0.180985 0.744269,-0.483909 3.484289,-2.16959 2.740021,-1.685681 7.730902,-4.754845 10.234122,-6.290023 2.50322,-1.535178 2.517993,-1.53635 2.557973,-1.52898 0.03998,0.0074 0.106122,0.02341 0.162942,0.07812 0.05682,0.05471 0.105387,0.148117 0.131693,0.216512 0.02631,0.06839 0.02972,0.112978 0.0045,0.154013 -0.02525,0.04104 -0.07989,0.07909 -0.495523,0.35267 -0.415636,0.273584 -1.192303,0.782381 -2.508867,1.785671 -1.316564,1.003289 -3.171321,2.500535 -4.124898,3.283401 -0.953576,0.782865 -1.004437,0.850421 -1.049081,0.921852 -0.04464,0.07143 -0.08407,0.147312 -0.109373,0.468738 -0.0253,0.321427 -0.03632,0.890198 0.0022,2.845912 0.03855,1.955715 0.127496,5.297311 0.174104,7.008756 0.04661,1.711444 0.05077,1.792704 0.372758,2.350387 0.321985,0.557685 0.961421,1.592032 1.687458,2.631632 0.726038,1.0396 1.536858,2.082385 2.366014,2.999926 0.829155,0.917541 1.676085,1.709814 2.776716,2.593686 1.100632,0.883872 2.455655,1.860503 3.234296,2.39503 0.77864,0.534526 0.98047,0.627922 1.247737,0.749981 0.267267,0.122059 0.600316,0.27149 0.819175,0.368295 0.218861,0.0968 0.324235,0.139153 0.517845,0.07812 0.19361,-0.06103 0.475149,-0.224867 1.435233,-0.879443 0.960082,-0.654575 2.597498,-1.79797 4.142754,-3.138315 1.545257,-1.340344 2.99843,-2.877147 4.129362,-4.323554 1.130932,-1.446406 1.940428,-2.80275 2.374942,-3.868208 0.434514,-1.065457 0.494008,-1.83953 0.520076,-3.745443 0.02607,-1.905912 0.01932,-4.945013 0.01563,-6.535552 -0.0037,-1.590539 -0.0033,-1.733253 -0.02009,-1.825849 -0.01684,-0.09259 -0.05163,-0.134528 -1.087027,-0.991046 -1.035399,-0.856518 -3.073455,-2.527538 -4.432926,-3.57134 -1.35947,-1.043803 -2.041357,-1.459923 -2.392798,-1.682994 -0.351441,-0.223072 -0.370718,-0.252868 -0.337045,-0.337046 0.03367,-0.08418 0.122258,-0.223339 0.187495,-0.2991 0.06524,-0.07576 0.107534,-0.08839 0.408472,0.07366 0.300938,0.162044 0.860098,0.4988 2.013343,1.178542 1.153246,0.679742 2.898717,1.702165 4.394981,2.607079 1.496263,0.904913 2.742468,1.692791 4.312394,2.700826 1.569924,1.008035 3.464632,2.237287 4.428462,2.874929 0.963828,0.637642 0.996532,0.683466 1.013367,0.72766 0.01684,0.0442 0.01658,0.0868 -0.07812,2.033432 -0.0947,1.946637 -0.283865,5.796338 -0.437489,8.292206 -0.153624,2.495868 -0.270533,3.636565 -0.388383,4.785596 -0.11785,1.149032 -0.235331,2.308088 -0.361598,3.377149 -0.126268,1.069061 -0.261991,2.049483 -0.45981,3.160635 -0.197819,1.111153 -0.459056,2.352798 -0.741054,3.533395 -0.281996,1.180598 -0.585528,2.298542 -1.149525,4.019991 -0.563996,1.721448 -1.387874,4.045762 -1.968701,5.611468 -0.580827,1.565701 -0.917143,2.372741 -1.133901,2.888321 -0.216757,0.51559 -0.313704,0.74053 -0.370527,0.87944 -0.05682,0.1389 -0.07434,0.19338 -0.0491,0.21651 0.02524,0.0231 0.09299,0.014 0.154014,-0.0134 0.06103,-0.0274 0.115625,-0.0725 0.439721,-0.60489 0.324096,-0.53244 0.917283,-1.55236 1.504427,-2.60039 0.587144,-1.048016 1.167979,-2.125243 1.729868,-3.234289 0.561889,-1.109049 1.105926,-2.250376 1.638353,-3.435184 0.532425,-1.184807 1.054139,-2.412812 1.542372,-3.736515 0.488232,-1.323702 0.941514,-2.742156 1.412911,-4.490961 0.471399,-1.748803 0.959879,-3.827986 1.366038,-5.888246 0.406158,-2.06026 0.730098,-4.101342 1.064706,-6.76769 0.334608,-2.666349 0.68022,-5.95797 0.854889,-7.622579 0.174669,-1.664611 0.178757,-1.703021 0.145086,-1.738797 -0.03367,-0.03578 -0.104668,-0.06901 -0.542397,-0.323653 -0.437729,-0.25464 -1.241744,-0.730214 -4.656135,-2.435207 -3.41439,-1.704993 -9.438202,-4.638343 -12.455049,-6.115921 -3.016848,-1.477577 -3.026711,-1.498474 -3.01555,-1.575853 0.01116,-0.07738 0.04241,-0.212793 0.09152,-0.328117 0.04911,-0.115325 0.116812,-0.211306 0.167406,-0.256691 0.05059,-0.04539 0.08333,-0.03869 0.350438,0.02902 0.267108,0.06771 0.767073,0.197162 2.118252,0.560253 1.351179,0.363093 3.55421,0.959793 5.50656,1.524517 1.952349,0.564723 3.653908,1.097437 5.502096,1.694155 1.848188,0.596717 3.842898,1.256659 5.488704,1.845936 1.645805,0.589277 2.944117,1.106369 3.899457,1.502195 0.95534,0.395826 1.566928,0.670372 1.874953,0.825872 0.308026,0.155501 0.311751,0.191952 0.303564,0.366063 -0.0082,0.17411 -0.02827,0.486568 -0.187496,1.944148 -0.159224,1.457579 -0.456831,4.060152 -0.725427,6.091367 -0.268597,2.031214 -0.506679,3.49096 -0.863819,5.473079 -0.357139,1.982119 -0.834051,4.487962 -1.345948,6.856973 -0.511897,2.369011 -1.060235,4.601057 -1.703083,6.758762 -0.642849,2.157706 -1.379421,4.240203 -2.236553,6.287791 -0.85713,2.047588 -1.834764,4.060149 -2.807966,5.926192 -0.973201,1.86605 -1.943398,3.58547 -2.714218,4.87712 -0.77082,1.29163 -1.341477,2.15394 -1.984326,3.10036 -0.642849,0.94642 -1.357845,1.97613 -1.997719,2.866 -0.639872,0.88987 -1.204582,1.64058 -1.511122,2.05129 -0.306541,0.41071 -0.354903,0.48287 -0.372759,0.55132 -0.01786,0.0685 -0.0045,0.13392 0.03125,0.16072 0.03571,0.0268 0.09374,0.0149 0.370527,-0.25893 0.276784,-0.2738 0.770806,-0.80949 1.482106,-1.60711 0.711302,-0.7976 1.639832,-1.85707 2.616008,-3.05349 0.976174,-1.19641 1.999939,-2.53042 3.053496,-3.89945 1.053557,-1.36903 2.138326,-2.77373 3.263311,-4.32132 1.124986,-1.547603 2.290858,-3.237261 3.296794,-4.716404 1.005936,-1.479143 1.851135,-2.746935 2.767789,-4.482032 0.916654,-1.735099 1.903966,-3.938875 2.627167,-5.816821 0.723201,-1.877944 1.182999,-3.430684 1.799063,-5.9128 0.616063,-2.482116 1.38909,-5.891927 2.15396,-9.626994 0.76487,-3.735068 1.5208,-7.795194 1.93745,-9.890381 0.41666,-2.095187 0.49478,-2.225391 0.55133,-2.323603 0.0565,-0.09821 0.0923,-0.164432 0.10714,-0.212048 0.0149,-0.04762 0.009,-0.07812 -0.1875,-0.14955 -0.19643,-0.07143 -0.58327,-0.183763 -2.90171,-0.841497 -2.318435,-0.657734 -6.569756,-1.86007 -9.64708,-2.633864 -3.077324,-0.773793 -4.981248,-1.119015 -7.341336,-1.499962 -2.360089,-0.380948 -5.175456,-0.796855 -7.178394,-1.064707 -2.002939,-0.267851 -3.193375,-0.386894 -3.821334,-0.446417 -0.62796,-0.05952 -0.693447,-0.06023 -0.714268,-0.14955 -0.02082,-0.08932 0.0037,-0.267072 0.05134,-0.412936 0.04763,-0.145864 0.119043,-0.260408 0.178567,-0.343741 0.05952,-0.08333 0.106385,-0.136902 0.662931,-0.16071 0.556545,-0.02381 1.621699,-0.01758 3.555716,-0.02679 1.934015,-0.0092 4.737274,-0.03335 7.468565,0.01339 2.73129,0.04674 5.389989,0.164149 7.417226,0.354902 2.027238,0.190752 3.421724,0.454471 4.133827,0.598199 0.712103,0.143729 0.742536,0.168894 0.781231,0.171871 0.03869,0.003 0.08705,-0.01561 0.14955,-0.667395 0.0625,-0.651781 0.138391,-1.936689 0.174103,-3.493216 0.03571,-1.556528 0.03051,-3.384581 -0.02902,-4.774435 -0.05952,-1.389856 -0.173355,-2.342936 -0.390615,-3.515539 -0.21726,-1.172604 -0.537185,-2.565403 -0.933012,-3.758836 -0.395828,-1.193432 -0.867529,-2.187427 -1.611567,-3.615981 -0.74404,-1.428556 -1.761862,-3.290841 -2.321372,-4.287841 -0.55951,-0.997 -0.659956,-1.127203 -0.743285,-1.162918 -0.08333,-0.03571 -0.149552,0.02232 -0.167406,0.09375 -0.01786,0.07143 0.01265,0.154754 0.09598,0.330349 0.08333,0.175595 0.219486,0.444176 0.412936,1.033456 0.19345,0.589281 0.444927,1.499955 0.665162,2.383871 0.220234,0.883915 0.410702,1.741758 0.616057,2.828054 0.205353,1.086296 0.424095,2.400231 0.56695,3.38831 0.142854,0.988077 0.209073,1.649498 0.229905,2.694128 0.02083,1.044632 -0.0037,2.47314 -0.104908,3.90169 -0.101191,1.42855 -0.279011,2.857071 -0.377224,3.589197 -0.09821,0.732126 -0.116806,0.76784 -0.158477,0.794623 -0.04167,0.02678 -0.105648,0.04464 -0.334813,0.04464 -0.229166,-2e-6 -0.622731,-0.01786 -1.944149,-0.0089 -1.321418,0.0089 -3.570581,0.0439 -5.466382,0.09152 -1.895803,0.04762 -3.437397,0.107882 -5.178444,0.220976 -1.741048,0.113094 -3.681452,0.279754 -4.901665,0.401775 -1.220213,0.122022 -1.720937,0.200145 -2.015575,0.238834 -0.294638,0.03869 -0.383174,0.03795 -0.466506,-0.03348 -0.08333,-0.07143 -0.161455,-0.213536 -0.212049,-0.305796 -0.05059,-0.09226 -0.0744,-0.134673 -0.05357,-0.203119 0.02083,-0.06845 0.0863,-0.164427 0.553557,-0.444186 0.467259,-0.27976 1.336263,-0.744022 2.43744,-1.348182 1.101177,-0.604158 2.434456,-1.347433 3.437416,-1.886113 1.002958,-0.538681 1.674803,-0.872 2.314674,-1.169614 0.639872,-0.297615 1.247735,-0.560254 1.738796,-0.738821 0.491062,-0.178568 0.866047,-0.273058 1.232113,-0.350438 0.366065,-0.07738 0.723942,-0.136901 0.917388,-0.169638 0.193445,-0.03274 0.223203,-0.03868 0.276778,-0.214281 0.05358,-0.175597 0.130948,-0.521549 0.241066,-1.488803 0.110117,-0.967254 0.252226,-2.555729 0.323653,-3.921778 0.07143,-1.366049 0.07248,-2.508789 0.03571,-3.926242 -0.03677,-1.417454 -0.110748,-3.108814 -0.261155,-4.720866 -0.150405,-1.61205 -0.377489,-3.145513 -0.676321,-4.441853 -0.298834,-1.296342 -0.669524,-2.35587 -1.330325,-3.95526 C 76.839727,16.859151 75.887072,14.720223 74.935859,12.813591 73.984646,10.906958 73.033583,9.232508 72.435921,8.1887052 71.83826,7.1449025 71.594419,6.7329915 71.447106,6.5057114 71.299793,6.2784302 71.25087,6.235181 71.217201,6.2646454 c -0.03367,0.029464 -0.05178,0.1316996 -0.02232,0.2790114 0.02946,0.1473117 0.106445,0.3412052 0.279011,0.7410525 0.172565,0.3998484 0.440243,1.0058094 0.743284,1.8012949 0.303042,0.7954855 0.640177,1.7790808 0.964262,2.8481448 0.324086,1.069063 0.634947,2.223527 0.946405,3.444111 0.311459,1.220584 0.624678,2.508095 0.877211,3.930707 0.252534,1.422611 0.444638,2.979438 0.562486,4.040078 0.117849,1.060639 0.159755,1.623782 0.180799,2.524491 0.02104,0.900709 0.02079,2.139601 -0.0045,3.301258 -0.02526,1.161658 -0.07437,2.245792 -0.196424,3.723122 -0.12206,1.477331 -0.3169,3.347353 -0.426329,4.328018 -0.109431,0.980665 -0.134121,1.073574 -0.247762,1.183006 -0.113642,0.109433 -0.314332,0.235363 -1.964237,1.392823 -1.649906,1.157459 -4.747922,3.345572 -6.334665,4.444086 -1.586744,1.098515 -1.664121,1.107942 -1.794598,1.011137 -0.130477,-0.09681 -0.313645,-0.300066 -0.40624,-0.426329 -0.0926,-0.126263 -0.0938,-0.177181 0.310259,-0.669627 0.40406,-0.492445 1.211279,-1.425944 1.640585,-1.93522 0.429306,-0.509275 0.481812,-0.593741 0.439722,-0.741052 -0.04209,-0.147313 -0.178582,-0.357981 -0.620521,-0.850426 -0.441939,-0.492445 -1.190685,-1.265745 -1.758886,-1.783438 -0.568199,-0.517694 -0.95509,-0.77856 -1.245504,-0.955334 -0.290413,-0.176773 -0.484117,-0.270147 -0.627216,-0.308028 -0.143101,-0.03788 -0.235582,-0.02059 -0.218746,0.118301 0.01684,0.138894 0.143116,0.400256 0.294636,0.669626 0.151521,0.26937 0.32889,0.545983 0.488827,0.899532 0.159939,0.353549 0.301717,0.78386 0.381688,1.158453 0.07997,0.374592 0.09712,0.694637 0.04241,0.959797 -0.05472,0.265162 -0.179978,0.475571 -0.424097,0.698645 -0.244117,0.223072 -0.606819,0.457839 -0.859353,0.609359 -0.252535,0.15152 -0.39504,0.217789 -1.093723,0.238833 -0.698684,0.02104 -1.953049,-0.0036 -2.651721,-0.0625 -0.698672,-0.05892 -0.841377,-0.15032 -1.060241,-0.31026 -0.218864,-0.159939 -0.514984,-0.387499 -0.725429,-0.593736 -0.210444,-0.206236 -0.335899,-0.391772 -0.390614,-0.63168 -0.05472,-0.239909 -0.03884,-0.533802 0.02009,-0.870514 0.05893,-0.336713 0.161992,-0.716388 0.330349,-1.082563 0.168357,-0.366175 0.403824,-0.718936 0.584807,-0.979887 0.180982,-0.260951 0.306949,-0.42978 0.399543,-0.560254 0.0926,-0.130473 0.151272,-0.222829 0.142854,-0.290171 -0.0084,-0.06734 -0.084,-0.109629 -0.180799,-0.113837 -0.0968,-0.0042 -0.215187,0.02871 -0.598199,0.281244 -0.383013,0.252536 -1.031185,0.725256 -1.58255,1.200862 -0.551366,0.475607 -1.005539,0.954522 -1.354878,1.34595 -0.349338,0.391427 -0.593486,0.695526 -0.736589,0.901763 -0.143102,0.206237 -0.185454,0.313963 -0.151782,0.448649 0.03367,0.134687 0.142674,0.294331 0.470971,0.69418 0.328296,0.399848 0.875377,1.039853 1.249969,1.439697 0.374591,0.399843 0.577031,0.560195 0.669626,0.669625 0.0926,0.109431 0.07601,0.169069 0.0045,0.270083 -0.07155,0.101015 -0.197831,0.244004 -0.294635,0.366063 -0.0968,0.122059 -0.164025,0.222062 -0.218744,0.276778 -0.05472,0.05472 -0.09592,0.06365 -0.205353,0.0089 -0.10943,-0.05472 -0.287545,-0.171909 -1.937452,-1.350413 -1.649906,-1.178505 -4.771962,-3.418531 -6.350289,-4.542298 -1.578327,-1.123769 -1.612399,-1.132249 -1.662906,-1.32586 -0.05051,-0.193613 -0.117474,-0.572407 -0.21428,-1.582551 -0.09681,-1.010144 -0.222639,-2.650506 -0.323653,-4.102577 -0.101013,-1.452071 -0.177101,-2.715042 -0.189727,-4.200789 -0.01263,-1.485747 0.03719,-3.19514 0.171871,-4.794524 0.134686,-1.599384 0.353256,-3.089915 0.694179,-4.794525 0.340922,-1.704609 0.80446,-3.623379 1.18747,-5.033357 0.38301,-1.409979 0.685203,-2.309872 1.089259,-3.408399 0.404056,-1.0985268 0.90911,-2.3955107 1.140597,-3.1026018 0.231487,-0.70709 0.190108,-0.8241785 0.156246,-0.8526567 z M 66.404821,57.950868 c 0.02874,-0.006 0.165173,0.107138 0.584806,0.499988 0.559512,0.523798 1.623461,1.541618 2.281194,2.196374 0.657732,0.654755 0.909202,0.947146 1.031224,1.212023 0.122023,0.264878 0.115326,0.503706 0.02902,2.069145 -0.08631,1.56544 -0.252969,4.458194 -0.43749,6.151634 -0.184521,1.69344 -0.386149,2.185953 -0.886139,2.968677 -0.499989,0.782723 -1.298322,1.855597 -2.1495,2.843679 -0.851178,0.988082 -1.756645,1.891313 -2.703058,2.718684 -0.946414,0.827369 -1.934466,1.578077 -2.624935,2.09593 -0.69047,0.517852 -1.082558,0.802804 -1.323629,0.939709 -0.241069,0.136904 -0.330345,0.125741 -0.48213,0.05134 -0.151786,-0.0744 -0.366804,-0.211303 -1.212023,-0.848194 -0.845223,-0.636892 -2.320616,-1.773756 -3.555719,-2.910644 -1.235102,-1.136889 -2.228357,-2.274487 -2.957515,-3.265544 -0.729158,-0.991058 -1.194163,-1.834768 -1.479875,-2.370478 -0.285711,-0.535709 -0.392846,-0.763372 -0.526773,-2.245479 -0.133926,-1.482109 -0.294634,-4.220107 -0.383918,-5.776644 -0.08929,-1.556536 -0.106398,-1.930008 -0.08259,-2.165124 0.02381,-0.235117 0.08854,-0.330348 0.618289,-0.892835 0.52975,-0.562489 1.523018,-1.5937 2.153965,-2.200839 0.630946,-0.607138 0.899531,-0.791647 1.033456,-0.883907 0.133925,-0.09226 0.134669,-0.09226 0.122764,-0.0625 -0.0119,0.02976 -0.0372,0.08929 -0.433025,0.723196 -0.395822,0.633911 -1.163653,1.842949 -1.589246,2.506635 -0.425593,0.663686 -0.508171,0.783462 -0.546862,0.863818 -0.03869,0.08035 -0.03199,0.120532 0.05134,1.093722 0.08333,0.973191 0.244041,2.87863 0.38392,4.060167 0.139879,1.181539 0.25892,1.64058 0.366062,1.988791 0.107141,0.34821 0.201631,0.584805 0.377222,0.959798 0.175593,0.374992 0.430791,0.888366 0.966495,1.602638 0.535704,0.714274 1.351893,1.63016 1.979862,2.287891 0.627969,0.65773 1.067678,1.057261 1.609335,1.479873 0.541658,0.422613 1.184488,0.867535 1.741028,1.218721 0.556541,0.351184 1.02676,0.607872 1.303539,0.738821 0.276781,0.130948 0.360853,0.136156 0.497756,0.09151 0.136903,-0.04464 0.326626,-0.138387 0.725429,-0.379455 0.398803,-0.241067 1.005921,-0.628701 1.607103,-1.060242 0.601182,-0.43154 1.197881,-0.908454 1.825848,-1.49773 0.627966,-0.589277 1.287907,-1.290139 1.832544,-1.932989 0.544636,-0.642848 0.973185,-1.226153 1.249969,-1.660673 0.276783,-0.434518 0.401774,-0.720217 0.562486,-1.142829 0.160711,-0.422611 0.356387,-0.9836 0.555789,-2.281192 0.199402,-1.297593 0.403261,-3.333231 0.495524,-4.401678 0.09226,-1.068447 0.07366,-1.169614 -0.337045,-1.812454 -0.410703,-0.642842 -1.213504,-1.827324 -1.671834,-2.526724 -0.45833,-0.699399 -0.572903,-0.91218 -0.602663,-1.004439 -0.0074,-0.02306 -0.0096,-0.03818 0,-0.04018 z" /></g></g></g></svg>
