<?xml version="1.0" encoding="UTF-8" standalone="no"?>
<svg
   width="256"
   height="256"
   version="1.1"
   id="svg10"
   sodipodi:docname="tf2.svg"
   inkscape:version="1.4.1 (93de688d07, 2025-03-30)"
   xmlns:inkscape="http://www.inkscape.org/namespaces/inkscape"
   xmlns:sodipodi="http://sodipodi.sourceforge.net/DTD/sodipodi-0.dtd"
   xmlns="http://www.w3.org/2000/svg"
   xmlns:svg="http://www.w3.org/2000/svg">
  <sodipodi:namedview
     id="namedview10"
     pagecolor="#505050"
     bordercolor="#eeeeee"
     borderopacity="1"
     inkscape:showpageshadow="0"
     inkscape:pageopacity="0"
     inkscape:pagecheckerboard="0"
     inkscape:deskcolor="#505050"
     inkscape:zoom="4.5039063"
     inkscape:cx="128"
     inkscape:cy="128"
     inkscape:window-width="1660"
     inkscape:window-height="1287"
     inkscape:window-x="0"
     inkscape:window-y="0"
     inkscape:window-maximized="1"
     inkscape:current-layer="svg10" />
  <defs
     id="defs7">
    <linearGradient
       id="linearGradient31"
       x1=".5002"
       x2=".5002"
       y2="1"
       gradientTransform="matrix(244,0,0,228,5.986,12)"
       gradientUnits="userSpaceOnUse">
      <stop
         stop-color="#ebdbb2"
         stop-opacity=".2"
         offset="0"
         id="stop1" />
      <stop
         stop-color="#ebdbb2"
         stop-opacity=".05"
         offset=".1"
         id="stop2" />
      <stop
         stop-opacity="0"
         offset=".7036"
         id="stop3" />
      <stop
         stop-opacity=".1"
         offset=".8975"
         id="stop4" />
      <stop
         stop-opacity=".2"
         offset="1"
         id="stop5" />
    </linearGradient>
    <linearGradient
       id="linearGradient6"
       x1="140"
       x2="140"
       y1="12"
       y2="240"
       gradientUnits="userSpaceOnUse">
      <stop
         stop-color="#fe8019"
         offset="0"
         id="stop6" />
      <stop
         stop-color="#d65d0e"
         offset="1"
         id="stop7" />
    </linearGradient>
  </defs>
  <path
     d="m165 12c72 0 85 15 85 87v56c0 70-13 85-85 85h-74c-72 0-85-15-85-85v-56c0-72 13-87 85-87z"
     fill="url(#linearGradient6)"
     style="isolation:isolate"
     id="path7" />
  <path
     d="m135.42 52.295a79.058 79.058 0 0 0-79.253 45.805l39.28 10.524a39.529 39.529 0 0 1 29.449-17.017zm25.449 6.8707-10.53 39.28a39.529 39.529 0 0 1 17.017 29.449l39.301 10.531a79.058 79.058 0 0 0-45.805-79.253zm-111.53 64.372a79.058 79.058 0 0 0 45.805 79.253l10.524-39.28a39.529 39.529 0 0 1-17.017-29.449zm111.21 29.796a39.529 39.529 0 0 1-29.449 17.028l-10.531 39.291a79.058 79.058 0 0 0 79.253-45.794z"
     fill="#282828"
     opacity=".3"
     stroke-width="13.18"
     style="isolation:isolate"
     id="path8" />
  <path
     d="m135.42 47.322a79.058 79.058 0 0 0-79.253 45.805l39.28 10.524a39.529 39.529 0 0 1 29.449-17.017zm25.449 6.8707-10.53 39.28a39.529 39.529 0 0 1 17.017 29.449l39.301 10.531a79.058 79.058 0 0 0-45.805-79.253zm-111.53 64.372a79.058 79.058 0 0 0 45.805 79.253l10.524-39.28a39.529 39.529 0 0 1-17.017-29.449zm111.21 29.796a39.529 39.529 0 0 1-29.449 17.028l-10.531 39.291a79.058 79.058 0 0 0 79.253-45.794z"
     fill="#ebdbb2"
     stroke-width="13.18"
     style="isolation:isolate"
     id="path9" />
  <path
     d="m91 12c-72 0-85 15-85 87v56c0 70 13 85 85 85h74c72 0 85-15 85-85v-56c0-72-13-87-85-87zm0 4h74c68 0 80 15 80 83v56c0 66-12 81-80 81h-74c-68 0-80-15-80-81v-56c0-68 12-83 80-83z"
     fill="url(#linearGradient31)"
     style="isolation:isolate"
     id="path10" />
</svg>
