<?xml version="1.0" encoding="UTF-8" standalone="no"?>
<!-- Created with Inkscape (http://www.inkscape.org/) -->

<svg
   width="120"
   height="120"
   viewBox="0 0 120 120"
   version="1.1"
   id="svg1"
   xml:space="preserve"
   inkscape:version="1.4.1 (93de688d07, 2025-03-30)"
   sodipodi:docname="thpro12.svg"
   xmlns:inkscape="http://www.inkscape.org/namespaces/inkscape"
   xmlns:sodipodi="http://sodipodi.sourceforge.net/DTD/sodipodi-0.dtd"
   xmlns="http://www.w3.org/2000/svg"
   xmlns:svg="http://www.w3.org/2000/svg"><sodipodi:namedview
     id="namedview1"
     pagecolor="#1f1f1f"
     bordercolor="#000000"
     borderopacity="0.25"
     inkscape:showpageshadow="2"
     inkscape:pageopacity="0.0"
     inkscape:pagecheckerboard="0"
     inkscape:deskcolor="#3c3c3c"
     inkscape:document-units="px"
     inkscape:zoom="8.0000001"
     inkscape:cx="65.999999"
     inkscape:cy="49.9375"
     inkscape:window-width="1660"
     inkscape:window-height="1287"
     inkscape:window-x="0"
     inkscape:window-y="0"
     inkscape:window-maximized="1"
     inkscape:current-layer="layer3" /><defs
     id="defs1"><inkscape:path-effect
       effect="bspline"
       id="path-effect14"
       is_visible="true"
       lpeversion="1.3"
       weight="33.333333"
       steps="2"
       helper_size="0"
       apply_no_weight="true"
       apply_with_weight="true"
       only_selected="false"
       uniform="false" /><inkscape:path-effect
       effect="fillet_chamfer"
       id="path-effect5"
       is_visible="true"
       lpeversion="1"
       nodesatellites_param="F,0,0,1,0,37.022737,0,1 @ F,0,0,1,0,36.062445,0,1 @ F,0,0,1,0,35.528974,0,1 @ F,0,0,1,0,28.991378,0,1"
       radius="0"
       unit="px"
       method="auto"
       mode="F"
       chamfer_steps="1"
       flexible="false"
       use_knot_distance="true"
       apply_no_radius="true"
       apply_with_radius="true"
       only_selected="false"
       hide_knots="false" /><inkscape:path-effect
       effect="bspline"
       id="path-effect4"
       is_visible="true"
       lpeversion="1.3"
       weight="33.333333"
       steps="2"
       helper_size="0"
       apply_no_weight="true"
       apply_with_weight="true"
       only_selected="false"
       uniform="false" /><inkscape:path-effect
       effect="bspline"
       id="path-effect3"
       is_visible="true"
       lpeversion="1.3"
       weight="33.333333"
       steps="2"
       helper_size="0"
       apply_no_weight="true"
       apply_with_weight="true"
       only_selected="false"
       uniform="false" /><inkscape:path-effect
       effect="mirror_symmetry"
       start_point="59.977887,81.781355"
       end_point="59.977887,112.27285"
       center_point="59.977887,97.027103"
       id="path-effect9"
       is_visible="true"
       lpeversion="1.2"
       lpesatellites=""
       mode="free"
       discard_orig_path="false"
       fuse_paths="false"
       oposite_fuse="false"
       split_items="false"
       split_open="false"
       link_styles="false" /><inkscape:path-effect
       effect="mirror_symmetry"
       start_point="59.944658,10.409945"
       end_point="59.944658,50.039614"
       center_point="59.944658,30.22478"
       id="path-effect2"
       is_visible="true"
       lpeversion="1.2"
       lpesatellites=""
       mode="free"
       discard_orig_path="false"
       fuse_paths="false"
       oposite_fuse="false"
       split_items="false"
       split_open="false"
       link_styles="false" /><inkscape:path-effect
       effect="mirror_symmetry"
       start_point="59.948435,66.805114"
       end_point="59.948435,107.38004"
       center_point="59.948435,87.092577"
       id="path-effect8"
       is_visible="true"
       lpeversion="1.2"
       lpesatellites=""
       mode="free"
       discard_orig_path="false"
       fuse_paths="false"
       oposite_fuse="false"
       split_items="false"
       split_open="false"
       link_styles="false" /><inkscape:path-effect
       effect="mirror_symmetry"
       start_point="60.801511,9.4541705"
       end_point="60.801511,40.169132"
       center_point="60.801511,24.811651"
       id="path-effect7"
       is_visible="true"
       lpeversion="1.2"
       lpesatellites=""
       mode="free"
       discard_orig_path="false"
       fuse_paths="false"
       oposite_fuse="false"
       split_items="false"
       split_open="false"
       link_styles="false" /><inkscape:path-effect
       effect="fillet_chamfer"
       id="path-effect13"
       is_visible="true"
       lpeversion="1"
       nodesatellites_param="F,0,0,1,0,4.7467821,0,1 @ F,0,0,1,0,4.0515277,0,1 @ F,0,0,1,0,0,0,1 @ F,0,0,1,0,2.4219461,0,1 @ F,0,0,1,0,2.4960577,0,1 @ F,0,0,1,0,0,0,1 @ F,0,0,1,0,4.1062831,0,1"
       radius="0"
       unit="px"
       method="auto"
       mode="F"
       chamfer_steps="1"
       flexible="false"
       use_knot_distance="true"
       apply_no_radius="true"
       apply_with_radius="true"
       only_selected="false"
       hide_knots="false" /><inkscape:path-effect
       effect="fillet_chamfer"
       id="path-effect12"
       is_visible="true"
       lpeversion="1"
       nodesatellites_param="F,0,0,1,0,0,0,1 @ F,0,0,1,0,0,0,1 @ F,0,0,1,0,0,0,1 @ F,0,0,1,0,0,0,1 @ F,0,0,1,0,3.627665,0,1 @ F,0,0,1,0,0,0,1 @ F,0,0,1,0,0,0,1"
       radius="0"
       unit="px"
       method="auto"
       mode="F"
       chamfer_steps="1"
       flexible="false"
       use_knot_distance="true"
       apply_no_radius="true"
       apply_with_radius="true"
       only_selected="false"
       hide_knots="false" /><inkscape:path-effect
       effect="fillet_chamfer"
       id="path-effect11"
       is_visible="true"
       lpeversion="1"
       nodesatellites_param="F,0,0,1,0,2.9729248,0,1 @ F,0,0,1,0,3.8975858,0,1 @ F,0,0,1,0,0,0,1 @ F,0,1,1,0,3.784373,0,1 @ F,0,0,1,0,1.4792147,0,1 @ F,0,0,1,0,0,0,1 @ F,0,0,1,0,3.784373,0,1"
       radius="0"
       unit="px"
       method="auto"
       mode="F"
       chamfer_steps="1"
       flexible="false"
       use_knot_distance="true"
       apply_no_radius="true"
       apply_with_radius="true"
       only_selected="false"
       hide_knots="false" /><linearGradient
       id="linearGradient6"><stop
         style="stop-color:#c88500;stop-opacity:1;"
         offset="0.07163448"
         id="stop8" /><stop
         style="stop-color:#fff300;stop-opacity:1;"
         offset="1"
         id="stop9" /></linearGradient><linearGradient
       id="linearGradient6-1"><stop
         style="stop-color:#c88500;stop-opacity:1;"
         offset="0"
         id="stop6" /><stop
         style="stop-color:#fff300;stop-opacity:1;"
         offset="1"
         id="stop7" /></linearGradient><inkscape:path-effect
       effect="fillet_chamfer"
       id="path-effect1"
       is_visible="true"
       lpeversion="1"
       nodesatellites_param="F,0,0,1,0,24.536157,0,1 @ F,0,0,1,0,24.004899,0,1 @ F,0,0,1,0,23.651152,0,1 @ F,0,0,1,0,24.380791,0,1"
       radius="0"
       unit="px"
       method="auto"
       mode="F"
       chamfer_steps="1"
       flexible="false"
       use_knot_distance="true"
       apply_no_radius="true"
       apply_with_radius="true"
       only_selected="false"
       hide_knots="false" /><linearGradient
       id="a"
       x1="7.937"
       x2="7.937"
       y1="15.081"
       y2="1.852"
       gradientTransform="scale(3.7796)"
       gradientUnits="userSpaceOnUse"><stop
         offset="0"
         stop-color="#9b6f27"
         id="stop1" /><stop
         offset="1"
         stop-color="#d0ab6a"
         id="stop2" /></linearGradient><filter
       id="b"
       width="1.216"
       height="1.216"
       x="-0.108"
       y="-0.108"
       color-interpolation-filters="sRGB"><feGaussianBlur
         stdDeviation="1.35"
         id="feGaussianBlur2" /></filter><linearGradient
       id="linearGradient31"
       x1=".5002"
       x2=".5002"
       y2="1"
       gradientTransform="matrix(244,0,0,228,5.986,12)"
       gradientUnits="userSpaceOnUse"><stop
         stop-color="#ebdbb2"
         stop-opacity=".2"
         offset="0"
         id="stop1-5" /><stop
         stop-color="#ebdbb2"
         stop-opacity=".05"
         offset=".1"
         id="stop2-6" /><stop
         stop-opacity="0"
         offset=".7036"
         id="stop3" /><stop
         stop-opacity=".1"
         offset=".8975"
         id="stop4" /><stop
         stop-opacity=".2"
         offset="1"
         id="stop5" /></linearGradient><inkscape:path-effect
       effect="bspline"
       id="path-effect4-6"
       is_visible="true"
       lpeversion="1.3"
       weight="33.333333"
       steps="2"
       helper_size="0"
       apply_no_weight="true"
       apply_with_weight="true"
       only_selected="false"
       uniform="false" /><inkscape:path-effect
       effect="bspline"
       id="path-effect3-8"
       is_visible="true"
       lpeversion="1.3"
       weight="33.333333"
       steps="2"
       helper_size="0"
       apply_no_weight="true"
       apply_with_weight="true"
       only_selected="false"
       uniform="false" /><inkscape:path-effect
       effect="mirror_symmetry"
       start_point="59.977887,81.781355"
       end_point="59.977887,112.27285"
       center_point="59.977887,97.027103"
       id="path-effect9-8"
       is_visible="true"
       lpeversion="1.2"
       lpesatellites=""
       mode="free"
       discard_orig_path="false"
       fuse_paths="false"
       oposite_fuse="false"
       split_items="false"
       split_open="false"
       link_styles="false" /><inkscape:path-effect
       effect="mirror_symmetry"
       start_point="59.944658,10.409945"
       end_point="59.944658,50.039614"
       center_point="59.944658,30.22478"
       id="path-effect2-4"
       is_visible="true"
       lpeversion="1.2"
       lpesatellites=""
       mode="free"
       discard_orig_path="false"
       fuse_paths="false"
       oposite_fuse="false"
       split_items="false"
       split_open="false"
       link_styles="false" /><inkscape:path-effect
       effect="mirror_symmetry"
       start_point="59.948435,66.805114"
       end_point="59.948435,107.38004"
       center_point="59.948435,87.092577"
       id="path-effect8-3"
       is_visible="true"
       lpeversion="1.2"
       lpesatellites=""
       mode="free"
       discard_orig_path="false"
       fuse_paths="false"
       oposite_fuse="false"
       split_items="false"
       split_open="false"
       link_styles="false" /><inkscape:path-effect
       effect="mirror_symmetry"
       start_point="60.801511,9.4541705"
       end_point="60.801511,40.169132"
       center_point="60.801511,24.811651"
       id="path-effect7-1"
       is_visible="true"
       lpeversion="1.2"
       lpesatellites=""
       mode="free"
       discard_orig_path="false"
       fuse_paths="false"
       oposite_fuse="false"
       split_items="false"
       split_open="false"
       link_styles="false" /><inkscape:path-effect
       effect="fillet_chamfer"
       id="path-effect13-4"
       is_visible="true"
       lpeversion="1"
       nodesatellites_param="F,0,0,1,0,4.7467821,0,1 @ F,0,0,1,0,4.0515277,0,1 @ F,0,0,1,0,0,0,1 @ F,0,0,1,0,2.4219461,0,1 @ F,0,0,1,0,2.4960577,0,1 @ F,0,0,1,0,0,0,1 @ F,0,0,1,0,4.1062831,0,1"
       radius="0"
       unit="px"
       method="auto"
       mode="F"
       chamfer_steps="1"
       flexible="false"
       use_knot_distance="true"
       apply_no_radius="true"
       apply_with_radius="true"
       only_selected="false"
       hide_knots="false" /><inkscape:path-effect
       effect="fillet_chamfer"
       id="path-effect12-9"
       is_visible="true"
       lpeversion="1"
       nodesatellites_param="F,0,0,1,0,0,0,1 @ F,0,0,1,0,0,0,1 @ F,0,0,1,0,0,0,1 @ F,0,0,1,0,0,0,1 @ F,0,0,1,0,3.627665,0,1 @ F,0,0,1,0,0,0,1 @ F,0,0,1,0,0,0,1"
       radius="0"
       unit="px"
       method="auto"
       mode="F"
       chamfer_steps="1"
       flexible="false"
       use_knot_distance="true"
       apply_no_radius="true"
       apply_with_radius="true"
       only_selected="false"
       hide_knots="false" /><inkscape:path-effect
       effect="fillet_chamfer"
       id="path-effect11-2"
       is_visible="true"
       lpeversion="1"
       nodesatellites_param="F,0,0,1,0,2.9729248,0,1 @ F,0,0,1,0,3.8975858,0,1 @ F,0,0,1,0,0,0,1 @ F,0,1,1,0,3.784373,0,1 @ F,0,0,1,0,1.4792147,0,1 @ F,0,0,1,0,0,0,1 @ F,0,0,1,0,3.784373,0,1"
       radius="0"
       unit="px"
       method="auto"
       mode="F"
       chamfer_steps="1"
       flexible="false"
       use_knot_distance="true"
       apply_no_radius="true"
       apply_with_radius="true"
       only_selected="false"
       hide_knots="false" /><inkscape:path-effect
       effect="fillet_chamfer"
       id="path-effect1-2"
       is_visible="true"
       lpeversion="1"
       nodesatellites_param="F,0,0,1,0,24.536157,0,1 @ F,0,0,1,0,24.004899,0,1 @ F,0,0,1,0,23.651152,0,1 @ F,0,0,1,0,24.380791,0,1"
       radius="0"
       unit="px"
       method="auto"
       mode="F"
       chamfer_steps="1"
       flexible="false"
       use_knot_distance="true"
       apply_no_radius="true"
       apply_with_radius="true"
       only_selected="false"
       hide_knots="false" /><filter
       id="b-9"
       width="1.216"
       height="1.216"
       x="-0.108"
       y="-0.108"
       color-interpolation-filters="sRGB"><feGaussianBlur
         stdDeviation="1.35"
         id="feGaussianBlur2-5" /></filter></defs><g
     inkscape:groupmode="layer"
     id="layer3"
     inkscape:label="base"><path
       d="m 76.476937,9.2332248 c 32.063223,0 37.852423,6.6798392 37.852423,38.7430672 v 24.938066 c 0,31.172592 -5.7892,37.852422 -37.852423,37.852422 H 43.523063 c -32.063227,0 -37.8524214,-6.67983 -37.8524214,-37.852422 V 47.976292 c 0,-32.063228 5.7891944,-38.7430672 37.8524214,-38.7430672 z"
       fill="#ebdbb2"
       style="display:inline;opacity:1;isolation:isolate;stroke-width:0.445323;fill:#1d2021;fill-opacity:1"
       id="path5" /><g
       id="g1"
       transform="matrix(0.86497996,0,0,0.86497996,7.8970977,8.1632359)"><g
         id="layer2"
         inkscape:label="Layer 2"
         style="opacity:1"><path
           style="opacity:1;fill:#eeeeee;fill-opacity:0;stroke-width:0.965576"
           id="rect1"
           width="104.6141"
           height="104.75148"
           x="7.5219741"
           y="7.4503703"
           inkscape:path-effect="#path-effect1-2"
           sodipodi:type="rect"
           d="M 32.058131,7.4503703 H 88.131173 A 24.004899,24.004899 45 0 1 112.13607,31.455269 V 88.550698 A 23.651152,23.651152 135 0 1 88.48492,112.20185 H 31.902765 A 24.380791,24.380791 45 0 1 7.5219741,87.821059 V 31.986527 A 24.536157,24.536157 135 0 1 32.058131,7.4503703 Z"
           transform="translate(0.40694183)" /><path
           id="path1"
           style="fill:#f6eedb;fill-opacity:1;fill-rule:evenodd;stroke-width:1.51107"
           d="m 61.930245,7.5938865 c -0.219613,0.00696 -0.388526,0.089516 -0.523526,0.2250057 -0.135001,0.1354864 -0.234463,0.3243127 -0.260651,0.5079322 -0.02619,0.1836194 0.02127,0.3628155 0.233917,0.6014996 0.212651,0.238684 0.590678,0.5362218 0.935666,0.7552154 0.344988,0.2189946 0.657593,0.3587456 0.97131,0.5435776 0.313718,0.184831 0.627666,0.414063 0.797543,0.594816 0.169877,0.180754 0.196193,0.31431 0.169311,0.461149 -0.02688,0.146839 -0.108017,0.307047 -0.311889,0.4812 -0.203866,0.174152 -0.531878,0.361741 -0.735165,0.543578 -0.203288,0.181835 -0.280886,0.357934 -0.291839,0.532438 -0.01095,0.174502 0.04587,0.347096 0.162628,0.597043 0.116765,0.249948 0.293994,0.577469 0.510161,0.982449 0.216166,0.404981 0.470945,0.88781 0.746304,1.289883 0.275359,0.402071 0.570487,0.724759 0.873288,1.067104 0.302801,0.342344 0.614058,0.705198 0.842099,1.022548 0.22804,0.317351 0.373242,0.58921 0.463377,0.773038 0.09013,0.183829 0.123655,0.278945 0.07129,0.385406 -0.05237,0.106465 -0.189875,0.223794 -0.280698,0.510159 -0.09082,0.286367 -0.135049,0.740626 -0.173767,1.113889 -0.03872,0.373261 -0.07219,0.665223 -0.258422,0.982448 -0.186229,0.317225 -0.523721,0.661443 -0.777494,1.042599 -0.253772,0.381156 -0.425264,0.798516 -0.561398,1.136165 -0.136137,0.33765 -0.237413,0.595109 -0.25174,0.804228 -0.01433,0.209119 0.05926,0.371302 0.142578,0.523526 0.08332,0.152226 0.174993,0.293264 0.225005,0.418822 0.05002,0.125558 0.05767,0.234662 0.04901,0.331939 -0.0087,0.09727 -0.03368,0.183459 -0.184905,0.490111 -0.151221,0.30665 -0.427096,0.834742 -1.185177,2.40377 -0.75808,1.569026 -1.99621,4.179693 -2.691153,5.649638 -0.694941,1.469943 -0.84817,1.799385 -0.993588,2.10302 -0.145416,0.303632 -0.285089,0.579711 -0.392087,0.773037 -0.107002,0.193326 -0.181321,0.302756 -0.222778,0.425505 -0.04145,0.122747 -0.04848,0.260265 -0.01783,0.367583 0.03066,0.107321 0.100717,0.185265 0.09134,0.347533 -0.0094,0.162267 -0.0995,0.407968 -0.240599,0.793088 -0.141101,0.385119 -0.333341,0.907841 -0.617094,1.539393 -0.283755,0.631551 -0.658579,1.371444 -0.931211,1.938164 -0.27263,0.566719 -0.444403,0.961587 -0.563627,1.243098 -0.119223,0.281511 -0.184738,0.450134 -0.251738,0.626005 -0.067,0.17587 -0.134924,0.358471 -0.251739,0.456694 -0.116815,0.09822 -0.283646,0.111975 -0.507932,0.07797 -0.224287,-0.034 -0.505522,-0.114513 -0.964627,-0.0401 -0.459106,0.07441 -1.096411,0.303882 -1.570582,0.530211 -0.47417,0.22633 -0.784956,0.449439 -1.053737,0.668333 -0.268781,0.218893 -0.494833,0.433853 -0.775267,0.842099 -0.280433,0.408244 -0.617168,1.008795 -0.913387,1.62182 -0.296218,0.613026 -0.552019,1.239306 -0.746305,1.670832 -0.194286,0.431525 -0.326999,0.668671 -0.463377,0.81982 -0.136378,0.151152 -0.277379,0.215718 -0.456694,0.19159 -0.179314,-0.02414 -0.396768,-0.137209 -0.732939,-0.274017 -0.336169,-0.136807 -0.790898,-0.297774 -1.207453,-0.394316 -0.416555,-0.09654 -0.793936,-0.128345 -1.283199,-0.115844 -0.489263,0.01249 -1.089617,0.06975 -1.592858,0.151488 -0.503242,0.08173 -0.90911,0.187671 -1.336667,0.309661 -0.427556,0.12199 -0.876777,0.26053 -1.265376,0.387633 -0.388598,0.127103 -0.716631,0.241501 -0.966854,0.311889 -0.250223,0.07039 -0.422608,0.0955 -0.608183,0.0802 -0.185573,-0.01531 -0.385435,-0.06963 -0.507933,-0.182677 -0.122496,-0.113047 -0.167211,-0.284568 -0.138121,-0.527983 0.0291,-0.243416 0.13242,-0.560049 0.247283,-0.924527 0.114862,-0.364479 0.241147,-0.777341 0.329711,-1.200771 0.08856,-0.42343 0.139892,-0.856652 0.149261,-1.265376 0.0094,-0.408724 -0.02383,-0.791722 -0.162629,-1.276516 C 39.578284,45.954809 39.334568,45.367769 39.035393,44.826694 38.736219,44.285617 38.381634,43.789907 37.992794,43.4076 37.603955,43.025294 37.179745,42.757102 36.887818,42.569957 36.59589,42.382813 36.437313,42.277113 36.328646,42.08653 36.219979,41.895947 36.162034,41.621422 36.083592,41.373642 36.005142,41.125861 35.906479,40.905652 35.77393,40.691943 35.641381,40.478234 35.474134,40.270135 35.245948,40.019154 35.017761,39.768172 34.728588,39.4723 34.450632,39.26171 34.172676,39.051122 33.90706,38.924995 33.726606,38.833978 c -0.180456,-0.09102 -0.276004,-0.146012 -0.347534,-0.209412 -0.07153,-0.0634 -0.118744,-0.133791 -0.142577,-0.16931 -0.02384,-0.03552 -0.02481,-0.03705 -0.527984,-0.142577 -0.503172,-0.10553 -1.509379,-0.314958 -2.305746,-0.367584 -0.796368,-0.05263 -1.383511,0.0525 -2.314659,0.4411 -0.931148,0.388593 -2.206138,1.059533 -3.056508,1.73321 -0.850369,0.673677 -1.274988,1.350409 -1.503748,2.290152 -0.22876,0.939743 -0.260916,2.143848 -0.07351,3.16344 0.187399,1.019593 0.594529,1.855331 1.053738,2.581993 0.459209,0.72666 0.969596,1.343093 1.657464,1.933708 0.68787,0.590616 1.553554,1.154258 2.212181,1.635188 0.658627,0.48093 1.110713,0.878918 1.485927,1.18072 0.375215,0.301802 0.672287,0.50795 0.928982,0.588133 0.256694,0.08019 0.473016,0.03429 0.717343,0.111393 0.244328,0.07709 0.516259,0.276076 0.675016,0.603727 0.158756,0.327652 0.203363,0.783899 0.187133,1.142849 -0.01623,0.358951 -0.093,0.620136 -0.207184,0.82205 -0.114178,0.201913 -0.265324,0.344733 -0.661649,0.623776 -0.396322,0.279043 -1.037073,0.694409 -1.637414,1.15176 -0.600341,0.457351 -1.161203,0.957995 -1.744348,1.439143 -0.583145,0.481148 -1.188975,0.943354 -1.597315,1.341121 -0.40834,0.397765 -0.61816,0.731046 -0.739621,1.436915 -0.121461,0.705868 -0.153576,1.784946 -0.122528,2.729025 0.03105,0.944077 0.125101,1.751139 0.245056,2.25228 0.119953,0.501141 0.265699,0.696052 0.265104,1.269832 -5.94e-4,0.57378 -0.148632,1.526793 -0.323026,3.01418 -0.174395,1.487386 -0.376696,3.510098 -0.432189,4.558028 -0.05549,1.047929 0.03649,1.120502 0.318572,1.174038 0.282075,0.05353 0.754057,0.08608 1.027003,0.155944 0.272947,0.06987 0.346299,0.177988 0.369811,0.828732 0.02352,0.650745 -0.0017,1.844394 -0.0557,4.609267 -0.05394,2.764872 -0.134752,7.10173 -0.207184,10.002711 -0.07243,2.900982 -0.136277,4.36573 -0.12921,5.299878 0.0071,0.93415 0.0851,1.337452 0.102473,1.646325 0.01738,0.308887 -0.02733,0.523147 -0.1604,0.770817 -0.13307,0.24766 -0.355683,0.52801 -0.583676,0.92007 -0.227994,0.39204 -0.459536,0.8972 -0.663877,1.34557 -0.204343,0.44838 -0.380845,0.84004 -0.4812,1.22528 -0.100352,0.38524 -0.124564,0.76369 -0.113618,1.38345 0.01095,0.61974 0.05647,1.48088 0.06461,2.09634 0.0081,0.61544 -0.02289,0.98413 0.04456,1.34334 0.06744,0.3592 0.233802,0.70852 0.412138,1.11388 0.178336,0.40537 0.370458,0.86767 0.570311,1.20078 0.199854,0.33311 0.407133,0.5364 0.568083,0.63492 0.160949,0.0986 0.273965,0.0924 0.401,0.0179 0.127033,-0.0746 0.267612,-0.21696 0.343077,-0.31189 0.07546,-0.0949 0.08663,-0.14287 0.158172,0.0114 0.07154,0.15402 0.203663,0.50951 0.354216,0.71734 0.150554,0.20781 0.318852,0.26709 0.46115,0.21164 0.142297,-0.0554 0.259112,-0.22478 0.325255,-0.401 0.06615,-0.17623 0.08293,-0.35807 0.06237,-0.64829 -0.02057,-0.29021 -0.0782,-0.68861 -0.106933,-1.02923 -0.02872,-0.34061 -0.02836,-0.62391 0.01783,-0.79309 0.04618,-0.16917 0.13863,-0.22451 0.245055,-0.0624 0.106432,0.16213 0.226934,0.54275 0.336395,0.89111 0.109454,0.34836 0.207801,0.66359 0.327482,0.9067 0.119681,0.24313 0.259126,0.41302 0.354217,0.38096 0.09509,-0.032 0.146029,-0.26523 0.158172,-0.55918 0.01214,-0.29394 -0.0138,-0.64835 -0.06016,-0.92898 -0.04634,-0.28062 -0.115153,-0.48732 -0.104709,-0.66833 0.01049,-0.18102 0.100307,-0.33622 0.198272,-0.52352 0.09796,-0.18731 0.204052,-0.40712 0.274017,-0.69063 0.06997,-0.2835 0.103398,-0.63089 0.06907,-1.15842 -0.03434,-0.52754 -0.134848,-1.23494 -0.129211,-1.72654 0.0056,-0.4916 0.116977,-0.768 0.20941,-1.24087 0.09242,-0.47288 0.164458,-1.1434 0.158172,-1.84906 -0.0063,-0.70564 -0.09116,-1.44456 -0.04233,-2.430491 0.04884,-0.985943 0.231161,-2.217756 0.554716,-3.95876 0.323556,-1.741005 0.788442,-3.992987 1.165127,-6.231087 0.376686,-2.238099 0.666712,-4.461782 0.91116,-6.471687 0.244448,-2.009906 0.443306,-3.804293 0.554716,-4.787489 0.111404,-0.983196 0.135722,-1.156391 0.213866,-1.289882 0.07814,-0.133491 0.211753,-0.228809 0.363128,-0.256194 0.151374,-0.02739 0.318599,0.01306 0.46115,0.155945 0.142549,0.142889 0.259483,0.389836 0.621548,1.198542 0.362065,0.808706 0.970436,2.179435 1.292111,2.985219 0.321674,0.805784 0.356877,1.04582 0.365354,1.347804 0.0084,0.301983 -0.0096,0.666805 0.04455,1.151759 0.05409,0.484956 0.181012,1.089439 0.394317,1.570582 0.213305,0.481143 0.512341,0.837699 0.857693,1.044827 0.345352,0.207128 0.736855,0.26583 1.136166,0.323027 0.39931,0.0572 0.807485,0.113606 1.162898,0.193816 0.355412,0.08021 0.656903,0.184057 0.906704,0.329712 0.249802,0.145655 0.447557,0.334013 0.806455,0.603727 0.358898,0.269713 0.880023,0.620265 1.383448,0.91116 0.503427,0.290894 0.987602,0.520592 1.505977,0.717343 0.518374,0.196752 1.070074,0.361132 1.748803,0.530211 0.67873,0.169078 1.486228,0.342964 2.372581,0.398771 0.886353,0.05581 1.851527,-0.008 2.575307,-0.100249 0.723781,-0.0922 1.205615,-0.212242 1.619594,-0.354215 0.413979,-0.141973 0.759086,-0.304914 1.098294,-0.550261 0.339206,-0.245347 0.672276,-0.572059 1.078242,-0.853238 0.405966,-0.281179 0.886291,-0.517355 1.53271,-0.799771 0.646417,-0.282417 1.459227,-0.612181 2.158713,-0.984677 0.699487,-0.372497 1.285586,-0.787353 1.826777,-1.352259 0.541191,-0.564906 1.036652,-1.279033 1.463648,-2.125299 0.426996,-0.846263 0.784953,-1.825162 0.928983,-2.526296 0.144028,-0.701135 0.07432,-1.124786 0.01337,-1.724298 -0.06096,-0.599513 -0.112899,-1.374607 -0.158173,-2.439414 -0.04527,-1.064807 -0.08445,-2.418817 -0.113617,-3.718157 -0.02917,-1.299339 -0.04842,-2.542184 -0.08912,-3.446367 -0.04069,-0.904185 -0.101925,-1.46955 -0.144805,-1.935938 -0.04288,-0.466387 -0.06735,-0.835119 -0.0089,-1.04037 0.05843,-0.205254 0.199704,-0.246721 0.434417,-0.478972 0.234713,-0.232252 0.563318,-0.654905 0.93121,-1.055965 0.367892,-0.401062 0.774126,-0.781613 1.029232,-1.058194 0.255107,-0.276581 0.359342,-0.448676 0.4812,-0.539123 0.121857,-0.09044 0.261138,-0.09837 0.485655,-0.03342 0.224516,0.06495 0.533901,0.201061 1.102749,0.445556 0.568845,0.244495 1.398526,0.597196 1.871331,0.853237 0.472804,0.256042 0.587255,0.417024 0.69061,0.563628 0.103352,0.146603 0.196313,0.277956 0.784177,0.401 0.587865,0.123043 1.672458,0.237068 2.91393,0.376494 1.241471,0.139425 2.63971,0.303536 3.513201,0.407683 0.873492,0.10415 1.222115,0.147571 1.441372,0.16931 0.219255,0.02174 0.30771,0.02186 0.383177,0.09134 0.07546,0.06948 0.136382,0.210268 0.240599,0.323027 0.104218,0.112762 0.252425,0.198657 0.572538,0.271789 0.320113,0.07314 0.81363,0.132907 1.205227,0.233917 0.391597,0.101014 0.681655,0.243014 1.042598,0.485655 0.360944,0.24264 0.792388,0.586303 1.321072,0.888882 0.528681,0.30258 1.153602,0.564534 1.886924,0.83096 0.733323,0.266427 1.575449,0.536566 2.078515,0.663878 0.503065,0.127311 0.667391,0.111438 0.828733,0.06237 0.161341,-0.04906 0.3191,-0.130614 0.432188,-0.316345 0.113093,-0.185731 0.1817,-0.476134 0.36981,-1.229732 0.188111,-0.753599 0.495417,-1.970949 0.799772,-3.121112 0.304355,-1.150164 0.605041,-2.233869 0.759671,-2.87383 0.154631,-0.639963 0.163149,-0.836535 0.18045,-1.093838 0.0173,-0.257303 0.0447,-0.574914 0.05792,-0.857694 0.01322,-0.28278 0.01189,-0.531106 0.02005,-0.715116 0.0082,-0.184008 0.0239,-0.302655 0.08021,-0.38986 0.0563,-0.0872 0.15446,-0.141578 0.236144,-0.06907 0.08168,0.07251 0.147811,0.272252 0.225006,0.545805 0.0772,0.273552 0.164752,0.620758 0.262877,0.830961 0.09813,0.2102 0.206101,0.283451 0.340849,0.278471 0.13475,-0.005 0.296582,-0.08803 0.454467,-0.238373 0.157885,-0.150341 0.313269,-0.368075 0.4411,-0.623776 0.127829,-0.255701 0.228372,-0.550422 0.287381,-0.784176 0.059,-0.233756 0.07665,-0.406921 0.07351,-0.973539 -0.0031,-0.566617 -0.02707,-1.525367 -0.153717,-2.350303 -0.126672,-0.824861 -0.357705,-1.515739 -0.581469,-2.102948 -0.223762,-0.587208 -0.441174,-1.072741 -0.634915,-1.568352 -0.193742,-0.495613 -0.363873,-1.001764 -0.507932,-1.421321 -0.144061,-0.419558 -0.261062,-0.752489 -0.345306,-0.993588 -0.08425,-0.241099 -0.135513,-0.391079 -0.1604,-0.521299 -0.02489,-0.13022 -0.02402,-0.240219 0.02451,-0.354217 0.04853,-0.113993 0.145459,-0.23073 0.193815,-0.314116 0.04836,-0.08339 0.04737,-0.133339 0.01118,-0.202728 -0.03623,-0.06938 -0.108473,-0.157996 -0.182678,-0.245055 -0.0742,-0.08705 -0.14975,-0.17261 -0.202728,-0.249511 -0.05297,-0.0769 -0.08281,-0.145939 -0.100249,-0.260649 -0.01745,-0.114711 -0.02246,-0.273771 0.01783,-0.418822 0.04028,-0.145051 0.125562,-0.276797 0.231688,-0.354217 0.106124,-0.07741 0.233184,-0.100386 0.423277,-0.01337 0.190093,0.08702 0.444058,0.285264 0.744077,0.532439 0.30002,0.247176 0.646126,0.542795 0.998043,0.703977 0.351918,0.161181 0.71025,0.188503 1.116116,0.133666 0.405866,-0.05484 0.85897,-0.19181 1.176268,-0.367583 0.31729,-0.175773 0.49819,-0.392484 0.6661,-0.646055 0.16792,-0.25357 0.32238,-0.54429 0.42551,-0.799771 0.10313,-0.25548 0.15397,-0.474504 0.12921,-0.735166 -0.0248,-0.260661 -0.12491,-0.563148 -0.27402,-0.83096 -0.1491,-0.267811 -0.34581,-0.501093 -0.51461,-0.679472 -0.16881,-0.178378 -0.30987,-0.301266 -0.46561,-0.432188 -0.15574,-0.13092 -0.326802,-0.269978 -0.53021,-0.351989 -0.203407,-0.08201 -0.438804,-0.107275 -0.681699,-0.126981 -0.242895,-0.01971 -0.492946,-0.03456 -0.657194,-0.05346 -0.164248,-0.01891 -0.24167,-0.04228 -0.327482,-0.102474 -0.08581,-0.06019 -0.180319,-0.157162 -0.372039,-0.298521 -0.19172,-0.141359 -0.481696,-0.326864 -0.779722,-0.398772 -0.298026,-0.07191 -0.603427,-0.03048 -0.855465,0.03342 -0.252039,0.06389 -0.450995,0.15112 -0.6416,0.285155 -0.190604,0.134037 -0.373684,0.317043 -0.505704,0.532439 -0.132021,0.215397 -0.212911,0.463334 -0.236144,0.663877 -0.02323,0.200543 0.0118,0.352677 0.01559,0.51016 0.0038,0.157484 -0.02357,0.319858 -0.111393,0.427733 -0.08782,0.10788 -0.237255,0.16222 -0.392088,0.08466 -0.154833,-0.07756 -0.314914,-0.28728 -0.492338,-0.425505 -0.177425,-0.138224 -0.372207,-0.205774 -0.55026,-0.227232 -0.178054,-0.02146 -0.339088,0.0031 -0.46115,-0.08242 -0.122062,-0.08548 -0.204059,-0.281059 -0.597043,-1.093837 -0.392986,-0.812778 -1.097332,-2.24206 -2.70452,-5.235272 -1.607188,-2.993212 -4.116957,-7.551306 -5.798899,-10.633171 -1.681942,-3.081864 -2.536446,-4.688464 -2.985219,-5.542704 -0.448774,-0.854242 -0.492206,-0.955837 -0.461149,-1.03146 0.03105,-0.07562 0.136938,-0.124138 0.238371,-0.158173 0.101436,-0.03404 0.197528,-0.05227 0.262878,-0.08688 0.06535,-0.03461 0.100489,-0.08722 0.06683,-0.191588 -0.03366,-0.104355 -0.135332,-0.261149 -0.249511,-0.496794 -0.114178,-0.235643 -0.241744,-0.549934 -0.294067,-0.755215 -0.05232,-0.205282 -0.02977,-0.300936 0.120302,-0.407683 0.15007,-0.106751 0.428985,-0.223121 0.650509,-0.302979 0.221525,-0.07985 0.386399,-0.124195 0.590361,-0.09802 0.203961,0.02617 0.446257,0.121203 0.75076,0.151489 0.304502,0.03028 0.670543,-0.0047 1.038144,-0.09357 0.367599,-0.08888 0.737987,-0.230859 1.009181,-0.461149 0.271196,-0.230289 0.44413,-0.548554 0.572538,-0.937894 0.12841,-0.389337 0.210989,-0.84969 0.225006,-1.229731 0.01402,-0.380042 -0.0405,-0.678798 -0.196044,-0.97131 -0.15555,-0.292513 -0.412457,-0.578751 -0.668333,-0.795315 -0.255876,-0.216567 -0.510721,-0.362672 -0.833188,-0.476745 -0.322468,-0.114073 -0.712852,-0.19705 -1.033688,-0.213866 -0.320834,-0.01682 -0.572571,0.03132 -0.759671,0.111393 -0.1871,0.08007 -0.308957,0.192541 -0.481199,0.387633 -0.172242,0.195091 -0.396396,0.472198 -0.565855,0.710661 -0.16946,0.238462 -0.284987,0.439197 -0.367583,0.657194 -0.0826,0.217995 -0.131896,0.455073 -0.149261,0.646053 -0.01736,0.190982 -7.51e-4,0.335 0.0066,0.467834 0.0074,0.132833 0.0072,0.253709 -0.02005,0.351988 -0.02717,0.09828 -0.08147,0.173873 -0.198273,0.2406 -0.116803,0.06673 -0.297168,0.124848 -0.47897,0.164856 -0.181804,0.04 -0.366063,0.06156 -0.476745,0.02672 -0.110686,-0.03483 -0.147218,-0.126024 -0.231688,-0.285155 -0.08447,-0.159131 -0.217432,-0.384609 -0.343077,-0.55026 -0.125647,-0.16565 -0.244479,-0.271705 -0.340851,-0.3208 -0.09637,-0.04909 -0.168385,-0.04126 -0.271788,-0.08912 -0.103398,-0.04785 -0.238222,-0.151612 -0.392088,-0.378721 -0.153866,-0.22711 -0.32782,-0.578019 -0.516845,-0.931211 -0.188968,-0.353166 -0.392916,-0.70809 -0.632631,-1.015839 -0.239717,-0.30775 -0.515188,-0.569603 -0.853238,-0.873288 C 70.120105,12.57712 69.720328,12.231161 69.16159,11.800335 68.602852,11.369511 67.885177,10.854136 67.147681,10.330003 66.410185,9.8058698 65.652408,9.2728713 65.133772,8.9265047 64.615135,8.5801369 64.335064,8.4217309 64.04439,8.2849054 63.753718,8.14808 63.452147,8.0333803 63.224569,7.9440559 62.996991,7.8547339 62.843604,7.790193 62.631981,7.7235055 62.420357,7.6568134 62.149845,7.5872948 61.930231,7.5942948 Z M 74.563959,26.258187 c 0.08266,-0.01437 0.25938,0.05039 0.815366,0.871061 0.635412,0.937909 1.766463,2.865244 2.350303,3.920884 0.583839,1.05564 0.619367,1.238289 0.643827,1.441371 0.02445,0.203082 0.03787,0.424969 0.03787,0.697293 0,0.272326 -0.01337,0.594698 -0.01337,0.933438 0,0.33874 0.0115,0.69445 -0.03787,0.960171 -0.04938,0.265722 -0.159115,0.442577 -0.316344,0.621549 -0.157229,0.178974 -0.360954,0.361303 -0.45001,0.476745 -0.08905,0.115442 -0.063,0.163387 0.04901,0.403226 0.111998,0.239841 0.309904,0.671504 0.409911,1.269833 0.10001,0.598329 0.102279,1.364457 0.02228,1.940392 -0.08,0.575935 -0.242625,0.960548 -0.487882,1.374538 -0.245258,0.413989 -0.572416,0.855751 -1.156216,1.439143 -0.583799,0.58339 -1.423277,1.309443 -2.290153,2.074058 -0.866877,0.764615 -1.761462,1.567907 -2.73348,2.412681 -0.972018,0.844774 -2.021705,1.730223 -2.991902,2.528525 -0.970199,0.798303 -1.862188,1.508908 -2.392631,1.893609 -0.530442,0.384701 -0.70012,0.442343 -0.842099,0.452238 -0.141979,0.0099 -0.255091,-0.02751 -0.36981,-0.07575 -0.114719,-0.04823 -0.231485,-0.105633 -0.316345,-0.265104 -0.08485,-0.159469 -0.137686,-0.419576 -0.158172,-0.626006 -0.02049,-0.206429 -0.0079,-0.359225 0.03788,-0.503478 0.04583,-0.144252 0.124256,-0.28001 0.231689,-0.39877 0.107435,-0.118762 0.24332,-0.221323 0.376494,-0.432188 0.133174,-0.210868 0.263935,-0.531744 0.376494,-0.904478 0.112556,-0.372734 0.208531,-0.796344 0.256194,-1.263148 0.04767,-0.466804 0.04664,-0.976092 0.06016,-1.465877 0.01352,-0.489785 0.0403,-0.960585 0.0089,-1.55053 -0.03139,-0.589947 -0.121696,-1.298572 -0.124756,-1.871332 -0.0031,-0.572761 0.08159,-1.009693 0.129212,-1.407955 0.04762,-0.398261 0.05931,-0.75782 0.104709,-1.225275 0.04538,-0.467456 0.125087,-1.042451 0.282928,-1.84237 0.157839,-0.79992 0.394552,-1.824533 0.630458,-3.174581 0.235908,-1.350048 0.469718,-3.02487 0.621551,-3.972123 0.151831,-0.947253 0.219842,-1.166591 0.478972,-1.412409 0.259128,-0.245819 0.709422,-0.519747 1.147304,-0.786405 0.437881,-0.266658 0.864564,-0.525715 1.468103,-0.833188 0.60354,-0.307471 1.384382,-0.661811 2.087425,-0.946804 0.703044,-0.284995 1.327247,-0.502553 1.639643,-0.61041 0.312397,-0.107858 0.312906,-0.107835 0.383178,-0.133668 0.0088,-0.0032 0.01938,-0.0068 0.03118,-0.0089 z m 9.16284,15.645666 c 0.0458,0.0054 0.08736,0.01927 0.129211,0.0401 0.167408,0.08335 0.327213,0.291755 0.418822,0.436645 0.09162,0.144887 0.115438,0.226588 0.126982,0.267333 0.01154,0.04074 0.01194,0.04132 0.03564,0.07575 0.0237,0.03441 0.07057,0.101938 0.164856,0.294067 0.0943,0.192128 0.235622,0.508896 0.474516,0.91116 0.238895,0.402264 0.576163,0.889995 1.1228,1.826777 0.546635,0.936779 1.302515,2.322787 1.837913,3.421861 0.5354,1.099075 0.849993,1.911292 1.0025,2.359215 0.152506,0.447922 0.14273,0.531569 0.05124,0.605955 -0.09149,0.07439 -0.264465,0.139775 -0.452239,0.236144 -0.187774,0.09637 -0.390681,0.221792 -0.541349,0.501249 -0.150668,0.279457 -0.249266,0.712041 -0.2406,1.087155 0.0087,0.375114 0.126314,0.692972 0.155944,0.915616 0.02963,0.222642 -0.02991,0.35086 -0.314116,0.888881 -0.284208,0.538021 -0.795087,1.487424 -1.345577,2.263421 -0.550491,0.775994 -1.140279,1.377969 -1.563898,1.697564 -0.423619,0.319594 -0.679528,0.356242 -0.980221,0.385405 -0.300693,0.02916 -0.644672,0.05274 -0.893338,0.07575 -0.248665,0.02301 -0.402153,0.04405 -0.688383,0.135895 -0.286228,0.09184 -0.705878,0.254319 -1.044826,0.396544 -0.338948,0.142225 -0.59713,0.265156 -0.848783,0.30966 -0.25165,0.04451 -0.496365,0.01072 -1.136163,-0.171539 -0.639799,-0.182251 -1.674322,-0.513775 -2.472831,-0.773038 -0.798509,-0.259262 -1.360629,-0.447515 -2.049553,-0.732938 -0.688925,-0.285421 -1.505284,-0.666293 -2.169853,-1.015865 -0.66457,-0.349571 -1.179325,-0.668106 -1.485926,-0.877743 -0.306602,-0.209637 -0.405676,-0.310328 -0.372039,-0.458922 0.03364,-0.148594 0.201579,-0.344987 0.503477,-0.643827 0.3019,-0.298841 0.737989,-0.701715 1.296566,-1.36117 0.558575,-0.659457 1.239234,-1.574931 2.172081,-2.916159 0.932845,-1.341228 2.118896,-3.108264 3.040913,-4.457778 0.922016,-1.349514 1.580692,-2.282002 2.194358,-3.023091 0.613665,-0.741089 1.181991,-1.290583 1.755487,-1.70202 0.573497,-0.411438 1.15183,-0.684523 1.528253,-0.8421 0.28232,-0.118182 0.450732,-0.172023 0.588134,-0.155943 z m -46.66298,3.105518 c 0.02885,-0.0019 0.06483,0.0072 0.109157,0.02896 0.08865,0.04357 0.209933,0.1392 0.325255,0.231688 0.115323,0.09249 0.224521,0.182138 0.401001,0.385405 0.176479,0.203268 0.421783,0.518808 0.543576,0.677244 0.121794,0.158436 0.121085,0.158581 0.173768,0.198273 0.05269,0.03968 0.157814,0.120417 0.222777,0.207182 0.06496,0.08677 0.09082,0.180679 0.115844,0.338622 0.02502,0.157943 0.05003,0.378962 0.04233,0.654966 -0.0078,0.276003 -0.04885,0.607235 -0.06906,0.884427 -0.0202,0.277192 -0.0197,0.500736 -0.0557,0.677244 -0.036,0.176506 -0.10869,0.304887 -0.187134,0.387632 -0.07844,0.08274 -0.163961,0.120536 -0.242828,0.109157 -0.07886,-0.01141 -0.151503,-0.07228 -0.198271,-0.158172 -0.04677,-0.0859 -0.06612,-0.196939 -0.0958,-0.347533 -0.02967,-0.150594 -0.07026,-0.339446 -0.120302,-0.545805 -0.05003,-0.20636 -0.10894,-0.430889 -0.167082,-0.652738 -0.05814,-0.221851 -0.114297,-0.440449 -0.191589,-0.686156 -0.07729,-0.245706 -0.176801,-0.517497 -0.278471,-0.715115 -0.101675,-0.197617 -0.206552,-0.321383 -0.287383,-0.472288 -0.08084,-0.150905 -0.13808,-0.330521 -0.158172,-0.496794 -0.02009,-0.166273 -0.0018,-0.318866 0.0089,-0.434417 0.01072,-0.115549 0.01451,-0.193655 0.04456,-0.236144 0.01502,-0.02125 0.03576,-0.03374 0.06461,-0.03564 z" /></g><g
         id="layer1"
         inkscape:label="Layer 3" /></g></g></svg>
