<?xml version="1.0" encoding="UTF-8" standalone="no"?>
<!-- Created with Inkscape (http://www.inkscape.org/) -->

<svg
   width="120"
   height="120"
   viewBox="0 0 120 120"
   version="1.1"
   id="svg1"
   xml:space="preserve"
   inkscape:version="1.4.1 (93de688d07, 2025-03-30)"
   sodipodi:docname="tm2020.svg"
   xmlns:inkscape="http://www.inkscape.org/namespaces/inkscape"
   xmlns:sodipodi="http://sodipodi.sourceforge.net/DTD/sodipodi-0.dtd"
   xmlns:xlink="http://www.w3.org/1999/xlink"
   xmlns="http://www.w3.org/2000/svg"
   xmlns:svg="http://www.w3.org/2000/svg"><sodipodi:namedview
     id="namedview1"
     pagecolor="#1f1f1f"
     bordercolor="#000000"
     borderopacity="0.25"
     inkscape:showpageshadow="2"
     inkscape:pageopacity="0.0"
     inkscape:pagecheckerboard="0"
     inkscape:deskcolor="#3c3c3c"
     inkscape:document-units="px"
     inkscape:zoom="5.6568543"
     inkscape:cx="67.35192"
     inkscape:cy="50.116193"
     inkscape:window-width="1660"
     inkscape:window-height="1287"
     inkscape:window-x="0"
     inkscape:window-y="0"
     inkscape:window-maximized="1"
     inkscape:current-layer="layer1-3" /><defs
     id="defs1"><linearGradient
       id="linearGradient3"
       inkscape:collect="always"><stop
         style="stop-color:#00e053;stop-opacity:1;"
         offset="0"
         id="stop11" /><stop
         style="stop-color:#0075ff;stop-opacity:1;"
         offset="1"
         id="stop12" /></linearGradient><inkscape:path-effect
       effect="bspline"
       id="path-effect14"
       is_visible="true"
       lpeversion="1.3"
       weight="33.333333"
       steps="2"
       helper_size="0"
       apply_no_weight="true"
       apply_with_weight="true"
       only_selected="false"
       uniform="false" /><inkscape:path-effect
       effect="fillet_chamfer"
       id="path-effect5"
       is_visible="true"
       lpeversion="1"
       nodesatellites_param="F,0,0,1,0,37.022737,0,1 @ F,0,0,1,0,36.062445,0,1 @ F,0,0,1,0,35.528974,0,1 @ F,0,0,1,0,28.991378,0,1"
       radius="0"
       unit="px"
       method="auto"
       mode="F"
       chamfer_steps="1"
       flexible="false"
       use_knot_distance="true"
       apply_no_radius="true"
       apply_with_radius="true"
       only_selected="false"
       hide_knots="false" /><inkscape:path-effect
       effect="bspline"
       id="path-effect4"
       is_visible="true"
       lpeversion="1.3"
       weight="33.333333"
       steps="2"
       helper_size="0"
       apply_no_weight="true"
       apply_with_weight="true"
       only_selected="false"
       uniform="false" /><inkscape:path-effect
       effect="bspline"
       id="path-effect3"
       is_visible="true"
       lpeversion="1.3"
       weight="33.333333"
       steps="2"
       helper_size="0"
       apply_no_weight="true"
       apply_with_weight="true"
       only_selected="false"
       uniform="false" /><inkscape:path-effect
       effect="mirror_symmetry"
       start_point="59.977887,81.781355"
       end_point="59.977887,112.27285"
       center_point="59.977887,97.027103"
       id="path-effect9"
       is_visible="true"
       lpeversion="1.2"
       lpesatellites=""
       mode="free"
       discard_orig_path="false"
       fuse_paths="false"
       oposite_fuse="false"
       split_items="false"
       split_open="false"
       link_styles="false" /><inkscape:path-effect
       effect="mirror_symmetry"
       start_point="59.944658,10.409945"
       end_point="59.944658,50.039614"
       center_point="59.944658,30.22478"
       id="path-effect2"
       is_visible="true"
       lpeversion="1.2"
       lpesatellites=""
       mode="free"
       discard_orig_path="false"
       fuse_paths="false"
       oposite_fuse="false"
       split_items="false"
       split_open="false"
       link_styles="false" /><inkscape:path-effect
       effect="mirror_symmetry"
       start_point="59.948435,66.805114"
       end_point="59.948435,107.38004"
       center_point="59.948435,87.092577"
       id="path-effect8"
       is_visible="true"
       lpeversion="1.2"
       lpesatellites=""
       mode="free"
       discard_orig_path="false"
       fuse_paths="false"
       oposite_fuse="false"
       split_items="false"
       split_open="false"
       link_styles="false" /><inkscape:path-effect
       effect="mirror_symmetry"
       start_point="60.801511,9.4541705"
       end_point="60.801511,40.169132"
       center_point="60.801511,24.811651"
       id="path-effect7"
       is_visible="true"
       lpeversion="1.2"
       lpesatellites=""
       mode="free"
       discard_orig_path="false"
       fuse_paths="false"
       oposite_fuse="false"
       split_items="false"
       split_open="false"
       link_styles="false" /><inkscape:path-effect
       effect="fillet_chamfer"
       id="path-effect13"
       is_visible="true"
       lpeversion="1"
       nodesatellites_param="F,0,0,1,0,4.7467821,0,1 @ F,0,0,1,0,4.0515277,0,1 @ F,0,0,1,0,0,0,1 @ F,0,0,1,0,2.4219461,0,1 @ F,0,0,1,0,2.4960577,0,1 @ F,0,0,1,0,0,0,1 @ F,0,0,1,0,4.1062831,0,1"
       radius="0"
       unit="px"
       method="auto"
       mode="F"
       chamfer_steps="1"
       flexible="false"
       use_knot_distance="true"
       apply_no_radius="true"
       apply_with_radius="true"
       only_selected="false"
       hide_knots="false" /><inkscape:path-effect
       effect="fillet_chamfer"
       id="path-effect12"
       is_visible="true"
       lpeversion="1"
       nodesatellites_param="F,0,0,1,0,0,0,1 @ F,0,0,1,0,0,0,1 @ F,0,0,1,0,0,0,1 @ F,0,0,1,0,0,0,1 @ F,0,0,1,0,3.627665,0,1 @ F,0,0,1,0,0,0,1 @ F,0,0,1,0,0,0,1"
       radius="0"
       unit="px"
       method="auto"
       mode="F"
       chamfer_steps="1"
       flexible="false"
       use_knot_distance="true"
       apply_no_radius="true"
       apply_with_radius="true"
       only_selected="false"
       hide_knots="false" /><inkscape:path-effect
       effect="fillet_chamfer"
       id="path-effect11"
       is_visible="true"
       lpeversion="1"
       nodesatellites_param="F,0,0,1,0,2.9729248,0,1 @ F,0,0,1,0,3.8975858,0,1 @ F,0,0,1,0,0,0,1 @ F,0,1,1,0,3.784373,0,1 @ F,0,0,1,0,1.4792147,0,1 @ F,0,0,1,0,0,0,1 @ F,0,0,1,0,3.784373,0,1"
       radius="0"
       unit="px"
       method="auto"
       mode="F"
       chamfer_steps="1"
       flexible="false"
       use_knot_distance="true"
       apply_no_radius="true"
       apply_with_radius="true"
       only_selected="false"
       hide_knots="false" /><linearGradient
       id="linearGradient6"><stop
         style="stop-color:#c88500;stop-opacity:1;"
         offset="0.07163448"
         id="stop8" /><stop
         style="stop-color:#fff300;stop-opacity:1;"
         offset="1"
         id="stop9" /></linearGradient><linearGradient
       id="linearGradient6-1"><stop
         style="stop-color:#c88500;stop-opacity:1;"
         offset="0"
         id="stop6" /><stop
         style="stop-color:#fff300;stop-opacity:1;"
         offset="1"
         id="stop7" /></linearGradient><inkscape:path-effect
       effect="fillet_chamfer"
       id="path-effect1"
       is_visible="true"
       lpeversion="1"
       nodesatellites_param="F,0,0,1,0,24.536157,0,1 @ F,0,0,1,0,24.004899,0,1 @ F,0,0,1,0,23.651152,0,1 @ F,0,0,1,0,24.380791,0,1"
       radius="0"
       unit="px"
       method="auto"
       mode="F"
       chamfer_steps="1"
       flexible="false"
       use_knot_distance="true"
       apply_no_radius="true"
       apply_with_radius="true"
       only_selected="false"
       hide_knots="false" /><linearGradient
       id="a"
       x1="7.937"
       x2="7.937"
       y1="15.081"
       y2="1.852"
       gradientTransform="scale(3.7796)"
       gradientUnits="userSpaceOnUse"><stop
         offset="0"
         stop-color="#9b6f27"
         id="stop1" /><stop
         offset="1"
         stop-color="#d0ab6a"
         id="stop2" /></linearGradient><filter
       id="b"
       width="1.216"
       height="1.216"
       x="-0.108"
       y="-0.108"
       color-interpolation-filters="sRGB"><feGaussianBlur
         stdDeviation="1.35"
         id="feGaussianBlur2" /></filter><linearGradient
       id="linearGradient31"
       x1=".5002"
       x2=".5002"
       y2="1"
       gradientTransform="matrix(244,0,0,228,5.986,12)"
       gradientUnits="userSpaceOnUse"><stop
         stop-color="#ebdbb2"
         stop-opacity=".2"
         offset="0"
         id="stop1-5" /><stop
         stop-color="#ebdbb2"
         stop-opacity=".05"
         offset=".1"
         id="stop2-6" /><stop
         stop-opacity="0"
         offset=".7036"
         id="stop3" /><stop
         stop-opacity=".1"
         offset=".8975"
         id="stop4" /><stop
         stop-opacity=".2"
         offset="1"
         id="stop5" /></linearGradient><linearGradient
       id="linearGradient10"
       inkscape:collect="always"><stop
         style="stop-color:#00e053;stop-opacity:1;"
         offset="0"
         id="stop5-1" /><stop
         style="stop-color:#0075ff;stop-opacity:1;"
         offset="1"
         id="stop10" /></linearGradient><linearGradient
       id="linearGradient1"
       inkscape:collect="always"><stop
         style="stop-color:#000000;stop-opacity:1;"
         offset="0"
         id="stop3-1" /><stop
         style="stop-color:#000000;stop-opacity:0;"
         offset="1"
         id="stop4-5" /></linearGradient><inkscape:path-effect
       effect="bspline"
       id="path-effect4-9"
       is_visible="true"
       lpeversion="1.3"
       weight="33.333333"
       steps="2"
       helper_size="0"
       apply_no_weight="true"
       apply_with_weight="true"
       only_selected="false"
       uniform="false" /><inkscape:path-effect
       effect="bspline"
       id="path-effect3-7"
       is_visible="true"
       lpeversion="1.3"
       weight="33.333333"
       steps="2"
       helper_size="0"
       apply_no_weight="true"
       apply_with_weight="true"
       only_selected="false"
       uniform="false" /><inkscape:path-effect
       effect="mirror_symmetry"
       start_point="59.977887,81.781355"
       end_point="59.977887,112.27285"
       center_point="59.977887,97.027103"
       id="path-effect9-7"
       is_visible="true"
       lpeversion="1.2"
       lpesatellites=""
       mode="free"
       discard_orig_path="false"
       fuse_paths="false"
       oposite_fuse="false"
       split_items="false"
       split_open="false"
       link_styles="false" /><inkscape:path-effect
       effect="mirror_symmetry"
       start_point="59.944658,10.409945"
       end_point="59.944658,50.039614"
       center_point="59.944658,30.22478"
       id="path-effect2-6"
       is_visible="true"
       lpeversion="1.2"
       lpesatellites=""
       mode="free"
       discard_orig_path="false"
       fuse_paths="false"
       oposite_fuse="false"
       split_items="false"
       split_open="false"
       link_styles="false" /><inkscape:path-effect
       effect="mirror_symmetry"
       start_point="59.948435,66.805114"
       end_point="59.948435,107.38004"
       center_point="59.948435,87.092577"
       id="path-effect8-7"
       is_visible="true"
       lpeversion="1.2"
       lpesatellites=""
       mode="free"
       discard_orig_path="false"
       fuse_paths="false"
       oposite_fuse="false"
       split_items="false"
       split_open="false"
       link_styles="false" /><inkscape:path-effect
       effect="mirror_symmetry"
       start_point="60.801511,9.4541705"
       end_point="60.801511,40.169132"
       center_point="60.801511,24.811651"
       id="path-effect7-3"
       is_visible="true"
       lpeversion="1.2"
       lpesatellites=""
       mode="free"
       discard_orig_path="false"
       fuse_paths="false"
       oposite_fuse="false"
       split_items="false"
       split_open="false"
       link_styles="false" /><inkscape:path-effect
       effect="fillet_chamfer"
       id="path-effect13-6"
       is_visible="true"
       lpeversion="1"
       nodesatellites_param="F,0,0,1,0,4.7467821,0,1 @ F,0,0,1,0,4.0515277,0,1 @ F,0,0,1,0,0,0,1 @ F,0,0,1,0,2.4219461,0,1 @ F,0,0,1,0,2.4960577,0,1 @ F,0,0,1,0,0,0,1 @ F,0,0,1,0,4.1062831,0,1"
       radius="0"
       unit="px"
       method="auto"
       mode="F"
       chamfer_steps="1"
       flexible="false"
       use_knot_distance="true"
       apply_no_radius="true"
       apply_with_radius="true"
       only_selected="false"
       hide_knots="false" /><inkscape:path-effect
       effect="fillet_chamfer"
       id="path-effect12-5"
       is_visible="true"
       lpeversion="1"
       nodesatellites_param="F,0,0,1,0,0,0,1 @ F,0,0,1,0,0,0,1 @ F,0,0,1,0,0,0,1 @ F,0,0,1,0,0,0,1 @ F,0,0,1,0,3.627665,0,1 @ F,0,0,1,0,0,0,1 @ F,0,0,1,0,0,0,1"
       radius="0"
       unit="px"
       method="auto"
       mode="F"
       chamfer_steps="1"
       flexible="false"
       use_knot_distance="true"
       apply_no_radius="true"
       apply_with_radius="true"
       only_selected="false"
       hide_knots="false" /><inkscape:path-effect
       effect="fillet_chamfer"
       id="path-effect11-6"
       is_visible="true"
       lpeversion="1"
       nodesatellites_param="F,0,0,1,0,2.9729248,0,1 @ F,0,0,1,0,3.8975858,0,1 @ F,0,0,1,0,0,0,1 @ F,0,1,1,0,3.784373,0,1 @ F,0,0,1,0,1.4792147,0,1 @ F,0,0,1,0,0,0,1 @ F,0,0,1,0,3.784373,0,1"
       radius="0"
       unit="px"
       method="auto"
       mode="F"
       chamfer_steps="1"
       flexible="false"
       use_knot_distance="true"
       apply_no_radius="true"
       apply_with_radius="true"
       only_selected="false"
       hide_knots="false" /><inkscape:path-effect
       effect="fillet_chamfer"
       id="path-effect1-1"
       is_visible="true"
       lpeversion="1"
       nodesatellites_param="F,0,0,1,0,24.536157,0,1 @ F,0,0,1,0,24.004899,0,1 @ F,0,0,1,0,23.651152,0,1 @ F,0,0,1,0,24.380791,0,1"
       radius="0"
       unit="px"
       method="auto"
       mode="F"
       chamfer_steps="1"
       flexible="false"
       use_knot_distance="true"
       apply_no_radius="true"
       apply_with_radius="true"
       only_selected="false"
       hide_knots="false" /><filter
       id="b-3"
       width="1.216"
       height="1.216"
       x="-0.108"
       y="-0.108"
       color-interpolation-filters="sRGB"><feGaussianBlur
         stdDeviation="1.35"
         id="feGaussianBlur2-9" /></filter><inkscape:path-effect
       effect="bspline"
       id="path-effect4-8"
       is_visible="true"
       lpeversion="1.3"
       weight="33.333333"
       steps="2"
       helper_size="0"
       apply_no_weight="true"
       apply_with_weight="true"
       only_selected="false"
       uniform="false" /><inkscape:path-effect
       effect="bspline"
       id="path-effect4-6"
       is_visible="true"
       lpeversion="1.3"
       weight="33.333333"
       steps="2"
       helper_size="0"
       apply_no_weight="true"
       apply_with_weight="true"
       only_selected="false"
       uniform="false" /><inkscape:path-effect
       effect="bspline"
       id="path-effect5-0"
       is_visible="true"
       lpeversion="1.3"
       weight="33.333333"
       steps="2"
       helper_size="0"
       apply_no_weight="true"
       apply_with_weight="true"
       only_selected="false"
       uniform="false" /><inkscape:path-effect
       effect="bspline"
       id="path-effect5-8"
       is_visible="true"
       lpeversion="1.3"
       weight="33.333333"
       steps="2"
       helper_size="0"
       apply_no_weight="true"
       apply_with_weight="true"
       only_selected="false"
       uniform="false" /><linearGradient
       inkscape:collect="always"
       xlink:href="#linearGradient1"
       id="linearGradient4"
       x1="12.760297"
       y1="60.126409"
       x2="105.91121"
       y2="60.126409"
       gradientUnits="userSpaceOnUse" /><linearGradient
       inkscape:collect="always"
       xlink:href="#linearGradient10"
       id="linearGradient5"
       gradientUnits="userSpaceOnUse"
       x1="12.760297"
       y1="60.126409"
       x2="105.91121"
       y2="60.126409" /><linearGradient
       inkscape:collect="always"
       xlink:href="#linearGradient3"
       id="linearGradient12"
       x1="5.6706416"
       y1="60.000002"
       x2="114.32936"
       y2="60.000002"
       gradientUnits="userSpaceOnUse" /></defs><g
     inkscape:groupmode="layer"
     id="layer3"
     inkscape:label="base"><path
       d="m 76.476937,9.2332248 c 32.063223,0 37.852423,6.6798392 37.852423,38.7430672 v 24.938066 c 0,31.172592 -5.7892,37.852422 -37.852423,37.852422 H 43.523063 c -32.063227,0 -37.8524214,-6.67983 -37.8524214,-37.852422 V 47.976292 c 0,-32.063228 5.7891944,-38.7430672 37.8524214,-38.7430672 z"
       fill="#ebdbb2"
       style="display:inline;opacity:1;isolation:isolate;stroke-width:0.445323;fill:url(#linearGradient12)"
       id="path5" /><g
       id="g1"
       transform="matrix(0.82971007,0,0,0.82971007,9.7930068,7.8665218)"><g
         id="layer2"
         inkscape:label="Layer 2"
         style="opacity:1"><path
           style="opacity:1;fill:#eeeeee;fill-opacity:0;stroke-width:0.965576"
           id="rect1"
           width="104.6141"
           height="104.75148"
           x="7.5219741"
           y="7.4503703"
           inkscape:path-effect="#path-effect1-1"
           sodipodi:type="rect"
           d="M 32.058131,7.4503703 H 88.131173 A 24.004899,24.004899 45 0 1 112.13607,31.455269 V 88.550698 A 23.651152,23.651152 135 0 1 88.48492,112.20185 H 31.902765 A 24.380791,24.380791 45 0 1 7.5219741,87.821059 V 31.986527 A 24.536157,24.536157 135 0 1 32.058131,7.4503703 Z"
           transform="translate(0.40694183)" /><g
           inkscape:groupmode="layer"
           id="layer1-3"
           inkscape:label="Layer 3"
           transform="matrix(1.2481518,0,0,1.2481518,-14.06003,-15.046886)"
           style="fill:url(#linearGradient4)"><g
             id="g4"
             style="fill:url(#linearGradient5)"><path
               id="path4"
               style="fill:#faf7ee;fill-opacity:1;fill-rule:evenodd;stroke-width:4"
               d="m 75.857058,48.941121 c -1.424943,-0.0016 -1.424325,-3.1e-4 -3.099896,0.0016 -1.675571,0.0019 -5.026465,0.0053 -6.778772,0.0094 -1.752308,0.0041 -1.906849,0.0085 -2.056166,0.01878 -0.149316,0.01032 -0.294688,0.02556 -0.441277,0.05007 -0.146589,0.02451 -0.294644,0.05748 -0.439713,0.100148 -0.145068,0.04267 -0.286203,0.09508 -0.438148,0.16587 -0.151944,0.07079 -0.313544,0.160417 -0.439712,0.240981 -0.126169,0.08057 -0.21792,0.152902 -0.314528,0.234722 -0.09661,0.08182 -0.19805,0.172621 -0.323916,0.322352 -0.125867,0.149731 -0.276032,0.358772 -0.386509,0.54612 -0.110478,0.187348 -0.182375,0.353485 -0.233157,0.494481 -0.05078,0.140996 -0.0792,0.256069 -0.686954,3.595942 -0.607757,3.339873 -1.793916,9.9044 -2.387905,13.189814 -0.59399,3.285415 -0.597016,3.291453 -0.593065,3.293933 0.004,0.0025 0.01449,7.76e-4 1.331657,0 1.31717,-7.76e-4 3.941965,-8.39e-4 5.256209,-0.0016 1.314244,-7.26e-4 1.318431,-0.0012 1.322267,-0.0078 0.0038,-0.0067 0.0069,-0.0192 0.25976,-1.417721 0.252897,-1.398517 0.755436,-4.182708 1.023388,-5.675579 0.267951,-1.492871 0.300933,-1.693647 0.345823,-1.924721 0.04489,-0.231074 0.101306,-0.493677 0.153352,-0.691648 0.05205,-0.197971 0.09951,-0.331631 0.162741,-0.474138 0.06323,-0.142507 0.14194,-0.293484 0.223768,-0.424065 0.08183,-0.13058 0.167627,-0.241543 0.283231,-0.356777 0.115605,-0.115234 0.261901,-0.234443 0.405287,-0.327046 0.143386,-0.0926 0.283042,-0.158962 0.411546,-0.206556 0.128505,-0.04759 0.244584,-0.07688 0.34113,-0.09232 0.09655,-0.01545 0.173795,-0.0166 0.233157,-0.01721 0.05936,-6.16e-4 0.10225,-2.66e-4 2.098415,0 1.996165,2.67e-4 5.946069,3.84e-4 7.947689,0 2.00162,-3.83e-4 2.054041,-6.65e-4 2.084331,-0.0016 0.03029,-9e-4 0.03885,-0.0023 0.04381,-0.0078 0.005,-0.0055 0.0072,-0.01566 0.294185,-1.619583 0.287032,-1.603926 0.858179,-4.801392 1.175175,-6.562828 0.316997,-1.761436 0.378697,-2.08644 0.411546,-2.254897 0.03285,-0.168456 0.03749,-0.180479 0.02191,-0.186212 -0.01559,-0.0057 -0.05048,-0.0062 -1.492833,-0.0078 -1.442353,-0.0016 -4.292886,-0.0047 -5.717829,-0.0063 z m 24.110649,0.05477 c -3.083702,0.0066 -9.251482,0.02097 -12.341685,0.02817 -3.090203,0.0072 -3.103785,0.0072 -3.109285,0.01878 -0.0055,0.0116 -0.0034,0.03351 -0.317657,1.805795 -0.314236,1.772287 -0.945227,5.294711 -1.26124,7.062004 -0.316013,1.767294 -0.316876,1.780692 -0.291055,1.787017 0.02582,0.0063 0.07975,0.0064 2.146924,0.0078 2.067178,0.0014 6.147031,0.0028 8.215272,0.01721 2.06824,0.01441 2.123343,0.04185 2.196998,0.08294 0.07366,0.04109 0.166168,0.09621 0.267583,0.175259 0.101416,0.07905 0.212716,0.1815 0.306704,0.305138 0.09399,0.123639 0.170788,0.268942 0.222203,0.400593 0.05141,0.13165 0.07766,0.2503 0.09545,0.402157 0.01779,0.151857 0.02739,0.337268 -0.2535,2.040517 -0.280888,1.703248 -0.852771,4.924028 -1.139184,6.539356 -0.286413,1.615328 -0.286908,1.624283 -0.275407,1.628971 0.0115,0.0047 0.03505,0.0056 0.0579,0.0063 0.02285,6.11e-4 0.04444,9.15e-4 1.344175,0.0016 1.299732,6.5e-4 3.876777,0.0016 5.171707,0.0016 1.29494,0 1.30796,-2.44e-4 1.31445,-0.0047 0.006,-0.0045 0.007,-0.01395 0.60402,-3.328359 0.59663,-3.314411 1.78896,-9.933161 2.38634,-13.268055 0.59737,-3.334894 0.59912,-3.386303 0.60088,-3.447285 0.002,-0.06098 0.003,-0.132442 -0.002,-0.219074 -0.005,-0.08663 -0.0143,-0.188527 -0.036,-0.303574 -0.0217,-0.115046 -0.0548,-0.242378 -0.10797,-0.381814 -0.0531,-0.139436 -0.12618,-0.289581 -0.21595,-0.425629 -0.0898,-0.136049 -0.19726,-0.259115 -0.33017,-0.363037 -0.13291,-0.103923 -0.29173,-0.189903 -0.45693,-0.259759 -0.16519,-0.06986 -0.33585,-0.123617 -0.48666,-0.161176 -0.15081,-0.03756 -0.28265,-0.05757 -0.40841,-0.07355 -0.12577,-0.01598 -0.24559,-0.0282 -0.38025,-0.04069 -0.13466,-0.01248 -0.28271,-0.02561 -0.35834,-0.03286 -0.0756,-0.0073 -0.0757,-0.0082 -3.159365,-0.0016 z m -69.876754,0.0063 c -3.083703,0.0066 -9.251483,0.01941 -12.341686,0.0266 -3.090203,0.0072 -3.103784,0.0087 -3.109284,0.02034 -0.0055,0.0116 -0.0034,0.03351 -0.317658,1.805795 -0.314235,1.772287 -0.943662,5.294711 -1.259675,7.062004 -0.316013,1.767294 -0.318441,1.779127 -0.29262,1.785453 0.02582,0.0063 0.07975,0.008 2.146925,0.0094 2.067178,0.0014 6.147031,0.0028 8.215271,0.01721 2.068241,0.01441 2.124909,0.04185 2.198564,0.08293 0.07365,0.04109 0.164602,0.09621 0.266018,0.175259 0.101416,0.07905 0.212716,0.1815 0.306703,0.305139 0.09399,0.123638 0.170789,0.268941 0.222204,0.400592 0.05141,0.131651 0.07766,0.2503 0.09545,0.402157 0.01779,0.151857 0.02739,0.335704 -0.2535,2.038952 -0.280888,1.703249 -0.852772,4.925593 -1.139185,6.540921 -0.286413,1.615328 -0.286908,1.624284 -0.275407,1.628971 0.0115,0.0047 0.03505,0.0041 0.0579,0.0047 0.02285,6.11e-4 0.04444,0.0025 1.344175,0.0031 1.299733,6.51e-4 3.878343,0 5.173274,0 1.294932,0 1.306395,0.0013 1.312879,-0.0031 0.0065,-0.0044 0.0074,-0.01395 0.604018,-3.328359 0.596639,-3.31441 1.788964,-9.934726 2.386341,-13.26962 0.597377,-3.334894 0.599122,-3.384738 0.600888,-3.44572 0.0018,-0.06098 0.0031,-0.132441 -0.0016,-0.219073 -0.0047,-0.08663 -0.01433,-0.188528 -0.03599,-0.303574 -0.02166,-0.115047 -0.05484,-0.243944 -0.107972,-0.38338 -0.05313,-0.139436 -0.126175,-0.289581 -0.215945,-0.425629 -0.08977,-0.136048 -0.197267,-0.257549 -0.330175,-0.361472 -0.132909,-0.103922 -0.29173,-0.189902 -0.456926,-0.259759 -0.165196,-0.06986 -0.335847,-0.123617 -0.486657,-0.161176 -0.15081,-0.03756 -0.281087,-0.05913 -0.406852,-0.07511 -0.125764,-0.01598 -0.247156,-0.02664 -0.381814,-0.03912 -0.134658,-0.01248 -0.282711,-0.02561 -0.358342,-0.03286 -0.07563,-0.0073 -0.07566,-0.0082 -3.159359,-0.0016 z m 19.381782,0.03755 c -1.675571,0.0019 -5.026466,0.0053 -6.778773,0.0094 -1.752307,0.0041 -1.906849,0.0085 -2.056165,0.01878 -0.149316,0.01032 -0.294689,0.02713 -0.441278,0.05164 -0.146589,0.02451 -0.293079,0.05748 -0.438147,0.100148 -0.145069,0.04267 -0.287769,0.09508 -0.439713,0.16587 -0.151944,0.07079 -0.313544,0.160417 -0.439713,0.240982 -0.126168,0.08056 -0.216355,0.151337 -0.312962,0.233157 -0.09661,0.08182 -0.199615,0.174186 -0.325482,0.323916 -0.125866,0.149731 -0.276031,0.357207 -0.386509,0.544555 -0.110477,0.187348 -0.18081,0.35505 -0.231592,0.496046 -0.05078,0.140997 -0.08076,0.256069 -0.688518,3.595942 -0.607757,3.339873 -1.793916,9.9044 -2.387906,13.189815 -0.593989,3.285414 -0.597016,3.291452 -0.593064,3.293932 0.004,0.0025 0.01449,7.76e-4 1.331656,0 1.317171,-7.75e-4 3.941965,-8.39e-4 5.256209,-0.0016 1.314245,-7.26e-4 1.318432,-0.0027 1.322268,-0.0094 0.0038,-0.0067 0.0069,-0.01764 0.259759,-1.416157 0.252897,-1.398517 0.755437,-4.184273 1.023388,-5.677144 0.267952,-1.49287 0.300933,-1.693647 0.345824,-1.924721 0.04489,-0.231073 0.101305,-0.492111 0.153352,-0.690082 0.05205,-0.197971 0.101077,-0.333197 0.164305,-0.475704 0.06323,-0.142507 0.140376,-0.291919 0.222204,-0.422499 0.08183,-0.130581 0.167626,-0.241544 0.283231,-0.356778 0.115605,-0.115234 0.261901,-0.234442 0.405287,-0.327046 0.143386,-0.0926 0.283041,-0.158962 0.411546,-0.206555 0.128504,-0.04759 0.246148,-0.07688 0.342694,-0.09232 0.09655,-0.01545 0.17223,-0.0166 0.231592,-0.01721 0.05936,-6.17e-4 0.102251,-2.67e-4 2.098416,0 1.996165,2.66e-4 5.946068,3.83e-4 7.947688,0 2.00162,-3.84e-4 2.054042,-0.0022 2.084332,-0.0031 0.03029,-9e-4 0.03885,-7.76e-4 0.04382,-0.0063 0.005,-0.0055 0.0072,-0.01566 0.294185,-1.619582 0.287032,-1.603927 0.858178,-4.801393 1.175175,-6.562829 0.316996,-1.761436 0.378697,-2.088005 0.411546,-2.256461 0.03285,-0.168457 0.03749,-0.178915 0.02191,-0.184648 -0.01559,-0.0057 -0.05048,-0.0062 -1.492832,-0.0078 -1.442354,-0.0016 -4.292886,-0.0047 -5.717829,-0.0063 -1.424943,-0.0016 -1.424325,-0.0019 -3.099896,0 z" /></g></g></g><g
         id="layer1"
         inkscape:label="Layer 3" /></g></g></svg>
